<svg xmlns="http://www.w3.org/2000/svg" viewBox="0 0 883.81 393.38"><defs><style>.a{fill:none;}.b{fill:#fff;}.c{fill:#d8804f;}</style></defs><path class="a" d="M487.13,78.37V90.31h9.68l2.56,4.31,2.56-4.31h40.2V69.06H496.7v9.31ZM501.89,73H532v2.84H501.89Zm0,4.51H532v2.83H501.89Zm0,4.51H532v2.83H501.89Z"/><ellipse class="a" cx="758.09" cy="140.84" rx="5.1" ry="4.96"/><rect class="a" x="653.53" y="170.12" width="95.86" height="5.61"/><rect class="a" x="653.53" y="178.57" width="95.86" height="5.61"/><polygon class="a" points="759.81 187.22 759.81 175.53 752.3 170.77 752.3 191.98 759.81 187.22"/><path class="a" d="M501.82,334.87a108.4,108.4,0,0,0-13.94,41.78h15.2a94,94,0,0,1,16.5-41.78Z"/><path class="a" d="M753.09,44.7c0-8.54-5.49-14.57-13.35-14.66h-.34c-8.87.1-12,7.64-12,14.66v6.38h25.72Z"/><ellipse class="a" cx="571.33" cy="260.18" rx="2.91" ry="2.83"/><rect class="a" x="653.53" y="187.02" width="95.86" height="5.61"/><path class="a" d="M808.75,139.11c-11.24,0-20.39,8.9-20.39,19.83s9.15,19.84,20.39,19.84,20.4-8.9,20.4-19.84S820,139.11,808.75,139.11ZM800.84,150a5.52,5.52,0,0,1,5.59,5.44h-2.91a2.68,2.68,0,0,0-5.36,0h-2.91A5.52,5.52,0,0,1,800.84,150Zm12.24,11.1v2.84h-8.66v-2.84Zm-4.33,12.73A17.2,17.2,0,0,1,797.93,170l1.87-2.17a14.34,14.34,0,0,0,17.91,0l1.86,2.17A17.2,17.2,0,0,1,808.75,173.78Zm10.6-18.39a2.69,2.69,0,0,0-5.37,0h-2.91a5.6,5.6,0,0,1,11.19,0Z"/><polygon class="a" points="777.64 55.55 780.92 52.04 785.75 52.68 783.33 48.57 785.45 44.3 780.68 45.26 777.15 41.98 776.62 46.7 772.33 48.94 776.77 50.89 777.64 55.55"/><path class="a" d="M596.8,280.16a109.5,109.5,0,0,0-42.86,8.69v16.29a94.45,94.45,0,0,1,61.66-8.43l.08-.12a3.28,3.28,0,0,0,.31.2,94.83,94.83,0,0,1,74.53,79.86h15.19A109.68,109.68,0,0,0,596.8,280.16Z"/><polygon class="a" points="841.5 44.81 844.78 48.32 845.65 43.66 850.09 41.71 845.8 39.46 845.27 34.75 841.75 38.03 836.98 37.06 839.09 41.34 836.67 45.45 841.5 44.81"/><polygon class="a" points="804.66 90.58 808.97 88.37 813.28 90.58 812.46 85.9 815.95 82.59 811.13 81.91 808.97 77.66 806.81 81.91 801.99 82.59 805.48 85.9 804.66 90.58"/><ellipse class="a" cx="835.44" cy="195.67" rx="5.1" ry="4.96"/><ellipse class="a" cx="806.25" cy="206.35" rx="2.91" ry="2.83"/><path class="a" d="M580.15,161.42l2.34,1.2-.45-2.53a1.42,1.42,0,0,1,.42-1.26l1.89-1.79-2.61-.37a1.46,1.46,0,0,1-1.1-.78l-1.17-2.3-1.17,2.3a1.46,1.46,0,0,1-1.1.78l-2.61.37,1.89,1.79a1.42,1.42,0,0,1,.42,1.26l-.45,2.53,2.34-1.2a1.62,1.62,0,0,1,.68-.16A1.65,1.65,0,0,1,580.15,161.42Z"/><ellipse class="a" cx="131.68" cy="192.21" rx="2.91" ry="2.83"/><path class="a" d="M443.86,334.87l9.88,30.62h12.31v11.16H485a110.89,110.89,0,0,1,13.53-41.78Z"/><ellipse class="a" cx="113.82" cy="98.74" rx="2.91" ry="2.83"/><ellipse class="a" cx="238.29" cy="150.39" rx="2.91" ry="2.83"/><ellipse class="a" cx="60.39" cy="292.8" rx="2.91" ry="2.83"/><ellipse class="a" cx="248.23" cy="76.95" rx="2.91" ry="2.83"/><ellipse class="a" cx="60.39" cy="333.62" rx="2.91" ry="2.83"/><polygon class="a" points="298.76 334.88 318.6 376.65 371.88 376.65 371.88 365.49 384.18 365.49 394.06 334.88 298.76 334.88"/><path class="a" d="M270.3,289.13a.73.73,0,0,1,.08.09,1.84,1.84,0,0,1,.17.22l.06.14a1.57,1.57,0,0,1,.09.23c0,.05,0,.11,0,.16a1,1,0,0,1,0,.17v17.74l2.75,6.33,4.61-3.42V298.12l-11.68-24.59-7.65,9.62L270,288.89A1.16,1.16,0,0,1,270.3,289.13Z"/><ellipse class="a" cx="60.39" cy="313.21" rx="2.91" ry="2.83"/><path class="a" d="M410.83,92.29a1.15,1.15,0,0,0-.46.1h.91A1.14,1.14,0,0,0,410.83,92.29Z"/><path class="b" d="M185.57,98.4a7.49,7.49,0,0,1-4.06,1.21,7.26,7.26,0,0,1-5.21-2.08,7,7,0,0,1-1-9l-.64-.61a1.46,1.46,0,0,1-.32-.47,8.32,8.32,0,0,0-1.47,6.9l6.7,6.47a9,9,0,0,0,6.68-1.18c.06-.13.1-.25.17-.38Z"/><polygon class="a" points="463.43 59.48 466.89 57.7 470.36 59.48 469.7 55.72 472.5 53.06 468.63 52.51 466.89 49.1 465.16 52.51 461.29 53.06 464.09 55.72 463.43 59.48"/><rect class="a" x="487.13" y="69.06" width="6.66" height="6.48"/><path class="a" d="M320.86,48.29a23.66,23.66,0,0,0-21.07,5.64l15.87,14.3,14.69-15.44A23.4,23.4,0,0,0,320.86,48.29Z"/><path class="b" d="M203.58,60.81a7.53,7.53,0,0,1,4.09-1.2,7.43,7.43,0,0,1,5.18,2.07,7,7,0,0,1,1,9l.88.85.39-.17a8.3,8.3,0,0,0,1-7l-6-5.8a9,9,0,0,0-7.62,1.34,1.5,1.5,0,0,1,.48.3Z"/><ellipse class="a" cx="281.15" cy="136.81" rx="2.91" ry="2.83"/><ellipse class="a" cx="279.55" cy="106.48" rx="5.1" ry="4.96"/><path class="a" d="M278.1,314.36l-4.34,3.21a1.53,1.53,0,0,1-1.26.24,1.46,1.46,0,0,1-1-.82l-.8-1.83v61.49h44.65l-19.84-41.78H278.1Z"/><ellipse class="a" cx="801.78" cy="356.86" rx="2.91" ry="2.83"/><ellipse class="a" cx="801.78" cy="319.67" rx="2.91" ry="2.83"/><path class="a" d="M219.15,242.17c0-10.66-6.87-18.19-16.7-18.3H202c-11.12.13-15.08,9.54-15.08,18.3v8.14h32.2Z"/><ellipse class="a" cx="801.78" cy="338.27" rx="2.91" ry="2.83"/><path class="b" d="M167.49,378.41a27.14,27.14,0,0,1-5.45,1,1.42,1.42,0,0,1-.55.11h7.39A1.43,1.43,0,0,1,167.49,378.41Z"/><polygon class="b" points="318.6 376.65 319.94 379.48 371.88 379.48 371.88 376.65 318.6 376.65"/><path class="b" d="M568.14,378.07H502.9c.05-.48.11-.95.18-1.42h-15.2c-.05.47-.13.94-.18,1.42h-2.93c.05-.48.13-.95.18-1.42h-18.9v2.83H578.84c-.14-.46-.27-.93-.37-1.41Z"/><path class="b" d="M866.46,376.65H779.68v1.42h-2.91v-1.42H755.18v1.42h-2.92v-1.42H730.67v1.42h-2.91v-1.42H708.65c.05.47.13.94.17,1.42h-2.93c0-.48-.12-.95-.18-1.42H690.52l.18,1.42H617.45c-.1.48-.23.95-.37,1.41H866.46a7.77,7.77,0,0,1,0-2.83Z"/><path class="b" d="M53,376.65H17.35a7.77,7.77,0,0,1,0,2.83h46A21.82,21.82,0,0,1,53,376.65Z"/><path class="b" d="M17.35,376.65a8.69,8.69,0,0,0-8.61-7.08,8.5,8.5,0,1,0,0,17,8.68,8.68,0,0,0,8.61-7.09,7.77,7.77,0,0,0,0-2.83Zm-8.61,7.08a5.67,5.67,0,1,1,0-11.33,5.67,5.67,0,1,1,0,11.33Z"/><path class="b" d="M875.07,369.57a8.69,8.69,0,0,0-8.61,7.08,7.77,7.77,0,0,0,0,2.83,8.72,8.72,0,1,0,8.61-9.91Zm0,14.16a5.67,5.67,0,1,1,5.83-5.66A5.75,5.75,0,0,1,875.07,383.73Z"/><rect class="c" x="343.93" y="135.44" width="2.91" height="2.83"/><rect class="c" x="343.93" y="141.1" width="2.91" height="2.83"/><rect class="c" x="343.93" y="146.77" width="2.91" height="2.83"/><path class="b" d="M329.73,113.19A15.67,15.67,0,1,0,345.39,98,15.47,15.47,0,0,0,329.73,113.19Zm28.4,0a12.75,12.75,0,1,1-12.74-12.4A12.58,12.58,0,0,1,358.13,113.19Z"/><polygon class="b" points="341.74 111.4 340.55 111.4 340.55 113.58 338.35 113.58 338.35 114.73 340.55 114.73 340.55 116.93 341.74 116.93 341.74 114.73 343.92 114.73 343.92 113.58 341.74 113.58 341.74 111.4"/><path class="b" d="M344.63,111.67h1.53c.07-.78.37-1.29,1.15-1.29a.93.93,0,0,1,1,1c0,.66-.29.93-1.2,1.63-1.88,1.4-2.52,2.38-2.52,3.86V117H350l.19-1.3h-3.61a4,4,0,0,1,1.58-1.66c1.36-.94,1.84-1.52,1.84-2.61,0-1.26-.87-2.23-2.62-2.22A2.44,2.44,0,0,0,344.63,111.67Z"/><polygon class="b" points="225.44 215.26 225.44 176.09 278.1 176.09 278.1 173.25 222.52 173.25 222.52 218.09 278.1 218.09 278.1 215.26 225.44 215.26"/><rect class="b" x="233.37" y="184.49" width="44.73" height="2.83"/><rect class="b" x="233.37" y="190.79" width="10.55" height="2.83"/><rect class="b" x="247.08" y="190.79" width="10.55" height="2.83"/><rect class="b" x="260.8" y="190.79" width="10.55" height="2.83"/><rect class="b" x="233.37" y="195.5" width="4.92" height="2.83"/><rect class="b" x="241.45" y="195.5" width="21.85" height="2.83"/><rect class="b" x="233.37" y="200.22" width="8.14" height="2.83"/><rect class="b" x="244.67" y="200.22" width="10.55" height="2.83"/><rect class="b" x="258.38" y="200.22" width="12.97" height="2.83"/><rect class="b" x="233.37" y="204.93" width="24.27" height="2.83"/><rect class="c" x="313.35" y="130.42" width="2.91" height="2.83"/><rect class="c" x="313.35" y="141.75" width="2.91" height="2.83"/><rect class="c" x="313.35" y="136.08" width="2.91" height="2.83"/><rect class="c" x="313.35" y="147.42" width="2.91" height="2.83"/><rect class="c" x="313.35" y="124.75" width="2.91" height="2.83"/><rect class="c" x="313.35" y="107.75" width="2.91" height="2.83"/><rect class="c" x="313.35" y="102.08" width="2.91" height="2.83"/><rect class="c" x="313.35" y="96.41" width="2.91" height="2.83"/><rect class="c" x="313.35" y="113.42" width="2.91" height="2.83"/><rect class="c" x="313.35" y="119.08" width="2.91" height="2.83"/><path class="b" d="M297.64,52.56a1.43,1.43,0,0,1,1,.38l1.11,1a23.66,23.66,0,0,1,21.07-5.64,23.4,23.4,0,0,1,9.49,4.5L315.66,68.23h0l16.67-17.52A26.58,26.58,0,0,0,296.62,53l-1,1,0,0c.31-.36.62-.72.95-1.07A1.51,1.51,0,0,1,297.64,52.56Z"/><path class="b" d="M316.54,69,339,78.19a1.39,1.39,0,0,1,.78,1.85c-.19.44-.41.86-.62,1.29l5.81,2.37.56-1.31a30.68,30.68,0,0,0,1.08-21.45,31.41,31.41,0,0,0-8.91-13.75l-1.07-1-4.26,4.48L315.66,68.23Zm20.19-18.76a28.44,28.44,0,0,1,7,11.52A27.8,27.8,0,0,1,343.33,80L318.22,69.71Z"/><path class="c" d="M310.61,92.17a23.62,23.62,0,0,0,22.1-6.66,22.39,22.39,0,0,0,3.74-5.28l-21.28-8.7a1.45,1.45,0,0,1-.43-.26L297.81,56a22.09,22.09,0,0,0-4.17,20.87A23,23,0,0,0,310.61,92.17Z"/><path class="b" d="M290.86,77.72A25.83,25.83,0,0,0,310,94.93a26.71,26.71,0,0,0,24.89-7.49,25.45,25.45,0,0,0,4.27-6.11c.21-.43.43-.85.62-1.29a1.39,1.39,0,0,0-.78-1.85L316.54,69l-.88-.79h0l-15.87-14.3-1.11-1a1.43,1.43,0,0,0-1-.38,1.51,1.51,0,0,0-1,.46c-.33.35-.64.71-.95,1.07A24.85,24.85,0,0,0,290.86,77.72ZM297.81,56l16.93,15.26a1.45,1.45,0,0,0,.43.26l21.28,8.7a22.39,22.39,0,0,1-3.74,5.28,23.62,23.62,0,0,1-22.1,6.66,23,23,0,0,1-17-15.29A22.09,22.09,0,0,1,297.81,56Z"/><path class="b" d="M104.22,221.11h-1.45v.18c.6-.09,1.21-.15,1.82-.18Z"/><path class="b" d="M203.47,222.45a1.45,1.45,0,0,1-1.42,1.42h.4c9.83.11,16.7,7.64,16.7,18.3v8.14H187v2.83h35.12v-11c0-11.6-7.55-20.24-18.15-21.07V221H202A1.44,1.44,0,0,1,203.47,222.45Z"/><path class="b" d="M161.51,376.64a1.41,1.41,0,0,1,.53,2.73,27.14,27.14,0,0,0,5.45-1,1.28,1.28,0,0,1-.07-.34v-2.6a24.41,24.41,0,0,1-6.61,1.13C161,376.61,161.27,376.64,161.51,376.64Z"/><path class="b" d="M87.17,353.19v-111c0-10,8.34-18.18,18.59-18.3h86.55c-5.21,3.47-8.28,9.93-8.28,18.31v40.62H187V242.17c0-8.76,4-18.17,15.08-18.3h0a1.42,1.42,0,1,0,0-2.84H105.58c-.34,0-.66,0-1,.07-.61,0-1.22.09-1.82.18-10.44,1.53-18.52,10.34-18.52,20.88v111c0,.48,0,1-.06,1.43h2.92C87.14,354.15,87.17,353.67,87.17,353.19Z"/><path class="b" d="M163,378.06a1.44,1.44,0,0,0-1.44-1.42c-.24,0-.47,0-.7,0-9.48-.46-16.05-7.85-16.05-18.26V356a1.44,1.44,0,0,0-1.46-1.42H43.52A1.45,1.45,0,0,0,42.06,356v2.3A21.09,21.09,0,0,0,53,376.65a21.82,21.82,0,0,0,10.39,2.82h98.1a1.47,1.47,0,0,0,1.46-1.42ZM63.7,376.65h-.13C53.32,376.53,45,368.32,45,358.34v-.89h96.87v.89c0,8.09,3.68,14.75,9.51,18.31Z"/><path class="b" d="M109.05,264.84H160V255.5H109.05Zm2.91-6.5h45.11V262H112Z"/><path class="b" d="M167.4,245.49H103.94a4,4,0,0,0-4,3.89v34.71a4,4,0,0,0,4,3.89h63.48v-2.83H103.94a1.06,1.06,0,0,1-1.08-1.05V249.38a1.06,1.06,0,0,1,1.08-1.06H167.4a1.07,1.07,0,0,1,1.09,1.06v33.49a1.23,1.23,0,0,1,.39-.08h2.52V249.38A3.94,3.94,0,0,0,167.4,245.49Z"/><rect class="b" x="110.3" y="251.44" width="14.75" height="2.83"/><path class="b" d="M109.05,280h23.31v-9.33H109.05Zm2.91-6.5h17.48v3.67H112Z"/><path class="b" d="M135.22,280h23.3v-9.33h-23.3Zm2.91-6.5h17.48v3.67H138.13Z"/><rect class="b" x="110.3" y="266.61" width="14.75" height="2.83"/><rect class="b" x="135.63" y="266.61" width="14.75" height="2.83"/><rect class="b" x="101.4" y="299.34" width="24.84" height="2.83"/><rect class="b" x="133.5" y="299.34" width="20.47" height="2.83"/><rect class="b" x="101.4" y="306.77" width="20.47" height="2.83"/><rect class="b" x="129.13" y="306.77" width="38.29" height="2.83"/><rect class="b" x="101.4" y="316.36" width="24.84" height="2.83"/><rect class="b" x="133.5" y="316.36" width="20.47" height="2.83"/><rect class="b" x="101.4" y="323.79" width="20.47" height="2.83"/><rect class="b" x="129.13" y="323.79" width="38.29" height="2.83"/><path class="b" d="M170.33,376.65v-91h82.78l2.26-2.83H168.88a1.23,1.23,0,0,0-.39.08,1.41,1.41,0,0,0-1.07,1.34v93.86a1.28,1.28,0,0,0,.07.34,1.43,1.43,0,0,0,1.39,1.07h9.55l2.26-2.83Z"/><rect class="b" x="179.57" y="299.17" width="31.94" height="2.83"/><polygon class="b" points="179.57 311.89 232.21 311.89 234.47 309.06 179.57 309.06 179.57 311.89"/><polygon class="b" points="220.05 320.18 225.62 320.18 227.87 317.35 220.05 317.35 220.05 320.18"/><rect class="b" x="214.23" y="317.35" width="2.91" height="2.83"/><rect class="b" x="182.18" y="317.35" width="2.91" height="2.83"/><polygon class="b" points="220.05 327.18 221.28 325.63 220.05 325.63 220.05 327.18"/><rect class="b" x="214.23" y="325.64" width="2.91" height="2.83"/><rect class="b" x="182.18" y="325.64" width="2.91" height="2.83"/><polygon class="b" points="214.23 334.5 214.68 333.92 214.23 333.92 214.23 334.5"/><rect class="b" x="182.18" y="333.92" width="2.91" height="2.83"/><rect class="b" x="182.18" y="342.21" width="2.91" height="2.83"/><path class="b" d="M298.76,334.87h-3.21l19.84,41.78h-131l31.74-39.89,1-1.29,5.57-7,2.25-2.83,4.34-5.46.38-.48a1.35,1.35,0,0,1-.29,0,1.49,1.49,0,0,1-1.25-.69,1.39,1.39,0,0,1,.51-1.94l5.77-3.36,1.48-1.86,2.25-2.83,18.44-23.17,2.18-2.74,7.65-9.62,11.68,24.59v-6.76L267.94,270v.84a1.46,1.46,0,0,1-2.91,0v-.17l-9.66,12.14-2.26,2.83-18.64,23.44-2.26,2.83-4.34,5.46-2.25,2.83-4.34,5.46-1.23,1.54-5.37,6.74-.45.58-33.54,42.15-2.26,2.83H319.94l-1.34-2.83Z"/><path class="b" d="M233.91,317.35l9.39-5.46,4.88-2.83,7.72-4.49,1.45,7.83a1.46,1.46,0,0,0,1.09,1.13,1.49,1.49,0,0,0,1.49-.5l6.43-8,1.47,3.39,2.91,6.7.8,1.83a1.46,1.46,0,0,0,1,.82,1.53,1.53,0,0,0,1.26-.24l4.34-3.21v-3.57l-4.61,3.42-2.75-6.33-2.66-6.13a1.34,1.34,0,0,0-.25-.37,1.41,1.41,0,0,0-.9-.48,1.45,1.45,0,0,0-1.34.53l-5.94,7.36-1.26-6.74a1.4,1.4,0,0,0-.83-1,1.5,1.5,0,0,0-1.35.08l-13.71,8-4.88,2.83-3.2,1.86-5.77,3.36a1.39,1.39,0,0,0-.51,1.94,1.49,1.49,0,0,0,1.25.69,1.35,1.35,0,0,0,.29,0,1.48,1.48,0,0,0,.46-.16Z"/><polygon class="c" points="265.03 240.83 231.1 240.83 242.01 251.06 231.1 261.29 265.03 261.29 265.03 240.83 265.03 240.83"/><path class="b" d="M266.49,272.24a1.44,1.44,0,0,0,1.45-1.42v-30a1.46,1.46,0,0,0-2.91,0h0v30A1.44,1.44,0,0,0,266.49,272.24Z"/><path class="b" d="M498.48,334.87A110.89,110.89,0,0,0,485,376.65c-.05.47-.13.94-.18,1.42h2.93c.05-.48.13-.95.18-1.42a108.4,108.4,0,0,1,13.94-41.78Z"/><path class="b" d="M596.8,280.16a109.68,109.68,0,0,1,108.91,96.49c.06.47.13.94.18,1.42h2.93c0-.48-.12-.95-.17-1.42-6.3-54.93-52.62-97.91-109.14-99.25v1.35H596.6v-1.42a112.53,112.53,0,0,0-42.66,8.45v3.07A109.5,109.5,0,0,1,596.8,280.16Z"/><path class="b" d="M616,296.79c2.33,1.47,4.59,3,6.78,4.65a91.39,91.39,0,0,1,29.16,14.72c.62-.35,1.25-.7,1.86-1.06l1.51,2.43-.95.53A92.11,92.11,0,0,1,684,361.14c.53-.12,1.06-.21,1.58-.32l.63,2.77c-.46.09-.92.17-1.38.27a90.17,90.17,0,0,1,2.92,14.21h2.94l-.18-1.42A94.83,94.83,0,0,0,616,296.79Z"/><path class="b" d="M507.37,363.59l.63-2.77c.53.11,1.06.2,1.59.32a91.67,91.67,0,0,1,13.53-26.27h-3.54a94,94,0,0,0-16.5,41.78c-.07.47-.13.94-.18,1.42h2.93a92.49,92.49,0,0,1,2.92-14.21Z"/><path class="b" d="M577.39,296.92,579,299.3l-.25.16q4.07-.81,8.25-1.26c.4-.77.79-1.55,1.2-2.32l2.58,1.31c-.13.24-.24.48-.37.72q2.46-.17,5-.21v-1.45h2.91v1.45c1.73,0,3.45.11,5.15.23-.12-.24-.24-.49-.37-.73l2.58-1.31c.42.78.8,1.56,1.2,2.33q4.08.45,8.05,1.24l-.75-.48,1.49-2.27a94.45,94.45,0,0,0-61.66,8.43v3.2a91,91,0,0,1,16.88-6.9C573,299.87,575.13,298.35,577.39,296.92Z"/><path class="b" d="M596.8,333.44l-1.46,0v21.34a20.58,20.58,0,0,1,2.62-.19l.29,0V333.42Z"/><path class="b" d="M598.25,296.25h-2.91v34.33q1.45,0,2.91,0V296.25Z"/><path class="b" d="M565.91,369.09l2.91.19a190.59,190.59,0,0,1,7.57-37.67c-1-.17-1.92-.35-2.87-.54A193.2,193.2,0,0,0,565.91,369.09Z"/><path class="b" d="M565.63,371.91c-.17,2-.3,4.1-.41,6.16h2.92c.1-2,.24-4,.4-6Z"/><path class="b" d="M590.76,297.19l-2.58-1.31c-.41.77-.8,1.55-1.2,2.32a196.67,196.67,0,0,0-12.6,30.15q1.44.28,2.88.54a193.66,193.66,0,0,1,13.13-31C590.52,297.67,590.63,297.43,590.76,297.19Z"/><path class="b" d="M617.39,331.58A190.78,190.78,0,0,1,625,369.27l2.91-.19A193.51,193.51,0,0,0,620.25,331C619.3,331.23,618.34,331.41,617.39,331.58Z"/><path class="b" d="M625.24,372.09q.25,3,.4,6h2.92c-.11-2.06-.24-4.12-.41-6.17Z"/><path class="b" d="M605.61,295.89,603,297.2c.13.24.25.49.37.73a193.57,193.57,0,0,1,13.11,30.93c1-.17,1.92-.35,2.88-.55a196.75,196.75,0,0,0-12.58-30.09C606.41,297.45,606,296.67,605.61,295.89Z"/><path class="b" d="M664.83,367.59q10-1.62,20-3.73c.46-.1.92-.18,1.38-.27l-.63-2.77c-.52.11-1.05.2-1.58.32q-9.87,2.06-19.76,3.67C664.45,365.73,664.65,366.66,664.83,367.59Z"/><path class="b" d="M508,360.82l-.63,2.77,1.38.27q10,2.1,20,3.73c.18-.93.38-1.86.59-2.78-6.6-1.06-13.19-2.3-19.77-3.67C509.06,361,508.53,360.93,508,360.82Z"/><path class="b" d="M565.91,369.09q-16.86-1.24-33.67-3.84c-.21.93-.4,1.85-.59,2.78q17,2.63,34,3.88l2.91.2q4.77.31,9.54.53a18.79,18.79,0,0,1,.41-2.82q-4.85-.21-9.67-.54Z"/><path class="b" d="M628.15,371.9q16.92-1.26,33.8-3.87c-.19-.93-.38-1.85-.59-2.78q-16.73,2.6-33.49,3.83l-2.91.19c-2.51.17-5,.33-7.55.46a18.61,18.61,0,0,1,.42,2.82c2.47-.13,4.94-.29,7.41-.46Z"/><path class="b" d="M644.71,323q4.9-2.23,9.64-5l.95-.53-1.51-2.43c-.61.36-1.24.71-1.86,1.06-3,1.66-6,3.19-9,4.56C643.51,321.49,644.12,322.26,644.71,323Z"/><path class="b" d="M576.39,331.61a114.93,114.93,0,0,0,19,1.81l1.46,0,1.45,0a116.16,116.16,0,0,0,19.14-1.84c1-.17,1.91-.35,2.86-.55a115.52,115.52,0,0,0,21.74-6.8q-.9-1.17-1.83-2.31a111.66,111.66,0,0,1-20.77,6.39c-1,.2-1.92.38-2.88.55a112,112,0,0,1-18.26,1.72q-1.46,0-2.91,0a112.08,112.08,0,0,1-18.08-1.69q-1.44-.25-2.88-.54a112.19,112.19,0,0,1-20.44-6.23v3.07a115.57,115.57,0,0,0,19.58,5.88C574.47,331.26,575.43,331.44,576.39,331.61Z"/><path class="b" d="M532.24,365.25a106.12,106.12,0,0,1,12.13-30.38H541a108.77,108.77,0,0,0-11.67,29.94c-.21.92-.41,1.85-.59,2.78q-1,5.16-1.58,10.48h2.93q.52-5.08,1.53-10C531.84,367.1,532,366.18,532.24,365.25Z"/><path class="b" d="M578.73,299.46l.25-.16-1.59-2.38c-2.26,1.43-4.44,2.95-6.57,4.52a109.76,109.76,0,0,0-16.88,15.43v4.43A106.77,106.77,0,0,1,578.73,299.46Z"/><path class="b" d="M664.25,364.81A108.62,108.62,0,0,0,644.71,323c-.59-.77-1.2-1.54-1.81-2.31a109.31,109.31,0,0,0-20.13-19.28c-2.19-1.62-4.45-3.18-6.78-4.65a3.28,3.28,0,0,1-.31-.2l-.08.12L614.11,299l.75.48a106.92,106.92,0,0,1,25.3,22.46q.93,1.14,1.83,2.31a105.74,105.74,0,0,1,19.37,41c.21.93.4,1.85.59,2.78q1,5,1.53,10h2.93q-.54-5.31-1.58-10.48C664.65,366.66,664.45,365.73,664.25,364.81Z"/><path class="b" d="M278.1,310.79v24.08h116L395,332H281V163a7.91,7.91,0,0,1,8-7.79h76.71c.07-1,.17-1.9.3-2.83H289A10.78,10.78,0,0,0,278.1,163V310.79Z"/><path class="b" d="M543,155.21a7.91,7.91,0,0,1,8,7.79V332H442.94l.92,2.83H553.94V163A10.78,10.78,0,0,0,543,152.38H466c.13.93.23,1.88.3,2.83Z"/><path class="b" d="M292.24,323.57h249.1V162.82h-75c-.07,1-.18,1.9-.31,2.83h72.43v14.11h1.46v2.83h-1.46V320.73H295.16V182.59H293.7v-2.83h1.46V165.65h70.89c-.13-.93-.23-1.88-.31-2.83h-73.5Z"/><path class="b" d="M293.7,179.76v2.83h78.13c-.53-.93-1-1.87-1.49-2.83H293.7Z"/><path class="b" d="M539.88,182.59v-2.83H461.7c-.47,1-1,1.9-1.49,2.83h79.67Z"/><rect class="b" x="340.09" y="171.42" width="5.83" height="2.83"/><path class="b" d="M361.94,174.26h5.83v-1c-.2-.61-.38-1.23-.54-1.85h-5.29Z"/><rect class="b" x="354.66" y="171.42" width="5.83" height="2.83"/><rect class="b" x="332.81" y="171.42" width="5.83" height="2.83"/><rect class="b" x="347.37" y="171.42" width="5.83" height="2.83"/><rect class="b" x="318.24" y="171.42" width="5.83" height="2.83"/><rect class="b" x="325.52" y="171.42" width="5.83" height="2.83"/><rect class="b" x="303.67" y="171.42" width="5.83" height="2.83"/><rect class="b" x="310.95" y="171.42" width="5.83" height="2.83"/><rect class="b" x="514.93" y="171.42" width="5.83" height="2.83"/><rect class="b" x="478.51" y="171.42" width="5.83" height="2.83"/><rect class="b" x="485.8" y="171.42" width="5.83" height="2.83"/><rect class="b" x="507.65" y="171.42" width="5.83" height="2.83"/><rect class="b" x="522.21" y="171.42" width="5.83" height="2.83"/><path class="b" d="M469.77,174.26v-2.84h-4.95c-.26,1-.56,1.9-.87,2.83h5.82Z"/><rect class="b" x="493.08" y="171.42" width="5.83" height="2.83"/><rect class="b" x="471.23" y="171.42" width="5.83" height="2.83"/><rect class="b" x="500.36" y="171.42" width="5.83" height="2.83"/><rect class="b" x="529.5" y="171.42" width="3.32" height="2.83"/><polygon class="b" points="442.94 332.04 394.98 332.04 394.06 334.88 384.18 365.49 387.23 365.49 397.12 334.88 440.81 334.88 450.69 365.49 453.74 365.49 443.86 334.88 442.94 332.04"/><path class="b" d="M466.05,365.49H371.88v14h94.17v-14Zm-2.92,11.16H374.79v-8.33h88.34Z"/><path class="b" d="M361.31,199.71H388c-1.35-.88-2.66-1.83-3.92-2.83H361.31Z"/><rect class="b" x="316.33" y="196.88" width="26.42" height="2.83"/><rect class="c" x="316.78" y="215.15" width="50.17" height="9.62"/><rect class="c" x="316.78" y="232.15" width="75.06" height="9.62"/><rect class="c" x="316.78" y="249.16" width="125.09" height="9.62"/><rect class="c" x="316.78" y="266.17" width="135.89" height="9.62"/><rect class="c" x="316.78" y="283.17" width="200.15" height="9.62"/><path class="b" d="M365.57,158.94c0,1.31.07,2.6.17,3.88.08,1,.18,1.9.31,2.83a48,48,0,0,0,1.18,5.77c.16.62.34,1.24.54,1.85a47.35,47.35,0,0,0,2.57,6.49c.47,1,1,1.9,1.49,2.83a49.57,49.57,0,0,0,12.22,14.29c1.26,1,2.57,2,3.92,2.83a51.24,51.24,0,0,0,72.24-17.12c.53-.93,1-1.87,1.49-2.83a48.19,48.19,0,0,0,2.25-5.51c.31-.93.61-1.87.87-2.83a47.92,47.92,0,0,0,1.17-5.77c.13-.93.24-1.88.31-2.83.11-1.28.17-2.57.17-3.88s-.06-2.5-.16-3.73c-.07-1-.17-1.9-.3-2.83-3.31-24-24.46-42.51-50-42.51s-46.68,18.54-50,42.51c-.13.93-.23,1.88-.3,2.83C365.63,156.44,365.57,157.69,365.57,158.94ZM416,112.7c26.21,0,47.54,20.75,47.54,46.24S442.23,205.18,416,205.18s-47.54-20.74-47.54-46.24S389.81,112.7,416,112.7Z"/><path class="b" d="M396,127.91a1.42,1.42,0,0,0,1.24-2.14,1.45,1.45,0,0,0-2-.48,1.38,1.38,0,0,0-.5,1.94A1.48,1.48,0,0,0,396,127.91Z"/><path class="b" d="M424.13,123.41l.32,0a1.48,1.48,0,0,0,1.43-1.11,1.41,1.41,0,0,0-1.1-1.69,1.45,1.45,0,0,0-1.74,1.07A1.43,1.43,0,0,0,424.13,123.41Z"/><path class="b" d="M402.68,124.84a1.23,1.23,0,0,0,.49-.1,1.41,1.41,0,0,0,.88-1.81,1.47,1.47,0,0,0-1.88-.84v0a1.42,1.42,0,0,0-.87,1.83A1.47,1.47,0,0,0,402.68,124.84Z"/><path class="b" d="M409.8,123H410a1.53,1.53,0,1,0-.23,0Z"/><path class="b" d="M430.88,125.53a1.72,1.72,0,0,0,.58.12,1.49,1.49,0,0,0,1.34-.85,1.41,1.41,0,0,0-.76-1.87,1.46,1.46,0,0,0-1.92.73A1.42,1.42,0,0,0,430.88,125.53Z"/><path class="b" d="M378.16,150.14a1.84,1.84,0,0,0,.39,0,1.47,1.47,0,0,0,1.42-1,1.41,1.41,0,0,0-1-1.74,1.45,1.45,0,0,0-1.79,1A1.4,1.4,0,0,0,378.16,150.14Z"/><path class="b" d="M452.6,151.21a1.43,1.43,0,0,0,1.42,1.11l.31,0a1.42,1.42,0,0,0,1.11-1.69,1.44,1.44,0,0,0-1.72-1.09A1.42,1.42,0,0,0,452.6,151.21Z"/><path class="b" d="M451.78,145.5a1.24,1.24,0,0,0,.57-.12,1.39,1.39,0,0,0,.77-1.85,1.49,1.49,0,0,0-1.91-.76,1.42,1.42,0,0,0,.57,2.73Z"/><path class="b" d="M437.91,129.1a1.46,1.46,0,0,0,1.2-.61,1.38,1.38,0,0,0-.38-2,1.46,1.46,0,0,0-2,.37,1.4,1.4,0,0,0,.37,2A1.59,1.59,0,0,0,437.91,129.1Z"/><path class="b" d="M443.58,133.68a1.49,1.49,0,0,0,1-.41,1.39,1.39,0,0,0,0-2,1.48,1.48,0,0,0-2.06,0,1.4,1.4,0,0,0,0,2A1.49,1.49,0,0,0,443.58,133.68Z"/><path class="b" d="M448.26,139.22a1.59,1.59,0,0,0,.81-.24,1.4,1.4,0,0,0,.4-2,1.49,1.49,0,0,0-2-.38,1.39,1.39,0,0,0-.39,2A1.49,1.49,0,0,0,448.26,139.22Z"/><path class="b" d="M417.11,122.56h.05a1.42,1.42,0,1,0,0-2.84,1.42,1.42,0,1,0-.08,2.84Z"/><path class="b" d="M380.55,143.36a1.58,1.58,0,0,0,.66.15,1.47,1.47,0,0,0,1.29-.79,1.39,1.39,0,0,0-.65-1.9,1.48,1.48,0,0,0-2,.64A1.42,1.42,0,0,0,380.55,143.36Z"/><path class="b" d="M390.11,132.16a1.49,1.49,0,0,0,1-.35,1.39,1.39,0,0,0,.1-2,1.47,1.47,0,0,0-2.05-.11,1.39,1.39,0,0,0-.12,2A1.49,1.49,0,0,0,390.11,132.16Z"/><path class="b" d="M385.1,137.43a1.48,1.48,0,0,0,1.16-.56,1.4,1.4,0,0,0-.28-2,1.5,1.5,0,0,0-2,.27,1.4,1.4,0,0,0,.28,2A1.5,1.5,0,0,0,385.1,137.43Z"/><path class="b" d="M452.68,171.64a1.45,1.45,0,0,0-1.89.79,1.42,1.42,0,0,0,.82,1.84,1.66,1.66,0,0,0,.54.1,1.46,1.46,0,0,0,1.35-.89A1.4,1.4,0,0,0,452.68,171.64Z"/><path class="b" d="M431.72,192a1.41,1.41,0,0,0-.71,1.89,1.48,1.48,0,0,0,1.33.82,1.52,1.52,0,0,0,.61-.13,1.39,1.39,0,0,0,.7-1.88A1.48,1.48,0,0,0,431.72,192Z"/><path class="b" d="M380.21,169.58a1.46,1.46,0,0,0-1.82-.93,1.42,1.42,0,0,0-1,1.77,1.45,1.45,0,0,0,1.4,1,1.6,1.6,0,0,0,.42-.07A1.4,1.4,0,0,0,380.21,169.58Z"/><path class="b" d="M447.56,178.55a1.37,1.37,0,0,0,.43,1.95,1.47,1.47,0,0,0,2-.42,1.4,1.4,0,0,0-.43-2A1.48,1.48,0,0,0,447.56,178.55Z"/><path class="b" d="M437.84,188.52a1.39,1.39,0,0,0-.33,2,1.45,1.45,0,0,0,2,.33h0a1.41,1.41,0,0,0,.32-2A1.49,1.49,0,0,0,437.84,188.52Z"/><path class="b" d="M443.19,184h0a1.4,1.4,0,0,0,.06,2,1.53,1.53,0,0,0,1,.38,1.45,1.45,0,0,0,1.06-.44,1.39,1.39,0,0,0-.06-2A1.47,1.47,0,0,0,443.19,184Z"/><path class="b" d="M389.71,186.82a1.4,1.4,0,0,0,.16,2,1.5,1.5,0,0,0,.95.34,1.48,1.48,0,0,0,1.11-.5,1.39,1.39,0,0,0-.16-2A1.49,1.49,0,0,0,389.71,186.82Z"/><path class="b" d="M409.29,196.22a1.44,1.44,0,0,0,1.25,1.6h.21a1.45,1.45,0,0,0,1.44-1.23,1.43,1.43,0,0,0-1.25-1.59A1.46,1.46,0,0,0,409.29,196.22Z"/><path class="b" d="M418,195.29a1.42,1.42,0,0,0-1.37,1.49,1.45,1.45,0,0,0,1.45,1.35.12.12,0,0,0,.08,0,1.43,1.43,0,0,0,1.38-1.48A1.45,1.45,0,0,0,418,195.29Z"/><path class="b" d="M382.92,176a1.48,1.48,0,0,0-2-.6,1.4,1.4,0,0,0-.61,1.93,1.46,1.46,0,0,0,1.29.75,1.53,1.53,0,0,0,.69-.17A1.39,1.39,0,0,0,382.92,176Z"/><path class="b" d="M425,194.29h0A1.4,1.4,0,0,0,424,196a1.46,1.46,0,0,0,1.42,1.09,1.5,1.5,0,0,0,.35,0v0a1.41,1.41,0,0,0,1.06-1.71A1.45,1.45,0,0,0,425,194.29Z"/><path class="b" d="M404.05,193.44a1.44,1.44,0,0,0-1.85.89,1.38,1.38,0,0,0,.9,1.79,1.6,1.6,0,0,0,.47.08,1.45,1.45,0,0,0,1.38-1,1.39,1.39,0,0,0-.92-1.78Z"/><path class="b" d="M395.58,191.16a1.41,1.41,0,0,0,.56,1.93,1.44,1.44,0,0,0,.71.18,1.48,1.48,0,0,0,1.27-.72,1.4,1.4,0,0,0-.56-1.93A1.47,1.47,0,0,0,395.58,191.16Z"/><path class="b" d="M377.16,157.24h.11a1.4,1.4,0,1,0-.11,0Z"/><path class="b" d="M453.43,158.05a1.71,1.71,0,0,0,.09.45,1.27,1.27,0,0,0-.08.44,1.46,1.46,0,0,0,2.92,0,1.28,1.28,0,0,0-.09-.48,1.24,1.24,0,0,0,.07-.48,1.42,1.42,0,0,0-1.48-1.38A1.44,1.44,0,0,0,453.43,158.05Z"/><path class="b" d="M456.34,158Z"/><path class="b" d="M454.49,164.68a1.47,1.47,0,0,0-1.72,1.13h0a1.42,1.42,0,0,0,1.15,1.66h.28a1.41,1.41,0,0,0,.27-2.8Z"/><path class="b" d="M378.82,162.84h0a1.46,1.46,0,0,0-2.9.29,1.45,1.45,0,0,0,1.46,1.26h.15A1.44,1.44,0,0,0,378.82,162.84Z"/><path class="b" d="M384.78,181.5a1.38,1.38,0,0,0-.22,2,1.44,1.44,0,0,0,1.13.53,1.47,1.47,0,0,0,.91-.31,1.41,1.41,0,0,0,.23-2A1.49,1.49,0,0,0,384.78,181.5Z"/><path class="c" d="M415.35,160.2l23.32,11.68a1.47,1.47,0,0,0,2-.61,1.4,1.4,0,0,0-.62-1.91l-22.53-11.28V140.84a1.46,1.46,0,0,0-2.92,0v18.1A1.42,1.42,0,0,0,415.35,160.2Z"/><path class="b" d="M578.15,79.67c3.3,2,6.42,3.86,8.43,7.79l1.3,2.55,1.31-2.55c2-3.93,5.13-5.8,8.43-7.79,2.55-1.53,5.18-3.11,7.12-5.67,5.21-6.92,3.41-14.87-1.35-18.55-3.55-2.75-9.71-3.68-15.51,2.66-5.79-6.33-12-5.41-15.5-2.66C567.62,59.13,565.82,67.08,571,74,573,76.56,575.6,78.14,578.15,79.67Zm-4-22a7,7,0,0,1,4.27-1.48c2.25,0,4.84,1.09,7.43,4a10.5,10.5,0,0,1,.8,1l1.2,1.68,1.19-1.68a12.23,12.23,0,0,1,.79-1,11.38,11.38,0,0,1,5.78-3.82l-.18-.14a7.13,7.13,0,0,1,6.22,1.28c3.75,2.91,5.09,9.27.84,14.91-1.61,2.14-3.91,3.53-6.35,5-2.82,1.7-6,3.59-8.3,7a16.44,16.44,0,0,0-2.32-2.68l.15-.12a33.31,33.31,0,0,0-6-4.31c-2.42-1.45-4.7-2.82-6.3-4.94C569.2,66.77,570.51,60.51,574.19,57.67Z"/><path class="c" d="M597,73.16c-2.85,3.79-7.46,5.31-11.3,8.41l-.15.12a16.44,16.44,0,0,1,2.32,2.68c2.33-3.36,5.48-5.25,8.3-7,2.44-1.46,4.74-2.85,6.35-5,4.25-5.64,2.91-12-.84-14.91a7.13,7.13,0,0,0-6.22-1.28l.18.14C600,59.52,601.86,66.73,597,73.16Z"/><polygon class="c" points="730.67 221.52 729.22 221 727.76 221.52 727.76 295.99 730.67 295.99 730.67 221.52"/><polygon class="c" points="730.67 378.07 730.67 376.65 730.67 325.62 727.76 325.62 727.76 376.65 727.76 378.07 730.67 378.07"/><path class="c" d="M730.67,221.52l5.48,1.92a42.24,42.24,0,0,1-6.93-12.11,42.71,42.71,0,0,1-6.93,12.11l5.47-1.92,1.46-.52Z"/><polygon class="c" points="755.18 378.07 755.18 376.65 755.18 221.52 753.72 221 752.26 221.52 752.26 376.65 752.26 378.07 755.18 378.07"/><path class="c" d="M755.18,221.52l5.47,1.92a42.24,42.24,0,0,1-6.93-12.11,42.24,42.24,0,0,1-6.93,12.11l5.47-1.92,1.46-.52Z"/><path class="c" d="M779.68,221.52l-1.46-.52-1.45.52v26.67a28.8,28.8,0,0,1,2.91-1.8Z"/><polygon class="c" points="779.68 378.07 779.68 376.65 779.68 301.8 776.77 303.52 776.77 376.65 776.77 378.07 779.68 378.07"/><path class="c" d="M779.68,221.52l5.47,1.92a42.71,42.71,0,0,1-6.93-12.11,42.45,42.45,0,0,1-6.92,12.11l5.47-1.92,1.45-.52Z"/><path class="c" d="M598,357.41A16.57,16.57,0,1,0,615,374,16.82,16.82,0,0,0,598,357.41Zm9.22,11.42-7.9,12.51a2.21,2.21,0,0,1-1.86,1,2.27,2.27,0,0,1-1.39-.48l-6.81-5.43a2.08,2.08,0,0,1-.31-3,2.24,2.24,0,0,1,3.08-.3l4.87,3.89,6.6-10.45a2.21,2.21,0,0,1,3-.69A2.09,2.09,0,0,1,607.18,368.83Z"/><path class="b" d="M617.91,374c0-.49,0-1-.08-1.43a18.61,18.61,0,0,0-.42-2.82,19.84,19.84,0,0,0-19.16-15.14l-.29,0a20.58,20.58,0,0,0-2.62.19,19.77,19.77,0,0,0-16.85,15.06,18.79,18.79,0,0,0-.41,2.82c0,.44-.07.88-.07,1.34a19.06,19.06,0,0,0,.46,4.09c.1.48.23.95.37,1.41a20.1,20.1,0,0,0,38.24,0c.14-.46.27-.93.37-1.41A19.06,19.06,0,0,0,617.91,374ZM598,390.54A16.57,16.57,0,1,1,615,374,16.82,16.82,0,0,1,598,390.54Z"/><path class="b" d="M125.85,192.21a5.83,5.83,0,1,0,5.83-5.67A5.75,5.75,0,0,0,125.85,192.21Zm8.74,0a2.92,2.92,0,1,1-2.91-2.84A2.88,2.88,0,0,1,134.59,192.21Z"/><path class="b" d="M275.33,136.81a5.83,5.83,0,1,0,5.82-5.67A5.75,5.75,0,0,0,275.33,136.81Zm8.74,0a2.92,2.92,0,1,1-2.92-2.83A2.88,2.88,0,0,1,284.07,136.81Z"/><path class="b" d="M248.23,71.28A5.67,5.67,0,1,0,254.06,77,5.76,5.76,0,0,0,248.23,71.28Zm0,8.51A2.84,2.84,0,1,1,251.15,77,2.89,2.89,0,0,1,248.23,79.79Z"/><path class="b" d="M238.29,144.72a5.67,5.67,0,1,0,5.83,5.67A5.75,5.75,0,0,0,238.29,144.72Zm0,8.5a2.84,2.84,0,1,1,2.91-2.83A2.87,2.87,0,0,1,238.29,153.22Z"/><path class="b" d="M60.39,287.13a5.67,5.67,0,1,0,5.82,5.67A5.75,5.75,0,0,0,60.39,287.13Zm0,8.5a2.84,2.84,0,1,1,2.91-2.83A2.88,2.88,0,0,1,60.39,295.63Z"/><path class="b" d="M60.39,307.54a5.67,5.67,0,1,0,5.82,5.67A5.75,5.75,0,0,0,60.39,307.54Zm0,8.5a2.84,2.84,0,1,1,2.91-2.83A2.88,2.88,0,0,1,60.39,316Z"/><path class="b" d="M60.39,328a5.67,5.67,0,1,0,5.82,5.67A5.75,5.75,0,0,0,60.39,328Zm0,8.5a2.84,2.84,0,1,1,2.91-2.83A2.88,2.88,0,0,1,60.39,336.45Z"/><path class="b" d="M113.82,104.41A5.67,5.67,0,1,0,108,98.74,5.77,5.77,0,0,0,113.82,104.41Zm0-8.5a2.83,2.83,0,1,1-2.91,2.83A2.87,2.87,0,0,1,113.82,95.91Z"/><rect class="c" x="596.6" y="264.58" width="2.91" height="2.83"/><rect class="c" x="596.6" y="270.24" width="2.91" height="2.83"/><rect class="c" x="596.6" y="258.91" width="2.91" height="2.83"/><rect class="c" x="596.6" y="253.24" width="2.91" height="2.83"/><polygon class="c" points="599.51 278.75 599.51 277.4 599.51 275.91 596.6 275.91 596.6 277.33 596.6 278.75 599.51 278.75"/><path class="b" d="M271.54,106.48a8,8,0,1,0,8-7.8A7.92,7.92,0,0,0,271.54,106.48Zm8-5a5,5,0,1,1-5.09,5A5,5,0,0,1,279.55,101.52Z"/><polygon class="b" points="588.92 226.62 588.92 224.73 596.6 224.73 596.6 221.9 586 221.9 586 229.46 596.6 229.46 596.6 226.62 588.92 226.62"/><polygon class="b" points="607 224.73 607 226.62 599.51 226.62 599.51 229.46 609.92 229.46 609.92 221.9 599.51 221.9 599.51 224.73 607 224.73"/><path class="b" d="M598.05,234.09H596.6v-1.41H586V236a7.62,7.62,0,0,0,7.72,7.5h8.48a7.62,7.62,0,0,0,7.72-7.5v-3.33H599.51v1.41Zm9,1.42v.5a4.74,4.74,0,0,1-4.8,4.67h-8.48a4.74,4.74,0,0,1-4.8-4.67v-.5Z"/><polygon class="c" points="595.23 195.46 598.05 200.56 600.87 195.46 595.23 195.46"/><path class="c" d="M611.26,204.08a15,15,0,0,0,2.72-8.63,15.93,15.93,0,0,0-31.85,0,15.09,15.09,0,0,0,2.71,8.63,22.54,22.54,0,0,1,4.06,12.11h7.7V203.91l-6.24-11.29h15.39l-6.24,11.29v12.28h7.69A22.62,22.62,0,0,1,611.26,204.08Z"/><path class="b" d="M588.9,216.19a22.54,22.54,0,0,0-4.06-12.11,15.09,15.09,0,0,1-2.71-8.63,15.93,15.93,0,0,1,31.85,0,15,15,0,0,1-2.72,8.63,22.62,22.62,0,0,0-4.06,12.11h-7.69V219H610.1v-2a19.74,19.74,0,0,1,3.58-11.32,17.86,17.86,0,0,0,3.21-10.22,18.85,18.85,0,0,0-37.68,0,17.85,17.85,0,0,0,3.22,10.22A19.73,19.73,0,0,1,586,217v2h10.6v-2.83Z"/><polygon class="b" points="599.51 216.19 599.51 203.91 598.05 206.54 596.6 203.91 596.6 216.19 596.6 219.03 596.6 221.9 596.6 224.73 596.6 226.62 596.6 229.46 596.6 232.68 596.6 234.09 598.05 234.09 599.51 234.09 599.51 232.68 599.51 229.46 599.51 226.62 599.51 224.73 599.51 221.9 599.51 219.03 599.51 216.19"/><path class="b" d="M590.36,192.62l6.24,11.29,1.45,2.63,1.46-2.63,6.24-11.29Zm7.69,7.94-2.82-5.1h5.64Z"/><path class="b" d="M832.06,158.94c0-12.5-10.46-22.67-23.31-22.67s-23.31,10.17-23.31,22.67,10.46,22.67,23.31,22.67S832.06,171.44,832.06,158.94Zm-23.31,19.84c-11.24,0-20.39-8.9-20.39-19.84s9.15-19.83,20.39-19.83,20.4,8.9,20.4,19.83S820,178.78,808.75,178.78Z"/><path class="b" d="M808.75,170.94a14.22,14.22,0,0,1-9-3.14L797.93,170a17.27,17.27,0,0,0,21.64,0l-1.86-2.17A14.27,14.27,0,0,1,808.75,170.94Z"/><path class="b" d="M800.84,152.78a2.65,2.65,0,0,1,2.68,2.61h2.91a5.59,5.59,0,0,0-11.18,0h2.91A2.65,2.65,0,0,1,800.84,152.78Z"/><path class="b" d="M816.66,150a5.52,5.52,0,0,0-5.59,5.44H814a2.69,2.69,0,0,1,5.37,0h2.91A5.53,5.53,0,0,0,816.66,150Z"/><rect class="b" x="804.42" y="161.05" width="8.66" height="2.83"/><path class="b" d="M459.56,64.66l7.33-3.76,7.34,3.76-1.4-7.95,5.94-5.63-8.21-1.16-3.67-7.23-3.66,7.23L455,51.08,461,56.71Zm5.6-12.15,1.73-3.41,1.74,3.41,3.87.55-2.8,2.66.66,3.75-3.47-1.77-3.46,1.77.66-3.75-2.8-2.66Z"/><path class="b" d="M800.79,95.75,809,91.57l8.18,4.18-1.56-8.86,6.62-6.27-9.15-1.3L809,71.26l-4.09,8.06-9.15,1.3,6.62,6.27ZM802,82.6l4.82-.69L809,77.66l2.16,4.25,4.82.69-3.49,3.3.82,4.67L809,88.37l-4.31,2.2.82-4.67Z"/><path class="b" d="M775.83,61.71l6.22-6.66,9.16,1.21-4.59-7.81,4-8.1-9,1.83L774.9,36l-1,8.94-8.14,4.25,8.43,3.7Zm.79-15,.54-4.72,3.52,3.28,4.77-1-2.12,4.27,2.42,4.11L780.92,52l-3.28,3.51-.87-4.66-4.44-2Z"/><path class="b" d="M840.38,47.82l6.21,6.65,1.65-8.84,8.43-3.7-8.14-4.26-1-8.93L840.84,35l-9.05-1.83,4,8.1L831.22,49ZM837,37.06l4.78,1,3.52-3.28.53,4.71,4.29,2.25-4.44,1.95-.87,4.66-3.28-3.51-4.83.64,2.42-4.12Z"/><polygon class="c" points="798.12 123.31 797.58 120.52 794.72 121.04 795.26 123.83 798.12 123.31"/><polygon class="c" points="793.64 115.47 794.18 118.26 797.04 117.73 796.5 114.95 793.64 115.47"/><polygon class="c" points="786.1 76.49 786.64 79.27 789.5 78.75 788.97 75.96 786.1 76.49"/><polygon class="c" points="790.58 84.32 790.04 81.53 787.18 82.06 787.72 84.84 790.58 84.32"/><polygon class="c" points="782.87 59.78 783.41 62.56 786.27 62.04 785.73 59.26 782.87 59.78"/><polygon class="c" points="788.43 73.18 787.89 70.39 785.02 70.92 785.56 73.7 788.43 73.18"/><polygon class="c" points="793.11 112.69 795.97 112.17 795.43 109.38 792.57 109.91 793.11 112.69"/><polygon class="c" points="787.35 67.61 786.81 64.83 783.95 65.35 784.49 68.13 787.35 67.61"/><polygon class="c" points="788.26 87.63 788.8 90.41 791.66 89.89 791.12 87.1 788.26 87.63"/><polygon class="c" points="792.03 107.12 794.89 106.6 794.35 103.81 791.49 104.33 792.03 107.12"/><polygon class="c" points="789.87 95.98 792.74 95.46 792.2 92.67 789.33 93.2 789.87 95.98"/><polygon class="c" points="790.95 101.55 793.81 101.03 793.27 98.24 790.41 98.77 790.95 101.55"/><polygon class="c" points="829.82 92.47 826.99 91.78 826.29 94.53 829.12 95.22 829.82 92.47"/><polygon class="c" points="832.63 81.46 829.8 80.78 829.1 83.53 831.92 84.21 832.63 81.46"/><polygon class="c" points="831.22 86.96 828.39 86.28 827.7 89.03 830.52 89.72 831.22 86.96"/><polygon class="c" points="828.42 97.97 825.59 97.28 824.89 100.04 827.72 100.72 828.42 97.97"/><polygon class="c" points="834.03 75.96 831.2 75.28 830.5 78.03 833.33 78.71 834.03 75.96"/><polygon class="c" points="824.92 111.72 825.62 108.97 822.79 108.29 822.09 111.04 824.92 111.72"/><polygon class="c" points="827.02 103.47 824.19 102.79 823.49 105.54 826.32 106.22 827.02 103.47"/><polygon class="c" points="834.7 61.53 837.53 62.21 838.23 59.46 835.4 58.78 834.7 61.53"/><polygon class="c" points="831.9 72.53 834.73 73.21 835.43 70.46 832.6 69.78 831.9 72.53"/><polygon class="c" points="819.29 122.04 822.12 122.72 822.82 119.97 819.99 119.29 819.29 122.04"/><polygon class="c" points="824.22 114.47 821.39 113.79 820.69 116.54 823.52 117.22 824.22 114.47"/><polygon class="c" points="839.63 53.96 836.8 53.28 836.1 56.03 838.93 56.71 839.63 53.96"/><polygon class="c" points="833.3 67.03 836.13 67.71 836.83 64.96 834 64.28 833.3 67.03"/><path class="b" d="M648.26,222.08H621.12v46.75H624V224.91H648.4a19.25,19.25,0,0,1-.16-2.41C648.24,222.35,648.26,222.22,648.26,222.08Z"/><path class="b" d="M710,288.67V222.08H689.86c0,.14,0,.27,0,.42a19.25,19.25,0,0,1-.16,2.41h17.35v63.76Z"/><rect class="b" x="638.12" y="235.3" width="10.2" height="2.83"/><path class="b" d="M653,235.3h-.75v2.84h3.65A20.49,20.49,0,0,1,653,235.3Z"/><path class="b" d="M682.27,238.14H695.9V235.3H685.17A20.49,20.49,0,0,1,682.27,238.14Z"/><rect class="b" x="638.12" y="243.8" width="10.2" height="2.83"/><rect class="b" x="652.2" y="243.8" width="43.7" height="2.83"/><rect class="b" x="638.12" y="252.3" width="10.2" height="2.83"/><rect class="b" x="652.2" y="252.3" width="43.7" height="2.83"/><rect class="b" x="638.12" y="260.8" width="10.2" height="2.83"/><rect class="b" x="652.2" y="260.8" width="43.7" height="2.83"/><path class="b" d="M689.86,222.08c-.23-11-9.46-19.84-20.8-19.84s-20.57,8.86-20.8,19.84c0,.14,0,.27,0,.42a19.25,19.25,0,0,0,.16,2.41A19.82,19.82,0,0,0,653,235.3a20.49,20.49,0,0,0,2.9,2.84,21.27,21.27,0,0,0,26.42,0,20.49,20.49,0,0,0,2.9-2.84,19.82,19.82,0,0,0,4.55-10.39,19.25,19.25,0,0,0,.16-2.41C689.88,222.35,689.86,222.22,689.86,222.08Zm-20.8,17.83A17.42,17.42,0,1,1,687,222.5,17.68,17.68,0,0,1,669.06,239.91Z"/><polygon class="b" points="664.08 220.05 662.46 220.05 662.46 223.02 659.45 223.02 659.45 224.6 662.46 224.6 662.46 227.6 664.08 227.6 664.08 224.6 667.06 224.6 667.06 223.02 664.08 223.02 664.08 220.05"/><path class="b" d="M672.8,223.65c1.86-1.29,2.5-2.08,2.5-3.57,0-1.71-1.18-3-3.57-3-2.63,0-3.62,1.62-3.71,3.37h2.09c.1-1.06.5-1.76,1.57-1.76a1.27,1.27,0,0,1,1.39,1.42c0,.91-.4,1.27-1.64,2.22-2.56,1.92-3.43,3.25-3.43,5.27v.11h7.3l.27-1.76h-4.93A5.31,5.31,0,0,1,672.8,223.65Z"/><rect class="b" x="595.79" y="113.56" width="2.91" height="4.96"/><rect class="b" x="595.79" y="121.35" width="2.91" height="4.96"/><polygon class="b" points="590.69 118.52 590.69 121.35 595.79 121.35 598.7 121.35 603.8 121.35 603.8 118.52 598.7 118.52 595.79 118.52 590.69 118.52"/><rect class="b" x="820.34" y="223.03" width="2.91" height="4.96"/><rect class="b" x="820.34" y="230.82" width="2.91" height="4.96"/><polygon class="b" points="828.35 230.82 828.35 227.99 823.25 227.99 820.34 227.99 815.24 227.99 815.24 230.82 820.34 230.82 823.25 230.82 828.35 230.82"/><path class="b" d="M583.74,166.46a1.48,1.48,0,0,0,1.54-.1,1.41,1.41,0,0,0,.58-1.39l-.82-4.63,3.46-3.28a1.38,1.38,0,0,0,.37-1.45,1.45,1.45,0,0,0-1.18-1l-4.78-.68-2.13-4.21a1.54,1.54,0,0,0-2.62,0L576,154l-4.78.68a1.44,1.44,0,0,0-1.18,1,1.38,1.38,0,0,0,.37,1.45l3.46,3.28-.82,4.63a1.41,1.41,0,0,0,.58,1.39,1.48,1.48,0,0,0,1.53.1l4.28-2.18Zm-7.29-3.84.45-2.53a1.42,1.42,0,0,0-.42-1.26L574.59,157l2.61-.37a1.46,1.46,0,0,0,1.1-.78l1.17-2.3,1.17,2.3a1.46,1.46,0,0,0,1.1.78l2.61.37-1.89,1.79a1.42,1.42,0,0,0-.42,1.26l.45,2.53-2.34-1.2a1.65,1.65,0,0,0-.68-.16,1.62,1.62,0,0,0-.68.16Z"/><path class="b" d="M174.52,137.6v66.05H214v-39l10.43-5.85L214,153V137.6Zm44.08,21.25-7.52,4.22v37.75H177.44V140.43h33.64v14.2Z"/><polygon class="b" points="182.74 149.53 182.74 150.95 204.83 150.95 204.83 148.12 182.74 148.12 182.74 149.53"/><polygon class="b" points="182.74 155.43 182.74 156.85 204.83 156.85 204.83 154.01 182.74 154.01 182.74 155.43"/><polygon class="b" points="182.74 161.33 182.74 162.75 204.83 162.75 204.83 159.91 182.74 159.91 182.74 161.33"/><polygon class="b" points="182.74 167.23 182.74 168.65 204.83 168.65 204.83 165.81 182.74 165.81 182.74 167.23"/><polygon class="b" points="182.74 173.13 182.74 174.54 204.83 174.54 204.83 171.71 182.74 171.71 182.74 173.13"/><polygon class="b" points="182.74 179.03 182.74 180.44 204.83 180.44 204.83 177.61 182.74 177.61 182.74 179.03"/><polygon class="b" points="182.74 184.93 182.74 186.34 204.83 186.34 204.83 183.51 182.74 183.51 182.74 184.93"/><polygon class="b" points="182.74 190.82 182.74 192.24 204.83 192.24 204.83 189.41 182.74 189.41 182.74 190.82"/><path class="b" d="M571.33,265.85a5.67,5.67,0,1,0-5.82-5.67A5.75,5.75,0,0,0,571.33,265.85Zm0-8.5a2.84,2.84,0,1,1-2.91,2.83A2.88,2.88,0,0,1,571.33,257.35Z"/><path class="b" d="M801.78,314a5.67,5.67,0,1,0,5.82,5.67A5.75,5.75,0,0,0,801.78,314Zm0,8.5a2.83,2.83,0,1,1,2.91-2.83A2.88,2.88,0,0,1,801.78,322.5Z"/><path class="b" d="M801.78,332.6a5.67,5.67,0,1,0,5.82,5.67A5.75,5.75,0,0,0,801.78,332.6Zm0,8.5a2.84,2.84,0,1,1,2.91-2.83A2.88,2.88,0,0,1,801.78,341.1Z"/><path class="b" d="M801.78,351.2a5.67,5.67,0,1,0,5.82,5.66A5.75,5.75,0,0,0,801.78,351.2Zm0,8.5a2.84,2.84,0,1,1,2.91-2.84A2.89,2.89,0,0,1,801.78,359.7Z"/><path class="b" d="M800.42,206.35a5.83,5.83,0,1,0,5.83-5.67A5.76,5.76,0,0,0,800.42,206.35Zm8.74,0a2.91,2.91,0,1,1-2.91-2.84A2.87,2.87,0,0,1,809.16,206.35Z"/><path class="b" d="M750.08,140.84a8,8,0,1,0,8-7.79A7.91,7.91,0,0,0,750.08,140.84Zm8-5a5,5,0,1,1-5.1,5A5,5,0,0,1,758.09,135.88Z"/><path class="b" d="M835.44,203.46a7.79,7.79,0,1,0-8-7.79A7.91,7.91,0,0,0,835.44,203.46Zm0-12.75a5,5,0,1,1-5.1,5A5,5,0,0,1,835.44,190.71Z"/><path class="b" d="M508.6,117.7H469.26a1.42,1.42,0,1,0,0,2.84H508.6a1.42,1.42,0,1,0,0-2.84Z"/><path class="b" d="M508.6,126.68H478a1.42,1.42,0,1,0,0,2.83h30.6a1.42,1.42,0,1,0,0-2.83Z"/><path class="b" d="M518.38,105.48v0a.67.67,0,0,1,.06-.12Z"/><path class="b" d="M575.94,105.48a.31.31,0,0,0-.05-.1l.06.13S576,105.49,575.94,105.48Z"/><path class="b" d="M524.07,107.35h46.19l3.42-2.55a1.47,1.47,0,0,1,1-.27l-.11,0h-54.8l-.11,0a1.49,1.49,0,0,1,1,.27Z"/><path class="b" d="M521.22,136.2V108.79l18.44,13.71,2.4-1.79-18-13.36-3.42-2.55a1.49,1.49,0,0,0-1-.27l-.25,0-.17.05-.11,0-.11.07-.15.1a1,1,0,0,0-.18.17l-.11.13a1.19,1.19,0,0,0-.13.25.67.67,0,0,0-.06.12,1.28,1.28,0,0,0-.06.33s0,.06,0,.09h0v33.13h0a1.39,1.39,0,0,1,.57-1.13Z"/><path class="b" d="M570.26,107.35l-18,13.36,2.4,1.79,18.45-13.71V136.2l2.34,1.74a1.39,1.39,0,0,1,.57,1.13h0V105.93h0s0-.06,0-.09a1.65,1.65,0,0,0-.06-.32l-.06-.13a2,2,0,0,0-.13-.25l-.11-.13-.18-.17-.15-.1-.11-.07-.11,0-.17-.05-.26,0a1.47,1.47,0,0,0-1,.27Z"/><path class="b" d="M575.08,140.38l.15-.08a1.34,1.34,0,0,0,.28-.18.8.8,0,0,0,.13-.13,1.42,1.42,0,0,0,.2-.28c0-.05,0-.09.07-.14l0,0a1.42,1.42,0,0,0,.08-.45,1.39,1.39,0,0,0-.57-1.13l-2.34-1.74-18.45-13.7-2.4-1.79-4.21-3.13a1.49,1.49,0,0,0-1.77,0l-4.22,3.13-2.4,1.79-18.44,13.7-2.34,1.74a1.39,1.39,0,0,0-.57,1.13,1.41,1.41,0,0,0,.07.45l0,0a1,1,0,0,0,.08.14,2,2,0,0,0,.19.28l.13.13a1.75,1.75,0,0,0,.29.18l.15.08a1.45,1.45,0,0,0,.51.1h54.8A1.5,1.5,0,0,0,575.08,140.38Zm-51-2.74,23.09-17.15,23.1,17.15Z"/><polygon class="b" points="499.37 100.29 503.61 93.15 545.05 93.15 545.05 66.22 496.7 66.22 496.7 69.06 542.13 69.06 542.13 90.31 501.93 90.31 499.37 94.62 496.81 90.31 487.13 90.31 487.13 78.37 484.21 78.37 484.21 93.15 495.13 93.15 499.37 100.29"/><path class="b" d="M496.7,78.37V66.22H484.21V78.37H496.7Zm-9.57-9.31h6.66v6.48h-6.66Z"/><rect class="b" x="501.89" y="72.98" width="30.12" height="2.83"/><rect class="b" x="501.89" y="77.49" width="30.12" height="2.83"/><rect class="b" x="501.89" y="82" width="30.12" height="2.83"/><path class="b" d="M741.75,325.62a5,5,0,0,0,5.07-4.92V300.91a5,5,0,0,0-5.07-4.93h-45.6a5,5,0,0,0-5.07,4.93V320.7a5,5,0,0,0,5.07,4.92h45.6Zm-45.6-2.83A2.13,2.13,0,0,1,694,320.7V300.91a2.13,2.13,0,0,1,2.16-2.09h45.6a2.12,2.12,0,0,1,2.15,2.09V320.7a2.12,2.12,0,0,1-2.15,2.09Z"/><rect class="c" x="697.65" y="303.61" width="26.37" height="4.96"/><rect class="c" x="697.65" y="313.21" width="19.11" height="4.96"/><rect class="b" x="762.62" y="104.67" width="4.05" height="3.94"/><rect class="b" x="762.62" y="97.4" width="4.05" height="3.94"/><rect class="b" x="762.62" y="90.14" width="4.05" height="3.94"/><rect class="b" x="161.95" y="196.56" width="4.05" height="3.94"/><rect class="b" x="161.95" y="189.3" width="4.05" height="3.94"/><rect class="b" x="161.95" y="182.03" width="4.05" height="3.94"/><polygon class="c" points="247.2 131.94 249.28 133.93 251.32 131.91 249.25 129.93 247.2 131.94"/><polygon class="c" points="247.18 127.94 245.1 125.95 243.05 127.97 245.13 129.96 247.18 127.94"/><polygon class="c" points="255.47 135.89 253.4 133.91 251.35 135.92 253.43 137.91 255.47 135.89"/><polygon class="c" points="265.88 149.85 267.92 147.83 265.85 145.84 263.8 147.86 265.88 149.85"/><path class="c" d="M240.79,125.79l.19.19,2-2-.19-.19c-.4.41-.78.82-1.2,1.22S241.07,125.52,240.79,125.79Z"/><polygon class="c" points="261.73 145.87 263.77 143.85 261.7 141.86 259.65 143.88 261.73 145.87"/><polygon class="c" points="257.58 141.89 259.63 139.87 257.55 137.88 255.5 139.9 257.58 141.89"/><path class="b" d="M150.94,139.5l-1.12-1.05-4.41,4.33,1.06,1a1.36,1.36,0,0,1,.14,1.85l6-5.93a1.5,1.5,0,0,1-.71.21A1.52,1.52,0,0,1,150.94,139.5Z"/><path class="b" d="M122.93,134.12l1.07,1,4.41-4.33-1-.94a1.38,1.38,0,0,1,0-2,1.48,1.48,0,0,1,2.06,0l1,1,4.41-4.32-1-.92a1.38,1.38,0,0,1,0-2,1.48,1.48,0,0,1,2.06,0l1,.94,4.41-4.32-1-.89a1.38,1.38,0,0,1,0-2,1.48,1.48,0,0,1,2.06,0l1,.92,4.41-4.33-.92-.86a1.4,1.4,0,0,1,0-2,1.48,1.48,0,0,1,2.06,0l1,.89,4.41-4.33-.89-.83a1.4,1.4,0,0,1,0-2,1.48,1.48,0,0,1,2.05,0l.94.87,4.41-4.33-.87-.8a1.4,1.4,0,0,1,0-2,1.49,1.49,0,0,1,2.06,0l.91.84,4.38-4.3L181.89,107l-4.29,4.21a1.39,1.39,0,0,1-.33,1.36,1.48,1.48,0,0,1-1.05.43,1.22,1.22,0,0,1-.38-.07l-4.72,4.63a1.39,1.39,0,0,1-.34,1.32,1.48,1.48,0,0,1-1.05.43,1.35,1.35,0,0,1-.34-.06l-4.59,4.51,1.14,1.07a1.39,1.39,0,0,1,.36,1.48L185,108a1.38,1.38,0,0,0,0-2l-3.69-3.56a10.31,10.31,0,0,1-7-2.89,9.74,9.74,0,0,1-3-6.82l-3.05-2.94a1.73,1.73,0,0,0-1-.41,1.45,1.45,0,0,0-1,.42l-45.24,44.37A1.49,1.49,0,0,1,122.93,134.12Z"/><path class="b" d="M175.27,98.54a8.92,8.92,0,0,0,4.33,2.27l-6.7-6.47A8.43,8.43,0,0,0,175.27,98.54Z"/><path class="b" d="M113.89,141.6a1.37,1.37,0,0,0,.43,1l16.8,16.2a1.5,1.5,0,0,0,2.06,0l13.16-12.91a1.51,1.51,0,0,1-.88.32,1.47,1.47,0,0,1-1-.4l-1.09-1L139,149.11l1,1a1.38,1.38,0,0,1,0,2,1.45,1.45,0,0,1-1.05.44,1.47,1.47,0,0,1-1-.4l-1.06-1-4.76,4.66L117.4,141.58l4.54-4.45-1-1a1.38,1.38,0,0,1,0-2l-6.56,6.44A1.38,1.38,0,0,0,113.89,141.6Z"/><path class="b" d="M157.43,133.19l-1.15-1.08-4.41,4.33,1.09,1a1.36,1.36,0,0,1,.24,1.7l5.8-5.68a1.54,1.54,0,0,1-.56.1A1.49,1.49,0,0,1,157.43,133.19Z"/><path class="b" d="M163.92,126.88l-1.18-1.1-4.41,4.32,1.12,1.05a1.37,1.37,0,0,1,.33,1.56l5.64-5.53a1.63,1.63,0,0,1-.49.09A1.49,1.49,0,0,1,163.92,126.88Z"/><path class="b" d="M219.21,38.55l1.22,1.14,4.41-4.32-1.16-1.09a1.38,1.38,0,0,1-.37-1.44l-5.5,5.39A1.47,1.47,0,0,1,219.21,38.55Z"/><path class="b" d="M213.88,60.67a8.93,8.93,0,0,0-3.8-2.12l6,5.8A8.52,8.52,0,0,0,213.88,60.67Z"/><path class="b" d="M238.68,19.62l1.13,1.06,4.42-4.33-1.08-1a1.39,1.39,0,0,1-.19-1.79l-5.91,5.81A1.47,1.47,0,0,1,238.68,19.62Z"/><path class="b" d="M232.19,25.93,233.35,27l4.41-4.32-1.1-1a1.38,1.38,0,0,1-.28-1.64l-5.72,5.61A1.47,1.47,0,0,1,232.19,25.93Z"/><path class="b" d="M212.72,44.86,214,46l4.41-4.33-1.19-1.11a1.39,1.39,0,0,1-.38-1.38l-5.42,5.32A1.47,1.47,0,0,1,212.72,44.86Z"/><path class="b" d="M225.7,32.24l1.19,1.11L231.3,29,230.17,28a1.4,1.4,0,0,1-.36-1.51l-5.57,5.47A1.46,1.46,0,0,1,225.7,32.24Z"/><path class="b" d="M245.17,13.3l1.11,1L250.69,10l-1.05-1a1.38,1.38,0,0,1-.09-1.94l-6.19,6.07A1.48,1.48,0,0,1,245.17,13.3Z"/><path class="b" d="M217.9,66.1l3.47,3.34a1.49,1.49,0,0,0,1,.41h0a1.45,1.45,0,0,0,1-.42l51.8-50.81a1.38,1.38,0,0,0,0-2L258.42.42a1.44,1.44,0,0,0-1-.41,1.37,1.37,0,0,0-1,.41L249.68,7a1.46,1.46,0,0,1,2,0l1.09,1,4.66-4.57,14.73,14.21-4.68,4.59a1.37,1.37,0,0,1-.39,1.07,1.44,1.44,0,0,1-1.05.44h-.08l-5,4.86a1.42,1.42,0,0,1-.4,1,1.48,1.48,0,0,1-1.05.43h0l-4.71,4.62,1,.9a1.4,1.4,0,0,1,0,2,1.46,1.46,0,0,1-1.05.43,1.49,1.49,0,0,1-1-.39l-1-.94L248.3,41l.94.88a1.38,1.38,0,0,1,0,2,1.46,1.46,0,0,1-1.05.43,1.49,1.49,0,0,1-1-.39l-1-.91-4.41,4.33.91.85a1.38,1.38,0,0,1,0,2,1.47,1.47,0,0,1-1,.44,1.52,1.52,0,0,1-1-.4l-.94-.88-4.41,4.32.88.83a1.38,1.38,0,0,1,0,2,1.45,1.45,0,0,1-1.05.44,1.47,1.47,0,0,1-1-.4l-.91-.85L228.92,60l.85.8a1.38,1.38,0,0,1,0,2,1.45,1.45,0,0,1-1.05.44,1.47,1.47,0,0,1-1-.4l-.88-.83-4.48,4.4L207.65,52.22,211.91,48,210.7,46.9a1.36,1.36,0,0,1-.39-1.31l-5.75,5.64a1.38,1.38,0,0,0,0,2l3.7,3.57a10.32,10.32,0,0,1,6.63,2.87A9.75,9.75,0,0,1,217.9,66.1Z"/><path class="b" d="M236.66,108.23c.35,0,.7-.08,1.06-.1A14.53,14.53,0,0,1,248.3,112c-.33,1.26-3,5.34-8.74,11s-9.86,8.2-11.19,8.57a1.08,1.08,0,0,0-.18-.11,13.26,13.26,0,0,1-3.83-11.16,29.61,29.61,0,0,1-3,2c0,.15,0,.3,0,.45a16.43,16.43,0,0,0,4.89,10.82h0l.06.05.11.1a1.85,1.85,0,0,0,.14.14,2.08,2.08,0,0,0,1.52.6c1.18,0,2.78-.73,5-2.23a65,65,0,0,0,7.73-6.44c.28-.27.56-.52.84-.8s.8-.81,1.2-1.22a61.65,61.65,0,0,0,6.17-7.18c2.33-3.3,2.82-5.2,1.63-6.34h0l-.07-.06,0,0a17.27,17.27,0,0,0-11.84-4.86l-.37.59C237.84,106.64,237.28,107.42,236.66,108.23Z"/><path class="b" d="M237.19,101a1.73,1.73,0,0,0,.21.17c-.12,1.29-2.6,5.69-8.55,11.52s-10.45,8.28-11.77,8.42a2,2,0,0,0-.18-.21l-2.23-2.15c-.87.56-1.71,1.08-2.54,1.55l2.53,2.43a2.11,2.11,0,0,0,.4.53,2.53,2.53,0,0,0,1.82.67,9.76,9.76,0,0,0,4.47-1.6,29.61,29.61,0,0,0,3-2,68.9,68.9,0,0,0,6.56-5.64,63.44,63.44,0,0,0,5.74-6.43c.62-.81,1.18-1.59,1.66-2.34l.37-.59c1.25-2,2.44-4.66.9-6.15a2.62,2.62,0,0,0-.54-.38l-2.52-2.43c-.48.8-1,1.63-1.57,2.48Z"/><path class="b" d="M220.58,71.24c.95.92,1.07,2.34.34,4.32L236,90.15c.06,1.69-3.82,9.26-12.31,17.58s-16.14,12.12-17.94,12.12h0l-15.13-14.59a7.47,7.47,0,0,1-2.34.47,2.89,2.89,0,0,1-2.1-.76,3.08,3.08,0,0,1-.72-2.9l-.1.11a1.38,1.38,0,0,0,0,2L203.88,122a2.49,2.49,0,0,0,1.78.6c1.63,0,3.93-.91,6.47-2.35.83-.47,1.67-1,2.54-1.55a76.92,76.92,0,0,0,11.13-9A76.26,76.26,0,0,0,235,98.82c.57-.85,1.09-1.68,1.57-2.48,2.12-3.62,3.1-6.72,1.73-8l-18.5-17.84a1.52,1.52,0,0,0-1-.41h0a1.45,1.45,0,0,0-1,.42l-.11.1A3.31,3.31,0,0,1,220.58,71.24Z"/><path class="b" d="M214.7,71.54l1.25,1.2h0a2.53,2.53,0,0,1,.64,1,4.46,4.46,0,0,1,1.9-.51c.12,1-1.39,4.12-4.79,8.5a68.22,68.22,0,0,1-16.61,16.32c-4.5,3.4-7.71,4.92-8.81,4.8a4.26,4.26,0,0,1,.51-1.84,2.74,2.74,0,0,1-1.08-.61h0l-1.25-1.2c-.07.13-.11.25-.17.38a10.91,10.91,0,0,0-.73,2c0,.16-.05.3-.08.44a3.08,3.08,0,0,0,.72,2.9,2.89,2.89,0,0,0,2.1.76,7.47,7.47,0,0,0,2.34-.47c6.33-2.17,15.93-11.44,17.29-12.77A81.1,81.1,0,0,0,218.52,80a22.36,22.36,0,0,0,2.4-4.48c.73-2,.61-3.4-.34-4.32a3.31,3.31,0,0,0-3-.68c-.15,0-.3,0-.46.08a12.43,12.43,0,0,0-2,.73Z"/><path class="b" d="M216,74.75a1.48,1.48,0,0,1-1.56.32,3.49,3.49,0,0,0-.59.25c-.46,2.27-3.72,7.41-9.81,13.38s-11.34,9.18-13.67,9.64a3.85,3.85,0,0,0-.25.58,1.4,1.4,0,0,1-.32,1.53,1.47,1.47,0,0,1-2,0,2.74,2.74,0,0,0,1.08.61,3.58,3.58,0,0,0,1.06.16,5.77,5.77,0,0,0,1-.1,19.25,19.25,0,0,0,6.2-3A68.22,68.22,0,0,0,213.7,81.79a18,18,0,0,0,3-6,3.82,3.82,0,0,0-.08-2,2.53,2.53,0,0,0-.64-1h0A1.38,1.38,0,0,1,216,74.75Z"/><polygon class="b" points="189.75 98.44 189.75 98.44 189.76 98.45 189.75 98.44"/><path class="b" d="M175.33,88.52l10.24,9.88.88.85,1.25,1.2h0a1.47,1.47,0,0,0,2,0,1.4,1.4,0,0,0,.32-1.53,3.85,3.85,0,0,1,.25-.58c.94-1.83,4.29-6.32,10.65-12.56s11-9.53,12.83-10.46a3.49,3.49,0,0,1,.59-.25,1.48,1.48,0,0,0,1.56-.32,1.38,1.38,0,0,0,0-2h0l-1.25-1.2-.88-.85-10.24-9.88-.64-.62a1.5,1.5,0,0,0-.48-.3,1.45,1.45,0,0,0-.54-.11,1.81,1.81,0,0,0-1,.42l-.89.88a.81.81,0,0,1,.09.1h0a2.26,2.26,0,0,1,.23.29h0a.88.88,0,0,1,.05.15,4.15,4.15,0,0,1-.19,3.28l1.75-1.72L212.09,73a26.79,26.79,0,0,0-3.21,2.09,100.45,100.45,0,0,0-10,8.69,96.8,96.8,0,0,0-8.84,9.77,25.78,25.78,0,0,0-2.13,3.13l-10.17-9.8,1.76-1.72a6.34,6.34,0,0,1-2.19.48,3,3,0,0,1-1-.17,1.4,1.4,0,0,1-.36-.13h0s0,0,0,0a1.64,1.64,0,0,1-.26-.2.71.71,0,0,1-.14-.1l-.89.87a1.42,1.42,0,0,0-.42,1,1.4,1.4,0,0,0,.11.53,1.46,1.46,0,0,0,.32.47Zm14.42,9.92h0Z"/><path class="b" d="M176.37,85.48a2.46,2.46,0,0,1-.38-.14h0A1.4,1.4,0,0,0,176.37,85.48Z"/><path class="b" d="M175.68,85.11l-.31-.3a1.92,1.92,0,0,0,.13.17h0a.1.1,0,0,0,0,0,.71.71,0,0,0,.14.1Z"/><path class="b" d="M200,61l0,0-.16-.12.31.3a.81.81,0,0,0-.09-.1Z"/><path class="b" d="M200.31,61.48a1,1,0,0,1,.06.16.88.88,0,0,0-.05-.15Z"/><path class="b" d="M156.68,66l-9.76-9.41a7.07,7.07,0,0,1-2.39.52,2.73,2.73,0,0,1-1.82-.61l0,.06L156.9,70.24C156,69.36,155.92,68,156.68,66Z"/><path class="b" d="M170.56,33.46l9.75,9.4c1.79-.67,3.34-.76,4.32.18L170.49,29.4l-.08,0C171.25,30.24,171.29,31.6,170.56,33.46Z"/><path class="b" d="M175.68,85.11l0,0a1.64,1.64,0,0,0,.26.2s0,0,0,0a2.46,2.46,0,0,0,.38.14,3,3,0,0,0,1,.17,6.34,6.34,0,0,0,2.19-.48c4.43-1.67,10.35-7.29,11.79-8.71s7.17-7.22,8.86-11.54a4.15,4.15,0,0,0,.19-3.28,1,1,0,0,0-.06-.16h0a2.26,2.26,0,0,0-.23-.29h0l-.31-.3-.23-.21-11-10.62a1.49,1.49,0,0,0-1-.41,1.47,1.47,0,0,0-1,.42l-2.09,2,1,1a1.59,1.59,0,0,1,.44,1.57l1.65-1.62,10.24,9.88c0,1.19-2.49,5.62-8.51,11.53s-10.71,8.41-11.74,8.41L167.23,73l1.66-1.63a2.82,2.82,0,0,1-.47.07,1.55,1.55,0,0,1-1.16-.48l-1-1-2.09,2a1.39,1.39,0,0,0,0,2l11,10.62.22.21Z"/><path class="b" d="M168.42,71.41a2.82,2.82,0,0,0,.47-.07,10.41,10.41,0,0,0,3.43-1.74,47.3,47.3,0,0,0,6.39-5.29,46.71,46.71,0,0,0,5.39-6.26,9.83,9.83,0,0,0,1.77-3.37,1.59,1.59,0,0,0-.44-1.57l-1-1L183,50.74c-.5.76-1.06,1.55-1.68,2.36l1.55,1.5a34.39,34.39,0,0,1-6.2,7.71,35.36,35.36,0,0,1-7.87,6.09l-1.55-1.5c-.84.62-1.64,1.17-2.42,1.66l1.42,1.37,1,1A1.55,1.55,0,0,0,168.42,71.41Z"/><path class="b" d="M174.72,60.46a69.65,69.65,0,0,0,6.57-7.36c.62-.81,1.18-1.6,1.68-2.36l.18-.26c2.37-3.68,2.85-6.12,1.48-7.44h0c-1-.94-2.53-.85-4.32-.18-5.21,2-12.44,8.94-13.49,10a61.43,61.43,0,0,0-8.43,10A18.4,18.4,0,0,0,156.68,66c-.76,1.92-.7,3.32.22,4.2a2.7,2.7,0,0,0,1.95.72q2.1,0,5.68-2.23l.27-.17c.78-.49,1.58-1,2.42-1.66A71.53,71.53,0,0,0,174.72,60.46Zm-15.67,7.68c.11-1.55,3.2-6.8,9.84-13.31s12-9.56,13.6-9.68c-.11,1.55-3.2,6.8-9.84,13.31S160.64,68,159.05,68.14Z"/><path class="b" d="M146.92,56.63c5.21-2,12.45-8.93,13.5-10a61,61,0,0,0,8.43-10,18.76,18.76,0,0,0,1.71-3.23c.73-1.86.69-3.22-.15-4.11,0,0,0-.07-.07-.1h0c-3.85-3.71-16.4,8.4-17.82,9.79s-13.76,13.71-9.92,17.41l.11.09a2.73,2.73,0,0,0,1.82.61A7.07,7.07,0,0,0,146.92,56.63ZM154.59,41c6.63-6.51,12-9.56,13.6-9.68-.11,1.55-3.2,6.8-9.84,13.31s-12,9.55-13.6,9.68C144.87,52.8,148,47.54,154.59,41Z"/><path class="b" d="M120.91,136.16l1,1,15,14,1.06,1a1.47,1.47,0,0,0,1,.4,1.45,1.45,0,0,0,1.05-.44,1.38,1.38,0,0,0,0-2l-1-1-14.95-14-1.07-1a1.49,1.49,0,0,0-2.06,0h0A1.38,1.38,0,0,0,120.91,136.16Z"/><path class="b" d="M146.47,143.77l-1.06-1-14.95-14-1-1a1.48,1.48,0,0,0-2.06,0,1.38,1.38,0,0,0,0,2l1,.94,15,14,1.09,1a1.47,1.47,0,0,0,1,.4,1.51,1.51,0,0,0,.88-.32,1,1,0,0,0,.17-.12c.05,0,.06-.1.1-.15A1.36,1.36,0,0,0,146.47,143.77Z"/><path class="b" d="M153,137.46l-1.09-1-15-14-1-.94a1.48,1.48,0,0,0-2.06,0,1.38,1.38,0,0,0,0,2l1,.92,14.95,14,1.12,1.05a1.52,1.52,0,0,0,1,.4,1.5,1.5,0,0,0,.71-.21,1.56,1.56,0,0,0,.34-.23,1.43,1.43,0,0,0,.2-.3A1.36,1.36,0,0,0,153,137.46Z"/><path class="b" d="M159.45,131.15l-1.12-1.05-15-14-1-.92a1.48,1.48,0,0,0-2.06,0,1.38,1.38,0,0,0,0,2l1,.89,14.95,14,1.15,1.08a1.49,1.49,0,0,0,1,.39,1.54,1.54,0,0,0,.56-.1,1.46,1.46,0,0,0,.49-.33,1.53,1.53,0,0,0,.29-.44A1.37,1.37,0,0,0,159.45,131.15Z"/><path class="b" d="M165.94,124.83l-1.14-1.07-15-14-1-.89a1.48,1.48,0,0,0-2.06,0,1.4,1.4,0,0,0,0,2l.92.86,15,14,1.18,1.1a1.49,1.49,0,0,0,1,.39,1.63,1.63,0,0,0,.49-.09,1.48,1.48,0,0,0,.56-.34,1.54,1.54,0,0,0,.32-.53A1.39,1.39,0,0,0,165.94,124.83Z"/><path class="b" d="M169.39,119.25a1.35,1.35,0,0,0,.34.06,1.48,1.48,0,0,0,1.05-.43,1.39,1.39,0,0,0,.34-1.32,1.46,1.46,0,0,0-.39-.69l-14.42-13.44-.94-.87a1.48,1.48,0,0,0-2.05,0,1.4,1.4,0,0,0,0,2l.89.83,14.47,13.48A1.37,1.37,0,0,0,169.39,119.25Z"/><path class="b" d="M175.84,112.93a1.22,1.22,0,0,0,.38.07,1.48,1.48,0,0,0,1.05-.43,1.39,1.39,0,0,0,.33-1.36,1.35,1.35,0,0,0-.38-.65L162.77,97.09l-.91-.84a1.49,1.49,0,0,0-2.06,0,1.4,1.4,0,0,0,0,2l.87.8,14.49,13.51A1.4,1.4,0,0,0,175.84,112.93Z"/><path class="b" d="M210.7,46.9,211.91,48l15,14,.88.83a1.47,1.47,0,0,0,1,.4,1.45,1.45,0,0,0,1.05-.44,1.38,1.38,0,0,0,0-2l-.85-.8L214,46l-1.25-1.17a1.47,1.47,0,0,0-1.33-.33,1.28,1.28,0,0,0-1.08,1.06A1.36,1.36,0,0,0,210.7,46.9Z"/><path class="b" d="M217.19,40.59l1.19,1.11,15,14,.91.85a1.47,1.47,0,0,0,1,.4,1.45,1.45,0,0,0,1.05-.44,1.38,1.38,0,0,0,0-2l-.88-.83-14.95-14-1.22-1.14a1.56,1.56,0,0,0-2.06,0,1.36,1.36,0,0,0-.34.62A1.39,1.39,0,0,0,217.19,40.59Z"/><path class="b" d="M223.68,34.28l1.16,1.09,14.95,14,.94.88a1.52,1.52,0,0,0,1,.4,1.47,1.47,0,0,0,1-.44,1.38,1.38,0,0,0,0-2l-.91-.85-15-14-1.19-1.11a1.46,1.46,0,0,0-1.46-.31,1.36,1.36,0,0,0-.6.35,1.42,1.42,0,0,0,0,2Z"/><path class="b" d="M230.17,28,231.3,29l14.95,14,1,.91a1.49,1.49,0,0,0,1,.39,1.46,1.46,0,0,0,1.05-.43,1.38,1.38,0,0,0,0-2L248.3,41l-15-14-1.16-1.08a1.47,1.47,0,0,0-1.53-.3,1.42,1.42,0,0,0-.53.34,1.3,1.3,0,0,0-.32.49A1.4,1.4,0,0,0,230.17,28Z"/><path class="b" d="M236.66,21.66l1.1,1,15,14,1,.94a1.49,1.49,0,0,0,1,.39,1.46,1.46,0,0,0,1.05-.43,1.4,1.4,0,0,0,0-2l-1-.9-15-14-1.13-1.06a1.47,1.47,0,0,0-1.63-.25,1.39,1.39,0,0,0-.43.28,1.24,1.24,0,0,0-.24.37A1.38,1.38,0,0,0,236.66,21.66Z"/><path class="b" d="M243.15,15.35l1.08,1,14.28,13.31a1.49,1.49,0,0,0,1,.39h0a1.48,1.48,0,0,0,1.05-.43,1.42,1.42,0,0,0,.4-1,1.38,1.38,0,0,0-.45-1L246.28,14.34l-1.11-1a1.48,1.48,0,0,0-1.81-.13,2.2,2.2,0,0,0-.25.17,1.43,1.43,0,0,0-.15.22A1.39,1.39,0,0,0,243.15,15.35Z"/><path class="b" d="M249.64,9l1.05,1L265,23.35a1.48,1.48,0,0,0,.93.38H266a1.44,1.44,0,0,0,1.05-.44,1.41,1.41,0,0,0-.05-2L252.74,8l-1.09-1a1.46,1.46,0,0,0-2,0l-.08,0,0,.07A1.38,1.38,0,0,0,249.64,9Z"/><path class="b" d="M740.84,28.62A1.44,1.44,0,0,1,739.42,30h.32c7.86.09,13.35,6.12,13.35,14.66v6.38H727.37v2.83H756V44.7c0-9.51-6.14-16.62-14.8-17.42V27.2h-1.83A1.44,1.44,0,0,1,740.84,28.62Z"/><path class="b" d="M659.92,27.26h-.73l0,0Z"/><path class="b" d="M661.36,30h69.28c-3.91,3-6.19,8.1-6.19,14.66v26a17.58,17.58,0,0,1,2.92-.6V44.7c0-7,3.16-14.56,12-14.66h0a1.42,1.42,0,1,0,0-2.84H660.73c-.27,0-.54,0-.81.05l-.69,0A17.57,17.57,0,0,1,661.36,30Z"/><path class="b" d="M646,135.24V108a18.89,18.89,0,0,1-2.91.78v26.44c0,.31,0,.61,0,.91H646C646,135.85,646,135.55,646,135.24Z"/><path class="b" d="M646,57h-.08a19,19,0,0,1-2.83-.24V74.08a18.89,18.89,0,0,1,2.91.78Z"/><path class="b" d="M724.45,135.24c0,10.16-8.31,18.45-18.66,18.83.19,0,.37,0,.57,0a1.43,1.43,0,0,1,1.43,1.41,1.41,1.41,0,0,1-1,1.34c11.5-.87,20.59-10.22,20.59-21.62V105.06a18.64,18.64,0,0,1-2.92-.59Z"/><path class="b" d="M626.32,156.94h80a1.56,1.56,0,0,0,.44-.09,1.41,1.41,0,0,0,1-1.34,1.43,1.43,0,0,0-1.43-1.41c-.2,0-.38,0-.57,0-7.58-.36-12.83-6.29-12.83-14.62v-1.88a1.43,1.43,0,0,0-1.45-1.42H610.13a1.44,1.44,0,0,0-1.46,1.42v1.88C608.67,148.94,616.58,156.76,626.32,156.94Zm-14.73-18h78.46v.47c0,6.34,2.74,11.62,7.14,14.66H626.48a14.91,14.91,0,0,1-14.89-14.66Z"/><rect class="b" x="692.62" y="105.57" width="14.57" height="2.83"/><rect class="b" x="710.1" y="105.57" width="2.91" height="2.83"/><rect class="b" x="686.79" y="105.57" width="2.91" height="2.83"/><rect class="b" x="710.1" y="95.66" width="2.91" height="2.83"/><path class="b" d="M666.4,98.5V95.66h-9a18,18,0,0,1-.91,2.71v.13Z"/><rect class="b" x="669.31" y="95.66" width="2.91" height="2.83"/><rect class="b" x="692.62" y="95.66" width="14.57" height="2.83"/><rect class="b" x="686.79" y="95.66" width="2.91" height="2.83"/><path class="b" d="M666.4,85.76H657a17.8,17.8,0,0,1,.73,2.83h8.72Z"/><rect class="b" x="669.31" y="85.76" width="2.91" height="2.83"/><rect class="b" x="692.62" y="85.76" width="14.57" height="2.83"/><path class="b" d="M710.1,88.59h1.51c0-.34-.06-.68-.06-1a15.27,15.27,0,0,1,.1-1.8H710.1Z"/><rect class="b" x="686.79" y="85.76" width="2.91" height="2.83"/><rect class="b" x="710.1" y="75.85" width="2.91" height="2.83"/><rect class="b" x="656.48" y="75.85" width="9.92" height="2.83"/><rect class="b" x="669.31" y="75.85" width="2.91" height="2.83"/><rect class="b" x="686.79" y="75.85" width="2.91" height="2.83"/><rect class="b" x="692.62" y="75.85" width="14.57" height="2.83"/><rect class="b" x="710.1" y="65.95" width="2.91" height="2.83"/><rect class="b" x="686.79" y="65.95" width="2.91" height="2.83"/><rect class="b" x="669.31" y="65.95" width="2.91" height="2.83"/><rect class="b" x="656.48" y="65.95" width="9.92" height="2.83"/><rect class="b" x="692.62" y="65.95" width="14.57" height="2.83"/><rect class="b" x="692.62" y="56.05" width="14.57" height="2.83"/><rect class="b" x="710.1" y="56.05" width="2.91" height="2.83"/><rect class="b" x="656.48" y="56.05" width="9.92" height="2.83"/><rect class="b" x="669.31" y="56.05" width="2.91" height="2.83"/><rect class="b" x="686.79" y="56.05" width="2.91" height="2.83"/><rect class="b" x="692.62" y="46.14" width="14.57" height="2.83"/><rect class="b" x="710.1" y="46.14" width="2.91" height="2.83"/><rect class="b" x="669.31" y="46.14" width="2.91" height="2.83"/><path class="b" d="M666.4,46.14h-3.74A18.67,18.67,0,0,1,661.09,49h5.31Z"/><rect class="b" x="686.79" y="46.14" width="2.91" height="2.83"/><rect class="b" x="710.1" y="114.46" width="2.91" height="2.83"/><rect class="b" x="692.62" y="114.46" width="14.57" height="2.83"/><rect class="b" x="686.79" y="114.46" width="2.91" height="2.83"/><rect class="b" x="686.79" y="123.35" width="2.91" height="2.83"/><rect class="b" x="710.1" y="123.35" width="2.91" height="2.83"/><rect class="b" x="692.62" y="123.35" width="14.57" height="2.83"/><path class="b" d="M674.85,105.38h-18a1.43,1.43,0,0,0-1.45,1.42V125a1.44,1.44,0,0,0,1.45,1.42h18a1.44,1.44,0,0,0,1.46-1.42V106.8A1.43,1.43,0,0,0,674.85,105.38Zm-1.45,18.23H658.29v-15.4H673.4Z"/><path class="b" d="M656.48,98.37a18,18,0,0,0,.91-2.71,17.25,17.25,0,0,0,.55-4.22,17.7,17.7,0,0,0-12-16.58,18.83,18.83,0,0,0-6.22-1.09,17.67,17.67,0,1,0,3.31,35A18.89,18.89,0,0,0,646,108,18.06,18.06,0,0,0,656.48,98.37Zm-16.71,7.91A14.84,14.84,0,1,1,655,91.44,15.07,15.07,0,0,1,639.77,106.28Z"/><path class="b" d="M638.65,87.16v1h-1.39v1.72h1.39v7.78h2.22V89.86h1.67V88.14h-1.67v-1c0-.82.23-1.3,1-1.3a2.5,2.5,0,0,1,.7.08V84.2a4,4,0,0,0-1-.14C639.45,84.06,638.65,85.37,638.65,87.16Z"/><path class="b" d="M646,57a18.27,18.27,0,0,0,15.1-8,18.67,18.67,0,0,0,1.57-2.84,17.15,17.15,0,0,0-1.3-16.1,17.57,17.57,0,0,0-2.13-2.73l0,0a18.33,18.33,0,0,0-13.28-5.65,17.94,17.94,0,0,0-18.16,17.67,17.84,17.84,0,0,0,15.33,17.43,19,19,0,0,0,2.83.24ZM630.66,39.29a15.26,15.26,0,0,1,30.51,0,15.26,15.26,0,0,1-30.51,0Z"/><rect class="b" x="639.48" y="31.21" width="2.24" height="2.2"/><rect class="b" x="639.48" y="35.17" width="2.24" height="9.5"/><path class="b" d="M646.5,44.66V39.43c0-1.77.61-2.64,2-2.64s1.63.91,1.63,2.07v5.8h2.25V38.47c0-2.31-1.12-3.49-3.1-3.49a3,3,0,0,0-2.77,1.5,10,10,0,0,0-.08-1.31h-2.19c0,.4,0,1,0,2.95v6.54Z"/><path class="b" d="M711.65,85.76a15.27,15.27,0,0,0-.1,1.8c0,.35,0,.69.06,1a17.78,17.78,0,0,0,12.84,15.88,18.64,18.64,0,0,0,2.92.59,18.18,18.18,0,0,0,2.35.17,17.68,17.68,0,1,0,0-35.34,18.18,18.18,0,0,0-2.35.17,17.58,17.58,0,0,0-2.92.6A17.83,17.83,0,0,0,711.65,85.76Zm18.07-13a14.84,14.84,0,1,1-15.25,14.83A15.06,15.06,0,0,1,729.72,72.73Z"/><path class="b" d="M728.29,90.66c0,1.7.64,2.39,2.37,2.39a5.41,5.41,0,0,0,1.48-.19V91.33a3.55,3.55,0,0,1-.64.06c-.82,0-1-.3-1-1V85.16h1.82V83.44h-1.82V80.8h-2.22v2.64h-1.45v1.72h1.45Z"/><rect class="b" x="735.35" y="130.32" width="4.05" height="3.94"/><rect class="b" x="735.35" y="123.06" width="4.05" height="3.94"/><rect class="b" x="735.35" y="115.79" width="4.05" height="3.94"/><rect class="b" x="667.97" y="16.06" width="4.05" height="3.94"/><rect class="b" x="675.44" y="16.06" width="4.05" height="3.94"/><rect class="b" x="682.91" y="16.06" width="4.05" height="3.94"/><polygon class="b" points="61.84 183.22 86.3 182.91 61.84 182.91 61.84 183.22"/><path class="b" d="M31.94,160l25,11.41A4.24,4.24,0,0,1,59.46,175l.58,5.06H63l-.61-5.32a7,7,0,0,0-4.14-5.89L33,157.38l-.38-.11a.88.88,0,0,1-.75-.86,7.75,7.75,0,0,1,.29-2.09v0c2.34-1.36,17-1.5,29.72-.84l1.5.08,0-1.46c.38-17.11,1.12-49.7,1.16-50.55l-1-.06h1a3.58,3.58,0,0,1,7.15,0V124a6.26,6.26,0,0,1,2.91-5.26V101.46a6.49,6.49,0,0,0-13,0h.13c-.17,1.24-.23,3.56-.33,7.85l-.93,41.24c-9.33-.45-27.83-1-30.61,1.87a2.1,2.1,0,0,0-.63,1.32,10.45,10.45,0,0,0-.34,2.67A3.71,3.71,0,0,0,31.94,160Z"/><path class="b" d="M100.31,147.41l-.07,2.41,0,.11c1.76,12.7,1.3,14.85-7.15,30.07l-6.79.08H96.37c8.09-14.65,8.58-17.47,6.79-30.42l.11-4.17A6.57,6.57,0,0,1,100.31,147.41Z"/><path class="b" d="M71.75,124v14.87a6.41,6.41,0,0,0,6.48,6.31,6.57,6.57,0,0,0,4.53-1.8,6.08,6.08,0,0,1-1-3.23v-1.28a3.58,3.58,0,0,1-7.15,0V124a3.58,3.58,0,0,1,7.15,0v1.28a6.19,6.19,0,0,1,2-4.51,6.51,6.51,0,0,0-5.55-3.08,6.59,6.59,0,0,0-3.57,1A6.26,6.26,0,0,0,71.75,124Z"/><path class="b" d="M81.81,138.86v1.28a6.08,6.08,0,0,0,1,3.23,6.48,6.48,0,0,0,5.54,3.08,6.56,6.56,0,0,0,4.52-1.8,6.08,6.08,0,0,1-.95-3.23v-1.28a3.58,3.58,0,0,1-7.15,0V125.27a3.58,3.58,0,0,1,7.15,0v1.28a6.19,6.19,0,0,1,2-4.51,6.54,6.54,0,0,0-10.06-1.28,6.19,6.19,0,0,0-2,4.51Z"/><path class="b" d="M91.87,140.14v1.28a6.08,6.08,0,0,0,.95,3.23,6.48,6.48,0,0,0,5.54,3.08,6.73,6.73,0,0,0,4.91-2.24,6.12,6.12,0,0,0,1.57-4.07V126.55a6.41,6.41,0,0,0-6.48-6.31,6.55,6.55,0,0,0-4.52,1.8,6.19,6.19,0,0,0-2,4.51Zm2.91,0V126.55a3.58,3.58,0,0,1,7.15,0v14.87a3.58,3.58,0,0,1-7.15,0Z"/><polygon class="b" points="62.97 180.08 60.04 180.08 58.93 180.08 58.93 273.37 61.84 273.37 61.84 183.22 61.84 182.91 86.3 182.91 96.7 182.91 96.7 207.49 99.62 207.49 99.62 180.08 96.37 180.08 86.32 180.08 62.97 180.08"/><path class="c" d="M783,297.24a28.38,28.38,0,0,0,11.56,2.46c15.38,0,27.89-12.16,27.89-27.12S810,245.46,794.58,245.46s-27.88,12.17-27.88,27.12a26.48,26.48,0,0,0,4.52,14.78,1.41,1.41,0,0,1,.2,1.08l-4,17.29,14.25-8.41A1.52,1.52,0,0,1,783,297.24Zm-1.31-35.87h24.54v2.83H781.71Zm0,9.29h24.54v2.84H781.71Zm0,9.3h24.54v2.83H781.71Z"/><path class="b" d="M782.52,300.12a31.1,31.1,0,0,0,12.06,2.42c17,0,30.8-13.44,30.8-30s-13.82-29.95-30.8-29.95a31.25,31.25,0,0,0-14.9,3.76,28.8,28.8,0,0,0-2.91,1.8,29.67,29.67,0,0,0-13,24.39,29.2,29.2,0,0,0,4.66,15.81l-4.62,20a1.42,1.42,0,0,0,.57,1.47,1.52,1.52,0,0,0,.85.26,1.6,1.6,0,0,0,.76-.2l10.77-6.36,2.91-1.72Zm-15.11,5.61,4-17.29a1.41,1.41,0,0,0-.2-1.08,26.48,26.48,0,0,1-4.52-14.78c0-14.95,12.51-27.12,27.88-27.12s27.89,12.17,27.89,27.12S810,299.7,794.58,299.7A28.38,28.38,0,0,1,783,297.24a1.52,1.52,0,0,0-1.36.08Z"/><polygon class="b" points="774.35 181.38 752.14 167.29 653.53 167.29 653.53 170.12 749.38 170.12 749.38 168.7 752.3 168.7 752.3 170.77 759.81 175.53 759.81 172.15 774.35 181.38 759.81 190.6 759.81 187.22 752.3 191.98 752.3 194.04 749.38 194.04 749.38 192.63 653.53 192.63 653.53 195.46 752.14 195.46 774.35 181.38"/><rect class="b" x="653.53" y="175.74" width="95.86" height="2.83"/><rect class="b" x="653.53" y="184.18" width="95.86" height="2.83"/><polygon class="b" points="749.38 178.57 749.38 184.18 749.38 187.01 749.38 192.63 749.38 194.04 752.3 194.04 752.3 191.98 752.3 170.77 752.3 168.7 749.38 168.7 749.38 170.12 749.38 175.74 749.38 178.57"/><path class="b" d="M759.81,190.6l14.54-9.23-14.54-9.22V190.6Zm2.91-13.22,6.3,4-6.3,4Z"/><path class="b" d="M653.53,187V167.29H635.65a11,11,0,0,0-11.09,10.78v6.6a11,11,0,0,0,11.09,10.79h17.88V187Zm-2.92,5.61h-15a8.08,8.08,0,0,1-8.18-8v-6.6a8.08,8.08,0,0,1,8.18-7.95h15Z"/><path class="c" d="M391,82.92h52.25V53.56H391Zm18.82-23.7,16.07,9-16.07,9Z"/><path class="b" d="M446.19,50.73H388.12v35h58.07Zm-2.91,32.19H391V53.56h52.25Z"/><path class="b" d="M409.85,59.22v18l16.07-9Zm2.91,4.9,7.33,4.12-7.33,4.12Z"/><path class="b" d="M414.45,95.22h30.29V92.39h-30a3.62,3.62,0,0,1-.3,2.83Z"/><path class="b" d="M406.91,92.39H389.58v2.83h17.63a3.75,3.75,0,0,1-.46-1.79A3.54,3.54,0,0,1,406.91,92.39Z"/><path class="b" d="M411.28,92.39h-.91a1.12,1.12,0,0,0-.71,1,1.17,1.17,0,0,0,2.33,0A1.12,1.12,0,0,0,411.28,92.39Z"/><path class="b" d="M410.83,89.46a4.06,4.06,0,0,0-3.92,2.93,3.54,3.54,0,0,0-.16,1,3.75,3.75,0,0,0,.46,1.79,4.1,4.1,0,0,0,7.24,0,3.62,3.62,0,0,0,.3-2.83A4.07,4.07,0,0,0,410.83,89.46Zm0,5.1a1.15,1.15,0,0,1-1.17-1.13,1.12,1.12,0,0,1,.71-1,1.09,1.09,0,0,1,.91,0,1.12,1.12,0,0,1,.71,1A1.15,1.15,0,0,1,410.83,94.56Z"/></svg>