<svg xmlns="http://www.w3.org/2000/svg" viewBox="0 0 96.72 95.93"><defs><style>.a{fill:#d9804f;}</style></defs><path class="a" d="M96.72,90.11v4.71a2.41,2.41,0,0,1-2.31,1.11q-46,0-92.1,0A2.41,2.41,0,0,1,0,94.82V90.11l.36-.85a4.38,4.38,0,0,1,3.38-2.85c1-.16,1.17-.6,1.12-1.46A4.32,4.32,0,0,1,7,80.72a2,2,0,0,0,1.1-2.17,4.65,4.65,0,0,1,2.71-4.66.84.84,0,0,0,.51-.88q0-11.67,0-23.35a1,1,0,0,0-.63-1,4.64,4.64,0,0,1-2.6-4.27c0-.73,0-1.45,0-2.17a2.29,2.29,0,0,0-.19-1c-1.51-3.29-3.13-6.49-6.07-8.82A20.12,20.12,0,0,1,0,30.53V29.4a4.65,4.65,0,0,1,1.39-1.22Q24.07,14.38,46.73.55A2.72,2.72,0,0,1,50,.54Q72.6,14.37,95.25,28.12a4.65,4.65,0,0,1,1.47,1.28v1.13c-1,1-1.87,2-2.89,2.94a16.1,16.1,0,0,0-3.68,5,11.49,11.49,0,0,0-1.56,6.07,4.2,4.2,0,0,1-2.47,4,1.17,1.17,0,0,0-.72,1.23c0,7.19,0,14.38,0,21.57,0,1.31,0,2.32,1.43,3.14,1.67,1,1.94,2.82,1.8,4.66a1.12,1.12,0,0,0,.7,1.24,4.1,4.1,0,0,1,2.45,3.65c0,1.47.28,2.22,1.9,2.57S96.16,88.55,96.72,90.11Zm-84.45-57H84.41l-.7-.46Q66.34,22,49,11.28a1.15,1.15,0,0,0-1.42.1l-24.43,15ZM48.35,92.7H92.17c.28,0,.56,0,.85,0s.43-.1.48-.43c.33-1.9-.4-2.79-2.34-2.79h-32c-.32,0-.63,0-.95,0-1.13-.07-1.78-.7-1.75-1.67s.66-1.5,1.77-1.54H88.16c.29,0,.43-.12.49-.43C89,84,88.24,83,86.38,83q-38,0-76,0a4.25,4.25,0,0,0-1.13.1c-1,.25-1.41,1.28-1.14,2.66.18.9.94.44,1.39.44,9.45,0,18.89,0,28.33,0a7.08,7.08,0,0,1,1.13,0,1.57,1.57,0,0,1,.15,3.07,5.23,5.23,0,0,1-1.31.1H5.67a9,9,0,0,0-1,0c-1.08.14-1.49.92-1.42,2.56.06,1.17,1,.6,1.41.6Q26.49,92.73,48.35,92.7Zm8.08-31.32c0-3.86,0-7.73,0-11.59,0-.35.14-.75-.34-1a4.93,4.93,0,0,1-2.88-5.24c0-.62-.19-.79-.8-.78-2.65,0-5.29,0-7.93,0-.81,0-1,.24-1,1a4.82,4.82,0,0,1-2.82,5,.69.69,0,0,0-.4.75V73.09c0,.28,0,.54.32.7A4.92,4.92,0,0,1,43.5,79c0,.63.21.8.81.79,2.62,0,5.23,0,7.84,0,.9,0,1.12-.28,1.07-1.12A4.7,4.7,0,0,1,56,73.87c.49-.24.46-.59.46-1Q56.43,67.13,56.43,61.38Zm-8.15-54A3,3,0,0,1,49.84,8L88,31.48c2,1.25,2,1.21,3.75-.45.65-.62.66-.87-.15-1.36Q70.37,16.78,49.17,3.82a1.29,1.29,0,0,0-1.59,0Q26.87,16.46,6.12,29.08c-.61.37-1.63.62-1.69,1.2s.94,1,1.37,1.57c.58.78,1.08.8,1.93.27Q27.38,20,47.09,7.91A2.56,2.56,0,0,1,48.28,7.42Zm39.35,29H9.09a24.17,24.17,0,0,1,1.07,2.18,1.44,1.44,0,0,0,1.62,1q36.59,0,73.17,0c.25,0,.5,0,.75,0a.5.5,0,0,0,.51-.33C86.66,38.34,87.13,37.43,87.63,36.42ZM14.52,61.3c0,3.7,0,7.41,0,11.11,0,.68.09,1,.9,1,1.6-.07,3.21,0,4.81,0,.56,0,.75-.13.75-.73q0-11.34,0-22.68c0-.59-.18-.75-.75-.74-1.6,0-3.21,0-4.81,0-.7,0-.91.17-.91.89C14.54,53.83,14.52,57.57,14.52,61.3Zm22.54,0c0-3.74,0-7.48,0-11.22,0-.57-.11-.84-.77-.82-1.64,0-3.27,0-4.91,0-.53,0-.79.09-.79.71q0,11.37,0,22.72c0,.61.23.73.78.72,1.6,0,3.21-.05,4.81,0,.73,0,.89-.21.88-.9C37,68.74,37.06,65,37.06,61.26Zm29,.09c0-3.77,0-7.54,0-11.31,0-.6-.13-.84-.78-.82-1.63,0-3.27,0-4.91,0-.55,0-.77.12-.77.72q0,11.37,0,22.72c0,.62.24.72.77.71,1.61,0,3.22-.05,4.82,0,.74,0,.88-.23.88-.91C66.08,68.76,66.1,65.05,66.1,61.35Zm16.09,0c0-3.76,0-7.53,0-11.29,0-.45.06-.87-.64-.85-1.73,0-3.46,0-5.19,0-.52,0-.62.22-.62.68q0,11.39,0,22.78c0,.53.15.7.69.69,1.63,0,3.27-.05,4.9,0,.74,0,.87-.24.87-.91C82.18,68.77,82.19,65.06,82.19,61.36Zm-58,0c0,3.7,0,7.4,0,11.11,0,.77,0,1.42.93,1.65.34.09.55.69,1,.23s1.31-.47,1.3-1.55c-.06-7.6,0-15.19,0-22.78a1.7,1.7,0,0,0-.85-1.55c-.86-.65-1.27,0-1.88.24s-.5.72-.5,1.16Zm48.36,0c0-3.77,0-7.53,0-11.3a1.59,1.59,0,0,0-.82-1.56c-.84-.58-1.26-.05-1.89.2s-.52.77-.52,1.24c0,7.5,0,15,0,22.5,0,.84.1,1.46,1,1.72.32.09.52.65,1,.22s1.36-.44,1.33-1.54C72.48,69,72.54,65.18,72.54,61.35ZM17.77,42.8H12c-.25,0-.56-.13-.71.27a2.05,2.05,0,0,0,2,2.93c2.83,0,5.66,0,8.48,0,2,0,2.42-.45,2.44-2.42,0-.71-.26-.81-.88-.8C21.47,42.82,19.62,42.8,17.77,42.8Zm16.14,0c-1.92,0-3.83,0-5.75,0-.27,0-.63-.17-.76.31A2.07,2.07,0,0,0,29.54,46c2.79,0,5.59,0,8.38,0,1.95,0,2.37-.44,2.38-2.37,0-.63-.15-.87-.83-.85C37.62,42.83,35.76,42.8,33.91,42.8Zm29,0H57.14c-.25,0-.55-.12-.69.28A2.06,2.06,0,0,0,58.52,46c2.8,0,5.59,0,8.39,0,2,0,2.47-.52,2.42-2.53,0-.53-.16-.7-.69-.69C66.72,42.82,64.81,42.8,62.89,42.8ZM79,42.8H73.23c-.25,0-.56-.13-.69.28A2.09,2.09,0,0,0,74.65,46c2.79,0,5.59,0,8.38,0,2,0,2.46-.5,2.4-2.53,0-.54-.18-.7-.71-.69C82.81,42.82,80.89,42.8,79,42.8Zm-61.25,37c1.92,0,3.84,0,5.76,0,.24,0,.56.13.69-.28a2.1,2.1,0,0,0-2.12-2.93h-8.4c-1.93,0-2.35.47-2.37,2.41,0,.68.23.84.87.82C14,79.78,15.86,79.8,17.72,79.8Zm16.1,0c1.89,0,3.78,0,5.67,0,.27,0,.63.16.78-.29a2.06,2.06,0,0,0-2-2.92c-2.83,0-5.66,0-8.49,0-1.91,0-2.36.51-2.38,2.42,0,.7.26.82.87.81C30.11,79.78,32,79.8,33.82,79.8Zm29,0c1.92,0,3.84,0,5.76,0,.28,0,.63.15.76-.32a2.09,2.09,0,0,0-2.18-2.89h-8.3c-2,0-2.48.53-2.42,2.54,0,.55.21.69.72.69C59,79.79,60.92,79.8,62.8,79.8Zm16.13,0c1.92,0,3.84,0,5.76,0,.25,0,.56.13.71-.26a2.07,2.07,0,0,0-2-3c-2.83,0-5.66,0-8.49,0-2,0-2.41.5-2.4,2.49,0,.57.17.75.75.74C75.15,79.78,77,79.8,78.93,79.8Z"/><path class="a" d="M54.79,22.73a6.43,6.43,0,1,1-6.37-6.48A6.43,6.43,0,0,1,54.79,22.73Zm-3.22,0A3.22,3.22,0,1,0,48.3,25.9,3.22,3.22,0,0,0,51.57,22.73Z"/></svg>