<svg xmlns="http://www.w3.org/2000/svg" viewBox="0 0 96.72 96.72"><defs><style>.a{fill:#d9804f;}</style></defs><path class="a" d="M63.66,0h3.78a2.23,2.23,0,0,0,.43.16A18.83,18.83,0,0,1,82.1,27.62a1.31,1.31,0,0,0,.12,1.45,37.81,37.81,0,0,1,5.07,20.11c0,.7.2.89.83,1a10.69,10.69,0,0,1,8.12,7.49c.2.59.32,1.2.48,1.8v2.65c-.1.36-.2.72-.28,1.09A12.38,12.38,0,0,1,94,68.09c-2.73,3.6-5.43,7.23-8.15,10.85a2.1,2.1,0,0,1-.73-.79C83.55,76,82,73.94,80.39,71.81c-.36-.51-.55-.51-.93,0a33.92,33.92,0,0,1-5.09,5.55A1.18,1.18,0,0,0,74,78.83a22.72,22.72,0,0,1,.9,8.48,3.1,3.1,0,0,1-3.26,3.17c-1.1,0-2.2,0-3.3,0a1,1,0,0,0-1.09.65,10.81,10.81,0,0,1-4.45,4.36,19,19,0,0,1-3.63,1.24H56.29a.84.84,0,0,0-.24-.14,10.74,10.74,0,0,1-7.92-5.64c-.26-.48-.6-.46-1-.46-5.41,0-10.82,0-16.23,0a1.13,1.13,0,0,0-1.15.71,10.74,10.74,0,0,1-6.31,5.07c-.56.17-1.14.31-1.71.47H18.89c-.05,0-.1-.1-.15-.11a10.81,10.81,0,0,1-8.08-5.72c-.24-.44-.57-.41-.94-.41-1.92,0-3.84-.06-5.76,0A3.57,3.57,0,0,1,0,88V83.49c.47-1,1.06-2,2.24-2.22.81-.14.9-.51.89-1.2q0-14.58,0-29.16c0-.38,0-.76,0-1.14a3,3,0,0,1,3.07-3c.82,0,1.64,0,2.46,0,.53,0,.76-.09.8-.71A38.06,38.06,0,0,1,15,28.28a.91.91,0,0,0-.12-1.22,10.79,10.79,0,0,1-2.36-6.35A10.9,10.9,0,0,1,19,10.31a10.77,10.77,0,0,1,12,2.2,1.09,1.09,0,0,0,1.44.28,38.13,38.13,0,0,1,16-3.38,1.29,1.29,0,0,0,1.27-.7,18.67,18.67,0,0,1,9.1-7.48A36.47,36.47,0,0,1,63.66,0ZM17.32,30.38a35.32,35.32,0,0,0-4.67,14.86c-.13,1.57-.1,1.57,1.51,1.57H46.45a3.09,3.09,0,0,1,3.45,3.43c0,1.63,0,3.27,0,4.91,0,.78.21,1,1,1,4.44,0,8.88,0,13.32,0a4.77,4.77,0,0,1,5.1,4c.59,2.34,1.16,4.7,1.75,7s1.21,4.8,1.85,7.33a40.82,40.82,0,0,0,4.23-4.69c.74-.88.67-1.46,0-2.39a10.82,10.82,0,0,1,6.29-17.17c.6-.15.81-.38.83-1A36.86,36.86,0,0,0,83.47,41a34.45,34.45,0,0,0-3.65-9.83l-.64.78c-4.35,5.54-8.72,11.08-13,16.64-.53.68-.75.62-1.25,0Q58.05,39.77,51.14,31a19,19,0,0,1-3.5-17.77c.19-.66.09-.79-.58-.76a36.37,36.37,0,0,0-13.07,3c-.44.19-.62.34-.42.89a10.85,10.85,0,0,1-1.73,10.84Q28,32.38,24.08,37.57c-.68.91-.68.91-1.36,0ZM18.71,61.8c0-3.79,0-7.4,0-11,0-.7-.18-.9-.89-.89q-5.34,0-10.67,0c-.73,0-1,.17-1,.93,0,6,0,12.09,0,18.13,0,3.74,0,7.49,0,11.23,0,.76.22,1,1,.93a22.25,22.25,0,0,1,2.45,0,1.12,1.12,0,0,0,1.18-.67,10.85,10.85,0,0,1,18.94,0,1.16,1.16,0,0,0,1.17.69q7.52,0,15,0c.7,0,.91-.19.91-.9q0-14.73,0-29.46c0-.75-.26-.88-.93-.87-3.52,0-7,0-10.57,0-.77,0-1,.17-1,1,0,3.27,0,6.54,0,9.82,0,.32,0,.65,0,1.08-2.4-1.19-4.68-2.3-6.94-3.47a1.58,1.58,0,0,0-1.65,0C23.44,59.47,21.15,60.58,18.71,61.8ZM81.1,19.34C81.15,8.42,71.24.86,61.25,3.72a15.8,15.8,0,0,0-7.89,25.06c3.84,5,7.78,9.9,11.64,14.87.48.61.68.44,1.06,0,3.9-5,7.82-9.94,11.71-14.93A15.07,15.07,0,0,0,81.1,19.34ZM49.9,78.11c.36-.3.56-.45.74-.61a10.69,10.69,0,0,1,15.68,1.74c1.12,1.58,2.22,2.13,4,1.86h.1c.7.09.94-.08.73-.88-.69-2.54-1.33-5.11-1.92-7.68a.85.85,0,0,0-1-.79c-2.9,0-5.79,0-8.69,0a3.14,3.14,0,0,1-3.34-3.3c0-.79,0-1.57,0-2.36,0-2.51,1.21-3.71,3.7-3.72,2,0,4,0,6,0,.23,0,.58.18.65-.28a2.41,2.41,0,0,0-2.42-2.8c-4.41,0-8.81,0-13.22,0-.88,0-1,.27-1,1.07,0,4,0,8,0,12.08ZM31.19,20.2c0-.26,0-.67-.08-1.07A7.8,7.8,0,0,0,16.91,16a7.74,7.74,0,0,0,.16,8.85C19,27.46,21,30.05,22.93,32.67c.35.48.53.56.92,0,1.92-2.61,3.88-5.19,5.81-7.79A7.74,7.74,0,0,0,31.19,20.2ZM85.88,53A7.58,7.58,0,0,0,79,57.1a7.28,7.28,0,0,0,.35,8c1.93,2.79,4,5.46,6.07,8.18.26.35.44.49.76.05,2.06-2.78,4.23-5.48,6.17-8.35a7.24,7.24,0,0,0,.3-7.88A7.56,7.56,0,0,0,85.88,53ZM57.73,93.58a7.79,7.79,0,1,0-7.82-7.8A7.81,7.81,0,0,0,57.73,93.58Zm-37.57,0a7.79,7.79,0,1,0-7.68-7.92A7.81,7.81,0,0,0,20.16,93.58Zm1.7-36.84c1.35-.68,2.55-1.22,3.7-1.86a1.67,1.67,0,0,1,1.89,0c1,.6,2.13,1.07,3.19,1.62.36.18.56.21.55-.31,0-1.88,0-3.77,0-5.65,0-.43-.11-.63-.58-.62h-8.2c-.4,0-.56.16-.56.56C21.86,52.49,21.86,54.53,21.86,56.74Zm17,30.61h6.32c1.58,0,1.58,0,1.59-1.62a2.63,2.63,0,0,1,0-.56c.15-.73-.1-1-.87-1-4.34,0-8.67,0-13,0-1.75,0-1.75,0-1.78,1.79a1.85,1.85,0,0,1,0,.47c-.17.76.21.88.87.87C34.32,87.33,36.62,87.35,38.91,87.35ZM63.75,68.62c1.26,0,2.52,0,3.78,0,.48,0,.7-.08.51-.63a14.8,14.8,0,0,1-.45-1.83c-.09-.5-.34-.65-.83-.64-1.73,0-3.46,0-5.2,0-2.37,0-2.35,0-2.28,2.4,0,.53.16.71.7.7C61.24,68.6,62.49,68.62,63.75,68.62ZM6.33,84.24H5.39c-2.39,0-2.38,0-2.28,2.41,0,.52.17.72.71.71,1.22,0,2.45,0,3.67,0,1.84,0,1.84,0,1.89-1.77a6.3,6.3,0,0,1,0-.75c.08-.46-.11-.61-.56-.59C8,84.26,7.18,84.24,6.33,84.24Zm62.28,1.54c0,1.57,0,1.57,1.63,1.57a8,8,0,0,1,.85,0c.54,0,.74-.2.68-.72,0-.25,0-.5,0-.75,0-1.65,0-1.65-1.6-1.65S68.61,84.24,68.61,85.78Z"/><path class="a" d="M39,43.66c-1.54,0-1.54,0-1.54-1.53s0-1.56,1.61-1.56,1.55,0,1.55,1.54S40.58,43.66,39,43.66Z"/><path class="a" d="M51.42,43.66c-1.52,0-1.52,0-1.52-1.55s0-1.54,1.54-1.54,1.61,0,1.61,1.65C53.05,43.66,53.05,43.66,51.42,43.66Z"/><path class="a" d="M45.3,43.66c-1.64,0-1.64,0-1.64-1.62,0-.25,0-.51,0-.76,0-.51.12-.78.67-.71h.19c2.32,0,2.29,0,2.31,2.2,0,.68-.15,1-.88.9A4.7,4.7,0,0,0,45.3,43.66Z"/><path class="a" d="M65.48,31.18A12.47,12.47,0,1,1,78,18.74,12.43,12.43,0,0,1,65.48,31.18Zm.08-21.8a9.35,9.35,0,1,0,9.29,9.41A9.37,9.37,0,0,0,65.56,9.38Z"/><path class="a" d="M23.43,15.62a4.66,4.66,0,1,1-4.71,4.63A4.68,4.68,0,0,1,23.43,15.62Zm1.51,4.69a1.56,1.56,0,0,0-1.53-1.59,1.56,1.56,0,0,0-.07,3.11A1.56,1.56,0,0,0,24.94,20.31Z"/><path class="a" d="M90.48,60.83a4.68,4.68,0,1,1-4.68-4.68A4.71,4.71,0,0,1,90.48,60.83Zm-3.15,0a1.51,1.51,0,0,0-1.56-1.53,1.54,1.54,0,0,0,0,3.07A1.51,1.51,0,0,0,87.33,60.83Z"/><path class="a" d="M62.37,85.79a4.66,4.66,0,1,1-4.66-4.68A4.65,4.65,0,0,1,62.37,85.79Zm-4.7,1.54a1.56,1.56,0,0,0,1.61-1.49,1.59,1.59,0,0,0-1.51-1.59,1.57,1.57,0,0,0-1.61,1.5A1.54,1.54,0,0,0,57.67,87.33Z"/><path class="a" d="M24.94,85.82a4.66,4.66,0,1,1-4.64-4.71A4.67,4.67,0,0,1,24.94,85.82Zm-4.63-1.57a1.54,1.54,0,1,0,0,3.08,1.54,1.54,0,0,0,1.54-1.48A1.56,1.56,0,0,0,20.31,84.25Z"/></svg>