<svg xmlns="http://www.w3.org/2000/svg" viewBox="0 0 259.64 56.82"><defs><style>.a{fill:#d9804f;}.b{fill:#d8804f;}</style></defs><path class="a" d="M117,41.13a8.82,8.82,0,0,1-3.57-3.08,11.17,11.17,0,0,1-1.71-4.86h5a5.2,5.2,0,0,0,.93,2.44,4.29,4.29,0,0,0,1.85,1.42,7,7,0,0,0,2.66.46,5.17,5.17,0,0,0,3.74-1.29,4.81,4.81,0,0,0,1.34-3.62V31.55a5.88,5.88,0,0,0-1.26-4,4.58,4.58,0,0,0-3.58-1.42H119.9V21.48h2.46a4.08,4.08,0,0,0,3.15-1.22,4.93,4.93,0,0,0,1.12-3.44V15.75a4.17,4.17,0,0,0-1.18-3.17,4.69,4.69,0,0,0-3.36-1.13,5.16,5.16,0,0,0-2.22.47,4.25,4.25,0,0,0-1.65,1.43,6.35,6.35,0,0,0-1,2.42h-4.94a12.35,12.35,0,0,1,1.8-4.86,8.73,8.73,0,0,1,3.35-3.08,10,10,0,0,1,4.65-1c3,0,5.31.78,6.95,2.36a8.78,8.78,0,0,1,2.45,6.66v.57a7.48,7.48,0,0,1-1.4,4.53,8,8,0,0,1-4,2.82,7,7,0,0,1,4.4,2.79,9.19,9.19,0,0,1,1.57,5.54v.57a10.69,10.69,0,0,1-1.17,5.18,7.74,7.74,0,0,1-3.4,3.27,13.21,13.21,0,0,1-10.51.06Z"/><path class="a" d="M142.73,39.59a10,10,0,0,1-2.52-7.26V16.56q0-4.68,2.53-7.27t7.37-2.58c3.25,0,5.71.85,7.39,2.57S160,13.43,160,16.56V32.33q0,4.68-2.52,7.27t-7.38,2.59C146.87,42.19,144.4,41.32,142.73,39.59Zm11.19-3.38a5.56,5.56,0,0,0,1.23-3.88V16.56a5.61,5.61,0,0,0-1.22-3.88,6.08,6.08,0,0,0-7.64,0,5.6,5.6,0,0,0-1.21,3.88V32.33a5.56,5.56,0,0,0,1.23,3.88,6,6,0,0,0,7.61,0Z"/><path class="a" d="M170,39.59a10,10,0,0,1-2.52-7.26V16.56q0-4.68,2.53-7.27c1.69-1.72,4.14-2.58,7.37-2.58s5.71.85,7.39,2.57,2.52,4.15,2.52,7.28V32.33a10,10,0,0,1-2.53,7.27q-2.53,2.59-7.38,2.59T170,39.59Zm11.19-3.38a5.56,5.56,0,0,0,1.23-3.88V16.56a5.61,5.61,0,0,0-1.22-3.88,6.07,6.07,0,0,0-7.63,0,5.56,5.56,0,0,0-1.22,3.88V32.33a5.56,5.56,0,0,0,1.23,3.88,6,6,0,0,0,7.61,0Z"/><path class="a" d="M197.19,39.59a10,10,0,0,1-2.52-7.26V16.56a10,10,0,0,1,2.53-7.27q2.53-2.58,7.37-2.58c3.25,0,5.71.85,7.39,2.57s2.52,4.15,2.52,7.28V32.33A10,10,0,0,1,212,39.6q-2.53,2.59-7.38,2.59T197.19,39.59Zm11.19-3.38a5.56,5.56,0,0,0,1.23-3.88V16.56a5.61,5.61,0,0,0-1.22-3.88,6.07,6.07,0,0,0-7.63,0,5.61,5.61,0,0,0-1.22,3.88V32.33a5.56,5.56,0,0,0,1.23,3.88,6,6,0,0,0,7.61,0Z"/><path class="a" d="M225.06,41.76a10.4,10.4,0,0,1-2.43-.83,10.64,10.64,0,0,1-2.11-1.38l1.76-2.16a8,8,0,0,0,2.53,1.49,8.92,8.92,0,0,0,3,.5,6,6,0,0,0,3.39-.81,2.6,2.6,0,0,0,1.2-2.29h0a2.45,2.45,0,0,0-.54-1.67,3.23,3.23,0,0,0-1.42-.91,14.49,14.49,0,0,0-2.23-.55l-.09,0H228l-.21,0a21.73,21.73,0,0,1-3.29-.78,4.63,4.63,0,0,1-2.16-1.59,5.26,5.26,0,0,1-.9-3.29h0a5.81,5.81,0,0,1,.84-3.19,5.22,5.22,0,0,1,2.44-2,9.76,9.76,0,0,1,3.86-.69,9.38,9.38,0,0,1,2.12.24,10.07,10.07,0,0,1,2.07.69,12.52,12.52,0,0,1,2,1.17l-1.61,2.25a9,9,0,0,0-2.29-1.27,6.57,6.57,0,0,0-2.29-.42,5.39,5.39,0,0,0-3.2.82,2.72,2.72,0,0,0-1.15,2.33v0a2.23,2.23,0,0,0,.59,1.63,3.51,3.51,0,0,0,1.47.88,23.93,23.93,0,0,0,2.44.59l.11,0,.1,0,.15,0,.15,0a17,17,0,0,1,3.06.89,4.72,4.72,0,0,1,2,1.65,5.23,5.23,0,0,1,.83,3.12v0a5.55,5.55,0,0,1-.87,3.15,5.47,5.47,0,0,1-2.53,2,10.33,10.33,0,0,1-4,.69A12.91,12.91,0,0,1,225.06,41.76Z"/><path class="a" d="M239.65,21.69h2.83V41.83h-2.83Zm1.23,8.94h6.87a2.69,2.69,0,0,0,1.42-.38,2.6,2.6,0,0,0,1-1.1,3.91,3.91,0,0,0,.34-1.64,3.84,3.84,0,0,0-.34-1.64,2.53,2.53,0,0,0-1-1.1,2.62,2.62,0,0,0-1.43-.39h-6.87V21.69h6.76a6.29,6.29,0,0,1,3.06.72,5,5,0,0,1,2.05,2.05,6.7,6.7,0,0,1,0,6.1,5,5,0,0,1-2.05,2,6.28,6.28,0,0,1-3.05.72h-6.76Zm5.48,2.07,2.81-.64,5.15,9.77H251Z"/><path class="b" d="M76.43,19.63h-3v-8.5a2,2,0,0,1,.61.14,1,1,0,0,1,.38.26,1.1,1.1,0,0,1,.31.45,1.41,1.41,0,0,1,.11.54v5.76h1.57Z"/><path class="b" d="M79,14.77a1.3,1.3,0,0,1,.36-1,1.52,1.52,0,0,1,.43-.28,2.74,2.74,0,0,1,.69-.15v3.15a3.21,3.21,0,0,1-.24,1.23,3.05,3.05,0,0,1-2.92,1.87H75.8V18.28h1.5a1.53,1.53,0,0,0,.62-.13,2.23,2.23,0,0,0,.56-.36,3,3,0,0,0,.38-.61,1.75,1.75,0,0,0,.12-.65Zm-2.37,6.84a1,1,0,0,1,.26-.69.79.79,0,0,1,.61-.27.87.87,0,0,1,.66.27.93.93,0,0,1,.26.69.82.82,0,0,1-.26.62.87.87,0,0,1-.66.27.79.79,0,0,1-.61-.27A.85.85,0,0,1,76.61,21.61Zm2,0a1,1,0,0,1,.24-.69.8.8,0,0,1,.63-.27.93.93,0,0,1,.68.27.94.94,0,0,1,.28.69.84.84,0,0,1-.28.62.93.93,0,0,1-.68.27.8.8,0,0,1-.63-.27A.88.88,0,0,1,78.66,21.61Z"/><path class="b" d="M88.74,19.63H87a3.32,3.32,0,0,1-1.23-.22,2.5,2.5,0,0,1-1-.66,2.94,2.94,0,0,1-.71-1,3.09,3.09,0,0,1-.24-1.22,3.36,3.36,0,0,1,.22-1.22,3.07,3.07,0,0,1,.69-1,3.18,3.18,0,0,1,1-.65A3.32,3.32,0,0,1,87,13.39a3.09,3.09,0,0,1,1.2.23,3.69,3.69,0,0,1,1,.65,2.86,2.86,0,0,1,.72,1,3.24,3.24,0,0,1,.22,1.23v1.77h1v1.35h-1v2.21a2.2,2.2,0,0,1-.6-.14,1.53,1.53,0,0,1-.46-.3,1.34,1.34,0,0,1-.38-1Zm0-1.35V16.51a1.53,1.53,0,0,0-.13-.66,2.27,2.27,0,0,0-.37-.56h0A1.67,1.67,0,0,0,87,14.76a1.51,1.51,0,0,0-.62.14,1.89,1.89,0,0,0-.56.39,1.91,1.91,0,0,0-.4.57,1.66,1.66,0,0,0,0,1.31,1.93,1.93,0,0,0,.39.57,2.26,2.26,0,0,0,.57.4,1.52,1.52,0,0,0,.63.14Z"/><path class="b" d="M90.91,18.28h1.82V14.55a1.15,1.15,0,0,1,.1-.5,1.82,1.82,0,0,1,.27-.41,1.94,1.94,0,0,1,.42-.32,1.46,1.46,0,0,1,.62-.14v5.1h1.42v1.35H90.91Zm1.68-6.65a.84.84,0,0,1,.26-.64,1,1,0,0,1,.66-.23.93.93,0,0,1,.64.23.86.86,0,0,1,.24.64.92.92,0,0,1-.24.66.84.84,0,0,1-.64.27.87.87,0,0,1-.66-.27A.9.9,0,0,1,92.59,11.63Z"/><path class="b" d="M99.7,15.87a1.22,1.22,0,0,1,.11-.5,1.51,1.51,0,0,1,.27-.42.92.92,0,0,1,.4-.29,2.35,2.35,0,0,1,.63-.12v3.74h1.1c0-.07,0-.14,0-.2s0-.13,0-.19V14.76a1.28,1.28,0,0,1,.38-.95,1.36,1.36,0,0,1,.4-.29,1.59,1.59,0,0,1,.63-.12v5.9a.09.09,0,0,1,0,.05v.28H95.15V18.28H97v-1a1.34,1.34,0,0,1,.11-.51,1.28,1.28,0,0,1,.32-.44,1.72,1.72,0,0,1,.46-.28,3,3,0,0,1,.58-.15v2.39h1.26Z"/><path class="b" d="M7.76,39.85H9.45V41.2H4.6A3.24,3.24,0,0,1,3.35,41a3.19,3.19,0,0,1-1-.63,2.87,2.87,0,0,1-.69-1,3.6,3.6,0,0,1,0-2.45,2.83,2.83,0,0,1,.67-1A3.19,3.19,0,0,1,4.6,35a3.23,3.23,0,0,1,1.22.23,3,3,0,0,1,1,.65,3.17,3.17,0,0,1,.72,1,3,3,0,0,1,.24,1.22ZM2.6,33.2a.87.87,0,0,1,.25-.64.91.91,0,0,1,.62-.23,1.07,1.07,0,0,1,.7.23.84.84,0,0,1,.26.64.9.9,0,0,1-.26.66,1,1,0,0,1-.7.27.83.83,0,0,1-.62-.27A.93.93,0,0,1,2.6,33.2Zm3.66,6.65V38.09a1.63,1.63,0,0,0-.5-1.19,1.66,1.66,0,0,0-1.17-.56,1.67,1.67,0,0,0-.67.14,1.85,1.85,0,0,0-.58.39,2.88,2.88,0,0,0-.34.56,1.45,1.45,0,0,0-.15.66,1.58,1.58,0,0,0,.14.65,2.77,2.77,0,0,0,.36.58v0a1.69,1.69,0,0,0,1.24.55ZM4.64,33.2a.84.84,0,0,1,.26-.64,1,1,0,0,1,.65-.23.94.94,0,0,1,.65.23.86.86,0,0,1,.24.64.92.92,0,0,1-.24.66.85.85,0,0,1-.65.27.86.86,0,0,1-.65-.27A.9.9,0,0,1,4.64,33.2Z"/><path class="b" d="M16.62,41.2H9V39.85h1.81a3.18,3.18,0,0,1-.43-.87,3.56,3.56,0,0,1-.11-.89,3,3,0,0,1,.94-2.23,3.58,3.58,0,0,1,1-.65A3.09,3.09,0,0,1,13.47,35a3.14,3.14,0,0,1,1.23.24,2.73,2.73,0,0,1,1,.66h0a3,3,0,0,1,.94,2.22Zm-1.45-1.35V38.08a1.68,1.68,0,0,0-.12-.63,2.38,2.38,0,0,0-.35-.56,2.75,2.75,0,0,0-.59-.39,1.49,1.49,0,0,0-.64-.17,1.66,1.66,0,0,0-.66.14,2.23,2.23,0,0,0-.58.4,2.88,2.88,0,0,0-.34.56,1.75,1.75,0,0,0-.13.65,1.63,1.63,0,0,0,.15.67,3.88,3.88,0,0,0,.34.6,2.3,2.3,0,0,0,.58.37,1.59,1.59,0,0,0,.64.13Zm-2.68-6.62a.87.87,0,0,1,.25-.65,1,1,0,0,1,.67-.24.85.85,0,0,1,.61.24.87.87,0,0,1,.26.65.89.89,0,0,1-.26.65.83.83,0,0,1-.61.26.94.94,0,0,1-.67-.26A.88.88,0,0,1,12.49,33.23Z"/><path class="b" d="M21.68,41.2h-3V32.7a1.89,1.89,0,0,1,.6.14,1.28,1.28,0,0,1,.7.7,1.49,1.49,0,0,1,.1.55v5.76h1.57Z"/><path class="b" d="M20.72,39.85h1.54V34.92a1.75,1.75,0,0,1,.56.18,2,2,0,0,1,.47.33,1.42,1.42,0,0,1,.32.42,1,1,0,0,1,.1.48v3.52h1.15V38.06a2.71,2.71,0,0,1,.24-1.18,3.25,3.25,0,0,1,.7-1,3.36,3.36,0,0,1,1-.69A2.75,2.75,0,0,1,28,35h5.31v3.6a5.72,5.72,0,0,1-.17.59,3.55,3.55,0,0,1-.32.69H34.6V41.2H20.72Zm5.57,0h3.92a1.17,1.17,0,0,0,.55-.1,1.66,1.66,0,0,0,.49-.3,2,2,0,0,0,.38-.44,1.87,1.87,0,0,0,.24-.52V36.34H28a1.56,1.56,0,0,0-.68.13,2,2,0,0,0-.55.39,1.92,1.92,0,0,0-.36.56,1.43,1.43,0,0,0-.12.64Zm1.85-6.62a.9.9,0,0,1,.24-.65.85.85,0,0,1,.63-.24,1,1,0,0,1,.68.24.85.85,0,0,1,.28.65.87.87,0,0,1-.28.65,1,1,0,0,1-.68.26.83.83,0,0,1-.63-.26A.92.92,0,0,1,28.14,33.23Z"/><path class="b" d="M35.2,39.85V38.09a3.13,3.13,0,0,1,.89-2.24,3.89,3.89,0,0,1,1-.65A3.22,3.22,0,0,1,38.35,35a2.92,2.92,0,0,1,1.2.24,4.22,4.22,0,0,1,1.05.65,4.14,4.14,0,0,1,.66,1,3,3,0,0,1,.25,1.21,3.23,3.23,0,0,1-.13.88,3.89,3.89,0,0,1-.42.88H42.7V41.2H34.16V39.85Zm1.4,0h1.75a1.38,1.38,0,0,0,.63-.14,1.89,1.89,0,0,0,.54-.36,3.6,3.6,0,0,0,.39-.62,1.46,1.46,0,0,0,0-1.29,2.37,2.37,0,0,0-.41-.58,1.55,1.55,0,0,0-.52-.4,1.6,1.6,0,0,0-.65-.12,1.52,1.52,0,0,0-.64.12,1.58,1.58,0,0,0-.53.4,2.58,2.58,0,0,0-.41.57,1.35,1.35,0,0,0-.17.66Z"/><path class="b" d="M42.23,39.85h1.91V34.09a1.38,1.38,0,0,1,.39-1v0a.94.94,0,0,1,.37-.26,2,2,0,0,1,.64-.13V41.2H42.23Z"/><path class="b" d="M48.87,41.2a2.31,2.31,0,0,1-.65-.11,1.11,1.11,0,0,1-.44-.25,1.54,1.54,0,0,1-.28-.42,1.27,1.27,0,0,1-.1-.54V32.72a2.74,2.74,0,0,1,.65.11,1.11,1.11,0,0,1,.44.25,1.41,1.41,0,0,1,.38,1Z"/><path class="b" d="M60.82,39.85h1.69V41.2H57.66A3.24,3.24,0,0,1,56.41,41a3.19,3.19,0,0,1-1-.63,2.84,2.84,0,0,1-.68-1,3.52,3.52,0,0,1,0-2.45,2.83,2.83,0,0,1,.67-1,3.42,3.42,0,0,1,1-.65A3.31,3.31,0,0,1,57.66,35a3.19,3.19,0,0,1,1.22.23,3.09,3.09,0,0,1,1,.65,3.3,3.3,0,0,1,.71,1,3,3,0,0,1,.24,1.22ZM55.66,33.2a.84.84,0,0,1,.26-.64.87.87,0,0,1,.61-.23,1.05,1.05,0,0,1,.7.23.81.81,0,0,1,.27.64.87.87,0,0,1-.27.66.94.94,0,0,1-.7.27.79.79,0,0,1-.61-.27A.9.9,0,0,1,55.66,33.2Zm3.66,6.65V38.09a1.63,1.63,0,0,0-.5-1.19,1.66,1.66,0,0,0-1.17-.56,1.67,1.67,0,0,0-.67.14,1.85,1.85,0,0,0-.58.39,2.88,2.88,0,0,0-.34.56,1.45,1.45,0,0,0-.14.66,1.57,1.57,0,0,0,.13.65,2.77,2.77,0,0,0,.36.58v0a1.69,1.69,0,0,0,1.24.55ZM57.7,33.2a.84.84,0,0,1,.26-.64,1,1,0,0,1,.65-.23.94.94,0,0,1,.65.23.86.86,0,0,1,.24.64.92.92,0,0,1-.24.66.85.85,0,0,1-.65.27.86.86,0,0,1-.65-.27A.9.9,0,0,1,57.7,33.2Z"/><path class="b" d="M63.24,39.85V38.09a3.18,3.18,0,0,1,.89-2.24,3.79,3.79,0,0,1,1.06-.65,3.17,3.17,0,0,1,1.2-.23,2.92,2.92,0,0,1,1.2.24,3.89,3.89,0,0,1,1,.65,4.18,4.18,0,0,1,.67,1,3,3,0,0,1,.24,1.21,2.89,2.89,0,0,1-.13.88,3.89,3.89,0,0,1-.42.88h1.75V41.2H62.2V39.85Zm1.41,0h1.74a1.45,1.45,0,0,0,.64-.14,2.21,2.21,0,0,0,.54-.36,4.28,4.28,0,0,0,.38-.62,1.46,1.46,0,0,0,0-1.29,2.32,2.32,0,0,0-.4-.58,1.65,1.65,0,0,0-.52-.4,1.62,1.62,0,0,0-.66-.12,1.4,1.4,0,0,0-1.16.52,2.33,2.33,0,0,0-.42.57,1.34,1.34,0,0,0-.16.66Z"/><path class="b" d="M70.42,39.85h1.77V36.12a1,1,0,0,1,.11-.5,2.08,2.08,0,0,1,.27-.41A1.58,1.58,0,0,1,73,34.9a1.76,1.76,0,0,1,.62-.15v5.1h1.82V41.2h-5ZM71,43.18a.93.93,0,0,1,.26-.69.88.88,0,0,1,.66-.27.83.83,0,0,1,.62.27,1,1,0,0,1,.26.69.85.85,0,0,1-.26.62.83.83,0,0,1-.62.27.88.88,0,0,1-.66-.27A.82.82,0,0,1,71,43.18Zm2.05,0a.93.93,0,0,1,.26-.69.81.81,0,0,1,.62-.27.86.86,0,0,1,.65.27.93.93,0,0,1,.27.69.83.83,0,0,1-.27.62.86.86,0,0,1-.65.27.91.91,0,0,1-.88-.89Z"/><path class="b" d="M75.18,41.2V39.85h1.44a3.24,3.24,0,0,1-.44-.87,3.14,3.14,0,0,1-.12-.89,3.23,3.23,0,0,1,.23-1.22,3.67,3.67,0,0,1,.66-1,4.15,4.15,0,0,1,1-.65A3.23,3.23,0,0,1,79.22,35a3.15,3.15,0,0,1,1.19.23,4.15,4.15,0,0,1,1,.65,4.24,4.24,0,0,1,.66,1,3.08,3.08,0,0,1,.25,1.21v1.76h.92V41.2Zm2.12-8a.84.84,0,0,1,.26-.64,1,1,0,0,1,.66-.23.91.91,0,0,1,.62.23.81.81,0,0,1,.27.64.87.87,0,0,1-.27.66.83.83,0,0,1-.62.27.91.91,0,0,1-.92-.93Zm3.64,6.65V38.08a1.45,1.45,0,0,0-.15-.66,2.29,2.29,0,0,0-.41-.57,1.58,1.58,0,0,0-1.16-.52,1.62,1.62,0,0,0-1.18.52,2.58,2.58,0,0,0-.41.57,1.46,1.46,0,0,0-.16.66,1.44,1.44,0,0,0,.15.65,2.69,2.69,0,0,0,.42.59v0a2,2,0,0,0,.55.41,1.33,1.33,0,0,0,.63.14ZM79.35,33.2a.8.8,0,0,1,.26-.64.91.91,0,0,1,.62-.23,1,1,0,0,1,.66.23.81.81,0,0,1,.27.64.87.87,0,0,1-.27.66.9.9,0,0,1-.66.27.83.83,0,0,1-.62-.27A.86.86,0,0,1,79.35,33.2Z"/><path class="b" d="M82.88,39.85h1.91V34.09a1.35,1.35,0,0,1,.4-1v0a.91.91,0,0,1,.36-.26,2,2,0,0,1,.64-.13V41.2H82.88Z"/><path class="b" d="M89.52,41.2a2.31,2.31,0,0,1-.65-.11,1.11,1.11,0,0,1-.44-.25,1.32,1.32,0,0,1-.27-.42,1.27,1.27,0,0,1-.11-.54V32.72a2.74,2.74,0,0,1,.65.11,1.11,1.11,0,0,1,.44.25,1.41,1.41,0,0,1,.38,1Z"/><path class="b" d="M103.46,36.3H100v3.52H98.91V36.3H95.4v-1h3.51V31.69H100v3.58h3.47Z"/></svg>