<svg xmlns="http://www.w3.org/2000/svg" viewBox="0 0 90.51 90.53"><defs><style>.a{fill:#d9804f;}</style></defs><path class="a" d="M15.17,45.28H2.07C.47,45.28,0,44.81,0,43.2V32.08a7.55,7.55,0,0,1,8-7.91c.69,0,1.38,0,2.07,0,.41,0,.55-.14.54-.54q0-1.32,0-2.64a.72.72,0,0,0-.48-.71,7.5,7.5,0,0,1-4-7.22c.06-2.29-.24-4.6.16-6.87A7.4,7.4,0,0,1,13.4.05,22.11,22.11,0,0,1,18,.19a7.46,7.46,0,0,1,6.12,7.23c0,2,0,4.09,0,6.13a7.39,7.39,0,0,1-3.91,6.64,1,1,0,0,0-.62,1,17,17,0,0,1,0,2.26c-.05.61.2.72.75.72a18.94,18.94,0,0,1,3.76.14,7.46,7.46,0,0,1,6,7c.08,4.08,0,8.16,0,12.25,0,1.13-.6,1.68-1.8,1.68Zm-.06-3H26.32c.43,0,.85.12.85-.61,0-3.39,0-6.79-.05-10.18a4.31,4.31,0,0,0-2.59-3.86c-.6-.31-.92-.26-1.14.46-.69,2.22-1.44,4.41-2.18,6.61-.43,1.3-.77,1.55-2.1,1.55-2.7,0-5.4,0-8.1,0-1.24,0-1.62-.26-2-1.42-.75-2.23-1.53-4.45-2.22-6.7-.24-.79-.58-.8-1.2-.48A4.49,4.49,0,0,0,3,31.81c0,3.2,0,6.4,0,9.6,0,.74.22.88.9.87C7.64,42.25,11.37,42.27,15.11,42.27Zm-.33-24.14c.82,0,1.42,0,2,0a4.54,4.54,0,0,0,4.31-4.3c0-.5,0-1,0-1.51,0-1.72,0-1.74-1.71-1.71-1.12,0-2.21.05-2.95-1-.2-.3-.46-.24-.75-.13a12.87,12.87,0,0,1-6.12,1.13c-.4-.05-.56.12-.54.53,0,.88,0,1.76,0,2.64A4.53,4.53,0,0,0,12.48,18,10.61,10.61,0,0,0,14.78,18.13Zm.39,9.05c-1.6,0-3.21,0-4.81,0-.56,0-.71.13-.51.68q.84,2.4,1.61,4.81a.69.69,0,0,0,.81.56c1.88,0,3.77,0,5.65,0a.69.69,0,0,0,.8-.58c.5-1.58,1-3.16,1.58-4.72.19-.55.16-.77-.52-.75C18.24,27.22,16.7,27.18,15.17,27.18Zm.22-24.12c-.85,0-1.45,0-2,0A4.59,4.59,0,0,0,9.09,6.91c-.06.45,0,.69.54.68a9.27,9.27,0,0,0,3.69-.5c.86-.38,1.78-.59,2.67-.91a1.41,1.41,0,0,1,1.71.39,2.87,2.87,0,0,0,2.82,1c.53,0,.65-.19.56-.66a4.55,4.55,0,0,0-3.23-3.69A8.38,8.38,0,0,0,15.39,3.06Zm1.2,19.58c0-1.49,0-1.49-1.08-1.49-1.93,0-1.93,0-1.93,1.2,0,1.82,0,1.82,1.22,1.82C16.59,24.17,16.59,24.17,16.59,22.64Z"/><path class="a" d="M75.34,90.53h-13c-1.49,0-2-.5-2-2,0-3.83,0-7.66,0-11.5A7.51,7.51,0,0,1,68,69.42c.72,0,1.45,0,2.17,0s.84-.22.75-.81a.54.54,0,0,1,0-.18,3.44,3.44,0,0,0-1.73-3.84A6.39,6.39,0,0,1,66.38,59c0-2.11,0-4.21,0-6.32a7.49,7.49,0,0,1,7.41-7.38,21.94,21.94,0,0,1,4.51.13,7.42,7.42,0,0,1,6.14,7.21,47.18,47.18,0,0,1-.13,7.52,7,7,0,0,1-3.73,5.26,1,1,0,0,0-.65,1.09,15.89,15.89,0,0,1,0,2.07c-.05.64.13.87.81.85a16.72,16.72,0,0,1,3.67.14,7.43,7.43,0,0,1,6.06,7.08c.07,4.06,0,8.11,0,12.16,0,1.18-.6,1.72-1.86,1.72Zm.12-3H86.67c.44,0,.84.08.83-.63,0-3.36,0-6.72,0-10.08a4.36,4.36,0,0,0-2.7-4c-.55-.27-.81-.19-1,.44C83,75.52,82.26,77.78,81.5,80c-.39,1.18-.76,1.45-2,1.45h-8.2c-1.23,0-1.6-.27-2-1.44-.76-2.26-1.53-4.51-2.25-6.78-.19-.62-.44-.73-1-.45A4.43,4.43,0,0,0,63.36,77c0,3.23,0,6.47,0,9.7,0,.76.27.85.92.85C68,87.5,71.72,87.51,75.46,87.51Zm-.28-24.13h1.75a4.52,4.52,0,0,0,4.45-3.83,11.86,11.86,0,0,0,.07-1.79c0-1.92,0-1.95-1.88-1.91a2.88,2.88,0,0,1-2.77-1c-.27-.39-.61-.2-.92-.08A12.28,12.28,0,0,1,70,55.84c-.47-.06-.68.1-.66.61,0,.88,0,1.76,0,2.64a4.53,4.53,0,0,0,3.3,4.12A10.32,10.32,0,0,0,75.18,63.38ZM70,72.43c.65,2,1.27,3.83,1.88,5.69.12.37.4.34.68.34h5.75c.28,0,.56,0,.68-.34.61-1.87,1.23-3.73,1.88-5.69H70Zm5.74-24.12c-.86,0-1.46,0-2,0a4.59,4.59,0,0,0-4.25,3.86c-.07.47,0,.67.55.67a9.11,9.11,0,0,0,3.69-.51c.86-.38,1.78-.59,2.67-.9a1.39,1.39,0,0,1,1.71.4c.73,1,1.73,1,2.82,1,.55,0,.64-.22.54-.68a4.54,4.54,0,0,0-3.23-3.68A8.3,8.3,0,0,0,75.72,48.31ZM75.38,66.4c-1.47,0-1.47,0-1.47,1.38,0,1.63,0,1.63,1.59,1.63,1.42,0,1.42,0,1.42-1.43C76.92,66.4,76.92,66.4,75.38,66.4Z"/><path class="a" d="M70.89,27.18c-5,0-10,0-15.08,0a4.44,4.44,0,0,1-4.23-3A4.09,4.09,0,0,1,53,19.26c1.29-.8,1.36-1.75,1.35-3,0-3.77,0-7.54,0-11.31,0-3.06,1.87-4.91,5-4.91Q70.89,0,82.52,0c3.12,0,5,1.85,5,5,0,4.17,0,8.35,0,12.53a1.11,1.11,0,0,0,.66,1.16A4.5,4.5,0,0,1,86,27.17C81,27.2,75.92,27.18,70.89,27.18Zm0-24.13H59.19c-1.35,0-1.87.53-1.87,1.89,0,4.12,0,8.23,0,12.34,0,.73.21.88.89.87,3.11,0,6.22,0,9.33,0,.67,0,1.37.09,1.6.74s.76.83,1.41.78c.47,0,1,0,1.42,0,.22,0,.4,0,.48-.3.29-1.06,1.1-1.22,2.06-1.22,3,0,6,0,9,0,.7,0,1-.13,1-.91,0-4,0-8.1,0-12.15,0-1.55-.48-2-2-2Zm0,21.12h14.7c1.19,0,1.88-.56,1.88-1.5s-.69-1.51-1.87-1.51c-3.12,0-6.23,0-9.34,0-.49,0-.85,0-1,.64a1.4,1.4,0,0,1-1.51.88c-1.89,0-3.77,0-5.66,0a1.53,1.53,0,0,1-1.6-1.05c-.11-.3-.2-.47-.57-.47-3.39,0-6.79,0-10.18,0a1.44,1.44,0,0,0-1.4,1.49,1.5,1.5,0,0,0,1.41,1.49,7.85,7.85,0,0,0,.84,0Z"/><path class="a" d="M19.51,90.53c-5,0-10,0-15,0a4.48,4.48,0,0,1-4.24-3,4.1,4.1,0,0,1,1.4-4.89C3,81.8,3.05,80.85,3,79.6c0-3.77,0-7.54,0-11.31C3,65.24,4.89,63.38,8,63.38H31.25c3.11,0,5,1.86,5,5,0,4.17,0,8.35,0,12.53a1.1,1.1,0,0,0,.66,1.16,4.5,4.5,0,0,1-2.16,8.44C29.63,90.54,24.57,90.53,19.51,90.53ZM6,74.36c0,2.07,0,4.15,0,6.22,0,.76.21.93.94.92,3.1,0,6.21,0,9.32,0,.64,0,1.35.08,1.52.69.28,1,.91.84,1.59.82h1.22c.26,0,.46,0,.56-.34.27-1,1-1.19,1.89-1.18,3.08,0,6.16,0,9.23,0,.67,0,.92-.1.91-.85,0-4.11,0-8.23,0-12.34,0-1.36-.52-1.9-1.86-1.9q-11.73,0-23.45,0C6.58,66.4,6,66.94,6,68.24,6,70.28,6,72.32,6,74.36Zm13.5,13.15H34.33c1.18,0,1.88-.59,1.86-1.53s-.69-1.48-1.8-1.48c-3.18,0-6.35,0-9.52,0-.46,0-.72.08-.88.57a1.48,1.48,0,0,1-1.58,1c-1.85,0-3.7,0-5.56,0a1.55,1.55,0,0,1-1.68-1.08c-.11-.31-.23-.44-.58-.44-3.36,0-6.72,0-10.09,0A1.45,1.45,0,0,0,3,86a1.51,1.51,0,0,0,1.52,1.48h15Z"/><path class="a" d="M50.55,14.05a31.72,31.72,0,0,0-11,.09,30.43,30.43,0,0,0-10.8,4.17c-.6.38-.85.31-1.21-.28-1.19-1.88-1.22-1.88.7-3A34.63,34.63,0,0,1,50.62,11c.68.1,1,.31.79,1.07a8,8,0,0,0-.29,1.47C51.07,14,50.92,14.19,50.55,14.05Z"/><path class="a" d="M45.22,80a39.25,39.25,0,0,1-5.52-.44c-.62-.08-.78-.35-.63-.93s.09-1.55.5-1.95,1.29,0,2,.1A31.6,31.6,0,0,0,56,75.07c.67-.24.91-.1,1.15.54.77,2,.79,2-1.34,2.72A34.35,34.35,0,0,1,45.22,80Z"/><path class="a" d="M79.76,41.76c0,.65-.67.52-1,.44-.68-.16-1.82.82-2-.32a34.62,34.62,0,0,0-3.09-10.5c-.18-.36-.15-.56.22-.73,2.79-1.27,2-1.76,3.24,1.08a32.93,32.93,0,0,1,2.55,9.5C79.72,41.36,79.73,41.48,79.76,41.76Z"/><path class="a" d="M13.1,48.24c.48-.14.63,0,.68.5a30.73,30.73,0,0,0,3,10.43c.21.41.12.6-.27.79-2.68,1.22-1.92,1.68-3.14-1a34.26,34.26,0,0,1-2.59-9.49c-.12-.84.11-1.15.93-1.13C12.19,48.33,12.66,48.27,13.1,48.24Z"/><path class="a" d="M66.37,10.66c0,1.44,0,1.44-1.42,1.44-1.6,0-1.6,0-1.6-1.62a2.41,2.41,0,0,0,0-.38c-.14-.8.13-1.18,1-1a2.46,2.46,0,0,0,.47,0C66.37,9.08,66.37,9.08,66.37,10.66Z"/><path class="a" d="M72.4,10.63c0,1.47,0,1.47-1.75,1.47-1.27,0-1.27,0-1.27-1.87,0-1.15,0-1.15,1.9-1.15C72.4,9.08,72.4,9.08,72.4,10.63Z"/><path class="a" d="M76.83,12.1c-1.42,0-1.42,0-1.42-1.43,0-1.59,0-1.59,1.56-1.59s1.46,0,1.46,1.48S78.43,12.1,76.83,12.1Z"/><path class="a" d="M15.08,73.91c0,1.54,0,1.54-1.78,1.54-1.23,0-1.23,0-1.23-1.81,0-1.21,0-1.21,1.92-1.21C15.08,72.43,15.08,72.43,15.08,73.91Z"/><path class="a" d="M19.64,75.45c-1.54,0-1.54,0-1.54-1.79,0-1.23,0-1.23,1.81-1.23,1.21,0,1.21,0,1.21,1.92C21.12,75.45,21.12,75.45,19.64,75.45Z"/><path class="a" d="M25.63,72.43c1.52,0,1.52,0,1.52,1.81,0,1.21,0,1.21-1.83,1.21-1.19,0-1.19,0-1.19-1.86C24.14,72.43,24.14,72.43,25.63,72.43Z"/></svg>