<svg xmlns="http://www.w3.org/2000/svg" viewBox="0 0 1205 654.97"><defs><style>.a{fill:#d8804f;}.b{fill:#fff;}</style></defs><rect class="a" width="1205" height="654.97"/><path class="b" d="M1125.63,544.1c1.84,1,2.45,2.08,2.14,3.57a3,3,0,1,1-4.32-3.21l.66-.36Z"/><path class="b" d="M1144.45,544.1l.66.36a2.95,2.95,0,0,1-1.39,5.56,2.95,2.95,0,0,1-1.43-5.55l.64-.37Z"/><path class="b" d="M1124.11,598.87a3.7,3.7,0,0,1-2-1.87,3,3,0,0,1,1.57-3.81,3,3,0,0,1,3.85,1.31,3,3,0,0,1-1.13,4l-.73.41Z"/><path class="b" d="M1142.93,598.87c-1.37-.67-2.36-1.62-2.19-3.29a3,3,0,1,1,4.28,3l-.57.31Z"/><path class="b" d="M1103,562.55a3.33,3.33,0,0,1,2.85-2.15,3,3,0,0,1,1.25,5.71,3,3,0,0,1-3.7-1.3c-.14-.24-.27-.49-.4-.74Z"/><path class="b" d="M1165.56,564.07c-.94,1.78-2.1,2.5-3.55,2.19a2.94,2.94,0,0,1-2.42-2.78,3,3,0,0,1,2.08-3,3,3,0,0,1,3.52,1.41c.12.21.12.49.37.63Z"/><path class="b" d="M1106.8,544.1a4.13,4.13,0,0,0,.38.25,3,3,0,0,1-.71,5.65,3,3,0,0,1-3.24-1.77l-.23-.51v-1.33a3.8,3.8,0,0,1,2.28-2.29Z"/><path class="b" d="M1165.56,547.72a3.14,3.14,0,0,1-2.71,2.29,3,3,0,0,1-1.64-5.58c.18-.1.45-.08.55-.33h1.52a3.83,3.83,0,0,1,2.28,2.29Z"/><path class="b" d="M1103,578.9c.94-1.78,2.1-2.5,3.55-2.19a3,3,0,0,1,2.42,2.79,3,3,0,0,1-2.08,3,3,3,0,0,1-3.52-1.4c-.12-.21-.12-.5-.37-.64Z"/><path class="b" d="M1165.56,580.42c-.62,1.15-1.39,2.11-2.85,2.15a3,3,0,0,1-3.06-2.32,3,3,0,0,1,5.51-2.09c.14.24.27.49.4.74Z"/><path class="b" d="M1103,595.25a3.14,3.14,0,0,1,2.71-2.29,3,3,0,0,1,1.64,5.58c-.18.1-.45.09-.55.33h-1.52a3.84,3.84,0,0,1-2.28-2.28Z"/><path class="b" d="M1161.76,598.87a4,4,0,0,0-.38-.24,3,3,0,0,1,.71-5.66,3,3,0,0,1,3.24,1.78c.08.16.15.34.23.5v1.34a3.84,3.84,0,0,1-2.28,2.28Z"/><path class="b" d="M1127.85,563.39a3,3,0,1,1-6-.13,3,3,0,0,1,6,.13Z"/><path class="b" d="M1143.75,560.4a3,3,0,0,1,3,3,3,3,0,1,1-6-.09A3,3,0,0,1,1143.75,560.4Z"/><path class="b" d="M1124.9,582.57a3,3,0,0,1-3.05-2.88,3,3,0,0,1,6-.09A3,3,0,0,1,1124.9,582.57Z"/><path class="b" d="M1143.7,582.57a3,3,0,0,1-3-2.93,3,3,0,0,1,6,0A3,3,0,0,1,1143.7,582.57Z"/><path class="b" d="M335,90.47c-3.42-5-26.23-38-26.93-39.16l47.58-4.54C353.62,51.29,334.7,90.75,335,90.47Zm-18-34.9,17.47,24.88,12.86-27.79Z"/><path class="b" d="M68.85,603.37c2.07-5.71,15.49-43.52,16-44.75l31.51,35.94C111.49,595.53,68.42,603.25,68.85,603.37Zm17.8-35c-3.37,9.72-6.54,18.84-10,28.72l30.05-5.82Z"/></svg>