<svg xmlns="http://www.w3.org/2000/svg" viewBox="0 0 1202.55 658.61"><defs><style>.a{fill:#e5e5e5;}.b{fill:#cecece;}.c{fill:#fff;}.d{fill:#d9804f;}</style></defs><rect class="a" width="1202.55" height="658.61"/><path class="b" d="M0,0,186.59.07c4.94,0,9.89-.1,14.83,0a51.78,51.78,0,0,1,6.21.88c-1.57,9.35-4.06,18.18-4.38,27.09-1.2,33.64,8.89,62.78,36.38,84.06,9,7,18.74,12.94,27.9,19.7,22,16.25,38.31,36.83,46.59,63.18a96.31,96.31,0,0,1,1.13,56c-8.15,28.87-27.4,45.82-56.75,51.2-26.47,4.85-51.85,0-76.61-9.42C164,286,146.2,278.71,128.12,272.33a74.56,74.56,0,0,0-36.55-3.41c-16.78,2.63-30,11.59-41.18,23.88a91.42,91.42,0,0,0-23.82,54.51c-2.17,24.57-2.45,49.31-3.57,74-.9,20-3,39.76-11.68,58.09C8.18,486,3.81,492.08,0,498.4Z"/><path class="b" d="M1007.54,0a116.29,116.29,0,0,1-8.35,10.85A107.47,107.47,0,0,1,988.5,21.5C977.94,30.76,967,39.59,956.62,49.06c-15.59,14.23-25.44,31.53-27.6,53-2.89,28.6,15.15,56.45,42.71,64.53,8.23,2.42,16.75,3.86,25.17,5.66,20.05,4.28,37.16,13.82,51,29,19.52,21.43,24.26,45.92,15,73.41-6.85,20.34-12.8,40.94-14.48,62.51-2.57,33.1,6.62,61.63,32.6,83.46,22.32,18.75,48.51,28,77.37,29.23,13.84.56,27.76-.85,41.64-1.36V0Z"/><path class="c" d="M1061.54,87.38c1.83,1,2.45,2.07,2.13,3.57a3,3,0,1,1-4.31-3.22l.65-.35Z"/><path class="c" d="M1080.36,87.38l.65.35a3,3,0,0,1-1.38,5.57,3,3,0,0,1-1.43-5.56l.64-.36Z"/><path class="c" d="M1060,142.14a3.66,3.66,0,0,1-2-1.86,3,3,0,0,1,1.57-3.82,3,3,0,0,1,3.85,1.31,3,3,0,0,1-1.14,4l-.72.4Z"/><path class="c" d="M1078.84,142.14c-1.37-.66-2.36-1.61-2.19-3.28a3,3,0,1,1,4.28,3l-.57.31Z"/><path class="c" d="M1038.91,105.83c.62-1.16,1.39-2.11,2.85-2.15a3,3,0,0,1,1.24,5.71,3,3,0,0,1-3.7-1.3c-.14-.24-.26-.5-.39-.74Z"/><path class="c" d="M1101.47,107.35c-1,1.78-2.1,2.49-3.55,2.19a3,3,0,0,1-.34-5.75,3,3,0,0,1,3.52,1.4c.12.21.12.5.37.64Z"/><path class="c" d="M1042.71,87.38c.13.08.25.17.38.24a3,3,0,0,1-.71,5.66,3,3,0,0,1-3.24-1.78l-.23-.51V89.66a3.78,3.78,0,0,1,2.28-2.28Z"/><path class="c" d="M1101.47,91a3.14,3.14,0,0,1-2.71,2.3,3,3,0,0,1-1.64-5.58c.18-.11.44-.09.54-.33h1.53a3.84,3.84,0,0,1,2.28,2.28Z"/><path class="c" d="M1038.91,122.18c.94-1.78,2.1-2.5,3.55-2.2a2.94,2.94,0,0,1,2.41,2.79,3,3,0,0,1-2.07,3,3,3,0,0,1-3.52-1.41c-.12-.21-.12-.5-.37-.63Z"/><path class="c" d="M1101.47,123.7c-.63,1.15-1.39,2.1-2.86,2.15a3,3,0,0,1-1.24-5.71,3,3,0,0,1,3.7,1.3c.14.24.27.49.4.74Z"/><path class="c" d="M1038.91,138.53a3.13,3.13,0,0,1,2.71-2.29,3,3,0,0,1,1.64,5.58c-.19.1-.45.08-.55.32h-1.52a3.73,3.73,0,0,1-2.28-2.28Z"/><path class="c" d="M1097.66,142.14c-.12-.08-.24-.17-.37-.24a3,3,0,0,1,.71-5.65,3,3,0,0,1,3.24,1.77l.23.51v1.33a3.78,3.78,0,0,1-2.28,2.28Z"/><path class="c" d="M1063.76,106.67a3,3,0,0,1-6-.13,3,3,0,0,1,6,.13Z"/><path class="c" d="M1079.66,103.68a3,3,0,0,1,3,3,3,3,0,0,1-6-.09A3,3,0,0,1,1079.66,103.68Z"/><path class="c" d="M1060.8,125.85a3,3,0,0,1-3-2.88,3,3,0,1,1,6-.09A3,3,0,0,1,1060.8,125.85Z"/><path class="c" d="M1079.61,125.85a3,3,0,0,1-3-2.93,3,3,0,1,1,6,0A3,3,0,0,1,1079.61,125.85Z"/><path class="d" d="M1106.16,563.38c-2.89,7-21.62,53.59-22.34,55.11l-37.53-46.56C1052.44,571,1106.68,563.54,1106.16,563.38Zm-24.07,42.8c4.72-12,9.14-23.21,13.94-35.38l-37.88,5.72Z"/><path class="d" d="M129.54,87.38c-2.75,6.72-20.67,51.26-21.35,52.71L72.29,95.56C78.17,94.64,130.05,87.53,129.54,87.38Zm-23,40.94,13.33-33.85L83.64,100Z"/><path class="c" d="M86.18,558c1.83,1,2.45,2.07,2.13,3.56A3,3,0,1,1,84,558.3l.65-.35Z"/><path class="c" d="M105,558l.65.35a3,3,0,0,1-1.38,5.57,3,3,0,0,1-1.43-5.56l.64-.36Z"/><path class="c" d="M84.65,612.71a3.74,3.74,0,0,1-2-1.86A3,3,0,0,1,84.19,607,3,3,0,0,1,88,608.34a3,3,0,0,1-1.14,4l-.72.41Z"/><path class="c" d="M103.48,612.71c-1.37-.67-2.36-1.61-2.19-3.28A2.92,2.92,0,0,1,104,606.8a3,3,0,0,1,3.16,2.19,2.91,2.91,0,0,1-1.57,3.41l-.57.31Z"/><path class="c" d="M63.55,576.39a3.3,3.3,0,0,1,2.85-2.14,3,3,0,0,1,1.24,5.7,3,3,0,0,1-3.7-1.29c-.14-.25-.26-.5-.39-.75Z"/><path class="c" d="M126.11,577.91c-1,1.78-2.1,2.5-3.55,2.2a3,3,0,0,1-.34-5.75,3,3,0,0,1,3.52,1.4c.12.21.12.5.37.63Z"/><path class="c" d="M67.35,558c.13.08.25.17.38.24a3,3,0,0,1-.71,5.65,3,3,0,0,1-3.24-1.77l-.23-.51v-1.33A3.78,3.78,0,0,1,65.83,558Z"/><path class="c" d="M126.11,561.56a3.14,3.14,0,0,1-2.71,2.3,3,3,0,0,1-1.64-5.59c.18-.1.44-.08.54-.32h1.53a3.81,3.81,0,0,1,2.28,2.28Z"/><path class="c" d="M63.55,592.75c.94-1.78,2.1-2.5,3.55-2.2a3,3,0,0,1,.34,5.75,3,3,0,0,1-3.52-1.4c-.12-.21-.12-.5-.37-.63Z"/><path class="c" d="M126.11,594.27c-.63,1.15-1.39,2.1-2.86,2.14a3,3,0,0,1-1.24-5.7,3,3,0,0,1,3.7,1.29c.14.25.27.5.4.75Z"/><path class="c" d="M63.55,609.1a3.12,3.12,0,0,1,2.71-2.29,3,3,0,0,1,1.64,5.58c-.19.1-.45.08-.55.32H65.83a3.76,3.76,0,0,1-2.28-2.28Z"/><path class="c" d="M122.3,612.71c-.12-.08-.24-.17-.37-.24a3,3,0,0,1,.71-5.65,3,3,0,0,1,3.24,1.77l.23.51v1.33a3.81,3.81,0,0,1-2.28,2.28Z"/><path class="c" d="M88.4,577.24a3,3,0,0,1-6-.13,3,3,0,0,1,6,.13Z"/><path class="c" d="M104.3,574.24a3,3,0,0,1,3,3,3,3,0,0,1-6-.09A3,3,0,0,1,104.3,574.24Z"/><path class="c" d="M85.44,596.42a3,3,0,0,1-3-2.89,3,3,0,0,1,6-.09A3,3,0,0,1,85.44,596.42Z"/><path class="c" d="M104.25,596.42a3,3,0,0,1-3-2.94,3,3,0,0,1,6,0A3,3,0,0,1,104.25,596.42Z"/></svg>