<svg xmlns="http://www.w3.org/2000/svg" viewBox="0 0 1205 655"><defs><style>.a{fill:#333;}.b{fill:#242424;}.c{fill:#fff;}.d{fill:#d9804f;}</style></defs><rect class="a" width="1205" height="655"/><path class="b" d="M1.48,1.4V252.63c13.41,17.82,25.34,20.58,47.41,24.09a70.9,70.9,0,0,0,19.58.44c31.59-3.75,57.49-28.75,70.92-57.59,13.65-29.3,10.5-59.35,18.79-89.27,7.56-27.27,33.47-47,53.51-64.87s29.39-44.89,13.56-64Z"/><path class="b" d="M1205,425.38c-6.38-7.51-12.71-15.05-19.34-22.32-14.74-16.14-32.65-26.33-54.86-28.57-29.6-3-58.44,15.68-66.8,44.21-2.5,8.52-4,17.35-5.86,26.05-4.43,20.76-14.3,38.48-30,52.76-22.19,20.21-47.54,25.12-76,15.54-21-7.1-42.37-13.25-64.71-15-34.26-2.66-63.8,6.85-86.39,33.75-19.41,23.1-29,50.21-30.26,80.09-.58,14.32.88,28.73,1.41,43.1H1205Z"/><path class="c" d="M138.63,580c1.84,1,2.45,2.07,2.14,3.57a3,3,0,1,1-4.32-3.22l.66-.35Z"/><path class="c" d="M157.45,580l.66.35a3,3,0,0,1-1.39,5.57,3,3,0,0,1-1.43-5.56l.64-.36Z"/><path class="c" d="M137.11,634.76a3.72,3.72,0,0,1-2-1.86,3,3,0,0,1,1.57-3.82,3,3,0,0,1,3.85,1.31,3,3,0,0,1-1.13,4l-.73.4Z"/><path class="c" d="M155.93,634.76c-1.37-.66-2.36-1.61-2.19-3.28a3,3,0,1,1,4.28,3l-.57.31Z"/><path class="c" d="M116,598.44a3.3,3.3,0,0,1,2.85-2.14A3,3,0,0,1,120.1,602a3,3,0,0,1-3.7-1.3L116,600Z"/><path class="c" d="M178.56,600c-.94,1.78-2.1,2.49-3.55,2.19a3,3,0,0,1-.34-5.75,3,3,0,0,1,3.52,1.4c.12.21.12.5.37.63Z"/><path class="c" d="M119.8,580c.13.08.25.17.38.24a3,3,0,0,1-.71,5.65,3,3,0,0,1-3.24-1.77l-.23-.51v-1.33a3.78,3.78,0,0,1,2.28-2.28Z"/><path class="c" d="M178.56,583.61a3.14,3.14,0,0,1-2.71,2.3,3,3,0,0,1-1.64-5.58c.18-.11.45-.09.55-.33h1.52a3.84,3.84,0,0,1,2.28,2.28Z"/><path class="c" d="M116,614.8c.94-1.78,2.1-2.5,3.55-2.2a3,3,0,0,1,2.42,2.79,3,3,0,0,1-2.08,3,3,3,0,0,1-3.52-1.41c-.12-.21-.12-.5-.37-.63Z"/><path class="c" d="M178.56,616.32a3.33,3.33,0,0,1-2.85,2.15,3,3,0,0,1-1.25-5.71,3,3,0,0,1,3.7,1.3c.14.24.27.49.4.74Z"/><path class="c" d="M116,631.15a3.13,3.13,0,0,1,2.71-2.29,3,3,0,0,1,1.64,5.58c-.18.1-.45.08-.55.32h-1.52a3.78,3.78,0,0,1-2.28-2.28Z"/><path class="c" d="M174.76,634.76c-.13-.08-.25-.17-.38-.24a3,3,0,0,1,.71-5.65,3,3,0,0,1,3.24,1.77l.23.51v1.33a3.78,3.78,0,0,1-2.28,2.28Z"/><path class="c" d="M140.85,599.29a3,3,0,0,1-6-.13,3,3,0,0,1,6,.13Z"/><path class="c" d="M156.75,596.3a3,3,0,0,1,3,3,3,3,0,0,1-6-.09A3,3,0,0,1,156.75,596.3Z"/><path class="c" d="M137.9,618.47a3,3,0,0,1-3.05-2.88,3,3,0,1,1,6-.09A3,3,0,0,1,137.9,618.47Z"/><path class="c" d="M156.7,618.47a3,3,0,0,1-3-2.93,3,3,0,1,1,6,0A3,3,0,0,1,156.7,618.47Z"/><path class="d" d="M160.62,81.71c-5,4.16-37.79,31.84-38.93,32.7-3.26-16.81-6.42-33.15-9.72-50.2C117,65.94,161,82.05,160.62,81.71Zm-35.31,22.71L150,83.26,119.09,72.42Z"/><path class="d" d="M1140,613.36c-3.42-5-26.23-38-26.93-39.16l47.58-4.53C1158.62,574.19,1139.7,613.64,1140,613.36Zm-18-34.89,17.47,24.87,12.86-27.78Z"/></svg>