<svg xmlns="http://www.w3.org/2000/svg" viewBox="0 0 133.08 106.24"><defs><style>.a{fill:#fff;opacity:0.47;}.b{fill:#333;}</style></defs><path class="a" d="M53,10.33C17.12,26.23-6,54.77,1.37,74.08S51.68,116.89,87.55,101s51.08-65.18,43.72-84.49S88.87-5.57,53,10.33Z"/><path class="b" d="M57.68,105.56h0a3.28,3.28,0,0,0,2.39-1,3.71,3.71,0,0,0,0-5.09,3.34,3.34,0,0,0-2.39-1,3.57,3.57,0,0,0,0,7.13Zm1.15-3.69c-.07.86-.43,1.3-1.11,1.34a1.06,1.06,0,0,1-1.21-1.14,1.11,1.11,0,0,1,1.08-1.29h.16C58.31,100.77,58.65,101.13,58.83,101.87Z"/><path class="b" d="M124.1,33.53h.1a5.18,5.18,0,0,0,5.15-5.19,5.35,5.35,0,0,0-1.39-3.8,5,5,0,0,0-3.57-1.7,5.12,5.12,0,0,0-3.8,1.49,5.36,5.36,0,0,0-1.51,3.82A5.14,5.14,0,0,0,124.1,33.53Zm.08-8.41h0a3,3,0,0,1,2.12,1,3.08,3.08,0,0,1-2.18,5.14,3,3,0,0,1-2.09-1,3.17,3.17,0,0,1-.81-2.22A3,3,0,0,1,124.18,25.12Z"/><path class="b" d="M8.75,70.53h.1A5.17,5.17,0,0,0,14,65.34a5.35,5.35,0,0,0-1.39-3.8A5,5,0,0,0,9,59.84a5.12,5.12,0,0,0-3.8,1.49,5.36,5.36,0,0,0-1.51,3.82A5.15,5.15,0,0,0,8.75,70.53Zm.08-8.41h0a3,3,0,0,1,2.12,1,3.07,3.07,0,0,1-2.17,5.13,2.94,2.94,0,0,1-2.1-1,3.16,3.16,0,0,1-.8-2.22A3,3,0,0,1,8.83,62.12Z"/><path class="b" d="M115.42,13.06h0a3.28,3.28,0,0,0,2.39-1,3.56,3.56,0,0,0,1-2.55,3.63,3.63,0,0,0-1-2.54,3.38,3.38,0,0,0-2.39-1,3.61,3.61,0,0,0-3.44,3.59A3.57,3.57,0,0,0,115.42,13.06Zm1.15-3.68c-.07.85-.43,1.29-1.11,1.34a1.07,1.07,0,0,1-1.21-1.14,1.11,1.11,0,0,1,1.08-1.3h.16C116,8.27,116.39,8.63,116.57,9.38Z"/><path class="b" d="M116.77,56.29V89.37c-.93,2.93-3,4-6,3.87-3.53-.11-7.06,0-10.58,0s-5.43-1.84-5.43-5.44q0-6.24,0-12.48c0-.63-.09-.93-.84-.93q-8.6,0-17.21,0c-.71,0-.86.24-.85.9,0,2.54,0,5.08,0,7.62,0,.81.27,1,1,.94,1.53,0,3.07,0,4.59.06a7.81,7.81,0,0,1,6.92,6.79c.18,2-.29,2.54-2.32,2.54H27.65a5,5,0,0,1-4.19-1.9,10.09,10.09,0,0,1-1-1.95V46.92c.81-2.59,2.49-4,5.29-3.86.82,0,1-.21,1-1q0-11.07,0-22.14A7.89,7.89,0,0,1,37,11.66q32.65,0,65.32,0a8,8,0,0,1,3.74.82A7.86,7.86,0,0,1,110.49,20q0,15.52,0,31c0,1.36,0,1.35,1.32,1.39a6.67,6.67,0,0,1,1.27.14A5,5,0,0,1,116.77,56.29ZM69.62,14.78H37.22c-3.37,0-5.3,1.93-5.3,5.3,0,7.32,0,14.64,0,22,0,.81.21,1,1,1,7.3,0,14.61,0,21.91,0a4.23,4.23,0,0,1,1.81.17c.64.31,1,0,1.41-.39q7.21-7.23,14.45-14.43a8,8,0,0,1,.74-.68,1.56,1.56,0,0,1,2,.12,1.49,1.49,0,0,1,.16,2,5.36,5.36,0,0,1-.68.75q-7.08,7.08-14.19,14.15c-.55.55-1,1-.53,1.86a4.44,4.44,0,0,1,.21,1.8c0,3.1,0,6.19,0,9.28,0,.86.25,1,1.07,1q16.11,0,32.21,0c1.27,0,1.27,0,1.3-1.24a4.74,4.74,0,0,1,5.11-5c2.15,0,4.29,0,6.44,0,.86,0,1-.24,1-1.06q0-15.53,0-31c0-3.73-1.85-5.56-5.62-5.56Zm-44,50.73c0,5.79,0,11.57,0,17.36,0,.67.1,1,.88.95q14.86,0,29.72,0c.71,0,.86-.22.86-.89q0-17.31,0-34.63c0-1.61-.54-2.13-2.17-2.13h-27c-1.74,0-2.22.49-2.22,2.26Zm88,4.79c0-4.22,0-8.44,0-12.67,0-1.5-.56-2.06-2-2.07H100c-1.51,0-2.06.54-2.06,2,0,8.44,0,16.89,0,25.33,0,.67.17.9.87.89q7,0,14,0c.78,0,.89-.28.89-.95C113.62,78.68,113.63,74.49,113.63,70.3ZM77.46,61.83c-5.46,0-10.92,0-16.38,0-.7,0-.88.19-.87.87,0,2.58,0,5.15,0,7.72,0,.61.11.85.8.85q16.47,0,32.95,0c.64,0,.84-.19.83-.83,0-2.51,0-5,0-7.53,0-.81-.16-1.09-1-1.09C88.32,61.85,82.89,61.83,77.46,61.83ZM41.28,86.94H38.7c-4.08,0-8.15,0-12.23,0-.61,0-.86.11-.85.79,0,1.83.5,2.36,2.34,2.36H54.81c1.73,0,2.24-.54,2.29-2.24,0-.73-.21-.92-.93-.91C51.21,87,46.24,86.94,41.28,86.94Zm31.21,3.14H84.17c.25,0,.6.15.74-.13s-.12-.52-.26-.75a4.77,4.77,0,0,0-4.35-2.25q-9.27,0-18.56,0c-1.45,0-1.45,0-1.52,1.48a2.73,2.73,0,0,1-.11.81c-.23.7,0,.87.71.87C64.71,90.06,68.6,90.08,72.49,90.08ZM66.5,79c0,1.34,0,2.69,0,4,0,.56.09.83.74.81,1.62,0,3.24,0,4.86,0,.51,0,.7-.14.69-.67,0-2.68,0-5.37,0-8.06,0-.58-.2-.72-.74-.71q-2.39,0-4.77,0c-.58,0-.81.13-.78.76C66.54,76.41,66.5,77.7,66.5,79Zm39.31,8c-2.36,0-4.72,0-7.08,0-.55,0-.82.09-.82.74,0,1.89.46,2.41,2.36,2.41h11c1.84,0,2.32-.53,2.34-2.36,0-.68-.24-.8-.85-.79C110.47,87,108.14,86.94,105.81,86.94ZM60.23,79v2.57c0,2.29,0,2.26,2.31,2.28.73,0,.85-.27.84-.91,0-2.08,0-4.16,0-6.24,0-2.36,0-2.33-2.35-2.32-.69,0-.82.26-.8.86C60.25,76.48,60.23,77.73,60.23,79Z"/><path class="b" d="M85.3,29.07a1.61,1.61,0,0,1-.6,1.13Q77.1,37.79,69.48,45.38a1.57,1.57,0,1,1-2.22-2.19q7.62-7.65,15.28-15.26a1.58,1.58,0,0,1,1.85-.4A1.53,1.53,0,0,1,85.3,29.07Z"/><path class="b" d="M69.54,21.05c-1,0-2,0-2.93,0a1.55,1.55,0,1,1,0-3.1q3.06-.07,6.14,0a1.55,1.55,0,1,1,0,3.1C71.62,21.08,70.58,21.05,69.54,21.05Z"/><path class="b" d="M42.92,71.42a1.54,1.54,0,0,1-1.41-2.19,2.48,2.48,0,0,1,.43-.59l6.36-6.35a1.69,1.69,0,0,1,1.48-.58,1.46,1.46,0,0,1,1.23,1,1.67,1.67,0,0,1-.5,1.83c-2.11,2.09-4.2,4.19-6.3,6.28a4.58,4.58,0,0,1-.42.35A1.45,1.45,0,0,1,42.92,71.42Z"/><path class="b" d="M41.32,63.77a1,1,0,0,1-.39.91c-2.07,2-4.11,4.11-6.18,6.14a1.61,1.61,0,0,1-2.37.16,1.56,1.56,0,0,1,.16-2.36c2.1-2.13,4.23-4.24,6.36-6.35a2,2,0,0,1,.84-.53c.91-.27,1.45.12,1.49,1.06C41.25,63.1,41.28,63.4,41.32,63.77Z"/><path class="b" d="M103.43,73.44a1.4,1.4,0,0,1-1.27-.83,1.35,1.35,0,0,1,.11-1.56,62.24,62.24,0,0,1,4.81-4.8,1.46,1.46,0,0,1,2.06.23,1.54,1.54,0,0,1-.12,2.16c-1,1-2,2-3,3-.44.43-.87.87-1.31,1.29A1.69,1.69,0,0,1,103.43,73.44Z"/><path class="b" d="M71.23,66.54a1.57,1.57,0,0,1-1.6,1.54,1.5,1.5,0,0,1-1.5-1.53A1.54,1.54,0,0,1,69.7,65,1.62,1.62,0,0,1,71.23,66.54Z"/></svg>