<svg xmlns="http://www.w3.org/2000/svg" viewBox="0 0 133.08 118.99"><defs><style>.a{fill:#fff;opacity:0.47;}.b{fill:#333;}</style></defs><path class="a" d="M53,23.08C17.12,39-6,67.53,1.37,86.84s50.31,42.81,86.18,26.91,51.08-65.18,43.72-84.49S88.87,7.18,53,23.08Z"/><path class="b" d="M57.09,47c0-7,0-13.63,0-20.21,0-3.63,1.87-6.1,5.1-6.87a9.07,9.07,0,0,1,2.15-.2q19.53,0,39.08,0c4.39,0,7,2.57,7.18,7,.08,2.45,0,4.9,0,7.73,1.52,0,2.8,0,4.07,0,2.77.08,4.28,1.56,4.29,4.34q.06,11.29,0,22.58c0,2.84-1.57,4.4-4.41,4.57-3.93.23-3.86.23-4,4.15-.07,2.63-.39,5.25-.63,8.22.52,0,1.42,0,2.32,0,1.23,0,1.92.4,1.9,1.74,0,3.18.13,6.38-.07,9.55-.35,5.3-4.75,9.12-10.49,9.27-2.3.06-4.6,0-6.87,0,0,1.83,0,3.39,0,5,0,1.34-.59,2-2,2H23.18c-.58,0-1.16,0-1.74,0A1.56,1.56,0,0,1,19.75,104c0-1.59,0-3.18,0-5l-2.37-.11a60.81,60.81,0,0,1-6.49-.27,9.85,9.85,0,0,1-8.56-9.92c0-2.82,0-5.64,0-8.46,0-.92.07-1.67,1.21-2a2,2,0,0,0,1-1.39,26.76,26.76,0,0,1,7-13.25,3.56,3.56,0,0,0,1.22-2.84,7.81,7.81,0,0,1,4.07-7.42c2.38-1.46,5-2.46,7.55-3.72,1-.5,1.91-1.14,2.85-1.73,3.15-2,5.74-4.93,10.15-4.43a86.8,86.8,0,0,0,11.06.05,7,7,0,0,1,5.44,2.18C54.57,46.37,55.83,46.5,57.09,47Zm2.36-14c0,5.33-.05,10.25.06,15.16,0,.54.79,1.25,1.38,1.57,2.41,1.31,5,2.32,7.29,3.78a7.64,7.64,0,0,1,3.89,7.28,3.5,3.5,0,0,0,1.22,2.84,25.6,25.6,0,0,1,6.84,12.85c.27,1.45.79,1.88,2.23,1.87,6.8-.07,13.6,0,20.41,0,3.88,0,5.54-1.7,5.54-5.57q0-22.7,0-45.38c0-3.65-1.62-5.26-5.31-5.26-6.88,0-13.75,0-20.63,0-6.08,0-12.16,0-18.23,0-2.12,0-3.71.86-4.4,2.85a10.34,10.34,0,0,0-.29,3.21c0,2.51,0,2.52,2.5,2.52q13.67,0,27.35,0c1,0,2.39-.3,2.43,1.1,0,1.67-1.51,1.19-2.49,1.2-9,0-17.94,0-26.92,0Zm50.8,60.16H29.07a6.62,6.62,0,0,1-2.14-.25,1.5,1.5,0,0,1-.72-1.1c0-.25.48-.74.81-.8a13.35,13.35,0,0,1,2.37-.11H108.2c.65,0,1.3,0,2,0,1.17,0,1.71-.57,1.7-1.74,0-2,0-4,0-6.08,0-2.4,0-2.4-2.42-2.43H8.07c-.58,0-1.16,0-1.74,0-1.18-.06-1.73.42-1.7,1.65a64,64,0,0,0,.11,6.93,9.69,9.69,0,0,0,1.74,4.31c1.74,2.42,4.38,3.08,7.29,3.08q37.44,0,74.9,0c4.92,0,9.84,0,14.76,0A7.94,7.94,0,0,0,110.25,93.12ZM47.8,78.28A8.16,8.16,0,0,1,48.06,76c3.6-8.27,4.4-17,4.65-25.88.09-3-1.13-4.27-4.09-4.32q-6.51-.12-13,0c-3.06.07-4.77,2.66-6.84,4.34-.87.7-1,2.68-1,4.08,0,7.84,2.14,15.28,4.44,22.68.4,1.3,1.23,1.63,2.61,1a68.71,68.71,0,0,1-3.6-17.59c-.17-2.38-.21-4.77-.16-7.16,0-.45.7-.89,1.08-1.33.38.44,1,.83,1.1,1.34a7.76,7.76,0,0,1,.07,2.16,67.44,67.44,0,0,0,3.39,20.89c.46,1.44,1.14,2.13,2.77,2C42.25,78.18,45,78.28,47.8,78.28ZM22.37,103.36H94.16c.63-3.53-.09-4.49-3.35-4.49q-32.55,0-65.09,0C22.43,98.86,21.74,99.78,22.37,103.36ZM25,51.67c-1.94,1-4.15,1.84-6.13,3.07-4.28,2.65-5.21,6.39-2.21,10.46,3.16,4.28,6.82,8.19,10.27,12.26a2.44,2.44,0,0,0,3,.57c-1.08-4.3-2.36-8.51-3.17-12.81S25.62,56.54,25,51.67ZM54.67,78A2.84,2.84,0,0,0,58,77.34c2.26-2.53,4.64-5,6.81-7.57a42.53,42.53,0,0,0,4.22-6,5.63,5.63,0,0,0-.36-6.53c-2.36-3-5.78-4.34-9.39-5.53C59.71,61,57.33,69.48,54.67,78Zm56-27.9c0,3.83,0,7.65,0,11.48,0,.6.27,1.7.48,1.71a12.68,12.68,0,0,0,4.44-.16c.56-.16,1-1.63,1.06-2.51.12-4,.06-8.09,0-12.13,0-3.1,0-6.21,0-9.31,0-1.94-.55-2.39-2.49-2.5-.43,0-.86,0-1.3,0-2.14,0-2.22.09-2.23,2.17C110.63,42.62,110.64,46.38,110.64,50.13Zm-32.74,28c-.11-3.23-1.4-5.8-3-8.57a29.79,29.79,0,0,1-2.15,3.56,44.68,44.68,0,0,1-4.32,4.49c-.34.32-1.24,0-1.89,0,.19-.6.19-1.47.59-1.76a17.68,17.68,0,0,0,5.17-6.59c1.15-2.21,1.07-2.47-1-4L61.07,78.11ZM13.46,65.27c-2.09,1.67-2.11,1.78-1,4a16.43,16.43,0,0,0,5,6.41c.7.5,1.42,1.13.63,1.87a2,2,0,0,1-2-.08c-1.82-1.92-3.48-4-5.17-6a19.34,19.34,0,0,1-1.12-1.72c-1.58,2.8-2.91,5.29-2.9,8.4H23.8ZM55.35,49.45c-.68,9.8-1.42,19.55-5.63,28.65,1.47.47,2.21,0,2.56-1.3,1.4-5.23,3.08-10.39,4.16-15.68C57.22,57.26,57.36,53.23,55.35,49.45Z"/><path class="b" d="M46.64,25.32a3.92,3.92,0,1,1-3.88,3.86A3.87,3.87,0,0,1,46.64,25.32ZM49,29.48c-1-.85-1.59-1.64-2.15-1.65A2.08,2.08,0,0,0,45.27,29a2,2,0,0,0,1.16,1.62C47.08,30.73,47.81,30.08,49,29.48Z"/><path class="b" d="M74.51,9.75a33.05,33.05,0,0,1-1.6,3.95c-.25.43-1.13.5-1.72.74-.1-.57-.48-1.31-.25-1.69,1.37-2.26.94-4.11-.73-6.07a5.36,5.36,0,0,1-.88-5.51c.18-.51,1-.79,1.47-1.17.25.53.81,1.16.69,1.58-.59,1.94.32,3.29,1.36,4.74A21.77,21.77,0,0,1,74.51,9.75Z"/><path class="b" d="M86,1.3c-.82,2.21.05,3.61,1.22,5a5.84,5.84,0,0,1,.05,7.39c-.35.44-1.15.5-1.74.74-.1-.58-.46-1.32-.23-1.69,1.38-2.28.9-4.11-.76-6.08a5.39,5.39,0,0,1-.86-5.52c.19-.49,1-.77,1.48-1.14Z"/><path class="b" d="M78.83,1.13a5.26,5.26,0,0,0,1.3,5.32A6.21,6.21,0,0,1,80,13.89c-.34.37-1.08.39-1.63.57A7.8,7.8,0,0,1,78,12.91c0-.33.28-.66.44-1a3.72,3.72,0,0,0-.59-4.59,6,6,0,0,1-1.34-6.25,1.89,1.89,0,0,1,1.36-1C78.21,0,78.59.85,78.83,1.13Z"/><path class="b" d="M92.48,2.32c.57,1.26.89,2.74,1.77,3.72a6.3,6.3,0,0,1,.19,7.63c-.31.45-1.14.53-1.73.78-.09-.58-.45-1.31-.23-1.73a4.71,4.71,0,0,0-.81-6.1,5.41,5.41,0,0,1-1.08-4.71C90.73,1,90.9-.2,92.16.07c.48.1.75,1.2,1.11,1.85Z"/><path class="b" d="M17.84,36.4a3.22,3.22,0,0,1-.1,6.43,3.28,3.28,0,0,1-3.2-3.38A3.22,3.22,0,0,1,17.84,36.4Z"/><path class="b" d="M97.71,32.92a16.08,16.08,0,0,1-2.78-.05c-.44-.07-.78-.65-1.17-1,.35-.38.69-1.07,1.06-1.09a52.22,52.22,0,0,1,6,0c.37,0,.71.72,1.06,1.11-.39.34-.74.92-1.17,1A21.42,21.42,0,0,1,97.71,32.92Z"/><path class="b" d="M123.26,77.59h.11a5.89,5.89,0,0,0,.21-11.77,6,6,0,0,0-4.35,1.63,5.94,5.94,0,0,0,4,10.13Zm.08-9.25h0a3.41,3.41,0,0,1,2.43,1.11,3.29,3.29,0,0,1,.91,2.4,3.5,3.5,0,0,1-3.4,3.25,3.41,3.41,0,0,1-2.4-1.1,3.37,3.37,0,0,1-.93-2.44A3.43,3.43,0,0,1,123.34,68.34Z"/></svg>