<svg xmlns="http://www.w3.org/2000/svg" viewBox="0 0 133.08 106.24"><defs><style>.a{fill:#fff;opacity:0.47;}.b{fill:#333;}</style></defs><path class="a" d="M53,10.33C17.12,26.23-6,54.77,1.37,74.08S51.68,116.89,87.55,101s51.08-65.18,43.72-84.49S88.87-5.57,53,10.33Z"/><path class="b" d="M83.11,51.17a18.82,18.82,0,0,1,5.11-3.35,19.67,19.67,0,0,1,9.32-1.5c6.39.49,11.92,3.11,17,6.76a1.65,1.65,0,0,1,.72,1.46c0,4-.09,8-.07,12.05,0,7.17.13,14.34.19,21.51a12.79,12.79,0,0,1-.13,1.63,1,1,0,0,1-1.45.75c-1.11-.37-2.21-.79-3.33-1.14a37.14,37.14,0,0,0-11.64-1.8,25.86,25.86,0,0,0-14.32,4.28,1.7,1.7,0,0,0-.37.34,1.3,1.3,0,0,1-2.14,0,4.11,4.11,0,0,0-.83-.65,24.41,24.41,0,0,0-10.48-3.78,32.46,32.46,0,0,0-12.18.81c-2,.52-4,1.21-6,1.85-1.06.33-1.61,0-1.61-1.12q0-6.7,0-13.43c0-5,.06-10,.07-15q0-3.12-.08-6.22A1.8,1.8,0,0,1,51.73,53,36.22,36.22,0,0,1,63,47.35a23.92,23.92,0,0,1,9.74-.93A18.47,18.47,0,0,1,83.11,51.17ZM113,87.56v-.69c0-4.29-.11-8.59-.12-12.88,0-6.22,0-12.44,0-18.66a1.06,1.06,0,0,0-.34-.77,30.65,30.65,0,0,0-14.6-5.86,17.36,17.36,0,0,0-7.43.78,16.79,16.79,0,0,0-6.32,4,1.39,1.39,0,0,1-2.16,0,16.21,16.21,0,0,0-6.82-4.1,20,20,0,0,0-11.53.29,34.73,34.73,0,0,0-9.92,4.88.84.84,0,0,0-.42.83c0,3,.07,6,.05,9.07,0,7.49-.11,15-.17,22.46v.8l.36-.12a42.8,42.8,0,0,1,12.68-2.34,28.33,28.33,0,0,1,11,1.77c2,.8,4,1.85,5.92,2.79,0,.12,0,.1.1.06a26.79,26.79,0,0,1,12.28-4.44,35,35,0,0,1,11.77.71C109.22,86.5,111.07,87.05,113,87.56Z"/><path class="b" d="M82.93,95.37a18.42,18.42,0,0,1,11.65-6,37.17,37.17,0,0,1,16.35,1.67c1.09.33,2.15.74,3.21,1.14s1.26.84,1,1.59a1.69,1.69,0,0,1-2,1c-1.38-.45-2.73-1-4.12-1.39a34.57,34.57,0,0,0-11.11-1.56c-4,.15-7.7,1-10.83,3.62a19.14,19.14,0,0,0-2.69,2.92c-.93,1.18-2.16,1.28-3,.06a15.05,15.05,0,0,0-10.3-6.24,28.56,28.56,0,0,0-11.93.58c-2.2.53-4.35,1.29-6.51,2a1.68,1.68,0,0,1-1.7-.37,1.17,1.17,0,0,1,.36-2.1c1.51-.56,3-1.1,4.59-1.56a38.07,38.07,0,0,1,11.67-1.64A21.3,21.3,0,0,1,79.3,92.41C80.58,93.28,81.71,94.37,82.93,95.37Z"/><path class="b" d="M64.67,59c0,1.12,0,2.24,0,3.36a.87.87,0,0,1-.76.94,16.5,16.5,0,0,0-5.09,2.12c-.56.35-.93.14-1.43-.25a2.16,2.16,0,0,1-.75-2.12c.08-1.79.15-3.59.27-5.38a1.19,1.19,0,0,1,.4-.81,9.41,9.41,0,0,1,6.2-1.9c1,0,1.22.38,1.23,1.38s0,1.78,0,2.66Zm-2.09,2.36V57.09a7.28,7.28,0,0,0-3.3,1,.76.76,0,0,0-.35.51c0,1.43,0,2.86,0,4.23Z"/><path class="b" d="M68.7,75.57a19.1,19.1,0,0,1,9.11,2.16c.73.39.94.88.63,1.48a1.06,1.06,0,0,1-1.61.39A15.78,15.78,0,0,0,68,77.73a21.27,21.27,0,0,0-8.83,2.79c-.58.33-1.14.71-1.73,1s-1.09.27-1.42-.25a1.1,1.1,0,0,1,.31-1.52A24.08,24.08,0,0,1,65.56,76C66.76,75.73,68,75.65,68.7,75.57Z"/><path class="b" d="M97.15,75.61a25.28,25.28,0,0,1,11.46,3.19,1.09,1.09,0,0,1,.56,1.53c-.31.61-.78.72-1.55.31A23.83,23.83,0,0,0,100.09,78a16.39,16.39,0,0,0-11.27,2,7.53,7.53,0,0,1-.87.5,1,1,0,0,1-1-1.79,17.34,17.34,0,0,1,7.23-2.81C95.14,75.8,96.15,75.72,97.15,75.61Z"/><path class="b" d="M96.78,61a24.45,24.45,0,0,1,11.45,3.14,1.15,1.15,0,0,1,.52,1.55c-.31.57-.8.67-1.52.29a22.93,22.93,0,0,0-8.65-2.77,16,16,0,0,0-10.19,2.17c-.22.13-.43.28-.65.4a1.05,1.05,0,0,1-1.53-.33,1,1,0,0,1,.43-1.46,14.77,14.77,0,0,1,4.73-2.19c1.77-.42,3.59-.66,5.38-1Z"/><path class="b" d="M69.25,65.73a18.26,18.26,0,0,1,8.54,2.17c.5.27.91.58.74,1.23a1,1,0,0,1-1.58.7c-1-.41-1.9-.91-2.89-1.23a16.76,16.76,0,0,0-11.2.44c-1.74.66-3.36,1.63-5,2.46-.19.09-.35.23-.54.32a.86.86,0,0,1-1.22-.28,1,1,0,0,1,.06-1.37,9.31,9.31,0,0,1,1.5-1,23.94,23.94,0,0,1,9-3.19C67.47,65.81,68.36,65.8,69.25,65.73Z"/><path class="b" d="M108.45,70c0,.9-.7,1.25-1.59.86a47.05,47.05,0,0,0-4.7-2,17,17,0,0,0-13.48.92c-.47.24-.9.55-1.36.8a1,1,0,0,1-1.52-.35,1,1,0,0,1,.43-1.45,18.34,18.34,0,0,1,12-2.87,24.39,24.39,0,0,1,9.45,3C108.31,69.29,108.46,69.5,108.45,70Z"/><path class="b" d="M70.05,70.69A16.83,16.83,0,0,1,78,72.91a1,1,0,0,1,.5,1.37,1,1,0,0,1-1.37.52c-1-.42-2-.93-3.08-1.28a16.37,16.37,0,0,0-9.7,0,23.74,23.74,0,0,0-6.73,3.08c-.4.26-.89.51-1.27.11a1.65,1.65,0,0,1-.41-1.1,1.17,1.17,0,0,1,.56-.77A23.75,23.75,0,0,1,70.05,70.69Z"/><path class="b" d="M95,56.06a25.38,25.38,0,0,1,12.8,3.13,1.08,1.08,0,0,1,.52,1.55c-.33.58-.82.69-1.58.27a22.83,22.83,0,0,0-7-2.51,16.41,16.41,0,0,0-11.93,2c-.23.14-.47.29-.71.41a1,1,0,0,1-1.34-.46.89.89,0,0,1,.3-1.32,24.27,24.27,0,0,1,2.58-1.45A17.27,17.27,0,0,1,95,56.06Z"/><path class="b" d="M108.86,74.83a1,1,0,0,1-1.52,1A46,46,0,0,0,103.06,74a17.41,17.41,0,0,0-12.78.21c-.91.39-1.74.94-2.62,1.4a1,1,0,0,1-1.57-1,1.3,1.3,0,0,1,.53-.79,18,18,0,0,1,10.77-3,24.26,24.26,0,0,1,10.66,3C108.5,74.06,108.88,74.33,108.86,74.83Z"/><path class="b" d="M71.8,54.58a12,12,0,0,1,5.42,1.63,1,1,0,0,1,.51,1.43,1,1,0,0,1-1.49.42,8.75,8.75,0,0,0-7.35-.75A.87.87,0,0,1,67.83,57a1,1,0,0,1-.09-1.24,1.28,1.28,0,0,1,.68-.51C69.54,55,70.67,54.81,71.8,54.58Z"/><path class="b" d="M70.5,59.54a11.32,11.32,0,0,1,6.34,1.76,1.5,1.5,0,0,1,.59.94,1,1,0,0,1-1.47,1A28,28,0,0,0,73.08,62a8.2,8.2,0,0,0-3.88-.15,4,4,0,0,1-.69,0,1,1,0,0,1-1.09-.9.91.91,0,0,1,.82-1.13C69.11,59.69,70,59.61,70.5,59.54Z"/><path class="b" d="M73.54,35.83c-1,1.81-1,1.8.79,2.81.44.25.65.24.91-.23,1.65-3,3.34-5.95,5-8.93a1.42,1.42,0,0,0-.6-2.22c-.82-.51-1.63-1.05-2.48-1.5-.62-.33-.75-.64-.32-1.22a1.52,1.52,0,0,0,0-2.22c-.26-.26,0-.47.13-.67.59-1.1,1.24-2.17,1.8-3.29A4.19,4.19,0,0,0,77,12.76a4,4,0,0,0-5.38,1.77c-.55,1-1.08,1.94-1.63,2.9-.13.24-.19.52-.61.41a1.42,1.42,0,0,0-1.65.9q-1.53,2.76-3.09,5.51c-.11.2-.16.47-.5.58v-1c0-7.29,0-14.58,0-21.87a2.16,2.16,0,0,0-.87-2H48.6a2.14,2.14,0,0,0-.87,2q0,18.58,0,37.17c0,1.88,0,1.85-1.92,1.89-.7,0-.83-.22-.82-.86,0-6.35,0-12.71,0-19.06,0-2.85,0-5.69,0-8.54a1.37,1.37,0,0,0-.86-1.51c-.45-.15-.52-.39-.52-.8,0-1.48,0-3,0-4.45,0-1.23-.48-1.71-1.69-1.72H37.16c-1.24,0-1.71.48-1.72,1.7,0,1.51,0,3,0,4.53,0,.25.11.54-.32.66-.86.24-1,.91-1,1.73,0,4.3,0,8.6,0,12.9v.93a2.42,2.42,0,0,1-.5-1.08c-1-2.88-1.94-5.77-2.95-8.64a6.69,6.69,0,0,0-6.14-4.52,6.78,6.78,0,0,0-6.28,4.23,7.18,7.18,0,0,0-.08,5.24c2.1,6.14,4.17,12.28,6.27,18.41.22.63.24.92-.55.84a16.26,16.26,0,0,0-1.71,0c-1.24,0-1.73.47-1.73,1.69,0,2.53,0,5.07,0,7.6,0,1.16.5,1.69,1.68,1.63.85,0,1.08.17,1.07,1.05q0,13.75,0,27.52a6.67,6.67,0,0,0,4.05,6.39,15.08,15.08,0,0,0,1.75.61H52.39A4.86,4.86,0,0,1,52,85c0-.08,0-.16,0-.24q-10.89,0-21.77,0a4.11,4.11,0,0,1-4.41-4.44c0-9.16,0-18.33,0-27.5,0-.71.17-.89.88-.89,7.49,0,15,0,22.47,0h7.66a3.49,3.49,0,0,1,1.11-.6,3.24,3.24,0,0,1,3.3-2.08,8.45,8.45,0,0,0,1.23-.06q-19.19,0-38.37,0c-.83,0-1.07-.19-1-1a29.19,29.19,0,0,0,0-3.5c-.05-.75.15-1,.95-1,8.35,0,16.69,0,25,0s16.74,0,25.11,0c.71,0,.92.17.89.89,0,1,0,2,0,2.95a3.24,3.24,0,0,1,2.15.49,6.9,6.9,0,0,1,.59.43q0-2.89,0-5.79c0-1.21-.48-1.69-1.72-1.69H68.49a1.24,1.24,0,0,1-.76-.11c.16-.3.29-.58.44-.84l6-10.73c.94-1.69.93-1.67,2.59-.65.47.29.54.49.26,1C75.84,31.71,74.7,33.77,73.54,35.83ZM22.27,25.52c-.58-1.81-1.2-3.61-1.79-5.42a3.9,3.9,0,0,1-.09-.66,4.24,4.24,0,0,1,3.37-4.33,4,4,0,0,1,4.34,2.8c.53,1.53,1,3.07,1.57,4.59.17.47.14.7-.37.89-2.1.76-4.2,1.56-6.3,2.35C22.71,25.85,22.43,26,22.27,25.52ZM24,30.63c-.77-2.06-.78-2.05,1.25-2.81L30,26l.65-.23c.07,0,.18,0,.24.19a2.44,2.44,0,0,0,.1.24c.88,2.13.88,2.13-1.28,2.94-1.62.6-3.25,1.18-4.86,1.82C24.34,31.18,24.17,31.08,24,30.63ZM27.94,41c-.32,0-.44-.16-.53-.43C26.7,38.5,26,36.4,25.27,34.31c-.13-.37-.06-.53.32-.7,1.92-.84,1.91-.85,2.59,1.13L30.31,41C29.46,41,28.7,41,27.94,41Zm4.5-2.25c-.7-2-1.38-4.09-2.1-6.12-.18-.51-.17-.78.42-1,1.81-.66,1.8-.69,2.42,1.13C34.1,35.5,35,38.21,36,41,33.25,41.15,33.25,41.15,32.44,38.77ZM40.37,6.83c.39,0,.55.11.54.53q0,1.53,0,3.06c0,.42-.15.57-.54.52H40.2c-2,0-2,0-2-2C38.17,6.71,38.17,6.72,40.37,6.83Zm-3,6.83c1.42,0,2.85,0,4.27,0,.51,0,.61.18.6.64,0,1.4,0,2.79,0,4.19s0,2.78,0,4.18c0,.44-.11.59-.57.58q-2.18,0-4.35,0c-.47,0-.56-.17-.56-.59,0-2.79,0-5.58,0-8.37C36.79,13.82,36.92,13.65,37.41,13.66Zm4.86,19.87c0,2.28,0,4.55,0,6.83,0,.51-.12.71-.66.67-.91-.06-2,.27-2.66-.15s-.6-1.59-1-2.38C36.7,35.78,36.71,32.9,36.8,30c0-1.13,0-2.27,0-3.41,0-.5.17-.62.64-.61,1.36,0,2.73,0,4.09,0,.58,0,.78.12.77.74C42.25,29,42.27,31.26,42.27,33.53ZM54.53,41c-1.14,0-2.28,0-3.42,0-.45,0-.66-.09-.64-.6,0-1,0-1.94,0-2.91,0-.5.16-.64.63-.61s1.08,0,1.62,0c.37,0,.54-.11.49-.48v-.09c.1-2.12.1-2.14-2.05-2.16-.48,0-.69-.07-.7-.63,0-2.11-.05-2.11,2-2.11,1,0,1.94,0,2.91,0,.39,0,.53-.11.55-.53.13-2.22.14-2.22-2.1-2.22-.94,0-1.88,0-2.82,0-.46,0-.56-.15-.57-.58C50.4,26,50.38,26,52.54,26c.49,0,.68-.09.69-.65,0-2.06,0-2.08-2-2.08-.56,0-.72-.15-.72-.71,0-2,0-2,2-2,.94,0,1.88-.05,2.82,0s.74-.56.61-.93c-.23-.6.76-1.69-.59-1.79a39,39,0,0,0-4.19,0c-.51,0-.67-.12-.68-.66,0-2,0-2.07,2.06-2.07.57,0,.71-.18.71-.73,0-2,0-2-1.95-2-.61,0-.83-.11-.82-.78,0-2,0-2,1.93-2,1,0,2,0,3,0,.45,0,.56-.14.58-.58.07-2.16.09-2.16-2.07-2.16-.94,0-1.88,0-2.82,0-.41,0-.62-.07-.6-.55,0-1,0-2,0-3.08,0-.37.14-.48.5-.48,3.3,0,6.61,0,9.91,0,.68,0,.53.42.53.79q0,6.49,0,13c0,4.27,0,8.54,0,12.81a2.72,2.72,0,0,1-.36,1.37c-1.82,3.22-3.64,6.44-5.42,9.68A1.06,1.06,0,0,1,54.53,41Zm10-.17c-.08.18-.27.16-.44.16H58.42L60,38.23c.15-.28.3-.26.54-.12,1.27.8,2.55,1.58,3.83,2.37C64.48,40.56,64.67,40.64,64.57,40.86Zm9.27-16.49q-3.77,6.69-7.48,13.4c-.22.41-.39.52-.83.24-1.17-.76-2.36-1.48-3.56-2.19-.38-.23-.43-.42-.21-.81q3.8-6.72,7.55-13.47c.09-.16.14-.39.46-.36l.4.24c1.14.7,2.27,1.42,3.42,2.1C74,23.75,74.09,23.93,73.84,24.37Zm2.55-7.49c-.56,1.24-1.28,2.4-1.93,3.59-.1.18-.23.24-.41.12l-.15-.09c-1.93-1-1.93-1-.89-2.83.36-.64.71-1.28,1.08-1.92a1.26,1.26,0,0,1,1-.7A1.36,1.36,0,0,1,76.39,16.88Z"/><path class="b" d="M31.34,69.05c0,2.73,0,5.46,0,8.2,0,.56-.17.7-.72.7-2,0-2,0-2-2,0-5,0-10,0-14.94,0-.68.19-.85.85-.83,1.91,0,1.91,0,1.91,1.9Z"/><path class="b" d="M30,54.69c1.33,0,1.33,0,1.33,1.6,0,1.14,0,1.14-1.71,1.14-1,0-1,0-1-1.73C28.6,54.69,28.6,54.69,30,54.69Z"/><path class="b" d="M103.93,44.48h.1a5.2,5.2,0,0,0,.19-10.39,5.3,5.3,0,0,0-3.84,1.44,5.24,5.24,0,0,0,3.55,8.94Zm.08-8.17h0a3.06,3.06,0,0,1,2.15,1,2.93,2.93,0,0,1,.8,2.13,3.08,3.08,0,0,1-3,2.86,3,3,0,0,1-2.11-1,3,3,0,0,1-.82-2.15A3,3,0,0,1,104,36.31Z"/><path class="b" d="M91.17,30.69h0a3.36,3.36,0,0,0,2.42-1,3.46,3.46,0,0,0,1-2.47,3.45,3.45,0,0,0-3.46-3.45,3.59,3.59,0,0,0-3.49,3.48A3.56,3.56,0,0,0,91.17,30.69Zm1.17-3.58c-.07.84-.44,1.26-1.12,1.3A1.05,1.05,0,0,1,90,27.31a1.09,1.09,0,0,1,1.1-1.26h.16C91.81,26,92.16,26.39,92.34,27.11Z"/><path class="b" d="M36.91,97.41h0a3.41,3.41,0,0,0,2.43-1,3.53,3.53,0,0,0,0-4.94,3.51,3.51,0,0,0-2.42-1,3.47,3.47,0,1,0,0,6.93Zm1.16-3.58c-.07.83-.43,1.26-1.11,1.3A1.06,1.06,0,0,1,35.73,94a1.08,1.08,0,0,1,1.1-1.25H37C37.55,92.76,37.89,93.1,38.07,93.83Z"/></svg>