<svg xmlns="http://www.w3.org/2000/svg" viewBox="0 0 133.08 107.23"><defs><style>.a{fill:#fff;opacity:0.47;}.b{fill:#333;}</style></defs><path class="a" d="M53,11.31C17.12,27.21-6,55.76,1.37,75.07S51.68,117.88,87.55,102s51.08-65.18,43.72-84.49S88.87-4.58,53,11.31Z"/><path class="b" d="M111,23.94h.1a5.26,5.26,0,0,0,5.23-5.28,5.45,5.45,0,0,0-1.41-3.86,5,5,0,0,0-3.63-1.73,5.18,5.18,0,0,0-3.86,1.51,5.49,5.49,0,0,0-1.54,3.88A5.25,5.25,0,0,0,111,23.94Zm.07-8.55h0a3,3,0,0,1,2.15,1,3.11,3.11,0,0,1,.81,2.22,3.16,3.16,0,0,1-3,3,3,3,0,0,1-2.13-1,3.26,3.26,0,0,1-.82-2.26A3.09,3.09,0,0,1,111,15.39Z"/><path class="b" d="M32.91,105.45h0a3.37,3.37,0,0,0,2.44-1,3.79,3.79,0,0,0,0-5.17,3.45,3.45,0,0,0-2.44-1,3.68,3.68,0,0,0-3.5,3.65A3.64,3.64,0,0,0,32.91,105.45Zm1.17-3.74c-.07.87-.44,1.32-1.12,1.36a1.08,1.08,0,0,1-1.24-1.16,1.12,1.12,0,0,1,1.1-1.31H33C33.55,100.59,33.9,101,34.08,101.71Z"/><path class="b" d="M90.5,7.24h0a3.35,3.35,0,0,0,2.44-1,3.67,3.67,0,0,0,1-2.59A3.65,3.65,0,0,0,92.9,1a3.4,3.4,0,0,0-2.43-1A3.69,3.69,0,0,0,87,3.65,3.64,3.64,0,0,0,90.5,7.24ZM91.67,3.5c-.07.87-.44,1.32-1.12,1.36S89.37,4.5,89.32,3.7a1.12,1.12,0,0,1,1.1-1.31h.16C91.14,2.38,91.49,2.74,91.67,3.5Z"/><path class="b" d="M24.81,90.62v-63s.1,0,.12-.08c2.9-4.36,5.85-8.69,8.67-13.1,1.3-2,2.8-3.62,5.23-4.16H92.37a8.16,8.16,0,0,1,5.18,4.1c1.88,3,3.9,5.91,5.87,8.86,1,1.46,2,2.92,3,4.38v63a2.08,2.08,0,0,1-1.93,1.13q-15.69,0-31.39,0c-1.18,0-1.89-.59-1.9-1.57s.7-1.61,1.93-1.61c2.31,0,4.62,0,6.93,0,.65,0,.82-.2.79-.8a22.73,22.73,0,0,1,0-2.86c.07-.8-.23-1-1-1.1A25.15,25.15,0,0,1,70.29,81c-1.37-.7-1.59-1.23-1.08-2.69,1.91-5.47,3.8-11,5.73-16.41a2.65,2.65,0,0,0,0-1.84c-.94-2.84-1.87-5.68-2.74-8.54a6.33,6.33,0,0,1,6.19-8.34c1.26,0,1.79.44,2,1.68a2,2,0,0,0,2,1.88,2,2,0,0,0,2-1.89c.2-1.28.68-1.68,2-1.67a6.35,6.35,0,0,1,6.13,8.51Q91.1,56,89.69,60.23a2.21,2.21,0,0,0,0,1.52q2.93,8.32,5.81,16.64a1.73,1.73,0,0,1-1,2.54,25,25,0,0,1-9.61,2.87c-.74.06-1,.29-1,1a18.72,18.72,0,0,1,0,2.7c0,.77.14,1,1,1q8.66-.06,17.29,0c.77,0,1-.18,1-.95q0-26,0-51.92v-.81c-.15,0-.23,0-.3.07a7.19,7.19,0,0,1-9-1.32c-.37-.43-.51-.08-.72.13a7.14,7.14,0,0,1-10.38,0c-.31-.31-.44-.37-.79,0a7.1,7.1,0,0,1-10.42,0c-.35-.35-.48-.29-.79,0a7.13,7.13,0,0,1-10.32.06c-.41-.41-.57-.39-1,0a7.13,7.13,0,0,1-10.26,0c-.35-.35-.5-.43-.89,0a7.12,7.12,0,0,1-10.32,0c-.39-.4-.55-.33-.9,0A7,7,0,0,1,32.57,36,7.63,7.63,0,0,1,28,34.81V69.17q0,9.3,0,18.61c0,.44-.06.79.62.78q9,0,18.09,0c.52,0,.61-.2.6-.65a25.35,25.35,0,0,1,0-3c.06-.8-.21-1-1-1.08A25,25,0,0,1,36.78,81c-1.35-.7-1.59-1.27-1.09-2.69Q38.57,70,41.48,61.75a2.3,2.3,0,0,0,0-1.53c-1-3-2-5.92-2.84-8.92a6.28,6.28,0,0,1,5.9-8.11c1.62-.07,2,.23,2.31,1.82a2,2,0,0,0,2.05,1.73,2,2,0,0,0,1.88-1.81c.21-1.35.7-1.78,2.07-1.74a7.51,7.51,0,0,1,1.42.14A6.33,6.33,0,0,1,59,51.53c-.88,2.88-1.83,5.75-2.77,8.61a2.46,2.46,0,0,0,0,1.69Q59.11,70,62,78.24c.54,1.55.34,2.06-1.12,2.8a25.25,25.25,0,0,1-9.41,2.76c-.78.06-1,.31-1,1.09a22.74,22.74,0,0,1,0,2.86c0,.6.1.87.77.81s1.49,0,2.23,0c1.65,0,3.29,0,4.94,0A1.55,1.55,0,0,1,60,90.16a1.58,1.58,0,0,1-1.58,1.57h-.55q-15.47,0-30.92,0A2.17,2.17,0,0,1,24.81,90.62Zm24.1-28c-1.22,0-2.45,0-3.67,0a.79.79,0,0,0-.92.62Q41.77,70.6,39.17,78c-.16.44-.08.64.36.82a23,23,0,0,0,18.55,0c.46-.19.59-.38.41-.88q-2.61-7.38-5.14-14.77a.75.75,0,0,0-.86-.58C51.3,62.63,50.1,62.61,48.91,62.61Zm33.44,0c-1.25,0-2.49,0-3.74,0a.66.66,0,0,0-.74.53Q75.3,70.55,72.7,78c-.16.45-.08.66.35.85a22.94,22.94,0,0,0,18.63,0c.38-.16.51-.32.36-.75q-2.62-7.46-5.21-14.91a.64.64,0,0,0-.74-.52C84.85,62.63,83.6,62.61,82.35,62.61Zm0-3.18c1.22,0,2.44,0,3.66,0,.35,0,.6,0,.73-.42.91-2.9,1.87-5.79,2.74-8.7A3.08,3.08,0,0,0,88,46.74c-.42-.23-.68-.29-1,.28a5.17,5.17,0,0,1-9.29,0c-.25-.51-.49-.49-.91-.27a3.16,3.16,0,0,0-1.55,3.79c.87,2.81,1.79,5.59,2.67,8.39.14.45.37.55.8.54C79.93,59.42,81.15,59.43,82.37,59.43Zm-33.59,0c1.25,0,2.5,0,3.74,0a.64.64,0,0,0,.75-.5c.89-2.83,1.82-5.64,2.69-8.47a3.15,3.15,0,0,0-1.59-3.77c-.41-.2-.63-.2-.86.26a5.17,5.17,0,0,1-9.33,0c-.27-.54-.52-.46-.92-.25a3.17,3.17,0,0,0-1.51,3.87c.87,2.77,1.78,5.53,2.65,8.31.14.45.38.54.8.53C46.4,59.42,47.59,59.43,48.78,59.43ZM86.66,13.51a2.06,2.06,0,0,0,0,.25Q90.46,20,94.23,26.2a.84.84,0,0,0,.85.43h6c.18,0,.37.06.52-.1,0-.06,0-.12,0-.15-2.57-3.86-5.13-7.73-7.71-11.57a2.8,2.8,0,0,0-2.28-1.28C90,13.47,88.35,13.51,86.66,13.51ZM29.38,26.62c2.3,0,4.41,0,6.53,0A1.19,1.19,0,0,0,37.1,26c2.34-3.9,4.71-7.79,7.06-11.68a1.34,1.34,0,0,0,.34-.78c-1.35,0-2.69.06-4,0a3.81,3.81,0,0,0-3.69,2C35.6,17.36,34.33,19.18,33.1,21Zm57.57,0c1,0,2.07,0,3.1,0,.55,0,.66-.11.36-.61q-3.69-6-7.33-12.08a.77.77,0,0,0-.75-.45c-1.44,0-2.87,0-4.3,0-.47,0-.54.12-.34.54q2.78,6.06,5.51,12.14a.67.67,0,0,0,.72.46C84.93,26.61,85.94,26.62,87,26.62Zm-42.8,0c1,0,2,0,3,0a.74.74,0,0,0,.81-.47Q50.71,20.09,53.49,14c.19-.4.15-.55-.34-.54q-2.15,0-4.29,0a.74.74,0,0,0-.72.37Q44.45,20,40.74,26.08c-.26.43-.16.55.31.55C42.08,26.61,43.11,26.62,44.15,26.62Zm10.79,0c1,0,2,0,2.94,0,.47,0,.7-.09.79-.61.68-4,1.4-8,2.12-12,.07-.38,0-.59-.45-.57-.88,0-1.75,0-2.63,0a.62.62,0,0,0-.67.41Q54.3,20,51.53,26c-.22.48-.1.61.38.6C52.92,26.61,53.93,26.62,54.94,26.62Zm21.23,0c1,0,2.07,0,3.1,0,.51,0,.58-.14.38-.6q-2.76-6-5.48-12a.67.67,0,0,0-.7-.49c-.88,0-1.75,0-2.63,0-.39,0-.52.12-.45.51q1.11,6.08,2.17,12.17c.07.38.25.46.59.46Zm-10.59,0c1,0,2.07,0,3.1,0,.6,0,.7-.15.6-.72C68.56,22,67.87,18,67.18,14c-.06-.37-.2-.56-.61-.54-.66,0-1.33,0-2,0-.38,0-.5.17-.56.5q-1,6-2.12,12c-.09.48,0,.61.49.6C63.45,26.61,64.52,26.62,65.58,26.62ZM32,29.8H28.7c-.42,0-.58.07-.4.54a4,4,0,0,0,7.4,0c.17-.44,0-.56-.39-.56Zm11.2,0c-1.11,0-2.23,0-3.34,0-.53,0-.56.18-.39.61a4,4,0,0,0,7.33.05c.21-.49.14-.67-.42-.66C45.36,29.82,44.3,29.8,43.24,29.8Zm33.55,3a4,4,0,0,0,3.65-2.37c.19-.44.15-.62-.38-.62H73.45c-.46,0-.53.14-.37.56A4,4,0,0,0,76.79,32.79Zm22.44-3c-1.09,0-2.18,0-3.27,0-.53,0-.65.13-.43.64a4,4,0,0,0,7.34,0c.23-.54,0-.62-.46-.61C101.35,29.82,100.29,29.8,99.23,29.8Zm-44.81,0c-1.09,0-2.17,0-3.26,0-.55,0-.63.16-.42.65a4,4,0,0,0,7.33,0c.17-.43.15-.63-.39-.61C56.6,29.82,55.51,29.8,54.42,29.8Zm11.17,0H62.34c-.44,0-.65.05-.43.57a4,4,0,0,0,7.38,0c.16-.42.11-.57-.36-.56C67.82,29.82,66.7,29.81,65.59,29.8ZM88,29.8c-1.09,0-2.18,0-3.26,0-.59,0-.6.2-.4.66a4,4,0,0,0,7.32-.05c.18-.45.11-.62-.4-.61C90.17,29.82,89.08,29.8,88,29.8Z"/><path class="b" d="M65.62,91.73a1.59,1.59,0,1,1,1.56-1.57A1.61,1.61,0,0,1,65.62,91.73Z"/></svg>