<svg xmlns="http://www.w3.org/2000/svg" viewBox="0 0 133.79 118.27"><defs><style>.a{fill:#fff;opacity:0.47;}.b{fill:#333;}</style></defs><path class="a" d="M53.7,22.35C17.82,38.25-5.29,66.8,2.07,86.11S52.38,128.92,88.26,113,139.34,47.84,132,28.53,89.57,6.46,53.7,22.35Z"/><path class="b" d="M93.28,0a16.51,16.51,0,0,1,2,.65,7.53,7.53,0,0,1,4.64,7.18c0,5.92,0,11.83,0,17.75q0,23.57,0,47.13c0,1,.27,1.17,1.19,1.17,7.67,0,15.34,0,23,0,.81,0,1,.2,1,1q0,14.87,0,29.71c0,1-.33,1.08-1.16,1.08H19.43V45.39a2.39,2.39,0,0,0,.13-.28c1.3-4.41,3.84-6.32,8.42-6.32,6.53,0,13.06,0,19.59,0,.94,0,1.18-.24,1.17-1.18q0-14.85,0-29.7A7.5,7.5,0,0,1,53.11.8,16.6,16.6,0,0,1,55.32,0ZM67.91,73.91c0,9.21,0,18.42,0,27.63,0,.83.23,1,1,1,2.58,0,5.16-.06,7.74,0,.92,0,1.19-.21,1.18-1.17,0-8.8,0-17.6,0-26.4,0-1,.29-1.16,1.19-1.15,5.57,0,11.14,0,16.71,0,.9,0,1.13-.2,1.12-1.12q0-18.11,0-36.19c0-1-.29-1.11-1.15-1.1q-20.69,0-41.35,0c-2.61,0-2.59,0-2.52,2.59,0,.62.24.73.78.73,2.34,0,4.68,0,7,0,5.08,0,8.3,3.23,8.31,8.31Zm6.42-41.52c7.15,0,14.3,0,21.45,0,.79,0,1-.17,1-1,0-7.77,0-15.53,0-23.3a4.65,4.65,0,0,0-5-5q-17.41,0-34.85,0c-3.18,0-5.08,1.89-5.08,5.05,0,7.74,0,15.47,0,23.21,0,.88.26,1,1.09,1C60,32.38,67.18,32.39,74.33,32.39ZM64.81,78.31c0-7.76,0-15.53,0-23.3,0-.76-.17-1-.95-1q-20.22,0-40.43,0c-.8,0-.95.24-.95,1q0,23.25,0,46.51c0,.79.18,1,1,1q20.16,0,40.32,0c.85,0,1-.26,1-1C64.8,93.78,64.81,86.05,64.81,78.31Zm36.66,24.22c6.5,0,13,0,19.49,0,.82,0,1-.21,1-1q0-11.81,0-23.61c0-.74-.14-1-1-1q-19.59,0-39.18,0c-.78,0-1,.2-1,1q0,11.8,0,23.61c0,.92.3,1,1.11,1C88.48,102.52,95,102.53,101.47,102.53ZM43.65,51c6.73,0,13.47,0,20.21,0,.75,0,1-.16,1-.95-.07-1.17,0-2.34,0-3.51a4.59,4.59,0,0,0-4.58-4.62q-16.54,0-33.09,0a4.59,4.59,0,0,0-4.61,4.59c0,1.16,0,2.34,0,3.5-.06.86.28,1,1,1C30.24,51,37,51,43.65,51Z"/><path class="b" d="M82.76,55.1V45.82a4.65,4.65,0,1,1,9.28,0q0,9.33,0,18.66c0,2.91-1.93,5-4.6,5s-4.67-2.09-4.68-5Zm3.1.09c0,3.09,0,6.18,0,9.27,0,1.22.55,1.93,1.49,2s1.6-.7,1.6-2V45.91c0-1.23-.55-1.93-1.5-2s-1.59.7-1.59,2C85.85,49,85.86,52.1,85.86,55.19Z"/><path class="b" d="M74.1,50.44c0,1,0,2,0,3,0,.25.13.65-.25.68a24.67,24.67,0,0,1-2.58,0c-.33,0-.25-.35-.25-.58q0-3.2,0-6.39c0-.22-.08-.56.25-.58.86,0,1.72,0,2.57,0,.39,0,.26.43.26.68C74.1,48.31,74.1,49.38,74.1,50.44Z"/><path class="b" d="M72.55,60.35c-1.55,0-1.55,0-1.55-1.71,0-1.39,0-1.39,1.65-1.39,1.45,0,1.46,0,1.44,1.8C74.08,60.51,74.36,60.33,72.55,60.35Z"/><path class="b" d="M82.76,18.85c0-1.68,0-3.36,0-5.05a4.64,4.64,0,1,1,9.27,0c0,3.4,0,6.8,0,10.2a4.64,4.64,0,1,1-9.27,0C82.74,22.29,82.76,20.57,82.76,18.85Zm3.1,0c0,1.61,0,3.23,0,4.84,0,1.17.64,1.89,1.59,1.86s1.49-.72,1.5-1.85q0-4.83,0-9.68c0-1.17-.64-1.89-1.59-1.86s-1.49.72-1.5,1.85C85.85,15.64,85.86,17.26,85.86,18.87Z"/><path class="b" d="M66.29,6.19c2.3,0,4.59,0,6.89,0,.63,0,.82.16.83.8,0,2.3.07,2.3-2.19,2.3H60.08c-1.58,0-2.07.49-2.07,2.1,0,.72,0,1.44,0,2.16,0,.56-.19.67-.71.69-2.39.08-2.39.09-2.39-2.3A11.45,11.45,0,0,1,55,10.09,4.6,4.6,0,0,1,59.49,6.2C61.76,6.17,64,6.19,66.29,6.19Z"/><path class="b" d="M56.45,20.42c-1.54,0-1.54,0-1.54-1.79,0-1.31,0-1.31,1.81-1.31,1.29,0,1.29,0,1.29,1.84C58,20.42,58,20.42,56.45,20.42Z"/><path class="b" d="M25.62,75.76a18.05,18.05,0,1,1,18,18.11A18.07,18.07,0,0,1,25.62,75.76Zm18.06-14.9a15,15,0,1,0,14.94,15A15,15,0,0,0,43.68,60.86Z"/><path class="b" d="M55.12,96.34c1.44,0,2.88,0,4.33,0,.51,0,.71.12.74.67.13,2.43.15,2.43-2.29,2.43s-4.6,0-6.91,0c-.68,0-1-.13-1-.89,0-2.22,0-2.22,2.19-2.22Z"/><path class="b" d="M104.53,80.05c4.43,0,8.87,0,13.3,0,.74,0,1.06.1,1.06,1,0,5.84,0,11.68,0,17.52,0,.71-.16.93-.9.93q-13.56,0-27.12,0c-.74,0-.9-.23-.89-.93,0-5.84,0-11.68,0-17.53,0-.75.17-1,1-1C95.46,80.07,100,80.05,104.53,80.05Zm0,3.09c-3.51,0-7,0-10.52,0-.66,0-1,.08-1,.86,0,3.85,0,7.7,0,11.55,0,.61.14.82.8.82q10.56,0,21.13,0c.65,0,.8-.2.79-.82,0-3.84,0-7.69,0-11.54,0-.78-.29-.88-1-.87C111.4,83.16,108,83.14,104.53,83.14Z"/><path class="b" d="M84,83.35V80.57c0-.23-.07-.57.26-.58.86,0,1.72,0,2.57,0,.34,0,.26.35.26.57,0,1.93,0,3.85,0,5.78,0,.22.08.56-.26.58-.85,0-1.71,0-2.57,0-.38,0-.25-.43-.25-.68C84,85.27,84,84.31,84,83.35Z"/><path class="b" d="M87.09,91.58c0,1.57,0,1.57-1.58,1.57S84,93.15,84,91.31c0-1.26,0-1.26,1.69-1.26C87.09,90.05,87.09,90.05,87.09,91.58Z"/><path class="b" d="M85.63,96.24c1.46,0,1.46,0,1.46,1.79,0,1.31,0,1.31-1.73,1.31-1.36,0-1.37,0-1.36-1.9C84,96.08,83.74,96.26,85.63,96.24Z"/><path class="b" d="M34.38,44.77c2.1,0,4.2,0,6.29,0,.69,0,1,.14.95.9,0,2.21,0,2.21-2.18,2.21-3.75,0-7.5,0-11.24,0-.77,0-1.08-.15-1.06-1,0-2.11,0-2.11,2.09-2.11Z"/><path class="b" d="M47.79,46.23c0,1.63,0,1.63-1.51,1.63s-1.58,0-1.58-1.66c0-1.43,0-1.45,1.82-1.43C47.93,44.79,47.78,44.51,47.79,46.23Z"/><path class="b" d="M54,46.31c0,1.55,0,1.55-1.7,1.55-1.39,0-1.39,0-1.39-1.65,0-1.44,0-1.46,1.8-1.44C54.15,44.79,54,44.5,54,46.31Z"/><path class="b" d="M33.28,75.83c-.2,0-.41,0-.62,0-.78.12-.91-.27-.84-1a12.15,12.15,0,0,1,4.35-8.26c.51-.43.83-.46,1.18.15s1,1.11,1.09,1.71-.84.94-1.27,1.45A9.14,9.14,0,0,0,35,74.42C34.78,75.83,34.76,75.83,33.28,75.83Z"/><path class="b" d="M55.53,76.52a12.18,12.18,0,0,1-4.45,8.56c-.45.37-.72.39-1-.14s-1-1.15-1.15-1.79.83-.93,1.26-1.44a9.06,9.06,0,0,0,2.24-5.19c0-.52.2-.73.73-.7a10,10,0,0,0,1.64,0C55.45,75.77,55.63,76.08,55.53,76.52Z"/><path class="b" d="M43.78,86.05c.06-.41-.26-1.17.14-1.37a2.93,2.93,0,0,1,2.17-.37c.9.4.77,1.63,1.07,2.49.19.55-.47.45-.77.54-.49.14-1,.18-1.52.29-.83.19-1.24-.06-1.1-1A3.9,3.9,0,0,0,43.78,86.05Z"/><path class="b" d="M110.62,66.38h.12a6.11,6.11,0,0,0,6.2-6A6.22,6.22,0,0,0,111,54a6.31,6.31,0,0,0-4.58,1.72,6.25,6.25,0,0,0,4.24,10.66Zm.09-9.74h.05a3.59,3.59,0,0,1,2.55,1.17,3.44,3.44,0,0,1,1,2.53,3.68,3.68,0,0,1-3.58,3.42,3.63,3.63,0,0,1-2.52-1.16,3.54,3.54,0,0,1-1-2.57A3.6,3.6,0,0,1,110.71,56.64Z"/><path class="b" d="M4.2,93.42h0a4,4,0,0,0,2.89-1.19,4.14,4.14,0,0,0-2.93-7.06,4.13,4.13,0,1,0,0,8.25Zm1.38-4.27c-.08,1-.51,1.5-1.33,1.55a1.26,1.26,0,0,1-1.46-1.32,1.31,1.31,0,0,1,1.31-1.5h.19C5,87.87,5.37,88.29,5.58,89.15Z"/><path class="b" d="M118.74,30.32h0a4.09,4.09,0,0,0,2.89-1.19,4.14,4.14,0,0,0-2.94-7.07,4.13,4.13,0,1,0,0,8.26Zm1.38-4.27c-.08,1-.52,1.5-1.33,1.55a1.26,1.26,0,0,1-1.46-1.32,1.3,1.3,0,0,1,1.31-1.5h.18C119.49,24.77,119.91,25.18,120.12,26.05Z"/></svg>