<svg xmlns="http://www.w3.org/2000/svg" viewBox="0 0 133.08 106.24"><defs><style>.a{fill:#fff;opacity:0.47;}.b{fill:#333;}</style></defs><path class="a" d="M53,10.33C17.12,26.23-6,54.77,1.37,74.08S51.68,116.89,87.55,101s51.08-65.18,43.72-84.49S88.87-5.57,53,10.33Z"/><path class="b" d="M31,48.69a14.75,14.75,0,0,1-2.78-.64L28,48a1.67,1.67,0,0,0-1.32-.12,1.12,1.12,0,0,0-.55.74c-.36,1.2.77,1.58,1.44,1.81a16.38,16.38,0,0,0,4.52.87,3.92,3.92,0,0,1,1.43-2.43A20.33,20.33,0,0,1,31,48.69Z"/><path class="b" d="M129.43,56.71a8.8,8.8,0,0,0-4.36-2,17.82,17.82,0,0,0-3.69,0l-.41,0,1.7-1.66c1.73-1.7,3.23-3.16,4.73-4.68l.34-.31a2,2,0,0,0,.9-1.28,1.25,1.25,0,0,0-.4-.92,1.23,1.23,0,0,0-.93-.46c-.54,0-1,.48-1.31.9-.09.11-.19.22-.28.31-1.54,1.58-3.09,3.2-4.58,4.78-.52.55-1,1.11-1.57,1.66l-.23-.2a10,10,0,0,0-1.75-7.93c0-.06-.09-.13-.14-.2-.32-.43-.68-.91-1.21-1a1.23,1.23,0,0,0-.95.35c-.88.74-.28,1.48.12,2l.21.28c1.81,2.52,1.62,5.18.76,8.4-.08.31-.2.5-.32.54s-.33,0-.57-.25l-.57-.46c-1.25-1-2.43-2-2.54-3.89A15.8,15.8,0,0,0,110,43.63c-2-3.41-4.66-5-8.21-5a2.06,2.06,0,0,1-1.74-.76c-3.15-3.41-7.17-4.43-11.94-3l-.37.11a2,2,0,0,1-1.46.12c-2.54-.93-3.82-1.4-4.18-2.2s.11-2.09,1.08-4.66l.15-.4c.09-.21.17-.43.25-.65,1.13-3.11,1.24-5.07.33-6.35S81.1,19,77.75,19h-.24c-2.46.08-3.61,1.17-3.83,3.64a19.76,19.76,0,0,0,.79,6.5c.87,3.54.87,3.54-2.06,5.43l-.19.12a1.89,1.89,0,0,1-2.22.08c-.56-.32-.44-.63-.15-1.19a2.91,2.91,0,0,0,.21-.48,17.26,17.26,0,0,0,.88-7.18,13.76,13.76,0,0,0-10-11.82c-5-1.43-8.76.1-12.64,5.08-.66.86-1.32,1.75-1.95,2.61s-1.29,1.75-2,2.6a11.62,11.62,0,0,1-9.61,4.95h-.22a36.9,36.9,0,0,0-5.41.45c-7.79,1.08-11.64,4.91-12.48,12.42a1.86,1.86,0,0,1-.84,1.47c-3.7,2.67-5.89,6.06-6.34,9.81A15.26,15.26,0,0,0,12.64,64.2a3.75,3.75,0,0,1,1.15-.33,4.53,4.53,0,0,1,1.27-.47A13.86,13.86,0,0,1,12,55.89C11.61,52.08,13.09,49,16.78,46c2.6,5.8,5.89,9.13,10.68,10.41l.14-.25a5.83,5.83,0,0,1,1.94-2c-.4-.06-.8-.14-1.21-.23-6.59-1.53-10.13-6.72-9-13.22A9.33,9.33,0,0,1,26.14,33a27.79,27.79,0,0,1,8.66-1.2H35c4.78,0,8.65-2.12,11.84-6.5l.41-.56c1-1.42,2.11-2.89,3.2-4.3,2.93-3.75,5.82-5,9.39-4A11,11,0,0,1,68.31,25a13.37,13.37,0,0,1-.15,5.9c-.44,2.05-1,3.6-3.71,3.58-2.08,0-4.18,1.06-6.17,3.27a2.25,2.25,0,0,1-1.91.92c-3.47-.1-6.22,1.58-8.17,5A4.82,4.82,0,0,1,45.54,46a43.67,43.67,0,0,1-7.92,2.44,3.65,3.65,0,0,1,1.89,2.07,46.6,46.6,0,0,0,6.56-2.07c.17,3.08-1.52,4.15-4.1,4.79l-.44.11A4.53,4.53,0,0,1,42,55.66c.6-.16,1.21-.33,1.84-.53s1-.22,1.12-.1.19.68.17,1.12a33.34,33.34,0,0,0,0,3.74l.36-.15a2.51,2.51,0,0,1,1.33-.06,2.73,2.73,0,0,1,.8.18,46.33,46.33,0,0,1,.27-7.23,20.44,20.44,0,0,1,2-7,9.4,9.4,0,0,1,2.38-3.1A4.82,4.82,0,0,1,55,41.09a1.14,1.14,0,0,1,.58.15c.38.22.22.65-.31,1.6a6.64,6.64,0,0,0-.5,1,44.62,44.62,0,0,0,1.42,30.85c.17.41.35.81.57,1.3l.22.5c-3.18-.13-4.79-2.22-5.84-4.05a25.09,25.09,0,0,1-2.5-6.09,3.25,3.25,0,0,1-1.21.63l-.89.12h-.2c.23.92.5,1.85.81,2.77A18.82,18.82,0,0,0,50.61,76,30.27,30.27,0,0,1,40.1,76l-1.53-.26c0,.11-.11.22-.17.33a4.46,4.46,0,0,1-.54,2.13,71.06,71.06,0,0,0,10,.44,74.46,74.46,0,0,1,9.31.35A4.31,4.31,0,0,1,60,80.3c3.49,3.43,6.79,4,11,1.82.65-.32,1-.49,1.5,0a11.27,11.27,0,0,0,7.25,3l-1.68,2.41c-1.43,2-2.78,4-4.1,5.91a5.43,5.43,0,0,0-1,4.17,4.41,4.41,0,0,0,2.13,2.81,4.12,4.12,0,0,0,2.22.67A6.56,6.56,0,0,0,81,99.69q10.89-7.64,21.79-15.26l18.5-13c2.25-1.58,2.78-3.18,2-5.89a17,17,0,0,0-3.77-6.44c-.61-.68-.69-1-.64-1.12s.68-.42,1.26-.55c2.63-.57,5.41-.83,7.9,1.18a1.83,1.83,0,0,0,1.31.59,1.12,1.12,0,0,0,.75-.52C130.73,57.77,129.92,57.1,129.43,56.71Zm-19.51-5.55a12.92,12.92,0,0,1-1.49-.36,8.94,8.94,0,0,0-2.37-.43,3.67,3.67,0,0,0-.66.05.35.35,0,0,1-.27-.06.55.55,0,0,1-.2-.39,37.12,37.12,0,0,0-2.53-8.85C106.79,42.08,109.18,45.28,109.92,51.16ZM89,37.27c.12-.27.76-.39,1.31-.46a13.39,13.39,0,0,1,1.53-.1c3.45,0,6,1.64,7.9,5a25.12,25.12,0,0,1,2.89,9.73v.05a1.84,1.84,0,0,1-.16,1.3L93.57,65.58c.49-6.13.77-12.14-.48-18.15a22.81,22.81,0,0,0-3.6-9C89,37.74,88.94,37.42,89,37.27ZM76.43,22c.31-.31.88-.44,1.91-.44h.59l.38,0a11,11,0,0,1,1.45.18,1.83,1.83,0,0,1,1.27.77,1.67,1.67,0,0,1,0,1.38c-.51,1.51-1,3-1.56,4.54l-1.2,3.46c-.18.54-.42.72-.87.68s-.5-.21-.65-.7a34,34,0,0,1-1.68-8C76,22.87,76.12,22.32,76.43,22ZM70,79.72c-.06.21-.26.39-.68.61a5.53,5.53,0,0,1-5.91-.41c-2.53-1.65-4.36-4.15-5.77-7.88a42.18,42.18,0,0,1-2.51-14.48c.09-6.14.84-10.42,2.51-14.31,2.16-5,6.14-7.4,10.64-6.36.46.1.85.2.92.38s0,.32-.28.81c-3.68,6-5,12.89-4.47,22.41.48,7.73,2.16,13.58,5.3,18.44A1.08,1.08,0,0,1,70,79.72Zm6.2,2a13.79,13.79,0,0,1-5.56-6.11C67.5,69.32,67,62.52,66.8,58c.07-5.56.51-11.43,3.16-16.79C72.53,36,77,34,82.08,35.62c3.24,1.05,5.57,3.47,6.91,7.19,3,8.3,3.22,17,.7,26.57-.94,3.57-3.14,6.45-5.26,9.23-.75,1-1.53,2-2.24,3C81.28,83,78.49,83,76.22,81.73ZM121,66.57a2.18,2.18,0,0,1,.1.52l0,.22a1.8,1.8,0,0,1-.75,1.8,2.65,2.65,0,0,0-.26.21l-.1.08c-4.71,3.76-4.71,3.76-8.94-.48l-.83-.84c-1-1-2-2-3-3a5.76,5.76,0,0,1-.4-.43c-.38-.45-.81-1-1.37-1a1.16,1.16,0,0,0-.87.38,1.35,1.35,0,0,0-.49,1c0,.59.56,1,1,1.41a5.3,5.3,0,0,1,.47.41c1.32,1.39,2.71,2.77,4,4.1.81.81,1.63,1.62,2.43,2.44l.24.22c.21.19.47.41.46.59s-.12.24-.33.38A4.7,4.7,0,0,0,112,75c-.58.51-.94.77-1.54.16-1.34-1.35-2.65-2.67-4-4l-.14-.13c-.43-.43-1.06-1.06-1.9-.31a1.24,1.24,0,0,0-.47.82,1.63,1.63,0,0,0,.57,1.1l.23.27a5,5,0,0,0,.45.47l.2.19c1.78,1.79,2.76,2.78,2.69,3.53s-1.25,1.55-3.39,3c-.33.23-.68.45-1,.67a16.16,16.16,0,0,0-2.48,1.8,2.22,2.22,0,0,1-1.6.8c-.53,0-1-.39-1.7-1.17a25.83,25.83,0,0,0-2.55-2.57,5.24,5.24,0,0,1-.38-.41,1.94,1.94,0,0,0-1.22-.86,1.21,1.21,0,0,0-.87.39,1.19,1.19,0,0,0-.45.88A2.11,2.11,0,0,0,93.34,81a3.63,3.63,0,0,1,.28.27l.63.65c.76.8,1.56,1.62,2.38,2.39.35.33.52.59.5.8s-.22.45-.62.73c-3,2.07-6,4.16-9,6.24s-5.68,4-8.53,5.94c-1.19.83-2.12.82-2.94,0s-.9-1.89,0-3.14l1.75-2.52c.91-1.28,1.84-2.61,2.72-3.94.27-.4.5-.6.7-.61h0c.2,0,.45.18.76.55a18.38,18.38,0,0,0,1.94,1.91,1.17,1.17,0,0,0,1.74,0,1.23,1.23,0,0,0,0-1.74,3,3,0,0,0-.42-.45c-.07-.07-.15-.14-.22-.22-2.34-2.48-2.34-2.48-.34-5.35.89-1.29,1.8-2.56,2.7-3.84C89.15,76.2,91,73.59,92.74,71c.42-.63.76-.95,1.06-1s.64.24,1.16.84c.65.77,1.39,1.48,2.1,2.17l.91.88.08.08a1.93,1.93,0,0,0,1.24.75h0a1.22,1.22,0,0,0,.89-.46c.79-.82.12-1.49-.28-1.9l-.14-.14c-1.21-1.27-2.4-2.51-3.66-3.65-.79-.72-.84-1.24-.19-2.15,2.86-4,5.76-8.12,8.65-12.3a2.24,2.24,0,0,1,2.79-1.06A24,24,0,0,1,121,66.57Z"/><path class="b" d="M65.23,84.52h0a5.78,5.78,0,0,0-4.15,1.75,5.85,5.85,0,0,0,4.09,9.93h.07a5.84,5.84,0,0,0,0-11.68Zm3.42,5.85h0a3.5,3.5,0,0,1-3.39,3.32,3.22,3.22,0,0,1-2.41-1A3.44,3.44,0,0,1,63,87.84,3.23,3.23,0,0,1,65.21,87h.11A3.58,3.58,0,0,1,68.65,90.37Z"/><path class="b" d="M114.21,40.12h.11a5.69,5.69,0,0,0,.2-11.37,5.79,5.79,0,0,0-4.2,1.57,5.65,5.65,0,0,0-1.68,4.07A5.58,5.58,0,0,0,114.21,40.12Zm.08-8.94h0a3.35,3.35,0,0,1,2.34,1.07,3.16,3.16,0,0,1,.88,2.33,3.37,3.37,0,0,1-3.29,3.13,3.35,3.35,0,0,1-3.21-3.41A3.32,3.32,0,0,1,114.29,31.18Z"/><path class="b" d="M33.22,28.08h.15A4.79,4.79,0,0,0,37,20a4.87,4.87,0,0,0-3.5-1.56,4.93,4.93,0,0,0-4.93,4.72,4.68,4.68,0,0,0,1.29,3.39A4.85,4.85,0,0,0,33.22,28.08Zm.15-7.14h0a2.18,2.18,0,0,1,2.35,2.24,2.37,2.37,0,1,1-4.73,0A2.16,2.16,0,0,1,33.37,20.94Z"/><path class="b" d="M42.08,87.65a3.9,3.9,0,0,0-2.72,1.16,3.72,3.72,0,0,0-1.09,2.64,3.93,3.93,0,0,0,3.82,3.8h0a3.83,3.83,0,0,0,3.76-3.84,3.75,3.75,0,0,0-1.1-2.67A3.81,3.81,0,0,0,42.08,87.65Zm0,2.45a1.25,1.25,0,0,1,1.34,1.25,1.37,1.37,0,0,1-.28,1,1.27,1.27,0,0,1-.92.36,1.17,1.17,0,0,1-1.34-1.22C40.77,90.73,41.13,90.31,42,90.1Z"/><path class="b" d="M92.94,28.55h0a3.74,3.74,0,0,0,2.66-1.09A3.8,3.8,0,0,0,92.9,21a3.79,3.79,0,1,0,0,7.57Zm1.27-3.91c-.07.91-.47,1.37-1.22,1.42a1.15,1.15,0,0,1-1.34-1.21,1.19,1.19,0,0,1,1.2-1.38H93C93.64,23.46,94,23.84,94.21,24.64Z"/><path class="b" d="M60,17.92a4.25,4.25,0,0,0-3.41.35,2.89,2.89,0,0,0-1.24,2.09c-.48,3.24-2.22,5.81-5.48,8.11l-.08.05c-.42.3-.89.63-1,1.13a1.21,1.21,0,0,0,.31.93c.69.9,1.49.33,2,0l.13-.09c3.7-2.56,5.69-5.3,6.26-8.62.14-.83.39-1.33.77-1.54s1-.14,1.92.24c2.75,1.13,4.65,4.33,4.73,8a5,5,0,0,1-.22,1.13c-.21.73-.42,1.49-.06,2a1.34,1.34,0,0,0,1,.49h.14a1.24,1.24,0,0,0,.87-.3,2.74,2.74,0,0,0,.52-2,4,4,0,0,1,.13-1.18v-.07C67.45,23.78,64.15,19,60,17.92Z"/><path class="b" d="M85.37,41.84a2.16,2.16,0,0,0-.7-1.47,1.2,1.2,0,0,0-.93-.12c-1.13.25-.9,1.4-.79,2,1.48,7.58,1.27,15.3.87,21.85v.17c0,.68-.12,1.72,1.1,1.84h.19a1.11,1.11,0,0,0,.76-.26,2,2,0,0,0,.42-1.5v-.06c0-2,0-3.94,0-5.87v-2.2A58.08,58.08,0,0,0,85.37,41.84Z"/><path class="b" d="M75.85,75.49c-.1-.43-.21-.95-.3-1.47a93.6,93.6,0,0,1-1.39-14.89V59a1.93,1.93,0,0,0-.38-1.43,1.14,1.14,0,0,0-.88-.29,1.17,1.17,0,0,0-.86.33A1.9,1.9,0,0,0,71.74,59a1.93,1.93,0,0,1,0,.24l0,.76c0,1.74.07,3.54.22,5.3a75.45,75.45,0,0,0,1.55,11.12c.11.44.34,1.41,1.28,1.41l.31,0c.68-.14,1-.74.83-1.77Z"/><path class="b" d="M50.83,60.59c1.15-.84-.13-2.71-1.23-2.86a7.07,7.07,0,0,0-3.8.92,9.82,9.82,0,0,1-3.95,1c3.07-.31.33-7.26-.58-8.4s-2-2.1-3-3.16-2.6-3-4.38-2.29c-1.46.56-1.85,2.56-2.28,3.86-.64,1.91-1.11,3.57-3.51,3.78a3.31,3.31,0,0,0-2,1.38c-.52.63-.78.49-1.31,0C22,52.14,19,51.67,16.21,53.36s-3.75,4.51-2.78,8c.18.66.25.94-.5,1.27-4.63,2-5.78,4.38-4.47,9.09.16.56.36.93-.43,1.11A6.63,6.63,0,0,0,10,86a7.16,7.16,0,0,0,5-2.7c2,2.4,4.45,3.63,7.65,2.75,1.48-.41,2.46-2.25,3.63-2.11s2.11,1.71,3.54,2.08c2.43.64,6.3,0,7-2.85.26-1,.44-2.38.79-3.64a5.35,5.35,0,0,1,1.24-2.42c1.41-1.36,3.15-.81,4.08-2.68.69-1.38,1.9-6.55-.09-7.52,2.37,1.16,4.48,2,6.43,0,1.53-1.59,1.3-3.45-.68-6.58.18-.26,1.78.57,2.09.38ZM33.4,51.51c1.41-3.6.93-3.51,3.89-1.1a7.09,7.09,0,0,1,3,5.48,5.39,5.39,0,0,1-.55,2.47c-.42.91-.84,2.3-1.8,2.25s-.46-1.48-.67-2.28a6,6,0,0,0-2.86-4.13A1.82,1.82,0,0,1,33.4,51.51Zm-2.75,3.8A4.32,4.32,0,1,1,30.82,64a4.4,4.4,0,0,1-4.37-4.25A4.35,4.35,0,0,1,30.65,55.31Zm-11-.56a4.42,4.42,0,0,1,4.27,4.35,4.24,4.24,0,0,1-4.23,4.11,4.23,4.23,0,1,1,0-8.46ZM9.42,83.64a4.29,4.29,0,0,1,.11-8.58,4.22,4.22,0,0,1,4.29,4.24A4.29,4.29,0,0,1,9.42,83.64Zm5.14-10.18A4.35,4.35,0,1,1,18.88,69,4.36,4.36,0,0,1,14.56,73.46Zm6,10.6a4.31,4.31,0,0,1-4.34-4.43,4.34,4.34,0,1,1,8.67,0A4.26,4.26,0,0,1,20.61,84.06Zm5.28-10.12a4.35,4.35,0,1,1,4.2-4.4A4.39,4.39,0,0,1,25.89,73.94Zm5.86,10a4.32,4.32,0,0,1-.17-8.63,4.32,4.32,0,1,1,.17,8.63ZM37.1,74.4a4.42,4.42,0,0,1-4.48-4.3,4.34,4.34,0,0,1,4.29-4.28,4.29,4.29,0,0,1,.19,8.58Zm5-8.9a19.33,19.33,0,0,0-3.3-1.92,7.81,7.81,0,0,1,3.37-1.32A5.78,5.78,0,0,0,42.06,65.5ZM48,64.38c-.14.94-.76,1.37-1.9,1.23-.93-.24-2-.62-1.78-1.94.13-.82.32-1.87,1.55-1.83A2.47,2.47,0,0,1,48,64.38Z"/></svg>