<svg xmlns="http://www.w3.org/2000/svg" viewBox="0 0 133.08 117.66"><defs><style>.a{fill:#fff;opacity:0.47;}.b{fill:#333;}</style></defs><path class="a" d="M53,21.75C17.12,37.65-6,66.2,1.37,85.51s50.31,42.81,86.18,26.91,51.08-65.18,43.72-84.49S88.87,5.85,53,21.75Z"/><path class="b" d="M40.22,70.08c0,.9,0,1.79,0,2.68,0,.6.09.82.75.65a73.37,73.37,0,0,1,20.4-2.11,70,70,0,0,1,16,2.07c.63.16.84.1.85-.62a41.72,41.72,0,0,1,.17-6.52A11.21,11.21,0,0,1,89.36,57,11.07,11.07,0,0,1,91.71,78.9c-.66.15-.85.37-.83,1,0,1.81,0,3.63,0,5.44a6.27,6.27,0,0,1-5.54,6.42c-.72.1-.82.35-.8,1,0,1.22,0,2.44,0,3.66a1.61,1.61,0,0,1-1.79,1.77c-1.42,0-2.84,0-4.26,0A1.85,1.85,0,0,1,76.65,97c-.73-1.51-1.51-3-2.23-4.52a1,1,0,0,0-1.07-.64q-14.1,0-28.2,0a1.07,1.07,0,0,0-1.14.69c-.7,1.49-1.49,2.94-2.19,4.43a2,2,0,0,1-2,1.23c-1.35,0-2.71,0-4.06,0a1.61,1.61,0,0,1-1.84-1.81c0-1.26,0-2.51,0-3.76,0-.5-.06-.72-.66-.81a6.3,6.3,0,0,1-5.69-6.58c0-1.75,0-3.5,0-5.25,0-.69-.18-.92-.87-1.08A11.07,11.07,0,1,1,40.2,67.51c0,.86,0,1.72,0,2.57Zm19,18.6H84.31a3.16,3.16,0,0,0,3.41-3.39c0-2.38,0-4.75,0-7.13,0-1.59.44-2.06,2-2.16a7.92,7.92,0,1,0-8.16-9.32,35.48,35.48,0,0,0-.17,5.92c0,1.91,0,1.91,1.74,2.61,2.28.92,2.26.91,1.06,3.07-.31.55-.55.63-1.13.37a51.69,51.69,0,0,0-15.78-3.81,78.66,78.66,0,0,0-16.09,0A56.26,56.26,0,0,0,36.77,78c-.71.27-1.5,1-2.13.69s-.8-1.31-1.23-2c-.32-.49-.13-.69.31-.87.89-.35,1.76-.76,2.66-1.08a.87.87,0,0,0,.69-1c0-1.91,0-3.82,0-5.73A7.91,7.91,0,1,0,28.83,76c1.37.07,1.88.6,1.89,2,0,2.28,0,4.56,0,6.83,0,2.7,1.16,3.87,3.83,3.87ZM40.82,91.85h-1.6c-2.18,0-2.19,0-2.15,2.19,0,.32-.31.94.32.94s1.52.41,2-.31A29.51,29.51,0,0,0,40.82,91.85Zm36.81,0L79,94.62a.65.65,0,0,0,.5.4c1.55.3,1.88,0,1.88-1.5,0-.36,0-.72,0-1.08s-.18-.61-.63-.6C79.79,91.87,78.81,91.85,77.63,91.85Z"/><path class="b" d="M113.07,45.93q0,19.5,0,39c0,3.89-2,6.26-5.79,6.89-.51.09-.55.3-.54.7,0,1.25,0,2.51,0,3.76s-.58,1.9-2,1.91-2.7,0-4.06,0A1.85,1.85,0,0,1,98.84,97c-.74-1.51-1.52-3-2.23-4.52a1,1,0,0,0-1.14-.67,5.45,5.45,0,0,1-.7,0c-2.53,0-2.6-.11-2.3-2.69.07-.69.52-.47.85-.47h12.77a4.16,4.16,0,0,0,2-.34,3.14,3.14,0,0,0,1.76-2.57,9.91,9.91,0,0,0,0-1.09q0-38.74,0-77.49c0-2.51-1.32-4.12-4.11-4.07-6.16.13-12.33.06-18.5,0-.93,0-1.2.18-1.2,1.16,0,10.33,0,20.65,0,31,0,.84-.12,1.2-1.09,1.16C83,36.37,83,36.43,83,34.33q0-15,0-30.09c0-.85-.18-1.1-1.07-1.09-6.37,0-12.73,0-19.1,0-2.35,0-3.65,1.26-3.58,3.6,0,1-.24,1.21-1.19,1.18-2.24-.08-2.24,0-2-2.31A6.34,6.34,0,0,1,62.45,0C68.71,0,75,0,81.25,0H106c4.52,0,7.07,2.55,7.07,7Q113.07,26.49,113.07,45.93ZM99.83,91.85c.19.41.29.65.4.88.31.62.64,1.22.92,1.85a.75.75,0,0,0,.77.45c1.64.07,1.64.08,1.64-1.55,0-.36,0-.72,0-1.08s-.17-.56-.58-.56C102,91.86,101,91.85,99.83,91.85Z"/><path class="b" d="M54,33.26c-2.21,0-4.42,0-6.62,0-.6,0-.88.13-.78.76a1.34,1.34,0,0,1,0,.4c-.06.64.31,1.61-.15,1.87-.77.42-1.79.12-2.71.13-.34,0-.3-.29-.3-.51a17.61,17.61,0,0,1,0-1.78c.07-.69-.17-.88-.87-.88-4.25,0-8.5,0-12.76,0-1.81,0-2.33-.6-2.17-2.43q.76-8.92,1.52-17.84c.12-1.43.61-1.9,2.07-1.9,3.76,0,7.52,0,11.28,0,.72,0,1-.16.94-.92,0-2.3,0-2.27,2.3-2.29.71,0,.87.21.86.89,0,2.3,0,2.3,2.27,2.3h9.7c1.74,0,2.16.39,2.3,2.08q.75,8.88,1.51,17.74c.15,1.75-.4,2.35-2.16,2.35Zm-9-3.17c4.35,0,8.7,0,13.05,0,.94,0,1.06-.3,1-1.12q-.63-7-1.18-14.08c0-.61-.32-.68-.81-.67-1.75,0-3.49,0-5.24,0H33.1c-.47,0-.94-.14-1,.67Q31.56,22,30.92,29.11c-.07.74.08,1,.91,1C36.21,30.07,40.59,30.09,45,30.09Z"/><path class="b" d="M59.22,39.59H84c4.35,0,6.92,2.6,6.93,7,0,2.14,0,4.29,0,6.43,0,.72-.21.87-.89.86-2.29,0-2.29,0-2.29-2.31,0-1.81,0-3.63,0-5.44a3.17,3.17,0,0,0-3.36-3.35H34.09a3.18,3.18,0,0,0-3.37,3.35c0,2.31,0,4.62,0,6.92,0,.65-.17.83-.82.83-2.36,0-2.36,0-2.36-2.34V46.67c0-4.51,2.55-7.08,7-7.08Z"/><path class="b" d="M52.89,50.7c0,1.56,0,1.56-1.92,1.56-1.25,0-1.25,0-1.25-1.94,0-1.23,0-1.23,2-1.23C52.89,49.1,52.89,49.1,52.89,50.7Z"/><path class="b" d="M68.73,50.74c0,1.52,0,1.52-1.58,1.52s-1.59,0-1.59-1.6,0-1.57,1.52-1.57S68.73,49.09,68.73,50.74Z"/><path class="b" d="M45,58.55c0,1.63,0,1.63-1.66,1.63-1.5,0-1.5,0-1.5-1.49,0-1.68,0-1.68,1.7-1.68C45,57,45,57,45,58.55Z"/><path class="b" d="M57.64,58.51c0-1.5,0-1.5,1.5-1.5,1.67,0,1.67,0,1.67,1.63a5.14,5.14,0,0,0,0,.68c.11.7-.17,1-.86.86a3.87,3.87,0,0,0-.59,0C57.64,60.18,57.64,60.18,57.64,58.51Z"/><path class="b" d="M76.64,58.68c0,1.5,0,1.5-1.5,1.5-1.66,0-1.66,0-1.66-1.62a4,4,0,0,0,0-.69c-.11-.7.18-1,.87-.86a3.87,3.87,0,0,0,.59,0C76.64,57,76.64,57,76.64,58.68Z"/><path class="b" d="M51.35,68.1c-1.63,0-1.63,0-1.63-1.66,0-1.51,0-1.51,1.49-1.51,1.68,0,1.68,0,1.68,1.71C52.89,68.1,52.89,68.1,51.35,68.1Z"/><path class="b" d="M68.73,66.52c0,1.58,0,1.58-1.91,1.58-1.26,0-1.26,0-1.26-1.94,0-1.23,0-1.23,2-1.23C68.73,64.93,68.73,64.93,68.73,66.52Z"/><path class="b" d="M24.39,68A4.75,4.75,0,1,1,29,72.84,4.77,4.77,0,0,1,24.39,68Zm6.32.06a1.58,1.58,0,1,0-1.55,1.57A1.58,1.58,0,0,0,30.71,68.1Z"/><path class="b" d="M94.06,68.11a4.75,4.75,0,1,1-4.68-4.76A4.77,4.77,0,0,1,94.06,68.11Zm-3.17,0a1.58,1.58,0,1,0-1.55,1.58A1.6,1.6,0,0,0,90.89,68.09Z"/><path class="b" d="M50.77,112.64h.12a6.27,6.27,0,0,0,6.37-6.17A6.21,6.21,0,0,0,55.55,102a6.28,6.28,0,0,0-4.43-2,6.5,6.5,0,0,0-4.7,1.77,6.42,6.42,0,0,0,4.35,10.94Zm.09-10h.06a3.69,3.69,0,0,1,2.62,1.2,3.58,3.58,0,0,1,1,2.6,3.76,3.76,0,0,1-3.67,3.5,3.65,3.65,0,0,1,0-7.3Z"/><path class="b" d="M18.29,94.67h0a4.17,4.17,0,0,0,4.18-4.24,4.22,4.22,0,0,0-4.23-4.22A4.37,4.37,0,0,0,14,90.47,4.33,4.33,0,0,0,18.29,94.67Zm1.43-4.37c-.09,1-.54,1.54-1.37,1.59a1.29,1.29,0,0,1-1.5-1.35A1.33,1.33,0,0,1,18.19,89h.2C19.07,89,19.5,89.41,19.72,90.3Z"/><path class="b" d="M123.31,21.22h0a4.12,4.12,0,0,0,3-1.22,4.3,4.3,0,0,0,0-6.05,4.28,4.28,0,0,0-3-1.2A4.39,4.39,0,0,0,119,17,4.34,4.34,0,0,0,123.31,21.22Zm1.42-4.38c-.09,1-.53,1.54-1.37,1.6a1.3,1.3,0,0,1-1.5-1.36,1.34,1.34,0,0,1,1.34-1.54h.2C124.08,15.53,124.51,16,124.73,16.84Z"/></svg>