<svg xmlns="http://www.w3.org/2000/svg" viewBox="0 0 133.08 106.24"><defs><style>.a{fill:#fff;opacity:0.47;}.b{fill:#333;}</style></defs><path class="a" d="M53,10.33C17.12,26.23-6,54.77,1.37,74.08S51.68,116.89,87.55,101s51.08-65.18,43.72-84.49S88.87-5.57,53,10.33Z"/><path class="b" d="M123.46,55.66A27.14,27.14,0,0,0,93,33.45,27.05,27.05,0,0,0,70,56.11a1.73,1.73,0,0,0,.14,1.28,1.13,1.13,0,0,0,.77.4C72,58,72.15,57,72.23,56.46a24.65,24.65,0,0,1,9.11-15.6l0,0a2.27,2.27,0,0,1,1.17-.62,25.45,25.45,0,0,1,8.08.17,20.2,20.2,0,0,1,10.62,5.48l.15.14c.11.08.22.18.22.25s0,.1-.18.26a4.82,4.82,0,0,0-1.52,3.85c0,.4,0,.47-.49.51a25.18,25.18,0,0,0-8.59,2.39A49.56,49.56,0,0,0,74.66,65.67c-.41.46-.81.93-1.23,1.42l-.38.45a1.84,1.84,0,0,1-.12-.32,23.36,23.36,0,0,1-1-5.8,1.84,1.84,0,0,0-.4-1.3,1.14,1.14,0,0,0-.86-.25c-1.11.06-1.07,1-1,1.6a25.48,25.48,0,0,0,.64,4.79A27,27,0,0,0,86.82,85.44a27.29,27.29,0,0,0,10,1.89,27.09,27.09,0,0,0,26.27-20.59,1.86,1.86,0,0,0,0-1.39,1.09,1.09,0,0,0-.72-.47,1.06,1.06,0,0,0-.9.09,1.76,1.76,0,0,0-.62,1.19c0,.13-.06.27-.1.41a22.48,22.48,0,0,1-1.38,3.86v-.06c0-.34,0-.7,0-1A23,23,0,0,0,112.65,54c-.62-.61-.89-1-.74-1.78a3.73,3.73,0,0,0-.12-1.68c-.09-.29-.06-.4,0-.44s.3-.12.5-.14a27.45,27.45,0,0,1,6.43.18,1.09,1.09,0,0,1,1,.8,25.14,25.14,0,0,1,1.79,10.42,1.62,1.62,0,0,0,.37,1.27,1,1,0,0,0,.78.28c1.11,0,1.14-1,1.15-1.45A30.13,30.13,0,0,0,123.46,55.66Zm-14.77-1.52a2.94,2.94,0,0,1-2.36.67A4.77,4.77,0,0,1,102.21,50a2.79,2.79,0,0,1,2.89-2.6h0a4.84,4.84,0,0,1,4.54,4.56A2.94,2.94,0,0,1,108.69,54.14Zm-4.8,2.94v0A26,26,0,0,1,100.18,68a49.88,49.88,0,0,1-12.9,14.62.78.78,0,0,1-1,.11A25.13,25.13,0,0,1,74.19,70.61c-.16-.34-.21-.5,0-.74,6.08-7.68,12.71-12.78,20.26-15.58a18.09,18.09,0,0,1,5.48-1.15H100a.79.79,0,0,1,.82.49A5.72,5.72,0,0,0,103.2,56C103.58,56.24,104,56.58,103.89,57.08ZM90,83.48c.52-.44,1-.89,1.55-1.35a48,48,0,0,0,12.8-17.26,23.52,23.52,0,0,0,1.84-7.26c0-.47.1-.54.49-.52a4.8,4.8,0,0,0,3.92-1.55c.14-.14.19-.15.21-.15s.14.1.21.17l.11.12a19.92,19.92,0,0,1,5.23,9.11,24.31,24.31,0,0,1,.54,9.59,2,2,0,0,1-.4,1,24.89,24.89,0,0,1-26.61,8.74l-.13,0a.91.91,0,0,1-.29-.1Zm20.19-36c-1-.73-1-1.62-.83-2.72a24.25,24.25,0,0,0-.07-5.86,25.32,25.32,0,0,1,8.9,8.88,3,3,0,0,1-.67-.06l-.45-.06a28.94,28.94,0,0,0-5.89.17C110.74,47.87,110.53,47.73,110.14,47.45Zm-3.09-2.78c0,.24-.07.52-.18.6s-.26,0-.51-.06a2.68,2.68,0,0,0-.89-.15,2.14,2.14,0,0,0-.45,0,2.19,2.19,0,0,1-2.17-.87c-4.15-4.12-9.3-6.27-15.74-6.56H86.6A20.12,20.12,0,0,1,91,36.15a25.5,25.5,0,0,1,14.89,1.07,1.27,1.27,0,0,1,.95,1.21A30,30,0,0,1,107.05,44.67Z"/><path class="b" d="M75.25,38.09h0a1.41,1.41,0,0,0,1-.51l.12-.1a30.53,30.53,0,0,1,20-7.75c.35,0,1.44,0,1.43-1.17a1.06,1.06,0,0,0-.3-.8,1.66,1.66,0,0,0-1.17-.34l-.86,0-.39,0a32.72,32.72,0,0,0-14.47,4.14,33.41,33.41,0,0,0-6,4.31,1.21,1.21,0,0,0-.43,1.5A1.05,1.05,0,0,0,75.25,38.09Z"/><path class="b" d="M111.73,87.26a1.52,1.52,0,0,0-1.11.23l-.13.07A31,31,0,0,1,103.71,90a30.23,30.23,0,0,1-6.79.8h0A1.12,1.12,0,0,0,95.62,92c0,.41.14,1.11,1.25,1.17H98.4a34.86,34.86,0,0,0,9.43-1.93,32.14,32.14,0,0,0,4.09-1.78,1.12,1.12,0,0,0,.65-1.25A1.07,1.07,0,0,0,111.73,87.26Z"/><path class="b" d="M78.3,78.21c-.13-.11-.25-.23-.37-.35-6.16,1.41-11.66-.19-16.57-4.56a3.67,3.67,0,0,0-2.67-1c-4,0-8,0-12,0a3.56,3.56,0,0,0-2.65,1.07A18.24,18.24,0,1,1,25.73,42.81a19.6,19.6,0,0,1,6.49-.9H52.78c7,0,14,0,21,0a20.2,20.2,0,0,1,4.12.41c.26-.29.52-.57.8-.85L80.51,40a26,26,0,0,0-7.33-1.13c-3.86-.09-7.72,0-11.58,0-3,0-2.81.14-2.8-2.85,0-2.74-.23-3-2.88-3.14l-.6,0c-.83,0-1.19-.45-1.18-1.25s0-1.73,0-2.6c.06-1.78.51-2.25,2.28-2.28s3.73,0,5.59,0a5.92,5.92,0,0,0,5.63-4.78,5.8,5.8,0,0,0-3.5-6.66A8.64,8.64,0,0,0,61,14.83c-7.78,0-15.57,0-23.36,0a7.55,7.55,0,0,1-1.78-.1,1.5,1.5,0,0,1-1.3-1.54,1.52,1.52,0,0,1,1.35-1.5,8.88,8.88,0,0,1,1.79-.09h15a11.92,11.92,0,0,0,1.79-.08,1.21,1.21,0,0,0,1.11-1.22,1.27,1.27,0,0,0-1.08-1.45,8.35,8.35,0,0,0-1.59-.08H37a10.76,10.76,0,0,0-1.39,0,4.25,4.25,0,0,0-3.85,4.14,4.33,4.33,0,0,0,4.52,4.71c4.19,0,8.38,0,12.57,0h0c4.26,0,8.52,0,12.78,0a3.14,3.14,0,0,1,3.31,3,3.37,3.37,0,0,1-3.17,3.25c-.47,0-.94,0-1.4,0-1.53,0-3.06,0-4.59,0a4.27,4.27,0,0,0-4.39,4.41c0,1,0,2,0,3,0,1.34-.18,1.45-1.5,1.55-3,.23-3.15.4-3.16,3.31,0,.26,0,.53,0,.8,0,1.79-.09,1.87-2,1.87-3.92,0-7.85-.1-11.78,0a32.47,32.47,0,0,0-7.09.9A20.87,20.87,0,0,0,10.65,63c1.18,8,5.6,13.68,13,16.64,7.78,3.12,15.15,1.77,21.69-3.55a4,4,0,0,1,2.71-1c3,0,6,.06,9,0a4.85,4.85,0,0,1,3.43,1.25A20.41,20.41,0,0,0,76.84,81a21.27,21.27,0,0,0,3.8-.9A26.61,26.61,0,0,1,78.3,78.21ZM50.81,35.85h2c.46,0,.93,0,1.39,0,1.46,0,1.69.35,1.59,1.82-.06.81-.41,1.22-1.24,1.21-1.26,0-2.52,0-3.78,0-1,0-1.09-.75-1.09-1.53S49.77,35.85,50.81,35.85Z"/><path class="b" d="M42.11,60.21c0,.66,0,1.33,0,2-.06,2-.48,2.36-2.57,2.32-1.2,0-2.4,0-3.59.08-1.35.09-1.4.16-1.43,1.57s0,2.53,0,3.79c0,1.74-.42,2.17-2.08,2.22s-3.19,0-4.78,0-2-.58-2.1-2.08-.06-2.79,0-4.19c0-.92-.39-1.35-1.3-1.35-1.32,0-2.65,0-4,0-1.72,0-2.28-.49-2.32-2.21,0-1.46,0-2.92,0-4.39.05-1.71.6-2.27,2.28-2.33,1.26,0,2.53,0,3.79,0s1.48-.15,1.52-1.49,0-2.52,0-3.78c0-1.62.57-2.21,2.12-2.28s3.19-.07,4.78,0,2.05.59,2.09,2.25c0,1.33,0,2.66,0,4,0,.92.37,1.33,1.3,1.31,1.19,0,2.39,0,3.59,0,2.39,0,2.71.35,2.72,2.82v1.79ZM24.3,61.73v0c.6,0,1.19,0,1.79,0,1.91.06,2.31.44,2.36,2.37,0,1.27,0,2.53,0,3.79s.31,1.37,1.45,1.4S31.6,69,31.66,67.9c.07-1.26,0-2.52,0-3.79,0-2.06.36-2.39,2.47-2.43,1.19,0,2.39,0,3.58,0a1.62,1.62,0,1,0-.2-3.21c-1.32-.06-2.65,0-4,0-1.54-.06-1.82-.36-1.86-1.93,0-1.4,0-2.79,0-4.18-.05-1-.42-1.27-1.6-1.27s-1.53.2-1.58,1.27c-.07,1.32,0,2.65-.05,4-.07,1.74-.43,2.09-2.15,2.13-1.39,0-2.79,0-4.18,0-1,.06-1.27.56-1.2,1.87s.23,1.38,1.41,1.39Z"/><path class="b" d="M71.45,65.56a4.61,4.61,0,0,0-2,3.7A4.4,4.4,0,0,0,74,73.59a3.38,3.38,0,0,0,.45,0A23.39,23.39,0,0,1,71.45,65.56Z"/><path class="b" d="M64.85,64.46a4.16,4.16,0,0,1-4.39-4.36,4.5,4.5,0,0,1,4.39-4.5,4.71,4.71,0,0,1,4.48,4.48C69.37,62.12,67.33,64.74,64.85,64.46Zm1.52-4.3A1.52,1.52,0,0,0,65,58.68,1.46,1.46,0,0,0,63.34,60a1.68,1.68,0,0,0,1.41,1.65A1.65,1.65,0,0,0,66.37,60.16Z"/><path class="b" d="M72.37,54.2c.11-.75.24-1.51.4-2.25a1.56,1.56,0,0,1-.34-.88,1.52,1.52,0,0,1,1-1.43,23.12,23.12,0,0,1,1.37-3,3.66,3.66,0,0,0-.74-.1,4.55,4.55,0,0,0-4.55,4.58A4.4,4.4,0,0,0,72,55C72.14,54.75,72.25,54.47,72.37,54.2Z"/><path class="b" d="M113.69,35.07h.11a5.51,5.51,0,0,0,5.58-5.41A5.58,5.58,0,0,0,114,23.93a5.68,5.68,0,0,0-4.12,1.54,5.63,5.63,0,0,0,3.81,9.6Zm.08-8.77h0a3.29,3.29,0,0,1,2.3,1.05,3.14,3.14,0,0,1,.86,2.28,3.31,3.31,0,0,1-3.22,3.07,3.24,3.24,0,0,1-2.27-1,3.17,3.17,0,0,1-.88-2.31A3.24,3.24,0,0,1,113.77,26.3Z"/><path class="b" d="M45.68,98.73h.11a5.51,5.51,0,0,0,5.58-5.41A5.58,5.58,0,0,0,46,87.59a5.68,5.68,0,0,0-4.12,1.54,5.63,5.63,0,0,0,3.81,9.6ZM45.76,90h.05A3.25,3.25,0,0,1,48.1,91,3.06,3.06,0,0,1,49,93.29a3.3,3.3,0,0,1-3.22,3.07,3.26,3.26,0,0,1-2.27-1A3.2,3.2,0,0,1,42.6,93,3.24,3.24,0,0,1,45.76,90Z"/><path class="b" d="M75,28.84h0a3.64,3.64,0,0,0,2.6-1.07,3.77,3.77,0,0,0,0-5.3,3.79,3.79,0,0,0-2.6-1.06,3.72,3.72,0,1,0,0,7.43ZM76.22,25c-.07.9-.46,1.35-1.19,1.4a1.14,1.14,0,0,1-1.32-1.19,1.17,1.17,0,0,1,1.18-1.35h.17C75.66,23.85,76,24.22,76.22,25Z"/><path class="b" d="M80.44,95.22h0A3.64,3.64,0,0,0,83,94.15a3.75,3.75,0,0,0,1.07-2.66A3.7,3.7,0,0,0,83,88.85a3.75,3.75,0,0,0-2.59-1.06,3.85,3.85,0,0,0-3.74,3.74A3.81,3.81,0,0,0,80.44,95.22Zm1.24-3.84c-.07.9-.46,1.35-1.19,1.4a1.14,1.14,0,0,1-1.32-1.19,1.17,1.17,0,0,1,1.18-1.35h.17C81.12,90.23,81.49,90.6,81.68,91.38Z"/></svg>