<svg xmlns="http://www.w3.org/2000/svg" viewBox="0 0 133.08 113.31"><defs><style>.a{fill:#fff;opacity:0.47;}.b{fill:#333;}</style></defs><path class="a" d="M53,17.4C17.12,33.3-6,61.84,1.37,81.15S51.68,124,87.55,108.06s51.08-65.17,43.72-84.48S88.87,1.5,53,17.4Z"/><path class="b" d="M100.75,0c.57.16,1.14.31,1.71.49a10.69,10.69,0,0,1,6.66,13.93c-1.89,5.2-3.87,10.36-5.82,15.54q-1.6,4.27-3.22,8.55a1.53,1.53,0,0,0,0,1.34,2.45,2.45,0,0,1,.12,1q0,23.64,0,47.29c0,5.09-3.45,8.52-8.54,8.52-14.54,0-29.08,0-43.62,0-.89,0-1.08-.27-1.06-1.1.06-2.14,0-2.14,2.18-2.14q16.14,0,32.28,0c.8,0,1.06-.14,1.06-1q0-23.61,0-47.2a1.41,1.41,0,0,0-.79-1.43c-.86-.47-1.59-1.49-2.47-1.44s-1.6.9-2.38,1.42c-2.59,1.72-2.26,1.75-4.85,0-.81-.54-1.58-1.5-2.46-1.44s-1.6.9-2.38,1.43c-2.6,1.75-2.3,1.7-4.85,0-.78-.52-1.55-1.36-2.38-1.43s-1.59.89-2.37,1.41c-2.68,1.77-2.31,1.76-4.94,0-.78-.52-1.58-1.4-2.37-1.4s-1.6.87-2.38,1.4c-2.7,1.8-2.32,1.72-4.93,0l-.6-.37a1.79,1.79,0,0,0-.15,1.1c0,7.36,0,14.73,0,22.09,0,.8-.17,1.09-1,1.07-2.22-.06-2.22,0-2.22-2.22,0-7.9,0-15.8,0-23.7a2.6,2.6,0,0,0-.67-1.87c-.67-.76-1.29-1.55-1.88-2.37A8.53,8.53,0,0,1,35.59,28a.81.81,0,0,0-.18-1.18c-1.69-1.51-3.33-3.08-5-4.59-.47-.43-.7-.73-.08-1.22s1-1.58,1.65-1.55,1.19.92,1.77,1.44c1.33,1.21,2.64,2.43,4,3.65.26.25.47.47.88.19s.12-.61,0-.87c-1.14-2.13-2.28-4.27-3.46-6.38-.28-.5-.23-.72.28-1,2.19-1.23,2.18-1.25,3.38,1l.64,1.18a5.92,5.92,0,0,1,2.43-2.3L40.5,15A5.15,5.15,0,0,1,40,8.21,5,5,0,0,1,46.55,7a5,5,0,0,0,.5.21C46.71,3.74,47.4.89,51.28,0h1.13c3.82,1,4.51,3.8,4.1,7.36a5.33,5.33,0,0,1,6.43,0,3.36,3.36,0,0,0,.13-1.3c0-.41,0-.82,0-1.23a1.57,1.57,0,0,1,1.69-1.65q8.78,0,17.55,0A1.55,1.55,0,0,1,84,4.87a11.8,11.8,0,0,1,0,2.45A5.36,5.36,0,0,0,86.39,13a.46.46,0,0,1,.07.07c.42.57.64.36.84-.19.76-2.07,1.5-4.14,2.32-6.18A10.34,10.34,0,0,1,96.39.45C97,.26,97.54.15,98.11,0ZM96.93,43.36c-.34.2-.54.29-.71.41-2.76,1.84-2.32,1.78-5.09,0-.76-.5-1.48-1.44-2.3-1.35s-1.57,1-2.39,1.43a1.48,1.48,0,0,0-.82,1.51q0,23.55,0,47.1c0,.18,0,.37,0,.56s.07.48.42.48c2.26,0,4.54.12,6.78-.12,2.59-.27,4.09-2.38,4.09-5.27V43.36ZM99.36,3.22A7.25,7.25,0,0,0,92.55,8Q86.75,23.37,81,38.71c-.19.49-.19.79.31,1.07a24.66,24.66,0,0,1,2.2,1.46.78.78,0,0,0,1.08,0c1-.72,2.09-1.39,3.12-2.1a1.81,1.81,0,0,1,2.27,0c1.06.74,2.15,1.42,3.21,2.16a.81.81,0,0,0,1,0A5,5,0,0,0,96.88,38,27.35,27.35,0,0,1,98,34.88c2.69-7.18,5.42-14.34,8.06-21.54A7.42,7.42,0,0,0,99.36,3.22ZM54,34.59a2.43,2.43,0,0,0,1.1-2.15c-.06-4.19,0-8.37,0-12.56a2.64,2.64,0,0,1,.79-2c1.71-1.72,3.39-3.47,5-5.23A1.79,1.79,0,0,0,60.94,10a1.73,1.73,0,0,0-2.6.14c-.65.64-1.29,1.28-1.91,1.95a1.78,1.78,0,0,1-2.1.64,1.74,1.74,0,0,1-1-1.87q0-3,0-5.94a1.56,1.56,0,1,0-3.1,0c0,2.05,0,4.09,0,6.14a1.62,1.62,0,0,1-1,1.67,1.65,1.65,0,0,1-1.95-.52c-.74-.77-1.48-1.54-2.26-2.28a1.56,1.56,0,0,0-1.84-.31,1.7,1.7,0,0,0-1.05,1.54,2.1,2.1,0,0,0,.73,1.67c1.3,1.33,2.6,2.65,3.88,4a1.6,1.6,0,0,1,0,2.42,1.68,1.68,0,0,1-2,.15,1.72,1.72,0,0,0-2.6,1.09,2.84,2.84,0,0,0,2,3,8.79,8.79,0,0,1,7,5.35C52.14,30.73,53,32.63,54,34.59Zm4.29-3.29c8-1.6,11.39.32,14.51,8.24,0-6.07,0-12,0-18,0-.54-.25-.6-.69-.6-4.37,0-8.74,0-13.11,0-.6,0-.74.19-.73.75,0,1.92,0,3.84,0,5.75Zm17.86,9.06a2.48,2.48,0,0,0,1.31-1.24q4-10.8,8.11-21.6a.86.86,0,0,0-.21-1.08c-.83-.77-1.64-1.56-2.4-2.4-.41-.45-.64-.38-1,0-1.74,1.78-3.49,3.54-5.28,5.27A2,2,0,0,0,76,20.89c0,6.17,0,12.33,0,18.5A1.61,1.61,0,0,0,76.11,40.36Zm-24.24-.84a2.09,2.09,0,0,0,.06-1.69c-1.28-2.66-2.49-5.35-3.78-8a5.41,5.41,0,0,0-7.74-2.39,5.58,5.58,0,0,0-1.57,8.07c.38.54.69.81,1.28.22a12.34,12.34,0,0,1,1.56-1.22c.62-.48,1.28-1.34,1.88-1.3s1,1.17,1.57,1.74.29.77-.17,1.11C44,36.77,43,37.57,42,38.28c-.58.41-.59.7,0,1.08,1,.63,1.95,1.27,2.9,1.94a.69.69,0,0,0,.92,0c.85-.6,1.76-1.11,2.58-1.75C49.54,38.65,50.63,38.31,51.87,39.52Zm3.24,2c1.23-.82,2.37-1.53,3.46-2.32a2,2,0,0,1,2.59,0c1,.7,2,1.3,3,2a.85.85,0,0,0,1.16,0c1.1-.78,2.22-1.53,3.37-2.25.34-.21.38-.37.24-.74A7.26,7.26,0,0,0,60.6,34,7.13,7.13,0,0,0,55.11,41.51ZM60.5,17.74c3.91,0,7.52-.08,11.14,0a4,4,0,0,0,3.5-1.46c1-1.16,2.15-2.16,3.26-3.26-.19-.11-.24-.16-.29-.16l-12.27,0a.87.87,0,0,0-.69.22Zm13-8.09h5c2.31,0,2.27,0,2.32-2.27,0-.83-.28-1-1-1-3.7,0-7.41,0-11.12,0-2.42,0-2.39,0-2.37,2.43,0,.71.27.82.89.81C69.28,9.63,71.39,9.65,73.49,9.65Z"/><path class="b" d="M32.38,72.06c.23-2.6-.41-3.6-2.7-4.34l-.09,0c-.33-.13-.59-2.2-.35-2.91s.69-.27,1-.22a6.34,6.34,0,0,1,5.37,5.84c0,.52,0,1,0,1.71A11.61,11.61,0,0,1,39.22,71a8.49,8.49,0,0,1,9.36,8.84,29.12,29.12,0,0,1-3.33,12.65,7.21,7.21,0,0,1-10,3.39,2.41,2.41,0,0,0-2.42,0,7.22,7.22,0,0,1-10-3.4A29.39,29.39,0,0,1,19.56,80,8.47,8.47,0,0,1,32,71.91C32.07,72,32.19,72,32.38,72.06ZM45.3,80.45c0-.22,0-.44,0-.66a5.23,5.23,0,0,0-9-4c-2.2,2.14-2.27,2.14-4.51,0a5.24,5.24,0,0,0-9,3.9A24.7,24.7,0,0,0,26,91.34,4,4,0,0,0,31.33,93c3.06-1.44,2.21-1.61,5.43,0a4,4,0,0,0,5.52-1.85A24.3,24.3,0,0,0,45.3,80.45Z"/><path class="b" d="M99.79,23.44c0,.32-.23.33-.43.39-.66.22-1.32.43-2,.67-.48.17-.67,0-.81-.46-.89-2.81-1.79-5.61-2.74-8.41-.18-.55,0-.69.48-.85,2.37-.85,2.37-.86,3.14,1.51l2.13,6.52C99.67,23,99.73,23.23,99.79,23.44Z"/><path class="b" d="M95.06,34.7a.27.27,0,0,1-.14.31l-.26.1c-2.5,1.1-2.5,1.1-3.33-1.45-.71-2.21-1.41-4.43-2.16-6.63-.2-.59-.1-.84.5-1,.76-.19,1.63-.8,2.21-.58s.6,1.35.85,2.08c.73,2.17,1.43,4.35,2.14,6.53C94.94,34.28,95,34.49,95.06,34.7Z"/><path class="b" d="M113.88,54.45H114a6.36,6.36,0,0,0,.22-12.71,6.49,6.49,0,0,0-4.7,1.76,6.42,6.42,0,0,0,4.35,11Zm.09-10H114a3.69,3.69,0,0,1,2.62,1.2,3.54,3.54,0,0,1,1,2.6,3.76,3.76,0,0,1-3.67,3.5,3.69,3.69,0,0,1-2.59-1.18,3.63,3.63,0,0,1-1-2.64A3.69,3.69,0,0,1,114,44.45Z"/><path class="b" d="M116.77,32.12h0a4.12,4.12,0,0,0,3-1.22,4.25,4.25,0,0,0-3-7.25,4.24,4.24,0,1,0,0,8.47Zm1.43-4.38c-.09,1-.53,1.54-1.37,1.6a1.3,1.3,0,0,1-1.5-1.36,1.34,1.34,0,0,1,1.34-1.54h.2C117.55,26.43,118,26.85,118.2,27.74Z"/><path class="b" d="M19.32,69.14h0a4.12,4.12,0,0,0,3-1.22,4.25,4.25,0,0,0-3-7.25,4.24,4.24,0,1,0,0,8.47Zm1.43-4.38c-.09,1-.54,1.54-1.37,1.6A1.3,1.3,0,0,1,17.88,65a1.33,1.33,0,0,1,1.34-1.54h.19C20.1,63.45,20.53,63.87,20.75,64.76Z"/></svg>