<svg xmlns="http://www.w3.org/2000/svg" viewBox="0 0 133.08 106.24"><defs><style>.a{fill:#fff;opacity:0.47;}.b{fill:#333;}</style></defs><path class="a" d="M53,10.33C17.12,26.23-6,54.77,1.37,74.08S51.68,116.89,87.55,101s51.08-65.18,43.72-84.49S88.87-5.57,53,10.33Z"/><path class="b" d="M105.47,16.78h.12a5.83,5.83,0,0,0,4.28-9.84,5.74,5.74,0,0,0-4.07-1.86,5.94,5.94,0,0,0-4.33,1.62,5.81,5.81,0,0,0-1.73,4.18A5.76,5.76,0,0,0,105.47,16.78Zm.09-9.21h0A3.45,3.45,0,0,1,108,8.67a3.34,3.34,0,0,1,.91,2.4,3.48,3.48,0,0,1-3.39,3.23,3.39,3.39,0,0,1-2.38-1.1,3.32,3.32,0,0,1-.92-2.42A3.4,3.4,0,0,1,105.56,7.57Z"/><path class="b" d="M38.51,39.4h0a3.8,3.8,0,0,0,2.73-1.13,3.9,3.9,0,0,0-2.77-6.67,3.9,3.9,0,1,0,0,7.8Zm1.31-4c-.08.94-.49,1.41-1.26,1.46a1.19,1.19,0,0,1-1.38-1.25,1.22,1.22,0,0,1,1.23-1.41h.18C39.22,34.16,39.62,34.55,39.82,35.37Z"/><path class="b" d="M66.53,102.29h0a3.83,3.83,0,0,0,2.73-1.12,3.92,3.92,0,0,0-2.77-6.68,4,4,0,0,0-3.93,3.93A4,4,0,0,0,66.53,102.29Zm1.31-4c-.08.94-.49,1.42-1.26,1.47a1.21,1.21,0,0,1-1.39-1.25,1.24,1.24,0,0,1,1.24-1.42h.18C67.24,97.05,67.63,97.44,67.84,98.26Z"/><path class="b" d="M64.9,62.79c0,3.31,0,6.62,0,9.93,0,.67-.09,1-.86.94-2.24,0-2.24,0-2.24-2.26,0-6.14,0-12.27,0-18.41,0-.73-.14-1-.93-1-2.41.06-4.83.07-7.23,0a9,9,0,0,1-5.53-16c.39-.33.82-.62,1.22-.95A4.42,4.42,0,0,0,50,28.46a7.62,7.62,0,0,1,1.38-11.79,7.2,7.2,0,0,0,3.33-5.87c.06-1,.23-2,.37-3.06a7.53,7.53,0,0,1,7.16-6.61,11.52,11.52,0,0,1,3.92.28c3.33.93,5.23,3.27,5.7,7.07.13,1.11.28,2.23.4,3.34a6,6,0,0,0,2.4,4.24c.58.45,1.19.88,1.74,1.37A7.33,7.33,0,0,1,77.11,28a4.83,4.83,0,0,0,.82,7.55A9,9,0,0,1,73,52c-2.41.09-4.82.05-7.23,0-.66,0-.87.15-.87.84C64.92,56.17,64.9,59.48,64.9,62.79Zm0-19.37.24.09c.81-.83,1.6-1.67,2.42-2.49,1.71-1.72,1.7-1.7,3.38,0,.4.42.36.67,0,1-.24.21-.45.46-.68.68-1.64,1.64-3.27,3.28-4.92,4.91a1,1,0,0,0-.35,1.11c.12.35.5.18.76.18,2.37,0,4.75.05,7.13,0a5.8,5.8,0,0,0,5.94-6.46A5.91,5.91,0,0,0,76,37.92,7.74,7.74,0,0,1,74.73,26a4,4,0,0,0,1-3.94,5.5,5.5,0,0,0-2.49-3.18,9.14,9.14,0,0,1-4-6.11c-.22-1.3-.34-2.61-.5-3.92a5.55,5.55,0,0,0-1.13-3.11c-1.75-2.11-6.69-2.12-8.42-.08A4.15,4.15,0,0,0,58.11,7.9c-.11.95-.29,1.9-.35,2.86a10.05,10.05,0,0,1-4.58,8.36,4.65,4.65,0,0,0-.81,7.43,7.39,7.39,0,0,1,.2,9.58,15.21,15.21,0,0,1-2.41,2.2,6.2,6.2,0,0,0-2,6.7,6,6,0,0,0,5.49,3.89c2.5.08,5,0,7.52,0,.53,0,.65-.2.63-.68a23.17,23.17,0,0,1,0-2.5,1.67,1.67,0,0,0-.61-1.43c-1.25-1.2-2.46-2.44-3.69-3.67-1.44-1.44-1.41-1.42,0-2.9.57-.59.9-.71,1.49,0,.82,1,1.76,1.79,2.8,2.84,0-3.21,0-6.13,0-9.05a1.25,1.25,0,0,0-.51-1l-5.25-5.26c-1.52-1.51-1.5-1.49,0-3,.51-.53.81-.6,1.35,0,1.37,1.46,2.82,2.85,4.41,4.45v-14c0-2.38,0-2.36,2.35-2.34.58,0,.76.15.75.76,0,2.79,0,5.59,0,8.39,0,.26-.12.57.14.83.59-.55,1.12-1.46,1.76-1.56s1.18,1,1.83,1.51c.43.32.32.59,0,.92-1.09,1.05-2.15,2.13-3.21,3.2-.2.2-.5.35-.5.68,0,2,0,4,0,6.3.77-.8,1.34-1.4,1.93-2,1.63-1.64,1.61-1.62,3.24,0,.44.44.47.69,0,1.13-1.57,1.52-3.1,3.08-4.64,4.64-.24.24-.55.43-.54.85C64.91,38.5,64.9,41,64.9,43.42Z"/><path class="b" d="M37.09,93.7A15.8,15.8,0,0,1,22.24,83.24,2,2,0,0,0,21.14,82a4.25,4.25,0,0,1-2.52-4,4.18,4.18,0,0,1,2.51-3.91.82.82,0,0,0,.56-1,3.84,3.84,0,0,1,0-.48,5.24,5.24,0,0,0-.06-1.82c-.23-.59-1-.36-1.58-.58a4.7,4.7,0,0,1-3-4.81A4.59,4.59,0,0,1,21,61.37c.67-.1.84-.33,1-1a12.14,12.14,0,0,1,9.71-9.66c.54-.13.79-.22.88-.85a4.61,4.61,0,0,1,9.14,0c.09.6.28.76.85.87a12.31,12.31,0,0,1,9.77,9.74c.1.53.2.79.84.88a4.6,4.6,0,0,1,.13,9.12c-.64.11-.79.34-.73.9a3.3,3.3,0,0,1,0,.77,2.11,2.11,0,0,0,1.18,2.36,4.29,4.29,0,0,1-.35,7.36,3.19,3.19,0,0,0-1.53,1.8A15.81,15.81,0,0,1,37.09,93.7Zm0-23.15c-3.79,0-7.58,0-11.37,0-.82,0-1,.23-1,1,.07,1.12,0,2.25,0,3.37,0,1.69,0,1.69-1.7,1.81h-.19a1.3,1.3,0,0,0-1.16,1,1.24,1.24,0,0,0,.6,1.41,2.94,2.94,0,0,0,.77.39A2.88,2.88,0,0,1,25,81.71a12.7,12.7,0,0,0,23.89,1c.62-1.57,1.15-3,3-3.47A.57.57,0,0,0,52,79.1a1.31,1.31,0,0,0-.67-2.36,2.51,2.51,0,0,0-.67,0c-1.05.2-1.28-.29-1.22-1.25.08-1.34,0-2.7,0-4,0-.74-.2-.91-.91-.9C44.76,70.57,40.93,70.55,37.11,70.55Zm0-9.26c3.82,0,7.65,0,11.47,0,.64,0,.76-.17.59-.77a9.25,9.25,0,0,0-6.61-6.65c-.61-.18-.83-.13-.84.6,0,2.21,0,2.19-2.27,2.19-.61,0-.83-.15-.81-.8,0-1.7,0-3.4,0-5.1,0-1.13-.61-1.82-1.54-1.82s-1.53.69-1.54,1.82c0,1.7,0,3.41,0,5.11,0,.65-.2.79-.81.79-2.24,0-2.27,0-2.27-2.19,0-.73-.23-.78-.84-.6a9.28,9.28,0,0,0-6.58,6.56c-.22.71-.05.86.66.86C29.54,61.28,33.33,61.29,37.12,61.29Zm.1,3.09H22.37a4.2,4.2,0,0,0-.87,0,1.53,1.53,0,0,0,0,3,4.1,4.1,0,0,0,.86,0H51.88a4.13,4.13,0,0,0,.86,0,1.53,1.53,0,0,0,0-3,4.1,4.1,0,0,0-.86,0Z"/><path class="b" d="M72.62,64c0-2.32,0-4.25,0-6.18,0-.55.1-.84.71-1,5.77-1.54,11.52-3.12,17.28-4.7a2,2,0,0,1,1.13,0c5.7,1.56,11.39,3.13,17.09,4.65.65.18.87.43.85,1.11-.12,4.3.33,8.64-.22,12.91C108,81.84,102,89.41,91.71,93.6a1.5,1.5,0,0,1-1.21,0C80.18,89.34,74.24,81.73,72.78,70.65A63.7,63.7,0,0,1,72.62,64Zm33.95,1.42c0-2.25,0-3.8,0-5.34,0-.57-.19-.77-.7-.91q-7-1.89-14-3.82a2.6,2.6,0,0,0-1.41,0q-7,1.93-14,3.83c-.55.15-.76.37-.75,1,0,2.63-.07,5.27,0,7.9C76.12,78.34,81,85.7,90.3,90.17a1.84,1.84,0,0,0,1.72,0,24.25,24.25,0,0,0,13-13.77A27.13,27.13,0,0,0,106.57,65.43Z"/><path class="b" d="M103.47,47.5c.06,1.23-.11,2.57-.18,3.92,0,.62-.2.89-.86.71s-1.78.13-2.15-.48,0-1.43.07-2.16a37.06,37.06,0,0,0-24-36.76c-.92-.33-1.12-.63-.76-1.55.71-1.83.67-1.89,2.47-1.13Q99,19,103,41.42A31,31,0,0,1,103.47,47.5Z"/><path class="b" d="M23.24,47.29A40.12,40.12,0,0,1,49.63,9.69c.69-.24,1-.2,1.2.55.63,2,.65,2-1.3,2.82Q30.08,21.48,26.67,42.4a32.22,32.22,0,0,0-.28,7.21c0,.59-.11.83-.7.84-2.73,0-2.31.79-2.45-2.1C23.23,48,23.24,47.64,23.24,47.29Z"/><path class="b" d="M62.79,87.53a43.44,43.44,0,0,1-6.5-.61c-.69-.1-1-.32-.8-1.1.46-2,.43-2,2.44-1.77A37,37,0,0,0,73,83.15c.57-.15.79,0,1,.54.7,2.3.72,2.31-1.6,2.83A43.18,43.18,0,0,1,62.79,87.53Z"/><path class="b" d="M88.05,80.41c-.16-.14-.28-.24-.39-.35-1.64-1.63-3.26-3.27-4.91-4.89-.32-.31-.34-.51,0-.86,1.68-1.87,1.67-1.88,3.44-.11.43.43.9.84,1.28,1.3s.74.47,1.21,0c3-3,6-6,9-9.07.88-.89,1.78-1.75,2.64-2.66.38-.4.61-.38,1,0,1.73,1.66,1.74,1.64.08,3.3L88.7,79.81C88.5,80,88.28,80.19,88.05,80.41Z"/></svg>