<svg xmlns="http://www.w3.org/2000/svg" viewBox="0 0 133.08 106.24"><defs><style>.a{fill:#fff;opacity:0.47;}.b{fill:#333;}</style></defs><path class="a" d="M53,10.33C17.12,26.23-6,54.77,1.37,74.08S51.68,116.89,87.55,101s51.08-65.18,43.72-84.49S88.87-5.57,53,10.33Z"/><path class="b" d="M117.91,45h.1a5.17,5.17,0,0,0,5.15-5.19,5.35,5.35,0,0,0-1.39-3.8,5,5,0,0,0-3.57-1.7,5.12,5.12,0,0,0-3.8,1.48,5.38,5.38,0,0,0-1.51,3.82A5.15,5.15,0,0,0,117.91,45Zm.08-8.41h0a2.91,2.91,0,0,1,2.12,1A3.07,3.07,0,0,1,118,42.69a2.93,2.93,0,0,1-2.09-1,3.13,3.13,0,0,1-.8-2.21A3,3,0,0,1,118,36.55Z"/><path class="b" d="M13.4,77.26h0a3.28,3.28,0,0,0,2.4-1,3.74,3.74,0,0,0,0-5.09,3.37,3.37,0,0,0-2.39-1,3.62,3.62,0,0,0-3.45,3.58A3.57,3.57,0,0,0,13.4,77.26Zm1.15-3.68c-.07.86-.43,1.3-1.1,1.34a1.07,1.07,0,0,1-1.22-1.14,1.11,1.11,0,0,1,1.09-1.29h.15C14,72.48,14.37,72.83,14.55,73.58Z"/><path class="b" d="M109.23,24.48h0a3.27,3.27,0,0,0,2.39-1,3.71,3.71,0,0,0,0-5.09,3.34,3.34,0,0,0-2.39-1A3.61,3.61,0,0,0,105.75,21,3.57,3.57,0,0,0,109.23,24.48Zm1.15-3.68c-.07.86-.43,1.3-1.11,1.34A1.06,1.06,0,0,1,108.06,21a1.11,1.11,0,0,1,1.08-1.29h.16C109.86,19.7,110.2,20.05,110.38,20.8Z"/><path class="b" d="M22.74,73.11c0-5.3,0-10.59,0-15.88a5.23,5.23,0,0,1,2-4.25,13.23,13.23,0,0,1,4.52-2.37c.35-.12.5,0,.59.3.18.65.37,1.29.59,1.93.14.43-.11.52-.43.63a10.52,10.52,0,0,0-3,1.43c-1.73,1.27-1.75,2.45,0,3.69a14.57,14.57,0,0,0,6.53,2.28,24.32,24.32,0,0,0,12.39-1.18,8.27,8.27,0,0,0,2.22-1.26c1.42-1.15,1.41-2.22,0-3.37a9.31,9.31,0,0,0-3-1.53c-.56-.17-.8-.39-.5-1a3.13,3.13,0,0,0,.16-.52c.49-1.65.49-1.65,2.13-1a12.21,12.21,0,0,1,2.67,1.42,5.71,5.71,0,0,1,2.62,5q-.07,15.69,0,31.39A5.05,5.05,0,0,1,50,93.21a15.93,15.93,0,0,1-7.14,2.73,29.24,29.24,0,0,1-15.12-1.16,11.52,11.52,0,0,1-2.67-1.4,5.16,5.16,0,0,1-2.38-4.58C22.79,83.57,22.74,78.34,22.74,73.11ZM49.23,61.49a27.37,27.37,0,0,1-23.55,0c0,6.37.06,12.73,0,19.09a3.39,3.39,0,0,0,2,3.39,12.74,12.74,0,0,0,1.49.72,24.6,24.6,0,0,0,13.38,1,13.09,13.09,0,0,0,5.44-2.1,2.46,2.46,0,0,0,1.3-2Q49.24,71.54,49.23,61.49ZM36,91.19c0-2.12,0-2.12-2.08-2.32h-.09c-.72-.1-1.75-.53-2.09-.21s-.14,1.43-.14,2.19c0,2.08,0,2.08,2.05,2.39C36,93.59,36,93.59,36,91.19Zm7.36-.59c-.07-.59.31-1.52-.17-2-.31-.29-1.26.11-1.92.21h-.09c-.72.07-1.67-.14-2.1.33s-.12,1.39-.13,2.12c0,2.23,0,2.23,2.2,2S43.34,93,43.34,90.6ZM25.77,86.37c-.47,3.33.39,5,2.86,5.45V88.15c0-.24,0-.46-.3-.59C27.47,87.19,26.63,86.77,25.77,86.37Zm23.45,0c-.93.44-1.73.83-2.53,1.19-.24.11-.41.2-.41.51,0,1.16,0,2.32,0,3.48,0,.18,0,.35.28.33.86-.06,2.61-1.6,2.64-2.42C49.26,88.42,49.22,87.42,49.22,86.33Z"/><path class="b" d="M66.92,8.3H92.84c3.19,0,4.94,1.75,4.94,4.94q0,9.77,0,19.54c0,3.11-1.78,4.89-4.9,4.89-6.65,0-13.3,0-19.95,0a1.54,1.54,0,0,0-1.44.72c-1,1.47-2.15,2.9-3.25,4.33-.86,1.13-1.84,1.14-2.7,0-1.08-1.41-2.16-2.81-3.19-4.26a1.71,1.71,0,0,0-1.58-.81c-6.62,0-13.23,0-19.85,0-3.18,0-4.94-1.77-4.94-5V13.17c0-3.1,1.79-4.87,4.92-4.87Zm0,2.93H41c-1.57,0-2,.46-2,2V32.62c0,1.68.42,2.11,2.11,2.11,7,0,13.92,0,20.87,0A2.26,2.26,0,0,1,64,35.77c.8,1.15,1.69,2.25,2.52,3.39.28.38.45.38.73,0,.81-1.12,1.69-2.18,2.46-3.32A2.43,2.43,0,0,1,72,34.71c7,0,13.91,0,20.87,0,1.56,0,2-.46,2-2V13.34c0-1.68-.43-2.11-2.12-2.11Z"/><path class="b" d="M111,68.55v17c0,1.62-.45,2.07-2.07,2.07s-3.06,0-4.59,0c-.59,0-.72.18-.71.73,0,2.08,0,4.16,0,6.24,0,1.32-.52,1.84-1.82,1.85-1.72,0-3.44,0-5.15,0-1.33,0-1.85-.51-1.86-1.82,0-2.08,0-4.16,0-6.24,0-.6-.16-.85-.76-.75s-.73-.1-.74-.69c0-2.25,0-2.25,2.22-2.25,3.89,0,7.78,0,11.67,0,.7,0,.89-.18.86-.87,0-1.4,0-2.81,0-4.22,0-.63-.15-.83-.81-.82-2.88,0-5.76,0-8.64,0-.66,0-.9-.11-.89-.83,0-2.12,0-2.12,2.08-2.12,2.51,0,5,0,7.54,0,.57,0,.73-.15.72-.72,0-1.43,0-2.87,0-4.31,0-.67-.14-.88-.85-.87-2.85,0-5.7,0-8.55,0-.68,0-1-.11-.94-.88,0-2.07,0-2.07,2.12-2.07,2.48,0,5,0,7.45,0,.59,0,.79-.15.77-.76,0-1.37-.06-2.75,0-4.13,0-.77-.13-1-1-1-4.75,0-9.5,0-14.26,0-.84,0-1-.25-1-1,.05-1.94,0-1.94,2-1.94,4.48,0,9,0,13.43,0,.63,0,.84-.14.82-.8,0-1.44,0-2.88,0-4.31,0-.68-.23-.79-.84-.79-5.3,0-10.61,0-15.91,0-.78,0-1-.21-.94-1,0-2,0-2,2-2,.78,0,1.83.35,2.28-.17s.13-1.45.14-2.21c0-1.56,0-3.12,0-4.68,0-1.2.55-1.73,1.75-1.74h5.33c1.2,0,1.74.54,1.75,1.74,0,2,0,4,0,6.06,0,.88.27,1.06,1.07,1,1.47-.06,2.94,0,4.41,0s1.89.5,1.9,1.87Zm-10.3-22.08v-.74c0-2.39,0-2.37-2.43-2.2-.39,0-.53.14-.52.54,0,1.61,0,3.23,0,4.85,0,.33.09.46.45.51,2.42.28,2.5.22,2.5-2.14Zm0,44.11v-.82c0-2.24,0-2.22-2.28-2.17-.5,0-.7.12-.68.66,0,1,0,2,0,3,0,2.3,0,2.29,2.32,2.22.47,0,.66-.12.64-.62C100.7,92.11,100.73,91.35,100.73,90.58Z"/><path class="b" d="M61,86.22a6.51,6.51,0,0,1,6.17,4.51,5.08,5.08,0,0,1,.15.52c.19.71.16,1.66.61,2.06s1.52.12,2.31.16c.28,0,.56,0,.83,0,.47,0,.72-.1.8-.61a18.05,18.05,0,0,1,.51-2.05,6.52,6.52,0,0,1,9.2-3.89A14.41,14.41,0,0,1,83.43,88a.77.77,0,0,0,1.22-.16,22.35,22.35,0,0,1,1.75-1.76.6.6,0,0,0,.12-.93c-.41-.61-.79-1.24-1.14-1.88A6.49,6.49,0,0,1,89.26,74c.67-.2,1.36-.37,2-.51.43-.08.66-.25.59-.72a2.43,2.43,0,0,1,0-.27c0-1,.28-2.06-.11-2.8s-1.69-.59-2.57-.87a6.51,6.51,0,0,1-3.82-9.28c.07-.14.15-.27.22-.4.34-.68,1.18-1.3,1-2s-1-1.12-1.51-1.66a6.45,6.45,0,0,1-.58-.59c-.33-.46-.64-.38-1.07-.11a9.53,9.53,0,0,1-4.08,1.78,6.53,6.53,0,0,1-7-4.51A19.71,19.71,0,0,1,71.9,50c-.08-.39-.21-.58-.65-.57q-1.43,0-2.85,0c-.43,0-.57.18-.64.57a20.31,20.31,0,0,1-.52,2,6.48,6.48,0,0,1-9.32,3.86c-1-.52-1.89-1.14-2.84-1.69-.38-.21-.41-.4-.2-.79C56,51.3,56,51.29,58,52.55a5.21,5.21,0,0,0,3.21,1.18A3.57,3.57,0,0,0,64.47,51c.28-1,.5-2.08.76-3.12A1.55,1.55,0,0,1,67,46.48h5.61a1.57,1.57,0,0,1,1.8,1.45c.25,1,.47,2,.73,3a3.57,3.57,0,0,0,5.37,2.25c1-.54,1.88-1.15,2.82-1.72a1.58,1.58,0,0,1,2.16.27c1.33,1.35,2.69,2.68,4,4A1.56,1.56,0,0,1,89.78,58c-.51.86-1.06,1.71-1.58,2.58a3.56,3.56,0,0,0,2.32,5.56l3,.73a1.54,1.54,0,0,1,1.29,1.65c0,1.93,0,3.86,0,5.78A1.57,1.57,0,0,1,93.5,76l-3.12.75a3.55,3.55,0,0,0-2.3,5.33c.53.93,1.13,1.83,1.68,2.74a1.59,1.59,0,0,1-.26,2.3q-2,2-4,4a1.55,1.55,0,0,1-2.22.28c-.92-.54-1.81-1.13-2.74-1.67A3.56,3.56,0,0,0,75.16,92c-.27,1-.49,2-.74,3a1.55,1.55,0,0,1-1.74,1.41q-2.85,0-5.7,0A1.54,1.54,0,0,1,65.24,95c-.26-1-.48-2.08-.76-3.12a3.56,3.56,0,0,0-5.31-2.24c-.77.44-1.52.92-2.27,1.39-.19.11-.41.34-.55.3-.87-.23-.89-1.17-1.38-1.74-.17-.19-.51-.51-.08-.76,1.83-1.08,3.49-2.54,5.78-2.62Z"/><path class="b" d="M59.53,71.43A10.3,10.3,0,1,1,69.88,81.72,10.29,10.29,0,0,1,59.53,71.43Zm17.65,0a7.36,7.36,0,1,0-7.38,7.34A7.36,7.36,0,0,0,77.18,71.44Z"/><path class="b" d="M41.87,50.46c0,1.87,0,3.73,0,5.6,0,.57-.16.71-.72.71-2.23,0-2.23,0-2.23-2.22q0-4.62,0-9.26c0-1-.47-1.62-1.28-1.73S36,44.14,36,45.28c0,3.48,0,7,0,10.45,0,.84-.2,1.08-1,1.05-1.92-.06-1.92,0-1.92-1.9V45.34a4.43,4.43,0,1,1,8.83,0Z"/><path class="b" d="M31.57,73.64c0,2.45,0,4.89,0,7.34,0,.6-.17.76-.77.76-2.18,0-2.18,0-2.18-2.17,0-4.4,0-8.81,0-13.21,0-.64.18-.81.82-.81,2.14,0,2.14,0,2.14,2.13Z"/><path class="b" d="M46.28,73.64c0,2.44,0,4.89,0,7.33,0,.6-.16.77-.76.77-2.2,0-2.2,0-2.2-2.17,0-4.4,0-8.8,0-13.2,0-.64.16-.82.81-.82,2.14,0,2.14,0,2.14,2.13Z"/><path class="b" d="M36,75.07c0-2.41,0-4.83,0-7.24,0-.54.06-.81.73-.81,2.23,0,2.23,0,2.23,2.23,0,4.37,0,8.74,0,13.11,0,.7-.19.86-.86.85-2.1,0-2.1,0-2.1-2.09Z"/><path class="b" d="M55.12,31.81a24.19,24.19,0,0,1-5.3-.34,8.79,8.79,0,0,1,2-17.27,44.32,44.32,0,0,1,8,.16,8.79,8.79,0,0,1-.08,17.27A36.85,36.85,0,0,1,55.12,31.81ZM58.05,23a5.88,5.88,0,1,0-5.92,5.86A5.88,5.88,0,0,0,58.05,23Zm5.59-1.54A5.26,5.26,0,0,0,59,17.32c.45.75.91,1.46,1.31,2.2s.06,1.73,1,1.95A9.41,9.41,0,0,0,63.64,21.46Zm0,3H61.29c-.17,0-.4,0-.45.2a10.34,10.34,0,0,1-1.88,4A5.45,5.45,0,0,0,63.66,24.45Z"/><path class="b" d="M89,19.16c-2.12,2.12-4,4-5.92,5.93-1.12,1.12-1.75,1.12-2.86,0-1.53-1.51-1.53-1.51-3.08,0-1.91,1.9-3.82,3.79-5.71,5.71-.38.39-.6.44-1,0-1.6-1.58-1.62-1.57,0-3.15l7-6.94c1-1,1.68-1,2.74,0,.52.49,1,1.44,1.59,1.37s1.09-.9,1.61-1.42q1.69-1.68,3.37-3.38s0-.1.05-.25c-1,0-2,0-2.92,0-.51,0-.66-.14-.67-.67,0-2.28-.07-2.28,2.17-2.28H90.1c1.26,0,1.79.53,1.8,1.79,0,2.11,0,4.22,0,6.32,0,.58-.17.71-.72.72C89,23,89,23,89,20.77Z"/></svg>