<svg xmlns="http://www.w3.org/2000/svg" viewBox="0 0 550.79 408.91"><defs><style>.a{fill:#fff;}.b{fill:#d9804f;}.c{fill:#333;}</style></defs><path class="a" d="M188.39,12.49a.72.72,0,0,0,.72-.72V1.59a.72.72,0,0,0-1.44,0V11.77A.72.72,0,0,0,188.39,12.49Z"/><path class="a" d="M193.89,18h4.91a.73.73,0,0,0,0-1.45h-4.91a.73.73,0,0,0,0,1.45Z"/><path class="a" d="M188.39,33.68a.72.72,0,0,0,.72-.72V22.77a.72.72,0,0,0-1.44,0V33A.72.72,0,0,0,188.39,33.68Z"/><path class="a" d="M178,18h4.91a.73.73,0,0,0,0-1.45H178A.73.73,0,0,0,178,18Z"/><path class="a" d="M32.17,171.15a.72.72,0,0,0,.72-.72V160.25a.72.72,0,1,0-1.44,0v10.18A.72.72,0,0,0,32.17,171.15Z"/><path class="a" d="M37.67,176.65h4.91a.72.72,0,0,0,0-1.44H37.67a.72.72,0,0,0,0,1.44Z"/><path class="a" d="M32.17,192.34a.72.72,0,0,0,.72-.72V181.43a.72.72,0,1,0-1.44,0v10.19A.72.72,0,0,0,32.17,192.34Z"/><path class="a" d="M21.76,176.65h4.91a.72.72,0,0,0,0-1.44H21.76a.72.72,0,0,0,0,1.44Z"/><path class="a" d="M497.94,291.5a7.1,7.1,0,1,1,7.1,7.09A7.11,7.11,0,0,1,497.94,291.5Zm1.45,0a5.65,5.65,0,1,0,5.65-5.65A5.65,5.65,0,0,0,499.39,291.5Z"/><path class="a" d="M542.77,58.6a4,4,0,1,1,4,4A4,4,0,0,1,542.77,58.6Zm1.45,0A2.56,2.56,0,1,0,546.78,56,2.57,2.57,0,0,0,544.22,58.6Z"/><path class="a" d="M472.3,170.85a4,4,0,1,1,4,4A4,4,0,0,1,472.3,170.85Zm1.45,0a2.57,2.57,0,1,0,2.56-2.56A2.57,2.57,0,0,0,473.75,170.85Z"/><path class="a" d="M305.61,193.66a4,4,0,1,1,4,4A4,4,0,0,1,305.61,193.66Zm1.44,0a2.57,2.57,0,1,0,2.56-2.56A2.57,2.57,0,0,0,307.05,193.66Z"/><path class="a" d="M247.82,53a7.1,7.1,0,1,1,7.09,7.1A7.1,7.1,0,0,1,247.82,53Zm1.44,0a5.66,5.66,0,1,0,5.65-5.65A5.66,5.66,0,0,0,249.26,53Z"/><path class="a" d="M401.87,33.1a1.7,1.7,0,0,1-.5-1.25,1.61,1.61,0,0,1,.52-1.22,1.7,1.7,0,0,1,1.23-.49,1.64,1.64,0,0,1,1.21.49,1.67,1.67,0,0,1,.5,1.22,1.71,1.71,0,0,1-.5,1.23,1.62,1.62,0,0,1-1.21.51A1.7,1.7,0,0,1,401.87,33.1Zm.51-5.7a.94.94,0,0,1-.32-.72V7.9a1,1,0,0,1,1.06-1.06,1,1,0,0,1,.73.31,1,1,0,0,1,.29.75V26.68a1,1,0,0,1-.3.72,1,1,0,0,1-.72.31A1,1,0,0,1,402.38,27.4Z"/><path class="a" d="M431.51,4.67a5.28,5.28,0,0,0-2.1-1.92,6.63,6.63,0,0,0-3.06-.7,5.77,5.77,0,0,0-4.25,1.64,5.77,5.77,0,0,0-1.64,4.25.94.94,0,0,1-.29.71,1,1,0,0,1-.73.28,1,1,0,0,1-.77-.28.91.91,0,0,1-.29-.71,8.24,8.24,0,0,1,1-4.11A7.26,7.26,0,0,1,422.24,1a8.34,8.34,0,0,1,4.11-1,8.43,8.43,0,0,1,4.1,1,7.27,7.27,0,0,1,2.84,2.74,7.51,7.51,0,0,1,1,3.86,6.91,6.91,0,0,1-.48,2.67,7.35,7.35,0,0,1-1.22,2q-.74.86-2.1,2.16l-1.27,1.19a6.38,6.38,0,0,0-1.84,4.69,1.05,1.05,0,0,1-.29.75,1.1,1.1,0,0,1-1.51,0,1,1,0,0,1-.29-.77,7.91,7.91,0,0,1,.65-3,8.25,8.25,0,0,1,1.68-2.63l1.19-1.16c.78-.73,1.39-1.35,1.85-1.87a6.43,6.43,0,0,0,1.13-1.83,6.25,6.25,0,0,0,.44-2.46A5.08,5.08,0,0,0,431.51,4.67Zm-3.93,19.64a1.62,1.62,0,0,1,.51,1.21,1.67,1.67,0,0,1-.51,1.25,1.71,1.71,0,0,1-1.23.49,1.64,1.64,0,0,1-1.22-.51,1.7,1.7,0,0,1-.49-1.23,1.66,1.66,0,0,1,1.71-1.71A1.72,1.72,0,0,1,427.58,24.31Z"/><path class="b" d="M493.63,97.36H424.71a4.31,4.31,0,0,0-4.31,4.31V139.5a4.31,4.31,0,0,0,4.31,4.31h10.56l10.78,13.84,10.79-13.84h36.79a4.31,4.31,0,0,0,4.31-4.31V101.67A4.31,4.31,0,0,0,493.63,97.36Z"/><path class="a" d="M446.05,158.93,434.88,144.6H424.71a5.1,5.1,0,0,1-5.1-5.1V101.67a5.11,5.11,0,0,1,5.1-5.1h68.92a5.1,5.1,0,0,1,5.1,5.1V139.5a5.1,5.1,0,0,1-5.1,5.1H457.22ZM424.71,98.15a3.52,3.52,0,0,0-3.51,3.52V139.5a3.52,3.52,0,0,0,3.51,3.52h10.94l10.4,13.34L456.45,143h37.18a3.53,3.53,0,0,0,3.52-3.52V101.67a3.53,3.53,0,0,0-3.52-3.52Z"/><polygon class="a" points="475.12 109.46 459.17 120.59 443.23 109.46 475.12 109.46"/><path class="a" d="M442,131.71V112.9l16.82,11.74a.5.5,0,0,0,.31.1.55.55,0,0,0,.32-.1l16.82-11.74v18.81Z"/><path class="a" d="M375.81,204.76l-6.73-8.62H347.83a3.33,3.33,0,0,1-3.32-3.33V170.57a3.33,3.33,0,0,1,3.32-3.33h40.52a3.33,3.33,0,0,1,3.32,3.33v22.24a3.33,3.33,0,0,1-3.32,3.33h-5.82Zm-28-35.93a1.74,1.74,0,0,0-1.74,1.74v22.24a1.74,1.74,0,0,0,1.74,1.74h22l6,7.64,5.95-7.64h6.59a1.74,1.74,0,0,0,1.74-1.74V170.57a1.74,1.74,0,0,0-1.74-1.74Z"/><path class="a" d="M354.69,181.69a2.9,2.9,0,1,0,2.9-2.9A2.9,2.9,0,0,0,354.69,181.69Z"/><path class="a" d="M365.19,181.69a2.9,2.9,0,1,0,2.9-2.9A2.9,2.9,0,0,0,365.19,181.69Z"/><path class="a" d="M375.69,181.69a2.9,2.9,0,1,0,2.9-2.9A2.9,2.9,0,0,0,375.69,181.69Z"/><path class="b" d="M300.76,73.47H353a3.26,3.26,0,0,1,3.26,3.27v28.68a3.26,3.26,0,0,1-3.26,3.27h-8l-8.17,10.49-8.18-10.49h-27.9a3.26,3.26,0,0,1-3.26-3.27V76.74A3.26,3.26,0,0,1,300.76,73.47Z"/><path class="a" d="M336.84,120.46l-8.57-11H300.76a4.06,4.06,0,0,1-4.05-4.06V76.74a4.06,4.06,0,0,1,4.05-4.06H353a4.06,4.06,0,0,1,4.05,4.06v28.68a4.06,4.06,0,0,1-4.05,4.06H345.4Zm-36.08-46.2a2.48,2.48,0,0,0-2.47,2.48v28.68a2.48,2.48,0,0,0,2.47,2.48h28.29l7.79,10,7.79-10H353a2.48,2.48,0,0,0,2.47-2.48V76.74A2.48,2.48,0,0,0,353,74.26Z"/><path class="a" d="M309.61,91.08a3.74,3.74,0,1,0,3.74-3.74A3.74,3.74,0,0,0,309.61,91.08Z"/><path class="a" d="M323.15,91.08a3.74,3.74,0,1,0,3.74-3.74A3.74,3.74,0,0,0,323.15,91.08Z"/><path class="a" d="M336.69,91.08a3.74,3.74,0,1,0,3.74-3.74A3.73,3.73,0,0,0,336.69,91.08Z"/><path class="c" d="M218.89,250.21l-32.07-5.06H151.94l-40.65,5.08A24,24,0,0,0,91.46,281.7l14,41.92,2.18,84.29H212.25l9.44-72.66,14.66-58.64A21.45,21.45,0,0,0,218.89,250.21Z"/><path class="a" d="M332.87,390.23h0a15.51,15.51,0,0,0,11,2.08l19.69-3.58a14.31,14.31,0,0,1,11.49,2.9l9.45,7.56v8.72H326.33l-7.07-2.62Z"/><path class="c" d="M329.29,407.91h-7.45C291.43,396.06,264,384,241.94,371.46a10.06,10.06,0,0,1-3.69-3.64,250.08,250.08,0,0,1-16.56-32.57L210.92,249l15.94,2.52A25.42,25.42,0,0,1,247,268.53,736.67,736.67,0,0,1,268,343a13.75,13.75,0,0,0,6.51,8.95l69.35,40.41C337.62,396.79,332.29,401.73,329.29,407.91Z"/><path class="a" d="M191.9,276.17a60.4,60.4,0,0,1-12.7,11.93,5.26,5.26,0,0,1-4.82.56A40.5,40.5,0,0,1,158,277.27s10.16-11.36,17.6-14.54C183.81,267.49,191.9,276.17,191.9,276.17Z"/><path class="c" d="M192.63,239.33a65.29,65.29,0,0,1-17.44,20.35,98.05,98.05,0,0,1-29.06-20.35l-11.63,8A140.05,140.05,0,0,0,154.85,280c6.74-7.58,13.32-14,20.74-17.29,7,3.59,13.76,9.77,19.95,17.29,4.32-11.29,7.55-22.06,8.51-32.15Z"/><path class="a" d="M195.54,280.55a.53.53,0,0,1-.41-.19,82.26,82.26,0,0,0-19.8-17.18.52.52,0,0,1-.19-.72.52.52,0,0,1,.72-.19A83.18,83.18,0,0,1,195.36,279c4.2-11.09,6.77-20.44,7.85-28.57a.55.55,0,0,1,.6-.46.54.54,0,0,1,.45.6c-1.12,8.41-3.81,18.11-8.23,29.65a.52.52,0,0,1-.41.33Z"/><path class="a" d="M154.85,280.55h0a.51.51,0,0,1-.4-.19,141.07,141.07,0,0,1-19.22-30.19.54.54,0,0,1,.26-.71.53.53,0,0,1,.7.26,140,140,0,0,0,18.68,29.5c5.95-6.58,14.29-13.5,20.47-17a.52.52,0,0,1,.72.2.54.54,0,0,1-.2.72c-6.24,3.48-14.71,10.55-20.61,17.18A.5.5,0,0,1,154.85,280.55Z"/><path class="a" d="M183.94,283.28a726.29,726.29,0,0,1,11,101.41l.18,5.77a54,54,0,0,1-10.39,11.6H173.26l-13-12.27a684.06,684.06,0,0,0,8-105.64Z"/><path class="c" d="M176.25,289.53a5.69,5.69,0,0,1-2.06-.38,39,39,0,0,1-4.91-2.23.53.53,0,0,1-.22-.71.54.54,0,0,1,.72-.22,38.48,38.48,0,0,0,4.79,2.18,4.72,4.72,0,0,0,4.34-.51,44.26,44.26,0,0,0,3.73-2.83.53.53,0,0,1,.75.07.53.53,0,0,1-.07.74,47,47,0,0,1-3.82,2.9A5.83,5.83,0,0,1,176.25,289.53Z"/><path class="a" d="M146.23,390.26h0a17.89,17.89,0,0,0,12.09,1.84L173,389.16a17,17,0,0,1,14.25,3.62l11.18,9.32v5.81H149l-9.55-2.56Z"/><path class="c" d="M155.52,392.43,90,359.52a1.9,1.9,0,0,1-.67-2.83c11.12-15.08,19.74-33.92,27-54.85l3.18-52.64-21.26,2.66A27.36,27.36,0,0,0,76.18,269c-11.75,29.84-22.75,59.43-31,90.07a16.86,16.86,0,0,0,8.53,19.3c21.79,11.35,50.81,20.75,78.19,29.12h12.56A39.18,39.18,0,0,1,155.52,392.43Z"/><path class="c" d="M189.49,395.16a.54.54,0,0,1-.34-.12l-2.22-1.85a16.44,16.44,0,0,0-13.81-3.51l-9.41,1.88a.53.53,0,0,1-.21-1l9.41-1.88a17.46,17.46,0,0,1,14.69,3.73l2.23,1.85a.53.53,0,0,1-.34.93Z"/><path class="a" d="M115.83,301.66c-8,23.08-16.78,41-26.9,54.72a.54.54,0,0,0,.11.74.52.52,0,0,0,.31.1.53.53,0,0,0,.43-.22c10.19-13.82,19-31.81,27.05-55a.53.53,0,0,0-.33-.67A.52.52,0,0,0,115.83,301.66Z"/><path class="a" d="M246.53,268.7c1.79,5.39,3.52,10.73,5.13,15.86a.52.52,0,0,0,.5.37l.16,0a.54.54,0,0,0,.35-.66c-1.62-5.14-3.34-10.49-5.14-15.89A25.83,25.83,0,0,0,226.94,251L211,248.43s-3.54-.6-5.54-1a.52.52,0,0,0-.61.42.54.54,0,0,0,.42.62l5.56,1L226.78,252A24.79,24.79,0,0,1,246.53,268.7Z"/><path class="a" d="M342.5,390.92l-41-23.9a.53.53,0,0,0-.53.91l41,23.9a.56.56,0,0,0,.27.08.53.53,0,0,0,.26-1Z"/><path class="a" d="M294.5,396.25c-26-10.32-31.22-13.27-48.42-23.05L242.2,371a9.47,9.47,0,0,1-3.49-3.45,280,280,0,0,1-13.33-25.1.52.52,0,0,0-.7-.26.53.53,0,0,0-.26.7,282.12,282.12,0,0,0,13.38,25.2,10.46,10.46,0,0,0,3.88,3.82l3.88,2.21c17.25,9.8,22.46,12.76,48.55,23.11a.64.64,0,0,0,.2,0,.52.52,0,0,0,.19-1Z"/><path class="a" d="M220.69,342.94a.53.53,0,0,0-.59.46l-6.82,52.48a.53.53,0,0,0,.46.59h.06a.53.53,0,0,0,.53-.46l6.82-52.48A.53.53,0,0,0,220.69,342.94Z"/><path class="a" d="M99.62,396.57c-19-6.49-34-12.61-45.63-18.68a.53.53,0,1,0-.49.93c11.72,6.1,26.69,12.24,45.78,18.75a.51.51,0,0,0,.17,0,.53.53,0,0,0,.5-.36A.54.54,0,0,0,99.62,396.57Z"/><path class="a" d="M45.43,366.32a.52.52,0,0,0-.61-.43.54.54,0,0,0-.43.62A17.28,17.28,0,0,0,47,372.89a.51.51,0,0,0,.44.24.6.6,0,0,0,.29-.08.53.53,0,0,0,.15-.73A16.46,16.46,0,0,1,45.43,366.32Z"/><path class="a" d="M45.07,359.56l.14,0a.53.53,0,0,0,.51-.39c8.47-31.57,19.88-61.92,31-90a26.83,26.83,0,0,1,21.65-16.79.53.53,0,1,0-.13-1,27.89,27.89,0,0,0-22.5,17.46c-11.08,28.12-22.5,58.5-31,90.12A.53.53,0,0,0,45.07,359.56Z"/><path class="a" d="M107.48,251.23h.06l23.78-3a.52.52,0,0,0,.46-.58.53.53,0,0,0-.59-.46l-23.78,3a.54.54,0,0,0-.46.59A.53.53,0,0,0,107.48,251.23Z"/><path class="a" d="M153.5,390.83l-46.29-23.26-.8-27.27a.52.52,0,0,0-.52-.52h0a.53.53,0,0,0-.51.55l.78,26.7-12.75-6.41a.53.53,0,1,0-.47.94L153,391.77a.46.46,0,0,0,.23.06.53.53,0,0,0,.24-1Z"/><path class="a" d="M59.89,360.65a.54.54,0,0,0-.16.73.57.57,0,0,0,.45.24.47.47,0,0,0,.28-.09,30.28,30.28,0,0,1,26-3.42.53.53,0,1,0,.33-1A31.34,31.34,0,0,0,59.89,360.65Z"/><path class="a" d="M225.6,301.31a.52.52,0,0,0-.55.5c-1.05,19.46-3.24,29.89-3.26,30a.53.53,0,0,0,.41.63h.11a.52.52,0,0,0,.51-.42c0-.1,2.23-10.6,3.28-30.16A.53.53,0,0,0,225.6,301.31Z"/><path class="a" d="M118.73,292.12a50.09,50.09,0,0,1-1.37,5.27.53.53,0,0,0,.33.67.5.5,0,0,0,.17,0,.53.53,0,0,0,.5-.36,52.22,52.22,0,0,0,1.41-5.41.53.53,0,0,0-.42-.62A.54.54,0,0,0,118.73,292.12Z"/><path class="a" d="M136.24,246.66a.49.49,0,0,0,.3-.1l8.13-5.59a.53.53,0,0,0,.14-.73.54.54,0,0,0-.74-.14l-8.13,5.59a.53.53,0,0,0,.3,1Z"/><path class="a" d="M194.42,240a.53.53,0,0,0-.63.85l8.48,6.24a.52.52,0,0,0,.31.1A.54.54,0,0,0,203,247a.52.52,0,0,0-.11-.73Z"/><path class="a" d="M154.25,107.32a.54.54,0,0,1-.46-.27c-2.22-4-11.33-9-17.94-8.82a.53.53,0,0,1-.55-.51.53.53,0,0,1,.51-.55c6.54-.19,16.28,4.62,18.91,9.37a.53.53,0,0,1-.21.71A.48.48,0,0,1,154.25,107.32Z"/><path class="a" d="M146.13,239.33l5.81-43.59h34.88l5.81,43.59c-2.81,8.58-9,15.13-17.44,20.35C163.28,255.41,153.42,248.81,146.13,239.33Z"/><ellipse class="c" cx="147.75" cy="131.05" rx="26.8" ry="28.11" transform="translate(-48.04 156.96) rotate(-49.11)"/><ellipse class="c" cx="205.93" cy="149.35" rx="17.63" ry="35.57"/><path class="a" d="M221,168.27a.39.39,0,0,1-.15,0,.53.53,0,0,1-.36-.66A64.23,64.23,0,0,0,223,149.35a71.9,71.9,0,0,0-.46-8.09.52.52,0,1,1,1-.12,71.57,71.57,0,0,1,.47,8.21,65.33,65.33,0,0,1-2.56,18.55A.53.53,0,0,1,221,168.27Z"/><ellipse class="c" cx="160.44" cy="158.71" rx="34.47" ry="41.3" transform="matrix(0.96, -0.27, 0.27, 0.96, -37.44, 50.21)"/><path class="a" d="M217.63,151.65c1.11,27.64-5,65.5-19.77,74.43S150,213.49,144.61,198s-9.24-51.73,7-60.38S216.54,124.72,217.63,151.65Z"/><ellipse class="c" cx="186.12" cy="125.31" rx="45.32" ry="27.28"/><ellipse class="c" cx="142.93" cy="150.33" rx="28.85" ry="14.12" transform="translate(-31 263.35) rotate(-79.46)"/><path class="c" d="M186,157.89a.53.53,0,0,1-.53-.47.54.54,0,0,1,.47-.59c18.66-2,32.7-13.55,32.84-13.66a.53.53,0,0,1,.75.07.53.53,0,0,1-.07.74c-.14.12-14.42,11.84-33.41,13.9Z"/><path class="a" d="M154.2,107.29a.53.53,0,0,1-.53-.48,30.34,30.34,0,0,0-2.83-10.24.53.53,0,0,1,.22-.71.52.52,0,0,1,.71.22,30.5,30.5,0,0,1,2.95,10.64.52.52,0,0,1-.48.57Z"/><path class="c" d="M210.72,157a.54.54,0,0,1-.34-.12.53.53,0,0,1-.07-.74c9.45-11.51,11.52-28.55,11.54-28.72a.53.53,0,0,1,.59-.46.52.52,0,0,1,.46.58c0,.18-2.12,17.51-11.77,29.27A.56.56,0,0,1,210.72,157Z"/><path class="a" d="M188.24,144.57a100.14,100.14,0,0,1-16.75-1.47.53.53,0,0,1-.42-.62.54.54,0,0,1,.62-.42c.13,0,13.21,2.5,25.12.94,11.7-1.53,20.42-5.87,24.55-12.21a13,13,0,0,0,2-10.6.53.53,0,0,1,.36-.66.52.52,0,0,1,.65.36,14,14,0,0,1-2.17,11.47C217.94,138,209,142.47,197,144A67.63,67.63,0,0,1,188.24,144.57Z"/><path class="c" d="M210.25,186.28h-1.37a13.18,13.18,0,0,1-12.29-8.52,5.62,5.62,0,0,1,5.27-7.59h15.41a5.62,5.62,0,0,1,5.27,7.59A13.18,13.18,0,0,1,210.25,186.28Zm-8.39-15.06a4.53,4.53,0,0,0-3.76,2,4.47,4.47,0,0,0-.52,4.2,12.13,12.13,0,0,0,11.3,7.84h1.37a12.12,12.12,0,0,0,11.3-7.84,4.57,4.57,0,0,0-4.28-6.17Z"/><path class="a" d="M217.34,184.1a.53.53,0,0,1-.3-1,12,12,0,0,0,4.51-5.75,4.49,4.49,0,0,0-.22-3.71,4.58,4.58,0,0,0-2.91-2.32.53.53,0,1,1,.26-1,5.58,5.58,0,0,1,3.58,2.86,5.51,5.51,0,0,1,.28,4.56,13,13,0,0,1-4.91,6.25A.52.52,0,0,1,217.34,184.1Z"/><path class="c" d="M178.67,186.28h-1.36A13.18,13.18,0,0,1,165,177.76a5.62,5.62,0,0,1,5.26-7.59H185.7a5.63,5.63,0,0,1,5.27,7.59A13.18,13.18,0,0,1,178.67,186.28Zm-8.39-15.06a4.57,4.57,0,0,0-4.27,6.17,12.12,12.12,0,0,0,11.3,7.84h1.36A12.13,12.13,0,0,0,190,177.39a4.57,4.57,0,0,0-4.28-6.17Z"/><rect class="c" x="155.44" y="164.5" width="1.05" height="18.69" transform="translate(-41.27 298.93) rotate(-80.49)"/><path class="c" d="M204.32,179.62a2.61,2.61,0,1,0,2.61-2.61A2.6,2.6,0,0,0,204.32,179.62Z"/><path class="c" d="M178,179.62A2.61,2.61,0,1,0,180.6,177,2.6,2.6,0,0,0,178,179.62Z"/><path class="c" d="M202.47,167.56a.51.51,0,0,1-.39-.18.54.54,0,0,1,0-.75c2.53-2.2,7.06-1.55,12.29-.56a.53.53,0,1,1-.2,1c-4.77-.91-9.23-1.57-11.4.32A.51.51,0,0,1,202.47,167.56Z"/><path class="c" d="M185.26,167.85a.54.54,0,0,1-.44-.23c-1.54-2.2-5.7-1.6-9.72-1l-1.58.23a.53.53,0,1,1-.14-1.05l1.57-.22c4.33-.63,8.82-1.28,10.74,1.46a.52.52,0,0,1-.13.73A.49.49,0,0,1,185.26,167.85Z"/><path class="c" d="M196.06,201.08a.52.52,0,0,1-.52-.44A.53.53,0,0,1,196,200a3.88,3.88,0,0,0,3.13-5l-3.05-10a.52.52,0,0,1,.35-.66.51.51,0,0,1,.65.35l3.06,10a5,5,0,0,1-4,6.35Z"/><path class="a" d="M167,100.58c-5.13-1.08-10.29.66-15.13,4.55-14.47,11.65-17.18,24.45-17.18,36.33v30.85l9.72-1.17V140.36c0-16.4,8.23-31.86,22.59-39.78Z"/><path class="c" d="M145,166.93a15.21,15.21,0,0,0-7.94-2.55c-2.67,0-3.89.23-3.77,1.34,0,.26,0,.52,0,.78l-.1,6.87L145,172.26Z"/><path class="c" d="M197.36,210.46a22.61,22.61,0,0,1-7.33-1.22.53.53,0,1,1,.36-1c3.89,1.41,9.17,1.55,11.76.31a.53.53,0,0,1,.71.25.53.53,0,0,1-.25.7A12.54,12.54,0,0,1,197.36,210.46Z"/><path class="c" d="M177.45,214.78h-8.62A10,10,0,0,1,162,212.1l-19.61-18.2,2.16-2.32,19.6,18.2a6.88,6.88,0,0,0,4.68,1.83h8.62Z"/><path class="c" d="M173.35,213.19a4.1,4.1,0,1,0,4.1-4.09A4.1,4.1,0,0,0,173.35,213.19Z"/><ellipse class="a" cx="137.69" cy="184.26" rx="14.17" ry="16.94"/><path class="c" d="M149.48,194.19a.48.48,0,0,1-.26-.07.52.52,0,0,1-.2-.71,19.3,19.3,0,0,0,.53-17.25.52.52,0,0,1,.26-.7.52.52,0,0,1,.7.25,20.05,20.05,0,0,1,1.88,8.55,19.81,19.81,0,0,1-2.45,9.66A.54.54,0,0,1,149.48,194.19Z"/><ellipse class="c" cx="133.85" cy="184.26" rx="11.19" ry="13.38"/><path class="a" d="M131.88,193.69a.44.44,0,0,1-.16,0c-3.59-1.13-6.1-5-6.1-9.41a11.45,11.45,0,0,1,.5-3.37.53.53,0,1,1,1,.31,10.45,10.45,0,0,0-.46,3.06c0,4,2.21,7.41,5.37,8.4a.53.53,0,0,1,.34.66A.52.52,0,0,1,131.88,193.69Z"/><path class="c" d="M188.9,228.71c-15,0-34.35-14.61-37.42-19.46a.53.53,0,1,1,.89-.56c2.9,4.58,22.17,19,36.53,19a.53.53,0,0,1,0,1.05Z"/><path class="a" d="M218.6,144.86a.53.53,0,0,1-.28-1c8.12-5,12.59-11.62,12.59-18.57,0-14.75-20.09-26.75-44.79-26.75a72,72,0,0,0-15.61,1.67.54.54,0,0,1-.63-.4.53.53,0,0,1,.41-.63,72.72,72.72,0,0,1,15.83-1.7C211.4,97.5,232,110,232,125.31c0,7.33-4.65,14.25-13.09,19.47A.57.57,0,0,1,218.6,144.86Z"/><path class="a" d="M130.21,151.83a.48.48,0,0,1-.34-.13c-11.94-10.33-13.63-28-3.77-39.4a26.54,26.54,0,0,1,19.4-9.13.54.54,0,0,1,.55.51.53.53,0,0,1-.51.54A25.47,25.47,0,0,0,126.9,113c-9.48,11-7.84,28,3.66,37.92a.52.52,0,0,1,.05.74A.52.52,0,0,1,130.21,151.83Z"/><path class="a" d="M127.3,168.71a.51.51,0,0,1-.5-.38,48.19,48.19,0,0,1-1.23-21.49.52.52,0,0,1,.61-.43.52.52,0,0,1,.42.61,47.26,47.26,0,0,0,1.21,21,.52.52,0,0,1-.36.65A.39.39,0,0,1,127.3,168.71Z"/><polygon class="c" points="252.01 364.44 466.01 364.44 479.39 230.69 265.39 230.69 252.01 364.44"/><polygon class="a" points="479.39 230.69 474.08 226.09 260.08 226.09 246.71 359.83 252.01 364.44 265.39 230.69 479.39 230.69"/><ellipse class="a" cx="366.53" cy="302.57" rx="28.42" ry="13.37"/><polygon class="a" points="345.64 331 409.17 401.22 362.36 401.22 344.77 339.67 345.64 331"/><polygon class="c" points="365.7 401.22 412.51 401.22 392.45 331 345.64 331 365.7 401.22"/><path class="c" d="M352.33,407.91h80.24a3.35,3.35,0,0,0,3.35-3.34h0a3.35,3.35,0,0,0-3.35-3.35H352.33a3.35,3.35,0,0,0-3.35,3.35h0A3.35,3.35,0,0,0,352.33,407.91Z"/><path class="a" d="M325.58,407.91h30.09a3.34,3.34,0,0,0,3.34-3.34h0a3.34,3.34,0,0,0-3.34-3.35H325.58a3.35,3.35,0,0,0-3.35,3.35h0A3.35,3.35,0,0,0,325.58,407.91Z"/><path class="a" d="M432.57,408.44a.53.53,0,0,1,0-1.06,2.82,2.82,0,1,0,0-5.63H368.14a.52.52,0,0,1-.52-.53.52.52,0,0,1,.52-.52h64.43a3.87,3.87,0,1,1,0,7.74Z"/><path class="a" d="M412.51,401.75a.51.51,0,0,1-.5-.38l-20-69.84H348.92a.53.53,0,1,1,0-1h43.53a.53.53,0,0,1,.51.38L413,401.08a.52.52,0,0,1-.36.65Z"/><path class="a" d="M352.83,365H258.78a.53.53,0,0,1,0-1.06h94.05a.53.53,0,0,1,0,1.06Z"/><path class="a" d="M466.49,365H411.62a.53.53,0,0,1,0-1.06h53.91l13.16-131.57a.52.52,0,0,1,.58-.47.53.53,0,0,1,.47.58Z"/><path class="c" d="M352.83,401.75h-16a.52.52,0,0,1-.52-.53.52.52,0,0,1,.52-.52h16a.52.52,0,0,1,.53.52A.53.53,0,0,1,352.83,401.75Z"/><path class="a" d="M103.08,407.91H151.8a3.64,3.64,0,0,0,3.63-3.63h0a3.64,3.64,0,0,0-3.63-3.64H103.08a3.64,3.64,0,0,0-3.63,3.64h0A3.64,3.64,0,0,0,103.08,407.91Z"/><path class="c" d="M143.44,407.91H304.76a3.64,3.64,0,0,0,3.63-3.63h0a3.64,3.64,0,0,0-3.63-3.64H143.44a3.64,3.64,0,0,0-3.63,3.64h0A3.64,3.64,0,0,0,143.44,407.91Z"/><path class="a" d="M304.76,408.44a.53.53,0,0,1,0-1.06,3.11,3.11,0,0,0,0-6.21H201.44a.53.53,0,0,1-.53-.53.52.52,0,0,1,.53-.52H304.76a4.16,4.16,0,1,1,0,8.32Z"/><path class="a" d="M57.76,408.83H537a.73.73,0,0,0,0-1.45H57.76a.73.73,0,0,0,0,1.45Z"/><path class="a" d="M.72,408.91H41.35a.73.73,0,0,0,0-1.45H.72a.73.73,0,0,0,0,1.45Z"/></svg>