<svg xmlns="http://www.w3.org/2000/svg" viewBox="0 0 335.56 313.99"><defs><style>.a{fill:#333;}</style></defs><path class="a" d="M62.67,109.74c1.6-2.57,3-5.18,4.64-7.6,1.34-2,2.22-4.16,3.53-6.11,1.62-2.41,3-5,5.1-7,.8-.75,1.25-1.87,2-2.59,3.12-2.82,6.26-5.63,10.27-7.15a30.44,30.44,0,0,1,8.81-2.33c1.39-.09,2.68-.77,4.16-.65a12.53,12.53,0,0,0,4.18-.46,6.52,6.52,0,0,1,4.8.4c1,.53,2.47.06,3.73.12a21.09,21.09,0,0,1,2.59.49c.55-.42,1.58-1.18,2.59-2,2.07-1.61,4.1-3.27,6.2-4.83s4.22-3,6.31-4.53c3.15-2.29,6.35-4.56,9.36-7,2.82-2.29,5.88-4.25,8.68-6.56,2.53-2.1,5.28-4,7.91-5.9,4.72,2.66,8.83,6.15,13.26,9.16,4.65,3.15,8.85,7,13.48,10.14,5,3.41,9.59,7.24,14.49,10.69,5.73,4,11.28,8.29,16.86,12.53,3.74,2.83,7.75,5.32,11.35,8.31,4,3.34,8.26,6.35,12.54,9.32,1.08.75,1.74,2,3.06,2.53.49.2.64,1.36.8,2.11a9.93,9.93,0,0,1,0,1.89v80.38c-1.07,7.13-.54,14.32-.61,21.48s0,14.29,0,21.56c1.49,1.49,3,3.08,4.61,4.59a9.8,9.8,0,0,1,3,5.08c.25,1.14,1,2.07,1.32,3.24,1,3.68.25,7.41.63,11.1,2.32-.28,3.94-2,5.6-3.31,3.47-2.8,7.23-5.21,10.49-8.32,1.68-1.62,3.51-3.14,5.23-4.76a8.69,8.69,0,0,0,2.56-6.19c.06-1.14,0-2.29,0-3.3a71.87,71.87,0,0,0-6.05-4.06c-1.44-.77-2.5-2-3.87-2.79a36.6,36.6,0,0,1-3.78-3.08,35.12,35.12,0,0,1-3.06-2.47,32.21,32.21,0,0,1-3.55-4.2c-1.39-2-3-3.89-3.85-6.28a63.07,63.07,0,0,1-2.44-7.84,37.14,37.14,0,0,1-.46-8.59,48,48,0,0,1,1.58-9.08A51.11,51.11,0,0,1,255,174.71c1.24-2.53,2.3-5.15,3.55-7.67,1.18-2.36,2.47-4.66,3.79-6.94a17.65,17.65,0,0,1,1.95-2.23c2.37,2.65,4.57,5.08,6.72,7.54.59.67,1,1.52,1.59,2.17,4.07,4.4,8.16,8.8,11.3,13.93,1.32,2.15,2.88,4.19,3.66,6.67s1.9,4.72,2.44,7.17a30.78,30.78,0,0,1,.6,11.06,35.89,35.89,0,0,1-2.89,9.5c-2.07,4.61-4.28,9.15-6.31,13.78a12.12,12.12,0,0,0-.63,6.92c.71-1.59,1.93-2.4,2.82-3.5s1.37-2.43,2.27-3.45c3.63-4.14,6-9,8.6-13.79.38-.68.64-1.41,1-2.12L297,210.3c-1.39-.91.12-2.68-1.09-3.64-.1-2.85-1.11-5.6-.81-8.5.19-1.81-.14-3.62.61-5.43a23.91,23.91,0,0,1,4.65-7.85c2.06-2.1,4.1-4.21,6.24-6.23a37.59,37.59,0,0,1,10.2-7.28c.34.54,1,1.1,1,1.64,0,1.41,1.58,2.81.06,4.21,1.15,1.92.8,4.08.55,6-.56,4.4-.8,8.82-2.77,13a30.54,30.54,0,0,1-5.91,8.89c-2.08,2.09-4.07,4.26-6.79,5.65a6.49,6.49,0,0,0-2.33,2.76c-1.79,3.25-3.26,6.67-5.27,9.8-1.53,2.38-2.93,4.84-4.42,7.32,1.8.1,3-1.33,4.23-2.23,2.57-1.88,4.31-4.64,6.31-7.11,1.21-1.48,2.28-3.08,3.57-4.49a11.11,11.11,0,0,1,3.08-2.43c1.64-.82,3.43-1.77,5.19-1.82,2.16-.07,4.22-1,6.35-.72,4.74.53,9.53.86,14.1,2.44.6.21,1.27.27,1.53.82a6,6,0,0,1,.3,1.7c-1.86,3.12-4.7,5.18-7.25,7.42a39.05,39.05,0,0,1-9.77,6.77c-2.63,1.17-5.21,2.45-8.21,2.25-1.23-.08-2.21,1-3.53.66a31.46,31.46,0,0,0-3.51-.65,19.77,19.77,0,0,1-3.57-.5,6,6,0,0,0-5,.6c-2.16,1.36-4.35,2.68-6.53,4-.08.06-.13.19-.22.22-3.46.92-5.49,3.72-7.91,6-3.09,2.92-6.14,5.9-9.35,8.68-2.88,2.5-6,4.77-9,7.14.09.09.18.24.23.23,2-.52,4.14-.39,6.17-.95.95-.27,2-.24,3-.48,2.84-.69,5.45-2.06,8.18-3s5.14-2.81,7.79-4a43.21,43.21,0,0,1,8.3-2.83c1.57-.37,3.25-.17,4.69-.81,1.65-.74,3.28-.33,4.89-.33a24.21,24.21,0,0,1,14,5.06,25.1,25.1,0,0,1,3.91,3.41,87.41,87.41,0,0,1,5.68,7.1,46.91,46.91,0,0,1,5.11,9.23c1,2.5,1,2.67-1.53,3.54-.36.12-.65.56-1,.59-1.05.08-2.11-.05-3.15.05a25,25,0,0,1-2.89.57,31.52,31.52,0,0,0-5.74.63c-1.78.3-3.6-.12-5.44.58-1.19.46-2.7,0-4.06.1-3.91.18-7.81.58-11.72.57a26,26,0,0,1-10.19-2,21.32,21.32,0,0,1-6.39-4.35c-3.35-3.33-6.68-6.68-10.11-10.12-1.23.24-2.49.52-3.77.73s-2.7-.45-3.83.64c-1.88-.43-3.62.44-5.41.69-2.79.4-5.58.85-8,2.68a50.36,50.36,0,0,1-6.67,3.63c-2.24,1.18-4.33,2.69-6.91,3.12-3.41,2.37-7.54,3.09-11.24,4.81-2.17,1-4.68,1.39-7,2.07s-4.6,1-6.83,1.77c-1.4.5-3.07-.23-4.41.77-2.91-.48-5.68.91-8.57.64a3.91,3.91,0,0,0-2.58.61c-3.58,2.26-7.15,4.53-10.79,6.69-2.76,1.65-5.66,3.08-8.44,4.72s-5.64,3.6-8.52,5.31c-2.43,1.45-4.95,2.75-7.44,4.1a9.32,9.32,0,0,0-2.06,1.07c-1.26,1.19-2.44,1-3.9.37a65.2,65.2,0,0,1-7.15-4.06q-6.19-3.69-12.35-7.48c-2.51-1.55-5-3.17-7.48-4.77l-6.28-4.06c-2.81,1.41-5.5,3.24-8.67,4-.28.06-.5.36-.77.41a29.81,29.81,0,0,1-4.47.61c-6.62.07-13.24.18-19.85,0a52.15,52.15,0,0,1-7.38-1.09,115.47,115.47,0,0,1-12-3.1A73.29,73.29,0,0,1,54.42,281a55.1,55.1,0,0,1-10.35-7,53.85,53.85,0,0,1-5.46-5c-4-4.66-7.58-9.61-9.58-15.57-.74-2.19-1.72-4.33-2.6-6.48-.49-1.21-.3-2.51-1.05-3.68-.59-.93-.46-2.38-.81-3.44-.92-2.75-1-5.63-1.7-8.41a39.86,39.86,0,0,1-.7-7.91c-.1-1.89.3-3.86-.12-5.65a14.25,14.25,0,0,1-.51-4.18c.11-1.7.48-3.39.59-5.1s-.41-3.71.14-5.31,0-3.5.72-5.05c.76-1.74.24-3.47.41-5.19s-.61-3.5-1.06-5.22c-.66-2.5-1.15-5-1.85-8.15a15.43,15.43,0,0,0-2.16-1.48,39.63,39.63,0,0,1-12.08-8.91c-2.14-2.41-3.35-5.35-4.79-8.12A10.17,10.17,0,0,1,.8,157.3c-.43-7.57-1-15.14-.69-22.74a13.58,13.58,0,0,1,.69-2.64c2.25-.71,3.54,1,5,2.12,1.59,1.29,2.9,2.86,4.64,4,2.75,1.84,5.21,4.07,7.89,6a18.82,18.82,0,0,1,6.36,9.29A26.63,26.63,0,0,1,26,161.06c.17,3.85-.93,7.58-.71,11.41-1.09,2.36-.6,4.86-.58,7.3a29.91,29.91,0,0,0,.74,4.74c.65-.1,1-.43,1.14-1.24a17.69,17.69,0,0,1,1.31-5.12c1.16-2.2,1.61-4.6,2.51-6.84S32,166.9,33,164.83a42.2,42.2,0,0,0,3.2-7.81,12.7,12.7,0,0,0-1.44-10.43c-2.29-3.66-5.85-5.85-9.11-8.39-2-1.59-4.31-2.87-6.31-4.5-2.39-2-4.67-4.07-6.88-6.23-2.61-2.57-3.86-5.8-5-9.3-1.67-5.29-1.28-10.62-1-15.89a54.66,54.66,0,0,1,2.13-11c.93-3.5,2.32-6.9,2.77-10.53,1.41-2,1.19-4.9,3.87-6.45,1.73,1.3,3.66,2.55,5.36,4.06,3.23,2.87,7,4.91,10.55,7.3,2.06,1.4,4.21,2.61,6.15,4.22a36,36,0,0,1,4.33,4.5c1.57,1.88,2.27,4.29,3.15,6.56a10,10,0,0,1,.61,2.26c.11.83-.24,1.8.08,2.5.93,2.09.68,4.27.52,6.37a40,40,0,0,1-1.41,8.86c-1.32,4.2-2.24,8.51-3.51,12.72-.58,1.9-.45,4-.71,6-.14,1.08-.49,2.13-.59,3.21s0,2.31,0,3.47v1.5c.64-.34,1.11-.42,1.24-.67,2.35-4.7,4.45-9.51,6.68-14.26,1.82-3.86,3.68-7.72,5.27-11.68,1.78-4.41,3.84-8.71,5.37-13.23a4.24,4.24,0,0,0,.29-2.65c-1.09-2.71-1.53-5.66-3.1-8.17a2.78,2.78,0,0,0-.77-.67c-3-2.27-5.76-4.76-8.88-6.74-3.5-2.22-5.38-5.64-7.26-9a24.51,24.51,0,0,1-2.73-9c-.47-3.61,0-7.27-.65-10.76S35,54.25,34.7,50.8c.38-.32.79-.94,1.14-.91a4.73,4.73,0,0,1,2.49.74,125.16,125.16,0,0,0,11,7.79,11.74,11.74,0,0,1,3.25,2.7c.77,1.09,1.85,2,2.47,3.06,1.42,2.54,3.14,5,3.7,7.92.4,2.14,1.26,4.19,1.26,6.41s.07,4.63,0,6.94a30.82,30.82,0,0,1-.6,3.52c-.46,2.9.6,5.69.67,8.56a7.57,7.57,0,0,0,.88,2.24c1.52-4.21,1.91-8.57,3.49-12.59-.26-2.87,1.69-5.41,1.26-8.31,1.26-2,.47-3.71-.57-5.55-.71-1.24-.78-2.82-1.35-4.16s-.24-2.79-1.22-3.91c-.06-.06,0-.21,0-.31.22-1.85-.37-3.61-.58-5.42a22.81,22.81,0,0,1,0-5.66,19.38,19.38,0,0,1,4.71-11A87.88,87.88,0,0,1,74,35.58a58.4,58.4,0,0,1,12.64-8.52,5.65,5.65,0,0,1,1.79,3.27c.55,1.82.12,3.75.66,5.41.76,2.37.46,4.68.51,7a27.25,27.25,0,0,1-5.47,16.63A59,59,0,0,1,79,65.82c-2.52,2.66-4.79,5.57-7.16,8.36a17,17,0,0,0-1.83,5.56A66.71,66.71,0,0,1,67.9,90.18c-.56,2-1.11,4-1.55,6A98.29,98.29,0,0,1,63.41,106c-.4,1.22-.73,2.46-1.09,3.69a.71.71,0,0,1,.35.07.26.26,0,0,1-.23-.08l-.51.44.2.2A3.89,3.89,0,0,1,62.67,109.74ZM51.83,155.6c3.63-3,6.74-5.44,9.7-8.06,3.23-2.87,7.54-5.44,12.63-8.22a74.68,74.68,0,0,1,14-5.69,45.22,45.22,0,0,1,8-1.87,31.52,31.52,0,0,0,4-1.07c-4-.43-7.45.35-10.74-.77a1.58,1.58,0,0,0-1.23,0c-1.2.89-2.55.63-3.85.58a24.38,24.38,0,0,0-8,1.31,32.1,32.1,0,0,0-11.77,6.41c-3.47,3-6.89,6.19-9.16,10.32a40.69,40.69,0,0,0-3.05,6.63l-.13-.13-.51.44.2.2C52.18,155.52,52.33,155.35,51.83,155.6ZM72.4,101.74a7.88,7.88,0,0,0,1.57-.67,107.55,107.55,0,0,1,13.31-8.19c2.47-1.32,5.12-2.34,7.7-3.47s5-2,7.59-3a26.31,26.31,0,0,1,8.65-1.95c.91-1,2.4-.17,3.13-.73,1-.74,2.12-.09,2.85-.76,1-.91,2.26.07,3.6-.92a4.64,4.64,0,0,0-1.11-.59c-2.21-.5-4.43-1.31-6.66-1.35-5.52-.08-11-.22-16.52,1.08a34.38,34.38,0,0,0-15.24,8.13c-3.28,2.82-5.41,6.56-8,9.94a4.58,4.58,0,0,0-.63,2.28l-.12-.13-.52.44.2.2C72.36,101.93,72.51,101.76,72.4,101.74ZM21.46,84.57l.12-.12-.43-.52-.2.2c.17.15.34.3.37-.06a9.56,9.56,0,0,0,.43,1.6,26.8,26.8,0,0,1,2,3.28C24.76,91.57,26,94.11,27,96.71c.95,2.33,2.17,4.69,2.57,7.1.76,4.69,2.84,9,3.27,13.79,1.28.75,0,2.5,1.26,3.25-.28,1.36.32,2.57.62,3.84s.39,2.35.65,3.51c.45,2,1,4,1.49,6.24.93-3.39,1.92-6.48,2.59-9.64.5-2.31,1.48-4.5,1.61-6.91,0-.65.49-1.28.58-2s-.23-1.78.07-2.49c1.5-3.55.62-7.12-.28-10.44a19.36,19.36,0,0,0-9.31-12.23c-2.23-1.26-4.26-2.88-6.43-4.26A16.18,16.18,0,0,0,21.46,84.57Zm249,87,.12-.13-.44-.51-.2.2c.17.14.35.29.41-.07a9.58,9.58,0,0,0,.41,2.23c1.33,2.69,1.53,5.68,2.2,8.52a53.12,53.12,0,0,1,1.21,8.29c.21,3,.51,5.91.76,8.86.17,2-.52,4.13.63,6-.43,3.52.57,7,.66,10.45a45,45,0,0,0,.64,6.66,26.94,26.94,0,0,0,1.4,4.09c2.44-2.43,2.95-5.79,4.8-8.48.9-1.31,1-3.14,1.7-4.63a35.82,35.82,0,0,0,2.13-10.77c-.11-1.07-.56-2.13-.57-3.2a17.89,17.89,0,0,0-.64-3.21,37.92,37.92,0,0,0-5.52-13.15A48.84,48.84,0,0,0,270.5,171.58ZM162.69,54.94l.12-.12-.44-.52-.2.2c.17.15.35.29.39.45,1.62,3.74,3.06,7.57,4.93,11.19,1.16,2.25,1.67,4.84,3.45,6.77.18,2.45,1.94,4.23,2.74,6.43s1.71,4.33,2.66,6.45c2.59,5.76,5.22,11.5,7.84,17.24.41.88.84,1.75,1.26,2.63,1.48,3.07,2.95,6.15,4.36,9.07a14,14,0,0,0,4.82-.52c1.5-.45,3.27.31,4.76-.7,3.87.08,7.65-.7,11.45-1.23a50.42,50.42,0,0,0,5.12-.57,48.79,48.79,0,0,1,7.59-.72c.42,0,1,.18,1.23,0,1.07-1.13,2.38-.4,3.55-.6a23.18,23.18,0,0,1,3.84-.59,6.44,6.44,0,0,0,3.62-.92C211.58,90.7,187.3,72.6,162.69,54.94ZM128.1,185.28c1.59,2.14,3.26,4.37,4.91,6.62,1.94,2.66,3.84,5.34,5.78,8s4.06,5.45,6,8.23c1.55,2.2,3.25,4.27,4.75,6.52,2.34,3.49,5,6.77,7.52,10.13a61.87,61.87,0,0,1,4.37,5.76c2.22,3.81,5.21,7,7.67,10.66,2,2.89,4.13,5.66,6.25,8.44,1.5,2,3.08,3.86,4.84,6,.3-3.29.6-6.12.82-9,.3-3.79-.28-7.58.52-11.42a31.53,31.53,0,0,0,.07-8.79c-.23-2.92.63-5.69.72-8.56.15-4.74-.22-9.47.46-14.25.74-5.29,0-10.72.67-16.11s-.31-10.74.62-16.13c.54-3.05,0-6.28.12-9.43s.44-6.33.6-9.5c.25-4.75-.08-9.48.51-14.25s.12-9.64.14-14.47a3.23,3.23,0,0,1,.3-1.45,2.79,2.79,0,0,0,.13-2.46H125.05c-.44,1.75.34,3.27.43,4.84.29,4.74-.09,9.48.62,14.24.61,4-.07,8.19.58,12.34.71,4.56-.32,9.3.76,13.9C127,171.88,128.2,178.47,128.1,185.28ZM30.46,216.37c-.79,1.88-1.52,3.79-2.39,5.63-1.54,3.24-.89,6.61-.62,9.94a41.19,41.19,0,0,0,1,5.25c.51,2.3,1,4.62,1.66,6.87.77,2.5,1.65,5,2.67,7.4,2,4.8,5.34,10.78,8.45,13.82a84.34,84.34,0,0,0,6.35,5.88,81.87,81.87,0,0,0,10.7,6.94,63.25,63.25,0,0,0,11.27,4.76,68.87,68.87,0,0,0,10.82,2.84c1.49.24,3.18.12,4.42.69,1.48.67,2.83.25,4.21.49a19.77,19.77,0,0,0,4.14.59c3.81-.14,7.62.51,11.42-.51,1.81-.48,3.8-.18,5.73-.6a19.19,19.19,0,0,0,5.27-1.79c.44-.25.86-.55,1.41-.9-5.86-3.79-11.52-7.33-17.13-10.95-6.13-4-12.43-7.64-18.47-11.73-2.79-1.89-6.14-3.1-8.26-6.22.21-8.77.95-17.7.77-26.66s0-18.07,0-27.1V174.13c-6-.46-11.73.57-17.38-.72-2.41-.55-4.82-1.06-7.22-1.6-2-.45-4-1.34-6.11-.81C39,175.23,34.72,179.16,31,183.68c-.76.94-.41,2.18-1.3,2.95.08,3.75-2.22,7.08-1.89,10.88-1.34,1.2-.33,2.9-.9,4.35s-.28,3-.35,4.58c0,.52.16,1.13,0,1.56-1.23,2.69-.28,5.45-.48,8.19a16.63,16.63,0,0,0,2.28-3.95c1-2.87,1.68-5.82,2.49-8.74a2.28,2.28,0,0,0,.15-.57,4.7,4.7,0,0,1,.59-2.92,16,16,0,0,0,1.28-2.92,20.46,20.46,0,0,1,1.34-2.59,8.3,8.3,0,0,1,1.8-2.38c.9-.65,1.05-1.82,2.09-2.37s1.46-1.51,2.31-2.07a27.38,27.38,0,0,1,7-3.61c2.56-.77,5-1.88,7.74-1.84,3.69-1.71,7.88-1.58,11.64-3.1a2,2,0,0,1,2.77,1.29c-.22,1.91-.12,4.25-.81,6.32-1.44,4.32-2.56,8.85-5,12.71a35.33,35.33,0,0,1-8.48,8.78,38.19,38.19,0,0,1-8.52,4.6,44.15,44.15,0,0,1-6.05,2.08A90.88,90.88,0,0,1,30.46,216.37ZM238.4,234.19V226.4c0-2.41-.09-4.83,0-7.24.11-2.23-.15-4.42.47-6.71s.13-4.8.13-7.21V113.51c-.6,0-1.07-.14-1.4,0-2.76,1.27-5.78.3-8.66,1.13-2.6.74-5.46.53-8.21.74-.32,0-.79-.14-.92,0-1,1.18-2.38.38-3.55.6s-2.55.5-3.84.63c-2.63.25-5.28.43-7.93.64-.1,0-.24-.05-.31,0-1.36,1.15-3,.22-4.45.67a14,14,0,0,1-4.8.58h-2a6.55,6.55,0,0,0,.13,1.65c1.3,3.66,2.57,7.34,4,11s2.81,7.06,4,10.63c1.82,5.66,4,11.2,6,16.77,1.92,5.37,4,10.74,6,16.09,1.87,5,3.89,10,5.44,15.09.93,3.06,2.33,6,3.45,9,1.67,4.46,3.05,9,5,13.39.85,1.95,1.31,4.08,2,6.08,1.71,4.66,3.51,9.28,5.06,14a2,2,0,0,0,1,1.12A34.52,34.52,0,0,0,238.4,234.19ZM127.7,259.33c-.34-2.47-.72-4.45-.87-6.45-.33-4.43.2-8.84-.54-13.31-.7-4.23,0-8.61-.65-13s.07-8.61-.61-13c-.72-4.67.09-9.46-.65-14.23-.66-4.25,0-8.61-.61-13-.69-4.67.14-9.47-.67-14.22-.62-3.73.27-7.59-.62-11.4-.49-2.1,0-4.4-.12-6.6s.26-4.19-.46-6.4c-.65-2-.3-4.38-.1-6.56.3-3.22-1-6.24-.83-9.43a36.5,36.5,0,0,0-1.72,4.26c-1.76,5.16-3.26,10.43-5.19,15.5-1.76,4.64-3.25,9.36-4.89,14-2.54,7.25-5,14.53-7.42,21.81q-3.59,10.65-7.09,21.32c-.55,1.66-1.16,3.32-1.57,5s-1.16,3.53-1.71,5.29A44,44,0,0,1,89.64,224a19,19,0,0,0-1.83,5.2c-.23,1.81-1.85,3.17-1.42,5.11-1.46,2.17-1.59,4.79-2.44,7.18-.91,2.56-1.57,5.23-2.6,7.74a4.58,4.58,0,0,0-.49,2.7c3.59,1.44,7.37,1.12,10.93,2.13,1.32.37,2.74,0,4.17.58s3,.37,4.44.59c2.77.42,5.54.77,8.29,1.35,1.46.3,3,.09,4.48.59s3,0,4.47.65c1,.41,2.4-.14,3.32.33s2,.17,3,.37ZM190,126.4c-.49,5.18.08,9.81-.65,14.46s0,9.46-.65,14.23c-.72,5,.06,10.08-.6,15.18-.74,5.72.07,11.57-.67,17.38-.69,5.32.34,10.73-.63,16.12a35.48,35.48,0,0,0,0,8.8c.22,3-.77,5.91-.67,8.88.3,9.17-1.11,18.3-.65,27.47a2,2,0,0,1-.14,1.19c-.94,1.31-.4,2.61-.29,4.34.28-.59.35-.77.44-.94,2.73-4.75,5.49-9.49,8.18-14.26,1.2-2.12,2.19-4.35,3.4-6.46,1.31-2.31,2.87-4.48,4.16-6.79,1.37-2.46,2.3-5.21,3.89-7.51,2.69-3.89,4.62-8.19,7.05-12.22,1.71-2.82,3.23-5.75,4.58-8.18a11.7,11.7,0,0,0-.52-3,64.19,64.19,0,0,1-3.3-8.4c-1.09-3.22-2.41-6.36-3.51-9.58-1.45-4.22-3.15-8.35-4.72-12.53-.75-2-1.47-4-2.18-6-1.36-3.85-2.66-7.72-4.07-11.55q-2.62-7.09-5.41-14.14C192.17,130.75,191.7,128.5,190,126.4ZM157.85,55.74c-1.69,2-2.15,4.32-3.55,6.08s-1.33,4.33-3,6-1.65,3.94-3,5.72-1.77,4.06-2.94,6-1.82,4.1-3,6-1.73,4.13-3,6a61,61,0,0,0-3.17,5.92c-1,1.91-1.8,3.87-2.73,5.8s-2,4-3,6-2.05,3.92-3.14,6h57.4a4.08,4.08,0,0,0-.17-1.57c-1.46-2.54-2.44-5.3-3.7-7.92q-3.41-7.09-6.54-14.3c-1.78-4.09-3.85-8.06-5.74-12.11-.82-1.77-1.91-3.46-2.57-5.23-.78-2.1-1.75-4.11-2.61-6.16C161.84,64,159.87,60.07,157.85,55.74ZM78.57,243.31c1.57-4.56,3.18-9.15,4.73-13.76s3-9.06,4.41-13.61,3.13-9.22,4.52-13.89,3.29-9.14,4.83-13.74,3.06-9,4.54-13.56,3-9.27,4.64-13.84,3.16-9.19,4.71-13.79,2.91-9.09,4.38-13.63,3-9.27,4.47-13.94c-1.08-1-1.09-.91-1.93-1a57,57,0,0,1-6-.78,28.3,28.3,0,0,0-6.15-1.06c-2.75,0-5.5-.37-8.27.5a13.36,13.36,0,0,1-5,.06c-1.62-.13-3.28.51-4.88-.39-1.43-.81-3.13.23-4.75-.74-1.16-.7-2.88-.46-4.44-.65v11.84l3-.57a20.12,20.12,0,0,1,3.21-.6c2.94-.09,5.88,0,8.82,0s5.66,1.09,8.56.64c.1,0,.25,0,.31,0,1.06.88,2.33.53,3.52.65s2.35.55,3.52.57a5.77,5.77,0,0,1,3.59,1c.4,2.34-.47,4.37-1.32,6.4a11.43,11.43,0,0,0-.51,1.06,58.09,58.09,0,0,1-3.53,8.61c-1,2.22-2.21,4.35-3.42,6.46a69.56,69.56,0,0,1-9,12.31,29.69,29.69,0,0,1-4,3.36,26.37,26.37,0,0,1-7.65,4.35c-1.75.58-3.47,1.24-5.19,1.86v55.67a7.26,7.26,0,0,1,0,2.19c-.45,1.34-1,2.58,0,3.93A1.19,1.19,0,0,1,78,236.3c-.56.59-.45.95,0,1.58a1.94,1.94,0,0,1,.17,1.75C77.1,241.07,77.82,242.19,78.57,243.31Zm98.18,15.61c-5.36-7.26-10.65-14.39-15.91-21.54s-10.43-14.16-15.59-21.28-10.5-14.41-16.46-21.7c0,.85-.1,1.24-.09,1.62.07,2.55.21,5.08.51,7.63.59,5-.09,10.1.66,15.18.68,4.58-.16,9.25.61,13.93.72,4.44-.25,9.06.67,13.6.43,2.11,0,4.4.1,6.6s.47,4.41.74,6.82h2.73c6.94,0,13.87.06,20.8,0S169.44,260.31,176.75,258.92ZM107.62,134.31c-1.07,0-1.68-.18-2.07,0-1.54.82-3.18.5-4.79.62a24.37,24.37,0,0,0-5.7.68c-2.88,1-5.84,1.55-8.73,2.45a74.89,74.89,0,0,0-14,6.42c-5.73,3.2-10.63,7.67-15.41,12.16-2.55,2.39-4.82,5.1-7.13,7.73a27.63,27.63,0,0,0-2.13,3.24c3,0,5.42,1.61,8.19,1.35.9,1.41,2.47.25,3.71,1,1,.6,2.61.26,3.95.27,2.31,0,4.62,0,6.92,0a24.3,24.3,0,0,0,5.74-.56,31.5,31.5,0,0,0,10.44-4.41c3.66-2.52,7.21-5.19,9.79-9,2.27-3.35,4.86-6.46,6.47-10.23.91-2.14,2.11-4.16,3-6.3C106.56,138.13,107,136.41,107.62,134.31Zm110.94,69.37c-1.38,2.57-2.6,5.22-4.17,7.65-1,1.57-1.8,3.25-2.73,4.86-2.16,3.73-4.5,7.36-6.63,11.11-1.4,2.45-2.3,5.21-3.89,7.51-2.74,4-4.72,8.36-7.22,12.46-2.16,3.55-3.95,7.32-6,11.15,3.39.49,6.56-1,9.83-.57,1-1.16,2.35-.36,3.53-.59s2.33-.5,3.51-.62c2.54-.26,5.23,0,7.57-.77s5.11.23,7.39-1.14c2.49.45,4.76-.94,7.19-.62a161.59,161.59,0,0,1-13.6-23.27l1.5-2.7,14.3,3.43c-3.19-8.93-6.21-17.42-9.25-25.9a6.36,6.36,0,0,0-.68-1.29A4.38,4.38,0,0,0,218.56,203.68Zm-39.31,60.51h-9.6c-3,0-6.1-.19-9.12.05s-6.1-.7-9.18-.69c-4.51,0-9,0-13.53,0h-5.57l23.34,36.68c.42-.19.68-.22.76-.36C163.94,288.07,171.52,276.25,179.25,264.19Zm-17.06,34.52c.3.07.54.21.67.14,3.94-2.17,8-4.16,11.76-6.59,4.23-2.71,8.7-5,12.9-7.72,2.37-1.55,4.93-2.82,7.36-4.27,4.3-2.57,8.56-5.22,12.86-7.79,2.43-1.45,4.94-2.78,7.37-4.25,3.88-2.34,7.69-4.77,11.56-7.11,1.74-1.05,3.55-2,5.83-3.24-1.65,0-2.89-.35-3.68.09-1.11.63-2.16.41-3.25.56s-2.13.5-3.21.6c-2.74.26-5.5.44-8.25.64-.21,0-.51-.08-.61,0-1.13,1.23-2.58.37-3.85.6s-2.56.49-3.84.62c-2.54.26-5.15.15-7.6.75-1.62.39-3.38,0-4.75.64s-3,0-4.17.59c-1.41.65-2.78.46-4.57.61Zm-34-213.35c-10.8,1.48-21.17,3.19-31,7.29-7.18,3-21.75,10.74-27.06,16.78a6.24,6.24,0,0,0,3.4,1,27,27,0,0,1,3.84.58c1.69.24,3.49.16,5.05.74,2.74,1,5.64,1,8.41,1.74s5.24-.85,7.92-.58c3.24-1.56,6.79-2.3,9.88-4.35A43.09,43.09,0,0,0,119.85,98c2.64-3.62,4.92-7.51,7.84-10.94C128,86.65,128,86,128.15,85.36ZM274.56,228.54c-.38-1.51-.7-2.44-.84-3.39-.27-1.9-.1-3.93-.74-5.68-.57-1.54-.38-3-.54-4.49s-.46-3-.61-4.46c-.2-1.91.13-3.8-.54-5.75-.52-1.5,0-3.33-.13-5s-.45-3.18-.59-4.77c-.26-2.74-.14-5.56-.75-8.21-.38-1.63,0-3.37-.65-4.74-.54-1.2-.36-2.5-1.06-3.67-.58-.95-.42-2.32-.73-3.46a13.43,13.43,0,0,0-1.28-3.55c-1-1.58-1.36-3.55-2.82-4.93-.33.85-.53,1.5-.82,2.12-1.16,2.46-2.46,4.85-3.8,7.24a34.61,34.61,0,0,0-4.5,13.22c-1.08,1.55-.16,3.46-.83,5-.8,1.83-.33,3.66-.38,5.48a21.25,21.25,0,0,0,.58,3.83c.22,1.27.15,2.69.71,3.79,1.69,3.32,3.29,6.74,5.75,9.56A64.41,64.41,0,0,0,274.56,228.54ZM148.4,297.17a12.22,12.22,0,0,1-1.22-1.59c-2.49-4.8-5.65-9.2-8.42-13.83-2.38-4-5.13-7.72-7.49-11.71-1.09-1.85-2.56-3.45-3.33-5.55-.39-1.07-1.77-1.55-3.06-1.56-.94,0-2.15.35-2.76-.1-1-.74-2-.36-3-.54s-2.13-.48-3.2-.61c-2.22-.26-4.53-.14-6.64-.74-1.63-.46-3.33-.11-4.76-.65a14,14,0,0,0-3.25-.52,25.61,25.61,0,0,0-3.52-.59c-2.15,0-4.17-1.13-6.35-.66-1.23-1.08-2.9-.15-4.08-.79s-2.26-.41-3.59-.34C105.27,271,126.64,284.32,148.4,297.17ZM15.45,82a16.62,16.62,0,0,0-.85,2.23c-.78,3.55-2.38,6.9-2.54,10.6-1.62,2.55-.79,5.67-1.89,8.34.23,4.11-.59,8.28.64,12.33a28.32,28.32,0,0,0,2.11,6c1.88,3.25,4.72,5.8,7.56,8.16,2.29,1.9,4.78,3.61,7.19,5.4,1.78,1.31,3.72,2.42,5.91,3.83-.3-2.1-.21-4-.91-5.56-.51-1.15-.13-2.22-.55-3.24a30,30,0,0,1-1.64-6.84c-.37-2.37-1.85-4.49-1.46-7-1.86-4-2.17-8.51-3.7-12.64a123.75,123.75,0,0,0-5.43-13.49C18.53,87.46,17,84.85,15.45,82Zm59.21,32.25c-1.86-.22-3.22,0-4.65-.62-1.16-.49-2.7-.19-4.05-.07A2.75,2.75,0,0,0,63.71,115a24.54,24.54,0,0,1-3.26,4,27.73,27.73,0,0,0-4.85,7.14c-2.23,4.53-4.19,9.19-6.35,13.76-2.5,5.26-4.88,10.58-7.32,15.87-2.61,5.64-4.87,11.44-7.5,17.06a6,6,0,0,0-.23,1.82c1.71-1.84,3.2-3.53,4.79-5.13A26.39,26.39,0,0,0,45,161c.8-2,1.72-3.92,2.67-5.83,1.13-2.27,2.38-4.47,3.55-6.72a45.4,45.4,0,0,1,6.9-9.44,53.66,53.66,0,0,1,7.26-6,27.45,27.45,0,0,1,7-3.69,11.82,11.82,0,0,0,1.46-.81c0-2.9-.1-5.63,0-8.36C74,118.19,74.37,116.31,74.66,114.23Zm47.64.58c2.27-1.15,2.23-3.1,3-4.56q7.81-15.33,15.39-30.76c3.65-7.4,7.16-14.87,10.74-22.3.23-.48.46-1,.68-1.44-2.35,1.35-4.3,3-6.41,4.5-5.61,3.9-10.88,8.23-16.23,12.46-1.48,1.18-3.13,2.16-4.56,3.38-.77.66-1.92,1.23-1.85,2.5a30.65,30.65,0,0,0,5.51.8c1.79-.07,3.39.56,5.09.73a1.54,1.54,0,0,1,1.26,2.26,37.55,37.55,0,0,1-2.44,4.33c-1.82,2.73-3.8,5.35-5.63,8.06-3.91,5.76-8.19,11.16-13.88,15.29-1.08.78-2.07,1.7-3,2.44,1.67,2,4,.6,6,1.5S120.4,114.61,122.3,114.81Zm-57.09,69-.48-.3c-.21.19-.41.53-.65.57-4.08.68-8.11,1.67-12.15,2.56a23.38,23.38,0,0,0-11.36,5.92c-3.66,3.52-5.26,8.2-6.45,13-.5,2.05-1.1,4.07-1.73,6.38,2.61-.27,5.34-.12,7.77-.91,4.22-1.38,8.47-2.83,12.2-5.47a31.07,31.07,0,0,0,7.28-7.14c1.83-2.55,2.92-5.68,4.07-8.66A47.54,47.54,0,0,0,65.21,183.82Zm262.21,88.33a45.2,45.2,0,0,0-3.81-2.89c-3.26-2-6.55-3.9-9.92-5.66a21.58,21.58,0,0,0-5.18-1.89c-3.12-.72-6.36-.72-9.54-1.21a44.45,44.45,0,0,0-8.48-.07,40.71,40.71,0,0,0-8.51.74c-1.67.43-3.65,0-5.11,1.51,2.63,2.2,4.7,5,7.62,7.06a51.7,51.7,0,0,0,5.73,3.69c2.06,1.08,4.43,1.08,6.63,1.38,5.46.75,10.92-.6,16.39-.53.11,0,.26,0,.31,0,.94-.92,2.13-.72,3.2-.58,1.29.16,2.34-.72,3.52-.64A26.55,26.55,0,0,0,327.42,272.15ZM69.25,71.42c2.65-3.16,5.22-6.34,7.9-9.42a40.84,40.84,0,0,0,6.94-10.69,26.81,26.81,0,0,0,1.69-6.22,16.38,16.38,0,0,0,0-4.08c-.11-1.39.24-2.76-.5-4.21-.54-1.06-.1-2.62-.1-4.38-1.2.7-2.06,1.15-2.85,1.67C80,35.66,78,37.75,75.66,39.32c-3.24,2.22-5.19,5.49-7.89,8.11A3.52,3.52,0,0,0,66.93,49a24.66,24.66,0,0,0-1.34,7.66c.11,2.77-.07,5.61.78,8.22C67.07,67,67.26,69.54,69.25,71.42ZM20.68,174.82a62.12,62.12,0,0,0,1.52-14.34,16.23,16.23,0,0,0-.7-4.13A22.51,22.51,0,0,0,14.59,146c-1.71-1.53-3.63-2.84-5.47-4.24-1.64-1.24-3.3-2.46-5.25-3.92,0,1.23,0,2.15,0,3.07a7.52,7.52,0,0,0,.27,2.71c.45,1-.78,1.51-.3,2.44,1.23,2.31.45,4.84.66,7.27a51.05,51.05,0,0,0,.69,6.33A16,16,0,0,0,7,163.62c1.29,2.41,3.51,4,5.32,6C14.63,172.06,17.59,173.38,20.68,174.82Zm227,81.69a4.38,4.38,0,0,0,.71-4,6.28,6.28,0,0,1-.51-2,13,13,0,0,0-6.45-10.27c-3.65-2.33-7.85-3.36-12-4.44-3.21-.84-6.43-1.66-10-2.57a7.65,7.65,0,0,0,.46,2c2,3.5,3.95,7,6,10.43a18.66,18.66,0,0,0,4.22,5.48c1.57,1.24,3,2.87,4.85,3.47C239,256,243.22,257.22,247.65,256.51ZM38.56,55.85A15,15,0,0,0,39.07,60a19.37,19.37,0,0,1,.08,5.33c-.09,1.85,1.05,3.51.68,5.41a8.26,8.26,0,0,0,.6,4.15c1.3,4,3.12,7.73,6.34,10.6,1,.94,2.27,1.7,3.27,2.69,1.6,1.59,3.66,2.44,5.43,3.94.4-3.49-.21-6.66.64-9.86.76-2.88.14-6-.7-8.79A23.62,23.62,0,0,0,46,60.56C43.71,59,41.27,57.55,38.56,55.85ZM314.69,176.92c-1.7,1.44-3,2.75-4.49,3.77a32.73,32.73,0,0,0-9.06,9.73c-.53.82-1.42,1.62-1.51,2.49-.18,1.81-1,3.5-.73,5.39a45.14,45.14,0,0,1,.61,6,6.33,6.33,0,0,0,1.19,3.4,30,30,0,0,0,3-2.25c1.57-1.51,3.41-2.71,4.7-4.57.9-1.3,1.84-2.56,2.63-4,2.46-4.31,2.91-9.15,3.61-13.89A45.63,45.63,0,0,0,314.69,176.92Zm-77.28,82.71L206,278.56c.72.07,1.05.2,1.31.11a39.3,39.3,0,0,1,6.08-1.26,24.34,24.34,0,0,0,4.29-1c4.74-1.68,9.78-2.59,14.16-5.27,2.85-.41,5.15-2.21,7.78-3.21,2.25-.86,4.22-2.46,6.45-3.4,1.62-.69,2-1.87,2.55-3.4Zm92.44-42.47a43.54,43.54,0,0,0-10.44-.89c-.94,0-1.89,0-2.83,0a11.65,11.65,0,0,0-9.35,4c-.87,1-1.64,2-2.45,3.07-1.35,1.72-2.69,3.45-4,5.16l1,1c1.35,0,2.71.06,4.07,0,2.43-.12,4.84.09,7.31-.52a23.83,23.83,0,0,0,8.39-4.08c2.2-1.62,4-3.67,6.33-5.18A3.59,3.59,0,0,0,329.85,217.16Zm-4.09,49,.21-.34c-1.49-1.75-2.93-3.56-4.5-5.23a40.22,40.22,0,0,0-5.26-4.74A24.33,24.33,0,0,0,303.73,251a17,17,0,0,0-7,.64c-3.76,1.27-7.63,2.43-11.23,4.83,6.57.51,12.9-.37,19.2.67a49.66,49.66,0,0,1,7.23,1.62,39.72,39.72,0,0,1,10.89,5.68C323.77,265.12,324.79,265.61,325.76,266.18Z"/><path class="a" d="M284.8,19.51c1.7.45,2.66,1.41,2.76,2.83.31,4.32.94,8.62.66,13-.08,1.31-1,2.43-.67,3.85a6.07,6.07,0,0,1-.6,3.51c-.44,1.19-.78,2.41-1.28,3.57s-1.16,2-1.67,3.09c-.95,1.93-2.52,3.39-3.86,5a18.91,18.91,0,0,0-2.37,3.77,2.26,2.26,0,0,0-.23,1.74c.92,1.56.37,3.22.6,4.81.29,2,.7,3.89,2.21,5.39,4.69,4.66,9.36,9.36,14,14a8,8,0,0,0,1.46.83c-.38-1.44-.57-2.44-.91-3.4-1.31-3.66-2.77-7.27-3.95-11a13.3,13.3,0,0,1-.92-4.67,46,46,0,0,0,0-6c-.28-3.29,1.15-6.14,2.84-8.58,2.95-4.25,6.5-8.09,9.78-12.08H305s.17.14.16.17c-.74,1.57,1.18,2,1.39,3.23.43,2.61,1.35,5.18,1.68,7.76A41.77,41.77,0,0,1,309,56.7a55.75,55.75,0,0,1-.1,6.6,17.19,17.19,0,0,1-.8,4.06c-.8,1.88-1.89,3.63-2.86,5.44-1.69,3.18-3.48,6.32-5,9.58a6.09,6.09,0,0,0-.6,3.79c.57,2.27.55,4.77,1.84,6.78,2,3.09,3,6.55,4.13,10a22,22,0,0,1,.85,5c.14,1.66,0,3.36,0,5,0,3.15-1.74,9.17-3.08,12.9a113.11,113.11,0,0,1-5.17,11.1,38.09,38.09,0,0,1-5.87,8.71,6.28,6.28,0,0,1-1.5,0c-1.12-.26-1.7-1-1.37-2a12.76,12.76,0,0,1,1.39-2.88,105.42,105.42,0,0,0,7.74-14.14,31.86,31.86,0,0,0,2.14-7c.75-3.66,1.75-7.35,1.27-11.13a33.06,33.06,0,0,0-2.06-8.9,42.28,42.28,0,0,0-7.43-11.11,2,2,0,0,0-.44-.44c-1-.66-.79-2.3-2.41-2.47a23.77,23.77,0,0,1-3.31-1.1,8.67,8.67,0,0,1-2.32-.53,3.84,3.84,0,0,0-2.93.23c-3.43,1.37-7,2.44-10.48,3.64-.27.09-.5.38-.77.4-4,.35-8,1.17-12,.59A28.66,28.66,0,0,1,245.06,84a38.79,38.79,0,0,0-8-4.94,7.5,7.5,0,0,0-2.79-.95c-.89,0-1.77-.73-2.68-1.14V74.56a23.81,23.81,0,0,1,2.81-2,61.22,61.22,0,0,1,13.08-4.91c1.46-.4,3.12,0,4.67-.17,4.22-.33,8,1.23,11.85,2.6a30.34,30.34,0,0,1,7.58,4.49,39.42,39.42,0,0,0,8.51,4.61,30.43,30.43,0,0,0,4.11,1c-3.25-3.25-6-6.22-9-8.94a50.36,50.36,0,0,0-9-6.29c-2.23-1.27-4.26-2.89-6.47-4.18a5.34,5.34,0,0,0-2.8-.89c-1.59,0-3.19-.45-4.79-.55s-3.43.28-5-.11a27,27,0,0,0-4.8-.57A15,15,0,0,1,237.8,58c-3-1.12-6.17-2.08-8.56-4.4s-4.82-4.45-6.26-7.49a21.3,21.3,0,0,0-4.66-6.59,21.79,21.79,0,0,1-2-2.56l1.6-1.6a29.37,29.37,0,0,1,5.69.07c3.11.6,6.27.85,9.38,1.62,2.67.65,5.34,1.24,8,2A21,21,0,0,1,252.1,47a82.93,82.93,0,0,0,8.83,9.85,7.54,7.54,0,0,0,3.18,1.69,53.13,53.13,0,0,1-3-4.8,65.61,65.61,0,0,1-3.85-10.38,16.18,16.18,0,0,0-2.14-4.77c-2.14-3-3.19-6.44-4.2-10a20.61,20.61,0,0,1-.48-7.31,15.48,15.48,0,0,1,1.6-5C254,12,256,7.69,258.07,3.4A9.7,9.7,0,0,1,259.86,1c.3-.3.92-.3,1.33-.42a9.56,9.56,0,0,1,3.27,4.35c1.12,2.68,2.82,5.07,3.63,8,1.36,4.82,1.58,6.15.57,10.89-1.48,6.94-1.83,7.93-4.41,12.67A20.33,20.33,0,0,0,262,40.9a5.34,5.34,0,0,0-.2,3,49.14,49.14,0,0,0,6,12.32c1.89,2.63,4,5.11,6.06,7.75.26-.44.48-.64.44-.77-1-3.71-1.16-7.58-2.42-11.28a31.1,31.1,0,0,1-1.28-13.31,18.34,18.34,0,0,1,2.78-7.65c1.67-2.69,6.51-7.37,9.51-9.57A16.68,16.68,0,0,0,284.8,19.51Z"/><path class="a" d="M230.82,299.69c-.87,1.7-2.57,2-4.08,2.26a7.8,7.8,0,0,0-3.23,1.38c-1.14.79-.8,2.2-1.47,3.19-.24.37,0,1.05-.1,1.53a1.69,1.69,0,0,1-2.35.68,4.81,4.81,0,0,1-2-3c-.48-2.74-2.29-4.07-4.67-4.9-1.86-.64-1.9-.58-3-1.86a3.25,3.25,0,0,1,.16-1.17A1.64,1.64,0,0,1,211,297c1.35-.34,2.73-.56,4.68-.94a5.58,5.58,0,0,0,2.35-3.75,4.16,4.16,0,0,1,2.18-3.07c.45.27,1.21.49,1.57,1a6.65,6.65,0,0,1,1.37,2.86,3.71,3.71,0,0,0,1.11,2.09,6.55,6.55,0,0,0,5,2.43C230.41,297.67,230.89,298.35,230.82,299.69Zm-9.75-2.08c-1-.19-1.92.13-2.18,1.17s.21,1.8,1,1.93c.81-.61,1.45-1.08,2-1.48Z"/><path class="a" d="M131.3,32.12c-1.43.69-2.73,1.38-4.07,1.93-1.65.68-3.12,1.49-3.58,3.4-.18.75-.44,1.5-.62,2.25A1.6,1.6,0,0,1,121.25,41c-1,0-1.81-.19-2-1.39-.1-.56-.56-1.08-.58-1.63-.12-2.84-2.07-4-4.38-4.49a2.86,2.86,0,0,1-2.62-2.29c.35-2.15,2.24-2.15,3.48-2.7,2.81-1.24,3.33-1.7,3.5-5l1.51-1.34c.06-.06.19-.05.33-.08l1.82.9c.48,2.14.88,4.73,3.82,6C130.2,29.08,130.73,29.35,131.3,32.12Zm-10.26,8-.22-.41c-.07.07-.21.16-.2.21a1.79,1.79,0,0,0,.2.42Z"/><path class="a" d="M27.46,293.46c1.11-1.42,1.91-2.13,3.5-2.27s3-1.18,4.62-1.87l-1-1.1L37,284.7a5.93,5.93,0,0,1,2.31,2.52,8,8,0,0,0,4.46,4.17c1.53.68,3.49,1.11,4.25,3,.14,1.15-.4,1.67-1.42,2-1.39.49-2.84.69-4.24,1.16s-2.48,1.09-2.57,2.84a13.42,13.42,0,0,1-.81,2.86H36.8c-.56-.78-1.65-1.66-1.87-2.72-.48-2.28-2-3.32-3.81-4.37C29.91,295.41,28.84,294.48,27.46,293.46Zm12.36.54-2.24-1.38-2,1.27,1.49,2Z"/><path class="a" d="M193,30.78l-2.25,1.33c-1.88-1.48-2-3.87-3.35-6.47l-1.49-1.49c-1.72-.43-3.92-.13-4.36-2.7,1.37-2.51,4.21-2,6.32-3.41.8-1,.77-2.43.68-4.15l2.67-.8A4.64,4.64,0,0,1,193,17.45l2.8,2.07c1.63.26,3.3-.38,4.83.64.62.42,1.19.67,1.27,1.52a1.56,1.56,0,0,1-1.11,1.65c-1.68.76-3.4,1.41-5.1,2.12A4,4,0,0,0,193,29.66C193,30,193,30.28,193,30.78Zm-.82-8.57a1.58,1.58,0,0,0-2.55-.28l1.64,1.81Z"/><path class="a" d="M282.64,114.21a6.12,6.12,0,0,1-3.6,2.49,8.37,8.37,0,0,0-4.36,2.43c-.41,1.67-.75,3.09-1.07,4.43-1.76.29-2.45-.72-3.05-1.84s-1.25-2.42-1.9-3.62a4.91,4.91,0,0,0-3-2.73,12.88,12.88,0,0,1-2.1-1.47c.52-2.59,1.06-2.87,5.73-3,.6-1.83,1.24-3.75,1.84-5.6h2.48c.41.84.86,1.81,1.34,2.76.94,1.83,2.14,3.22,4.4,3.6A4.44,4.44,0,0,1,282.64,114.21Zm-10.48,1.21c1.17,0,1.41-1.09,2.19-1.59l-.9-.9-2.33,1.46Z"/><path class="a" d="M266.15,277.53c2.45,0,2.44,0,3.15,1.89a7.05,7.05,0,0,0,4.94,4.32c2.39.75,2.59,1.35,1.16,3.7-2.22.12-4.56.24-6.11,2.34v1.86L267,293.32c-.32.05-1.08-.31-1.45-1.33a8.23,8.23,0,0,1-.61-1.94c-.17-2.21-1.88-2.79-3.51-3.08a9.19,9.19,0,0,1-2.75-1,1.47,1.47,0,0,1,0-2.56,14.1,14.1,0,0,1,2.44-.93c.94-.26,1.92-.39,2.84-.57Z"/><path class="a" d="M53.52,24.17c-.36.87-.74,1.76-1.11,2.66-.22.54-.42,1.08-.63,1.62a1.58,1.58,0,0,1-1.86,1.2c-.78-.15-1.09-.67-1.32-1.46-.91-3-1-3-2.8-4.83h-2l-2.63-2,2.48-1.32-.41-.45h3.37l2-5.24,2.07-1.19c1.18.75,1.38,1.93,1.86,3,.82,1.87,1.73,3.74,4.48,3.39a8.06,8.06,0,0,1,.87,0l1.59,1.87c.23.76-.34,1.36-1,1.9-.06.05-.2,0-.3,0Z"/><path class="a" d="M194,56.57l2.77.75v2.94c-.76,1.19-1.82,1-3,.84L192.43,59Z"/><path class="a" d="M78.89,17.38c-.81.52-1.14,1.81-2.83,1.49l-1.64-2c-.22-1,.88-1.46,1.51-2.21C78.79,14.56,78.79,14.56,78.89,17.38Z"/><path class="a" d="M170.56,15.71h-2.49c-1.16-.78-1-1.82-.82-3l2.07-1.27,2.12,1.22C171.58,13.83,172,15,170.56,15.71Z"/><path class="a" d="M121.87,55.79,123,53.84c2-.16,2-.16,3.12.67V57l-1.67,1A3.37,3.37,0,0,1,121.87,55.79Z"/><path class="a" d="M62.85,302.86l-2.26-1.15c.23-1.12-.59-2.51,1.09-3.42h2.47l.71,1.7Z"/><path class="a" d="M29.1,29.3l-1.77,1.8-1.95-.81V27.34C27.88,25.75,28.89,26.25,29.1,29.3Z"/><path class="a" d="M150.89,25.16h-2.65l-.87-2.05,2.52-1.69c.45-.06,1.7-.13,2.06,1C152.23,23.3,152.48,24.59,150.89,25.16Z"/><path class="a" d="M236,3.74H233.6C232.35,2,232.35,2,234.31,0c1,0,2.29-.3,2.71.91A2,2,0,0,1,236,3.74Z"/><path class="a" d="M19,45.27l-2.22,1.32a3.37,3.37,0,0,1-2-2.19l1.16-2C18.9,42.3,18.9,42.3,19,45.27Z"/><path class="a" d="M211.67,61.17l1.65-1.2h1.58c.33.93.66,1.83,1,2.79l-2.38,1.51C212.62,63.66,211.31,63.39,211.67,61.17Z"/><path class="a" d="M50.45,41.9v2.87l-2,.88-1.84-2.33c-.25-1,.86-1.68,1.73-2.26C49.05,40.6,49.94,41.09,50.45,41.9Z"/><path class="a" d="M203.25,42a11.08,11.08,0,0,1-.63,2.26c-.17.31-.85.48-1.31.51-1.58.11-1.85-.28-2-2.83l2-1.56Z"/><path class="a" d="M258.58,131.8h3.08l.89,2c-1,.91-1.48,2.12-3.07,1.78-.47-.47-1.05-1-1.73-1.69Z"/><path class="a" d="M218.85,8.16l-1.72,2.18-2-.88V6.57C217.08,5.11,218,5.51,218.85,8.16Z"/><path class="a" d="M104.12,17.23l-1.75,1.92-2.2-1.83a11.1,11.1,0,0,1,.64-2.26c.17-.32.84-.48,1.3-.51C103.69,14.44,104,14.83,104.12,17.23Z"/><path class="a" d="M110.21,59.41l.93,2L109,63.15l-2.32-.69V60.27C107.75,59.66,108.83,58.88,110.21,59.41Z"/><path class="a" d="M278.71,139.44l-2.59-1.55.94-2.25h2.7C281.08,137.38,281.08,137.38,278.71,139.44Z"/><path class="a" d="M174.09,37.79,172.37,40c-1-.9-2.26-1.28-2-3.14a6.34,6.34,0,0,0,.87-.9,1.5,1.5,0,0,1,1.9-.59,1.51,1.51,0,0,1,1,1.73A2.55,2.55,0,0,0,174.09,37.79Z"/><path class="a" d="M233.55,21.49c-2-.5-2-.5-2.1-2.89l2-1.65c.52.48,1.49,1,1.76,1.7C235.73,20.12,234.35,20.72,233.55,21.49Z"/><path class="a" d="M10.88,283.73c-1.34,0-1.91-.47-2-1.73s.45-2,1.66-2.05c1.51-.1,2.12.45,2.12,1.89S12.17,283.7,10.88,283.73Z"/><path class="a" d="M83.74,302.15l.82-1.94h2.92l.85.84c.12,1-1,2-2.62,3Z"/><path class="a" d="M280.14,155.56c-.61,1.23-.95,2.38-2.46,2.51l-1.4-.68v-2.65C278,153.49,278,153.49,280.14,155.56Z"/><path class="a" d="M8.4,256.64c1.29,0,2.61-.34,3,1.15a1.91,1.91,0,0,1-.55,2.27,2.55,2.55,0,0,1-2.56,0C6.81,259,8.15,257.94,8.4,256.64Z"/><path class="a" d="M239,287c1.37-.18,2.56-.38,3.13,1a2.39,2.39,0,0,1-.75,2.51,2.62,2.62,0,0,1-2.56-.29C237.42,288.9,239.39,288.07,239,287Z"/><path class="a" d="M20.85,270.2l1.74-1.59c1.93.36,2.18.66,2.09,2.2a1.52,1.52,0,0,1-1.5,1.57C21.62,272.59,21.34,272.33,20.85,270.2Z"/><path class="a" d="M304.53,290l-2-2,2-1.44-.32-.34h1.91l.82,1.59C306.33,288.64,306.37,290.34,304.53,290Z"/><path class="a" d="M75.15,312.4,73.4,314c-1.92-.36-2.17-.66-2.09-2.2a1.53,1.53,0,0,1,1.51-1.57C74.38,310,74.66,310.27,75.15,312.4Z"/><path class="a" d="M252.78,301c-.24.51-.44,1-.65,1.44-.12.05-.3.2-.47.19-1.17-.06-2.55.47-3.24-1.31l1.57-2.52A3.75,3.75,0,0,1,252.78,301Z"/><path class="a" d="M192.43,295c.38-1.71.38-1.71,2.8-1.77l1.32,1.32L194,297Z"/><path class="a" d="M285.54,292.31l2.17-1.11,1.8,1.7c-.5,2.13-.78,2.4-2.34,2.17-.36-.06-.89-.24-1-.51A14.71,14.71,0,0,1,285.54,292.31Z"/><path class="a" d="M304,303.6l-1.64,1.65-2.08-.9v-2.09C302.47,300.6,303.44,300.9,304,303.6Z"/><path class="a" d="M271.79,305.77c-2.23-.55-2.27-.67-1.07-3.66H273c.25.46.56,1.06.95,1.81Z"/><path class="a" d="M203.57,305.17a7.32,7.32,0,0,0,.29,1.06c.08.18.28.3.39.41a7.34,7.34,0,0,1-.54,1.31,1.8,1.8,0,0,1-2.06,1,2,2,0,0,1-1.07-2.29c.13-.89.56-1.5,1.57-1.49Z"/><path class="a" d="M180.69,305.8l-1-2c.52-.57,1.12-1.21,1.87-2l2,1.78C183.17,305.71,183.17,305.71,180.69,305.8Z"/><path class="a" d="M56.53,241.46c-2.25,2.18-2.76,2.13-3.81-1.3-.55-1.83-1.28-3.08-3.31-3.27a2.37,2.37,0,0,1-1.06-.45c-1.54-1-1.27-2.45.1-3.13a7.86,7.86,0,0,1,1.94-.63c1.87-.38,1.88-.35,2-2.54l2.42-2.29c1.68.51,2,2.4,2.87,4.24a11.49,11.49,0,0,1,3.24.7c.78.41,2,.53,2.2,1.82s-.83,1.57-1.39,2.27c-.06.07-.15.13,0,0l-4.21.94Z"/><path class="a" d="M74.77,271.73l1.75,1.75-.75,2c-1.53,0-2.93.53-3.82-1A3.21,3.21,0,0,1,74.77,271.73Z"/><path class="a" d="M64,262.84l-1.43-1.43v-2l2-1,1.64,2.28C66.13,261.43,65.31,262.28,64,262.84Z"/><path class="a" d="M49,259.88l-1-2A3.34,3.34,0,0,1,50.2,256c1.06,0,1.71.8,1.56,2.11,0,.46-.27,1.12-.6,1.28A10.55,10.55,0,0,1,49,259.88Z"/></svg>