<svg xmlns="http://www.w3.org/2000/svg" viewBox="0 0 114.15 114.18"><defs><style>.a{fill:none;stroke:#cfcfcf;stroke-miterlimit:10;stroke-width:3px;}.b{fill:#d9804f;}</style></defs><rect class="a" x="-54.92" y="-22.77" width="224.11" height="315.23" rx="48.97"/><path class="b" d="M114.15,83.4a2.86,2.86,0,0,1-1.58,1.32c-3.75,1.6-7.5,3.22-11.25,4.83-1.76.76-2.43.47-3.16-1.33-.62-1.55-.62-1.55-2.15-.8-2.46,1.21-4.92,2.42-7.4,3.61A.92.92,0,0,0,88,92.19a5.76,5.76,0,0,1-5.83,6.6c-.95,0-1.37.13-1.69,1.12a5.8,5.8,0,0,1-6.4,3.87c-.58-.09-.81,0-1,.6a5.91,5.91,0,0,1-6.64,4.48c-.63-.07-.8.13-1,.68a6,6,0,0,1-9.57,2.91c-.78-.56-1.55-1.48-2.37-1.55s-1.35,1.13-2,1.74a5.23,5.23,0,0,1-8.81-2.5.94.94,0,0,0-1-.82,5,5,0,0,1-4.45-4.08c-.12-.5-.32-.61-.79-.68a5.07,5.07,0,0,1-4.57-4.09c-.13-.51-.38-.62-.82-.71-3.95-.77-5.63-3.9-4.07-7.65.19-.45.14-.64-.27-.87-3.07-1.71-6.15-3.44-9.21-5.19-.44-.25-.65-.18-.81.29-.29.8-.6,1.6-.94,2.38a1.67,1.67,0,0,1-2.42,1.06Q7.19,87.17,1.08,84.49C-.06,84-.25,83.21.29,81.78l9.15-23.9q1.47-3.85,3-7.69c.59-1.52,1.25-1.84,2.74-1.31Q21.22,51,27.29,53.22c1.69.61,2,1.29,1.33,3-.82,2.09-.82,2.09,1.14,3.27,1.49.9,3,1.77,4.48,2.71a2.07,2.07,0,0,0,2,.27c1.36-.48,2.76-.84,4.15-1.26a10.48,10.48,0,0,1,10.09,1.74,1.79,1.79,0,0,0,2.72,0,11.25,11.25,0,0,1,7.46-3.07,33.08,33.08,0,0,1,5.93.91c3.33.59,6.64,1.25,10,1.89a2.63,2.63,0,0,0,1.72-.21c2.4-1.17,4.8-2.34,7.24-3.43.83-.36.92-.77.55-1.51a14.37,14.37,0,0,1-.73-1.86,1.57,1.57,0,0,1,1-2.17q6.59-2.4,13.2-4.71c1-.35,1.73.12,2.19,1.32q2.81,7.28,5.58,14.55,3.19,8.36,6.41,16.72c.13.34.15.73.49,1ZM34.71,85.77c2.75,0,4.82,1.39,5.43,3.65a1.5,1.5,0,0,0,1.45,1.25,4.84,4.84,0,0,1,4,3.73c.19.75.55.9,1.18,1A5,5,0,0,1,51,99.2c.18.64.36.87,1.05,1,3,.41,5.23,3.33,4.3,6.21-.61,1.87.15,2.56,1.43,3.32.16.1.29.23.45.33a2.62,2.62,0,0,0,3.57-.67,2.49,2.49,0,0,0-.22-3.43c-.26-.26-.56-.49-.83-.74a1.77,1.77,0,0,1-.45-2.54c.65-.8,1.68-.79,2.65,0s1.82,1.65,2.79,2.4A2.6,2.6,0,0,0,69,101c-.28-.24-.6-.44-.89-.67A1.68,1.68,0,1,1,70,97.62c1,.72,2,1.47,3.09,2.2,1.45,1,2.89.88,3.84-.35s.71-2.6-.58-3.75c-.68-.62-1.44-1.17-2.15-1.77-1-.84-1.23-1.78-.61-2.59s1.66-.84,2.73,0c1.4,1.15,2.76,2.37,4.2,3.48a2.5,2.5,0,0,0,4.12-1.51,2.69,2.69,0,0,0-1.37-2.72c-3.42-2.44-6.84-4.87-10.21-7.37a2.64,2.64,0,0,0-2.62-.48c-5.8,1.73-11.33.33-14.42-5.18-.33-.57-.59-.35-1-.12l-6,3.8a8.64,8.64,0,0,1-3.74,1.34c-3,.31-6.07-1.35-7-3.84s-.12-4.77,2.66-6.84c2.45-1.81,4.88-3.65,7.35-5.43.61-.45.59-.68,0-1.09a7.49,7.49,0,0,0-6.68-1.09c-1.92.57-3.85,1.11-5.75,1.72a2.35,2.35,0,0,1-2.11-.28c-2.13-1.29-4.29-2.53-6.4-3.84-.65-.41-.87-.32-1.14.39q-3.81,9.74-7.7,19.44c-.3.74-.08,1,.54,1.36,3.12,1.71,6.25,3.42,9.31,5.25,1,.6,1.63.61,2.39-.33A5.34,5.34,0,0,1,34.71,85.77ZM61,63.11l-1.07.1a7.53,7.53,0,0,0-3.68,1.48Q49.35,69.84,42.42,75c-1.76,1.32-1.54,3.07.47,3.94a4.34,4.34,0,0,0,4.25-.41L55,73.6c1.81-1.13,2.58-.88,3.36,1.1a7.85,7.85,0,0,0,8.42,5.38,12.79,12.79,0,0,0,4.11-.92,2.66,2.66,0,0,1,2.79.41c3.9,2.86,7.84,5.65,11.74,8.49a1.23,1.23,0,0,0,1.49.13c2.88-1.45,5.78-2.88,8.7-4.26.61-.29.68-.56.44-1.17q-4-10.12-8-20.28c-.27-.68-.52-.82-1.21-.48-2.63,1.3-5.29,2.52-7.93,3.79a3,3,0,0,1-2,.27c-2.69-.55-5.4-1-8.1-1.53Zm40.66,6a1.69,1.69,0,0,1-1.21,1.66,1.51,1.51,0,0,1-1.84-.66,5.53,5.53,0,0,1-.52-1.22C96.56,64.42,95,60,93.46,55.53c-.29-.85-.63-1-1.41-.65a14.06,14.06,0,0,1-2.09.75c-.72.21-.91.48-.6,1.25Q95,71,100.55,85.23c.3.77.6.78,1.29.47,2.46-1.12,5-2.18,7.46-3.21.79-.33,1-.61.66-1.52-3.46-8.91-6.86-17.86-10.28-26.79C99,52.41,99,52.46,97.2,53c-.78.25-.94.53-.66,1.32,1.63,4.5,3.2,9,4.79,13.53C101.47,68.3,101.59,68.73,101.69,69.08ZM14.11,70.86c-1.23,0-1.94-1.15-1.48-2.49q2.28-6.57,4.6-13.12c.65-1.87.64-1.83-1.2-2.52-.73-.28-1-.13-1.29.58Q9.45,67.25,4.1,81.16c-.24.63-.23.94.48,1.23q4,1.64,7.86,3.4c.67.3.87.08,1.1-.51Q19.13,71,24.77,56.82c.24-.61.25-.93-.47-1.12a13,13,0,0,1-2.19-.79c-.84-.4-1.17-.22-1.48.69-1.56,4.6-3.21,9.17-4.81,13.76A1.9,1.9,0,0,1,14.11,70.86Zm33.81,29.55a1.86,1.86,0,0,0-1.08-1.64,1.77,1.77,0,0,0-2.15.34c-1.17,1.12-2.33,2.27-3.46,3.44A1.92,1.92,0,1,0,44,105.23c1.09-1.06,2.15-2.14,3.22-3.22A2.27,2.27,0,0,0,47.92,100.41ZM37.07,91.16A1.82,1.82,0,0,0,36,89.28a1.85,1.85,0,0,0-2.16.38c-1.15,1.11-2.28,2.23-3.39,3.38a1.92,1.92,0,1,0,2.69,2.72c1.12-1.08,2.21-2.2,3.31-3.31A1.91,1.91,0,0,0,37.07,91.16Zm0,10.1a1.5,1.5,0,0,0,1.14-.43C39.47,99.56,40.78,98.3,42,97a1.85,1.85,0,0,0-.17-2.53,1.78,1.78,0,0,0-2.52-.08c-1.33,1.23-2.61,2.53-3.85,3.85a1.67,1.67,0,0,0-.23,2A1.82,1.82,0,0,0,37,101.26Zm16.14,4.1A1.9,1.9,0,0,0,52,103.64a1.82,1.82,0,0,0-2.14.41c-1.15,1.11-2.27,2.23-3.38,3.38a1.92,1.92,0,0,0-.11,2.78,1.89,1.89,0,0,0,2.85-.13c1.09-1,2.14-2.15,3.22-3.21A2.21,2.21,0,0,0,53.17,105.36Z"/><path class="b" d="M59.51,0c1.37.28,2.76.51,4.12.86A26.14,26.14,0,1,1,54,.19,2.85,2.85,0,0,0,54.61,0ZM34.21,26.14A22.84,22.84,0,1,0,57,3.35,22.85,22.85,0,0,0,34.21,26.14Z"/><path class="b" d="M17.14,24.53c1.45,0,2.9,0,4.35,0,1.19,0,1.92.71,1.89,1.72a1.68,1.68,0,0,1-1.88,1.62q-4.39,0-8.79,0c-1.2,0-1.92-.69-1.89-1.72a1.66,1.66,0,0,1,1.87-1.61C14.17,24.51,15.66,24.53,17.14,24.53Z"/><path class="b" d="M97,27.87c-1.45,0-2.9,0-4.35,0-1.19,0-1.92-.7-1.9-1.71a1.68,1.68,0,0,1,1.88-1.62q4.4,0,8.8,0c1.2,0,1.92.68,1.89,1.7a1.68,1.68,0,0,1-1.87,1.63C100,27.89,98.46,27.87,97,27.87Z"/><path class="b" d="M26.9,35.52A1.78,1.78,0,0,1,26,37c-2.3,1.36-4.59,2.73-6.92,4a1.58,1.58,0,0,1-2.23-.55,1.62,1.62,0,0,1,.57-2.31c2.29-1.38,4.59-2.75,6.92-4A1.66,1.66,0,0,1,26.9,35.52Z"/><path class="b" d="M24.85,18.55a2.26,2.26,0,0,1-.7-.31C22,17,19.8,15.69,17.63,14.4a1.72,1.72,0,0,1-.8-2.44,1.66,1.66,0,0,1,2.43-.48q3.38,1.95,6.71,3.95a1.58,1.58,0,0,1,.82,2C26.53,18.23,25.93,18.59,24.85,18.55Z"/><path class="b" d="M95.9,11.15a1.68,1.68,0,0,1,.78,3.13c-1.27.77-2.55,1.51-3.83,2.26-1,.58-2,1.19-3,1.73a1.68,1.68,0,0,1-2.42-.55,1.64,1.64,0,0,1,.7-2.29c2.25-1.36,4.53-2.68,6.8-4A1.6,1.6,0,0,1,95.9,11.15Z"/><path class="b" d="M88.69,33.84a2.06,2.06,0,0,1,1.17.27l6.72,3.94a1.68,1.68,0,0,1,.93,1.65,1.57,1.57,0,0,1-1,1.39A1.61,1.61,0,0,1,95,41c-2.28-1.33-4.55-2.66-6.81-4a1.59,1.59,0,0,1-.83-2A1.5,1.5,0,0,1,88.69,33.84Z"/><path class="b" d="M37.56,26.19A19.5,19.5,0,1,1,56.68,45.71,19.49,19.49,0,0,1,37.56,26.19Zm35.65,0A16.16,16.16,0,1,0,56.93,42.36,16.15,16.15,0,0,0,73.21,26.22Z"/><path class="b" d="M67.62,19.94A2,2,0,0,1,67,21.43q-5.52,5.91-11,11.81a1.73,1.73,0,0,1-2.87,0q-3-3.15-5.94-6.35C46.3,26,46.26,25,47,24.26s1.75-.55,2.63.38c1.4,1.49,2.81,3,4.16,4.5.54.61.82.69,1.42,0,3.05-3.35,6.16-6.65,9.26-10,1-1,2.17-1.06,2.84-.11A1.6,1.6,0,0,1,67.62,19.94Z"/></svg>