<svg xmlns="http://www.w3.org/2000/svg" viewBox="0 0 105.61 116.55"><defs><style>.a{fill:none;stroke:#cfcfcf;stroke-miterlimit:10;stroke-width:3px;}.b{fill:#d9804f;}.c{fill:#d29e83;}</style></defs><rect class="a" x="-59.52" y="-21.58" width="224.11" height="315.23" rx="48.97"/><path class="b" d="M52.8,116.55c-8,0-15.47-6.23-20.95-17.56-5.28-10.9-8.18-25.36-8.18-40.71s2.9-29.81,8.18-40.72C37.33,6.24,44.77,0,52.8,0s15.48,6.24,21,17.56C79,28.47,81.94,42.93,81.94,58.28S79,88.09,73.76,99C68.28,110.32,60.84,116.55,52.8,116.55Zm0-112.91c-3.23,0-6.4,1.34-9.43,4a35.87,35.87,0,0,0-8.24,11.52c-5,10.42-7.82,24.32-7.82,39.13S30.09,87,35.13,97.4a35.92,35.92,0,0,0,8.24,11.53c3,2.64,6.2,4,9.43,4s6.41-1.34,9.44-4A35.92,35.92,0,0,0,70.48,97.4c5-10.42,7.82-24.31,7.82-39.12s-2.78-28.71-7.82-39.13A35.87,35.87,0,0,0,62.24,7.63C59.21,5,56,3.64,52.8,3.64Z"/><path class="b" d="M23.93,96.52c-10.54,0-18.2-3.28-21.8-9.41C-.17,83.19-.62,78.27.83,72.87c1.73-6.45,6.09-13.53,12.6-20.48A106.29,106.29,0,0,1,38.19,33.3c13.34-7.59,27.37-12.25,39.5-13.12,12.6-.91,21.75,2.38,25.79,9.26,2.3,3.92,2.75,8.85,1.3,14.24-1.73,6.46-6.09,13.54-12.6,20.48a106.59,106.59,0,0,1-24.76,19.1C54.08,90.84,40.05,95.5,27.92,96.38,26.55,96.47,25.22,96.52,23.93,96.52ZM81.69,23.67c-1.21,0-2.45,0-3.73.14-11.6.84-25.09,5.33-38,12.66C21.62,46.91,7.63,61.57,4.35,73.81c-1.21,4.5-.89,8.36.93,11.46,1.62,2.77,4.38,4.82,8.2,6.11a36.66,36.66,0,0,0,14.17,1.36c11.6-.83,25.09-5.33,38-12.65C84,69.64,98,55,101.26,42.74c1.21-4.5.89-8.35-.93-11.46-1.62-2.76-4.38-4.82-8.2-6.1A32.92,32.92,0,0,0,81.69,23.67Zm-15.17,58Z"/><path class="b" d="M81.68,96.52c-1.29,0-2.62,0-4-.14-12.13-.88-26.16-5.54-39.5-13.12a106.59,106.59,0,0,1-24.76-19.1C6.92,57.22,2.56,50.14.83,43.68c-1.45-5.39-1-10.32,1.3-14.24,4-6.88,13.19-10.17,25.79-9.26,12.13.87,26.16,5.53,39.5,13.12A106.29,106.29,0,0,1,92.18,52.39c6.51,7,10.87,14,12.6,20.48,1.45,5.4,1,10.32-1.3,14.24C99.88,93.24,92.22,96.52,81.68,96.52ZM40,80.09c12.88,7.32,26.37,11.82,38,12.65a36.66,36.66,0,0,0,14.17-1.36c3.82-1.29,6.58-3.34,8.2-6.11,1.82-3.1,2.14-7,.93-11.46C98,61.57,84,46.91,65.62,36.47c-12.88-7.33-26.37-11.82-38-12.66a36.46,36.46,0,0,0-14.17,1.37c-3.82,1.28-6.58,3.34-8.2,6.1-1.82,3.11-2.14,7-.93,11.46C7.63,55,21.62,69.64,40,80.09Z"/><path class="b" d="M52.8,72.85a1.82,1.82,0,0,1-1.12-.39C49,70.34,42.41,63.88,40.1,59.63a15.71,15.71,0,0,1-1.86-6.87,9.26,9.26,0,0,1,2.47-6.36,8.3,8.3,0,0,1,12.09-.15,8.31,8.31,0,0,1,12.1.15,9.3,9.3,0,0,1,2.47,6.36,15.71,15.71,0,0,1-1.86,6.87c-2.31,4.25-8.86,10.71-11.58,12.83A1.82,1.82,0,0,1,52.8,72.85Z"/><path class="c" d="M46.83,47.35a4.73,4.73,0,0,0-3.46,1.54,5.64,5.64,0,0,0-1.49,3.87,12.07,12.07,0,0,0,1.42,5.13c1.62,3,6.4,8.06,9.5,10.77,3.11-2.71,7.89-7.79,9.51-10.77a12.07,12.07,0,0,0,1.42-5.13,5.64,5.64,0,0,0-1.49-3.87,4.66,4.66,0,0,0-6.92,0,5.19,5.19,0,0,0-.89,1.29,1.82,1.82,0,0,1-3.25,0,5.19,5.19,0,0,0-.89-1.29A4.73,4.73,0,0,0,46.83,47.35Z"/><path class="c" d="M52.8,68.66c3.11-2.71,7.89-7.79,9.51-10.77a12.07,12.07,0,0,0,1.42-5.13,5.64,5.64,0,0,0-1.49-3.87,4.66,4.66,0,0,0-6.92,0,5.19,5.19,0,0,0-.89,1.29,1.83,1.83,0,0,1-1.63,1Z"/></svg>