<svg xmlns="http://www.w3.org/2000/svg" viewBox="0 0 122.22 109.47"><defs><style>.a{fill:none;stroke:#cfcfcf;stroke-miterlimit:10;stroke-width:3px;}.b{fill:#d9804f;}</style></defs><rect class="a" x="-49.7" y="-25.12" width="224.11" height="315.23" rx="48.97"/><path class="b" d="M0,47.8c1-2.61,3-3.53,5.73-3.42,3.65.14,7.32,0,11,0,3.12,0,4.83,1.74,4.87,4.89,0,1.12,0,2.23,0,3.34,0,.69.22.89.9.85,4.88-.28,9.78-.43,14.65-.82A20.38,20.38,0,0,1,53.33,58c6.58,6,13.38,11.77,20.13,17.58a11.14,11.14,0,0,1,4,9.15c0,.88.21,1,1,1,8-.45,16-.87,24.06-1.31,3.61-.19,7.24-.27,10.84-.62,5.78-.56,9.42,4.65,8.72,9.9-.51,3.81-2.84,5.89-6.39,6.83a111.66,111.66,0,0,1-12.32,2.12c-9.5,1.44-19,2.83-28.53,4.23-5.5.82-11,1.67-16.51,2.42a16.31,16.31,0,0,1-12.3-3.47c-4.9-3.67-9.68-7.5-14.47-11.31a5.77,5.77,0,0,0-4-1.41c-1.67.08-3.34.07-5,0-.83,0-1,.28-1,1,.05,1.11,0,2.23,0,3.34A4.37,4.37,0,0,1,16.94,102c-3.74,0-7.48-.11-11.21,0C3,102.17,1,101.25,0,98.64ZM21.58,73.31c0,5.13,0,10.26,0,15.39,0,.88.23,1.18,1.13,1.13,1.51-.08,3,.06,4.54,0A9.27,9.27,0,0,1,34,92.16c4.38,3.56,8.83,7,13.31,10.48,3.14,2.42,6.63,4,10.73,3.36,6.65-1,13.29-2,19.93-2.93l28.3-4.2a69,69,0,0,0,9-1.66,4.35,4.35,0,0,0,3.21-2.59c1.15-3-.24-8.16-5.21-7.42-.28,0-.56,0-.84,0q-17.39.93-34.78,1.85a1.57,1.57,0,0,0-1.55,1,9.14,9.14,0,0,1-7.37,5.39A11.24,11.24,0,0,1,60.85,93L45.74,82.12a4.12,4.12,0,0,1-.65-.52A1.65,1.65,0,0,1,47,79a5.07,5.07,0,0,1,.88.6L62.6,90.13a10.91,10.91,0,0,0,3.15,1.65,5.78,5.78,0,0,0,7.08-2.66c1.81-2.92,2-8.09-1.69-11.15Q60.82,69.3,50.81,60.27A16.48,16.48,0,0,0,38.23,56c-5.16.3-10.33.6-15.49.83-.93,0-1.19.32-1.18,1.23C21.6,63.12,21.58,68.22,21.58,73.31ZM3.34,73.23V96.84c0,1.6.22,1.84,1.76,1.84H16.55c1.41,0,1.68-.26,1.68-1.67q0-23.79,0-47.59c0-1.4-.27-1.65-1.69-1.65-3.78,0-7.56,0-11.33,0-1.66,0-1.87.2-1.87,1.85Z"/><path class="b" d="M70.14,63.74a12.22,12.22,0,0,0-1.61-6,7.64,7.64,0,0,1,1.11-9.16A2.58,2.58,0,0,0,70.38,46a7.59,7.59,0,0,1,5.21-9.2,2.77,2.77,0,0,0,2.08-2.12,7.63,7.63,0,0,1,9.23-5.17,2.48,2.48,0,0,0,2.56-.68,7.63,7.63,0,0,1,10.76,0,2.34,2.34,0,0,0,2.44.69,7.65,7.65,0,0,1,9.41,5.4,2.38,2.38,0,0,0,1.8,1.8,7.64,7.64,0,0,1,5.39,9.4,2.37,2.37,0,0,0,.69,2.45,7.6,7.6,0,0,1,0,10.75,2.38,2.38,0,0,0-.69,2.45,7.67,7.67,0,0,1-6,9.55,1.2,1.2,0,0,0-1.1,1.1,7.64,7.64,0,0,1-9.31,6,2.68,2.68,0,0,0-2.78.74,7.59,7.59,0,0,1-10.57,0,2.67,2.67,0,0,0-2.78-.73,7.62,7.62,0,0,1-9.13-5.33,2.49,2.49,0,0,0-2-1.94A7.64,7.64,0,0,1,70.14,63.74Zm41.18,4.35A4.38,4.38,0,0,0,116,62.4a5.17,5.17,0,0,1,1.4-5.23,4.32,4.32,0,0,0,0-6.47A5.15,5.15,0,0,1,116,45.47a4.31,4.31,0,0,0-3.2-5.61,5.27,5.27,0,0,1-3.9-3.93,4.3,4.3,0,0,0-5.53-3.17A5.2,5.2,0,0,1,98,31.32a4.3,4.3,0,0,0-6.39,0,5.18,5.18,0,0,1-5.33,1.44,4.3,4.3,0,0,0-5.54,3.16,5.26,5.26,0,0,1-4,4,4.27,4.27,0,0,0-3.15,5.35,5.4,5.4,0,0,1-1.53,5.64,4.25,4.25,0,0,0,0,6.12,5.32,5.32,0,0,1,1.52,5.53,4.26,4.26,0,0,0,3.06,5.4,5.46,5.46,0,0,1,4.13,4.15,4.22,4.22,0,0,0,5.3,3,5.37,5.37,0,0,1,5.64,1.52,4.21,4.21,0,0,0,6,.07,5.65,5.65,0,0,1,5.85-1.57A4.38,4.38,0,0,0,109,70.42C108.87,68.54,109.38,68,111.32,68.09Z"/><path class="b" d="M26.59,3.9a11.71,11.71,0,0,1,2.56,1.36c1.74,1,2.79.54,3.32-1.37,1-3.7,1-3.7,4.93-3.86A25.52,25.52,0,0,1,42.64.3a1.91,1.91,0,0,1,1.68,1.46c.22.77.41,1.54.63,2.3.46,1.64,1.61,2.09,3.12,1.29,3.35-1.79,2.65-2.54,6.42.7a23.61,23.61,0,0,1,3.35,3.71A2,2,0,0,1,58,12.29c-.4.64-.75,1.31-1.12,2a1.88,1.88,0,0,0,1.25,3c.15,0,.3.11.45.15,3.35.93,3.36.93,3.65,4.37A25.78,25.78,0,0,1,62,27.28a2.06,2.06,0,0,1-1.74,2c-.69.14-1.37.39-2.06.59-1.64.46-2.13,1.61-1.31,3.07L57,33c1.74,3.28,2.4,2.65-.65,6.24a22.61,22.61,0,0,1-4,3.58A1.91,1.91,0,0,1,50.1,43L48,41.79C46.58,41,45.41,41.45,45,43c-.1.35-.2.69-.29,1-.74,2.67-.9,2.82-3.62,3a27.78,27.78,0,0,1-6.18-.18A2.09,2.09,0,0,1,33,45.18c-.18-.69-.37-1.38-.56-2.07-.46-1.67-1.59-2.13-3.1-1.32-3.39,1.84-2.75,2.46-6.43-.68a23,23,0,0,1-3.28-3.62,2.14,2.14,0,0,1-.19-2.73c.38-.61.71-1.24,1.06-1.87a1.88,1.88,0,0,0-1.26-3l-.11,0c-3.65-1.13-3.57-.27-4-4.86a21.25,21.25,0,0,1,.3-5.34A1.91,1.91,0,0,1,17,17.92c.74-.17,1.45-.41,2.18-.62,1.66-.46,2.13-1.59,1.32-3.08-1.81-3.32-2.47-2.79.68-6.44A21.67,21.67,0,0,1,25,4.37,2.14,2.14,0,0,1,26.59,3.9ZM51,39.6a5.41,5.41,0,0,0,.7-.49c.77-.74,1.51-1.52,2.31-2.24a1.3,1.3,0,0,0,.17-2c-1.39-1.71-1.72-3.5-.41-5.42a2.37,2.37,0,0,0,.29-.78A2.23,2.23,0,0,1,55.78,27c3.28-.93,3.27-1,3.16-4.36a3.77,3.77,0,0,1,0-.47,1.34,1.34,0,0,0-1.31-1.6c-2.17-.24-3.72-1.23-4.13-3.54a2.23,2.23,0,0,0-.35-.75A2.16,2.16,0,0,1,53.21,14c1.66-3,1.65-3-.91-5.39-.24-.21-.5-.4-.72-.62a.75.75,0,0,0-1.15-.1c-2.11,1.81-4.28,1.77-6.64.42a2.92,2.92,0,0,1-1.62-1.72c-1-3.32-1-3.32-4.54-3.18-.24,0-.48,0-.72,0-.61,0-1,.2-1.06.82C35.64,7,34.07,8.41,31.52,9.13A3,3,0,0,1,29,9c-3-1.67-3-1.65-5.36.94a8.42,8.42,0,0,1-.55.64c-.47.42-.39.82-.1,1.34,1.83,3.35,2.13,2.69.47,6.19A3.13,3.13,0,0,1,21.3,20.2c-3,.78-3,.82-2.87,4,0,.36.08.71.07,1.07a1.09,1.09,0,0,0,1.09,1.25A4.73,4.73,0,0,1,24,30.22a3.83,3.83,0,0,1-.16,3.55c-1.39,2.28-1.34,2.31.55,4.18s1.78,1.77,3.91.57l.94-.52a2.21,2.21,0,0,1,1.93-.1c2.56.78,4.51,2.05,4.66,5.05a.78.78,0,0,0,1,.8c.43,0,.87,0,1.31,0,3.1.1,3.1.1,4-2.87a3.4,3.4,0,0,0,.12-.34A2,2,0,0,1,43.71,39,4.85,4.85,0,0,0,45,38.43a3.34,3.34,0,0,1,4.27.23A14.15,14.15,0,0,0,51,39.6Z"/><path class="b" d="M68.5,8.52c1.26,0,2.78.43,3.72-.12S73.14,6.14,73.56,5c.33-.93.63-1.88.92-2.83S75.26.6,76.23.62a1.76,1.76,0,0,1,1.66,1.46c.55,1.78,1.21,3.53,1.7,5.33a1.44,1.44,0,0,0,1.74,1.22c1.83-.08,3.66,0,5.49,0a1.72,1.72,0,0,1,1.91,1.1,1.76,1.76,0,0,1-.88,2.13c-1.55,1.11-3.07,2.27-4.65,3.34a1.18,1.18,0,0,0-.57,1.64c.66,1.79,1.21,3.61,1.82,5.42a1.79,1.79,0,0,1-.5,2.25,1.76,1.76,0,0,1-2.29-.22c-1.54-1.13-3.12-2.21-4.61-3.39a1.17,1.17,0,0,0-1.74,0c-1.5,1.17-3.07,2.26-4.6,3.4a1.72,1.72,0,0,1-2.77-2c.63-1.88,1.2-3.78,1.86-5.65a1,1,0,0,0-.46-1.38c-1.63-1.13-3.22-2.33-4.83-3.49a1.69,1.69,0,0,1,1-3.19c1,0,2,0,3,0Zm11,10.24.1-.35-.6-1.88c-.58-1.78-.47-2.12,1-3.21.51-.37,1-.76,1.53-1.15A8.28,8.28,0,0,0,79.25,12a1.94,1.94,0,0,1-2.19-1.57c-.21-.78-.51-1.53-.87-2.6-.34,1-.6,1.79-.82,2.54A2.06,2.06,0,0,1,73.09,12a5.76,5.76,0,0,0-2.38.16c.69.51,1.25,1,1.85,1.34a2,2,0,0,1,.91,2.75,6.08,6.08,0,0,0-.59,2.6C75.18,15.89,77.37,16.16,79.55,18.76Z"/><path class="b" d="M97,8.52c1.27,0,2.8.44,3.73-.12S101.61,6.14,102,5c.3-.85.58-1.73.84-2.6S103.59.6,104.7.62s1.46.78,1.74,1.68C107,4,107.59,5.77,108.1,7.52c.23.79.56,1.15,1.46,1.11,1.91-.08,3.82,0,5.73,0,.87,0,1.6.21,1.89,1.11a1.76,1.76,0,0,1-.87,2.13c-1.63,1.15-3.21,2.35-4.84,3.48A1,1,0,0,0,111,16.6c.64,1.87,1.23,3.77,1.87,5.65a1.74,1.74,0,0,1-.51,2.23,1.77,1.77,0,0,1-2.29-.24c-1.5-1.12-3-2.17-4.52-3.32a1.24,1.24,0,0,0-1.83,0c-1.49,1.19-3.07,2.26-4.6,3.39a1.72,1.72,0,0,1-2.76-2c.65-1.88,1.23-3.78,1.87-5.65a1,1,0,0,0-.46-1.38c-1.6-1.1-3.15-2.28-4.74-3.41a1.81,1.81,0,0,1-.94-2.11c.29-1,1.07-1.18,2-1.16s1.91,0,2.86,0ZM99.09,12c3.32,1.46,3.65,3.66,2.06,6.51A21.71,21.71,0,0,0,103.47,17a1.78,1.78,0,0,1,2.39,0c.69.53,1.4,1,2.34,1.69-.33-1-.53-1.84-.82-2.6a1.9,1.9,0,0,1,.84-2.55c.64-.43,1.25-.91,1.87-1.37A6.49,6.49,0,0,0,107.9,12a2.07,2.07,0,0,1-2.43-1.75c-.18-.73-.48-1.44-.73-2.17l-.28-.17C104.24,11.24,102.58,12.7,99.09,12Z"/><path class="b" d="M10.83,56.59a1.74,1.74,0,0,1-1.71-1.65,1.69,1.69,0,0,1,1.7-1.76,1.62,1.62,0,0,1,1.62,1.69A1.69,1.69,0,0,1,10.83,56.59Z"/><path class="b" d="M76.84,53.84A18,18,0,1,1,94.73,71.91,18,18,0,0,1,76.84,53.84ZM94.78,68.57a14.67,14.67,0,1,0-14.6-14.79A14.68,14.68,0,0,0,94.78,68.57Z"/><path class="b" d="M38.66,36.64c-2.39,0-4.77,0-7.16,0-1.51,0-2.07-.57-2.09-2.09s0-2.86,0-4.29a7,7,0,0,1,6.11-7.35,19.29,19.29,0,0,1,6.52,0A7,7,0,0,1,48,30.07c0,1.55,0,3.1,0,4.65,0,1.3-.61,1.9-1.91,1.91C43.59,36.65,41.12,36.64,38.66,36.64Zm-.11-3.34c1.62,0,3.25,0,4.88,0,.89,0,1.33-.16,1.21-1.15a19.61,19.61,0,0,1,0-2,3.81,3.81,0,0,0-3.7-4,34,34,0,0,0-4.4,0,3.85,3.85,0,0,0-3.77,4.08c0,.64,0,1.28,0,1.9-.09.91.18,1.28,1.16,1.23C35.44,33.24,37,33.3,38.55,33.3Z"/><path class="b" d="M32.87,16.38a5.84,5.84,0,0,1,11.67-.08,5.84,5.84,0,1,1-11.67.08Zm3.35-.09a2.5,2.5,0,0,0,2.43,2.56,2.56,2.56,0,0,0,2.55-2.47,2.49,2.49,0,0,0-2.46-2.52A2.42,2.42,0,0,0,36.22,16.29Z"/><path class="b" d="M91.48,61.44A1.78,1.78,0,0,1,90,60.75c-1.52-1.52-3-3-4.55-4.55-.91-.93-1-1.88-.2-2.61s1.64-.64,2.6.3,1.85,1.75,2.69,2.71c.63.73,1,.77,1.74,0,3.07-3.16,6.22-6.25,9.33-9.37a2.52,2.52,0,0,1,1.26-.85,1.65,1.65,0,0,1,1.75,2.46,3.8,3.8,0,0,1-.69.81L93.09,60.55A2.09,2.09,0,0,1,91.48,61.44Z"/></svg>