<svg xmlns="http://www.w3.org/2000/svg" viewBox="0 0 309.52 309.52"><defs><style>.a{fill:#303030;}.b{fill:#d8804f;}.c{fill:#d29e83;}.d{fill:#fff;}</style></defs><path class="a" d="M277,38.69,294,17.53a4.84,4.84,0,0,0-3.78-7.86H270.83a4.84,4.84,0,1,0,0,9.67h9.28L267.05,35.67a4.84,4.84,0,0,0,0,6L280.11,58H255.49a14.33,14.33,0,0,0,.83-4.83V14.51A14.53,14.53,0,0,0,241.81,0h-29a4.84,4.84,0,0,0,0,9.67h29a4.84,4.84,0,0,1,4.84,4.84v25a14.6,14.6,0,0,0-4.84-.83H198.29V4.84a4.84,4.84,0,0,0-9.68,0V135.41a4.84,4.84,0,0,0,9.68,0v-87h43.52a4.84,4.84,0,1,1,0,9.67,4.84,4.84,0,0,0,0,9.68h48.36A4.84,4.84,0,0,0,294,59.85Z"/><path class="b" d="M212.79,9.67h29a4.84,4.84,0,0,1,4.84,4.84v25a14.6,14.6,0,0,0-4.84-.83H198.29v-29Z"/><path class="b" d="M270.83,19.34h9.28L267.05,35.67a4.84,4.84,0,0,0,0,6L280.11,58H255.49a14.33,14.33,0,0,0,.83-4.83V19.34Z"/><path class="a" d="M106.59,309.48c-5.28,0-9.88-1.4-13.26-4.78-5-5-6.12-13-3.34-23.82a4.84,4.84,0,1,1,9.37,2.4c-1.82,7.06-1.53,12.24.81,14.58s7.14,2.6,13.8,1c7.74-1.86,17.77-6.34,29-13,24-14.1,52.08-36.76,79.12-63.79S271.8,167,285.9,143c6.62-11.25,11.1-21.28,13-29,1.6-6.66,1.24-11.56-1-13.8s-7.15-2.6-13.81-1a4.84,4.84,0,0,1-2.26-9.41c10.35-2.48,18.06-1.28,22.91,3.57,11.26,11.26.53,35.89-10.46,54.57-14.51,24.66-37.7,53.45-65.3,81s-56.38,50.79-81,65.3C134.84,301.92,118.87,309.48,106.59,309.48Z"/><path class="a" d="M87.05,222.47a4.84,4.84,0,0,1-3.42-8.26l53.2-53.2a4.84,4.84,0,0,1,6.84,6.84l-53.2,53.2A4.79,4.79,0,0,1,87.05,222.47Z"/><path class="a" d="M94.79,248.58a4.83,4.83,0,0,1-3.42-8.25L170.69,161a4.83,4.83,0,1,1,6.83,6.84L98.21,247.17A4.82,4.82,0,0,1,94.79,248.58Z"/><path class="a" d="M108.33,268.9a4.84,4.84,0,0,1-3.42-8.26l31.92-31.92a4.84,4.84,0,1,1,6.84,6.84l-31.92,31.92A4.83,4.83,0,0,1,108.33,268.9Z"/><path class="a" d="M120.44,282.21a4.82,4.82,0,0,1-3.18-1.19,116.09,116.09,0,0,1,56-201.89,4.84,4.84,0,1,1,1.67,9.53,106.4,106.4,0,0,0-51.32,185.06,4.84,4.84,0,0,1-3.18,8.49Z"/><path class="a" d="M193.45,309.52a116.36,116.36,0,0,1-53.73-13.16,4.84,4.84,0,0,1,4.49-8.57A106.43,106.43,0,0,0,287.79,144.21a4.84,4.84,0,1,1,8.57-4.49,116.1,116.1,0,0,1-102.91,169.8Z"/><path class="a" d="M280.42,128.92a4.84,4.84,0,0,1-3.79-1.82c-1.37-1.72-2.82-3.42-4.3-5A106.73,106.73,0,0,0,212,88.67a4.84,4.84,0,0,1,1.68-9.53,116.48,116.48,0,0,1,65.8,36.42c1.61,1.78,3.19,3.63,4.69,5.51a4.82,4.82,0,0,1-.76,6.79A4.77,4.77,0,0,1,280.42,128.92Z"/><circle class="a" cx="43.53" cy="256.32" r="4.84"/><circle class="a" cx="24.18" cy="236.98" r="4.84"/><circle class="a" cx="53.2" cy="207.96" r="4.84"/><path class="a" d="M96.72,38.69H86a43.38,43.38,0,0,0-33.69,16l-6.72,8.22H14.51a4.84,4.84,0,0,0-3.42,1.42L1.42,74a4.83,4.83,0,0,0,0,6.84l3.83,3.83L3.83,86.05a4.84,4.84,0,1,0,6.84,6.84l1.42-1.42L18,97.34l-7.48,11.21a4.84,4.84,0,0,0,.61,6.1L25.6,129.16A4.8,4.8,0,0,0,29,130.58a4.86,4.86,0,0,0,2.68-.81l11.21-7.48,5.87,5.87-1.42,1.42a4.84,4.84,0,0,0,6.84,6.84L55.62,135l3.83,3.83a4.83,4.83,0,0,0,6.84,0L76,129.16a4.8,4.8,0,0,0,1.42-3.42V94.62L85.6,87.9a43.38,43.38,0,0,0,16-33.69V43.53A4.84,4.84,0,0,0,96.72,38.69Z"/><polygon class="c" points="16.51 72.54 37.72 72.54 23.82 89.53 15.51 81.22 15.51 81.22 15.51 81.21 11.68 77.38 16.51 72.54"/><polygon class="c" points="29.63 119.52 20.73 110.62 24.93 104.32 35.94 115.32 29.63 119.52"/><polygon class="c" points="67.71 123.74 62.87 128.57 59.04 124.74 59.04 124.74 59.04 124.74 50.73 116.43 67.71 102.53 67.71 123.74"/><path class="d" d="M91.89,54.21a33.75,33.75,0,0,1-12.42,26.2L43.85,109.56,30.7,96.4,59.84,60.78A33.75,33.75,0,0,1,86,48.36h5.85Z"/><circle class="a" cx="77.38" cy="62.87" r="4.84"/></svg>