<svg xmlns="http://www.w3.org/2000/svg" viewBox="0 0 113.66 124.28"><defs><style>.a{fill:none;stroke:#cfcfcf;stroke-miterlimit:10;stroke-width:3px;}.b{fill:#d9804f;}</style></defs><rect class="a" x="-55.22" y="-17.72" width="224.11" height="315.23" rx="48.97"/><path class="b" d="M68.26,0c2.13,2.33,4.26,4.65,6.36,7,1,1.14.79,2.09-.66,2.57-2.72.9-5.46,1.73-8.19,2.62-.9.3-1.55.08-1.83-.8s.14-1.45,1-1.72c1.42-.43,2.83-.92,4.52-1.48A31.23,31.23,0,0,0,62.6,6.82C41.76,5,23.65,16.15,15.94,35.52c-.08.19-.15.38-.22.56a1.22,1.22,0,0,1-1.73.83,1.25,1.25,0,0,1-.74-1.79,42.74,42.74,0,0,1,2.95-6.5C24.34,14.42,36.59,6.33,52.76,4.19A45.46,45.46,0,0,1,69.51,5.35c-.86-1-1.56-1.78-2.27-2.57C66.13,1.54,66.11,1.29,67.05,0Z"/><path class="b" d="M40.24,97.65c0-2.31-.08-4.62,0-6.92a12.47,12.47,0,0,0-5.1-10.81,35.05,35.05,0,0,1-13-22.44c-2-12.67,1.83-23.53,11-32.36,7.88-7.58,17.43-10.87,28.36-10C77.59,16.27,91.83,29.35,94.2,45.3c2.11,14.19-2.37,26-13.52,35.08a12.22,12.22,0,0,0-4.86,10.18c.06,5.1,0,10.19,0,15.29,0,3.64-1.27,5.52-4.65,6.8a1,1,0,0,0-.73,1,12.5,12.5,0,0,1-24.71.06,1.12,1.12,0,0,0-.91-1.05,6.18,6.18,0,0,1-4.58-6.25C40.2,103.47,40.24,100.56,40.24,97.65ZM58,88.31h1.57c4.25,0,8.49,0,12.74,0,.45,0,1,.18,1.09-.59.59-4.27,3.08-7.24,6.3-10C89.51,69.44,93.73,58.7,91.52,46,89.2,32.64,81.2,23.52,68.38,19.29c-12.56-4.14-23.93-1.1-33.47,7.93-8.32,7.86-11.84,17.71-10.27,29.11a33.22,33.22,0,0,0,12.8,22.09,13.65,13.65,0,0,1,5.27,9c.12.84.47.93,1.17.93C48.57,88.3,53.26,88.31,58,88.31ZM58.11,91c-4.69,0-9.38,0-14.07,0-.87,0-1.22.19-1.18,1.13.07,2,.07,4,0,6.06,0,1,.34,1.2,1.25,1.19,4.69,0,9.38,0,14.07,0a5.35,5.35,0,0,1,1.2.08A1.29,1.29,0,0,1,59.2,102c-.32,0-.64,0-1,0-4.77,0-9.54,0-14.31,0-.77,0-1.1.19-1.05,1,.05,1,0,2.1,0,3.15,0,2.69,1.46,4.11,4.15,4.11H69.1c2.62,0,4.06-1.43,4.07-4,0-4.69,0-9.38,0-14.07,0-.89-.2-1.17-1.13-1.16C67.41,91,62.76,91,58.11,91Zm0,21.91c-2.91,0-5.82,0-8.73,0-.82,0-1.16.11-.94,1.07a9.9,9.9,0,0,0,19.27.07c.18-.8.09-1.16-.88-1.14C63.94,112.93,61,112.89,58.12,112.89Z"/><path class="b" d="M92.08,84.81,95.87,84c.93-.19,1.78-.08,2,1s-.58,1.4-1.44,1.59c-2.64.57-5.29,1.16-7.93,1.71-1.86.39-2.48-.27-2.08-2.15.58-2.64,1.16-5.28,1.72-7.93.18-.91.59-1.58,1.6-1.38s1.21,1,1,2c-.33,1.33-.57,2.67-.86,4,.49.1.61-.27.8-.47a44.41,44.41,0,0,0,11.63-24.31,44.19,44.19,0,0,0-5.61-29.29c-.49-.85-.82-1.7.22-2.3s1.6.14,2.09,1a47.73,47.73,0,0,1-5.78,56.09C92.88,83.88,92.6,84.21,92.08,84.81Z"/><path class="b" d="M23.87,109.69c0,.73-.48,1.07-1,1.37-1.74.94-3.47,1.9-5.22,2.83a3.17,3.17,0,0,0-1.42,1.41c-.91,1.75-1.88,3.48-2.83,5.21-.32.59-.68,1.12-1.45,1.09s-1.05-.53-1.34-1.07c-.76-1.39-1.6-2.73-2.24-4.16a6.06,6.06,0,0,0-3.17-3.13C3.74,112.59,2.39,111.77,1,111s-1.36-1.87,0-2.65c1.76-1,3.53-2,5.31-2.91a2.9,2.9,0,0,0,1.34-1.32c.94-1.79,1.92-3.55,2.9-5.31.81-1.43,1.94-1.45,2.74,0q1.51,2.7,3,5.43a2.73,2.73,0,0,0,1.17,1.16c1.82,1,3.62,2,5.42,3C23.43,108.6,23.91,109,23.87,109.69ZM12,117.42a12.42,12.42,0,0,1,7.81-7.77A12.32,12.32,0,0,1,12,101.87a12.25,12.25,0,0,1-7.81,7.78A12.39,12.39,0,0,1,12,117.42Z"/><path class="b" d="M89.84,109.7c0-.81.51-1.13,1.06-1.43,1.74-.94,3.46-1.92,5.21-2.83A3.17,3.17,0,0,0,97.52,104c.9-1.72,1.85-3.41,2.78-5.11.31-.58.62-1.14,1.41-1.15s1.13.5,1.45,1.09c1.11,2,1.88,4.37,3.44,5.94s3.92,2.33,5.93,3.44c.58.33,1.13.66,1.13,1.44s-.55,1.11-1.13,1.43c-1.7.93-3.39,1.88-5.11,2.77a3.35,3.35,0,0,0-1.49,1.51c-.9,1.71-1.84,3.41-2.77,5.11-.32.58-.66,1.13-1.44,1.11s-1.1-.58-1.41-1.16c-.93-1.7-1.89-3.38-2.78-5.1a3.35,3.35,0,0,0-1.5-1.5c-1.75-.92-3.48-1.89-5.22-2.83C90.24,110.7,89.8,110.34,89.84,109.7Zm11.93,7.71c1.34-3.94,4-6.29,7.78-7.79a12.25,12.25,0,0,1-7.82-7.74,12.33,12.33,0,0,1-7.79,7.79A12.4,12.4,0,0,1,101.77,117.41Z"/><path class="b" d="M12,65c-.39,1.23-.78,2.42-1.15,3.61-.28.87-.83,1.31-1.75,1a1.25,1.25,0,0,1-.8-1.76c.89-2.85,1.79-5.7,2.74-8.53a1.26,1.26,0,0,1,2.2-.62c2.28,2,4.52,4,6.75,6.1a1.26,1.26,0,0,1,.1,1.93,1.27,1.27,0,0,1-1.94,0c-1.13-1-2.25-2-3.61-3.28A44.85,44.85,0,0,0,28.83,85.88c.47.41.9.83.68,1.55-.33,1.09-1.39,1.31-2.39.47a46.71,46.71,0,0,1-9.36-10.76A48.49,48.49,0,0,1,12.5,65.86,1.21,1.21,0,0,0,12,65Z"/><path class="b" d="M95.15,21.82a1.76,1.76,0,0,1-1.71,1.7,1.71,1.71,0,0,1-1.7-1.8,1.65,1.65,0,0,1,1.74-1.61A1.72,1.72,0,0,1,95.15,21.82Z"/><path class="b" d="M34.52,91.79a1.71,1.71,0,0,1-1.72,1.66,1.7,1.7,0,1,1,1.72-1.66Z"/><path class="b" d="M73.11,74.8a1.73,1.73,0,0,1-1.25-.48c-1-.78-2.08-1.53-3.09-2.34a1.54,1.54,0,0,0-1.54-.19c-2.09.51-2.71,1.81-2.92,3.85-.37,3.64,0,3.53-3.91,3.49-2.07,0-4.13,0-6.19,0-1.57,0-1.88-.26-2.13-1.83-.2-1.24-.39-2.48-.53-3.72-.06-.56-.32-.77-.79-1-1.83-1.13-3.26-.79-4.9.6-3,2.48-2.66,2.27-5.24-.31-1.51-1.51-3-3-4.55-4.54a1.59,1.59,0,0,1-.18-2.44c.8-1,1.52-2.09,2.33-3.1a1.44,1.44,0,0,0,.21-1.52c-.54-1.94-1.64-2.75-3.72-2.93-4.13-.38-3.58-.15-3.6-4.26,0-2.07,0-4.13,0-6.19a1.51,1.51,0,0,1,1.56-1.74,19.8,19.8,0,0,1,2.4-.34,3,3,0,0,0,3.23-2.48A1.94,1.94,0,0,0,38,41.12c-.82-.95-1.51-2-2.26-3a1.42,1.42,0,0,1,.14-2.06l6.17-6.18a1.46,1.46,0,0,1,2.16-.14c1.09.82,2.21,1.62,3.29,2.47a1.37,1.37,0,0,0,1.42.17c1.94-.53,3-1.57,2.9-3.71a12,12,0,0,1,.33-2.27A1.45,1.45,0,0,1,53.82,25c2.83,0,5.66,0,8.49,0a1.57,1.57,0,0,1,1.78,1.55c.18,1.32.39,2.64.54,4,.07.6.38.82.88,1.13,1.81,1.11,3.2.77,4.81-.58,2.94-2.47,2.62-2.43,5.41.39,1.48,1.5,3,3,4.46,4.46a1.53,1.53,0,0,1,.17,2.34A20.91,20.91,0,0,1,79,40a3.2,3.2,0,0,0-.63,4.44c.4.66.7,1.06,1.46,1.15,1.25.14,2.48.37,3.72.51a1.5,1.5,0,0,1,1.53,1.66q0,4.3,0,8.61a1.49,1.49,0,0,1-1.49,1.69c-1.29.15-2.56.4-3.84.55-.73.08-1,.47-1.37,1.08-1.09,1.78-.58,3,.64,4.57,2.46,3,2.53,2.59-.3,5.42-1.49,1.48-3,3-4.46,4.46A1.59,1.59,0,0,1,73.11,74.8Zm-.29-3.12a4.07,4.07,0,0,0,.48-.33C74.67,70,76,68.59,77.42,67.24c.39-.38.16-.62-.06-.92-.77-1-1.52-2.08-2.32-3.1a1.64,1.64,0,0,1-.18-2,16.52,16.52,0,0,0,1.53-3.69,1.67,1.67,0,0,1,1.53-1.33c1.24-.16,2.47-.4,3.72-.53.68-.06.86-.36.84-1q0-2.55,0-5.1c0-.67-.13-1-.9-1.08-1.16-.1-2.32-.33-3.48-.48a1.8,1.8,0,0,1-1.73-1.42,15.64,15.64,0,0,0-1.53-3.68A1.59,1.59,0,0,1,75,41c.76-1,1.46-2,2.26-3,.49-.58.38-.91-.13-1.38-1.23-1.17-2.44-2.36-3.6-3.61-.51-.54-.86-.51-1.4-.07-.94.77-1.95,1.45-2.9,2.19a1.66,1.66,0,0,1-2,.16,17.14,17.14,0,0,0-3.68-1.53,1.71,1.71,0,0,1-1.34-1.65c-.14-1.21-.35-2.4-.49-3.6-.07-.58-.27-.85-.91-.84-1.78,0-3.56,0-5.33,0-.63,0-.85.21-.93.79-.16,1.24-.39,2.47-.53,3.72a1.64,1.64,0,0,1-1.27,1.57,18,18,0,0,0-3.79,1.58A1.63,1.63,0,0,1,47,35.15c-1-.79-2.08-1.53-3.09-2.33a.7.7,0,0,0-1.13.06q-1.89,1.95-3.86,3.86c-.39.38-.44.66-.09,1.1.78,1,1.48,2,2.26,3a1.8,1.8,0,0,1,.17,2.23,13.63,13.63,0,0,0-1.39,3.35A2,2,0,0,1,38,48c-1.17.14-2.32.38-3.48.48-.65.06-.8.33-.8.92,0,1.78,0,3.56,0,5.33,0,.63.21.83.82.89,1.24.13,2.47.39,3.71.55a1.66,1.66,0,0,1,1.54,1.32,17,17,0,0,0,1.52,3.69,1.69,1.69,0,0,1-.17,2c-.72.92-1.36,1.91-2.11,2.81-.51.6-.58,1,.06,1.57A46.38,46.38,0,0,1,42.55,71c.62.68,1.05.62,1.69.07.82-.71,1.75-1.3,2.6-2a1.8,1.8,0,0,1,2.23-.23,16.2,16.2,0,0,0,3.57,1.48A1.7,1.7,0,0,1,54,72c.13,1.2.36,2.39.51,3.59.08.61.28.91,1,.89,1.74-.06,3.48,0,5.22,0,.66,0,.93-.21,1-.87.13-1.21.35-2.4.49-3.6a1.67,1.67,0,0,1,1.26-1.59,17.3,17.3,0,0,0,3.8-1.57,1.69,1.69,0,0,1,2,.2c.92.72,1.87,1.41,2.81,2.11Z"/><path class="b" d="M68.05,100.71a1.74,1.74,0,0,1-1.7,1.69,1.77,1.77,0,0,1-1.71-1.82A1.68,1.68,0,0,1,66.42,99,1.63,1.63,0,0,1,68.05,100.71Z"/><path class="b" d="M58.07,67.76A15.69,15.69,0,1,1,73.85,52.08,15.75,15.75,0,0,1,58.07,67.76Zm0-28.71A13,13,0,1,0,71.19,52,13.09,13.09,0,0,0,58.07,39.05Z"/><path class="b" d="M56.34,47.88a9.38,9.38,0,0,1,.9.77,1.25,1.25,0,0,1,.15,1.66,1.16,1.16,0,0,1-1.7.4c-1.54-1.1-3-2.25-4.5-3.47a1.17,1.17,0,0,1,.05-1.91c1.4-1.16,2.84-2.27,4.3-3.35a1.21,1.21,0,0,1,1.82.27A1.23,1.23,0,0,1,57.18,44c-.25.25-.54.47-.82.72.21.41.58.23.85.24h6.18c.94,0,1.64.39,1.6,1.39s-.7,1.27-1.59,1.26h-7Z"/><path class="b" d="M60.15,59.2H53.67a8.15,8.15,0,0,1-1.21,0,1.25,1.25,0,0,1-1.23-1.37,1.21,1.21,0,0,1,1.34-1.25c2,0,4,0,5.94,0h1.32c0-.55-.44-.65-.69-.88a1.32,1.32,0,1,1,1.68-2c1.32,1,2.64,2,3.93,3,.94.76.92,1.62,0,2.41-1.19,1-2.42,1.89-3.63,2.84-.75.59-1.55.85-2.22,0s-.19-1.51.55-2.05C59.56,59.72,59.7,59.58,60.15,59.2Z"/></svg>