<svg xmlns="http://www.w3.org/2000/svg" viewBox="0 0 286.83 286.83"><defs><style>.a{fill:#303030;}.b{fill:#d8804f;}.c{fill:#d29e83;}</style></defs><path class="a" d="M121,85.15a4.48,4.48,0,0,1-.49-8.93L281.85,58.29a4.48,4.48,0,0,1,1,8.91L121.5,85.13Z"/><path class="a" d="M282.35,130l-.5,0L120.51,112a4.48,4.48,0,1,1,1-8.91L282.84,121a4.48,4.48,0,0,1-.49,8.94Z"/><path class="b" d="M286.8,62.25a4.48,4.48,0,0,1-4,5L121.5,85.13l-22.9,0v17.93l22.9,0L282.84,121a4.48,4.48,0,0,1,4,5"/><rect class="b" x="67.23" y="85.15" width="22.41" height="17.93"/><rect class="b" x="35.86" y="85.15" width="22.41" height="17.93"/><path class="a" d="M121,259.94h-9.33L99,112h4.08a4.48,4.48,0,0,0,0-9H98.6V85.15h4.48a4.48,4.48,0,0,0,0-9H98.31A35.91,35.91,0,0,0,67.23,45.11V40.34a4.49,4.49,0,1,0-9,0v4.77A35.91,35.91,0,0,0,27.18,76.19H22.41a4.48,4.48,0,1,0,0,9h4.48v17.93H22.41a4.48,4.48,0,1,0,0,9h4.08L13.81,259.94H4.48A4.49,4.49,0,0,0,0,264.42v17.93a4.48,4.48,0,0,0,9,0V268.9H116.53v13.45a4.48,4.48,0,1,0,9,0V264.42A4.49,4.49,0,0,0,121,259.94ZM62.74,53.78A26.93,26.93,0,0,1,89.25,76.19h-53A26.94,26.94,0,0,1,62.74,53.78ZM89.63,85.15v17.93H67.23V85.15Zm-53.78,0H58.26v17.93H35.85ZM71.71,259.94H53.78v-9a9,9,0,1,1,17.93,0Zm9,0v-9a17.93,17.93,0,1,0-35.85,0v9h-22l3.46-40.34h54.4a4.48,4.48,0,0,0,0-9H27l2.3-26.89H76.19a4.48,4.48,0,0,0,0-9H30.11l2.3-26.89h39.3a4.49,4.49,0,0,0,0-9H33.18L35.49,112H90l12.68,147.9Z"/><path class="c" d="M62.74,53.78A26.93,26.93,0,0,1,89.25,76.19h-53A26.94,26.94,0,0,1,62.74,53.78Z"/><path class="a" d="M143.45,286.83a4.49,4.49,0,0,1-4.48-4.48V219.6a4.49,4.49,0,0,1,4.48-4.48h22.4c9.7,0,17.32-1.35,22.63-4,6-3,8.73-7.4,8.73-13.91V165.82a4.48,4.48,0,0,1,4.48-4.48h11.52l-15.74-43.28a4.53,4.53,0,0,1-.26-1.59c.17-14.78-1.74-32-4.77-42.77a4.48,4.48,0,0,1,8.63-2.41c3.23,11.51,5.22,28.88,5.11,44.47l17.64,48.53a4.48,4.48,0,0,1-4.22,6H206.17V197.2c0,9.87-4.73,17.46-13.68,21.93-6.57,3.29-15.53,5-26.64,5H147.93v58.26A4.48,4.48,0,0,1,143.45,286.83Z"/><path class="a" d="M10.14,134.78a4.48,4.48,0,0,1-4.23-3,113.89,113.89,0,0,1-5.07-19,91,91,0,0,1-.78-17l0-1.78c.38-24.21,9-46,24.41-61.36C47.09,10.08,72.94,0,108.3,0c38.88,0,69.25,18.45,85.5,52a4.48,4.48,0,0,1-8.06,3.91c-7.06-14.55-17-26-29.49-34-13.46-8.6-29.59-13-47.95-13C91,9,76.38,11.5,63.56,16.71,51.74,21.51,41,28.81,30.84,39,17.13,52.73,9.39,72.32,9.05,94.19c0,.6,0,1.2,0,1.81a83.84,83.84,0,0,0,.67,15.31,103.57,103.57,0,0,0,4.68,17.5,4.48,4.48,0,0,1-2.74,5.71A4.33,4.33,0,0,1,10.14,134.78Z"/><path class="c" d="M71.71,259.94H53.78v-9a9,9,0,1,1,17.93,0Z"/></svg>