<svg xmlns="http://www.w3.org/2000/svg" viewBox="0 0 62.56 54.76"><defs><style>.a{fill:#fff;}</style></defs><path class="a" d="M22.63,0c1.84,1,2.45,2.07,2.14,3.57a3,3,0,0,1-5.8.16A2.92,2.92,0,0,1,20.45.35L21.11,0Z"/><path class="a" d="M41.45,0l.66.35a2.91,2.91,0,0,1,1.5,3.28,3,3,0,0,1-5.78.12A2.94,2.94,0,0,1,39.29.36L39.93,0Z"/><path class="a" d="M21.11,54.76a3.72,3.72,0,0,1-2-1.86,3,3,0,0,1,1.57-3.82,3,3,0,0,1,3.85,1.31,3,3,0,0,1-1.13,4l-.73.4Z"/><path class="a" d="M39.93,54.76c-1.37-.66-2.36-1.61-2.19-3.28a3,3,0,1,1,4.28,3l-.57.31Z"/><path class="a" d="M0,18.44A3.3,3.3,0,0,1,2.85,16.3a3,3,0,0,1,3.06,2.32A3,3,0,0,1,.4,20.71L0,20Z"/><path class="a" d="M62.56,20c-.94,1.78-2.1,2.49-3.55,2.19a3,3,0,0,1-.34-5.75,3,3,0,0,1,3.52,1.4c.12.21.12.5.37.63Z"/><path class="a" d="M3.8,0c.13.08.25.17.38.24A2.93,2.93,0,0,1,5.92,3.48,2.91,2.91,0,0,1,3.47,5.89,3,3,0,0,1,.23,4.12L0,3.61V2.28A3.78,3.78,0,0,1,2.28,0Z"/><path class="a" d="M62.56,3.61a3.14,3.14,0,0,1-2.71,2.3A3,3,0,0,1,58.21.33c.18-.11.45-.09.55-.33h1.52a3.84,3.84,0,0,1,2.28,2.28Z"/><path class="a" d="M0,34.8C.94,33,2.1,32.3,3.55,32.6A3,3,0,0,1,6,35.39a3,3,0,0,1-2.08,3A3,3,0,0,1,.37,37c-.12-.21-.12-.5-.37-.63Z"/><path class="a" d="M62.56,36.32a3.33,3.33,0,0,1-2.85,2.15,3,3,0,0,1-1.25-5.71,3,3,0,0,1,3.7,1.3c.14.24.27.49.4.74Z"/><path class="a" d="M0,51.15a3.13,3.13,0,0,1,2.71-2.29,3,3,0,0,1,1.64,5.58c-.18.1-.45.08-.55.32H2.28A3.78,3.78,0,0,1,0,52.48Z"/><path class="a" d="M58.76,54.76c-.13-.08-.25-.17-.38-.24a3,3,0,0,1,.71-5.65,3,3,0,0,1,3.24,1.77l.23.51v1.33a3.78,3.78,0,0,1-2.28,2.28Z"/><path class="a" d="M24.85,19.29a3,3,0,0,1-6-.13,3,3,0,0,1,6,.13Z"/><path class="a" d="M40.75,16.3a3,3,0,0,1,3,3,3,3,0,0,1-6-.09A3,3,0,0,1,40.75,16.3Z"/><path class="a" d="M21.9,38.47a3,3,0,0,1-3-2.88,3,3,0,1,1,6-.09A3,3,0,0,1,21.9,38.47Z"/><path class="a" d="M40.7,38.47a3,3,0,0,1-3-2.93,3,3,0,1,1,6,0A3,3,0,0,1,40.7,38.47Z"/></svg>