<svg xmlns="http://www.w3.org/2000/svg" viewBox="0 0 504 306.35"><defs><style>.a{opacity:0.1;}.b{fill:gray;stroke:#3c3c3b;stroke-miterlimit:10;}</style></defs><g class="a"><polygon class="b" points="250.1 153.48 336.57 258.75 423 153.48 423 305.85 503.5 305.85 503.5 0.5 444.42 0.5 336.57 131.88 228.69 0.5 168.78 0.5 168.78 43.3 125.46 43.3 125.46 85.83 169.47 85.83 169.47 129.82 213.49 129.82 213.49 175.31 169.47 175.31 169.47 217.84 213.49 217.84 213.49 261.86 250.1 261.86 250.1 153.48"/><rect class="b" x="125.46" y="131.31" width="42.53" height="42.53"/><rect class="b" x="169.47" y="263.34" width="42.53" height="42.52"/><rect class="b" x="81.46" y="0.51" width="42.53" height="41.31"/><rect class="b" x="0.5" y="129.03" width="25.93" height="25.93"/><rect class="b" x="32.32" y="223.35" width="25.93" height="25.93"/><rect class="b" x="53.43" y="79.74" width="34.42" height="34.41"/><rect class="b" x="96.5" y="230.09" width="34.42" height="34.42"/><rect class="b" x="52.58" y="161.95" width="34.42" height="34.42"/></g></svg>