<svg xmlns="http://www.w3.org/2000/svg" viewBox="0 0 280.83 465.77"><defs><style>.a{fill:#cecece;}</style></defs><path class="a" d="M81.59,0A120.85,120.85,0,0,1,73,11.23a110.73,110.73,0,0,1-11.07,11C51,31.84,39.63,41,28.89,50.78,12.75,65.52,2.56,83.43.31,105.64c-3,29.6,15.69,58.44,44.22,66.8,8.52,2.5,17.34,4,26.05,5.86,20.76,4.43,38.48,14.3,52.76,30,20.21,22.19,25.12,47.54,15.53,76-7.09,21.05-13.25,42.37-15,64.71-2.66,34.26,6.85,63.8,33.75,86.39,23.1,19.41,50.21,29,80.08,30.26,14.33.58,28.74-.88,43.11-1.41V0Z"/></svg>