<svg xmlns="http://www.w3.org/2000/svg" viewBox="0 0 318.87 498.4"><defs><style>.a{fill:#cecece;}</style></defs><path class="a" d="M0,0,186.59.07c4.94,0,9.89-.1,14.83,0a51.78,51.78,0,0,1,6.21.88c-1.57,9.35-4.06,18.18-4.38,27.09-1.2,33.64,8.89,62.78,36.38,84.06,9,7,18.74,12.94,27.9,19.7,22,16.25,38.31,36.83,46.59,63.18a96.31,96.31,0,0,1,1.13,56c-8.15,28.87-27.4,45.82-56.75,51.2-26.47,4.85-51.85,0-76.61-9.42C164,286,146.2,278.71,128.12,272.33a74.56,74.56,0,0,0-36.55-3.41c-16.78,2.63-30,11.59-41.18,23.88a91.42,91.42,0,0,0-23.82,54.51c-2.17,24.57-2.45,49.31-3.57,74-.9,20-3,39.76-11.68,58.09C8.18,486,3.81,492.08,0,498.4Z"/></svg>