<svg xmlns="http://www.w3.org/2000/svg" xmlns:xlink="http://www.w3.org/1999/xlink" viewBox="0 0 324.16 310.14"><defs><style>.a{fill:#666;}.b{fill:#fff;}.c{fill:#4d4d4d;}.d{fill:gray;}.e{fill:#cecece;}.f{fill:#369a9a;}.g{fill:#232323;}.h{fill:#d56c18;}.i{fill:#d9804f;}.j{fill:#8a9295;}.k{fill:url(#a);}.l{fill:#dadada;}.m{fill:#4c4b4f;}.n{fill:#8a542a;}.o{fill:#6b6380;}.p{fill:#d8d9e1;}.q{fill:#2c273d;}.r{fill:#231f30;}.s{fill:#ced4d7;}.t{fill:#bdd4e4;}.ar,.u{fill:#4c4c4b;}.v{fill:#ddd8ca;}.w{fill:#808077;}.x{fill:#cbdae6;}.y{fill:#b65135;}.z{fill:#ffba59;}.aa{fill:#5880aa;}.ab,.af{fill:#a75713;}.ac{fill:#b6a987;}.ad{fill:#c13152;}.ae{fill:#2d2d2d;}.af,.ag{opacity:0.6;}.ag{fill:#932333;}.ah{fill:#c8c3b7;}.ai{fill:#ddd6c3;}.aj{fill:#749228;}.ak{fill:#132640;}.al{fill:#c6d1d5;}.am{fill:#76b5d5;}.an{fill:#91a2b9;}.ao{fill:#d8804f;}.ap{fill:#298080;}.aq{fill:#9b9b9b;}.ar{font-size:43.52px;font-family:JFFlat-Regular, JF Flat;}</style><linearGradient id="a" x1="-466.45" y1="131.96" x2="-466.45" y2="123.61" gradientTransform="matrix(0.92, -0.4, 0.4, 0.92, 510.45, -141.71)" gradientUnits="userSpaceOnUse"><stop offset="0" stop-color="#bfcacd"/><stop offset="0.29" stop-color="#bfcacd"/><stop offset="0.43" stop-color="#fff"/><stop offset="0.98" stop-color="#bfcacd"/></linearGradient></defs><circle class="a" cx="158.33" cy="153.13" r="141.04"/><circle class="b" cx="170.7" cy="21.7" r="21.7"/><path class="c" d="M169.2,31l-5.89-6,.23-.23c.37-.36,1.14-1.11,2.4-2.58a4.48,4.48,0,0,0,.91-2.9,5.46,5.46,0,0,0-1.46-3.92l-.64-.67c-.08-.07-.2-.13-.3-.2a1.92,1.92,0,0,1-.38-.25,1.33,1.33,0,0,1-.38-.73,1.63,1.63,0,0,1,.37-1.21,1.54,1.54,0,0,1,.5-.29,1.82,1.82,0,0,1,.94-.11,5.26,5.26,0,0,1,2.29,1.48,6.18,6.18,0,0,1,.63.74c1.06,1.44,2.1,3,2.11,3,.27.28.4.26.56.2a3.82,3.82,0,0,0,1.09-.85,1.83,1.83,0,0,0,.13-.16,2.23,2.23,0,0,1,.19-.24l.11-.09,2.62-2.71a1.42,1.42,0,0,1,2,.23l.16.16a1.8,1.8,0,0,1,.53,1,1.5,1.5,0,0,1,1.77.38l.16.16a1.45,1.45,0,0,1,.36,1.81,2,2,0,0,1,.89.5l.16.16a1.4,1.4,0,0,1,.24,1.95l-.69.7a1.91,1.91,0,0,1,.9.51l.16.16a1.82,1.82,0,0,1,.52,1,1.11,1.11,0,0,1-.27,1A53.38,53.38,0,0,1,178,27.09a4.29,4.29,0,0,1-2.06.73,3.58,3.58,0,0,0-.49.08h-.13a15.21,15.21,0,0,0-2.18.28,3.22,3.22,0,0,0-1.53.73c-.11.11-1.79,1.58-2.13,1.88Zm-5-6,5,5.12,1.88-1.65a3.88,3.88,0,0,1,1.85-.91,16.26,16.26,0,0,1,2.28-.29,5.21,5.21,0,0,1,.57-.08,3.64,3.64,0,0,0,1.76-.62,56.29,56.29,0,0,0,4-4.08.47.47,0,0,0,.1-.42,1.17,1.17,0,0,0-.34-.62l-.16-.16c-.41-.4-.85-.42-1-.24l-3.3,3.34,0-1L181,19.15c.21-.21.1-.69-.24-1l-.16-.15c-.41-.41-.86-.43-1-.25l-2.82,2.85,0-1,2.88-2.91c.21-.21.1-.69-.25-1l-.15-.16c-.39-.38-.85-.42-1-.24l-2.76,2.8-.49-.55,2.23-2.33c.21-.22.09-.7-.25-1l-.15-.16c-.41-.4-.86-.41-1-.23L173,16.51a1.23,1.23,0,0,0-.17.19,1.16,1.16,0,0,1-.2.24,3.94,3.94,0,0,1-1.32,1,1.15,1.15,0,0,1-1.29-.4c0-.06-1.07-1.62-2.13-3a5.79,5.79,0,0,0-.57-.67,4.39,4.39,0,0,0-1.95-1.29,1.2,1.2,0,0,0-.59.08,1.42,1.42,0,0,0-.27.14,1.11,1.11,0,0,0-.18.68.72.72,0,0,0,.21.34.91.91,0,0,0,.23.15,2,2,0,0,1,.4.27l.09.09c.36.37.52.53.59.62h0a6.05,6.05,0,0,1,1.65,4.39,5.11,5.11,0,0,1-1.07,3.32C165.38,23.83,164.66,24.56,164.23,25Z"/><path class="d" d="M165,13.15c-.3-.25-.67-.36-.94-.1-.59.58.85,1.32,1,1.52s.15.18.23.26.23.18.31.11c.51-.5-.35-1.51-.54-1.7Z"/><rect class="d" x="164.51" y="24.41" width="2.42" height="8.6" transform="translate(27.16 124.05) rotate(-44.36)"/><circle class="b" cx="46.49" cy="81.39" r="21.7"/><path class="e" d="M52.69,70.06a8.18,8.18,0,0,0-5.57-1,7.9,7.9,0,0,0-5.3,3.27A12.44,12.44,0,0,0,40,79.11q0,.69.06,1.38a11.41,11.41,0,0,1-.2,3.44c-.13.61-.6,2.15-.65,2.45l4.67,2.94c.25-.18,1.43-1.26,1.93-1.64a11.27,11.27,0,0,1,3-1.69c.43-.16.85-.33,1.27-.53a12.38,12.38,0,0,0,5.29-4.61A7.9,7.9,0,0,0,56,74.66,8.18,8.18,0,0,0,52.69,70.06Z"/><path class="f" d="M43.1,88.1l2.79-4.43,6.6-5.21-.06-.07,0-.09-1.21.43L51,77.33l-1.32.48-.15-1.4-1.32.48-.14-1.4L46.78,76l-.14-1.39L45.32,75l-.14-1.28h-.09l-.09,0L43.08,81.9l-2.79,4.43A1.2,1.2,0,0,0,40.67,88l.78.49A1.2,1.2,0,0,0,43.1,88.1Zm7.78-10.51L51,79l.9-.33-5.75,4.55.26-.42a1.22,1.22,0,0,0-.09-1.41l.76-1.21L49.68,78Zm-4.74,3.6-.07,0-.79-.49a.51.51,0,0,0-.16-.09l.6-1,1,.64ZM48,75.74l.14,1.4,1.32-.47.13,1.23L47,80.06l-1.16-.73,1-3.17Zm-2.89-1.42.1,1,1.32-.47.13,1.26-1,3.17-.77,1.23a1.2,1.2,0,0,0-1.22.54l-.25.4ZM41.65,88.16l-.79-.49a.85.85,0,0,1-.26-1.15l3.34-5.3a.85.85,0,0,1,.69-.39L43.32,82.9a.14.14,0,0,0,0,.19.14.14,0,0,0,.19,0l1.36-2.17a.53.53,0,0,1,.17.08l.78.49.08,0-1.38,2.18a.13.13,0,0,0,0,.19.14.14,0,0,0,.19,0l1.32-2.11a.83.83,0,0,1,0,.87L42.79,87.9A.83.83,0,0,1,41.65,88.16Z"/><path class="g" d="M44,90a.78.78,0,0,1-1,.23l-4.25-2.68a.7.7,0,0,1-.17-1l0,0a.65.65,0,0,1,.93-.22l4.26,2.68a.73.73,0,0,1,.27,1Z"/><path class="g" d="M43.16,91.4a.68.68,0,0,1-1,.13L37.9,88.85c-.37-.23-.56-.59-.32-1h0c.23-.38.64-.36,1-.13l4.25,2.68a.68.68,0,0,1,.32,1Z"/><path class="g" d="M42.21,92.8a.71.71,0,0,1-1,.22L37,90.34a.71.71,0,0,1-.22-1l0,0a.71.71,0,0,1,1-.22L42,91.77a.71.71,0,0,1,.22,1Z"/><path class="g" d="M37,90.68c-.52,1.08,0,2,1,2.73s2.14.67,2.89-.28Z"/><circle class="b" cx="170.7" cy="288.44" r="21.7"/><circle class="b" cx="96.45" cy="269.13" r="21.7"/><path class="a" d="M92.9,271.43A1.41,1.41,0,1,0,91.52,270,1.41,1.41,0,0,0,92.9,271.43Z"/><path class="a" d="M93.55,271.87l-1.33,0a.32.32,0,0,0-.32.31l-1.72,6.53a.31.31,0,0,0,.31.32l1,0-.08,3.47a.25.25,0,0,0,.24.25l.78,0a.25.25,0,0,0,.26-.24l.08-3.47h.31L93,282.54a.25.25,0,0,0,.24.25l.78,0a.26.26,0,0,0,.26-.24l.08-3.48.58,0a.31.31,0,0,0,.32-.31l-1.41-6.6A.33.33,0,0,0,93.55,271.87Z"/><path class="a" d="M87.86,273.94h4.83a.32.32,0,0,1,.32.32v.29a.32.32,0,0,1-.32.32H87.87a.32.32,0,0,1-.32-.32v-.29a.31.31,0,0,1,.31-.31Z" transform="translate(-198.39 285.37) rotate(-73.96)"/><path class="a" d="M95.12,271.79h.3a.31.31,0,0,1,.31.31v4.83a.32.32,0,0,1-.32.32h-.29a.32.32,0,0,1-.32-.32V272.1a.31.31,0,0,1,.31-.31Z" transform="translate(-62.06 30.22) rotate(-13.64)"/><path class="a" d="M100.78,271.61a1.41,1.41,0,1,0-1.38-1.44A1.41,1.41,0,0,0,100.78,271.61Z"/><path class="a" d="M103.74,276.82l-1.14-4.69a.32.32,0,0,0-.34-.24h0l-2.9-.07a.28.28,0,0,0-.15,0,.31.31,0,0,0-.38.21l-1.36,4.64a.33.33,0,0,0,.22.39l.28.08a.31.31,0,0,0,.39-.22l.62-2.11-.06,2.65,0,1.19-.1,4.35a.3.3,0,0,0,.29.31l1,0a.3.3,0,0,0,.31-.29l.1-4h.39l-.09,4a.31.31,0,0,0,.3.31l.95,0a.3.3,0,0,0,.31-.3l.11-4.34,0-1.2,0-2.14.39,1.6a.31.31,0,0,0,.38.23l.28-.07A.32.32,0,0,0,103.74,276.82Z"/><path class="h" d="M97.88,254.84a4.22,4.22,0,0,0-4.38,4c0,2.28,4.08,8.8,4.08,8.8s4.43-6.32,4.48-8.6A4.2,4.2,0,0,0,97.88,254.84Zm-.15,6.47a2.38,2.38,0,1,1,2.43-2.32A2.39,2.39,0,0,1,97.73,261.31Z"/><path class="g" d="M169.37,129.2,148.56,81a2.79,2.79,0,0,0-3.7-1.55L64,114.36a2.81,2.81,0,0,0-1.41,3.76l20.81,48.2Z"/><rect class="i" x="72.22" y="98.08" width="85.43" height="48.9" transform="translate(-39.16 55.6) rotate(-23.36)"/><path class="j" d="M122.33,171.63h0c-.2-.46-.15-.64.31-.84l24.56-10.74c.62-.09.77,0,1,.42h0C149,162.22,123.17,173.49,122.33,171.63Z"/><path class="k" d="M141.66,158c-.7-.46-2.67-4.38-3.11-5.27l-15.23,6.57c.35.94,1.84,5.06,1.69,5.88s-2.93,5.73-2.8,6.05c.21.49,6.76-2.06,13.2-4.84s12.78-5.8,12.57-6.29C147.84,159.83,142.45,158.54,141.66,158Z"/><path class="l" d="M83.4,166.32l2.6,6c.63,1.47,3.16,2,4.57,1.41L170.92,139c1.4-.6,1.68-2.36,1.05-3.83l-2.6-6Z"/><rect class="l" x="101.99" y="109.69" width="36.17" height="6.47" transform="translate(-34.93 56.85) rotate(-23.36)"/><path class="m" d="M100.87,112.08l.35-.15,1.06,2.45,1.2-.52.13.3-1.55.67Z"/><path class="m" d="M103.9,111.55a1.18,1.18,0,1,1-.48,1.48A1.06,1.06,0,0,1,103.9,111.55Zm.8,1.86c.36-.15.46-.57.26-1s-.58-.68-.94-.53-.44.57-.24,1S104.36,113.56,104.7,113.41Z"/><path class="m" d="M106.4,112.87v0a.4.4,0,0,1-.32-.25.48.48,0,0,1,.06-.47v0a.77.77,0,0,1-.5-.43.8.8,0,0,1,.45-1.07,1,1,0,0,1,.31-.07l.71-.31.12.27-.42.18a.7.7,0,0,1,.35.35.77.77,0,0,1-.45,1,.65.65,0,0,1-.34.06.35.35,0,0,0,0,.3c.06.13.18.19.46.07l.39-.17c.48-.21.78-.16.93.18s-.1.87-.73,1.14-.93.17-1.08-.18A.63.63,0,0,1,106.4,112.87Zm.93.52c.39-.17.56-.48.46-.7s-.25-.19-.52-.07l-.35.15a1.15,1.15,0,0,1-.28.08.47.47,0,0,0-.06.43C106.67,113.5,107,113.54,107.33,113.39Zm-.51-2.23a.48.48,0,0,0-.64-.29.47.47,0,0,0-.23.66.48.48,0,1,0,.87-.37Z"/><path class="m" d="M107.18,109.44a.25.25,0,0,1,.14-.33.25.25,0,1,1-.14.33Zm.34.61.34-.15.89,2-.35.15Z"/><path class="m" d="M108.55,109.6l.29-.12.15.29h0a1,1,0,0,1,.53-.64c.43-.19.74,0,1,.53l.55,1.29-.34.15-.54-1.25c-.17-.38-.35-.49-.62-.37s-.31.26-.42.55l.64,1.48-.35.15Z"/><rect class="l" x="108.13" y="123.91" width="36.17" height="6.47" transform="translate(-40.06 60.45) rotate(-23.36)"/><path class="m" d="M107,126.29l.84-.36c.61-.26,1.11-.23,1.37.37s0,1-.65,1.29l-.49.22.47,1.09-.35.15Zm1.39,1c.48-.2.63-.48.47-.87s-.47-.43-.94-.22l-.45.19.47,1.1Z"/><path class="m" d="M111,126.31c-.12-.27-.31-.48-.65-.33a1.19,1.19,0,0,0-.51.48l-.24-.18a1.61,1.61,0,0,1,.69-.61c.5-.22.85,0,1.07.53l.54,1.25-.29.12-.13-.23h0a1.24,1.24,0,0,1-.55.58.6.6,0,0,1-.85-.32C109.88,127.17,110.17,126.78,111,126.31Zm-.1,1.3a1,1,0,0,0,.44-.51l-.25-.57c-.65.38-.8.65-.69.91A.34.34,0,0,0,110.9,127.61Z"/><path class="m" d="M112.29,126.73a1,1,0,0,0,.71,0c.27-.12.34-.32.26-.5s-.37-.2-.63-.18-.71,0-.86-.33a.67.67,0,0,1,.45-.88,1.09,1.09,0,0,1,.73,0l-.07.29a.77.77,0,0,0-.54,0c-.26.11-.31.3-.25.45s.34.17.61.16.72,0,.88.35,0,.72-.48.93a1.41,1.41,0,0,1-.88.05Z"/><path class="m" d="M114.05,126a1,1,0,0,0,.7,0c.27-.12.35-.32.27-.5s-.37-.19-.63-.18-.72,0-.87-.33a.67.67,0,0,1,.46-.88,1.09,1.09,0,0,1,.73,0l-.07.29a.77.77,0,0,0-.54,0c-.26.11-.32.3-.25.45s.34.17.61.16.72,0,.88.35,0,.72-.48.93a1.41,1.41,0,0,1-.88,0Z"/><path class="m" d="M114.94,123.72l.35-.16.81,1,.37.52h0c0-.21-.07-.42-.1-.63l-.2-1.31.34-.15.83,1,.39.51h0c0-.21-.08-.41-.12-.62l-.21-1.31.33-.14.33,2.28-.42.18-.76-1c-.14-.17-.25-.34-.39-.53h0c0,.22.08.44.11.65l.19,1.22-.4.17Z"/><path class="m" d="M119,121.93a1.17,1.17,0,0,1,.92,2.14,1.17,1.17,0,0,1-.92-2.14Zm.8,1.85c.35-.15.45-.57.25-1s-.58-.69-.93-.54-.45.57-.25,1S119.4,123.93,119.75,123.78Z"/><path class="m" d="M120.45,121.34l.28-.13.19.36h0a.76.76,0,0,1,.4-.67.57.57,0,0,1,.24-.06l.06.33a.68.68,0,0,0-.21.06c-.17.07-.32.28-.31.69l.56,1.31-.34.15Z"/><path class="m" d="M122.58,120.36a.91.91,0,0,1,.67,0l-.17-.35-.33-.78.35-.15,1.28,3-.28.12L124,122h0a1,1,0,0,1-.49.55c-.51.23-1,0-1.3-.7A1,1,0,0,1,122.58,120.36Zm.83,1.83a.72.72,0,0,0,.4-.5l-.46-1.07a.77.77,0,0,0-.58,0,.74.74,0,0,0-.26,1C122.72,122.14,123.06,122.35,123.41,122.19Z"/><path class="n" d="M98.39,127.83a7.55,7.55,0,1,1-9.92-3.94A7.55,7.55,0,0,1,98.39,127.83Z"/><path class="o" d="M93,128.3l-4.49,1.94a.28.28,0,0,0-.14.35l.06.14,5-2.15,0-.14A.27.27,0,0,0,93,128.3Z"/><path class="p" d="M92.84,131.24l-2,.88a1,1,0,0,1-1.37-.55l-1.18-2.72a1.05,1.05,0,0,1,.55-1.37l2-.87a1,1,0,0,1,1.37.55l1.17,2.71A1,1,0,0,1,92.84,131.24ZM89.06,128a.44.44,0,0,0-.23.57L90,131.33a.44.44,0,0,0,.57.23l2-.87a.44.44,0,0,0,.22-.58l-1.17-2.71a.42.42,0,0,0-.57-.23Z"/><path class="p" d="M90.06,134.42a.26.26,0,0,0,.35.14l4.49-1.93a.27.27,0,0,0,.14-.36l-1.6-3.69-5,2.15Z"/><path class="q" d="M92,130.75a.56.56,0,0,0-1,.44.59.59,0,0,0,.34.32l.34,1.1.93-.4-.58-1A.53.53,0,0,0,92,130.75Z"/><path class="r" d="M228.92,158.53a3.65,3.65,0,0,1-4.74,2.05l-30.53-12.14a3.65,3.65,0,0,1-2-4.74l22.25-56a3.66,3.66,0,0,1,4.75-2l30.52,12.14a3.65,3.65,0,0,1,2.05,4.74Z"/><rect class="i" x="196.53" y="106.12" width="50.19" height="32.85" transform="translate(25.86 283.21) rotate(-68.32)"/><path class="s" d="M239.72,98a.91.91,0,0,1-1.18.51l-12.72-5.06a.92.92,0,0,1-.52-1.18h0a.91.91,0,0,1,1.19-.51l12.72,5a.91.91,0,0,1,.51,1.19Z"/><path class="t" d="M212.37,147a3.2,3.2,0,1,0,1.79,4.15A3.2,3.2,0,0,0,212.37,147Zm-2,5.09a2.28,2.28,0,0,1,1.69-4.24,2.28,2.28,0,1,1-1.69,4.24Z"/><path class="e" d="M215,114.42c-3.25.39-5.65,2.77-5.34,5.3s3.19,4.27,6.44,3.88l.28,0,2.08,1.58c.61.48,1.08.23,1-.54l-.25-2.07a3.83,3.83,0,0,0,2.28-4.24C221.2,115.75,218.29,114,215,114.42Zm-2.18,5.42a.78.78,0,1,1,.68-.87A.78.78,0,0,1,212.85,119.84Zm2.66-.32a.78.78,0,1,1-.18-1.55.77.77,0,0,1,.86.68A.78.78,0,0,1,215.51,119.52Zm2.67-.33a.78.78,0,1,1-.19-1.55.78.78,0,0,1,.19,1.55Z"/><path class="r" d="M231.65,117.45c2.84,1.88,4,5.2,2.51,7.42s-4.94,2.48-7.78.61l-.25-.17-2.66.51c-.79.16-1.12-.29-.67-1l1.19-1.81a4,4,0,0,1-.15-5C225.3,115.84,228.81,115.58,231.65,117.45Zm-.48,6.06a.82.82,0,0,0,1.13-.23.81.81,0,0,0-.24-1.12.8.8,0,0,0-1.12.23A.82.82,0,0,0,231.17,123.51ZM228.84,122a.81.81,0,1,0,.9-1.35.81.81,0,1,0-.9,1.35Zm-2.32-1.53a.81.81,0,1,0-.23-1.13A.82.82,0,0,0,226.52,120.44Z"/><path class="b" d="M241,154.81a27.85,27.85,0,0,0-11.9-4.83,42.05,42.05,0,0,0-74.91-21.07,27,27,0,0,0-35.43,22.31A28,28,0,0,0,127,206a17.6,17.6,0,0,0,2.43.17h91.68A28,28,0,0,0,241,154.81Z"/><path class="l" d="M158.91,136.34a26,26,0,0,0-9.8-1.89c-13,0-23.45,9.25-23.45,20.65a18.89,18.89,0,0,0,.32,3.38C136.05,144.26,143,138.61,158.91,136.34Z"/><path class="u" d="M174.54,225.74a46.76,46.76,0,0,1-18.76-33.1l-.37-3.45,3.31,0h.76c7.7,0,10.65-1.44,14.36-7l2.45-3.66,2.45,3.66c3.71,5.55,6.66,7,14.37,7h.75l3.31,0-.36,3.45A46.78,46.78,0,0,1,178,225.74l-1.75,1.3Z"/><path class="i" d="M176.29,183.88c-4.49,6.73-8.55,8.4-17.6,8.3v.18a43.55,43.55,0,0,0,17.59,31,43.55,43.55,0,0,0,17.59-31l0-.18C184.84,192.28,180.78,190.61,176.29,183.88Z"/><path class="v" d="M176.14,184.1c-4.43,6.54-8.5,8.18-17.45,8.08v.18a41.46,41.46,0,0,0,1.88,9.24h15.56Z"/><path class="v" d="M176,201.6v21.55l.29.23A43.89,43.89,0,0,0,192,201.6Z"/><path class="i" d="M179.11,291.94l1.16-1.59-1.25-.91a6.37,6.37,0,0,0,.38-1l1.55.16.2-2-1.58-.16a5.35,5.35,0,0,0-.19-1.06l1.47-.66-.81-1.8-1.49.67a5.77,5.77,0,0,0-.67-.81l1-1.34-1.59-1.15-1,1.35a5.76,5.76,0,0,0-1-.36l.18-1.67-2-.2-.17,1.68a5.71,5.71,0,0,0-1,.16l-.69-1.54-1.8.8.69,1.54a5,5,0,0,0-.81.64l-1.36-1-1.15,1.6,1.33,1a5.56,5.56,0,0,0-.39,1l-1.62-.17-.2,2,1.59.16a6.43,6.43,0,0,0,.16,1.07l-1.45.65.8,1.8,1.42-.64a5.73,5.73,0,0,0,.69.87l-.91,1.24,1.6,1.16.89-1.23a6.07,6.07,0,0,0,1,.41l-.15,1.5,2,.2.15-1.5a5.83,5.83,0,0,0,1.11-.17l.62,1.37,1.79-.81-.61-1.37a6.44,6.44,0,0,0,.86-.72Zm-7.63-1.88a3.87,3.87,0,1,1,5.41-.86A3.86,3.86,0,0,1,171.48,290.06Z"/><path class="i" d="M180.48,302.59l.78-1.08-.84-.61a3.92,3.92,0,0,0,.25-.7l1.05.1.14-1.33-1.07-.1a3.39,3.39,0,0,0-.13-.72l1-.45-.55-1.22-1,.45a4.79,4.79,0,0,0-.46-.55l.66-.9-1.08-.79-.67.92a4.38,4.38,0,0,0-.66-.24l.12-1.14-1.33-.14-.12,1.15a3.3,3.3,0,0,0-.69.11l-.47-1.05-1.22.54.47,1.05a3.26,3.26,0,0,0-.55.43l-.92-.66-.79,1.08.91.66a3.35,3.35,0,0,0-.26.66l-1.11-.11-.13,1.33,1.08.11a3.48,3.48,0,0,0,.11.72l-1,.44.55,1.22,1-.43a3.8,3.8,0,0,0,.47.59l-.62.85,1.08.78.61-.83a3.58,3.58,0,0,0,.71.27l-.11,1,1.33.14.11-1a3.93,3.93,0,0,0,.75-.13l.42.93,1.22-.54-.42-.93a5.47,5.47,0,0,0,.59-.49Zm-5.18-1.27a2.63,2.63,0,1,1,3.67-.59A2.63,2.63,0,0,1,175.3,301.32Z"/><path class="i" d="M164.89,291l.78-1.08-.84-.61a3.66,3.66,0,0,0,.25-.7l1.06.1.13-1.32-1.07-.12a3.64,3.64,0,0,0-.13-.72l1-.44-.55-1.22-1,.45a4,4,0,0,0-.46-.55l.66-.9-1.08-.79L163,284a3.71,3.71,0,0,0-.66-.24l.12-1.14-1.33-.13-.12,1.14a3.3,3.3,0,0,0-.69.11l-.47-1.05-1.22.54.47,1a2.87,2.87,0,0,0-.55.44l-.92-.67-.78,1.08.9.66a4.11,4.11,0,0,0-.26.66l-1.1-.11-.14,1.33,1.08.11a4.6,4.6,0,0,0,.11.73l-1,.43.55,1.22,1-.43a3.8,3.8,0,0,0,.47.59l-.62.85,1.09.78.6-.83a3.83,3.83,0,0,0,.71.27l-.11,1,1.33.14.11-1a3.93,3.93,0,0,0,.75-.13l.42.94,1.22-.55-.42-.93a3.94,3.94,0,0,0,.59-.49Zm-5.18-1.27a2.63,2.63,0,1,1,3.67-.59A2.63,2.63,0,0,1,159.71,289.71Z"/><circle class="b" cx="46.49" cy="218.63" r="21.7"/><path class="u" d="M59.19,225.12a1.79,1.79,0,0,1-1.62,1.95L37.16,229a1.79,1.79,0,0,1-1.95-1.61l-1.42-15.23a1.78,1.78,0,0,1,1.61-1.95l20.41-1.91a1.79,1.79,0,0,1,1.95,1.62Z"/><rect class="w" x="35.85" y="212.77" width="21.48" height="13.99" transform="translate(-20.28 5.3) rotate(-5.35)"/><path class="b" d="M53.88,210.34a.41.41,0,1,1-.44-.37A.41.41,0,0,1,53.88,210.34Z"/><path class="b" d="M55.1,210.22a.41.41,0,0,1-.37.45.4.4,0,0,1-.44-.37.4.4,0,0,1,.36-.44A.41.41,0,0,1,55.1,210.22Z"/><path class="b" d="M56.31,210.11a.41.41,0,1,1-.81.08.41.41,0,0,1,.81-.08Z"/><path class="x" d="M51.94,219.85a5.15,5.15,0,1,1-5.15-5.15A5.15,5.15,0,0,1,51.94,219.85Z"/><path class="y" d="M47.1,217a2.12,2.12,0,0,1,2.23,2.25,1.55,1.55,0,0,1-1.46,1.7.71.71,0,0,1-.74-.46h0a1,1,0,0,1-.74.4.84.84,0,0,1-.83-.94,1.46,1.46,0,0,1,1.26-1.54.47.47,0,0,1,.46.31h0l.1-.26H48l-.3,1.4c-.07.31,0,.46.26.46s.7-.42.7-1.05A1.52,1.52,0,0,0,47,217.61,2.15,2.15,0,0,0,45,219.85a1.66,1.66,0,0,0,1.78,1.76,2.34,2.34,0,0,0,.91-.22l.22.56a2.55,2.55,0,0,1-1.22.29,2.23,2.23,0,0,1-2.39-2.36A2.79,2.79,0,0,1,47.1,217Zm-.48,3.24c.11,0,.21-.06.34-.24l.14-.78a.29.29,0,0,0-.25-.14c-.32,0-.51.47-.51.81S46.43,220.22,46.62,220.22Z"/><circle class="b" cx="287.06" cy="218.63" r="21.7"/><path class="h" d="M289.28,227.61a.35.35,0,0,1-.43.23l-14.43-4.27a.34.34,0,0,1-.24-.43l3.31-16.7a.35.35,0,0,1,.43-.23l14.44,4.27a.33.33,0,0,1,.23.42Z"/><polygon class="z" points="294.59 228.03 275.82 222.48 278.31 208.08 297.08 213.63 294.59 228.03"/><polygon class="aa" points="295.69 229.05 276.92 223.5 279.41 209.11 298.19 214.66 295.69 229.05"/><path class="h" d="M295.42,229.42a.34.34,0,0,1-.43.23l-20.57-6.08a.34.34,0,0,1-.24-.43l5.92-12.68a.34.34,0,0,1,.43-.24l20.57,6.09a.35.35,0,0,1,.24.43Z"/><circle class="b" cx="302.46" cy="150.2" r="21.7"/><circle class="b" cx="21.7" cy="150.2" r="21.7"/><path class="ab" d="M15.13,142.79C15,147.52,13.51,157,13.51,157H28.3s-1.34-9.46-1.62-14.19Z"/><path class="ac" d="M20.9,151.51c-1.92,0-3.47-2.72-3.47-6.06s1.55-6.06,3.47-6.06,3.47,2.72,3.47,6.06S22.81,151.51,20.9,151.51Zm0-12c-1.83,0-3.33,2.65-3.33,5.91s1.5,5.91,3.33,5.91,3.32-2.65,3.32-5.91S22.73,139.54,20.9,139.54Z"/><path class="ad" d="M13.51,157c.52-5.35,2.29-8.75,1.62-14.19H26.68c-.66,5.44,1.11,8.84,1.62,14.19Z"/><rect class="ae" x="16.69" y="137.92" width="4.27" height="7.18" rx="0.39" transform="translate(-66.15 26.79) rotate(-28.95)"/><rect class="v" x="17.05" y="138.79" width="3.49" height="5.33" transform="translate(-66.11 26.76) rotate(-28.94)"/><path class="s" d="M18,138.31a.1.1,0,0,1,0,.13l-1.27.71a.11.11,0,0,1-.13,0h0a.09.09,0,0,1,0-.13l1.28-.71a.1.1,0,0,1,.13,0Z"/><path class="t" d="M20.18,143.87a.34.34,0,1,0,.46.13A.32.32,0,0,0,20.18,143.87Zm.28.5a.24.24,0,0,1-.33-.09.25.25,0,1,1,.33.09Z"/><path class="h" d="M26.63,143.23H15.18c.52,5.19-1.17,8.55-1.67,13.75H28.3C27.8,151.78,26.11,148.42,26.63,143.23Z"/><polygon class="af" points="17.09 142.79 15.13 142.79 15.13 143.23 17.34 143.23 17.09 142.79"/><polygon class="af" points="21.97 142.79 22.22 143.23 26.66 143.23 26.66 142.79 21.97 142.79"/><path class="ag" d="M17.94,143.68a.3.3,0,0,1-.59,0,.3.3,0,1,1,.59,0Z"/><path class="ag" d="M24.45,143.68a.3.3,0,0,1-.3.29.3.3,0,0,1,0-.59A.3.3,0,0,1,24.45,143.68Z"/><path class="ah" d="M20.9,138.87c1.61,0,3,2,3.26,4.75l.14,0h0c-.32-2.77-1.73-4.88-3.41-4.88s-3.1,2.13-3.41,4.92l.14,0C17.93,140.94,19.28,138.87,20.9,138.87Z"/><path class="ai" d="M36.92,141.58H31.53l-1.34,5H10.39a.48.48,0,0,0-.47.66l3.62,10.34H28.29l4-15h4.63a.51.51,0,0,0,.5-.5A.5.5,0,0,0,36.92,141.58Zm-7.46,7.76H27.3l.28-1.76h2.34Zm-.67,2.5H26.91l.31-2h2.1Zm-.67,2.5H26.51l.32-2h1.83ZM21,156.59l-.44-1.75h2.72l.26,1.75Zm-3.5,0-.44-1.75h3l.44,1.75Zm-2.77-9,.44,1.76H11.71l-.62-1.76Zm3.5,0,.44,1.76h-3l-.43-1.76Zm1.58,4.26-.5-2h3.22l.3,2Zm3.1.5.3,2H20.47l-.5-2Zm-3.61-.5h-3l-.5-2h3Zm3.74-2h3.65l-.32,2h-3Zm-.08-.5-.26-1.76h4.34l-.27,1.76Zm-.5,0H19.22l-.44-1.76h3.44Zm-7.17.5.5,2H12.58l-.7-2Zm-2.56,2.5H16l.5,2h-3Zm3.71,0h3l.5,2H17Zm7.35,2.5h2.11l-.27,1.71s0,0,0,0H24.08Zm-.08-.5-.3-2h2.88l-.31,2Zm-10.11.5h2.94l.44,1.75H14.25Zm12.53,1.75.27-1.75H28l-.47,1.75Z"/><path class="ai" d="M25.65,158.09a2.26,2.26,0,0,0-2.19,1.76H18.34a2.24,2.24,0,1,0,.06.5h5a2.26,2.26,0,1,0,2.25-2.26Zm-9.51,3.51a1.25,1.25,0,1,1,1.25-1.25A1.25,1.25,0,0,1,16.14,161.6Zm9.51,0a1.25,1.25,0,1,1,1.26-1.25A1.25,1.25,0,0,1,25.65,161.6Z"/><path class="aj" d="M29.16,142.5a2.11,2.11,0,1,1-2.11-2.1A2.1,2.1,0,0,1,29.16,142.5Z"/><path class="ai" d="M28.4,141.72l-.29-.28a.1.1,0,0,0-.14,0l-1.22,1.28-.56-.53a.11.11,0,0,0-.14,0l-.27.29a.1.1,0,0,0,0,.14l.92.86a.07.07,0,0,0,.06,0,.08.08,0,0,0,.09,0l1.55-1.63A.1.1,0,0,0,28.4,141.72Z"/><circle class="b" cx="241.54" cy="38.05" r="21.7"/><path class="u" d="M249.1,42.34a10,10,0,1,1-16.18-10.67l6.65,7.52Z"/><path class="z" d="M252.42,33.38a13,13,0,0,1,.88,7.84l-12.84-2.53Z"/><path class="h" d="M232.86,29.25a11.6,11.6,0,0,1,1.71-1.1,11.16,11.16,0,0,1,15.25,5.08L239.75,38Z"/><circle class="b" cx="96.45" cy="38.05" r="21.7"/><rect class="ak" x="85.04" y="43.41" width="22.81" height="2.92"/><rect class="h" x="85.04" y="29.76" width="22.81" height="13.65"/><path class="al" d="M96.45,40.7a3.61,3.61,0,1,1,3.6-3.6A3.61,3.61,0,0,1,96.45,40.7Zm0-7a3.41,3.41,0,1,0,3.41,3.41A3.42,3.42,0,0,0,96.45,33.69Z"/><polygon class="al" points="95.67 35.83 97.81 37.1 95.67 38.37 95.67 35.83"/><polygon class="am" points="86.18 44.35 86.96 44.89 86.18 45.42 86.18 44.35"/><rect class="b" x="93.51" y="44.79" width="10.72" height="0.2"/><rect class="am" x="87.66" y="44.79" width="5.85" height="0.2"/><path class="an" d="M105,45c.14-.13.23-.22.23-.29s0-.09-.08-.09a.15.15,0,0,0-.1.06l0-.05a.21.21,0,0,1,.16-.08.15.15,0,0,1,.16.15c0,.09-.09.18-.18.28h.2v.07H105Z"/><path class="an" d="M105.39,45a.14.14,0,0,0,.11,0c.06,0,.1,0,.1-.07s0-.09-.15-.09v-.06c.1,0,.13,0,.13-.08a.07.07,0,0,0-.07-.07.14.14,0,0,0-.1,0l0-.06a.2.2,0,0,1,.15-.06c.09,0,.16,0,.16.13s0,.09-.09.11h0a.13.13,0,0,1,.11.12c0,.09-.08.14-.18.14a.22.22,0,0,1-.17-.07Z"/><path class="an" d="M105.83,44.7a.05.05,0,0,1,.06.06.06.06,0,0,1-.06.06.06.06,0,0,1-.06-.06A.06.06,0,0,1,105.83,44.7Zm0,.26a.06.06,0,0,1,.06.06.05.05,0,0,1-.06.06.06.06,0,0,1-.06-.06A.06.06,0,0,1,105.83,45Z"/><path class="an" d="M106.32,45h-.06v.12h-.09V45H106v-.06l.2-.31h.11v.3h.06Zm-.15-.07v-.12a.38.38,0,0,1,0-.1h0a.3.3,0,0,1,0,.08l-.09.14Z"/><path class="an" d="M106.4,45a.17.17,0,0,0,.12,0,.08.08,0,0,0,.09-.09c0-.06,0-.1-.09-.1a.13.13,0,0,0-.08,0l0,0v-.24h.27v.07h-.19v.12h.07a.14.14,0,0,1,.15.15.16.16,0,0,1-.17.17.24.24,0,0,1-.17-.06Z"/><circle class="b" cx="287.06" cy="81.39" r="21.7"/><path class="ao" d="M284.8,93.82l-3.92-4.17H273.2a2,2,0,0,1-2-2V83.25a2,2,0,0,1,2-2h11.67a2,2,0,0,1,2,2v4.42a2,2,0,0,1-2,2h-.07Zm-11.6-12a1.49,1.49,0,0,0-1.49,1.48v4.42a1.49,1.49,0,0,0,1.49,1.49h7.89l3.21,3.41V89.16h.57a1.49,1.49,0,0,0,1.48-1.49V83.25a1.48,1.48,0,0,0-1.48-1.48Z"/><rect class="ao" x="273.69" y="83.26" width="5.21" height="0.5"/><rect class="ao" x="273.69" y="84.5" width="3.72" height="0.49"/><rect class="ao" x="278.03" y="84.5" width="6.08" height="0.49"/><polygon class="ao" points="280.64 86.98 278.03 86.98 273.69 86.98 273.69 87.47 278.03 87.47 280.64 87.47 284.11 87.47 284.11 86.98 280.64 86.98"/><rect class="ao" x="273.69" y="85.74" width="3.72" height="0.5"/><rect class="ao" x="282.5" y="85.74" width="1.61" height="0.5"/><rect class="ao" x="278.16" y="85.74" width="3.72" height="0.5"/><rect class="ao" x="279.65" y="83.26" width="2.73" height="0.5"/><path class="ao" d="M289.68,86.12,293.6,82h7.68a2,2,0,0,0,2-2V75.56a2,2,0,0,0-2-2H289.61a2,2,0,0,0-2,2V80a2,2,0,0,0,2,2h.07Zm11.6-12a1.49,1.49,0,0,1,1.49,1.48V80a1.49,1.49,0,0,1-1.49,1.49h-7.89l-3.22,3.4v-3.4h-.56A1.49,1.49,0,0,1,288.12,80V75.56a1.49,1.49,0,0,1,1.49-1.48Z"/><rect class="ao" x="295.58" y="75.56" width="5.21" height="0.5"/><rect class="ao" x="297.06" y="76.8" width="3.72" height="0.5"/><rect class="ao" x="290.37" y="76.8" width="6.08" height="0.5"/><polygon class="ao" points="293.84 79.28 296.44 79.28 300.78 79.28 300.78 79.78 296.44 79.78 293.84 79.78 290.37 79.78 290.37 79.28 293.84 79.28"/><rect class="ao" x="297.06" y="78.04" width="3.72" height="0.5"/><rect class="ao" x="290.37" y="78.04" width="1.61" height="0.5"/><rect class="ao" x="292.6" y="78.04" width="3.72" height="0.5"/><rect class="ao" x="292.1" y="75.56" width="2.73" height="0.5"/><path class="u" d="M298.6,145.43V141.2c0-.31,0-.35.3-.46l5.43-2.05a.81.81,0,0,1,.61,0l5.44,2.05c.25.1.29.15.29.43v4.09l1.31-.49c.43-.17.86-.34,1.3-.49a.7.7,0,0,1,.43,0l5.56,2.08a.36.36,0,0,1,.26.37v6.53a.35.35,0,0,1-.24.36l-5.61,2.58a.48.48,0,0,1-.42,0c-.91-.43-1.83-.85-2.74-1.26a1,1,0,0,0-.2-.08v.51c0,.24,0,.48,0,.73a.41.41,0,0,1-.28.43l-4,1.85-1.48.68a.56.56,0,0,1-.52,0c-1.44-.68-2.89-1.34-4.34-2l-.24-.1a2,2,0,0,1,0,.27,1.91,1.91,0,0,1-1.51,1.91,1.94,1.94,0,0,1-.54,0h-7.63a2,2,0,0,1-2-1.49,2.32,2.32,0,0,1-.05-.53q0-5,0-10.07a1.92,1.92,0,0,1,2-2h.6c.12,0,.18,0,.18-.17a1,1,0,0,1,1.11-1h4a1,1,0,0,1,1.11,1c0,.12.05.17.16.17a7.3,7.3,0,0,1,.81,0,2.11,2.11,0,0,1,.49.09C298.27,145.27,298.41,145.35,298.6,145.43Zm.26,6.74V147.1a1.31,1.31,0,0,0-1-1.36,5.42,5.42,0,0,0-1.14-.06s-.08.09-.09.14a1,1,0,0,1-1.12,1.05H291.6a1,1,0,0,1-1.14-1.06c0-.1,0-.15-.14-.14a5.58,5.58,0,0,0-.71,0,1.66,1.66,0,0,0-.66.18,1.37,1.37,0,0,0-.71,1.32v10a1.39,1.39,0,0,0,1.45,1.44h7.67a1.38,1.38,0,0,0,1.5-1.5Zm6-2.23.22-.09,4.85-2.23a.22.22,0,0,0,.14-.25v-5.71s0-.11,0-.19l-.26.08-4.74,1.75a.27.27,0,0,0-.2.3v6.34Zm4.86,0-.11,0-4.92,1.82a.23.23,0,0,0-.17.27v6.13c0,.07,0,.13,0,.21l.15,0,4.87-2.24a.26.26,0,0,0,.18-.28c0-1.89,0-3.78,0-5.67Zm4,5.59.26-.11,4.74-2.18A.3.3,0,0,0,319,153c0-1.87,0-3.75,0-5.62v-.24l-.28.09L314,148.92a.28.28,0,0,0-.21.31v6.33Zm-14.61-14.1c0,.08,0,.13,0,.18v4.27a.52.52,0,0,0,0,.18,2.29,2.29,0,0,1,.25,1.36.3.3,0,0,0,.22.33l3.91,1.79.8.37v-1.82c0-1.51,0-3,0-4.53a.26.26,0,0,0-.19-.29c-1.18-.42-2.34-.86-3.51-1.29Zm4.83,17c0-.09,0-.15,0-.21v-6.16a.23.23,0,0,0-.17-.26c-1.07-.38-2.13-.78-3.2-1.17l-1.19-.45a1.7,1.7,0,0,0,0,.21c0,1.92,0,3.84,0,5.76a.24.24,0,0,0,.17.26l3.53,1.62Zm4.83-9.68.06.05,1.12.43c.28.11.32.15.32.45,0,1.43,0,2.86,0,4.29a.35.35,0,0,0,.23.37l2.42,1.1c.07,0,.15.06.24.1a.78.78,0,0,0,0-.13q0-3.13,0-6.27c0-.12-.06-.17-.17-.21-.71-.26-1.43-.51-2.13-.8a.91.91,0,0,0-.85,0C309.67,148.39,309.25,148.56,308.82,148.76Zm-15.28-2.46h2a.45.45,0,0,0,.5-.49V145a.45.45,0,0,0-.49-.47h-4.09a.46.46,0,0,0-.49.49v.81a.47.47,0,0,0,.53.52Zm16-5.24-.09-.05-2-.74a.31.31,0,0,0-.23,0l-4.58,1.78s-.05,0-.1.08l1.9.69a.45.45,0,0,0,.28,0c.88-.31,1.76-.64,2.63-1Zm1.9,6.66v0c.62.23,1.24.47,1.86.69a.58.58,0,0,0,.32,0l3.84-1.42.94-.35-.17-.08-1.8-.68a.51.51,0,0,0-.4,0c-1.17.47-2.35.92-3.53,1.38ZM299.74,141v.05c.6.22,1.21.44,1.8.67a.54.54,0,0,0,.43,0l3.4-1.33,1.23-.48a1.12,1.12,0,0,0-.18-.08l-1.65-.62a.45.45,0,0,0-.28,0l-3.78,1.42Zm10.93,6.39,4.78-1.85-.09-.06-1.8-.68a.29.29,0,0,0-.18,0l-2.55,1a.22.22,0,0,0-.16.24v1.38Zm-8.41,3.17v0l1.82.68a.53.53,0,0,0,.39,0l4-1.47.79-.3-1-.36a.45.45,0,0,0-.42,0l-3,1.4a.44.44,0,0,1-.43,0l-.83-.38c-.06,0-.14-.07-.19-.05Zm.44-.77-.08-.06L301,149a.25.25,0,0,0-.17,0l-1.16.43-.23.12a1,1,0,0,0,.18.09l1.72.64a.39.39,0,0,0,.18,0Zm-3.26-.91.66-.26v-.05l-.65-.29Z"/><path class="u" d="M295.41,148.85h2.13a.61.61,0,0,1,.19,0,.26.26,0,0,1,.22.28.25.25,0,0,1-.22.26h-4.64a.28.28,0,0,1-.27-.28.28.28,0,0,1,.27-.27h2.32Z"/><path class="u" d="M295.38,152.82h-2.15a.61.61,0,0,1-.19,0,.26.26,0,0,1-.22-.27.27.27,0,0,1,.24-.27h4.66a.28.28,0,0,1,0,.54.47.47,0,0,1-.17,0Z"/><path class="u" d="M295.41,155.69h2.22c.26,0,.39.18.3.39a.32.32,0,0,1-.33.16h-4.36a.75.75,0,0,1-.21,0,.24.24,0,0,1-.2-.27.25.25,0,0,1,.24-.26h2.34Z"/><path class="u" d="M290.42,156.54l.65-1c.13-.22.26-.43.4-.64a.31.31,0,0,1,.42-.16.3.3,0,0,1,.06.44l-1.21,1.94a.29.29,0,0,1-.5.06l-.95-.91c-.15-.15-.18-.32-.06-.44s.29-.12.45,0Z"/><path class="u" d="M290.42,149.68l1-1.62c.15-.25.3-.32.47-.21s.16.26,0,.51c-.38.61-.75,1.22-1.14,1.82-.16.27-.32.29-.55.07l-.92-.88c-.15-.15-.18-.32-.06-.45s.27-.11.44,0S290.16,149.42,290.42,149.68Z"/><path class="u" d="M290.42,153.12l1-1.59a.57.57,0,0,1,.08-.13.28.28,0,0,1,.4-.11.28.28,0,0,1,.07.4l-.43.7-.78,1.25c-.16.25-.32.27-.54.07l-.93-.9c-.15-.15-.18-.32-.06-.44s.27-.12.44,0Z"/><circle class="b" cx="241.54" cy="269.13" r="21.7"/><path class="ap" d="M248.05,264H233.54a.8.8,0,0,0-.8.8v.43h16.11v-.43A.8.8,0,0,0,248.05,264Z"/><path class="aq" d="M244.06,271.8h-6.53a3.09,3.09,0,0,1-3.09-3.09v-8.78a3.1,3.1,0,0,1,3.09-3.1h6.53a3.1,3.1,0,0,1,3.09,3.1v8.78A3.09,3.09,0,0,1,244.06,271.8Zm-6.53-13.17a1.3,1.3,0,0,0-1.29,1.3v8.78a1.3,1.3,0,0,0,1.29,1.3h6.53a1.3,1.3,0,0,0,1.29-1.3v-8.78a1.3,1.3,0,0,0-1.29-1.3Z"/><path class="aq" d="M232.74,277.19a.8.8,0,0,0,.8.8h14.51a.8.8,0,0,0,.8-.8V265.25H232.74Z"/><path class="ap" d="M242.47,269.51a1.68,1.68,0,1,0-3.35,0,1.71,1.71,0,0,0,.56,1.26l-.38,3.41h3l-.38-3.41A1.67,1.67,0,0,0,242.47,269.51Z"/><text class="ar" transform="translate(142.47 175.97)">ERP</text></svg>