<svg xmlns="http://www.w3.org/2000/svg" viewBox="0 0 326.42 306.14"><defs><style>.a{fill:#666;}.b{fill:#fff;}.c{fill:#213652;}.d{fill:#406380;}.e{fill:#d9804f;}.f{fill:#42d48c;}.g{fill:#3682b3;}.h{fill:#c6d1d5;}.i{fill:#aea580;}.j{fill:#80754e;}.k{fill:#978f80;}.l{fill:#d55e5c;}.m{fill:#333a4a;}.n{fill:#973634;}.o{fill:#e59300;}.p{fill:#ffa736;}.q{fill:#ffc680;}.r{fill:#343642;}.s{fill:#3e8088;}.t{fill:#a6b2b6;}.u{fill:#d99f8d;}.v{fill:#d7c0bb;}.w{fill:#0f303f;}.x{fill:#97b7ca;}.y{opacity:0.8;}.z{fill:#69463d;}.aa{fill:#e1b281;}.ab{fill:#da9a6f;}.ac{fill:#262036;}.ad{fill:#2b243d;}.ae{fill:#4b3f6b;}.af{fill:#dc8d11;}.ag{fill:#1a4169;}.ah{fill:#a9273d;}.ai{fill:#173a5e;}.aj{fill:#c42d46;}.ak{fill:#c3c3c3;}.al{fill:#143352;}.am{fill:#e1b98f;}.an{fill:#271e00;}.ao{fill:#d09e80;}.ap{fill:#54354a;}.aq{fill:#ca8110;}.ar{fill:#a6c1d5;}.as{fill:#409aff;}.at{fill:#8db1ca;}.au{fill:#0c131c;}.av{fill:#231f30;}.aw{fill:#426683;}.ax{fill:#385780;}.ay{fill:#2a4161;}.az{fill:#a7b0b3;}.ba{fill:#494065;}.bb{fill:#c04f34;}.bc{fill:#132640;}.bd{fill:#dce4ff;}.be{fill:#91a2b9;}</style></defs><circle class="a" cx="168.87" cy="153.32" r="135.46" transform="translate(-9.51 295.45) rotate(-80.78)"/><circle class="b" cx="193.26" cy="279.05" r="27.09"/><polygon class="c" points="181.73 292.65 187.09 281.72 192.45 292.65 181.73 292.65"/><rect class="c" x="179.51" y="292.16" width="15.17" height="3.62"/><path class="d" d="M189.56,281.77a2.47,2.47,0,1,1-2.47-2.47A2.46,2.46,0,0,1,189.56,281.77Z"/><path class="c" d="M197.4,281.47l-7.81-12.9,13.51.49Zm-5.54-11.57,5.39,8.91,3.93-8.57Z"/><path class="e" d="M204.76,268.19a2.75,2.75,0,1,1-3.77-.93A2.74,2.74,0,0,1,204.76,268.19Z"/><path class="d" d="M204.39,265.7l0,.55a2.7,2.7,0,0,1,.41.06,2.38,2.38,0,0,1,1.75,2.88,2,2,0,0,1-.07.23l.52.19.09-.29a2.94,2.94,0,0,0-2.16-3.54A2.74,2.74,0,0,0,204.39,265.7Z"/><path class="d" d="M204.73,262.31l-.11.82.63.12a5.77,5.77,0,0,1,4.24,7c0,.13-.06.25-.1.38l.79.24c0-.13.08-.28.11-.42a6.59,6.59,0,0,0-4.84-8C205.21,262.39,205,262.35,204.73,262.31Z"/><path class="d" d="M204.76,264.26l-.07.55a3.1,3.1,0,0,1,.42.08,3.84,3.84,0,0,1,2.82,4.64,2.33,2.33,0,0,1-.07.25l.53.16c0-.09.05-.18.08-.28a4.41,4.41,0,0,0-3.23-5.31C205.08,264.32,204.92,264.28,204.76,264.26Z"/><path class="e" d="M189.69,264a11.36,11.36,0,0,0,11.77,19.44Z"/><circle class="b" cx="177" cy="27.09" r="27.09"/><rect class="c" x="175.43" y="34.78" width="2.48" height="7.44"/><rect class="c" x="171.44" y="41.95" width="10.47" height="1.65"/><path class="f" d="M181.35,9.17H172a1.11,1.11,0,0,0-1.11,1.1V20.46h11.57V10.27A1.1,1.1,0,0,0,181.35,9.17Z"/><path class="g" d="M171.71,9.66a.36.36,0,0,0,.36-.35.32.32,0,0,0,0-.14h0a1.08,1.08,0,0,0-.62.19A.34.34,0,0,0,171.71,9.66Z"/><path class="g" d="M172.81,9.66a.36.36,0,0,0,.36-.35.32.32,0,0,0,0-.14h-.65a.32.32,0,0,0,0,.14A.35.35,0,0,0,172.81,9.66Z"/><path class="g" d="M173.91,9.66a.36.36,0,0,0,.36-.35.32.32,0,0,0,0-.14h-.65a.32.32,0,0,0,0,.14A.35.35,0,0,0,173.91,9.66Z"/><path class="g" d="M175,9.66a.35.35,0,0,0,.35-.35.32.32,0,0,0,0-.14h-.65a.32.32,0,0,0,0,.14A.36.36,0,0,0,175,9.66Z"/><path class="g" d="M176.12,9.66a.35.35,0,0,0,.35-.35.32.32,0,0,0,0-.14h-.65a.32.32,0,0,0,0,.14A.36.36,0,0,0,176.12,9.66Z"/><path class="g" d="M177.22,9.66a.35.35,0,0,0,.35-.35.59.59,0,0,0,0-.14h-.66a.58.58,0,0,0,0,.14A.36.36,0,0,0,177.22,9.66Z"/><path class="g" d="M178.32,9.66a.35.35,0,0,0,.35-.35.32.32,0,0,0,0-.14H178a.59.59,0,0,0,0,.14A.35.35,0,0,0,178.32,9.66Z"/><path class="g" d="M179.42,9.66a.36.36,0,0,0,.36-.35.32.32,0,0,0,0-.14h-.65a.32.32,0,0,0,0,.14A.35.35,0,0,0,179.42,9.66Z"/><path class="g" d="M180.52,9.66a.36.36,0,0,0,.36-.35.32.32,0,0,0,0-.14h-.65a.32.32,0,0,0,0,.14A.35.35,0,0,0,180.52,9.66Z"/><path class="g" d="M181.63,9.66a.35.35,0,0,0,.34-.3,1.11,1.11,0,0,0-.62-.19h0a.32.32,0,0,0,0,.14A.36.36,0,0,0,181.63,9.66Z"/><path class="g" d="M171.16,10.76a.35.35,0,1,0-.26-.58.29.29,0,0,0,0,.09v.35A.35.35,0,0,0,171.16,10.76Z"/><path class="g" d="M172.26,10.76a.35.35,0,1,0-.35-.35A.35.35,0,0,0,172.26,10.76Z"/><path class="g" d="M173.36,10.76a.35.35,0,1,0-.35-.35A.35.35,0,0,0,173.36,10.76Z"/><path class="g" d="M174.47,10.76a.35.35,0,1,0-.36-.35A.35.35,0,0,0,174.47,10.76Z"/><path class="g" d="M175.57,10.76a.35.35,0,1,0-.36-.35A.35.35,0,0,0,175.57,10.76Z"/><path class="g" d="M176.67,10.76a.35.35,0,1,0-.36-.35A.35.35,0,0,0,176.67,10.76Z"/><path class="g" d="M177.77,10.76a.35.35,0,1,0-.35-.35A.34.34,0,0,0,177.77,10.76Z"/><path class="g" d="M178.87,10.76a.35.35,0,1,0-.35-.35A.35.35,0,0,0,178.87,10.76Z"/><path class="g" d="M180,10.76a.35.35,0,1,0-.35-.35A.35.35,0,0,0,180,10.76Z"/><path class="g" d="M181.08,10.76a.35.35,0,1,0-.36-.35A.35.35,0,0,0,181.08,10.76Z"/><path class="g" d="M182.18,10.06a.35.35,0,1,0,0,.7.32.32,0,0,0,.27-.14v-.35s0-.06,0-.09A.36.36,0,0,0,182.18,10.06Z"/><path class="g" d="M170.88,11.3v.43a.35.35,0,0,0,.08-.22A.32.32,0,0,0,170.88,11.3Z"/><path class="g" d="M172.07,11.51a.36.36,0,1,0-.36.36A.36.36,0,0,0,172.07,11.51Z"/><path class="g" d="M172.46,11.51a.36.36,0,1,0,.35-.35A.36.36,0,0,0,172.46,11.51Z"/><path class="g" d="M173.56,11.51a.36.36,0,1,0,.35-.35A.36.36,0,0,0,173.56,11.51Z"/><path class="g" d="M174.66,11.51a.36.36,0,1,0,.71,0,.36.36,0,0,0-.71,0Z"/><path class="g" d="M175.76,11.51a.36.36,0,1,0,.71,0,.36.36,0,0,0-.71,0Z"/><path class="g" d="M176.86,11.51a.36.36,0,0,0,.36.36.36.36,0,0,0,0-.71A.36.36,0,0,0,176.86,11.51Z"/><path class="g" d="M178,11.51a.35.35,0,1,0,.35-.35A.35.35,0,0,0,178,11.51Z"/><path class="g" d="M179.07,11.51a.36.36,0,1,0,.35-.35A.36.36,0,0,0,179.07,11.51Z"/><path class="g" d="M180.17,11.51a.36.36,0,1,0,.35-.35A.36.36,0,0,0,180.17,11.51Z"/><path class="g" d="M181.27,11.51a.36.36,0,1,0,.71,0,.36.36,0,0,0-.71,0Z"/><path class="g" d="M182.45,11.73V11.3a.39.39,0,0,0-.08.21A.42.42,0,0,0,182.45,11.73Z"/><path class="g" d="M171.16,13a.36.36,0,0,0,0-.71.38.38,0,0,0-.28.14v.43A.38.38,0,0,0,171.16,13Z"/><path class="g" d="M172.26,12.26a.36.36,0,0,0,0,.71.36.36,0,1,0,0-.71Z"/><path class="g" d="M173.36,12.26a.36.36,0,0,0,0,.71.36.36,0,1,0,0-.71Z"/><path class="g" d="M174.47,12.26a.36.36,0,1,0,.35.35A.36.36,0,0,0,174.47,12.26Z"/><path class="g" d="M175.57,12.26a.36.36,0,1,0,.35.35A.36.36,0,0,0,175.57,12.26Z"/><path class="g" d="M176.67,12.26a.36.36,0,1,0,.35.35A.36.36,0,0,0,176.67,12.26Z"/><path class="g" d="M177.77,12.26a.36.36,0,1,0,.35.35A.35.35,0,0,0,177.77,12.26Z"/><path class="g" d="M178.87,12.26a.36.36,0,0,0,0,.71.36.36,0,1,0,0-.71Z"/><path class="g" d="M180,12.26a.36.36,0,0,0,0,.71.36.36,0,1,0,0-.71Z"/><path class="g" d="M181.43,12.61a.36.36,0,0,0-.71,0,.36.36,0,1,0,.71,0Z"/><path class="g" d="M182.18,12.26a.36.36,0,1,0,0,.71.35.35,0,0,0,.27-.14V12.4A.35.35,0,0,0,182.18,12.26Z"/><path class="g" d="M170.88,13.5v.43a.33.33,0,0,0,.08-.22A.32.32,0,0,0,170.88,13.5Z"/><path class="g" d="M172.07,13.71a.36.36,0,1,0-.36.36A.36.36,0,0,0,172.07,13.71Z"/><path class="g" d="M172.46,13.71a.36.36,0,1,0,.35-.35A.36.36,0,0,0,172.46,13.71Z"/><path class="g" d="M173.56,13.71a.36.36,0,1,0,.35-.35A.36.36,0,0,0,173.56,13.71Z"/><path class="g" d="M174.66,13.71a.36.36,0,1,0,.71,0,.36.36,0,0,0-.71,0Z"/><path class="g" d="M175.76,13.71a.36.36,0,1,0,.71,0,.36.36,0,0,0-.71,0Z"/><path class="g" d="M176.86,13.71a.36.36,0,0,0,.36.36.36.36,0,0,0,0-.71A.36.36,0,0,0,176.86,13.71Z"/><path class="g" d="M178,13.71a.35.35,0,1,0,.35-.35A.35.35,0,0,0,178,13.71Z"/><path class="g" d="M179.07,13.71a.36.36,0,1,0,.35-.35A.36.36,0,0,0,179.07,13.71Z"/><path class="g" d="M180.17,13.71a.36.36,0,1,0,.35-.35A.36.36,0,0,0,180.17,13.71Z"/><path class="g" d="M181.27,13.71a.36.36,0,1,0,.71,0,.36.36,0,0,0-.71,0Z"/><path class="g" d="M182.45,13.93V13.5a.33.33,0,0,0,0,.43Z"/><path class="g" d="M171.16,15.17a.36.36,0,0,0,0-.71.38.38,0,0,0-.28.14V15A.38.38,0,0,0,171.16,15.17Z"/><path class="g" d="M171.91,14.82a.36.36,0,0,0,.71,0,.36.36,0,1,0-.71,0Z"/><path class="g" d="M173.36,14.46a.36.36,0,1,0,.36.36A.36.36,0,0,0,173.36,14.46Z"/><path class="g" d="M174.47,14.46a.36.36,0,1,0,0,.71.36.36,0,0,0,0-.71Z"/><path class="g" d="M175.57,14.46a.36.36,0,1,0,0,.71.36.36,0,0,0,0-.71Z"/><path class="g" d="M176.67,14.46a.36.36,0,1,0,0,.71.36.36,0,0,0,0-.71Z"/><path class="g" d="M177.77,14.46a.36.36,0,1,0,.35.36A.35.35,0,0,0,177.77,14.46Z"/><path class="g" d="M178.87,14.46a.36.36,0,1,0,.36.36A.36.36,0,0,0,178.87,14.46Z"/><path class="g" d="M180,14.46a.36.36,0,1,0,.36.36A.36.36,0,0,0,180,14.46Z"/><path class="g" d="M180.72,14.82a.36.36,0,1,0,.36-.36A.36.36,0,0,0,180.72,14.82Z"/><path class="g" d="M182.18,14.46a.36.36,0,1,0,0,.71.35.35,0,0,0,.27-.14V14.6A.35.35,0,0,0,182.18,14.46Z"/><path class="g" d="M170.88,15.7v.43a.32.32,0,0,0,.08-.21A.35.35,0,0,0,170.88,15.7Z"/><path class="g" d="M172.07,15.92a.36.36,0,1,0-.71,0,.36.36,0,0,0,.71,0Z"/><path class="g" d="M173.17,15.92a.36.36,0,1,0-.71,0,.36.36,0,0,0,.71,0Z"/><path class="g" d="M174.27,15.92a.36.36,0,1,0-.71,0,.36.36,0,0,0,.71,0Z"/><path class="g" d="M175.37,15.92a.36.36,0,1,0-.35.35A.36.36,0,0,0,175.37,15.92Z"/><path class="g" d="M176.47,15.92a.36.36,0,1,0-.35.35A.36.36,0,0,0,176.47,15.92Z"/><path class="g" d="M177.57,15.92a.35.35,0,0,0-.35-.36.36.36,0,1,0,0,.71A.35.35,0,0,0,177.57,15.92Z"/><path class="g" d="M178.67,15.92a.35.35,0,1,0-.35.35A.35.35,0,0,0,178.67,15.92Z"/><path class="g" d="M179.78,15.92a.36.36,0,1,0-.71,0,.36.36,0,0,0,.71,0Z"/><path class="g" d="M180.88,15.92a.36.36,0,1,0-.71,0,.36.36,0,0,0,.71,0Z"/><path class="g" d="M181.27,15.92a.36.36,0,1,0,.36-.36A.36.36,0,0,0,181.27,15.92Z"/><path class="g" d="M182.45,16.13V15.7a.42.42,0,0,0-.08.22A.39.39,0,0,0,182.45,16.13Z"/><path class="g" d="M171.16,17.38a.36.36,0,1,0-.28-.57v.42A.36.36,0,0,0,171.16,17.38Z"/><path class="g" d="M171.91,17a.36.36,0,1,0,.35-.35A.36.36,0,0,0,171.91,17Z"/><path class="g" d="M173.36,17.38a.36.36,0,1,0,0-.71.36.36,0,0,0,0,.71Z"/><path class="g" d="M174.47,17.38a.36.36,0,1,0-.36-.36A.36.36,0,0,0,174.47,17.38Z"/><path class="g" d="M175.57,17.38a.36.36,0,1,0-.36-.36A.36.36,0,0,0,175.57,17.38Z"/><path class="g" d="M176.67,17.38a.36.36,0,1,0-.36-.36A.36.36,0,0,0,176.67,17.38Z"/><path class="g" d="M177.77,17.38a.36.36,0,1,0-.35-.36A.35.35,0,0,0,177.77,17.38Z"/><path class="g" d="M178.87,17.38a.36.36,0,1,0,0-.71.36.36,0,0,0,0,.71Z"/><path class="g" d="M180,17.38a.36.36,0,1,0,0-.71.36.36,0,0,0,0,.71Z"/><path class="g" d="M181.08,17.38a.36.36,0,1,0-.36-.36A.36.36,0,0,0,181.08,17.38Z"/><path class="g" d="M182.18,16.67a.36.36,0,1,0,0,.71.33.33,0,0,0,.27-.15v-.42A.32.32,0,0,0,182.18,16.67Z"/><path class="g" d="M170.88,17.91v.43a.35.35,0,0,0,.08-.22A.32.32,0,0,0,170.88,17.91Z"/><path class="g" d="M172.07,18.12a.36.36,0,1,0-.36.36A.36.36,0,0,0,172.07,18.12Z"/><path class="g" d="M173.17,18.12a.36.36,0,1,0-.36.36A.36.36,0,0,0,173.17,18.12Z"/><path class="g" d="M174.27,18.12a.36.36,0,1,0-.36.36A.36.36,0,0,0,174.27,18.12Z"/><path class="g" d="M175.37,18.12a.36.36,0,0,0-.71,0,.36.36,0,1,0,.71,0Z"/><path class="g" d="M176.47,18.12a.36.36,0,0,0-.71,0,.36.36,0,1,0,.71,0Z"/><path class="g" d="M177.57,18.12a.35.35,0,0,0-.35-.35.36.36,0,1,0,0,.71A.35.35,0,0,0,177.57,18.12Z"/><path class="g" d="M178.67,18.12a.35.35,0,1,0-.35.36A.35.35,0,0,0,178.67,18.12Z"/><path class="g" d="M179.78,18.12a.36.36,0,1,0-.36.36A.36.36,0,0,0,179.78,18.12Z"/><path class="g" d="M180.88,18.12a.36.36,0,1,0-.36.36A.36.36,0,0,0,180.88,18.12Z"/><path class="g" d="M182,18.12a.36.36,0,0,0-.71,0,.36.36,0,1,0,.71,0Z"/><path class="g" d="M182.45,18.34v-.43a.39.39,0,0,0-.08.21A.42.42,0,0,0,182.45,18.34Z"/><path class="g" d="M171.16,19.58a.36.36,0,0,0,0-.71.38.38,0,0,0-.28.14v.43A.38.38,0,0,0,171.16,19.58Z"/><path class="g" d="M172.26,18.87a.36.36,0,0,0,0,.71.36.36,0,1,0,0-.71Z"/><path class="g" d="M173.36,18.87a.36.36,0,0,0,0,.71.36.36,0,1,0,0-.71Z"/><path class="g" d="M174.47,18.87a.36.36,0,1,0,.35.35A.36.36,0,0,0,174.47,18.87Z"/><path class="g" d="M175.57,18.87a.36.36,0,1,0,.35.35A.36.36,0,0,0,175.57,18.87Z"/><path class="g" d="M176.67,18.87a.36.36,0,1,0,.35.35A.36.36,0,0,0,176.67,18.87Z"/><path class="g" d="M177.77,18.87a.36.36,0,1,0,.35.35A.35.35,0,0,0,177.77,18.87Z"/><path class="g" d="M178.87,18.87a.36.36,0,0,0,0,.71.36.36,0,1,0,0-.71Z"/><path class="g" d="M180,18.87a.36.36,0,0,0,0,.71.36.36,0,1,0,0-.71Z"/><path class="g" d="M181.08,18.87a.36.36,0,1,0,.35.35A.36.36,0,0,0,181.08,18.87Z"/><path class="g" d="M182.18,18.87a.36.36,0,1,0,0,.71.35.35,0,0,0,.27-.14V19A.35.35,0,0,0,182.18,18.87Z"/><path class="g" d="M170.88,20.11v.35h.06a.3.3,0,0,0,0-.13A.33.33,0,0,0,170.88,20.11Z"/><path class="g" d="M171.71,20a.36.36,0,0,0-.35.36.59.59,0,0,0,0,.13H172a.31.31,0,0,0,0-.13A.36.36,0,0,0,171.71,20Z"/><path class="g" d="M172.81,20a.36.36,0,0,0-.35.36.31.31,0,0,0,0,.13h.65a.31.31,0,0,0,0-.13A.36.36,0,0,0,172.81,20Z"/><path class="g" d="M173.91,20a.36.36,0,0,0-.35.36.31.31,0,0,0,0,.13h.65a.31.31,0,0,0,0-.13A.36.36,0,0,0,173.91,20Z"/><path class="g" d="M175,20a.36.36,0,0,0-.36.36.31.31,0,0,0,0,.13h.65a.31.31,0,0,0,0-.13A.36.36,0,0,0,175,20Z"/><path class="g" d="M176.12,20a.36.36,0,0,0-.36.36.31.31,0,0,0,0,.13h.65a.31.31,0,0,0,0-.13A.36.36,0,0,0,176.12,20Z"/><path class="g" d="M177.22,20a.36.36,0,0,0-.36.36.61.61,0,0,0,0,.13h.66a.59.59,0,0,0,0-.13A.35.35,0,0,0,177.22,20Z"/><path class="g" d="M178.32,20a.35.35,0,0,0-.35.36.59.59,0,0,0,0,.13h.66a.3.3,0,0,0,0-.13A.35.35,0,0,0,178.32,20Z"/><path class="g" d="M179.42,20a.36.36,0,0,0-.35.36.31.31,0,0,0,0,.13h.65a.31.31,0,0,0,0-.13A.36.36,0,0,0,179.42,20Z"/><path class="g" d="M180.52,20a.36.36,0,0,0-.35.36.31.31,0,0,0,0,.13h.65a.31.31,0,0,0,0-.13A.36.36,0,0,0,180.52,20Z"/><path class="g" d="M181.63,20a.36.36,0,0,0-.36.36.31.31,0,0,0,0,.13H182a.31.31,0,0,0,0-.13A.36.36,0,0,0,181.63,20Z"/><path class="g" d="M182.37,20.33a.31.31,0,0,0,0,.13h0v-.35A.39.39,0,0,0,182.37,20.33Z"/><path class="e" d="M170.88,30.65a1.11,1.11,0,0,0,1.11,1.1h9.36a1.1,1.1,0,0,0,1.1-1.1V20.46H170.88Z"/><polygon class="h" points="182.45 21.68 181.14 23.56 179.6 21.36 178.06 23.56 176.53 21.36 174.99 23.56 173.45 21.36 171.91 23.56 170.88 22.09 170.88 23.05 171.91 24.52 173.45 22.32 174.99 24.52 176.53 22.32 178.06 24.52 179.6 22.32 181.14 24.52 182.45 22.64 182.45 21.68"/><polygon class="h" points="182.45 23.4 181.14 25.28 179.6 23.08 178.06 25.28 176.53 23.08 174.99 25.28 173.45 23.08 171.91 25.28 170.88 23.81 170.88 24.77 171.91 26.25 173.45 24.04 174.99 26.25 176.53 24.04 178.06 26.25 179.6 24.04 181.14 26.25 182.45 24.37 182.45 23.4"/><path class="d" d="M184.93,18h-.55a1.11,1.11,0,0,0-1.1,1.11v1.65a1.1,1.1,0,0,0,.69,1v9.72a2.63,2.63,0,0,1-2.62,2.62H172a2.63,2.63,0,0,1-2.62-2.62V21.76a1.12,1.12,0,0,0,.69-1V19.09A1.11,1.11,0,0,0,169,18h-.55a1.11,1.11,0,0,0-1.1,1.11v1.65a1.11,1.11,0,0,0,.68,1v9.72a4,4,0,0,0,4,4h9.36a4,4,0,0,0,4-4V21.76a1.1,1.1,0,0,0,.69-1V19.09A1.11,1.11,0,0,0,184.93,18Z"/><path class="i" d="M195.09,226.18l9.6-4.38-9.76-4.45C193.59,220.57,193.68,222.68,195.09,226.18Z"/><path class="j" d="M194.35,224a17.93,17.93,0,0,0,.74,2.16l9.6-4.38-10.23,1.51Z"/><polygon class="k" points="194.46 220.29 204.69 221.8 193.38 224.38 194.46 220.29"/><path class="l" d="M167.53,217.27v9.09h-7.06c-4,0-4-9.09,0-9.09Z"/><polygon class="m" points="202.8 222.67 204.69 221.8 202.8 220.94 202.8 222.67"/><path class="n" d="M166.94,223.31H157.6c.35,1.68,1.31,3.05,2.87,3.05h6.47Z"/><path class="e" d="M157.6,220.29a7.68,7.68,0,0,0,0,3h9.34v-3Z"/><path class="o" d="M194.46,223.31a1.43,1.43,0,0,1,1.42,1.43v.18a1.43,1.43,0,0,1-1.42,1.42H163.39a1.43,1.43,0,0,1-1.42-1.42v-.18a1.43,1.43,0,0,1,1.42-1.43Z"/><path class="p" d="M194.46,220.29a1.43,1.43,0,0,1,1.42,1.42v.18a1.42,1.42,0,0,1-1.42,1.42H163.39a1.42,1.42,0,0,1-1.42-1.42v-.18a1.43,1.43,0,0,1,1.42-1.42Z"/><rect class="q" x="161.97" y="217.27" width="33.9" height="3.02" rx="1.42"/><path class="r" d="M257,191.93V81.13A5.9,5.9,0,0,0,251.12,75h-161a5.9,5.9,0,0,0-5.86,6.11v110.8Z"/><rect class="b" x="92.62" y="81.74" width="156.13" height="102.68"/><polygon class="s" points="61.8 199.81 67.37 203.56 273.88 203.56 279.45 199.81 61.8 199.81"/><path class="h" d="M59.5,192v3a6,6,0,0,0,5.86,6.11H275.89a6,6,0,0,0,5.87-6.11v-3Z"/><path class="t" d="M195.75,196.51a1.19,1.19,0,0,1-1.12,1.25H147.1a1.19,1.19,0,0,1-1.11-1.25h0a1.19,1.19,0,0,1,1.11-1.24h47.53a1.19,1.19,0,0,1,1.12,1.24Z"/><path class="u" d="M100.05,173l-.68-.43c-2.08-1.3-4.53-1.15-5.46.35L84,188.23c-.1-1.15-.37-9.16-.37-11.68V156.39c-4.2,3.93-14.18,13.81-15.88,19.2-1.06,3.39,5,22.17-3.92,31.42,17.46,10.69,18.71,11,18.71,11s6.82-10.89,8.36-22l11.23-17.92C103,176.59,102.14,174.32,100.05,173Z"/><path class="v" d="M96.49,172.84h1.16a3.2,3.2,0,0,1,3.2,3.2v2a3.19,3.19,0,0,1-3.19,3.19H96.49a3.2,3.2,0,0,1-3.2-3.2v-2a3.2,3.2,0,0,1,3.2-3.2Z" transform="translate(-104.82 180.18) rotate(-62.15)"/><path class="f" d="M68.61,244.4a160.35,160.35,0,0,1,10.1-17.2L63.65,216.92l-6.84-4.67c-1.91,2.81-3.71,5.65-5.43,8.53A136.37,136.37,0,0,0,68.61,244.4Z"/><path class="b" d="M84.47,219.42s-1.48,1.91-3,3.83l-2,2.72c-.53.72-.88,1.27-.86,1.23l-21.9-14.95c0,.05.39-.6,1-1.49l2.37-3.3,3.63-4.7Z"/><path class="w" d="M77.21,216.61a2.38,2.38,0,1,1-2.84,3.81,2.38,2.38,0,1,1,2.84-3.81Z"/><path class="f" d="M270.52,219.3a106.12,106.12,0,0,0-3.14-25.64l-17.66,4.56-8,2.06c3.12,12.12,2.76,25.76.77,39.84-.67,4.83-2.78,19.53-4.36,29.64A136.16,136.16,0,0,0,268.56,245l.18-1.26A166.62,166.62,0,0,0,270.52,219.3Z"/><path class="b" d="M263.39,181.63l2.22,6c.13.38.28.75.4,1.12s.21.74.31,1.1l.54,2c.31,1.14.52,1.89.52,1.89l-25.68,6.62-.37-1.32c-.11-.41-.23-.88-.37-1.38q-.11-.37-.21-.78c-.09-.25-.19-.51-.29-.76-.75-2.07-1.51-4.13-1.51-4.13Z"/><path class="w" d="M257.45,187a2.6,2.6,0,0,1,3.28,1.72,2.5,2.5,0,0,1-1.52,3.35,2.66,2.66,0,0,1-3.18-1.74A2.6,2.6,0,0,1,257.45,187Z"/><rect class="f" x="124.08" y="95.73" width="91.23" height="49.76"/><rect class="x" x="136.8" y="152.55" width="26.61" height="2.24"/><rect class="x" x="186.38" y="152.55" width="12.61" height="2.24"/><rect class="x" x="136.8" y="158.15" width="26.61" height="2.24"/><rect class="x" x="186.38" y="158.15" width="12.61" height="2.24"/><rect class="x" x="151.37" y="163.75" width="12.05" height="2.24"/><rect class="x" x="186.38" y="163.75" width="12.61" height="2.24"/><rect class="x" x="151.37" y="169.35" width="12.05" height="2.24"/><rect class="x" x="171.54" y="169.35" width="27.45" height="2.24"/><rect class="x" x="151.37" y="174.96" width="12.05" height="2.24"/><rect class="x" x="171.54" y="174.96" width="27.45" height="2.24"/><rect class="x" x="136.8" y="163.75" width="11.49" height="13.45"/><rect class="x" x="171.54" y="152.55" width="11.49" height="13.45"/><path class="u" d="M236.67,186.71c1,1.68,1.39,3.63,2.65,5.21l24-8.15-3.24-7.08c-.52-2.58-2.11-5-2.11-7.58,0-1.91,1.3-3.85,1.3-8a16.7,16.7,0,0,0-1.14-6l-9.52-15.16c-.8-1.27-2.88-1.41-4.66-.3l-.58.36c-1.77,1.11-2.57,3-1.77,4.32l6.47,10.3-.37-.08-9.49-15.09c-.79-1.28-2.87-1.41-4.65-.31l-.58.37c-1.78,1.1-2.57,3-1.78,4.31l5.33,8.48-.24,0-6.49-10.33c-.79-1.27-2.88-1.41-4.65-.3l-.59.36c-1.77,1.11-2.56,3-1.77,4.31l5.89,9.37-.23.13L216,135.73c-.79-1.28-2.88-1.42-4.65-.31l-.58.37c-1.78,1.1-2.57,3-1.78,4.31l14.67,23.52s1.65,4.06-3.31.35v0l-7.93-5.92c-1.26-.81-3.2,0-4.33,1.72l-.37.57c-1.13,1.77-1,3.85.25,4.66l10.28,7.68c7.2,5.14,3.76,3.62,7.46,5.8C230.07,180.15,234.31,182.38,236.67,186.71Z"/><path class="v" d="M208.09,164.3a3.69,3.69,0,0,1-.11-1c0-1.82,1.12-3.75,2.82-3.75a3.29,3.29,0,0,1,2.93,3,4,4,0,0,1-3.09,3.5A3.62,3.62,0,0,1,208.09,164.3Z"/><path class="v" d="M212.25,136.14a2.71,2.71,0,0,1,3.72,1l.5.85a2.73,2.73,0,0,1-1,3.73l-1.5.87a2.72,2.72,0,0,1-3.72-1l-.5-.86a2.73,2.73,0,0,1,1-3.72Z"/><g class="y"><path class="b" d="M169.37,134.17l-1.16-1,.38-.47.78.65.69-.57.38.46Zm2.46-2-.38-.47,1.85-1.53.38.47Zm-5-.08L165,130.53l.38-.47,1.85,1.54Zm8.25-2.6-.38-.46,1.85-1.53.39.46Zm-11.49-.08-1.85-1.53.38-.46,1.85,1.53Zm14.74-2.6-.39-.46,1.86-1.53.38.46Zm-18-.08-1.85-1.53.38-.46,1.85,1.53Zm21.22-2.59-.39-.46,1.86-1.53.38.46ZM157.1,124l-1.85-1.53.38-.46,1.85,1.53Zm27.7-2.59-.38-.46,1.85-1.53.38.46Zm-30.94-.08L152,119.81l.38-.46,1.85,1.53ZM188,118.76l-.38-.47,1.85-1.52.38.46Zm-37.42-.09-1.85-1.53.38-.47L151,118.2Zm40.66-2.59-.38-.46,1.85-1.53.39.46Zm-43.9-.09-1.85-1.53.38-.47,1.85,1.54Zm47.15-2.58-.39-.47,1.86-1.53.38.47Zm-50.39-.1-1.85-1.53.08-.1h-.09v-.6h2.4v.6h-1.56l1.41,1.17Zm51-1.63h-2.4v-.6h2.4Zm-4.2,0h-2.4v-.6h2.4Zm-4.2,0h-2.41v-.6h2.41Zm-4.21,0h-2.4v-.6h2.4Zm-4.2,0h-2.4v-.6h2.4Zm-4.2,0H171.7v-.6h2.41Zm-4.21,0h-2.4v-.6h2.4Zm-4.2,0h-2.4v-.6h2.4Zm-4.2,0h-2.41v-.6h2.41Zm-4.21,0h-2.4v-.6h2.4Zm-4.2,0h-2.4v-.6h2.4Zm-4.21,0h-2.4v-.6h2.4Z"/></g><path class="b" d="M152.86,111.61a10.51,10.51,0,1,1-10.5-10.51A10.5,10.5,0,0,1,152.86,111.61Z"/><path class="z" d="M144.4,113.38l.68-1a1.32,1.32,0,0,0,.16-.64,1.22,1.22,0,0,0-.45-1c-.32-.26-.63-.74-.72-2.06,0-.3,0-.47-1.27-.47a4.26,4.26,0,0,0-.61,0c-.41,0-.8.08-1.2.08a4.94,4.94,0,0,1-.52,0c-.65,0-.44,1.2-1.18,2.78a1,1,0,0,0-.09.44c0,.82.41.68.54,1Z"/><path class="aa" d="M144.63,108.39a3.27,3.27,0,0,1-2.35,3,3.22,3.22,0,0,1-2.35-3c0-1.65,1-3,2.35-3S144.63,106.74,144.63,108.39Z"/><path class="aa" d="M143.11,112.08a4,4,0,0,1,.13-2.09h-2a5,5,0,0,1,.13,2.09h-.6l.5,2a3.68,3.68,0,0,0,.89.11,3.49,3.49,0,0,0,1-.15l.49-2Z"/><path class="ab" d="M142.28,111.38a1.59,1.59,0,0,1-.81-.31c0,.06,0,.12,0,.18a1.53,1.53,0,0,0,.8.31,1.46,1.46,0,0,0,.75-.29c0-.06,0-.12,0-.18A1.52,1.52,0,0,1,142.28,111.38Z"/><path class="z" d="M144.4,106.81a4.82,4.82,0,0,1,.25,1.31l0,.17s-.81-.31-1.1-.39c-.43-.25-.78-.64-1-.64a.73.73,0,0,0-.49.23,3.76,3.76,0,0,1-1.83.94h-.07c-.27,0-.2-.34-.26-.59a2.24,2.24,0,0,1,0-.41,2.19,2.19,0,0,1,2.35-2.45,2.29,2.29,0,0,1,1.88,1l.06.09A2.61,2.61,0,0,1,144.4,106.81Z"/><path class="ac" d="M138.26,113.32l0,.06,0-.06Z"/><path class="ac" d="M138,113.83a7.55,7.55,0,0,0-.06,3.34,6.28,6.28,0,0,0,1.39.72L138,114.53A1.28,1.28,0,0,1,138,113.83Z"/><path class="ac" d="M146.3,113.32h0l.09.14A.58.58,0,0,0,146.3,113.32Z"/><path class="ac" d="M146.52,113.78a1.46,1.46,0,0,1,0,.75l-1.3,3.27a5.71,5.71,0,0,0,1.39-.81A7.22,7.22,0,0,0,146.52,113.78Z"/><path class="ad" d="M140.93,114.51l-.57-.27-.4-1.82-1.07.42a1.44,1.44,0,0,0-.63.48l0,.06a1.49,1.49,0,0,0-.19.45,1.28,1.28,0,0,0,0,.7l1.32,3.36a7.7,7.7,0,0,0,2.08.46l-1.48-3Z"/><polygon class="ad" points="143.74 112.08 143.74 112.08 143.76 112.09 143.74 112.08"/><polygon class="ad" points="141.25 113.87 140.82 112.08 141.25 113.87 141.25 113.87"/><path class="ad" d="M146.52,113.78a1.27,1.27,0,0,0-.13-.32l-.09-.14a1.38,1.38,0,0,0-.63-.48l-1.07-.42-.4,1.82-.57.27,1,.87-1.47,3a7.61,7.61,0,0,0,2.1-.53l1.3-3.27A1.46,1.46,0,0,0,146.52,113.78Z"/><path class="b" d="M143.31,113.87h-2.06l.57,2.35.26,2.16h.4l.26-2.16Z"/><path class="ac" d="M141.25,113.87l-.43-1.79-.81.31.4,1.81.56.27,0,0-.57-.27.57.27-1,.87,0,0,1.47,3c.2,0,.41,0,.61,0l-.26-2.16Z"/><polygon class="ae" points="140.93 114.51 140.97 114.47 140.41 114.2 140.01 112.39 140.01 112.39 139.96 112.41 139.96 112.42 140.36 114.25 140.93 114.51"/><path class="ae" d="M140,115.38l1.48,3h0l-1.47-3Z"/><path class="ac" d="M144.6,115.38l-1-.87.57-.27-.57.27,0,0,.57-.27.4-1.81-.79-.3h0l-.43,1.79-.57,2.35-.26,2.16c.21,0,.42,0,.62,0l1.46-3Z"/><polygon class="ae" points="144.15 114.2 143.58 114.47 143.63 114.51 144.2 114.25 144.6 112.42 144.6 112.41 144.55 112.39 144.55 112.39 144.15 114.2"/><path class="ae" d="M144.56,115.34l-1.46,3h0l1.47-3Z"/><path class="af" d="M206.89,111.61a10.51,10.51,0,1,1-10.5-10.51A10.5,10.5,0,0,1,206.89,111.61Z"/><path class="ag" d="M196.38,118.68a14.64,14.64,0,0,1-6.64-1.76s.72-3.25.77-3.28l2.88-1.59c.34-.1,1-.26,1-.26s1.26,1.79,1.92,1.76,2.14-1.73,2.14-1.73l.88.23,2.81,1.59c.05,0,.77,3.28.77,3.28A14.19,14.19,0,0,1,196.38,118.68Z"/><polygon class="b" points="194.42 111.79 196.44 118.03 198.48 111.82 196.44 112.44 194.42 111.79"/><rect class="ah" x="195.6" y="112.64" width="0.4" height="0.96" transform="translate(-10.29 206.18) rotate(-54.32)"/><polygon class="ah" points="196.94 113.57 197.72 113.01 197.48 112.68 196.7 113.24 196.94 113.57"/><polygon class="ai" points="194.42 111.79 196.46 118.06 194.4 115.11 194.76 114.71 194.4 114.61 194.08 111.87 194.42 111.79"/><polygon class="ai" points="198.49 111.82 196.46 118.06 198.51 115.14 198.14 114.74 198.51 114.64 198.83 111.9 198.49 111.82"/><polygon class="aj" points="196.46 118.06 197.14 115.98 196.79 113.82 196.23 113.82 195.85 116.18 196.46 118.06 196.46 118.06"/><polygon class="ak" points="196.44 112.44 194.42 111.79 195.07 113.8 196.44 112.44"/><polygon class="ak" points="198.48 111.82 196.44 112.44 197.83 113.81 198.48 111.82"/><path class="al" d="M190.78,113.94l.08.08.08.1.06.06.05.08.11.17a.7.7,0,0,1,.06.09.47.47,0,0,0,.05.1,1.47,1.47,0,0,1,.1.22l.09.23.06.25a1,1,0,0,1,0,.23c0,.08,0,.15,0,.22s0,.14,0,.2a1.09,1.09,0,0,1,0,.17v.25a1.09,1.09,0,0,0,0-.12c0-.07,0-.17,0-.29l0-.2c0-.07,0-.14,0-.22s0-.15-.06-.23l-.06-.23-.09-.23a1.45,1.45,0,0,0-.09-.22s0-.07-.05-.1a.31.31,0,0,0,0-.1l-.1-.17a.43.43,0,0,0,0-.07l-.05-.07-.07-.11Z"/><path class="al" d="M202,113.86a.57.57,0,0,1-.06.09c0,.06-.1.13-.16.23l-.09.16a.77.77,0,0,0-.1.18,1.18,1.18,0,0,0-.11.19l-.09.2c0,.07-.06.14-.1.21s-.05.14-.07.2,0,.14-.07.2a7,7,0,0,0-.12.44l0,.1V116l0-.12s0,0,0-.07a.29.29,0,0,1,0-.09c0-.05,0-.11,0-.18a.89.89,0,0,1,.06-.2,1.72,1.72,0,0,1,.07-.21l.09-.21.1-.2a1.28,1.28,0,0,1,.11-.2c0-.06.07-.12.11-.17l.11-.15.05-.07.05-.06.08-.09Z"/><path class="ah" d="M196.17,114.19a.31.31,0,0,0,.13,0h.36a.29.29,0,0,0,.18-.07l-.05-.33h-.56Z"/><rect class="aj" x="196.01" y="112.99" width="0.95" height="1.15" rx="0.3"/><polygon class="am" points="196.51 109.38 194.7 109.35 194.42 111.79 196.51 113.2 198.48 111.82 198.32 109.35 196.51 109.38"/><path class="an" d="M196.51,103.81h-.08a2.49,2.49,0,0,0-2.74,2.77,2.44,2.44,0,0,0,.22,1.15s0,0,.06,0c.44,0,.22-2.39,1.16-2.39.3,0,.67.18.84.18a.83.83,0,0,1,1.08,0,8.27,8.27,0,0,1,.84-.18c.93,0,.72,2.39,1.16,2.39,0,0,0,0,.06,0a2.85,2.85,0,0,0-2.52-3.92Z"/><path class="am" d="M199.11,108.32a1.53,1.53,0,0,0,.11-.42c0-.09,0-.13-.07-.13h0c.38-2.72-1.28-3-2.62-3s-3,.32-2.62,3h0s-.07,0-.07.13a1.3,1.3,0,0,0,.12.42c0,.11,0,.25.12.25.37,1.51,1.19,2.72,2.47,2.84,1.28-.12,2.09-1.33,2.47-2.84C199.09,108.57,199.09,108.43,199.11,108.32Z"/><path class="ao" d="M196.51,111.41a2.49,2.49,0,0,1-1.89-1.36v.13a2.48,2.48,0,0,0,1.9,1.38,2.52,2.52,0,0,0,1.87-1.32v-.14A2.49,2.49,0,0,1,196.51,111.41Z"/><path class="an" d="M196,105.32a1,1,0,0,1,1.05-.89c.63,0,1.94.77.85.52l-.28,0c-.84,0-1.18.89-1,.27-.13.08-.37.53,0-.14a2.57,2.57,0,0,0-.39.35.73.73,0,0,1,.28-.47,2.11,2.11,0,0,0-.53.4Z"/><path class="ap" d="M181.38,129.55a12,12,0,1,1-12-12A12,12,0,0,1,181.38,129.55Z"/><path class="aq" d="M169.77,120.87h-.18a3.84,3.84,0,0,0-1.56.29,1.12,1.12,0,0,1-.35.06,2.23,2.23,0,0,0-.42,0,.29.29,0,0,0,.23.29h0c-.42,0-.42-.49-.42-.18a.35.35,0,0,0,.28.32,3.21,3.21,0,0,0-.89,2.46,3,3,0,0,0,.24,1.33s.05,0,.07,0c.51,0,.26-2.76,1.35-2.76.34,0,.77.2,1,.2a1.72,1.72,0,0,0,.62-.22,1.7,1.7,0,0,0,.63.22c.19,0,.62-.2,1-.2,1.08,0,.83,2.76,1.34,2.76,0,0,0,0,.07,0a2.91,2.91,0,0,0,.25-1.33A2.87,2.87,0,0,0,169.77,120.87Z"/><path class="ar" d="M169.53,138.07a16.79,16.79,0,0,1-7.68-2s.83-3.75.89-3.78l3.34-1.85c.39-.11,1.19-.29,1.19-.29s1.46,2.07,2.21,2,2.48-2,2.48-2l1,.25,3.25,1.85c.05,0,.9,3.78.9,3.78A16.3,16.3,0,0,1,169.53,138.07Z"/><polygon class="as" points="167.27 130.11 169.61 137.33 171.96 130.15 169.61 130.86 167.27 130.11"/><polygon class="at" points="167.27 130.11 169.63 137.36 167.24 133.95 167.66 133.48 167.24 133.37 166.87 130.2 167.27 130.11"/><polygon class="at" points="171.97 130.14 169.63 137.36 172 133.98 171.57 133.52 172 133.4 172.37 130.23 171.97 130.14"/><path class="at" d="M163.05,132.59l.09.1.1.11.07.08a.56.56,0,0,1,.05.08l.13.19.07.11.06.12c0,.08.09.17.12.25s.06.18.1.27,0,.19.07.28a2.8,2.8,0,0,1,.06.28c0,.09,0,.17,0,.25a1.79,1.79,0,0,0,0,.24,1.28,1.28,0,0,1,0,.19v.29s0-.05,0-.14,0-.2,0-.34l0-.23c0-.08,0-.16-.06-.25s0-.18-.06-.27-.05-.18-.08-.27l-.09-.26a1.89,1.89,0,0,0-.11-.25l-.05-.12-.06-.11-.11-.2-.06-.09-.05-.07a.77.77,0,0,1-.09-.13Z"/><path class="at" d="M176,132.51a.51.51,0,0,0-.07.1l-.18.26a1.88,1.88,0,0,1-.12.18c0,.06-.07.14-.11.21l-.12.22a2.56,2.56,0,0,0-.11.24l-.11.24-.09.24-.07.22a.89.89,0,0,0-.06.2,2.81,2.81,0,0,0-.09.31l0,.12a.55.55,0,0,0,0-.12l0-.14a.28.28,0,0,1,0-.09.29.29,0,0,1,0-.09,2.09,2.09,0,0,1,.05-.21c0-.07,0-.15.06-.23a2.34,2.34,0,0,1,.09-.24,2.6,2.6,0,0,1,.1-.25l.12-.24a2.39,2.39,0,0,1,.12-.22l.13-.2.13-.18.06-.07.05-.07.1-.1Z"/><path class="am" d="M167.59,127.28l-.32,2.83,1.7,1.15a1.33,1.33,0,0,0,1.41,0l1.58-1.1-.19-2.87-2.09,0Z"/><path class="am" d="M172.69,126.09a1.79,1.79,0,0,0,.13-.49c0-.1,0-.14-.08-.14h0c.44-3.16-1.49-3.51-3-3.53s-3.47.37-3,3.52h0s-.08,0-.08.14a1.79,1.79,0,0,0,.13.49c0,.13,0,.29.14.29.44,1.74,1.38,3.14,2.86,3.28,1.48-.14,2.43-1.54,2.86-3.28C172.66,126.38,172.67,126.22,172.69,126.09Z"/><path class="ao" d="M169.68,129.66a2.84,2.84,0,0,1-2.18-1.57l0,.15a2.86,2.86,0,0,0,2.2,1.59,2.83,2.83,0,0,0,2.16-1.52v-.16A2.83,2.83,0,0,1,169.68,129.66Z"/><path class="aq" d="M166.59,125.06c.87-2.4,4.33-2.6,4.67-3s-1.1-.59-1.75-.59a2.73,2.73,0,0,0-3,2.9A3,3,0,0,0,166.59,125.06Z"/><polygon class="e" points="308.29 175.06 302.54 158.51 295.76 162.6 304.65 177.23 308.29 175.06"/><path class="b" d="M300.3,163.89a1.32,1.32,0,0,0-1.79-.5l-1.69,1,1.37,2.25,1.62-.91A1.32,1.32,0,0,0,300.3,163.89Z"/><path class="b" d="M302,167a1.3,1.3,0,0,0-1.79-.5l-1.59.9L300,169.6l1.53-.86A1.31,1.31,0,0,0,302,167Z"/><path class="b" d="M303.76,170a1.31,1.31,0,0,0-1.79-.49l-1.5.84,1.37,2.25,1.42-.8A1.32,1.32,0,0,0,303.76,170Z"/><path class="b" d="M305.49,173.06a1.31,1.31,0,0,0-1.8-.5l-1.4.79,1.37,2.25,1.33-.75A1.31,1.31,0,0,0,305.49,173.06Z"/><path class="au" d="M292.58,162.72a2.64,2.64,0,0,0,3.33.63l7.38-4.17a2.62,2.62,0,0,0,1.17-3.18Z"/><path class="b" d="M291,164c-10,2.18-18.12-12.88-11.45-20.24l7.64-4.32,11.45,20.24Z"/><path class="e" d="M303.51,126.79a43.55,43.55,0,0,1-16.31,12.68l11.45,20.24a44.07,44.07,0,0,1,20.14-7.45Z"/><path class="e" d="M310.7,130.44l8.06,13.44a8.64,8.64,0,0,0-8.06-13.44Z"/><polygon class="b" points="325 153.65 320.39 154.94 302.13 124.48 305.05 121.06 325 153.65"/><rect class="av" x="313.28" y="125.83" width="4.66" height="0.37" transform="translate(77.4 368.4) rotate(-67.26)"/><rect class="av" x="317.4" y="128.25" width="5.64" height="0.37" transform="translate(16.75 292.57) rotate(-50.26)"/><polygon class="av" points="320.94 133.81 320.81 133.46 325.69 131.59 325.82 131.93 320.94 133.81"/><rect class="av" x="322.14" y="138.93" width="4.29" height="0.37" transform="translate(-1.01 2.38) rotate(-0.42)"/><circle class="b" cx="108.37" cy="265.5" r="27.09"/><path class="aw" d="M93.71,264.13l12-7.82a3.81,3.81,0,0,1,4.2,0l12,7.82Z"/><path class="ax" d="M121.91,264.13H93.71v.49l11.61,7.93a4.61,4.61,0,0,0,5,0l11.61-7.93Z"/><rect class="f" x="96.71" y="249.89" width="22.29" height="27.46"/><path class="aw" d="M107.81,273.28a4.56,4.56,0,0,1-2.49-.73l-11.61-7.93v13.52h28.2V264.62l-11.61,7.93A4.56,4.56,0,0,1,107.81,273.28Z"/><path class="ay" d="M121.91,278.14H93.71v-.31l11.61-8.1a4.56,4.56,0,0,1,5,0l11.61,8.1Z"/><path class="ax" d="M93.71,278.14l12-7.82a3.81,3.81,0,0,1,4.2,0l12,7.82Z"/><path class="h" d="M111.83,263.43a1.64,1.64,0,0,0-.67-.27,2.37,2.37,0,0,0-4.22-1.18,1.27,1.27,0,0,0-.48-.08,1.52,1.52,0,0,0-1.51,1.33,1.58,1.58,0,0,0,.46,3.09h5.3l.29,0a1.58,1.58,0,0,0,.83-2.92Z"/><path class="az" d="M107.21,262.39a1.68,1.68,0,0,0-.55-.1,1.25,1.25,0,0,0-1.32,1.16,1.21,1.21,0,0,0,0,.19A2.4,2.4,0,0,1,107.21,262.39Z"/><path class="h" d="M107.71,257.07c0-1.25-1.31-2.26-2.93-2.26s-2.93,1-2.93,2.26,1.31,2.27,2.93,2.27a4,4,0,0,0,.71-.07l1.36,1.35v-1.94A2.05,2.05,0,0,0,107.71,257.07Z"/><path class="ba" d="M103.83,257a.28.28,0,0,1-.27.28.29.29,0,0,1-.28-.28.28.28,0,0,1,.28-.27A.27.27,0,0,1,103.83,257Z"/><path class="ba" d="M105,257a.28.28,0,1,1-.55,0,.28.28,0,0,1,.55,0Z"/><path class="ba" d="M106.17,257a.28.28,0,1,1-.55,0,.28.28,0,0,1,.55,0Z"/><path class="bb" d="M107.51,254.85c0-1.25,1.31-2.27,2.93-2.27s2.93,1,2.93,2.27-1.31,2.26-2.93,2.26a4,4,0,0,1-.71-.07l-1.36,1.35v-1.94A2,2,0,0,1,107.51,254.85Z"/><path class="ba" d="M111.39,254.78a.27.27,0,0,0,.27.28.28.28,0,1,0,0-.55A.27.27,0,0,0,111.39,254.78Z"/><path class="ba" d="M110.22,254.78a.28.28,0,1,0,.27-.27A.27.27,0,0,0,110.22,254.78Z"/><path class="ba" d="M109.05,254.78a.28.28,0,0,0,.28.28.28.28,0,0,0,0-.55A.28.28,0,0,0,109.05,254.78Z"/><rect class="bc" x="28.9" y="111.46" width="92.71" height="11.89"/><rect class="e" x="28.9" y="55.99" width="92.71" height="55.47"/><path class="bd" d="M75.25,100.47A14.66,14.66,0,1,1,89.91,85.81,14.67,14.67,0,0,1,75.25,100.47Zm0-28.53A13.87,13.87,0,1,0,89.12,85.81,13.88,13.88,0,0,0,75.25,71.94Z"/><polygon class="bd" points="72.08 80.66 80.8 85.81 72.08 90.96 72.08 80.66"/><polygon class="e" points="33.52 115.3 36.69 117.48 33.52 119.66 33.52 115.3"/><rect class="be" x="63.33" y="117.09" width="43.58" height="0.79"/><rect class="e" x="39.56" y="117.09" width="23.77" height="0.79"/><path class="be" d="M109.84,118c.56-.54.91-.89.91-1.2a.31.31,0,0,0-.33-.35.52.52,0,0,0-.39.23l-.2-.21a.83.83,0,0,1,.64-.31.59.59,0,0,1,.63.62c0,.36-.33.73-.73,1.14l.34,0h.49v.31h-1.36Z"/><path class="be" d="M111.59,117.75a.67.67,0,0,0,.48.23c.22,0,.38-.12.38-.31s-.14-.34-.6-.34v-.27c.4,0,.53-.13.53-.32a.27.27,0,0,0-.3-.27.54.54,0,0,0-.4.19l-.19-.22a.85.85,0,0,1,.61-.26c.38,0,.65.19.65.53a.47.47,0,0,1-.36.46v0a.51.51,0,0,1,.42.5c0,.37-.32.58-.71.58a.87.87,0,0,1-.68-.29Z"/><path class="be" d="M113.4,116.7a.23.23,0,0,1,.24.24.23.23,0,0,1-.24.25.24.24,0,0,1-.23-.25A.23.23,0,0,1,113.4,116.7Zm0,1.08a.23.23,0,0,1,.24.25.23.23,0,0,1-.24.24.23.23,0,0,1-.23-.24A.24.24,0,0,1,113.4,117.78Z"/><path class="be" d="M115.38,117.71h-.25v.52h-.34v-.52h-.89v-.24l.8-1.25h.43v1.21h.25Zm-.59-.28V117c0-.12,0-.3,0-.42h0c-.05.1-.1.21-.16.31l-.37.56Z"/><path class="be" d="M115.71,117.76a.7.7,0,0,0,.47.22.37.37,0,0,0,.39-.39.34.34,0,0,0-.37-.38.52.52,0,0,0-.32.11l-.17-.11.06-1h1.08v.31h-.77l0,.48a.76.76,0,0,1,.27-.06.58.58,0,0,1,.63.63.68.68,0,0,1-.71.69.92.92,0,0,1-.68-.28Z"/><path class="b" d="M40,36.12H7.21A7.21,7.21,0,0,0,0,43.33v21a7.21,7.21,0,0,0,7.21,7.21H17.59l6,15.74,5.84-15.74H40a7.21,7.21,0,0,0,7.21-7.21v-21A7.21,7.21,0,0,0,40,36.12Z"/><path class="e" d="M21,62.59l-5.44-7.28.28-.21c.45-.34,1.39-1,2.94-2.42a4.87,4.87,0,0,0,1.39-3,5.84,5.84,0,0,0-1-4.4l-.59-.8a1.84,1.84,0,0,0-.29-.26,2,2,0,0,1-.37-.33,1.31,1.31,0,0,1-.3-.84,1.74,1.74,0,0,1,.56-1.23,1.52,1.52,0,0,1,.58-.24,2,2,0,0,1,1,0A5.7,5.7,0,0,1,22,43.53a6.58,6.58,0,0,1,.57.88c.93,1.69,1.81,3.52,1.82,3.54.26.33.4.33.58.29a4.12,4.12,0,0,0,1.29-.76l.15-.15a2.4,2.4,0,0,1,.24-.22L26.8,47,30,44.5a1.52,1.52,0,0,1,2,.53l.15.19a2,2,0,0,1,.43,1.12,1.63,1.63,0,0,1,1.84.67l.15.19a1.57,1.57,0,0,1,.12,2,2,2,0,0,1,.88.66l.14.2a1.51,1.51,0,0,1,0,2.12l-.84.65a2.08,2.08,0,0,1,.89.67l.14.19a2,2,0,0,1,.42,1.12,1.16,1.16,0,0,1-.43,1,55.48,55.48,0,0,1-5,3.87,4.64,4.64,0,0,1-2.3.49h-.53a.33.33,0,0,1-.15,0,15.67,15.67,0,0,0-2.37,0,3.35,3.35,0,0,0-1.74.56c-.13.1-2.15,1.44-2.55,1.7Zm-4.46-7.14,4.63,6.19,2.24-1.49a4,4,0,0,1,2.11-.7,15.84,15.84,0,0,1,2.48,0h.63a4,4,0,0,0,2-.41,58.44,58.44,0,0,0,4.9-3.79.5.5,0,0,0,.17-.44,1.23,1.23,0,0,0-.28-.71l-.14-.19c-.38-.49-.85-.58-1.07-.41l-4,3.1.1-1.09,5.06-3.91c.26-.19.2-.73-.11-1.14l-.15-.19c-.38-.49-.85-.58-1.07-.41l-3.42,2.65.11-1.05,3.49-2.71c.26-.19.21-.72-.11-1.13l-.15-.2c-.35-.46-.84-.57-1.07-.4l-3.36,2.6L29,49l2.72-2.18c.26-.2.2-.73-.12-1.14l-.14-.19c-.38-.49-.86-.57-1.07-.41l-3.28,2.58a1,1,0,0,0-.21.19,2.62,2.62,0,0,1-.25.22,4.46,4.46,0,0,1-1.55.89,1.26,1.26,0,0,1-1.32-.62c-.05-.07-.92-1.88-1.85-3.57a6.22,6.22,0,0,0-.51-.79,4.78,4.78,0,0,0-1.9-1.67,1.3,1.3,0,0,0-.65,0,.77.77,0,0,0-.31.11,1.09,1.09,0,0,0-.28.69.61.61,0,0,0,.17.4,3,3,0,0,0,.23.2,2.09,2.09,0,0,1,.38.34l.09.11.54.74h0a6.55,6.55,0,0,1,1.14,4.93,5.53,5.53,0,0,1-1.62,3.4C17.94,54.37,17.06,55.05,16.54,55.45Z"/><path class="e" d="M19,42.89c-.29-.32-.67-.49-1-.25-.71.54.72,1.54.89,1.77s.14.23.21.32.22.23.31.16c.62-.46-.15-1.66-.33-1.9Z"/><rect class="e" x="16.3" y="55.01" width="2.61" height="9.28" transform="translate(-32.18 22.39) rotate(-36.74)"/><path class="b" d="M293.51,54.52H260.73a7.21,7.21,0,0,0-7.21,7.22v21a7.21,7.21,0,0,0,7.21,7.22h10.38l6,15.73L283,89.93h10.55a7.21,7.21,0,0,0,7.21-7.22v-21A7.21,7.21,0,0,0,293.51,54.52Z"/><path class="e" d="M276.75,66.4a15.17,15.17,0,0,1-11.5,4.76,8.39,8.39,0,0,1-2.59-.34l-.5-.12h-.09a5.44,5.44,0,0,0,0,.57c0,3.9,3.44,8.52,8.42,10.59a12.92,12.92,0,0,0,5.15.85c2.18,0,7.59-2.31,10.21-5.54A13.78,13.78,0,0,0,288.48,72a17.12,17.12,0,0,0,.58-4.1c0-.24,0-.46,0-.68l2.13-1.08-2.67-1.36a5.67,5.67,0,0,0-5.34-3.66C279.94,61.1,278.7,64.12,276.75,66.4Zm7.61.46a.74.74,0,1,1,.74-.74A.74.74,0,0,1,284.36,66.86Z"/><path class="n" d="M278.51,70.39a29.49,29.49,0,0,0-4.83-1.94,6.56,6.56,0,0,1-1.83-3.69c0-.53-1,.66-1,2.62,0,.07,0,.12,0,.18-2.7-.8-5.1-1.38-5.3-1.08-.41.64,7.4,8.49,9.16,9.64a3.45,3.45,0,1,0,3.76-5.73Z"/></svg>