<svg xmlns="http://www.w3.org/2000/svg" viewBox="0 0 175.73 26.74"><defs><style>.a{fill:#d8804f;}.b{fill:#fff;}</style></defs><polygon class="a" points="21.86 13.4 29.43 22.62 37 13.4 37 26.74 44.05 26.74 44.05 0 38.88 0 29.43 11.51 19.98 0 14.74 0 14.74 3.75 10.94 3.75 10.94 7.47 14.8 7.47 14.8 11.32 18.65 11.32 18.65 15.31 14.8 15.31 14.8 19.03 18.65 19.03 18.65 22.89 21.86 22.89 21.86 13.4"/><path class="b" d="M65.72,19.19V11.48l-3.82,6.38h-1L57.1,11.58v7.61H55V7.56h1.78l4.62,7.71L66,7.56h1.79V19.19Z"/><path class="b" d="M80.63,17.38v1.81H71.9V7.56h8.5V9.37H74.07v3h5.61v1.78H74.07v3.21Z"/><path class="b" d="M86.39,9.38H82.54V7.56h9.87V9.38H88.55v9.81H86.39Z"/><path class="b" d="M96.18,16.49,95,19.18H92.8L98,7.55h2.12l5.25,11.63h-2.25L102,16.49l-.71-1.69L99.09,9.71,96.91,14.8Z"/><path class="b" d="M114.48,19a5.25,5.25,0,0,1-2-1l.74-1.68a6,6,0,0,0,1.76.92,6.15,6.15,0,0,0,2.08.36,3.58,3.58,0,0,0,1.94-.42,1.26,1.26,0,0,0,.64-1.09,1.12,1.12,0,0,0-.36-.83,2.39,2.39,0,0,0-.91-.5c-.36-.13-.86-.26-1.49-.42a16,16,0,0,1-2.15-.63,3.62,3.62,0,0,1-1.42-1,2.66,2.66,0,0,1-.59-1.82,3.13,3.13,0,0,1,.53-1.75,3.42,3.42,0,0,1,1.58-1.25,6.36,6.36,0,0,1,2.58-.47,8.15,8.15,0,0,1,2.09.27,5.64,5.64,0,0,1,1.78.76l-.68,1.68a6.57,6.57,0,0,0-3.21-.92,3.35,3.35,0,0,0-1.9.44,1.32,1.32,0,0,0-.62,1.14,1,1,0,0,0,.36.82,2.74,2.74,0,0,0,.9.5c.37.12.86.26,1.5.41a17.17,17.17,0,0,1,2.12.62,3.55,3.55,0,0,1,1.42,1,2.6,2.6,0,0,1,.59,1.8,3,3,0,0,1-.52,1.74,3.58,3.58,0,0,1-1.59,1.25,6.45,6.45,0,0,1-2.59.46A8.8,8.8,0,0,1,114.48,19Z"/><path class="b" d="M135.26,7.56V19.19H133.1v-5h-6v5h-2.16V7.56h2.16v4.8h6V7.56Z"/><path class="b" d="M141.6,18.58a5.69,5.69,0,0,1-2.24-2.14,6.15,6.15,0,0,1,0-6.13,5.72,5.72,0,0,1,2.24-2.15,7,7,0,0,1,6.41,0,5.79,5.79,0,0,1,2.25,2.14,6.22,6.22,0,0,1,0,6.14A5.72,5.72,0,0,1,148,18.58a7,7,0,0,1-6.41,0Zm5.3-1.64a3.75,3.75,0,0,0,1.47-1.46,4.43,4.43,0,0,0,0-4.21A3.84,3.84,0,0,0,146.9,9.8a4.48,4.48,0,0,0-4.18,0,3.75,3.75,0,0,0-1.46,1.47,4.41,4.41,0,0,0,0,4.2,3.75,3.75,0,0,0,1.46,1.47,4.42,4.42,0,0,0,4.18,0Z"/><path class="b" d="M161.78,8.05a3.83,3.83,0,0,1,1.72,1.43,4,4,0,0,1,.6,2.21,4,4,0,0,1-.6,2.2,3.67,3.67,0,0,1-1.72,1.44,6.43,6.43,0,0,1-2.63.5h-2.62v3.36h-2.16V7.56h4.78A6.43,6.43,0,0,1,161.78,8.05Zm-.59,5.36a2.09,2.09,0,0,0,.74-1.72,2.08,2.08,0,0,0-.74-1.71,3.29,3.29,0,0,0-2.14-.6h-2.52V14h2.52a3.29,3.29,0,0,0,2.14-.6Z"/><path class="b" d="M168.43,19a5.38,5.38,0,0,1-2-1l.75-1.68a6.11,6.11,0,0,0,1.75.92,6.25,6.25,0,0,0,2.09.36,3.58,3.58,0,0,0,1.94-.42,1.26,1.26,0,0,0,.64-1.09,1.12,1.12,0,0,0-.36-.83,2.39,2.39,0,0,0-.91-.5c-.36-.13-.86-.26-1.49-.42a16,16,0,0,1-2.15-.63,3.62,3.62,0,0,1-1.42-1,2.66,2.66,0,0,1-.59-1.82,3.13,3.13,0,0,1,.53-1.75,3.42,3.42,0,0,1,1.58-1.25,6.36,6.36,0,0,1,2.58-.47,8.15,8.15,0,0,1,2.09.27,5.74,5.74,0,0,1,1.78.76l-.68,1.68a6.65,6.65,0,0,0-3.21-.92,3.35,3.35,0,0,0-1.9.44,1.32,1.32,0,0,0-.62,1.14,1.07,1.07,0,0,0,.35.82,2.89,2.89,0,0,0,.91.5c.37.12.86.26,1.5.41a17.17,17.17,0,0,1,2.12.62,3.55,3.55,0,0,1,1.42,1,2.6,2.6,0,0,1,.59,1.8,3,3,0,0,1-.52,1.74,3.58,3.58,0,0,1-1.59,1.25,6.45,6.45,0,0,1-2.59.46A8.8,8.8,0,0,1,168.43,19Z"/><rect class="b" x="10.94" y="11.46" width="3.72" height="3.72"/><rect class="b" x="14.8" y="23.02" width="3.72" height="3.72"/><rect class="b" x="7.09" width="3.72" height="3.62"/><rect class="b" y="11.26" width="2.27" height="2.27"/><rect class="b" x="2.79" y="19.52" width="2.27" height="2.27"/><rect class="b" x="4.64" y="6.94" width="3.01" height="3.01"/><rect class="b" x="8.41" y="20.11" width="3.01" height="3.01"/><rect class="b" x="4.56" y="14.14" width="3.01" height="3.01"/></svg>