<svg xmlns="http://www.w3.org/2000/svg" viewBox="0 0 133.58 131.07"><defs><style>.a,.b{fill:none;}.a{stroke:#cfcfcf;stroke-miterlimit:10;stroke-width:3px;}.c{fill:#d9804f;}</style></defs><rect class="a" x="-76.74" y="-18.14" width="263.06" height="325.48" rx="53.91"/><path class="b" d="M88,110.57h22.69c.41-1.47.44-2.34.1-2.81s-.84-.54-1.8-.56c-6.59-.09-13.11-.08-19.38,0a3,3,0,0,0-2,1.44c-.14.26.06.84.24,1.34C87.85,110.21,87.91,110.39,88,110.57Z"/><path class="b" d="M99.27,84.06h0a5.16,5.16,0,0,0,5.29-5.32,5.55,5.55,0,0,0-1.68-4,5.25,5.25,0,0,0-3.66-1.49h-.16a5.7,5.7,0,0,0-5.29,5.52A5.62,5.62,0,0,0,99.27,84.06Z"/><path class="b" d="M14.88,55l.11.13a29.68,29.68,0,0,0,15.73,9.15l.16,0,0,.16,2.34,7.8h4.66l2.27-8,.16,0a31,31,0,0,0,15.91-9.13l.12-.12,8.21,2.11,2.48-4.4-6.38-5.06.06-.18c2-6.32,2-12.45.08-19.87l0-.18,6.28-4.78-2.66-4.32-8.2,2.15-.11-.13a29,29,0,0,0-15.72-9.09l-.16,0L37.89,3.3H33.16L31,10.78l-.12.05c-1,.45-2.06.84-3,1.22a43.59,43.59,0,0,0-5.8,2.61,44.69,44.69,0,0,0-5.27,3.79c-.77.61-1.55,1.23-2.36,1.84l-.11.08L6.61,18.32,4,22.87,10.49,28l-.06.18a28.82,28.82,0,0,0-.22,18.69l0,.16-6,6.18,2.33,4Zm6.51-31.56a19.46,19.46,0,0,1,14.25-5.78h.22a19.53,19.53,0,0,1,19.75,19.8A19.53,19.53,0,0,1,36.07,57.72c-.26,0-.53,0-.8,0A19.88,19.88,0,0,1,15.54,38,20.47,20.47,0,0,1,21.39,23.44Z"/><path class="b" d="M121.58,70.6A22.38,22.38,0,0,0,98.42,50.32c-10,.52-18.74,7.62-20.8,16.89a22.83,22.83,0,0,0,3.43,18.3,50.35,50.35,0,0,1,7.34,16.78,6.85,6.85,0,0,0,.41,1.15c0,.11.09.22.14.32h8.77V87.47c-5.48-2.86-7.67-6.09-6.9-10.17a8.63,8.63,0,0,1,7.88-7.14,8.19,8.19,0,0,1,8.64,5.71,11.06,11.06,0,0,1,.12,5.25c-.64,2.87-2.7,4.89-6.31,6.18v16.45h8.71a51.53,51.53,0,0,1,8.5-19.56A20,20,0,0,0,121.58,70.6ZM98.13,54.78l-.65.29a8.48,8.48,0,0,1-1.68.65,17.32,17.32,0,0,0-13,12,13.87,13.87,0,0,1-.64,1.54c-.1.23-.21.46-.31.7l-.09.19-.2,0a2.45,2.45,0,0,1-1.83-.82,2.16,2.16,0,0,1-.13-1.83,20.27,20.27,0,0,1,16.18-15,2.23,2.23,0,0,1,1.82.26,2.3,2.3,0,0,1,.72,1.76v.19Z"/><path class="b" d="M35.49,54.61h0A16.83,16.83,0,0,0,52.36,37.86,16.5,16.5,0,0,0,36,21h-.15a17.25,17.25,0,0,0-12.25,4.86,16.8,16.8,0,0,0-4.92,12,16.59,16.59,0,0,0,4.86,11.86A16.76,16.76,0,0,0,35.49,54.61Z"/><path class="b" d="M93.6,121.13a5.65,5.65,0,0,0,2.59,6.24,7,7,0,0,0,7-.54c1.84-1.54,2.28-3.3,1.42-5.7Z"/><path class="b" d="M88.46,117.46h1.07c1.89,0,3.82,0,5.69,0,5.14.06,10.46.12,15.79-.26v-2.78H88.13C87.31,115.91,87.32,116,88.46,117.46Z"/><path class="c" d="M100.52,47A25.64,25.64,0,0,0,78.41,87.26a47.29,47.29,0,0,1,7.2,17.48c-2,4.17-2,4.38-.44,7.71-.09.18-.18.37-.28.55a8.68,8.68,0,0,0-.69,1.59c-.74,2.59,1,5.24,4,6.18a5.63,5.63,0,0,0,.62.14c.41.07.8.13,1,.38a1.28,1.28,0,0,1,0,1v.09a9.57,9.57,0,0,0,7.36,8.55,8.23,8.23,0,0,0,1.72.18,9.9,9.9,0,0,0,8.23-4.67,9,9,0,0,0,1-2.34,5.51,5.51,0,0,0,.14-.92,3,3,0,0,1,.24-1.19,2.93,2.93,0,0,1,1.24-1c2.52-.89,3.9-1.87,4.47-3.17s.33-3-.72-5.38c1-1.84,1.72-3.81.39-5.77-.9-1.33-.83-2.62-.43-4.27a44.29,44.29,0,0,1,6.67-15,24.94,24.94,0,0,0,4-20.81A25.3,25.3,0,0,0,100.52,47ZM99.11,73.26h.16a5.25,5.25,0,0,1,3.66,1.49,5.55,5.55,0,0,1,1.68,4,5.16,5.16,0,0,1-5.29,5.32h0a5.62,5.62,0,0,1-5.45-5.28A5.7,5.7,0,0,1,99.11,73.26ZM87.54,108.68a3,3,0,0,1,2-1.44c6.27-.12,12.79-.13,19.38,0,1,0,1.53.19,1.8.56s.31,1.34-.1,2.81H88c-.06-.18-.12-.36-.19-.55C87.6,109.52,87.4,108.94,87.54,108.68Zm13.6-4.93V87.3c3.61-1.29,5.67-3.31,6.31-6.18a11.06,11.06,0,0,0-.12-5.25,8.19,8.19,0,0,0-8.64-5.71,8.63,8.63,0,0,0-7.88,7.14c-.77,4.08,1.42,7.31,6.9,10.17v16.29H88.94c0-.1-.09-.21-.14-.32a6.85,6.85,0,0,1-.41-1.15,50.35,50.35,0,0,0-7.34-16.78,22.83,22.83,0,0,1-3.43-18.3c2.06-9.27,10.81-16.37,20.8-16.89A22.38,22.38,0,0,1,121.58,70.6a20,20,0,0,1-3.23,13.59,51.53,51.53,0,0,0-8.5,19.56ZM111,114.46v2.78c-5.33.38-10.65.32-15.79.26-1.87,0-3.8,0-5.69,0H88.46c-1.14-1.47-1.15-1.55-.33-3Zm-7.82,12.37a7,7,0,0,1-7,.54,5.65,5.65,0,0,1-2.59-6.24h11C105.47,123.53,105,125.29,103.19,126.83Z"/><path class="c" d="M28.29,67l2.42,8.58h9.64l2.45-8.6a33.92,33.92,0,0,0,14.44-8.25l8.88,2.1,4.73-8.26L64.48,46c1.34-5.39,1.3-10.83-.13-17.59L70.91,23,66,14.6l-8.79,2.32A33.24,33.24,0,0,0,42.8,8.45L40.32,0H30.7L28.38,8.36l0,.12a33.91,33.91,0,0,0-14.56,8.44l-1.25-.35c-1-.28-1.87-.53-2.78-.77l-3-.72L5,14.66.33,22.83l6.36,6.58C5.18,34.67,5.22,40,6.83,47L0,52.2l5,8.59,8.81-2.07A34.16,34.16,0,0,0,28.29,67ZM10.26,47l0-.16a28.82,28.82,0,0,1,.22-18.69l.06-.18L4,22.87l2.64-4.55,7.72,2.05.11-.08c.81-.61,1.59-1.23,2.36-1.84a44.69,44.69,0,0,1,5.27-3.79,43.59,43.59,0,0,1,5.8-2.61c1-.38,2-.77,3-1.22l.12-.05L33.16,3.3h4.73l2.33,7.94.16,0A29,29,0,0,1,56.1,20.36l.11.13,8.2-2.15,2.66,4.32-6.28,4.78,0,.18c1.94,7.42,1.91,13.55-.08,19.87l-.06.18,6.38,5.06-2.48,4.4L56.38,55l-.12.12a31,31,0,0,1-15.91,9.13l-.16,0-2.27,8H33.26l-2.34-7.8,0-.16-.16,0A29.68,29.68,0,0,1,15,55.13L14.88,55,6.6,57.2l-2.33-4Z"/><path class="c" d="M60.14,12.84a26.51,26.51,0,0,0,3.15.25q9.42,0,18.85,0c6.57,0,13.15,0,19.72,0,5,0,8,2.3,8.47,6.44a77.18,77.18,0,0,1,.18,9.9c0,1.29-.06,2.61-.07,3.95l-.8-.9c-.91-1-1.69-1.89-2.53-2.75a2,2,0,0,0-1.71-.81c-.55.1-1,.58-1.37,1.47l-.06.15.1.13a53.45,53.45,0,0,0,8.14,9l.21.18.18-.21,1.78-2c1.89-2.16,3.67-4.21,5.4-6.32a1.86,1.86,0,0,0,.16-1.4,4.15,4.15,0,0,1,0-.59v-.18l-1.17-.56-5,4.66c0-1.23,0-2.43,0-3.61,0-3.08,0-6,0-8.92A10.7,10.7,0,0,0,105,10.11a17.12,17.12,0,0,0-3.63-.41c-7.53,0-15.19,0-22.59,0H75q-6.8,0-13.6,0h-.17c-1.24,0-2.76,0-3,2.71l0,.27.28,0Z"/><path class="c" d="M73.55,118.55a8.09,8.09,0,0,0-2.1-.43c-2.65-.07-5.33-.07-7.94-.06H51.67c-7.08,0-14.4,0-21.59,0-3.62,0-6.87-2.5-7.26-5.54a48.78,48.78,0,0,1-.16-7.39c0-.93.05-1.89.06-2.86l4.37,4.46,1.13-.45v-.17a6.7,6.7,0,0,1,.13-.68c.13-.62.26-1.2,0-1.57-1.68-2.1-3.47-4.15-5.36-6.33L21,95.24,20.81,95l-.21.24-2,2.22c-1.92,2.14-3.73,4.17-5.43,6.24-.32.39-.16,1,0,1.68.06.26.12.52.15.75l0,.15,1.41.65,3.79-5.22.5.31v2.27c0,1.74,0,3.48,0,5.23,0,7,5,12,12,12q13,0,26,0h4.47c3.65,0,6.95,0,10.14,0,1.18,0,2.64,0,3-2.35l0-.26-.26-.06Z"/><path class="c" d="M119.24,53.94l0,.23h.31a4.21,4.21,0,0,0,4-2.5,2.93,2.93,0,0,0,0-1.56c0-.29-.09-.62-.12-1l0-.43-.38.21C119.55,50.85,118.91,51.7,119.24,53.94Z"/><path class="c" d="M99.3,39.72a4.21,4.21,0,0,0-1.53,2.92,4.14,4.14,0,0,0,1.23,3l.17.18.2-.14a3.56,3.56,0,0,0,1.56-2.39,4.74,4.74,0,0,0-1.22-3.52l-.18-.24Z"/><path class="c" d="M75.61,49.36,74.43,50.7l.12.18c1.74,2.59,2.37,3.26,3.74,3.26a7.41,7.41,0,0,0,1-.08l.24,0v-.25a5.19,5.19,0,0,0-1.65-3.47,3.05,3.05,0,0,0-2.12-1Z"/><path class="c" d="M133.39,73.48a4.5,4.5,0,0,0-3.33-1.13,3.57,3.57,0,0,0-2.43,1.56l-.15.2.18.17a4.33,4.33,0,0,0,2.94,1.29,3.87,3.87,0,0,0,.48,0,3.29,3.29,0,0,0,2.38-1.71l.12-.21Z"/><path class="c" d="M68.85,72.39a4.4,4.4,0,0,0-3.52,1.07l-.19.14.11.22a2.84,2.84,0,0,0,2.6,1.72A7.4,7.4,0,0,0,71,74.61l.26-.13-.14-.26A3.4,3.4,0,0,0,68.85,72.39Z"/><path class="c" d="M97.59,52.75a2.23,2.23,0,0,0-1.82-.26,20.27,20.27,0,0,0-16.18,15,2.16,2.16,0,0,0,.13,1.83,2.45,2.45,0,0,0,1.83.82l.2,0,.09-.19c.1-.24.21-.47.31-.7a13.87,13.87,0,0,0,.64-1.54,17.32,17.32,0,0,1,13-12,8.48,8.48,0,0,0,1.68-.65l.65-.29.19-.08v-.19A2.3,2.3,0,0,0,97.59,52.75Z"/><path class="c" d="M35.27,57.7c.27,0,.54,0,.8,0A19.53,19.53,0,0,0,55.61,37.46a19.53,19.53,0,0,0-19.75-19.8h-.22a19.46,19.46,0,0,0-14.25,5.78A20.47,20.47,0,0,0,15.54,38,19.88,19.88,0,0,0,35.27,57.7ZM18.71,37.77a16.8,16.8,0,0,1,4.92-12A17.25,17.25,0,0,1,35.88,21H36a16.5,16.5,0,0,1,16.33,16.9A16.83,16.83,0,0,1,35.53,54.61h0a16.76,16.76,0,0,1-11.92-5A16.59,16.59,0,0,1,18.71,37.77Z"/></svg>