<svg xmlns="http://www.w3.org/2000/svg" viewBox="0 0 120.84 125.85"><defs><style>.a{fill:none;stroke:#cfcfcf;stroke-miterlimit:10;stroke-width:3px;}.b{fill:#d9804f;}</style></defs><rect class="a" x="-71.11" y="-27.36" width="263.06" height="325.48" rx="53.91"/><path class="b" d="M32.45,125.85c-1.47-.31-3-.53-4.41-.94-10-2.83-16.58-9.2-19.88-19-.29-.86-.63-1.15-1.52-1.1-1.39.09-2.79,0-4.18,0a2.28,2.28,0,0,1-2.32-1.49,2.34,2.34,0,0,1,.74-2.56c.88-.91,1.77-1.82,2.7-2.68.49-.45.44-.74,0-1.17-.93-.86-1.82-1.76-2.7-2.68a2.28,2.28,0,0,1-.67-2.57,2.34,2.34,0,0,1,2.36-1.44c1.39,0,2.78-.07,4.17,0,.85.05,1.17-.24,1.43-1A27.82,27.82,0,0,1,23.72,71.65a28.3,28.3,0,0,1,36.7,13.07,2.18,2.18,0,0,0,.8,1.13c0-2.31,0-4.49,0-6.67,0-1.14.33-2.5-.17-3.37s-2-.7-3-1.07c-9.79-3.53-16.28-10.23-19.34-20.2-.27-.86-.6-1.16-1.5-1.14a25.1,25.1,0,0,1-5.27-.16A12.55,12.55,0,0,1,21.47,40.76c-.08-4.91,0-9.83,0-14.74,0-2.47,1.34-3.78,3.83-3.81,3.64,0,7.29,0,10.94,0,1,0,1.4-.22,1.32-1.28-.09-1.31,0-2.62,0-3.93A3.4,3.4,0,0,1,41,13.4c.45,0,.9,0,1.36,0H74.59c2,0,2.87.6,2.84,1.9s-.85,1.79-2.81,1.79c-10.65,0-21.3,0-31.95,0-1.2,0-1.49.32-1.48,1.5.05,9.09,0,18.19,0,27.28,0,13.19,8.47,23.59,21.35,26.31,2.06.43,2.33.77,2.33,2.88,0,3.28,0,6.56,0,9.83,0,.87.26,1.15,1.11,1.1a30.64,30.64,0,0,1,3.32,0c.85,0,1.13-.25,1.12-1.11-.05-3.32,0-6.64,0-10,0-1.93.33-2.32,2.24-2.72A26.48,26.48,0,0,0,89.09,61.79a1.32,1.32,0,0,0,.08-1.73,16.53,16.53,0,0,1,3.08-20.64c.78-.72.86-1.1-.1-1.64-2.44-1.37-3.27-3.49-3.17-6.27.17-4.42,0-8.85.07-13.27,0-.89-.2-1.27-1.15-1.19a22.11,22.11,0,0,1-2.7,0c-1.27,0-2.06-.74-2.09-1.79s.8-1.83,2.12-1.88c.9,0,1.81-.06,2.7,0s1.13-.22,1.12-1.09C89,9.88,89,7.47,89,5.05s1.14-3.64,3.59-3.65q11.23,0,22.48,0c2.39,0,3.57,1.18,3.57,3.54,0,9.3,0,18.6,0,27.9,0,2.23-1.2,3.63-2.9,4.8-1.24.86-1.21.9-.16,1.92a16.66,16.66,0,0,1,.91,23.27,17,17,0,0,1-23.48,1.78c-.74-.63-1-.6-1.65.16A29.44,29.44,0,0,1,75.26,75.31a1.3,1.3,0,0,0-1.18,1.58c.06,2.66,0,5.33,0,8,0,.79.22,1.09,1,1.06,1.64,0,3.28,0,4.92,0,3.72.07,5.94,2.31,6,6,0,4.22,0,8.44,0,12.65,0,1.9-.26,1.64,1.72,1.67a9,9,0,0,1,1.47.1,2.84,2.84,0,0,1,2.51,2.75q.09,3.45,0,6.88a2.83,2.83,0,0,1-2.63,2.77,12,12,0,0,1-1.59.06H55a2.74,2.74,0,0,0-1.93.57,27.53,27.53,0,0,1-14.69,6.25,2.2,2.2,0,0,0-.56.2ZM15.74,92.28c.17-.48.26-.74.35-1a20.07,20.07,0,0,1,32.68-8.52,19.75,19.75,0,0,1,5.92,10,1.84,1.84,0,1,1-3.52,1.06c-.11-.31-.18-.63-.27-1a16.41,16.41,0,0,0-31.69.88c-.45,1.93-.45,1.93,1.58,1.93a12.14,12.14,0,0,1,1.35,0c.92.12,1.31-.17,1.57-1.16a11.87,11.87,0,1,1,14.19,14.6A12,12,0,0,1,24.14,102c-.36-.88-.12-2.21-1.06-2.58s-2,0-3-.11-1.15.31-1,1.25a16.41,16.41,0,0,0,30.86,4.16,27.69,27.69,0,0,0,1.24-3.33,1.68,1.68,0,0,1,1.55-1.21,1.75,1.75,0,0,1,1.76.89,2.39,2.39,0,0,1,0,2,20.09,20.09,0,0,1-38.35.84c-.12-.37-.08-.84-.54-1.09A5.27,5.27,0,0,1,13,104.54c-1.3.17-1.2.74-.83,1.71a24.62,24.62,0,0,0,47.52-6.2c.86-9.43-2.61-17.19-10.38-22.64s-16.21-6-24.8-2A23.68,23.68,0,0,0,12,89.17c-.12.35-.72.93.23,1.1A6.69,6.69,0,0,1,15.74,92.28Zm88.14-87.2c-3.35,0-6.71,0-10.06,0-.84,0-1.13.22-1.13,1.1,0,4.91,0,9.82,0,14.73a1.76,1.76,0,0,0,.76,1.56q4.86,3.63,9.69,7.33a.94.94,0,0,0,1.36,0q4.81-3.7,9.69-7.33a1.83,1.83,0,0,0,.8-1.66q0-7.36,0-14.73c0-.83-.28-1-1.06-1C110.59,5.1,107.24,5.08,103.88,5.08Zm0,33.47A13.14,13.14,0,1,0,117.16,51.7,13.21,13.21,0,0,0,103.92,38.55Zm-31.7,67.72c2.94,0,5.89,0,8.84,0,1.06,0,1.29-.33,1.27-1.32,0-4.22,0-8.44,0-12.65,0-2.15-.54-2.7-2.68-2.71H63.91c-1.52,0-1.43,0-1.2,1.52.19,1.25.69,1.63,2,1.58,3.19-.12,6.38,0,9.58,0,1.41,0,2.31.94,2.06,2.12a1.92,1.92,0,0,1-2.17,1.56c-3.24,0-6.47,0-9.71,0-1.41,0-.89.89-1,1.54s.07,1.19,1,1.17c2.5-.07,5,0,7.5,0,1.46,0,2.27.67,2.27,1.82s-.81,1.85-2.26,1.86H65.84c-2.77,0-2.73,0-3.47,2.62-.24.86,0,1,.76,1C66.16,106.25,69.19,106.27,72.22,106.27ZM30.05,99.35H28.82c-1.79,0-1.83.06-1,1.72A8.19,8.19,0,0,0,43.36,97.9a8.18,8.18,0,0,0-15.15-4.66c-.42.69-1.13,1.52-.79,2.2s1.34.18,2.06.21a4.22,4.22,0,0,0,3.65-1.08c1.32-1.31,3.61-.86,4.84.57a3.67,3.67,0,0,1-.13,4.92,3.4,3.4,0,0,1-4.86.33A3.32,3.32,0,0,0,30.05,99.35ZM57.4,115.14H76.08c3.65,0,7.29,0,10.93,0,.77,0,1.11-.19,1.06-1a30.86,30.86,0,0,1,0-3.19c0-.73-.17-1-1-1-8.55,0-17.1,0-25.65,0-.41,0-.82-.06-1.06.42A38.58,38.58,0,0,1,57.4,115.14ZM31.34,25.89c-1.72,0-3.44,0-5.15,0-.79,0-1.08.21-1.07,1,0,4.63,0,9.25,0,13.88a8.86,8.86,0,0,0,2.94,6.64c2.63,2.46,5.86,2.4,9.12,2.29.3,0,.38-.19.43-.48.28-1.65-.09-2.13-1.74-2.13-.57,0-1.14,0-1.71,0a6.22,6.22,0,0,1-6.31-6.32c-.07-3.32,0-6.63,0-9.95,0-1.64.68-2.28,2.35-2.29,2.13,0,4.26-.06,6.38,0,1.08,0,1-.62.92-1.27s.31-1.46-.9-1.42C34.86,25.93,33.1,25.89,31.34,25.89Zm83.65.88a1.86,1.86,0,0,0-1.1.57q-3.52,2.64-7,5.32c-2.42,1.83-3.54,1.83-6,0s-4.76-3.6-7.15-5.38c-.26-.2-.47-.61-1-.37a18.26,18.26,0,0,1,0,3.05c-.5,2.8.62,4.65,3,6a1.77,1.77,0,0,0,1.77.2,14.39,14.39,0,0,1,10.77-.58c2.6,1,4.29.34,6-1.37l.1-.07a1.37,1.37,0,0,0,.65-1.24C115,30.84,115,28.84,115,26.77ZM37.53,37.83c0-1.51,0-3,0-4.54,0-.76-.15-1.12-1-1.08-1.35.07-2.7,0-4.05,0-.68,0-.95.19-.94.9,0,2.53,0,5.07,0,7.61a2.55,2.55,0,0,0,2.72,2.69c.78,0,1.56,0,2.34,0s.93-.25.91-.93C37.51,40.94,37.53,39.39,37.53,37.83Zm-31.6,63.3c1.41,0,2.64-.09,3.86,0a4.09,4.09,0,0,0,3.87-1.57c.61-.75,2-1.28,1.91-2.08s-1.21-1.42-1.92-2.08-1.11-1.44-2-1.49c-1.85-.08-3.71,0-5.69,0C8.82,97.21,8.85,97.81,5.93,101.13Z"/><path class="b" d="M33.19,0a4.45,4.45,0,0,1,1.87,2.31,6.16,6.16,0,0,0,3.79,3.77c1.23.47,2.19,1.16,2.21,2.62a2.75,2.75,0,0,1-2.15,2.66,6.43,6.43,0,0,0-3.94,4,2.67,2.67,0,0,1-5.23,0,6.49,6.49,0,0,0-4-4,2.65,2.65,0,0,1,0-5.18,6.36,6.36,0,0,0,4-4A4.87,4.87,0,0,1,31.46,0Zm-.86,5.21a9.5,9.5,0,0,1-3.49,3.52,9.74,9.74,0,0,1,3.52,3.55A9.5,9.5,0,0,1,35.9,8.7,9.42,9.42,0,0,1,32.33,5.21Z"/><path class="b" d="M57.17,51.52c.23-1.27.48-2.85.79-4.41a1.8,1.8,0,0,0-.61-1.94c-1.06-.91-2-1.93-3-2.88a3.7,3.7,0,0,1-1.1-4.13,3.65,3.65,0,0,1,3.31-2.52,3.87,3.87,0,0,0,.49,0c1.59-.36,3.56.06,4.73-1S63.27,31.9,64,30.48c1.11-2.19,2.74-3,4.74-2.47a3.68,3.68,0,0,1,2.36,2c.7,1.38,1.42,2.76,2.09,4.16a1.2,1.2,0,0,0,1.08.8c1.54.19,3.08.45,4.61.67a3.72,3.72,0,0,1,3.26,2.6,3.65,3.65,0,0,1-1.09,4c-1.09,1.06-2.16,2.13-3.28,3.15a1.28,1.28,0,0,0-.44,1.39c.31,1.4.5,2.82.76,4.23a3.77,3.77,0,0,1-1.46,4,3.71,3.71,0,0,1-4.17.23c-1.19-.63-2.43-1.19-3.57-1.9a2.13,2.13,0,0,0-2.47,0,35.44,35.44,0,0,1-3.92,2A3.81,3.81,0,0,1,57.17,51.52Zm3.66.64c1.94-1,3.67-1.83,5.33-2.77a2.8,2.8,0,0,1,3,0c1.7.95,3.46,1.8,5.36,2.78-.35-2-.62-3.82-1-5.61a3.08,3.08,0,0,1,1.08-3.27c1.39-1.18,2.66-2.5,4.14-3.92-2.25-.33-4.22-.64-6.2-.89a2.54,2.54,0,0,1-2.14-1.59c-.84-1.76-1.74-3.5-2.73-5.48-.91,1.8-1.81,3.35-2.48,5A3.36,3.36,0,0,1,62,38.6c-1.72.16-3.43.48-4.93.7,1.26,1.38,2.47,2.82,3.8,4.13a2.88,2.88,0,0,1,1,3C61.42,48.2,61.18,50.06,60.83,52.16Z"/><path class="b" d="M103.5,80.07a2.53,2.53,0,0,1-1.64,2.51,9.56,9.56,0,0,0-6.09,6.1,2.72,2.72,0,0,1-5-.06,9.36,9.36,0,0,0-6-6,2.7,2.7,0,0,1,0-5,9.55,9.55,0,0,0,6.08-6.1,2.47,2.47,0,0,1,2.52-1.64,2.52,2.52,0,0,1,2.48,1.7,9.41,9.41,0,0,0,6,6A2.56,2.56,0,0,1,103.5,80.07Zm-10.21,5.2a11,11,0,0,1,5.2-5.17,10.94,10.94,0,0,1-5.22-5.2,11,11,0,0,1-5.18,5.23A10.78,10.78,0,0,1,93.29,85.27Z"/><path class="b" d="M104.49,41a10.54,10.54,0,0,1,9,5.74c.67,1.21.46,2.23-.49,2.8s-2,.2-2.74-1C107.39,43.7,101,43.29,98,47.7a7,7,0,0,0,1.44,9.47,7.2,7.2,0,0,0,9.86-.91c.06-.06.11-.13.16-.19,1.14-1.4,2.11-1.71,3.06-1s.93,1.92-.2,3.32a10.86,10.86,0,0,1-13.22,2.87A10.72,10.72,0,0,1,93.27,49.4C94.43,44.38,98.78,40.93,104.49,41Z"/></svg>