<svg xmlns="http://www.w3.org/2000/svg" viewBox="0 0 111.98 112"><defs><style>.a{fill:none;stroke:#cfcfcf;stroke-miterlimit:10;stroke-width:3px;}.b{fill:#d9804f;}</style></defs><rect class="a" x="-75.52" y="-35.75" width="263.06" height="325.48" rx="53.91"/><path class="b" d="M19.25,1.78c0,1.74,0,1.74-2.12,1.74-1.38,0-1.38,0-1.38-2.15C15.75,0,15.75,0,17.92,0,19.25,0,19.25,0,19.25,1.78Z"/><path class="b" d="M59.93,112a21.33,21.33,0,0,1-2.25-.78,8.5,8.5,0,0,1-5.17-8.07c0-8.64,0-17.28,0-25.92V33.92c0-5.75,3.67-9.41,9.44-9.41H95.61c5.69,0,9.37,3.67,9.37,9.36q0,26,0,52.06c0,.36-.25.89.18,1.08s.73-.23,1-.46a5.2,5.2,0,0,0,2.25-4.17c0-.29,0-.58,0-.87v-72c0-4-2-6-6-6q-39.21,0-78.41,0c-1.07,0-1.34-.26-1.3-1.31C22.81,0,22.74,0,24.94,0h77.87a8.71,8.71,0,0,1,9.06,7.49A10.11,10.11,0,0,1,112,9.25q0,36.24,0,72.5a8.66,8.66,0,0,1-6.35,8.88c-.6.2-.66.52-.65,1,0,3.68,0,7.37,0,11,0,4.78-2.5,8-7.16,9.13-.1,0-.18.11-.27.16Zm41.56-44.62c0-9.84,0-19.68,0-29.52,0-.92-.25-1.15-1.15-1.12-2.22.07-4.44.06-6.67,0a1.16,1.16,0,0,0-1.4,1C91.45,40.84,89.84,42,86.68,42H70.5A7.63,7.63,0,0,1,69,41.89a5,5,0,0,1-3.79-4.08c-.23-.93-.65-1.09-1.49-1.07q-3.33.09-6.66,0c-.87,0-1.08.23-1.08,1.08Q56,67.4,56,97c0,.9.29,1,1.1,1q21.65,0,43.29,0c.9,0,1.15-.2,1.15-1.12C101.47,87.06,101.49,77.22,101.49,67.38ZM78.74,28c-5.8,0-11.59,0-17.39,0a5.29,5.29,0,0,0-5.29,4.32c-.14.71,0,.95.78.94,3.1,0,6.2,0,9.3,0a1.82,1.82,0,0,1,2.11,1.94,11,11,0,0,0,.27,1.62c.36,1.37.8,1.69,2.24,1.69h16c1.43,0,1.88-.33,2.24-1.69a9.53,9.53,0,0,0,.26-1.51c.15-1.53.69-2,2.23-2.05,3.06,0,6.12,0,9.18,0,.77,0,.93-.23.79-.94A5.29,5.29,0,0,0,96.12,28C90.33,28,84.53,28,78.74,28Zm.12,73.49c-7.29,0-14.57,0-21.85,0-.8,0-1,.17-1,1,0,3.91,2.07,6,6,6H95.61c3.78,0,5.85-2.11,5.9-5.88,0-.9-.21-1.15-1.13-1.14C93.2,101.52,86,101.5,78.86,101.5Z"/><path class="b" d="M0,7.45c.16-.51.31-1,.48-1.54A8.77,8.77,0,0,1,8.53,0c1,0,2,0,3,0,.64,0,.77.22.78.82.06,2.69.08,2.69-2.71,2.7C6.29,3.52,4.21,5,3.62,7.71A8.08,8.08,0,0,0,3.5,9.34q0,31.5,0,63c0,.94.19,1.2,1.18,1.2,14.32,0,28.65,0,43,0,1,0,1.46.15,1.4,1.33C48.91,77,49,77,46.78,77c-14,0-28.07,0-42.1,0-.95,0-1.28.2-1.2,1.19.09,1.23,0,2.47,0,3.71A5.26,5.26,0,0,0,9.1,87.5q19.24,0,38.49,0c1.11,0,1.49.23,1.43,1.4C48.92,91,49,91,46.82,91c-2.63,0-5.25,0-7.88,0-.62,0-.92.16-1,.78a13.68,13.68,0,0,1-.48,1.91c-.23.71,0,.84.71.84,3.32,0,6.64,0,10,0,.71,0,.92.18.92.9C49,98,49,98,46.42,98c-3.68,0-7.36,0-11,0a2.27,2.27,0,0,0-2.12,3.21c.21.5.63.27,1,.27,4.56,0,9.11,0,13.67,0,.91,0,1.16.22,1.14,1.13C49,105,49,105,46.64,105H32.09c-1.78,0-2.34-.56-2.34-2.35,0-1,0-2,0-3a4.84,4.84,0,0,1,2.77-4.5A2.51,2.51,0,0,0,34,93.25c.51-2.25.55-2.25-1.7-2.25H9.62c-5.14,0-8.14-2.29-9.5-7.26,0-.06-.08-.12-.12-.17Z"/><path class="b" d="M10.19,39.26c0-1.07.75-1.53,1.28-2.16.33-.37,1-.64.89-1.14a12.16,12.16,0,0,0-1.1-2.61c-.09-.15-.62-.08-.94-.09-.55,0-1.1,0-1.64,0A1.7,1.7,0,0,1,7,31.44Q7,28,7,24.55a1.72,1.72,0,0,1,1.81-1.78H9c2.42-.06,2.41-.06,3.25-2.41.12-.34.11-.55-.14-.76a2.61,2.61,0,0,1-.23-.24c-2.42-2.5-2.42-2.53.07-5,1.14-1.14,2.26-2.28,3.41-3.4a1.83,1.83,0,0,1,2.94,0c1.79,1.69,1.81,1.67,4,.54.46-.24.4-.55.38-.89C22.51,6.67,23.69,7,26.4,7c1.6,0,3.2,0,4.81,0a1.79,1.79,0,0,1,2,2s0,.07,0,.1c0,2.37.17,2.52,2.48,3.21a.64.64,0,0,0,.75-.23L37.64,11a1.86,1.86,0,0,1,3,0q2.21,2.19,4.4,4.41a1.84,1.84,0,0,1,0,2.94c-1.69,1.8-1.68,1.79-.57,4,.16.32.32.45.65.42.11,0,.22,0,.33,0,3.53-.2,3.56.71,3.49,3.52,0,1.64,0,3.28,0,4.92,0,1.38-.68,2.22-2,2-2-.32-2.77.66-3.26,2.31-.13.45-.15.72.2,1a15,15,0,0,1,1.32,1.32,1.7,1.7,0,0,1,0,2.53c-1.6,1.65-3.22,3.28-4.87,4.87a1.72,1.72,0,0,1-2.54,0l-.16-.15c-1.78-1.67-1.77-1.66-4-.59-.31.14-.48.29-.45.63a3.23,3.23,0,0,1,0,.44c0,3.25-.18,3.4-3.39,3.4-1.71,0-3.42,0-5.14,0-1.3,0-2.1-.69-1.93-2,.25-1.85-.42-2.8-2.18-3.23-.52-.13-.84-.23-1.22.21-2.53,2.89-3.16,2-5.18-.11-1.09-1.13-2.21-2.23-3.32-3.33A1.84,1.84,0,0,1,10.19,39.26Zm26.11.24a2.51,2.51,0,0,1,1.48.77c1.39,1.31,1.4,1.31,2.72,0,1.1-1.11,1.1-1.11,0-2.26s-1.17-1.61-.38-3a15.18,15.18,0,0,0,1.42-3.41c.44-1.53.83-1.84,2.37-1.85s1.61,0,1.61-1.6v-.11c0-1.76,0-1.76-1.74-1.79-1.35,0-1.84-.38-2.19-1.66A14.33,14.33,0,0,0,40,20.79a1.89,1.89,0,0,1,.29-2.56c1.33-1.38,1.32-1.39-.07-2.79a.6.6,0,0,1-.08-.08c-.66-1-1.23-.82-2,0-1.23,1.37-1.67,1.37-3.31.45a13.71,13.71,0,0,0-3.43-1.36,1.92,1.92,0,0,1-1.65-2.1c0-1.84,0-1.84-1.91-1.84-1.57,0-1.57,0-1.58,1.63s-.33,1.93-1.76,2.33a15.76,15.76,0,0,0-3.8,1.62,1.84,1.84,0,0,1-2.47-.33c-1.39-1.33-1.4-1.32-2.72,0-1.11,1.11-1.11,1.11,0,2.26s1.17,1.62.39,3a13.57,13.57,0,0,0-1.47,3.62,1.93,1.93,0,0,1-2.11,1.65c-1.83,0-1.83,0-1.83,1.8s0,1.68,1.63,1.69,1.93.34,2.33,1.76A15,15,0,0,0,15.92,35c.77,1.35.69,1.86-.41,3s-1.12,1.14,0,2.26c1.32,1.31,1.33,1.33,2.64,0a1.81,1.81,0,0,1,2.35-.48,17.79,17.79,0,0,0,4.42,1.83,1.74,1.74,0,0,1,1.32,1.69c.07.7-.36,1.67.22,2s1.43,0,2.14.12c1,.15,1.23-.33,1.15-1.22s-.23-1.72.51-2.13C32.18,41.09,34.42,40.72,36.3,39.5Z"/><path class="b" d="M26.25,68c0-1,0-2,0-3a1.79,1.79,0,0,1,1.94-2h.11c2.42-.06,2.41-.06,3.25-2.43a.59.59,0,0,0-.16-.76l-.23-.23c-2.42-2.5-2.42-2.52,0-5,1.16-1.16,2.31-2.32,3.48-3.47,1-1,2.05-1.1,2.82,0,1.18,1.63,2.42,1.51,3.93.67.4-.22.64-.37.61-.87a14.28,14.28,0,0,1,0-1.85,1.71,1.71,0,0,1,1.78-1.81c2.12,0,4.23,0,6.34,0,.48,0,.68.16.62.63V48c.13,2.77.13,2.77-2.63,2.77H48c-.76,0-1.69-.25-2.25.1s-.17,1.4-.26,2.13a1.76,1.76,0,0,1-1.39,1.63,17.3,17.3,0,0,0-4.31,1.79,1.9,1.9,0,0,1-2.52-.59c-1.15-1.19-1.17-1.17-2.33,0s-1.29,1.29,0,2.57a1.85,1.85,0,0,1,.34,2.72,15.54,15.54,0,0,0-1.54,3.72,1.88,1.88,0,0,1-2.17,1.69,8,8,0,0,1-1,0c-.62-.07-.83.15-.81.78.05,1.21,0,2.41,0,3.61,0,.64-.12.88-.83.89-2.68,0-2.68,0-2.68-2.63Z"/><path class="b" d="M84.86,10.51c-3.46,0-6.92,0-10.38,0-.7,0-1-.1-1-.92,0-2.59,0-2.6,2.6-2.6,6.37,0,12.75,0,19.12,0,.88,0,1.08.26,1.07,1.1-.05,2.42,0,2.42-2.44,2.42Z"/><path class="b" d="M40.4,68.26c-2.09,0-2.09,0-1.69-1.91a8.86,8.86,0,0,1,7.72-6.82c.58-.05.91.06.82.73a4.68,4.68,0,0,0,0,.65,4.83,4.83,0,0,1-.06,1.83c-.26.58-1.09.31-1.64.54a4.77,4.77,0,0,0-3.27,3.51C42,68.16,41.43,68.52,40.4,68.26Z"/><path class="b" d="M19.23,84c-1.46,0-2.92,0-4.37,0-.64,0-.87-.12-.88-.83,0-2.69-.06-2.69,2.61-2.69,2.37,0,4.73,0,7.1,0,.59,0,.81.13.82.78.07,2.73.1,2.73-2.66,2.73Z"/><path class="b" d="M103.24,8.77c0,1.75,0,1.75-2.12,1.74-1.39,0-1.39,0-1.38-2.14C99.74,7,99.74,7,101.9,7,103.24,7,103.24,7,103.24,8.77Z"/><path class="b" d="M8.74,84C7,84,7,84,7,81.9c0-1.4,0-1.4,2.13-1.4,1.37,0,1.37,0,1.37,2.17C10.5,84,10.5,84,8.74,84Z"/><path class="b" d="M78.73,49A19.25,19.25,0,1,1,59.5,68.4,19.27,19.27,0,0,1,78.73,49ZM63,68.18A15.75,15.75,0,1,0,78.86,52.51,15.77,15.77,0,0,0,63,68.18Z"/><path class="b" d="M78.72,35c-2,0-4.08,0-6.12,0-.64,0-.87-.12-.88-.83,0-2.68-.06-2.68,2.62-2.68,3.49,0,7,0,10.48,0,.68,0,.94.13.94.88,0,2.63,0,2.63-2.57,2.63Z"/><path class="b" d="M78.68,106.75c-2,0-4.07,0-6.11,0-.7,0-.84-.22-.85-.87,0-2.65,0-2.65,2.65-2.65,3.46,0,6.92,0,10.38,0,.7,0,1,.09,1,.92,0,2.59,0,2.59-2.6,2.59Z"/><path class="b" d="M19.25,28A8.75,8.75,0,1,1,28,36.76,8.76,8.76,0,0,1,19.25,28ZM28,33.25a5.24,5.24,0,1,0-5.21-5.33A5.26,5.26,0,0,0,28,33.25Z"/><path class="b" d="M92.73,63A2,2,0,0,1,92,64.43Q84.36,72.11,76.67,79.8a1.75,1.75,0,0,1-2.85,0q-4.2-4.15-8.35-8.34c-1-1-1-1.89,0-2.93q2.37-2.41,4.79-4.79c1-1,1.87-1,2.93,0l.08.08c.69.57,1.19,1.76,2,1.68s1.28-1.08,1.9-1.7c2.32-2.31,4.63-4.63,7-6.94,1.18-1.18,2-1.19,3.16,0,1.56,1.53,3.09,3.08,4.64,4.63A2.15,2.15,0,0,1,92.73,63ZM75.16,76.15c.41-.07.58-.38.81-.6Q81.22,70.3,86.47,65c.65-.66,1.82-1.25,1.77-2.06s-1.15-1.3-1.73-2-.9-.68-1.52,0c-2.72,2.79-5.49,5.53-8.25,8.27a1.83,1.83,0,0,1-2.95.07c-.72-.63-1.27-1.94-2.14-1.79s-1.4,1.29-2.13,1.94c-.48.42-.44.69,0,1.12,1.75,1.7,3.46,3.44,5.19,5.17C74.86,75.89,75,76,75.16,76.15Z"/></svg>