<svg xmlns="http://www.w3.org/2000/svg" viewBox="0 0 99.83 99.65"><defs><style>.a{fill:#d9804f;}</style></defs><path class="a" d="M0,14.52a7.51,7.51,0,0,1,1.43-2.27,5,5,0,0,1,3.43-1.14q12.42,0,24.86,0,17.12,0,34.22,0a1.43,1.43,0,0,0,1.54-1,16.78,16.78,0,0,1,4.33-5.7c1-.86,1.83-.91,2.46-.16s.38,1.51-.53,2.35C67.23,10.88,65.54,16,67.11,22s5.49,9.54,11.4,10.93a15.16,15.16,0,1,0,6-29.71,15.35,15.35,0,0,0-6.94.32A1.51,1.51,0,0,1,75.82,3a1.37,1.37,0,0,1-.08-1.64A1.8,1.8,0,0,1,77,.65,18.08,18.08,0,0,1,92.64,32.5a1.84,1.84,0,0,0-.81,1.69q0,30.18,0,60.36c0,3.4-1.67,5.07-5.09,5.07q-40.7,0-81.41,0c-2.64,0-4.41-1-5.34-3.43ZM88.92,34.76a17.08,17.08,0,0,1-4,1.13c-.92.09-1.07.46-1.07,1.28q0,16.34,0,32.67c0,2.68-1,3.63-3.62,3.63H32.17a6.4,6.4,0,0,1-1.16,0,1.31,1.31,0,0,1-1.16-1.25,1.33,1.33,0,0,1,1-1.5,3.75,3.75,0,0,1,1.06-.12h48c.56,0,1.11.17,1.11-.82q0-16.38,0-32.76c0-.63-.18-.79-.8-.85a17.7,17.7,0,0,1-10.59-4.66,2,2,0,0,0-1.48-.55q-28.08,0-56.15,0c-.79,0-1,.16-1,1q0,18.81,0,37.63c0,.81.2,1,1,1,4.1,0,8.19,0,12.29,0,1.17,0,1.78.55,1.78,1.48s-.61,1.44-1.8,1.44c-4.39,0-8.78,0-13.16,0a2.82,2.82,0,0,1-3-3.06c0-1.3,0-2.6,0-3.9V31.21A2.89,2.89,0,0,1,11.17,28c.29,0,.59,0,.88,0H65.28a2.28,2.28,0,0,0,1.15-.1,27.89,27.89,0,0,1-1.31-2.7,1.25,1.25,0,0,0-1.42-.93q-29.83,0-59.67,0c-.87,0-1.13.19-1.13,1.1q0,34.61,0,69.22c0,1.7.41,2.12,2.13,2.12h81.7c1.77,0,2.16-.4,2.16-2.19V34.76ZM33.42,21.35h1.17q14.17,0,28.35,0c.72,0,1-.07.86-.92a15.62,15.62,0,0,1,.05-5.15c.2-1.25.22-1.25-1.08-1.25H4.59c-1.14,0-1.65.56-1.66,1.7,0,1.52.06,3.05,0,4.58,0,.9.27,1,1.09,1C13.8,21.34,23.61,21.35,33.42,21.35Z"/><path class="a" d="M87.6,12a1.43,1.43,0,0,1-2.22,1.3,8.41,8.41,0,0,0-2.44-1.16,4,4,0,0,0-2.58.15,1.69,1.69,0,0,0-.41,3,6,6,0,0,0,2.19,1,14.81,14.81,0,0,1,3.13,1.31c1.74,1,3,2.42,2.84,4.61a5.05,5.05,0,0,1-3.64,4.5c-1,.35-1.37.75-1.29,1.8a1.44,1.44,0,0,1-1.46,1.6,1.41,1.41,0,0,1-1.4-1.63A1.5,1.5,0,0,0,79,26.57a6.58,6.58,0,0,1-3.09-2,1.45,1.45,0,0,1-.13-2.16,1.42,1.42,0,0,1,2.15.06,5.54,5.54,0,0,0,5.17,1.58,2.78,2.78,0,0,0,1.22-.59,1.87,1.87,0,0,0-.15-3.29A12.53,12.53,0,0,0,81.08,19a9.13,9.13,0,0,1-2.8-1.33,4.49,4.49,0,0,1-2-4.21,4.47,4.47,0,0,1,3.06-3.93c.78-.29,1-.66.91-1.39a3.88,3.88,0,0,1,0-.59,1.37,1.37,0,0,1,1.34-1.4,1.28,1.28,0,0,1,1.5,1.3C83,9,83.8,9.4,85,9.73A5.67,5.67,0,0,1,87,10.82,1.4,1.4,0,0,1,87.6,12Z"/><path class="a" d="M66.69,86.48c-5.07,0-10.13,0-15.2,0-.64,0-1.08,0-1.09.86a1.42,1.42,0,0,1-2.84-.11c0-.73-.34-.75-.89-.75-5.1,0-10.2,0-15.3,0a5,5,0,0,1-.87,0,1.45,1.45,0,0,1,0-2.87,5.59,5.59,0,0,1,1.16,0q7.52,0,15,0c.61,0,.94-.07.94-.81a1.29,1.29,0,0,1,1.37-1.35,1.27,1.27,0,0,1,1.45,1.26c0,.93.5.9,1.16.89q15.06,0,30.1,0a4.55,4.55,0,0,1,1,0,1.45,1.45,0,0,1-.06,2.87,6.47,6.47,0,0,1-.88,0Z"/><path class="a" d="M40.43,58.59c0,.84-.34,1.38-1.07,1.55a1.36,1.36,0,0,1-1.69-.8,20.15,20.15,0,0,1-.86-2.28c-.19-.64-.54-.82-1.2-.8q-3,.06-5.94,0a1,1,0,0,0-1.11.79,21,21,0,0,1-.75,2c-.41,1-1.15,1.37-2,1.05S24.72,59,25.1,58c1.15-3.06,2.33-6.12,3.49-9.18.75-2,1.51-3.93,2.24-5.91.32-.89.83-1.58,1.85-1.58s1.54.63,1.88,1.55c1.85,5,3.74,9.94,5.62,14.92C40.29,58.07,40.37,58.38,40.43,58.59ZM30,53.35h3.48c1.91,0,1.92,0,1.24-1.79s-1.3-3.43-2-5.33Z"/><path class="a" d="M54.73,51c0,2.37,0,4.75,0,7.12,0,.78-.1,1.53-.95,1.84A1.42,1.42,0,0,1,52,59.26c-.31-.5-.56,0-.79.08a6.6,6.6,0,0,1-7.58-1.13,6.57,6.57,0,0,1,7.21-10.73c1,.44,1,.44,1-.69s0-2.15,0-3.22.55-1.62,1.4-1.65,1.46.6,1.52,1.66V51ZM48,57.13a3.65,3.65,0,0,0,.32-7.29A3.65,3.65,0,1,0,48,57.13Z"/><path class="a" d="M16,93a7.93,7.93,0,1,1,8-7.91A7.95,7.95,0,0,1,16,93ZM16,90a5,5,0,1,0-5-5A5,5,0,0,0,16,90Z"/><path class="a" d="M62.3,47a6.15,6.15,0,0,1,3.47,1.14,1.49,1.49,0,0,1,.57,2.17,1.43,1.43,0,0,1-2.14.28A3.36,3.36,0,0,0,61.91,50c-.41.05-.8.16-.9.61s.32.65.67.79c.78.33,1.57.62,2.35.95,2.15.91,3.14,2.42,2.85,4.34A4.25,4.25,0,0,1,62.76,60,6,6,0,0,1,58,58.24a1.49,1.49,0,0,1-.18-2.1,1.44,1.44,0,0,1,2.16,0,3.36,3.36,0,0,0,2.84,1A1.21,1.21,0,0,0,64,56.17c.12-.61-.41-.85-.84-1-.77-.33-1.59-.58-2.36-.9-2.15-.88-3.06-2.36-2.65-4.28A4,4,0,0,1,62.3,47Z"/><path class="a" d="M16,86.47a1.46,1.46,0,0,1-.06-2.91A1.46,1.46,0,0,1,16,86.47Z"/></svg>