<svg xmlns="http://www.w3.org/2000/svg" viewBox="0 0 116.33 106.66"><defs><style>.a{fill:#d9804f;}</style></defs><path class="a" d="M116.33,74.89a15.25,15.25,0,0,1-.94,1.9,5.75,5.75,0,0,1-5.19,2.68q-13.56,0-27.14,0c-4.69,0-9.38,0-14.08,0-.81,0-1.12.16-1.1,1q.08,4.77,0,9.54c0,.85.24,1.08,1.08,1.07,5.19,0,10.37,0,15.56,0,2.17,0,2.74.58,2.74,2.77,0,2.65,0,5.3,0,7.95,0,.78.25,1,1,.93h.11c3.11,0,3.18.13,2.82,3.28,0,.43-.18.63-.61.6h-.8q-31.56,0-63.13,0c-1.07,0-1.42-.22-1.38-1.35.09-2.55,0-2.6,2.53-2.53,1.06,0,1.44-.19,1.4-1.34-.1-2.57,0-5.15,0-7.72,0-2,.62-2.62,2.66-2.62,5.15,0,10.3,0,15.45,0,1,0,1.3-.19,1.28-1.23-.08-3.07-.07-6.14,0-9.2,0-1-.27-1.25-1.26-1.25-13.51,0-27-.06-40.53.07A6.31,6.31,0,0,1,0,72.86C.1,54,.05,35.16.05,16.31c0-4.3,2.28-6.6,6.56-6.6,6.4,0,12.8,0,19.19,0,1.21,0,1.45-.36,1.4-1.45-.09-1.81,0-3.63,0-5.45C27.18.57,27.74,0,30,0H86.53c2,0,2.66.62,2.67,2.63s0,3.94,0,5.9c0,.94.22,1.21,1.18,1.2,6.29,0,12.57,0,18.85,0,4.16,0,5.55.94,7.12,4.77Zm-31-28c-.49.55-.74.81-1,1.1q-3.91,4.65-7.81,9.31a3.15,3.15,0,0,1-1.42,1.07c-3.43,1.18-6.85,2.4-10.29,3.54a2,2,0,0,1-2.7-2.34c.52-3.32,1.08-6.64,1.57-10A5.28,5.28,0,0,1,65,46.85q9.85-11.67,19.65-23.38a2.78,2.78,0,0,0,.7-1.94c0-5.45,0-10.91,0-16.36,0-1-.3-1.31-1.33-1.31q-25.85,0-51.67,0c-1.09,0-1.3.35-1.3,1.35q0,31.62,0,63.25c0,1.12.33,1.36,1.4,1.36q25.73,0,51.44,0c1.11,0,1.48-.22,1.47-1.42-.07-6.69,0-13.39,0-20.09Zm-58.14-8c0-8,0-16,0-24.08,0-.91-.19-1.22-1.17-1.21-6.51,0-13,0-19.53,0-1.94,0-2.57.65-2.57,2.6q0,23.34,0,46.67C3.9,63.7,4.06,64,5,64q10.5-.08,21,0c1,0,1.2-.27,1.19-1.2C27.16,54.82,27.17,46.83,27.17,38.85Zm85.29.61V16.07c0-1.65-.67-2.48-2.12-2.48-6.77,0-13.55,0-20.32,0-.56,0-.84.12-.82.75,0,1.28,0,2.57,0,3.86,0,.7.25.74.81.51a6.92,6.92,0,0,1,3.12-.45,7.44,7.44,0,0,1,6.6,4.65,7.43,7.43,0,0,1-1.25,8.17c-2.84,3.44-5.73,6.85-8.61,10.26a2.49,2.49,0,0,0-.68,1.73q0,9.93,0,19.87c0,.84.2,1.09,1.07,1.08,7,0,14.08,0,21.12,0,.94,0,1.1-.31,1.1-1.16C112.45,55.06,112.46,47.26,112.46,39.46ZM58.13,75.59h51.65c2.1,0,2.68-.59,2.68-2.71,0-1.28-.06-2.57,0-3.86.06-.93-.2-1.2-1.17-1.19-6.43,0-12.86,0-19.29,0-2.81,0-2.81,0-2.81,2.82,0,2.51-.5,3-3,3H29.35a2,2,0,0,1-2.17-2.21c0-1,0-1.9,0-2.84,0-.58-.17-.82-.77-.79-.87,0-1.74,0-2.61,0-6.29,0-12.57,0-18.85,0-.87,0-1.1.24-1.05,1.08.07,1.28,0,2.57,0,3.86,0,2.27.54,2.82,2.78,2.82Zm0,19.39c-8,0-16,0-24.05,0-.85,0-1.2.17-1.16,1.11.08,1.82.09,3.64,0,5.45,0,1,.24,1.26,1.25,1.26,10.81,0,21.63,0,32.45,0,5.18,0,10.36,0,15.54,0,.92,0,1.25-.19,1.21-1.17-.07-1.81-.07-3.63,0-5.44,0-.94-.23-1.21-1.18-1.2C74.21,95,66.19,95,58.17,95ZM74.3,53.54c.37,0,.48-.26.64-.45q8.25-9.83,16.5-19.63c.41-.49.29-.72-.14-1.07-1.61-1.32-3.21-2.65-4.78-4-.46-.41-.7-.32-1.07.11Q77.26,38.29,69,48.05c-.39.46-.48.73.06,1.16,1.62,1.3,3.19,2.66,4.79,4ZM58.19,79.47c-1.63,0-3.26,0-4.88,0-.64,0-1,.1-1,.86,0,3.33,0,6.66,0,10,0,.58.19.81.78.8q5.06,0,10.11,0c.59,0,.79-.22.79-.8,0-3.33,0-6.66,0-10,0-.75-.32-.87-1-.86C61.45,79.49,59.82,79.47,58.19,79.47ZM92.62,22.09c-1.57,0-2.56.92-3.51,2-.53.62-.61,1,.1,1.51,1.24.94,2.39,2,3.58,3,1.79,1.5,1.8,1.5,3.08-.5a3.68,3.68,0,0,0,.18-4A3.75,3.75,0,0,0,92.62,22.09ZM67.16,52.63l-.72,4.58,4.37-1.52Z"/><path class="a" d="M57.26,21.32c-7,0-14.08,0-21.12,0-.92,0-1.24-.19-1.22-1.17,0-2.72,0-2.72,2.72-2.72q20.31,0,40.64,0c1,0,1.3.19,1.27,1.23-.08,2.66,0,2.66-2.65,2.66Z"/><path class="a" d="M63.09,7.76c5.1,0,10.2,0,15.31,0,.87,0,1.16.21,1.14,1.12,0,2.79,0,2.79-2.76,2.79-9.63,0-19.27,0-28.91,0-1,0-1.35-.24-1.32-1.3.08-2.61,0-2.62,2.59-2.62Z"/><path class="a" d="M47.52,65.91c-3.82,0-7.64,0-11.46,0-.92,0-1.14-.28-1.13-1.16C35,62,34.92,62,37.62,62c7.12,0,14.23,0,21.34,0,1,0,1.21.28,1.2,1.22,0,2.69,0,2.69-2.66,2.69Z"/><path class="a" d="M61.15,27.17c3.17,0,6.35,0,9.53,0,.92,0,1.13.28,1.12,1.15,0,2.74,0,2.74-2.8,2.74-5.79,0-11.57,0-17.36,0-.9,0-1.24-.16-1.22-1.15.06-2.74,0-2.74,2.79-2.74Z"/><path class="a" d="M45.54,56.24c-3.21,0-6.42,0-9.64,0-.73,0-1-.21-1-1,0-2.93-.07-2.93,2.83-2.93,5.78,0,11.57,0,17.35,0,.87,0,1.17.2,1.16,1.12,0,2.77,0,2.77-2.79,2.77Z"/><path class="a" d="M57.22,40.73c-2,0-3.93,0-5.89,0-.7,0-.89-.22-.9-.91,0-3-.07-3,2.88-3,3.21,0,6.42,0,9.63,0,.84,0,1.1.22,1.1,1.08,0,2.83,0,2.83-2.85,2.83Z"/><path class="a" d="M40.82,36.84c1.62,0,3.24,0,4.87,0,.68,0,.89.21.91.91,0,3,.08,3-2.88,3-2.6,0-5.21,0-7.81,0-.73,0-1-.21-1-1,0-3-.07-2.94,2.83-2.94Z"/><path class="a" d="M38.83,11.66c-1,0-2,0-2.95,0-.64,0-.93-.14-1-.87-.1-3-.12-3,2.87-3,1.29,0,2.58,0,3.86,0,.75,0,1.06.15,1.07,1,0,2.92,0,2.92-2.87,2.92Z"/><path class="a" d="M36.86,31C35,31,35,31,35,29.13s0-2,2-2,1.92,0,1.92,1.91S38.83,31,36.86,31Z"/><path class="a" d="M46.58,29.06c0,2,0,2-2,2-1.84,0-1.84,0-1.84-1.83,0-2,0-2,2.09-2C46.58,27.17,46.58,27.17,46.58,29.06Z"/><path class="a" d="M108.59,71.83c0,1.85,0,1.85-1.85,1.85-2,0-2,0-2-2,0-1.85,0-1.85,1.85-1.85C108.59,69.8,108.59,69.8,108.59,71.83Z"/></svg>