<svg xmlns="http://www.w3.org/2000/svg" viewBox="0 0 109.96 109.97"><defs><style>.a{fill:#fff;}</style></defs><path class="a" d="M110,33.29a58.25,58.25,0,0,1-1.29,6.7,31.12,31.12,0,0,1-26.84,22.1c-.89.07-1.2.33-1.19,1.28,0,8,0,16,0,24.05,0,4.58-2.46,8-6.5,9.31a11.52,11.52,0,0,1-3.5.4q-19.81,0-39.62,0a3.1,3.1,0,0,0-2,.64C23.9,101.52,18.7,105.26,13.52,109a3.87,3.87,0,0,1-3.31.85,3.67,3.67,0,0,1-2.88-3.77c0-2.76,0-5.51,0-8.27a1,1,0,0,0-.8-1.12,9.06,9.06,0,0,1-6.53-9q0-22.5,0-45C0,36.92,3.88,33,9.62,33Q28,33,46.34,33c1.36,0,1.36,0,1.34-1.39A31.1,31.1,0,0,1,75.53.19,1,1,0,0,0,76.24,0H81.4a5.71,5.71,0,0,0,.71.19A31.17,31.17,0,0,1,108.87,23c.53,2,.73,4,1.09,6ZM11.1,106.05c.42,0,.65-.29.92-.48,5.14-3.71,10.28-7.41,15.39-11.15a4.71,4.71,0,0,1,3-1q20.29,0,40.59,0c3.8,0,6-2.2,6-6,0-8.06,0-16.11,0-24.17,0-.91-.33-1.15-1.16-1.2a25,25,0,0,1-6.29-1.25,7.3,7.3,0,0,0-2.32-.36H12a6.2,6.2,0,0,1-1.49-.11,1.79,1.79,0,0,1,.16-3.5,9.18,9.18,0,0,1,1.39-.05H59.57a2,2,0,0,0,1.25-.14c-.15-.33-.47-.45-.72-.65a30.4,30.4,0,0,1-7-7.45,1.78,1.78,0,0,0-1.72-.93q-19.7,0-39.41,0a6.66,6.66,0,0,1-1.18-.05,1.78,1.78,0,0,1-1.54-1.88A1.74,1.74,0,0,1,10.92,44c.35,0,.71,0,1.07,0q18.69,0,37.37,0c1,0,1.07-.21.69-1a23.31,23.31,0,0,1-1.67-5.42c-.13-.74-.45-.9-1.13-.9-12.64,0-25.27,0-37.91,0a5.44,5.44,0,0,0-5.67,5.7q0,22.71,0,45.42A5.47,5.47,0,0,0,9,93.45c1.44.12,2,.73,2,2.22,0,3.11,0,6.22,0,9.34A1.78,1.78,0,0,0,11.1,106.05ZM78.82,58.64A27.49,27.49,0,1,0,51.33,31.1,27.5,27.5,0,0,0,78.82,58.64Z"/><path class="a" d="M40.32,86.14H11.87a5.16,5.16,0,0,1-1.18,0,1.7,1.7,0,0,1-1.48-1.71,1.77,1.77,0,0,1,1.45-1.86,6.35,6.35,0,0,1,1.07,0H69a6.14,6.14,0,0,1,.86,0,1.81,1.81,0,0,1,0,3.61,7.65,7.65,0,0,1-1.07,0Z"/><path class="a" d="M40.26,73.3H12a8,8,0,0,1-1.29,0A1.65,1.65,0,0,1,9.22,71.7a1.72,1.72,0,0,1,1.2-1.93,3.21,3.21,0,0,1,1.27-.14H69a3,3,0,0,1,1.37.19,1.73,1.73,0,0,1,1.08,1.81A1.71,1.71,0,0,1,70,73.25a7.91,7.91,0,0,1-1.29,0Z"/><path class="a" d="M80.66,36.3V34.91c0-1.74,0-1.76-1.72-1.3-6.43,1.72-11.24,5.31-13.65,11.73A3.4,3.4,0,0,1,58.67,44c.43-5.6,1.74-10.94,4.87-15.7A25.28,25.28,0,0,1,79.49,17.4c1-.23,1.27-.61,1.19-1.56a26.61,26.61,0,0,1,0-3.22,3.59,3.59,0,0,1,6-2.55c4.88,4.25,9.77,8.5,14.62,12.78a3.66,3.66,0,0,1,0,5.74c-4.87,4.26-9.79,8.47-14.71,12.69a3.34,3.34,0,0,1-3.71.56,3.43,3.43,0,0,1-2.18-3.18c0-.78,0-1.57,0-2.36Zm3.67,2c.26-.12.34-.13.39-.17q6.9-6,13.8-11.92c.63-.53.17-.74-.18-1q-6.69-5.86-13.41-11.72c-.19-.17-.33-.49-.61-.39,0,1.76,0,3.47,0,5.18s-.56,2.19-2.12,2.4a21.24,21.24,0,0,0-14.92,8.72,26.21,26.21,0,0,0-4.67,12.5c.33,0,.33-.27.41-.41,4-7.39,10.54-10.89,18.6-12,2.08-.29,2.71.39,2.71,2.51S84.33,36.07,84.33,38.26Z"/></svg>