<svg xmlns="http://www.w3.org/2000/svg" viewBox="0 0 112.22 110.25"><defs><style>.a{fill:#d9804f;}</style></defs><path class="a" d="M112.22,13.93V84.5c-.32.24-.28.65-.42,1a5.63,5.63,0,0,1-5.08,3.78c-4.75.15-9.5.07-14.25,0a1.57,1.57,0,0,1-1.6-1.6A1.62,1.62,0,0,1,92.54,86c.29,0,.58,0,.88,0,4.16,0,8.32,0,12.49,0a2.76,2.76,0,0,0,3-3c0-1.06,0-2.12,0-3.18,0-1.65.22-1.45-1.46-1.45H4.79a6.59,6.59,0,0,1-.77,0c-.58-.07-.76.19-.74.75,0,1.1,0,2.2,0,3.29,0,2.67.93,3.58,3.64,3.58H83.74a9.78,9.78,0,0,1,1.21,0,1.51,1.51,0,0,1,1.47,1.6A1.54,1.54,0,0,1,85,89.29a6.42,6.42,0,0,1-1,0c-5.26,0-10.52,0-15.78,0-.78,0-1,.22-1,1q.06,4.88,0,9.76c0,.69.17.94.91.92,2.3,0,4.6,0,6.9,0a3.54,3.54,0,0,1,3.31,1.77,5.87,5.87,0,0,1,.15,5.48c-.77,1.71-2.36,2.06-4.13,2.06-12.2,0-24.4,0-36.6,0a9.65,9.65,0,0,1-1.42-.07,3.66,3.66,0,0,1-3.06-3,12.51,12.51,0,0,1-.09-2.29,3.8,3.8,0,0,1,4.08-3.91c2.23,0,4.46,0,6.68,0,.76,0,1-.17,1-1,0-3.17-.07-6.35,0-9.53,0-1-.32-1.17-1.23-1.17q-18.46,0-36.93,0C2.39,89.31,0,86.91,0,82.47V15.85c0-.41,0-.81,0-1.21a5,5,0,0,1,3.59-4.37A9.17,9.17,0,0,1,6,10.08q40.92,0,81.85,0a3.6,3.6,0,0,0,2.85-1.2c2.51-2.6,5.09-5.14,7.66-7.68a3.51,3.51,0,0,1,5.26-.07q1.78,1.69,3.48,3.49a3.5,3.5,0,0,1,.27,4.69c-.14.2-.4.32-.36.66.6.12,1.21.19,1.8.37C110.63,10.89,111.54,12.3,112.22,13.93ZM86,13.62l-.16-.26H5.66c-1.91,0-2.37.48-2.37,2.42q0,29,0,58.07c0,1,.2,1.28,1.23,1.28q51.61,0,103.22,0c1,0,1.23-.32,1.23-1.28q0-29,0-58.07a6.51,6.51,0,0,0,0-1,1.59,1.59,0,0,0-1-1.3,5.65,5.65,0,0,0-6.76,2.4c.93,0,1.8,0,2.66,0a2.64,2.64,0,0,1,2.6,2.35,11.12,11.12,0,0,1,.07,1.53V65.69c0,1.32,0,2.63,0,4a2.79,2.79,0,0,1-3,3H9.59c-2.92,0-3.8-.87-3.8-3.77V19.67a9.58,9.58,0,0,1,.07-1.42,2.58,2.58,0,0,1,2.6-2.34c3.87,0,7.75,0,11.62,0a1.59,1.59,0,0,1,1.7,1.61,1.64,1.64,0,0,1-1.67,1.66c-.29,0-.59,0-.88,0-3,0-6.06,0-9.09,0-.9,0-1.08.27-1.08,1.11q0,24,0,48c0,.85.21,1.11,1.09,1.11,6.68,0,13.37,0,20,0,1.2,0,2.63.35,3.55-.18s1.32-1.93,1.93-3,.64-1.12-.63-1.12H16c-2.39,0-3.37-1-3.37-3.29q0-17.47,0-34.95c0-2.72,1.48-4.26,4.18-4.27q13.76,0,27.5,0c2.69,0,4.16,1.57,4.17,4.27V42.74c0,.3,0,.6,0,1.21,1.3-2.23,2.43-4.18,3.56-6.14a2.86,2.86,0,0,1,2.22-1.59A3,3,0,0,1,57.41,38q4.81,8.4,9.67,16.78l4,7c.26-.43.48-.76.68-1.11,3.36-5.81,6.7-11.63,10.08-17.44a2.89,2.89,0,0,1,5.26,0c.75,1.25,1.46,2.53,2.19,3.79,1,1.8,2.1,3.59,3.11,5.41A1.63,1.63,0,1,1,89.63,54c-.2-.3-.37-.63-.56-.94l-4.53-7.85c-.26.42-.44.72-.62,1Q79.45,54,75,61.7c-.64,1.1-1.68,2.2-1.74,3.34s1.18,2.27,1.75,3.44a1.46,1.46,0,0,0,1.54.89c6.94,0,13.88,0,20.82,0,.31,0,.61,0,1,0-.21-.41-.35-.7-.51-1-1.4-2.43-2.81-4.86-4.21-7.3-.64-1.11-.49-2.06.38-2.58s1.77-.22,2.43.9c1,1.64,1.91,3.29,2.85,4.93s1.76,3,2.63,4.55c.19.34.41.62.85.51s.29-.52.33-.82a5,5,0,0,0,0-.55V20.51c0-.21,0-.44,0-.65,0-.53-.19-.7-.7-.69-1.46,0-2.92,0-4.38,0a1,1,0,0,0-.78.3c-1.75,1.77-3.5,3.52-5.3,5.33,3.35,1.75,5,4.42,4.41,8.17a6.71,6.71,0,0,1-5.12,5.7c-4,1.08-7-.6-9-4.24-1.56,1.56-3,3-4.49,4.51A5.26,5.26,0,0,1,76,40.21q-4.22,1.7-8.41,3.43a2.28,2.28,0,0,1-2.73-.35,2.33,2.33,0,0,1-.34-2.83c1.12-2.65,2.2-5.32,3.27-8a6.16,6.16,0,0,1,1.44-2.16q5.08-5.06,10.15-10.14c.27-.27.51-.56.9-1H28.82a6,6,0,0,1-1.2,0,1.55,1.55,0,0,1-1.39-1.69,1.53,1.53,0,0,1,1.53-1.55c.36,0,.73,0,1.1,0h53.8c.45,0,.93.12,1.33-.29C84.64,14.92,85.34,14.28,86,13.62ZM30.57,61.8c4.53,0,9.06,0,13.59,0,.82,0,1-.23,1-1q0-12.1,0-24.21c0-.81-.2-1.05-1-1.05q-13.59,0-27.17,0c-.85,0-1.12.23-1.12,1.1q.06,12,0,24.1c0,.87.24,1.12,1.1,1.11C21.51,61.78,26,61.8,30.57,61.8Zm32.92-6.71-.37.52c-1.56,2.36-4.19,2.3-5.64-.12-.45-.75-.89-1.51-1.31-2.28s-.74-.68-1.13,0c-.76,1.36-1.58,2.71-2.34,4.08a3.09,3.09,0,0,1-3.53,1.77c-.64-.13-.74.12-.72.66,0,.77,0,1.54,0,2.3a2.74,2.74,0,0,1-3.06,3c-1.49,0-3,0-4.49,0-.35,0-.74-.08-1,.32-.73,1.25-1.45,2.5-2.24,3.87h34Zm-7.38,45.85c2.34,0,4.67,0,7,0,.64,0,.88-.15.88-.85q-.06-5,0-10c0-.7-.24-.84-.89-.84q-7,0-14,0c-.65,0-.89.15-.88.84q.06,5,0,10c0,.7.24.85.88.84C51.44,100.92,53.77,100.94,56.11,100.94ZM30.46,32.24c4.57,0,9.13,0,13.7,0,.82,0,1.1-.23,1-1s0-1.75,0-2.63c0-2.72,0-2.72-2.71-2.72-8.4,0-16.8,0-25.2,0-1,0-1.45.3-1.38,1.37.07,1.31.06,2.63,0,3.94-.05.88.26,1.12,1.11,1.11C21.48,32.22,26,32.24,30.46,32.24Zm45.76,3.61c.16-.15.35-.32.53-.5l4.88-4.87q6.62-6.63,13.26-13.23c.58-.58.61-.89,0-1.44C93.93,15,93,14,92.17,13.1c-.39-.41-.64-.42-1,0Q81.92,22.33,72.7,31.52c-.41.4-.43.65,0,1.05,1,1,2,2,3,2.94C75.79,35.66,75.92,35.85,76.22,35.85ZM56.11,104.22c-6.1,0-12.2,0-18.3,0-1,0-1.35.3-1.34,1.31s.12,1.47,1.29,1.46q18.35-.06,36.7,0c1.07,0,1.28-.41,1.29-1.36s-.22-1.42-1.35-1.41C68.3,104.25,62.2,104.22,56.11,104.22ZM54.69,39.86c-1.9,3.28-3.62,6.45-5.53,9.49a5.15,5.15,0,0,0,.75,6.2c.81-1.39,1.6-2.79,2.42-4.16,1.66-2.8,4.91-2.78,6.6,0a14.12,14.12,0,0,0,1.45,2.34c.33-.55.62-1.06.93-1.55a.78.78,0,0,0,0-.9Zm38.55-8.15a4.06,4.06,0,0,0-2.82-3.9,1.65,1.65,0,0,0-2,.46,27.2,27.2,0,0,1-2.63,2.63A1.7,1.7,0,0,0,85.35,33a4,4,0,0,0,4.59,2.69A4,4,0,0,0,93.24,31.71ZM104.79,7c-.07-.09-.17-.24-.29-.37-1-1-2-2-3-3-.33-.34-.6-.31-.92,0-.89.91-1.79,1.82-2.71,2.7-.34.33-.34.55,0,.88q1.58,1.51,3.09,3.09c.36.38.58.27.88-.05.86-.89,1.75-1.75,2.62-2.63A.77.77,0,0,0,104.79,7ZM68.41,39.76l4.78-2L70.36,35ZM98.07,14.31c.24-.34.47-.68.71-1s0-.53-.22-.72c-1-1-2-2-3-3-.49-.52-.73-.13-1,.17s-.56.58-.07,1c1,1,2,2,3,3Z"/><path class="a" d="M56,83.71c-1.24,0-2.48,0-3.72,0a1.63,1.63,0,1,1-.05-3.25c2.58,0,5.17,0,7.75,0a1.62,1.62,0,1,1,0,3.24C58.65,83.74,57.34,83.71,56,83.71Z"/><path class="a" d="M26.14,48.44a4.37,4.37,0,0,1-3.91-2.21,1.25,1.25,0,0,0-1.38-.75,5.35,5.35,0,0,1-1.2,0,1.58,1.58,0,0,1-1.53-1.67c0-.94.6-1.63,1.49-1.55a3.54,3.54,0,0,0,3.3-1.59,4.39,4.39,0,0,1,7,.72,1.54,1.54,0,0,0,1.56.83c3.22,0,6.43,0,9.65,0A1.63,1.63,0,0,1,43,43.83a1.65,1.65,0,0,1-1.78,1.66h-.77c-3,0-6.06,0-9.09,0a1.26,1.26,0,0,0-1.3.71A4.39,4.39,0,0,1,26.14,48.44Zm1.29-4.64a1.25,1.25,0,0,0-1.33-1.22,1.27,1.27,0,0,0,0,2.54C26.9,45.14,27.34,44.67,27.43,43.8Z"/><path class="a" d="M24.88,54.92c-1.61,0-3.22,0-4.82,0-1.22,0-1.92-.6-1.95-1.6s.7-1.67,2-1.68c3.17,0,6.35,0,9.53,0A1.38,1.38,0,0,0,31,50.9a4.53,4.53,0,0,1,7.81,0,1.23,1.23,0,0,0,1.29.71,5.62,5.62,0,0,1,1.42,0A1.52,1.52,0,0,1,43,53.29a1.55,1.55,0,0,1-1.47,1.61,2.43,2.43,0,0,1-.66,0,2.22,2.22,0,0,0-2.38,1.17A4.48,4.48,0,0,1,31,55.63a1.26,1.26,0,0,0-1.28-.72C28.09,54.94,26.48,54.92,24.88,54.92Zm10.05-.35a1.23,1.23,0,0,0,1.23-1.35A1.16,1.16,0,0,0,34.91,52a1.19,1.19,0,0,0-1.32,1.27A1.25,1.25,0,0,0,34.93,54.57Z"/><path class="a" d="M34.23,28.76a1.61,1.61,0,0,1-1.59,1.6,1.64,1.64,0,1,1,.06-3.27A1.63,1.63,0,0,1,34.23,28.76Z"/><path class="a" d="M38.79,28.71a1.64,1.64,0,1,1-1.6-1.62A1.66,1.66,0,0,1,38.79,28.71Z"/><path class="a" d="M43.32,28.77a1.65,1.65,0,0,1-1.73,1.59,1.64,1.64,0,0,1,.19-3.27A1.69,1.69,0,0,1,43.32,28.77Z"/></svg>