<svg xmlns="http://www.w3.org/2000/svg" viewBox="0 0 1040.62 161.68"><defs><style>.a,.d,.e{fill:none;}.b{fill:#fff;}.c{fill:#d9804f;}.d,.e{stroke:#fff;stroke-miterlimit:10;stroke-width:3px;}.e{stroke-dasharray:11.92 9.93;}</style></defs><path class="a" d="M704.46,116.31l.6.09h24.2V90H716.68V91.5H727.5v17.74a.72.72,0,0,1,0,.67v.6h-23v-4.67a.71.71,0,0,1,0-.87V96.59h-1.77v16.2Z"/><rect class="a" x="172.86" y="121.27" width="3.77" height="2.36"/><path class="a" d="M673.6,150c-1.43,0-2,1.46-2,2.86,0,1.64.68,2.87,2,2.87s1.89-1.15,1.89-2.87C675.49,151.41,674.94,150,673.6,150Z"/><path class="a" d="M750.28,154.61a1.07,1.07,0,0,0,1.17,1.13,1.61,1.61,0,0,0,1.54-1.1,2,2,0,0,0,.06-.5v-1C751.49,153.09,750.28,153.46,750.28,154.61Z"/><path class="a" d="M141.91,113.25H191.4v-32H141.91Zm45.87-1.72h-5.34v-1.26h5.34Zm-44.1-27.3h18a5.52,5.52,0,0,1,9.66,0h17.16v25.06H143.68Z"/><path class="a" d="M702.84,149.83a2,2,0,0,0-1.84,1.93h3.51A1.72,1.72,0,0,0,702.84,149.83Z"/><rect class="a" x="178.2" y="121.27" width="3.77" height="2.36"/><rect class="a" x="167.05" y="121.27" width="4.24" height="2.36"/><path class="a" d="M74.74,149.06c-1.07,0-1.95,1-1.95,2.71,0,1.42.7,2.53,1.95,2.53a1.61,1.61,0,0,0,1.56-1.21,2.42,2.42,0,0,0,.1-.78v-1.4a2.23,2.23,0,0,0-.06-.54A1.63,1.63,0,0,0,74.74,149.06Z"/><path class="a" d="M814.53,150.1c-1.07,0-1.94,1-1.94,2.71,0,1.43.7,2.54,1.94,2.54a1.61,1.61,0,0,0,1.56-1.21,2.49,2.49,0,0,0,.1-.78V152a2.23,2.23,0,0,0-.06-.54A1.63,1.63,0,0,0,814.53,150.1Z"/><path class="a" d="M846.07,104.12a2.69,2.69,0,0,0,1.95,2.55,6.54,6.54,0,0,1-.38-2.11v-1.41a6.49,6.49,0,0,1,.2-1.52A2.67,2.67,0,0,0,846.07,104.12Z"/><path class="a" d="M161.91,149.83a2,2,0,0,0-1.83,1.93h3.51A1.72,1.72,0,0,0,161.91,149.83Z"/><path class="a" d="M850.8,114.09h2.33a4.52,4.52,0,0,1-.11-4.7l-2.29-.44V114A.08.08,0,0,0,850.8,114.09Z"/><rect class="a" x="742.84" y="74.56" width="3.5" height="4.03"/><path class="a" d="M173.07,150.14a1.85,1.85,0,0,0-1.74,1.46,2.44,2.44,0,0,0-.06.55v1.4a2.15,2.15,0,0,0,.06.53,1.8,1.8,0,0,0,1.74,1.4c1.26,0,2-1,2-2.69C175.11,151.31,174.45,150.14,173.07,150.14Z"/><path class="a" d="M756.35,74.48h-9v5.15H741.8V74.48h-1V93.85h15.6Zm-2,12.61H742.73V85.92h11.65Zm0-2.77H742.73V83.16h11.65Zm0-2.47H742.73V80.68h11.65Z"/><path class="a" d="M780,149.83a1.94,1.94,0,0,0-1.83,1.93h3.51A1.72,1.72,0,0,0,780,149.83Z"/><path class="a" d="M205.7,149.83a2,2,0,0,0-1.84,1.93h3.51A1.72,1.72,0,0,0,205.7,149.83Z"/><path class="a" d="M608.1,150.12c-1.35,0-2.05,1.21-2.05,2.71s.8,2.63,2,2.63a1.72,1.72,0,0,0,1.71-1.42,2.44,2.44,0,0,0,.08-.68v-1.25a4.73,4.73,0,0,0,0-.53A1.78,1.78,0,0,0,608.1,150.12Z"/><path class="a" d="M542.66,118.3a3,3,0,0,1,3-3.33,2.6,2.6,0,0,1,1.26.4,3.39,3.39,0,0,0-2.11-.89h-.19a3.44,3.44,0,0,0-3.42,3.61,3.45,3.45,0,0,0,3.25,3.24,3,3,0,0,0,.74,0A3.06,3.06,0,0,1,542.66,118.3Z"/><path class="a" d="M318.68,113.42l-.46.47-.48.46-.28.29,5.37,5.37a3.33,3.33,0,0,1,.25-.28l2.48-2.49a3.84,3.84,0,0,1,.45-.37l-5.39-5.39Z"/><path class="a" d="M314.34,82.34a19.57,19.57,0,1,0-19.93,32.43,6.25,6.25,0,0,1,6.32-4.42,6.33,6.33,0,0,1,5.69,4.48,19.57,19.57,0,0,0,7.92-32.49Zm-13.13,26.45c-7.66,0-13.87-1.36-13.87-3.05a1.19,1.19,0,0,1,.6-.89v-9.2h5.42v7.58l.95-.13V91.23h5.91V102.7h1V84.09h6.59v19c4.35.52,7.31,1.53,7.31,2.69C315.08,107.43,308.87,108.79,301.21,108.79Z"/><path class="a" d="M541.17,129.53c.52-3.11,2.61-5.91,5.13-6a5.18,5.18,0,0,0-1.42-.2c-3.28,0-5.87,3.18-6.48,6.25a.63.63,0,0,0,.13.53.61.61,0,0,0,.49.23h2.23A1.47,1.47,0,0,1,541.17,129.53Z"/><path class="a" d="M312.65,146.61c-2,0-3.17,1.91-3.17,4.47s1.2,4.38,3.19,4.38,3.16-1.91,3.16-4.46C315.83,148.64,314.7,146.61,312.65,146.61Z"/><path class="a" d="M213.37,87.37H199.48a2.37,2.37,0,0,0-2.37,2.36v30.76a2.37,2.37,0,0,0,2.37,2.37h13.89a2.37,2.37,0,0,0,2.37-2.37V89.73A2.37,2.37,0,0,0,213.37,87.37ZM204.8,88.7a.3.3,0,0,1,.29-.31H209a.29.29,0,0,1,.28.31v0a.29.29,0,0,1-.28.3h-3.94a.3.3,0,0,1-.29-.3Zm-1.21-.28a.34.34,0,0,1,.33.35.34.34,0,0,1-.33.35.34.34,0,0,1-.32-.35A.33.33,0,0,1,203.59,88.42Zm11.54,30.79a1.43,1.43,0,0,1-1.43,1.43H199.19a1.43,1.43,0,0,1-1.43-1.43V91.5a1.44,1.44,0,0,1,1.43-1.44H213.7a1.44,1.44,0,0,1,1.43,1.44Z"/><path class="a" d="M294.17,115.93a20.75,20.75,0,1,1,12.48.06c0,.1,0,.2,0,.3a6.37,6.37,0,0,1-.28,2.22,23.06,23.06,0,1,0-12-.06,6.21,6.21,0,0,1-.27-1.5A7,7,0,0,1,294.17,115.93Z"/><path class="a" d="M333.09,132a1.93,1.93,0,0,0,1.26.56,1.54,1.54,0,0,0,1.16-.42l2.48-2.49a1.49,1.49,0,0,0,.43-1.16,2,2,0,0,0-.56-1.26l-8.81-8.81a1.82,1.82,0,0,0-1.23-.53h0a1.53,1.53,0,0,0-1.1.44l-2.49,2.49a1.56,1.56,0,0,0-.45,1.15,1.85,1.85,0,0,0,.54,1.22Zm-7.69-10a.43.43,0,0,1,.61,0l8.26,8.26a.43.43,0,0,1,0,.61.46.46,0,0,1-.31.13.43.43,0,0,1-.3-.13l-8.26-8.26A.43.43,0,0,1,325.4,122.06Z"/><path class="a" d="M427.17,149.83a2,2,0,0,0-1.83,1.93h3.51A1.72,1.72,0,0,0,427.17,149.83Z"/><path class="a" d="M466.24,149.83a1.93,1.93,0,0,0-1.83,1.93h3.51A1.73,1.73,0,0,0,466.24,149.83Z"/><path class="a" d="M405.93,150.12c-1.35,0-2.05,1.21-2.05,2.71s.8,2.63,2,2.63a1.73,1.73,0,0,0,1.71-1.42,2.44,2.44,0,0,0,.08-.68v-1.25a4.73,4.73,0,0,0,0-.53A1.78,1.78,0,0,0,405.93,150.12Z"/><path class="a" d="M559.25,154.61a1.06,1.06,0,0,0,1.17,1.13,1.62,1.62,0,0,0,1.54-1.1,2,2,0,0,0,.06-.5v-1C560.46,153.09,559.25,153.46,559.25,154.61Z"/><path class="a" d="M536,150c-1.42,0-2,1.46-2,2.86,0,1.64.69,2.87,2,2.87s1.89-1.15,1.89-2.87C537.86,151.41,537.32,150,536,150Z"/><path class="a" d="M393.92,146.69h0c-.2.78-.39,1.78-.6,2.54L392.5,152h2.9l-.82-2.78C394.35,148.45,394.11,147.47,393.92,146.69Z"/><path class="a" d="M45.87,149.08c-1.35,0-2,1.21-2,2.71s.8,2.63,2,2.63A1.72,1.72,0,0,0,47.56,153a2.51,2.51,0,0,0,.08-.69v-1.24a4.73,4.73,0,0,0,0-.53A1.77,1.77,0,0,0,45.87,149.08Z"/><rect class="a" x="161.71" y="121.27" width="4.24" height="2.36"/><rect class="a" x="146.31" y="121.27" width="3.46" height="2.36"/><rect class="a" x="146.31" y="125.19" width="3.46" height="2.67"/><rect class="a" x="156.68" y="121.27" width="3.93" height="2.36"/><path class="a" d="M592.58,129.53c.52-3.11,2.61-5.91,5.13-6a5.18,5.18,0,0,0-1.42-.2c-3.27,0-5.86,3.18-6.48,6.25a.64.64,0,0,0,.14.53.59.59,0,0,0,.48.23h2.23A1.47,1.47,0,0,1,592.58,129.53Z"/><rect class="a" x="151.34" y="121.27" width="3.77" height="2.36"/><path class="a" d="M622.85,154.61a1.07,1.07,0,0,0,1.17,1.13,1.61,1.61,0,0,0,1.54-1.1,2,2,0,0,0,.06-.5v-1C624.06,153.09,622.85,153.46,622.85,154.61Z"/><path class="a" d="M141.91,131.32H191.4v-14H141.91Zm2.83-11.62h43.83v9.74H144.74Z"/><path class="a" d="M597.4,149.83a2,2,0,0,0-1.84,1.93h3.51A1.72,1.72,0,0,0,597.4,149.83Z"/><polygon class="a" points="183.54 123.62 183.7 123.62 183.7 125.19 178.2 125.19 178.2 127.86 187 127.86 187 121.27 183.54 121.27 183.54 123.62"/><rect class="a" x="151.34" y="125.19" width="3.77" height="2.67"/><rect class="a" x="172.86" y="125.19" width="3.77" height="2.67"/><path class="a" d="M594.07,118.3a3,3,0,0,1,3-3.33,2.6,2.6,0,0,1,1.25.4,3.36,3.36,0,0,0-2.11-.89h-.18a3.44,3.44,0,0,0-3.42,3.61,3.44,3.44,0,0,0,3.24,3.24,3,3,0,0,0,.74,0A3.07,3.07,0,0,1,594.07,118.3Z"/><rect class="a" x="156.68" y="125.19" width="14.61" height="2.67"/><path class="a" d="M412.65,80.06v50.05A3.85,3.85,0,0,0,416.5,134h22.61a3.85,3.85,0,0,0,3.85-3.85V84.92l-1,.77V128a2.34,2.34,0,0,1-2.34,2.34H416a2.35,2.35,0,0,1-2.35-2.34V82.93A2.35,2.35,0,0,1,416,80.59h13.87a2.82,2.82,0,0,1-.16-.92v-.73h-4.12a.49.49,0,0,1-.47-.5v-.06a.48.48,0,0,1,.47-.5h4.12V76.21H416.5A3.86,3.86,0,0,0,412.65,80.06Zm10.54-2.14a.57.57,0,0,1,0,1.14.57.57,0,0,1,0-1.14Z"/><path class="a" d="M566.78,117a.8.8,0,0,1,.76-.62l3.8-.14h0c8.81,0,16-5.3,16-11.82s-7.16-11.83-16-11.83-16,5.31-16,11.83c0,3.91,2.62,7.57,7,9.78a.85.85,0,0,1,.45.67,9.43,9.43,0,0,1-1.76,6.22C563.52,120.27,566.31,118.87,566.78,117Zm-6-5.79,0-10.18h8.69v.46a1.76,1.76,0,0,0,.35-.41c.74-1.25,2.46-5.18,2.48-5.22v0a1.06,1.06,0,0,1,1-.51h2.12l.16.1a1.19,1.19,0,0,1,.52,1v4.18h2.73a2.3,2.3,0,0,1,1.17.33,2.27,2.27,0,0,1,1.1,2v5.68a2.28,2.28,0,0,1-.82,1.75l-.75.63a2.3,2.3,0,0,1-1.46.53h-6.5l-1.48-1.27h-.61v1.06Z"/><path class="a" d="M568.7,71.56a3,3,0,0,1,3-3.33,2.6,2.6,0,0,1,1.26.4,3.39,3.39,0,0,0-2.11-.89h-.18a3.42,3.42,0,0,0-3.43,3.6,3.47,3.47,0,0,0,3.25,3.25,3.64,3.64,0,0,0,.74,0A3.06,3.06,0,0,1,568.7,71.56Z"/><polygon class="a" points="1015.79 115.49 1006.32 110.39 1002.83 112.27 1012.25 117.29 1015.79 115.49"/><polygon class="a" points="1007.04 132.45 1016.8 127.2 1016.8 116.98 1007.04 121.94 1007.04 132.45"/><path class="a" d="M565.06,83.55h2.23a1.44,1.44,0,0,1-.08-.75c.52-3.12,2.61-5.92,5.13-6.06a5.18,5.18,0,0,0-1.42-.2c-3.28,0-5.87,3.18-6.48,6.25a.63.63,0,0,0,.13.53A.61.61,0,0,0,565.06,83.55Z"/><path class="a" d="M984.68,89.58a5.49,5.49,0,0,0,5.77-5.77,5.53,5.53,0,0,0-5.2-5.2H985a5.49,5.49,0,0,0-5.48,5.79A5.53,5.53,0,0,0,984.68,89.58Z"/><path class="a" d="M886.48,109.32h0a5.18,5.18,0,0,0-3.7,1.55,5.35,5.35,0,0,0,3.69,9.11h0a5.19,5.19,0,0,0,3.71-1.55,5.39,5.39,0,0,0,1.55-3.77A5.31,5.31,0,0,0,886.48,109.32Zm0,9.25a3.87,3.87,0,1,1,3.82-3.85A3.85,3.85,0,0,1,886.49,118.57Z"/><path class="a" d="M6.32,147c0-1-.76-1.52-2.11-1.52a8.06,8.06,0,0,0-1.27.08v3.06h1C5.48,148.63,6.32,148,6.32,147Z"/><path class="a" d="M911.77,130.33h0a5.75,5.75,0,0,0,4.09-1.71,5.91,5.91,0,0,0-4.08-10.07h0a5.76,5.76,0,0,0-4.1,1.71,5.91,5.91,0,0,0,4.08,10.07Zm.07-10.1a4.27,4.27,0,1,1-4.23,4.26A4.25,4.25,0,0,1,911.84,120.23Z"/><path class="a" d="M988.83,149.83a1.94,1.94,0,0,0-1.83,1.93h3.51A1.72,1.72,0,0,0,988.83,149.83Z"/><path class="a" d="M911.77,108.22h0a5.72,5.72,0,0,0,4.09-1.72,5.9,5.9,0,0,0-4.08-10.06h0a5.72,5.72,0,0,0-4.1,1.71,5.91,5.91,0,0,0,4.08,10.07Zm.07-10.1a4.27,4.27,0,1,1-4.23,4.26A4.24,4.24,0,0,1,911.84,98.12Z"/><polygon class="a" points="718.28 100.95 726.32 108.12 726.32 103.86 720.32 98.79 718.28 100.95"/><polygon class="a" points="725.52 109.33 713.78 98.86 705.69 105.82 705.69 109.33 725.52 109.33"/><path class="a" d="M1031.13,149.83a2,2,0,0,0-1.83,1.93h3.51A1.72,1.72,0,0,0,1031.13,149.83Z"/><path class="a" d="M4,150.76h-1v3.7a9.26,9.26,0,0,0,1.15,0c1.35,0,2.54-.51,2.54-1.89S5.44,150.76,4,150.76Z"/><path class="a" d="M713.8,97l3.52,3.14L720.21,97l6.11,5.16V92.67h-9.71a3.58,3.58,0,0,1-1.2,2l-1.27,1.06a3.56,3.56,0,0,1-2.29.83h-6.16v7.35Z"/><path class="a" d="M768.93,121.18h-.11a4.57,4.57,0,0,1-1.66.22,8.81,8.81,0,0,0-4,2.31,7.2,7.2,0,0,1,4.47-1.66c4.31,0,7.91,4.35,8.78,9.21a.31.31,0,0,1,0,.1H777a1.15,1.15,0,0,0,1.12-1.38c-.86-4.32-4.51-8.8-9.14-8.8Z"/><path class="a" d="M766.55,99.14a.51.51,0,0,1,.28.43,6.26,6.26,0,0,1-1.25,4.25c1.67-.57,3.64-1.54,4-2.82a.52.52,0,0,1,.48-.39l2.56-.09h0c6,0,10.8-3.59,10.8-8s-4.84-8-10.8-8-10.79,3.59-10.79,8C761.81,95.17,763.58,97.64,766.55,99.14Zm1.21-7.49a3.07,3.07,0,0,1,2.79-2.85,3.25,3.25,0,0,0,4.38,0,3.07,3.07,0,0,1,2.8,2.79,1.49,1.49,0,0,1,0,.21,2.61,2.61,0,0,1-.67,1.85l-4.35,4.76-4.47-4.88a1.72,1.72,0,0,1-.4-.74A3.35,3.35,0,0,1,767.76,91.65Z"/><path class="a" d="M768.9,109.1a5,5,0,0,0-3.79,1.45,5.23,5.23,0,0,0-.48.56,4.73,4.73,0,0,1,3-.89,5.39,5.39,0,0,1,4.81,5.3,6.38,6.38,0,0,1-.23,2,5,5,0,0,0-3.34-8.39Z"/><polygon class="a" points="995.84 116.94 995.84 127.2 1005.26 132.26 1005.26 121.77 995.84 116.94"/><path class="a" d="M753,131V105.5H731v12.67h-6.48V131Zm-12.67-1h-2.51v-2.21h2.51Zm-5-6.08v-11.1l4.78,2.78,4.8,2.77-4.79,2.78Zm9.87,6.08h-2.51v-2.21h2.51Zm2.36-23.14h2.65V109h-2.65Zm0,20.93h2.65V130h-2.65Zm-4.87-20.93h2.51V109h-2.51Zm-4.86,0h2.51V109h-2.51Zm-5.16,0h2.66V109h-2.66Zm0,20.93h2.66V130h-2.66Zm-2.35,0V130h-2.66v-2.21Z"/><polygon class="a" points="1010.3 118.28 1000.94 113.28 996.88 115.47 1006.31 120.31 1010.3 118.28"/><path class="a" d="M21.56,153.56a1.07,1.07,0,0,0,1.17,1.13,1.62,1.62,0,0,0,1.54-1.09,2,2,0,0,0,.06-.51v-1C22.77,152,21.56,152.41,21.56,153.56Z"/><path class="a" d="M893.7,154.61a1.07,1.07,0,0,0,1.17,1.13,1.62,1.62,0,0,0,1.54-1.1,2,2,0,0,0,.06-.5v-1C894.91,153.09,893.7,153.46,893.7,154.61Z"/><path class="a" d="M29.66,110.71l.09-.58c.11-.74-.12-1.07-.75-1.07h-.85l-.41,2.75h.69A1.1,1.1,0,0,0,29.66,110.71Z"/><path class="a" d="M885.94,97.52h0a5.21,5.21,0,0,0,3.7-1.54A5.35,5.35,0,0,0,886,86.87h0a5.21,5.21,0,0,0-3.71,1.55,5.37,5.37,0,0,0-1.55,3.76A5.3,5.3,0,0,0,885.94,97.52Zm.06-9.13a3.86,3.86,0,1,1-3.82,3.85A3.85,3.85,0,0,1,886,88.39Z"/><path class="a" d="M886,98.86h0a6.56,6.56,0,0,1-5.19-2.59l-.11.08-7,4.22a12.09,12.09,0,0,1-.28,8.26l6.85,3.75a6.6,6.6,0,0,1,1.61-2.65,6.49,6.49,0,0,1,4.67-1.94,6.63,6.63,0,0,1,6.57,6.68v0L903.43,103,892.52,92.81a6.71,6.71,0,0,1-1.91,4.11A6.54,6.54,0,0,1,886,98.86Z"/><path class="a" d="M57.43,115.54l.8-5.42c.11-.75-.19-1-.75-1h-1l-1.11,7.44h1C56.94,116.55,57.32,116.28,57.43,115.54Z"/><path class="a" d="M16.3,108.9a4.11,4.11,0,1,1-3.91,5.35H9.15a7,7,0,0,0,2.18,3.63L19.46,125a3.07,3.07,0,0,0,2,.72h41a2.61,2.61,0,0,0,2.8-2.37V101.77a2.61,2.61,0,0,0-2.8-2.37h-41a3.07,3.07,0,0,0-2,.72l-8.13,7.08A7,7,0,0,0,9,111.45h3.48A4.11,4.11,0,0,1,16.3,108.9Zm38.62-1.29h2.81c1.78,0,2.51.91,2.27,2.57l-.79,5.27a2.74,2.74,0,0,1-3,2.57h-2.8Zm-7.71,0h2.23l.86,6.24h0l.93-6.23h1.58L51.29,118H49.47l-1.06-7.55h0L47.26,118h-1.6Zm-2.82,0L44.65,118H42.86l0-1.89H40.65L40.06,118H38.43l3.36-10.42Zm-11,0H36c1.84,0,2.52.79,2.28,2.4l-.12.82a2.43,2.43,0,0,1-1.48,2.1v0c.83.34,1,1.11.85,2.2l-.24,1.61a2.79,2.79,0,0,0,0,1.26H35.52a2.78,2.78,0,0,1,0-1.28l.24-1.64c.14-1-.16-1.32-1-1.32h-.61L33.58,118H31.81Zm-6.76,0h2.68c1.84,0,2.52.79,2.28,2.4l-.06.37A2.37,2.37,0,0,1,30,112.42v0c.9.35,1.16,1.12,1,2.22l-.13.85A2.74,2.74,0,0,1,27.84,118H25.05Z"/><path class="a" d="M911.77,87.11h0a5.71,5.71,0,0,0,4.09-1.71,5.91,5.91,0,0,0-4.08-10.07h0a5.73,5.73,0,0,0-4.1,1.72,5.91,5.91,0,0,0,4.08,10.06ZM911.84,77a4.27,4.27,0,1,1-4.23,4.26A4.24,4.24,0,0,1,911.84,77Z"/><path class="a" d="M36.36,111.17l.15-1c.11-.74-.12-1.07-.75-1.07h-.85l-.48,3.2h.7A1.11,1.11,0,0,0,36.36,111.17Z"/><polygon class="a" points="42.8 114.71 42.74 109.44 42.71 109.44 41.09 114.7 42.8 114.71"/><path class="a" d="M29.13,115.47l.14-.9c.14-1-.15-1.27-1-1.27h-.79L27,116.5h1C28.66,116.5,29,116.25,29.13,115.47Z"/><path class="a" d="M1028.18,89.58a5.54,5.54,0,0,0,5.21-5.19,5.49,5.49,0,0,0-5.49-5.79h-.29a5.54,5.54,0,0,0-5.2,5.2,5.49,5.49,0,0,0,5.77,5.77Z"/><rect class="b" x="305.05" y="25.17" width="2.45" height="12.75"/><rect class="b" x="305.05" y="45.58" width="2.45" height="12.75"/><rect class="b" x="171.13" y="47.34" width="2.51" height="13.08"/><rect class="b" x="171.13" y="26.4" width="2.51" height="13.08"/><rect class="b" x="42.53" y="47.34" width="2.51" height="13.08"/><rect class="b" x="42.53" y="26.4" width="2.51" height="13.08"/><rect class="b" x="426.03" y="28.53" width="2.35" height="12.25"/><rect class="b" x="426.03" y="48.13" width="2.35" height="12.25"/><rect class="b" x="884.17" y="26.02" width="2.2" height="11.47"/><rect class="b" x="884.17" y="44.36" width="2.2" height="11.47"/><rect class="b" x="1005.22" y="26.02" width="2.2" height="11.47"/><rect class="b" x="1005.22" y="44.36" width="2.2" height="11.47"/><rect class="b" x="729.57" y="26.02" width="2.2" height="11.47"/><rect class="b" x="729.57" y="44.36" width="2.2" height="11.47"/><rect class="b" x="569.99" y="26.02" width="2.2" height="11.47"/><rect class="b" x="569.99" y="44.36" width="2.2" height="11.47"/><rect class="b" x="38.53" y="87.98" width="1.72" height="9.75"/><rect class="b" x="41.77" y="87.98" width="3.14" height="9.75"/><rect class="b" x="46.52" y="87.98" width="2" height="9.75"/><rect class="b" x="50.43" y="87.98" width="1.59" height="9.75"/><rect class="b" x="35" y="87.98" width="2.27" height="9.75"/><rect class="b" x="53.29" y="87.98" width="4.83" height="9.75"/><rect class="b" x="59.45" y="87.98" width="2" height="9.75"/><polygon class="b" points="33.22 86.12 66.24 86.12 66.24 98.1 67.56 98.1 67.56 84.8 31.9 84.8 31.9 97.74 33.22 97.74 33.22 86.12"/><path class="b" d="M64.7,98.26V88h-2v9.77a4.78,4.78,0,0,1,1.89.51Z"/><path class="b" d="M62.44,127.34a4.28,4.28,0,0,0,4.47-4V101.77a4,4,0,0,0-2.27-3.51,4.78,4.78,0,0,0-1.89-.51H21.47a4.67,4.67,0,0,0-3.1,1.13L10.23,106a8.66,8.66,0,0,0-2.88,5.5H9a7,7,0,0,1,2.3-4.25l8.13-7.08a3.07,3.07,0,0,1,2-.72h41a2.61,2.61,0,0,1,2.8,2.37v21.54a2.61,2.61,0,0,1-2.8,2.37h-41a3.07,3.07,0,0,1-2-.72l-8.13-7.08a7,7,0,0,1-2.18-3.63H7.45a8.61,8.61,0,0,0,2.78,4.88l8.14,7.08a4.67,4.67,0,0,0,3.1,1.13Z"/><path class="b" d="M30.9,115.52l.13-.85c.16-1.1-.1-1.87-1-2.22v0a2.37,2.37,0,0,0,1.45-2.08l.06-.37c.24-1.61-.44-2.4-2.28-2.4H26.59L25.05,118h2.79A2.74,2.74,0,0,0,30.9,115.52Zm-2.75-6.46H29c.63,0,.86.33.75,1.07l-.09.58a1.1,1.1,0,0,1-1.23,1.1h-.69Zm-.63,4.24h.79c.81,0,1.1.3,1,1.27l-.14.9c-.11.78-.47,1-1.07,1H27Z"/><path class="b" d="M34.21,113.76h.61c.81,0,1.11.36,1,1.32l-.24,1.64a2.78,2.78,0,0,0,0,1.28h1.81a2.79,2.79,0,0,1,0-1.26l.24-1.61c.16-1.09,0-1.86-.85-2.2v0a2.43,2.43,0,0,0,1.48-2.1l.12-.82c.24-1.61-.44-2.4-2.28-2.4H33.35L31.81,118h1.77Zm.7-4.69h.85c.63,0,.86.33.75,1.07l-.15,1a1.11,1.11,0,0,1-1.23,1.1h-.7Z"/><path class="b" d="M38.43,118h1.63l.59-1.89h2.18l0,1.89h1.79l-.26-10.43h-2.6Zm4.31-8.57.06,5.27H41.09l1.62-5.27Z"/><polygon class="b" points="48.38 110.47 48.41 110.47 49.47 118.02 51.29 118.03 52.84 107.61 51.26 107.61 50.33 113.84 50.3 113.84 49.44 107.6 47.21 107.6 45.66 118.02 47.26 118.02 48.38 110.47"/><path class="b" d="M59.21,115.46l.79-5.27c.24-1.66-.49-2.57-2.27-2.57H54.92L53.38,118h2.8A2.74,2.74,0,0,0,59.21,115.46Zm-2.73-6.36h1c.56,0,.86.27.75,1l-.8,5.42c-.11.74-.49,1-1.06,1h-1Z"/><path class="b" d="M16.3,117.12a4.11,4.11,0,1,0-3.79-5.67H14.1a2.7,2.7,0,1,1-.2,2.8H12.39A4.12,4.12,0,0,0,16.3,117.12Z"/><path class="b" d="M12.39,114.25h3.47a1.4,1.4,0,1,0,0-2.8h-14a1.4,1.4,0,1,0,0,2.8H12.39Z"/><path class="c" d="M911.81,106.66a4.27,4.27,0,1,0-4.2-4.28A4.24,4.24,0,0,0,911.81,106.66Z"/><path class="b" d="M905.54,103.53l-.75.85a7.3,7.3,0,0,0,7,5.31h0a7.22,7.22,0,0,0,5.14-2.14A7.39,7.39,0,0,0,911.8,95h0a7.19,7.19,0,0,0-5.15,2.15,7.32,7.32,0,0,0-2.07,4.21l.9.84A1,1,0,0,1,905.54,103.53Zm2.15-5.38a5.72,5.72,0,0,1,4.1-1.71h0a5.9,5.9,0,0,1,4.08,10.06,5.72,5.72,0,0,1-4.09,1.72h0a5.91,5.91,0,0,1-4.08-10.07Z"/><path class="c" d="M911.81,128.77a4.27,4.27,0,1,0-4.2-4.28A4.24,4.24,0,0,0,911.81,128.77Z"/><path class="b" d="M905.66,125.35a1,1,0,0,1-.81.43,1,1,0,0,1-.24,0,7.33,7.33,0,0,0,7.16,6.07h0a7.19,7.19,0,0,0,5.14-2.15,7.39,7.39,0,0,0-5.13-12.59h0a7.23,7.23,0,0,0-5.14,2.15,7.4,7.4,0,0,0-2.07,4.18l.84.59A1,1,0,0,1,905.66,125.35Zm2-5.09a5.76,5.76,0,0,1,4.1-1.71h0a5.91,5.91,0,0,1,4.08,10.07,5.75,5.75,0,0,1-4.09,1.71h0a5.91,5.91,0,0,1-4.08-10.07Z"/><path class="c" d="M911.81,85.56a4.27,4.27,0,1,0-4.2-4.28A4.25,4.25,0,0,0,911.81,85.56Z"/><path class="b" d="M905.59,81.39a1,1,0,0,1-.2,1.37l-.62.47a7.32,7.32,0,0,0,7,5.36h0a7.19,7.19,0,0,0,5.14-2.15,7.38,7.38,0,0,0-5.13-12.58h0A7.22,7.22,0,0,0,906.64,76a7.39,7.39,0,0,0-2.14,5A1,1,0,0,1,905.59,81.39Zm2.1-4.34a5.73,5.73,0,0,1,4.1-1.72h0a5.91,5.91,0,0,1,4.08,10.07,5.71,5.71,0,0,1-4.09,1.71h0a5.91,5.91,0,0,1-4.08-10.06Z"/><path class="b" d="M904.77,83.23l.62-.47a1,1,0,0,0,.2-1.37A1,1,0,0,0,904.5,81a1.59,1.59,0,0,0-.29.15l-12,9a6.77,6.77,0,0,1,.31,2q0,.3,0,.6L903.43,103l-10.38,11.76a6.57,6.57,0,0,1-.59,2.71l11.83,8.18a.83.83,0,0,0,.32.14,1,1,0,0,0,.24,0,1,1,0,0,0,.81-.43,1,1,0,0,0-.25-1.36l-.84-.59-10.29-7.11,10.51-11.91.75-.85a1,1,0,0,0-.07-1.37l-.9-.84L893.9,91.41Z"/><path class="b" d="M873.35,108.83a13.08,13.08,0,0,1-.89,1.75l7,3.85a1,1,0,0,0,.4.11,6.81,6.81,0,0,1,.32-2Z"/><path class="b" d="M880.64,96.35l.11-.08a7,7,0,0,1-1-1.69.76.76,0,0,0-.18.09l-6.76,4.07a11.26,11.26,0,0,1,.77,1.83Z"/><path class="c" d="M886.51,110.84a3.87,3.87,0,1,0,3.8,3.88A3.85,3.85,0,0,0,886.51,110.84Z"/><path class="b" d="M893.05,114.67a6.63,6.63,0,0,0-6.57-6.68,6.49,6.49,0,0,0-4.67,1.94,6.6,6.6,0,0,0-1.61,2.65,6.81,6.81,0,0,0-.32,2,.28.28,0,0,0,0,.09,6.63,6.63,0,0,0,6.58,6.68h0a6.5,6.5,0,0,0,4.65-1.94,6.69,6.69,0,0,0,1.35-2,6.57,6.57,0,0,0,.59-2.71Zm-2.88,3.76a5.19,5.19,0,0,1-3.71,1.55h0a5.35,5.35,0,0,1-3.69-9.11,5.18,5.18,0,0,1,3.7-1.55h0a5.31,5.31,0,0,1,5.24,5.34A5.39,5.39,0,0,1,890.17,118.43Z"/><path class="c" d="M886,96.11a3.86,3.86,0,1,0-3.8-3.87A3.83,3.83,0,0,0,886,96.11Z"/><path class="b" d="M885.94,98.86h0a6.54,6.54,0,0,0,4.65-1.94,6.71,6.71,0,0,0,1.91-4.11q0-.3,0-.6a6.77,6.77,0,0,0-.31-2A6.61,6.61,0,0,0,886,85.53a6.69,6.69,0,0,0-6.17,9,7,7,0,0,0,1,1.69A6.56,6.56,0,0,0,885.94,98.86Zm-3.69-10.44A5.21,5.21,0,0,1,886,86.87h0A5.35,5.35,0,0,1,889.66,96a5.21,5.21,0,0,1-3.7,1.54h0a5.3,5.3,0,0,1-5.24-5.34A5.37,5.37,0,0,1,882.25,88.42Z"/><path class="b" d="M846.07,104.12a2.67,2.67,0,0,1,1.77-2.49,6.21,6.21,0,0,1,.47-1.25,3.76,3.76,0,0,0,.34,7.5,4.79,4.79,0,0,1-.63-1.21A2.69,2.69,0,0,1,846.07,104.12Z"/><path class="b" d="M853.13,114.09H850.8a.08.08,0,0,1-.07-.07V109l-.8-.16-.3-.09V114a1.17,1.17,0,0,0,1.17,1.17h2.7a.91.91,0,0,0,.81-.5.93.93,0,0,0-.08-1,3.5,3.5,0,0,1-.07-4.13l-1.14-.22A4.52,4.52,0,0,0,853.13,114.09Z"/><path class="b" d="M862.78,97.29A2.16,2.16,0,0,0,861,96.8l-11,2.12a2.56,2.56,0,0,0-1.62,1.46,6.21,6.21,0,0,0-.47,1.25,6.49,6.49,0,0,0-.2,1.52v1.41a6.54,6.54,0,0,0,.38,2.11,4.79,4.79,0,0,0,.63,1.21,2.25,2.25,0,0,0,1,.82l.3.09.8.16,2.29.44,1.14.22,6.8,1.31a1.87,1.87,0,0,0,.4,0,2.24,2.24,0,0,0,1.42-.53,4,4,0,0,0,1.26-3.09v-7A4,4,0,0,0,862.78,97.29Zm-1.13.07v1a.76.76,0,0,1,.16.11,2.54,2.54,0,0,1,.72,1.92v7a2.54,2.54,0,0,1-.72,1.92l-.16.11v.38h-1.1v-.45l-10.33-2c-.36-.07-1.07-1.36-1.07-2.75v-1.41c0-1.38.71-2.67,1.07-2.74l10.33-2V97.36Z"/><polygon class="b" points="860.55 98.42 860.55 109.3 860.55 109.75 861.65 109.75 861.65 109.37 861.65 98.35 861.65 97.36 860.55 97.36 860.55 98.42"/><path class="b" d="M873.63,100.57a11.26,11.26,0,0,0-.77-1.83,11.58,11.58,0,0,0-2-2.8l-1.19,1.2a10.31,10.31,0,0,1,0,14.36l1.19,1.21a12.47,12.47,0,0,0,1.66-2.13,13.08,13.08,0,0,0,.89-1.75A12.09,12.09,0,0,0,873.63,100.57Z"/><path class="b" d="M867.23,109.09l1.19,1.21a8.59,8.59,0,0,0,0-12l-1.19,1.2A6.88,6.88,0,0,1,867.23,109.09Z"/><path class="b" d="M866,107.89a5.16,5.16,0,0,0,0-7.13l-1.19,1.2a3.45,3.45,0,0,1,0,4.72Z"/><path class="b" d="M542,110.71a31,31,0,0,1-.19-3.34,29.31,29.31,0,0,1,16.92-26.5L558,79.39a30.82,30.82,0,0,0-17.87,28,32,32,0,0,0,.2,3.53Z"/><path class="b" d="M586.09,132.33a29.19,29.19,0,0,1-30.27,0l-.85,1.4a30.85,30.85,0,0,0,32,0Z"/><path class="b" d="M600.15,107.37h1.64a30.82,30.82,0,0,0-17.06-27.6L584,81.24A29.05,29.05,0,0,1,600.15,107.37Z"/><path class="c" d="M542.66,118.3a3.06,3.06,0,0,0,2.55,3,3.43,3.43,0,0,0,2.86-3.56,3.44,3.44,0,0,0-1.13-2.35,2.6,2.6,0,0,0-1.26-.4A3,3,0,0,0,542.66,118.3Z"/><path class="c" d="M541.17,129.53a1.47,1.47,0,0,0,.08.76h9.48a.61.61,0,0,0,.49-.23.63.63,0,0,0,.13-.53c-.52-2.61-2.47-5.3-5.05-6C543.78,123.62,541.69,126.42,541.17,129.53Z"/><path class="b" d="M547,122.18a4.74,4.74,0,0,0,1.08-.82,4.89,4.89,0,0,0,1.43-3.71,4.9,4.9,0,1,0-7.08,4.62,6.52,6.52,0,0,1,4.57-.09Zm-2.56-.86a3.45,3.45,0,0,1-3.25-3.24,3.44,3.44,0,0,1,3.42-3.61h.19a3.39,3.39,0,0,1,2.11.89,3.44,3.44,0,0,1,1.13,2.35,3.43,3.43,0,0,1-2.86,3.56A3,3,0,0,1,544.47,121.32Z"/><path class="b" d="M552.36,131a2.09,2.09,0,0,0,.43-1.75,9.31,9.31,0,0,0-5.76-7.06,6.52,6.52,0,0,0-4.57.09,9.4,9.4,0,0,0-5.5,7,2.06,2.06,0,0,0,.44,1.75,2.08,2.08,0,0,0,1.62.77h11.71A2.1,2.1,0,0,0,552.36,131Zm-13.83-.93a.63.63,0,0,1-.13-.53c.61-3.07,3.2-6.25,6.48-6.25a5.18,5.18,0,0,1,1.42.2c2.58.75,4.53,3.44,5.05,6a.63.63,0,0,1-.13.53.61.61,0,0,1-.49.23H539A.61.61,0,0,1,538.53,130.06Z"/><path class="c" d="M594.07,118.3a3.07,3.07,0,0,0,2.55,3,3.32,3.32,0,0,0,1.86-1,3.4,3.4,0,0,0-.13-4.95,2.6,2.6,0,0,0-1.25-.4A3,3,0,0,0,594.07,118.3Z"/><path class="c" d="M592.58,129.53a1.47,1.47,0,0,0,.08.76h9.48a.61.61,0,0,0,.49-.23.63.63,0,0,0,.13-.53c-.52-2.61-2.47-5.3-5-6C595.19,123.62,593.1,126.42,592.58,129.53Z"/><path class="b" d="M598.44,122.18a4.74,4.74,0,0,0,1.08-.82,4.9,4.9,0,1,0-5.65.91,6.71,6.71,0,0,1,2.42-.46A6.57,6.57,0,0,1,598.44,122.18Zm-2.56-.86a3.44,3.44,0,0,1-3.24-3.24,3.44,3.44,0,0,1,3.42-3.61h.18a3.42,3.42,0,0,1,2.24,5.84,3.32,3.32,0,0,1-1.86,1A3,3,0,0,1,595.88,121.32Z"/><path class="b" d="M603.77,131a2.13,2.13,0,0,0,.44-1.75,9.32,9.32,0,0,0-5.77-7.06,6.57,6.57,0,0,0-2.15-.37,6.71,6.71,0,0,0-2.42.46,9.45,9.45,0,0,0-5.5,7,2.13,2.13,0,0,0,.44,1.75,2.08,2.08,0,0,0,1.62.77h11.71A2.09,2.09,0,0,0,603.77,131ZM590,130.06a.64.64,0,0,1-.14-.53c.62-3.07,3.21-6.25,6.48-6.25a5.18,5.18,0,0,1,1.42.2c2.58.75,4.53,3.44,5,6a.63.63,0,0,1-.13.53.61.61,0,0,1-.49.23H590.43A.59.59,0,0,1,590,130.06Z"/><path class="c" d="M568.7,71.56a3.06,3.06,0,0,0,2.55,3A3.41,3.41,0,0,0,574.11,71,3.44,3.44,0,0,0,573,68.63a2.6,2.6,0,0,0-1.26-.4A3,3,0,0,0,568.7,71.56Z"/><path class="c" d="M567.21,82.8a1.44,1.44,0,0,0,.08.75h9.48a.61.61,0,0,0,.49-.23.63.63,0,0,0,.13-.53c-.52-2.61-2.47-5.3-5-6.05C569.82,76.88,567.73,79.68,567.21,82.8Z"/><path class="b" d="M573.07,75.44a5,5,0,0,0,1.08-.81,4.9,4.9,0,1,0-5.65.91,6.47,6.47,0,0,1,2.42-.47A6.61,6.61,0,0,1,573.07,75.44Zm-2.56-.85a3.47,3.47,0,0,1-3.25-3.25,3.42,3.42,0,0,1,3.43-3.6h.18a3.39,3.39,0,0,1,2.11.89A3.44,3.44,0,0,1,574.11,71a3.41,3.41,0,0,1-2.86,3.56A3.64,3.64,0,0,1,570.51,74.59Z"/><path class="b" d="M565.06,85h11.71a2.09,2.09,0,0,0,2.06-2.52,9.31,9.31,0,0,0-5.76-7.06,6.61,6.61,0,0,0-2.15-.37,6.47,6.47,0,0,0-2.42.47,9.37,9.37,0,0,0-5.5,7,2.08,2.08,0,0,0,.44,1.76A2.11,2.11,0,0,0,565.06,85Zm-.62-2.23c.61-3.07,3.2-6.25,6.48-6.25a5.18,5.18,0,0,1,1.42.2c2.58.75,4.53,3.44,5,6.05a.63.63,0,0,1-.13.53.61.61,0,0,1-.49.23H565.06a.61.61,0,0,1-.49-.23A.63.63,0,0,1,564.44,82.79Z"/><path class="b" d="M557.82,122.11a.84.84,0,0,0-.26,1,.82.82,0,0,0,.75.48l.17,0c.85-.17,8.06-1.77,9.68-5.53l3.23-.11c9.7,0,17.59-6.05,17.59-13.47S581.08,91,571.37,91s-17.61,6-17.61,13.47c0,4.41,2.79,8.5,7.48,11A7.83,7.83,0,0,1,557.82,122.11Zm5-7.2a.85.85,0,0,0-.45-.67c-4.39-2.21-7-5.87-7-9.78,0-6.52,7.16-11.83,16-11.83s16,5.31,16,11.83-7.16,11.82-16,11.82h0l-3.8.14a.8.8,0,0,0-.76.62c-.47,1.83-3.26,3.23-5.68,4.09A9.43,9.43,0,0,0,562.86,114.91Z"/><path class="b" d="M569.51,103a3,3,0,0,0,1.44-1.25c.68-1.15,2.07-4.26,2.46-5.13h1.44v5.24h4a1,1,0,0,1,.52.15,1,1,0,0,1,.49.86v5.68a1,1,0,0,1-.36.77l-.76.63a1,1,0,0,1-.64.24h-6l-1.48-1.27h-1.07v1.27h.61l1.48,1.27h6.5a2.3,2.3,0,0,0,1.46-.53l.75-.63a2.28,2.28,0,0,0,.82-1.75v-5.68a2.27,2.27,0,0,0-1.1-2,2.3,2.3,0,0,0-1.17-.33h-2.73V96.43a1.19,1.19,0,0,0-.52-1l-.16-.1h-2.12a1.06,1.06,0,0,0-1,.51v0s-1.74,4-2.48,5.22a1.76,1.76,0,0,1-.35.41Z"/><polygon class="c" points="568.36 110.11 568.37 102.22 568.35 102.22 568.35 103.99 562 103.98 562.01 102.21 561.96 102.21 561.95 110.11 568.36 110.11"/><path class="b" d="M569.5,110.2v-9.12h-8.69l0,10.18h8.7Zm-7.54-8h6.41v7.89H562Z"/><path class="b" d="M188.57,119.7H144.74v9.74h43.83ZM187,127.87h-8.8v1.25h-1.57v-1.25h-3.77v1.25h-1.57v-1.25H156.68v1.25h-1.57v-1.25h-3.77v1.25h-1.57v-1.25h-3.46v-2.68h-.94v-1.57h.94v-2.35h3.46v-.79h1.57v.79h3.77v-.79h1.57v.79h3.93v-.79h1.1v.79H166v-.79h1.1v.79h4.24v-.79h1.57v.79h3.77v-.79h1.57v.79H182v-.79h1.57v.79H187Z"/><path class="b" d="M192.18,81.23H193V79.64H140.34v35.19H193V82.31h-.79Zm-.78,32H141.91v-32H191.4Z"/><path class="b" d="M192.18,128.17H193v-12.4H140.34v17.12H193v-3.64h-.79Zm-.78,3.15H141.91v-14H191.4Z"/><path class="c" d="M171,89.49l-3.8,7a.71.71,0,0,1-.63.38h0a.72.72,0,0,1-.63-.37L162,89.62a5.31,5.31,0,0,1-.85-3.08,4.92,4.92,0,0,1,.22-1.44h-16.8v23.32h43.11V85.1H171.73a5,5,0,0,1-.76,4.39Zm2.79,11a1.66,1.66,0,0,1,1.65-1.66h2.53a1.67,1.67,0,0,1,1.66,1.66v2.53a1.66,1.66,0,0,1-1.66,1.65h-2.53a1.65,1.65,0,0,1-1.65-1.65Zm-.7-.25v3a1.55,1.55,0,0,1-1.55,1.55h-17A1.54,1.54,0,0,1,153,103.3v-3a1.54,1.54,0,0,1,1.54-1.55h17A1.55,1.55,0,0,1,173.06,100.27Z"/><path class="b" d="M188.53,84.23H171.37a4.43,4.43,0,0,1,.36.87h15.93v23.32H144.55V85.1h16.8a4.43,4.43,0,0,1,.36-.87h-18v25.06h44.85Z"/><polygon class="b" points="149.77 123.62 146.31 123.62 145.37 123.62 145.37 125.19 146.31 125.19 149.77 125.19 149.77 123.62"/><polygon class="b" points="181.97 124.72 181.97 123.62 178.2 123.62 178.2 125.19 183.7 125.19 183.7 123.62 183.54 123.62 183.54 124.72 181.97 124.72"/><rect class="b" x="151.34" y="123.62" width="3.77" height="1.57"/><rect class="b" x="172.86" y="123.62" width="3.77" height="1.57"/><polygon class="b" points="167.05 125.04 165.95 125.04 165.95 123.62 161.71 123.62 161.71 125.04 160.61 125.04 160.61 123.62 156.68 123.62 156.68 125.19 171.29 125.19 171.29 123.62 167.05 123.62 167.05 125.04"/><polygon class="b" points="151.34 123.62 151.34 121.27 151.34 120.48 149.77 120.48 149.77 121.27 149.77 123.62 149.77 125.19 149.77 127.86 149.77 129.12 151.34 129.12 151.34 127.86 151.34 125.19 151.34 123.62"/><polygon class="b" points="156.68 123.62 156.68 121.27 156.68 120.48 155.11 120.48 155.11 121.27 155.11 123.62 155.11 125.19 155.11 127.86 155.11 129.12 156.68 129.12 156.68 127.86 156.68 125.19 156.68 123.62"/><polygon class="b" points="160.61 125.04 161.71 125.04 161.71 123.62 161.71 121.27 161.71 120.48 160.61 120.48 160.61 121.27 160.61 123.62 160.61 125.04"/><polygon class="b" points="165.95 125.04 167.05 125.04 167.05 123.62 167.05 121.27 167.05 120.48 165.95 120.48 165.95 121.27 165.95 123.62 165.95 125.04"/><polygon class="b" points="172.86 123.62 172.86 121.27 172.86 120.48 171.29 120.48 171.29 121.27 171.29 123.62 171.29 125.19 171.29 127.86 171.29 129.12 172.86 129.12 172.86 127.86 172.86 125.19 172.86 123.62"/><polygon class="b" points="178.2 123.62 178.2 121.27 178.2 120.48 176.63 120.48 176.63 121.27 176.63 123.62 176.63 125.19 176.63 127.86 176.63 129.12 178.2 129.12 178.2 127.86 178.2 125.19 178.2 123.62"/><polygon class="b" points="181.97 124.72 183.54 124.72 183.54 123.62 183.54 121.27 183.54 120.48 181.97 120.48 181.97 121.27 181.97 123.62 181.97 124.72"/><rect class="b" x="182.44" y="110.27" width="5.34" height="1.26"/><path class="b" d="M205.09,89H209a.29.29,0,0,0,.28-.3v0a.29.29,0,0,0-.28-.31h-3.94a.3.3,0,0,0-.29.31v0A.3.3,0,0,0,205.09,89Z"/><path class="c" d="M213.7,90.54H199.19a1,1,0,0,0-.95,1v27.71a1,1,0,0,0,.95,1H213.7a.94.94,0,0,0,1-1V91.5A1,1,0,0,0,213.7,90.54Zm-2.36,11.54-.8.9a4.35,4.35,0,0,1,.43,1.87,4.29,4.29,0,1,1-1.1-2.86l.51-.57a.67.67,0,0,1,.86-.1A.5.5,0,0,1,211.34,102.08Z"/><path class="b" d="M213.7,90.06H199.19a1.44,1.44,0,0,0-1.43,1.44v27.71a1.43,1.43,0,0,0,1.43,1.43H213.7a1.43,1.43,0,0,0,1.43-1.43V91.5A1.44,1.44,0,0,0,213.7,90.06Zm1,29.15a.94.94,0,0,1-1,1H199.19a1,1,0,0,1-.95-1V91.5a1,1,0,0,1,.95-1H213.7a1,1,0,0,1,1,1Z"/><path class="b" d="M203.59,89.12a.34.34,0,0,0,.33-.35.34.34,0,0,0-.33-.35.33.33,0,0,0-.32.35A.34.34,0,0,0,203.59,89.12Z"/><path class="b" d="M213.37,86.31h-6.32v.53H206v-.53h-6.5a3.42,3.42,0,0,0-3.42,3.42v30.76a3.42,3.42,0,0,0,3.42,3.42h6.43v-.53H207v.53h6.38a3.42,3.42,0,0,0,3.42-3.42V89.73A3.42,3.42,0,0,0,213.37,86.31Zm2.37,34.18a2.37,2.37,0,0,1-2.37,2.37H199.48a2.37,2.37,0,0,1-2.37-2.37V89.73a2.37,2.37,0,0,1,2.37-2.36h13.89a2.37,2.37,0,0,1,2.37,2.36Z"/><polygon class="b" points="205.91 123.38 205.91 123.91 205.91 128.17 192.97 128.17 192.18 128.17 192.18 129.25 192.97 129.25 206.99 129.25 206.99 123.91 206.99 123.38 205.91 123.38"/><polygon class="b" points="207.06 86.84 207.06 86.31 207.06 81.23 192.97 81.23 192.18 81.23 192.18 82.31 192.97 82.31 205.98 82.31 205.98 86.31 205.98 86.84 207.06 86.84"/><path class="b" d="M161.35,85.1a4.92,4.92,0,0,0-.22,1.44,5.31,5.31,0,0,0,.85,3.08l3.92,6.88a.72.72,0,0,0,.63.37h0a.71.71,0,0,0,.63-.38l3.8-7a5,5,0,0,0,.76-4.39,4.43,4.43,0,0,0-.36-.87,5.52,5.52,0,0,0-9.66,0A4.43,4.43,0,0,0,161.35,85.1Zm5.19-2.71a4.28,4.28,0,0,1,4.4,4.15,4,4,0,0,1-.79,2.37.56.56,0,0,0-.05.08l-3.57,6.59-3.69-6.47a.43.43,0,0,0,0-.07,4.34,4.34,0,0,1,3.74-6.65Z"/><path class="b" d="M164,86.49A2.53,2.53,0,1,0,166.56,84,2.52,2.52,0,0,0,164,86.49Zm4.27,0a1.75,1.75,0,1,1-1.74-1.74A1.74,1.74,0,0,1,168.3,86.49Z"/><path class="b" d="M154.49,98.72a1.54,1.54,0,0,0-1.54,1.55v3a1.54,1.54,0,0,0,1.54,1.55h17a1.55,1.55,0,0,0,1.55-1.55v-3a1.55,1.55,0,0,0-1.55-1.55Zm18,4.58a.94.94,0,0,1-.94.94h-17a.94.94,0,0,1-.94-.94v-3a.94.94,0,0,1,.94-.94h17a.94.94,0,0,1,.94.94Z"/><path class="b" d="M210.14,103.44a3.66,3.66,0,0,1,.28,1.41,3.72,3.72,0,1,1-.92-2.45l.37-.41a4.27,4.27,0,1,0,1.1,2.86,4.35,4.35,0,0,0-.43-1.87Z"/><path class="b" d="M211.24,101.32a.67.67,0,0,0-.86.1l-.51.57-.37.41-2.78,3.12L205,103.79a.68.68,0,0,0-.87,0,.51.51,0,0,0-.05.77l2.25,2.22a.66.66,0,0,0,.46.21h0a.66.66,0,0,0,.46-.23l2.91-3.28.4-.46.8-.9A.5.5,0,0,0,211.24,101.32Z"/><polygon class="b" points="159.72 102.51 159.14 100.29 158.36 100.29 157.76 102.48 157.26 100.29 156.58 100.29 157.37 103.47 158.09 103.47 158.74 101.09 159.39 103.47 160.09 103.47 160.89 100.29 160.22 100.29 159.72 102.51"/><polygon class="b" points="164.05 102.51 163.47 100.29 162.68 100.29 162.08 102.48 161.59 100.29 160.91 100.29 161.69 103.47 162.41 103.47 163.06 101.09 163.72 103.47 164.42 103.47 165.22 100.29 164.55 100.29 164.05 102.51"/><polygon class="b" points="168.37 102.51 167.8 100.29 167.01 100.29 166.41 102.48 165.91 100.29 165.24 100.29 166.02 103.47 166.74 103.47 167.39 101.09 168.04 103.47 168.75 103.47 169.54 100.29 168.88 100.29 168.37 102.51"/><path class="b" d="M175.41,104.7h2.53a1.66,1.66,0,0,0,1.66-1.65v-2.53a1.67,1.67,0,0,0-1.66-1.66h-2.53a1.66,1.66,0,0,0-1.65,1.66v2.53A1.65,1.65,0,0,0,175.41,104.7Zm-1.08-4.18a1.08,1.08,0,0,1,1.08-1.09h2.53a1.09,1.09,0,0,1,1.09,1.09v2.53a1.08,1.08,0,0,1-1.09,1.08h-2.53a1.08,1.08,0,0,1-1.08-1.08Z"/><path class="b" d="M425.16,78.38v.06a.49.49,0,0,0,.47.5h4.12V77.88h-4.12A.48.48,0,0,0,425.16,78.38Z"/><path class="c" d="M414.5,82.93V128a1.54,1.54,0,0,0,1.54,1.54h23.6a1.54,1.54,0,0,0,1.54-1.54V86.33l-4.73,3.73,3.47-7.57h-7.34a2.83,2.83,0,0,1-2.24-1.1H416A1.54,1.54,0,0,0,414.5,82.93Zm4,8.91h19.26v16H418.5Zm.16,20h11a.39.39,0,0,1,0,.77h-11a.39.39,0,1,1,0-.77Zm-.17,4H437.7a.39.39,0,0,1,0,.78H418.49a.39.39,0,0,1,0-.78Zm0,4.1H437.7a.39.39,0,1,1,0,.77H418.49a.39.39,0,0,1,0-.77Z"/><path class="b" d="M413.69,82.93V128a2.35,2.35,0,0,0,2.35,2.34h23.6A2.34,2.34,0,0,0,442,128V85.69l-.8.64V128a1.54,1.54,0,0,1-1.54,1.54H416A1.54,1.54,0,0,1,414.5,128V82.93A1.54,1.54,0,0,1,416,81.39h14.3a2.69,2.69,0,0,1-.43-.8H416A2.35,2.35,0,0,0,413.69,82.93Z"/><path class="b" d="M423.19,79.06a.57.57,0,0,0,0-1.14.57.57,0,0,0,0,1.14Z"/><path class="b" d="M443,130.11a3.85,3.85,0,0,1-3.85,3.85H416.5a3.85,3.85,0,0,1-3.85-3.85V80.06a3.86,3.86,0,0,1,3.85-3.85h13.25V74.5H416.5a5.56,5.56,0,0,0-5.56,5.56v50.05a5.57,5.57,0,0,0,5.56,5.57h22.61a5.57,5.57,0,0,0,5.56-5.57V83.57L443,84.92Z"/><path class="b" d="M418.66,112.61h11a.39.39,0,0,0,0-.77h-11a.39.39,0,1,0,0,.77Z"/><path class="b" d="M418.49,116.63H437.7a.39.39,0,0,0,0-.78H418.49a.39.39,0,0,0,0,.78Z"/><path class="b" d="M418.49,120.72H437.7a.39.39,0,1,0,0-.77H418.49a.39.39,0,0,0,0,.77Z"/><path class="b" d="M422,96.9v6.31l5.83,3.13,5.83-3.13V96.9l-5.83-3.14Zm11.52.45-.47.24v5.26l-5,2.69V106h-.61v-.57l-4.84-2.6V97.57l-.42-.22.27-.54.51.26,2.25-1.21-.12-.07.28-.53.48.25,2-1.06,4.89,2.63.53-.27Z"/><polygon class="b" points="428 100.17 427.86 99.91 427.73 100.17 427.49 100.05 427.49 105.45 427.49 106.02 428.09 106.02 428.09 105.54 428.09 100.13 428 100.17"/><polygon class="b" points="430.75 98.1 430.9 98.18 430.62 98.72 430.09 98.43 427.86 99.57 428 99.64 427.86 99.91 428 100.17 428.09 100.13 433.09 97.59 433.56 97.35 433.29 96.81 432.76 97.08 430.75 98.1"/><polygon class="b" points="427.73 100.17 427.86 99.91 428 99.64 427.86 99.57 423 97.07 422.49 96.81 422.22 97.35 422.64 97.57 427.49 100.05 427.73 100.17"/><polygon class="b" points="430.62 98.72 430.9 98.18 430.75 98.1 425.89 95.51 425.41 95.26 425.13 95.79 425.25 95.86 430.09 98.43 430.62 98.72"/><path class="b" d="M470,67.89H432.58a2.83,2.83,0,0,0-2.83,2.83v9a2.82,2.82,0,0,0,.16.92,2.69,2.69,0,0,0,.43.8,2.83,2.83,0,0,0,2.24,1.1h7.34l-3.47,7.57,4.73-3.73.8-.64,1-.77,1.71-1.35L446,82.49H470a2.82,2.82,0,0,0,2.82-2.82v-9A2.83,2.83,0,0,0,470,67.89Zm1.92,11.78A1.92,1.92,0,0,1,470,81.59H445.72L438.82,87l2.5-5.45h-8.74a1.92,1.92,0,0,1-1.93-1.92v-9a1.93,1.93,0,0,1,1.93-1.93H470a1.93,1.93,0,0,1,1.92,1.93Z"/><path class="b" d="M440.29,77.89a2.85,2.85,0,0,0,1.17-.21,1.47,1.47,0,0,0,.72-.63,1.72,1.72,0,0,0,.26-.91,1.69,1.69,0,0,0-.22-.9,1.47,1.47,0,0,0-.59-.57,5,5,0,0,0-1.16-.41,2.78,2.78,0,0,1-1-.38.44.44,0,0,1,0-.69,1.18,1.18,0,0,1,.74-.21,1.11,1.11,0,0,1,.69.19,1,1,0,0,1,.29.63l1.09,0a1.69,1.69,0,0,0-.54-1.24,2.15,2.15,0,0,0-1.52-.47,2.4,2.4,0,0,0-1.05.2,1.45,1.45,0,0,0-.67.57,1.46,1.46,0,0,0-.23.81,1.49,1.49,0,0,0,.49,1.13,2.72,2.72,0,0,0,1.22.56c.45.12.74.2.87.25a1,1,0,0,1,.39.24.58.58,0,0,1,.11.35.7.7,0,0,1-.27.54,1.13,1.13,0,0,1-.79.24,1.1,1.1,0,0,1-.78-.27,1.37,1.37,0,0,1-.38-.82l-1.06.11a2.21,2.21,0,0,0,.65,1.44A2.27,2.27,0,0,0,440.29,77.89Z"/><path class="b" d="M444.89,72.13l-2.09,5.66H444l.44-1.28h2.15l.46,1.28h1.18L446,72.13Zm-.16,3.42.72-2.1.74,2.1Z"/><polygon class="b" points="449.86 72.18 448.78 72.18 448.78 77.79 452.55 77.79 452.55 76.84 449.86 76.84 449.86 72.18"/><polygon class="b" points="454.41 75.3 457.1 75.3 457.1 74.34 454.41 74.34 454.41 73.09 457.3 73.09 457.3 72.14 453.32 72.14 453.32 77.79 457.4 77.79 457.4 76.84 454.41 76.84 454.41 75.3"/><path class="b" d="M464.63,75.08a1.34,1.34,0,0,0-1,.38,2,2,0,0,0,0,2.34,1.35,1.35,0,0,0,1,.38,1.33,1.33,0,0,0,1-.38,2,2,0,0,0,0-2.34A1.34,1.34,0,0,0,464.63,75.08Zm.28,2.31a.32.32,0,0,1-.29.15.34.34,0,0,1-.3-.15,1.46,1.46,0,0,1-.14-.77,1.51,1.51,0,0,1,.14-.77.39.39,0,0,1,.6,0,1.51,1.51,0,0,1,.14.77A1.35,1.35,0,0,1,464.91,77.39Z"/><path class="b" d="M461.77,73.52a1.64,1.64,0,0,0-.37-1.17,1.37,1.37,0,0,0-1-.38,1.32,1.32,0,0,0-1,.38,2,2,0,0,0,0,2.34,1.35,1.35,0,0,0,1,.38,1.33,1.33,0,0,0,1-.38A1.64,1.64,0,0,0,461.77,73.52Zm-1.1.76a.37.37,0,0,1-.3.15.34.34,0,0,1-.3-.15,2.19,2.19,0,0,1,0-1.54.36.36,0,0,1,.3-.14.37.37,0,0,1,.3.15,1.44,1.44,0,0,1,.13.76A1.51,1.51,0,0,1,460.67,74.28Z"/><polygon class="b" points="463.75 71.97 460.39 78.17 461.29 78.17 464.62 71.97 463.75 71.97"/><path class="b" d="M454,99.25l-1.33,1.33a11.26,11.26,0,0,1-.05,15.84l1.34,1.34A13.16,13.16,0,0,0,454,99.25Z"/><path class="b" d="M450,113.77l1.33,1.33a9.4,9.4,0,0,0,0-13.19L450,103.24A7.52,7.52,0,0,1,450,113.77Z"/><path class="b" d="M448.63,112.44a5.64,5.64,0,0,0,0-7.87l-1.33,1.33a3.77,3.77,0,0,1,0,5.21Z"/><path class="c" d="M315.08,105.74c0-1.16-3-2.17-7.31-2.69v2.48h-6.59v-2.84h-1v2.84h-5.91V103.1l-.95.13v2.28h-5.42v-.66a1.19,1.19,0,0,0-.6.89c0,1.69,6.21,3.05,13.87,3.05S315.08,107.43,315.08,105.74Z"/><path class="b" d="M318.68,113.42l-.94.93.48-.46Z"/><path class="b" d="M320.62,110.06l.44.44a25,25,0,1,0-25.33,10.28,6.43,6.43,0,0,1-1.33-2.33,23.06,23.06,0,1,1,12,.06,6.35,6.35,0,0,1-1.32,2.31,24.93,24.93,0,0,0,11.62-5.52l-.65-.66Z"/><path class="b" d="M315.17,81.51a20.75,20.75,0,1,0-21,34.42,5.83,5.83,0,0,1,.24-1.16,19.35,19.35,0,0,1-7.74-4.76,19.55,19.55,0,1,1,19.75,4.82,6.27,6.27,0,0,1,.23,1.16,20.74,20.74,0,0,0,8.52-34.48Z"/><path class="b" d="M317.46,114.64l.28-.29.94-.93,1.94-1.94,5.39,5.39a3.16,3.16,0,0,1,1-.44l-5.94-5.93-.44-.44L316,114.64l.65.66,5.64,5.64a3.21,3.21,0,0,1,.5-.93Z"/><path class="b" d="M330.16,117.33a3.39,3.39,0,0,0-2.3-1,3.49,3.49,0,0,0-.86.1,3.16,3.16,0,0,0-1,.44,3.84,3.84,0,0,0-.45.37l-2.48,2.49a3.33,3.33,0,0,0-.25.28,3.21,3.21,0,0,0-.5.93,3.27,3.27,0,0,0-.16,1.09,3.34,3.34,0,0,0,1,2.29l8.81,8.81a3.46,3.46,0,0,0,2.3,1h.15a3.08,3.08,0,0,0,2.19-.88l2.49-2.49a3.1,3.1,0,0,0,.88-2.34,3.48,3.48,0,0,0-1-2.3Zm-6,3.51,2.49-2.49a1.53,1.53,0,0,1,1.1-.44h0a1.82,1.82,0,0,1,1.23.53l8.81,8.81a2,2,0,0,1,.56,1.26,1.49,1.49,0,0,1-.43,1.16l-2.48,2.49a1.54,1.54,0,0,1-1.16.42,1.93,1.93,0,0,1-1.26-.56l-8.81-8.81a1.85,1.85,0,0,1-.54-1.22A1.56,1.56,0,0,1,324.19,120.84Z"/><path class="b" d="M333.66,130.93a.43.43,0,0,0,.3.13.46.46,0,0,0,.31-.13.43.43,0,0,0,0-.61L326,122.06a.43.43,0,0,0-.61.61Z"/><path class="b" d="M307.77,105.53V84.09h-6.59v21.44Zm-1.13-20.31V104.4h-4.33V85.22Z"/><path class="b" d="M300.22,105.54V91.23h-5.91v14.31Zm-1.15-13.17v12h-3.61v-12Z"/><path class="b" d="M293.36,105.51V95.65h-5.42v9.86Zm-1.08-8.78v7.69H289V96.73Z"/><path class="c" d="M303.83,120a4.84,4.84,0,1,0-3.68,1.42A4.9,4.9,0,0,0,303.83,120Z"/><path class="b" d="M306.67,116.29c0-.1,0-.2,0-.3a6.27,6.27,0,0,0-12.24-1.22,5.83,5.83,0,0,0-.24,1.16,7,7,0,0,0,0,1,6.21,6.21,0,0,0,.27,1.5,6.42,6.42,0,0,0,3.8,4,8.54,8.54,0,0,1,2.51-.39,8.27,8.27,0,0,1,2.16.29,6.23,6.23,0,0,0,2-1.33l.23-.24a6.26,6.26,0,0,0,1.6-4.53Zm-6.52,5.17a4.85,4.85,0,1,1,3.68-1.42A4.89,4.89,0,0,1,300.15,121.46Z"/><path class="c" d="M300.71,123.54c-4.51,0-8.07,4.35-8.91,8.56a1.11,1.11,0,0,0,.23.93,1.1,1.1,0,0,0,.86.41h15.64a1.12,1.12,0,0,0,1.09-1.34C308.78,127.89,305.22,123.54,300.71,123.54Z"/><path class="b" d="M300.71,122.1a8.54,8.54,0,0,0-2.51.39c-3.74,1.15-6.9,4.78-7.81,9.33a2.55,2.55,0,0,0,2.5,3.05h15.64a2.54,2.54,0,0,0,2-.93,2.57,2.57,0,0,0,.53-2.12c-.94-4.69-4.26-8.4-8.16-9.43A8.27,8.27,0,0,0,300.71,122.1ZM309.39,133a1.11,1.11,0,0,1-.86.41H292.89A1.1,1.1,0,0,1,292,133a1.11,1.11,0,0,1-.23-.93c.84-4.21,4.4-8.56,8.91-8.56s8.07,4.35,8.91,8.56A1.11,1.11,0,0,1,309.39,133Z"/><polygon class="b" points="752.76 95.81 751.31 95.81 751.31 98.22 735.95 98.22 735.95 80.16 739 80.16 739 78.71 734.5 78.71 734.5 99.67 752.76 99.67 752.76 95.81"/><path class="b" d="M739.3,95.3h18.51V73H739.3Zm1.45-20.82h1v-1h5.59v1h9V93.85h-15.6Z"/><rect class="b" x="742.73" y="80.68" width="11.65" height="1.16"/><rect class="b" x="742.73" y="83.16" width="11.65" height="1.16"/><rect class="b" x="742.73" y="85.92" width="11.65" height="1.16"/><polygon class="b" points="702.74 112.79 702.74 96.59 701 96.59 700.97 96.57 700.97 112.64 701.83 110.92 702.74 112.79"/><polygon class="b" points="729.26 90.02 729.26 116.4 705.06 116.4 710.4 117.19 709.4 118.17 722.63 118.17 722.63 117.58 724.55 117.58 724.55 118.17 731.03 118.17 731.03 105.5 730.44 105.5 730.44 103.58 731.03 103.58 731.03 88.25 716.68 88.25 716.68 90.02 729.26 90.02"/><polygon class="b" points="730.44 105.5 731.03 105.5 752.99 105.5 752.99 130.99 724.55 130.99 724.55 118.17 724.55 117.58 722.63 117.58 722.63 118.17 722.63 132.91 754.9 132.91 754.9 103.58 731.03 103.58 730.44 103.58 730.44 105.5"/><path class="b" d="M726.32,102.18l1,.81-.83,1-.13-.11v4.26l1,.92a.62.62,0,0,1,.16.2V91.5H716.68V92a4.18,4.18,0,0,1-.07.72h9.71Z"/><path class="b" d="M704.61,104.86l1.08-.92V96.59h-1.18V105Z"/><path class="b" d="M726.87,110.29a.74.74,0,0,1-.48-.18l-.87-.78H705.69v-3.51l-.15.13a.71.71,0,0,1-1-.08l0,0v4.67h23v-.6a.73.73,0,0,1-.63.38Z"/><path class="b" d="M726.32,108.12l-8-7.17-.5.54-.93-.88.47-.51L713.8,97l-8.11,7-1.08.92-.1.11a.71.71,0,0,0,0,.87l0,0a.71.71,0,0,0,1,.08l.15-.13,8.09-7,11.74,10.47.87.78a.74.74,0,0,0,.48.18.73.73,0,0,0,.63-.38.72.72,0,0,0,0-.67.62.62,0,0,0-.16-.2Z"/><polygon class="b" points="717.78 101.49 718.28 100.95 720.32 98.79 726.32 103.86 726.45 103.97 727.28 102.99 726.32 102.18 720.22 97.02 717.32 100.1 716.85 100.61 717.78 101.49"/><polygon class="c" points="744.89 118.33 740.09 115.56 735.31 112.78 735.31 118.33 735.31 123.88 740.1 121.11 744.89 118.33"/><rect class="b" x="732.65" y="106.82" width="2.65" height="2.21"/><rect class="b" x="737.81" y="106.82" width="2.51" height="2.21"/><rect class="b" x="742.67" y="106.82" width="2.51" height="2.21"/><rect class="b" x="747.54" y="106.82" width="2.65" height="2.21"/><rect class="b" x="727.64" y="127.75" width="2.65" height="2.21"/><rect class="b" x="732.65" y="127.75" width="2.65" height="2.21"/><rect class="b" x="737.81" y="127.75" width="2.51" height="2.21"/><rect class="b" x="742.67" y="127.75" width="2.51" height="2.21"/><rect class="b" x="747.54" y="127.75" width="2.65" height="2.21"/><path class="b" d="M747.39,79.63V73.52H741.8v6.11Zm-1-1h-3.51v-4h3.51Z"/><path class="b" d="M765.81,99.93a5.32,5.32,0,0,1-2.32,4.52.51.51,0,0,0,.31.92h.11c.57-.12,5.44-1.19,6.51-3.73l2.19-.07c6.52,0,11.82-4.06,11.82-9s-5.3-9-11.83-9-11.83,4.06-11.83,9C760.77,95.48,762.65,98.23,765.81,99.93Zm6.79-15.42c6,0,10.8,3.59,10.8,8s-4.84,8-10.8,8h0l-2.56.09a.52.52,0,0,0-.48.39c-.32,1.28-2.29,2.25-4,2.82a6.26,6.26,0,0,0,1.25-4.25.51.51,0,0,0-.28-.43c-3-1.5-4.74-4-4.74-6.62C761.81,88.1,766.65,84.51,772.6,84.51Z"/><path class="b" d="M768.26,93.53l4.47,4.88,4.35-4.76a2.61,2.61,0,0,0,.67-1.85,1.49,1.49,0,0,0,0-.21,3.07,3.07,0,0,0-2.8-2.79,3.25,3.25,0,0,1-4.38,0,3.07,3.07,0,0,0-2.79,2.85,3.35,3.35,0,0,0,.1,1.14A1.72,1.72,0,0,0,768.26,93.53ZM770.72,90a1.77,1.77,0,0,1,1.51.92l.52.93.52-.93a1.75,1.75,0,0,1,1.6-.92,1.86,1.86,0,0,1,1.67,1.72.57.57,0,0,1,0,.13h0a1.4,1.4,0,0,1-.36,1l-3.46,3.79-3.59-3.91a.57.57,0,0,1-.12-.23,2,2,0,0,1-.06-.74A1.85,1.85,0,0,1,770.62,90Z"/><path class="b" d="M697.22,82.42a4.86,4.86,0,0,0,2.35-2c1.19-2,3.66-7.59,4.18-8.78h2.87v8.82h6.48a2,2,0,0,1,1,.28,2,2,0,0,1,1,1.69V92a2,2,0,0,1-.7,1.51l-1.26,1.06a2,2,0,0,1-1.27.46H701.59l-2.49-2.13h-1.87v1.61h1.27L701,96.57l0,0h10.85a3.56,3.56,0,0,0,2.29-.83l1.27-1.06a3.58,3.58,0,0,0,1.2-2,4.18,4.18,0,0,0,.07-.72V82.38a3.58,3.58,0,0,0-1.74-3,3.49,3.49,0,0,0-1.83-.51h-4.88v-7.3a1.71,1.71,0,0,0-.76-1.38l-.21-.14h-3.49a1.45,1.45,0,0,0-1.38.71l0,0c0,.07-2.93,6.71-4.18,8.82a3.12,3.12,0,0,1-1,1Z"/><rect class="c" x="684.5" y="81.13" width="11.12" height="13.62"/><path class="b" d="M697.23,96.35V79.51H682.89V96.36Zm-1.61-1.61H684.5V81.13h11.13Z"/><path class="c" d="M772.47,115.52a5.39,5.39,0,0,0-4.81-5.3,4.73,4.73,0,0,0-3,.89,5,5,0,0,0,7.51,6.48.47.47,0,0,0,.1-.1A6.38,6.38,0,0,0,772.47,115.52Z"/><path class="c" d="M762.32,115.41q0,.34,0,.69a5.71,5.71,0,0,0,2.58,4.58,8.7,8.7,0,0,1,1.46-.58A6.58,6.58,0,0,1,762.32,115.41Z"/><path class="c" d="M768.82,121.18a7.06,7.06,0,0,0-1.66.22A4.57,4.57,0,0,0,768.82,121.18Z"/><path class="c" d="M758.87,131.86l0,0a1.74,1.74,0,0,0,1.66,1.62l14.29,0a1.59,1.59,0,0,0,1.26-.64l-15.17,0A2.62,2.62,0,0,1,758.87,131.86Z"/><path class="c" d="M767.66,122.05a7.2,7.2,0,0,0-4.47,1.66,12.41,12.41,0,0,0-3.42,6.25,1.18,1.18,0,0,0,.24,1,1.13,1.13,0,0,0,.88.42l15.56,0a.31.31,0,0,0,0-.1C775.57,126.4,772,122.06,767.66,122.05Z"/><path class="b" d="M773.72,113.81a5.09,5.09,0,1,0-1.49,3.87A5.13,5.13,0,0,0,773.72,113.81Zm-1.48,3.68a.47.47,0,0,1-.1.1,5,5,0,0,1-7.51-6.48,5.23,5.23,0,0,1,.48-.56,5,5,0,0,1,7.13,6.94Z"/><path class="b" d="M766.36,120.1l.19-.06a6.4,6.4,0,0,1-4.24-5.65,6.33,6.33,0,1,1,10.79,4.16A6.4,6.4,0,0,1,771,120l.2,0a6.45,6.45,0,1,0-9-5.6,6.8,6.8,0,0,0,.13,1A6.58,6.58,0,0,0,766.36,120.1Z"/><path class="b" d="M768.94,121.06h0c-4.27,0-8.26,3.81-9.27,8.88a1.23,1.23,0,0,0,.26,1.06,1.25,1.25,0,0,0,1,.46l16.07,0h0A1.26,1.26,0,0,0,778.2,130C777.19,124.89,773.21,121.06,768.94,121.06Zm9.14,8.92a1.15,1.15,0,0,1-1.12,1.38h-.51l-15.56,0a1.13,1.13,0,0,1-.88-.42,1.18,1.18,0,0,1-.24-1,12.41,12.41,0,0,1,3.42-6.25,8.81,8.81,0,0,1,4-2.31,7.06,7.06,0,0,1,1.66-.22h.12C773.57,121.18,777.22,125.66,778.08,130Z"/><path class="b" d="M758.87,131.86a2.62,2.62,0,0,0,2,.95l15.17,0h.9a2.62,2.62,0,0,0,2.57-3.13c-1-4.82-4.37-8.64-8.37-9.7l-.2,0-.2.08c4.11.9,7.67,4.77,8.65,9.69a2.55,2.55,0,0,1-.52,2.08,2.49,2.49,0,0,1-1.93.91h0l-16.07,0a2.48,2.48,0,0,1-2.44-3c1-4.78,4.35-8.56,8.31-9.59l-.21-.07-.19.06a8.7,8.7,0,0,0-1.46.58,12.85,12.85,0,0,0-6.57,9,2.65,2.65,0,0,0,.52,2.16Z"/><path class="b" d="M775,113.75a6.38,6.38,0,0,0-6-6,6.33,6.33,0,0,0-6.65,6.64,6.4,6.4,0,0,0,4.24,5.65l.21.07a8.34,8.34,0,0,1,2.17-.29h0a8,8,0,0,1,1.82.21l.2-.08a6.31,6.31,0,0,0,4-6.2Zm-6.59,5.41a5.1,5.1,0,0,1-3.33-8.7,5.1,5.1,0,0,1,7.2,7.22A5.16,5.16,0,0,1,768.36,119.16Z"/><path class="b" d="M768.94,119.82h0a8.34,8.34,0,0,0-2.17.29c-4,1-7.35,4.81-8.31,9.59a2.48,2.48,0,0,0,2.44,3l16.07,0h0a2.49,2.49,0,0,0,1.93-.91,2.55,2.55,0,0,0,.52-2.08c-1-4.92-4.54-8.79-8.65-9.69A8,8,0,0,0,768.94,119.82ZM778.2,130a1.26,1.26,0,0,1-1.24,1.52h0l-16.07,0a1.25,1.25,0,0,1-1-.46,1.23,1.23,0,0,1-.26-1.06c1-5.07,5-8.88,9.27-8.88h0C773.21,121.06,777.19,124.89,778.2,130Z"/><polygon class="c" points="701.78 122.67 704.96 124.35 704.37 120.81 706.95 118.31 703.39 117.78 701.81 114.55 700.21 117.77 696.65 118.27 699.22 120.79 698.6 124.33 701.78 122.67"/><path class="b" d="M705.06,116.4l-.6-.09-1.72-3.52-.91-1.87-.86,1.72-1.82,3.65-5.95.85,4.29,4.2-1,5.92,5.32-2.78,5.3,2.81-1-5.92,3.31-3.2,1-1Zm-8.41,1.87,3.56-.5,1.6-3.22,1.58,3.23,3.56.53-2.58,2.5.59,3.54-3.17-1.68-3.19,1.66.62-3.54Z"/><path class="b" d="M984.58,91.64H985a7.56,7.56,0,1,0-.38,0Zm-3.5-11.43A5.44,5.44,0,0,1,985,78.6h.29a5.53,5.53,0,0,1,5.2,5.2,5.49,5.49,0,0,1-5.77,5.77,5.53,5.53,0,0,1-5.2-5.19A5.47,5.47,0,0,1,981.08,80.21Z"/><path class="b" d="M976.27,132.33h13.08l-.57-1.42c-.07-.17-1.55-3.75-4.72-4.58V114.05h4.74V103.71a1,1,0,0,0-2.06,0V112H982v16.17l1,.07a4.36,4.36,0,0,1,3.09,2h-7.72v-18.4H974V99.2a8.55,8.55,0,0,1,3.92-7,1,1,0,1,0-1-1.77,10.63,10.63,0,0,0-4.93,8.74v14.73h4.37Z"/><path class="b" d="M1027.91,91.65h.38a7.56,7.56,0,1,0-.38,0Zm-5.5-7.84a5.54,5.54,0,0,1,5.2-5.2h.29a5.49,5.49,0,0,1,5.49,5.79,5.54,5.54,0,0,1-5.21,5.19,5.49,5.49,0,0,1-5.77-5.77Z"/><path class="b" d="M1035.69,90.46a1,1,0,1,0-1,1.77,8.61,8.61,0,0,1,3.92,7v12.67h-4.38v18.4h-7.71a4.41,4.41,0,0,1,3.09-2l1-.07V112h-4.74v-8.28a1,1,0,1,0-2.06,0v10.34h4.74v12.28c-3.17.83-4.65,4.41-4.72,4.58l-.57,1.42h13.07v-18.4h4.38V99.2A10.63,10.63,0,0,0,1035.69,90.46Z"/><path class="b" d="M1003.63,104.16a1,1,0,0,1-.12-1.4l-2.17-2.37a1.56,1.56,0,0,1-.29-.46,1,1,0,0,1-.82-1.07,3.46,3.46,0,0,1,.17-1l-2.87,0L992,92.36a1,1,0,0,0-1.46,1.45l6.2,6.19,3.62,0c0,.1.05.19.07.29a5.29,5.29,0,0,0,1.29,2.11h-7.42l-6-6a1,1,0,1,0-1.46,1.46l6.58,6.57h10.52Z"/><path class="b" d="M1012.69,99.93a2.7,2.7,0,0,1-.43.63l-2,2.21a1,1,0,0,1-.1,1.36l-.3.29h10.51l6.58-6.57a1,1,0,0,0-1.46-1.46l-6,6h-7.41a5.26,5.26,0,0,0,1.28-2.11c0-.1.06-.19.08-.29l3.62,0,6.19-6.19a1,1,0,0,0-1.45-1.45l-5.58,5.57-2.86,0a4.06,4.06,0,0,1,.19,1A1,1,0,0,1,1012.69,99.93Z"/><path class="b" d="M1001.05,99.93a1.52,1.52,0,0,1-.06-.2,3.68,3.68,0,0,1-.11-1.29,3.4,3.4,0,0,1,3.06-3.17,3.45,3.45,0,0,0,5.94,0,3.4,3.4,0,0,1,3.08,3.1c0,.08,0,.16,0,.24a2.68,2.68,0,0,1-.28,1.32,1,1,0,0,0,.86-1.06,4.06,4.06,0,0,0-.19-1,4.24,4.24,0,0,0-1.58-2.12,4,4,0,0,0-2.34-.71,3.33,3.33,0,0,1-5.14,0,4.08,4.08,0,0,0-3.62,2.15,3.61,3.61,0,0,0-.28.68,3.46,3.46,0,0,0-.17,1A1,1,0,0,0,1001.05,99.93Z"/><path class="b" d="M1010.24,102.77l-3.35,3.68-3.38-3.69a1,1,0,0,0,.12,1.4l.29.26.34.31c.5.45,1,.92,1.56,1.38a1.88,1.88,0,0,0,1.19.54,1.81,1.81,0,0,0,1.24-.67h0l1.07-1,.51-.5.3-.29A1,1,0,0,0,1010.24,102.77Z"/><path class="c" d="M1006.89,106.45l3.35-3.68,2-2.21a2.73,2.73,0,0,0,.71-2c0-.08,0-.16,0-.24a3.4,3.4,0,0,0-3.08-3.1,3.45,3.45,0,0,1-5.94,0,3.4,3.4,0,0,0-3.06,3.17,3.68,3.68,0,0,0,.11,1.29,1.52,1.52,0,0,0,.06.2,1.56,1.56,0,0,0,.29.46l2.17,2.37Z"/><path class="b" d="M1018.58,128.26V115l-12.26-6.6L994.05,115v13.3l12.27,6.6Zm-22.74-1.06V116.94l-1.28-.65.82-1.59,1.5.77,4.06-2.19-.39-.2.84-1.57,1.44.76,3.49-1.88,9.47,5.1,1.56-.79.8,1.59-1.35.69V127.2l-9.76,5.25v1.44h-1.78v-1.63Z"/><polygon class="b" points="1007.04 133.89 1007.04 132.45 1007.04 121.94 1006.71 122.11 1006.31 121.31 1005.9 122.1 1005.26 121.77 1005.26 132.26 1005.26 133.89 1007.04 133.89"/><polygon class="b" points="1012.69 117.53 1011.85 119.1 1010.3 118.28 1006.31 120.31 1006.71 120.52 1006.31 121.31 1006.71 122.11 1007.04 121.94 1016.8 116.98 1018.15 116.29 1017.35 114.7 1015.79 115.49 1012.25 117.29 1012.69 117.53"/><polygon class="b" points="1005.9 122.1 1006.31 121.31 1006.71 120.52 1006.31 120.31 996.88 115.47 995.38 114.7 994.56 116.29 995.84 116.94 1005.26 121.77 1005.9 122.1"/><polygon class="b" points="1011.85 119.1 1012.69 117.53 1012.25 117.29 1002.83 112.27 1001.39 111.5 1000.55 113.08 1000.94 113.28 1010.3 118.28 1011.85 119.1"/><path class="b" d="M152.91,149.85c-.27,1.56-.57,3.1-.76,4.56h0c-.19-1.46-.41-2.86-.7-4.4l-1-5.54H147.2l-1.11,5.38c-.34,1.62-.65,3.2-.86,4.62h0c-.22-1.33-.49-3-.78-4.58l-1-5.42h-3.18l3.12,13.14h3.25l1.25-5.66c.31-1.32.53-2.57.76-4h0c.16,1.5.37,2.73.62,4l1.11,5.66h3.22L157,144.47h-3Z"/><path class="b" d="M162.09,147.86c-3.31,0-4.81,2.67-4.81,5.09,0,3,1.85,4.85,5.08,4.85a9.38,9.38,0,0,0,3.45-.58l-.39-2a8.46,8.46,0,0,1-2.63.39c-1.38,0-2.59-.58-2.69-1.81h6.14a7,7,0,0,0,.1-1.17C166.34,150.26,165.17,147.86,162.09,147.86Zm-2,3.9a2,2,0,0,1,1.83-1.93,1.72,1.72,0,0,1,1.68,1.93Z"/><path class="b" d="M174.2,147.86a3.37,3.37,0,0,0-2.89,1.35h0v-5.44h-3v11c0,1.07,0,2.22-.08,2.85h2.52l.11-1.33h0a3.17,3.17,0,0,0,2.87,1.54c2.18,0,4.36-1.71,4.36-5.14C178.15,149.75,176.48,147.86,174.2,147.86Zm-1.13,7.62a1.8,1.8,0,0,1-1.74-1.4,2.15,2.15,0,0,1-.06-.53v-1.4a2.44,2.44,0,0,1,.06-.55,1.85,1.85,0,0,1,1.74-1.46c1.38,0,2,1.17,2,2.65C175.11,154.51,174.33,155.48,173.07,155.48Z"/><path class="b" d="M184.23,151.78c-1.16-.41-1.54-.64-1.54-1.09s.41-.78,1.14-.78a4.75,4.75,0,0,1,2.06.54l.53-2a6.29,6.29,0,0,0-2.69-.55c-2.36,0-3.88,1.35-3.88,3.12,0,1.13.74,2.2,2.71,2.87,1.11.37,1.4.6,1.4,1.09s-.37.8-1.27.8a5.84,5.84,0,0,1-2.55-.72l-.53,2.12a6.8,6.8,0,0,0,3.08.66c2.73,0,4.14-1.3,4.14-3.08C186.81,153.32,186.05,152.4,184.23,151.78Z"/><rect class="b" x="188.82" y="148.08" width="2.96" height="9.53"/><path class="b" d="M190.3,143.92a1.5,1.5,0,1,0,0,3,1.5,1.5,0,1,0,0-3Z"/><path class="b" d="M197.67,145.35l-2.91.66v2.07h-1.27v2.18h1.27v3.9a3.91,3.91,0,0,0,.82,2.82,3.08,3.08,0,0,0,2.22.82,5.72,5.72,0,0,0,1.93-.25l0-2.24a4.6,4.6,0,0,1-.87.08c-.9,0-1.17-.53-1.17-1.68v-3.45h2.12v-2.18h-2.12Z"/><path class="b" d="M205.87,147.86c-3.31,0-4.81,2.67-4.81,5.09,0,3,1.85,4.85,5.09,4.85a9.45,9.45,0,0,0,3.45-.58l-.39-2a8.53,8.53,0,0,1-2.64.39c-1.38,0-2.59-.58-2.69-1.81H210a7,7,0,0,0,.1-1.17C210.12,150.26,209,147.86,205.87,147.86Zm-2,3.9a2,2,0,0,1,1.84-1.93,1.72,1.72,0,0,1,1.67,1.93Z"/><path class="b" d="M290.72,149.81c-1.69-.64-2.43-1-2.43-1.85,0-.68.62-1.27,1.91-1.27a6.35,6.35,0,0,1,2.75.62l.66-2.39a8,8,0,0,0-3.35-.67c-3.1,0-5,1.72-5,4,0,1.91,1.43,3.12,3.61,3.88,1.58.57,2.2,1,2.2,1.85s-.72,1.43-2.08,1.43a7.59,7.59,0,0,1-3.3-.82l-.6,2.45a8.57,8.57,0,0,0,3.72.8c3.61,0,5.3-1.87,5.3-4.07C294.13,151.88,293,150.67,290.72,149.81Z"/><polygon class="b" points="299.32 152.05 304.15 152.05 304.15 149.63 299.32 149.63 299.32 146.91 304.45 146.91 304.45 144.47 296.34 144.47 296.34 157.61 304.72 157.61 304.72 155.17 299.32 155.17 299.32 152.05"/><path class="b" d="M312.73,144.25c-3.88,0-6.39,2.95-6.39,6.89,0,3.74,2.28,6.68,6.18,6.68s6.45-2.61,6.45-6.92C319,147.28,316.77,144.25,312.73,144.25Zm-.06,11.21c-2,0-3.19-1.81-3.19-4.38s1.17-4.47,3.17-4.47,3.18,2,3.18,4.39C315.83,153.55,314.68,155.46,312.67,155.46Z"/><path class="b" d="M392.07,144.47l-4,13.14h3.08l.94-3.37h3.76l1,3.37H400L396,144.47Zm.43,7.54.78-2.78c.21-.76.4-1.76.6-2.54h0c.19.78.43,1.76.66,2.54l.82,2.78Z"/><path class="b" d="M410.66,143.77h-3v5.16h0a2.9,2.9,0,0,0-2.51-1.07c-2.28,0-4.29,1.85-4.27,5.07,0,3,1.81,4.89,4.07,4.89a3.3,3.3,0,0,0,3-1.62h0l.14,1.41h2.63c0-.65-.08-1.78-.08-2.85Zm-3,9.59a2.44,2.44,0,0,1-.08.68,1.73,1.73,0,0,1-1.71,1.42c-1.23,0-2-1-2-2.63s.7-2.71,2.05-2.71a1.78,1.78,0,0,1,1.73,1.46,4.73,4.73,0,0,1,0,.53Z"/><path class="b" d="M417.66,152.5c-.21.82-.37,1.54-.52,2.32h-.06c-.14-.76-.32-1.52-.55-2.32l-1.29-4.42H412l3.47,9.53h3l3.55-9.53h-3.12Z"/><path class="b" d="M427.35,147.86c-3.31,0-4.82,2.67-4.82,5.09,0,3,1.86,4.85,5.09,4.85a9.38,9.38,0,0,0,3.45-.58l-.39-2a8.46,8.46,0,0,1-2.63.39c-1.38,0-2.59-.58-2.69-1.81h6.14a7,7,0,0,0,.1-1.17C431.6,150.26,430.43,147.86,427.35,147.86Zm-2,3.9a2,2,0,0,1,1.83-1.93,1.72,1.72,0,0,1,1.68,1.93Z"/><path class="b" d="M436,149.83H436l-.1-1.75H433.3c0,.81.07,1.73.07,3.13v6.4h3v-4.84a4.54,4.54,0,0,1,.05-.66,1.91,1.91,0,0,1,2-1.5,4.13,4.13,0,0,1,.8.08V147.9a2.93,2.93,0,0,0-.62,0A2.81,2.81,0,0,0,436,149.83Z"/><path class="b" d="M444.5,145.35l-2.9.66v2.07h-1.27v2.18h1.27v3.9a3.91,3.91,0,0,0,.82,2.82,3.08,3.08,0,0,0,2.22.82,5.72,5.72,0,0,0,1.93-.25l0-2.24a4.72,4.72,0,0,1-.88.08c-.89,0-1.17-.53-1.17-1.68v-3.45h2.13v-2.18H444.5Z"/><path class="b" d="M449.83,143.92a1.5,1.5,0,1,0,0,3,1.5,1.5,0,1,0,0-3Z"/><rect class="b" x="448.34" y="148.08" width="2.96" height="9.53"/><path class="b" d="M457.76,151.78c-1.17-.41-1.54-.64-1.54-1.09s.41-.78,1.13-.78a4.75,4.75,0,0,1,2.07.54l.52-2a6.26,6.26,0,0,0-2.69-.55c-2.36,0-3.88,1.35-3.88,3.12,0,1.13.74,2.2,2.71,2.87,1.11.37,1.41.6,1.41,1.09s-.37.8-1.27.8a5.76,5.76,0,0,1-2.55-.72l-.53,2.12a6.74,6.74,0,0,0,3.08.66c2.73,0,4.13-1.3,4.13-3.08C460.33,153.32,459.57,152.4,457.76,151.78Z"/><path class="b" d="M466.41,147.86c-3.31,0-4.81,2.67-4.81,5.09,0,3,1.85,4.85,5.09,4.85a9.45,9.45,0,0,0,3.45-.58l-.39-2a8.51,8.51,0,0,1-2.63.39c-1.39,0-2.6-.58-2.69-1.81h6.14a7.26,7.26,0,0,0,.09-1.17C470.66,150.26,469.49,147.86,466.41,147.86Zm-2,3.9a1.93,1.93,0,0,1,1.83-1.93,1.73,1.73,0,0,1,1.68,1.93Z"/><path class="b" d="M7.14,149.49v0a3,3,0,0,0,2.16-2.81,2.85,2.85,0,0,0-1.58-2.57,7.23,7.23,0,0,0-3.88-.74A23.28,23.28,0,0,0,0,143.6v12.91a24.36,24.36,0,0,0,3.22.19c2.61,0,4.21-.43,5.16-1.19a3.5,3.5,0,0,0,1.37-2.79A3.29,3.29,0,0,0,7.14,149.49Zm-4.2-3.92a8.06,8.06,0,0,1,1.27-.08c1.35,0,2.11.53,2.11,1.52s-.84,1.62-2.4,1.62h-1Zm1.15,8.93a9.26,9.26,0,0,1-1.15,0v-3.7H4c1.48,0,2.67.52,2.67,1.85S5.44,154.5,4.09,154.5Z"/><path class="b" d="M14.52,148.79h-.08L14.35,147H11.79c0,.82.08,1.74.08,3.14v6.39h3v-4.83a3.37,3.37,0,0,1,.06-.66,1.91,1.91,0,0,1,2-1.5,4.23,4.23,0,0,1,.8.07v-2.78a2.93,2.93,0,0,0-.62,0A2.8,2.8,0,0,0,14.52,148.79Z"/><path class="b" d="M27.21,150.93c0-2.24-1-4.11-4.19-4.11a7.74,7.74,0,0,0-3.7.84l.54,1.91a5.4,5.4,0,0,1,2.64-.73c1.46,0,1.73.73,1.73,1.23v.14c-3.37,0-5.59,1.17-5.59,3.64a2.92,2.92,0,0,0,3.08,2.93,3.45,3.45,0,0,0,2.73-1.17h.05l.18.95h2.67a14.32,14.32,0,0,1-.14-2.32Zm-2.88,2.16a2,2,0,0,1-.06.51,1.62,1.62,0,0,1-1.54,1.09,1.07,1.07,0,0,1-1.17-1.13c0-1.15,1.21-1.52,2.77-1.5Z"/><path class="b" d="M35.38,146.82a3.47,3.47,0,0,0-2.94,1.52h-.06L32.24,147H29.67c0,.84.08,1.85.08,3v6.49h3v-5.49a1.94,1.94,0,0,1,.12-.74,1.58,1.58,0,0,1,1.5-1.12c1.07,0,1.5.84,1.5,2.07v5.28h3v-5.65C38.79,148.1,37.33,146.82,35.38,146.82Z"/><path class="b" d="M50.61,142.72h-3v5.17h0a2.9,2.9,0,0,0-2.51-1.07c-2.28,0-4.29,1.85-4.27,5.07,0,3,1.81,4.89,4.07,4.89a3.35,3.35,0,0,0,3-1.62h0l.13,1.4h2.63c0-.64-.07-1.77-.07-2.84Zm-3,9.59a2.51,2.51,0,0,1-.08.69,1.72,1.72,0,0,1-1.71,1.42c-1.23,0-2-1-2-2.63s.7-2.71,2-2.71a1.77,1.77,0,0,1,1.73,1.46,4.73,4.73,0,0,1,0,.53Z"/><path class="b" d="M54.66,142.88a1.49,1.49,0,1,0,0,3,1.49,1.49,0,1,0,0-3Z"/><rect class="b" x="53.18" y="147.03" width="2.96" height="9.53"/><path class="b" d="M64.35,146.82a3.49,3.49,0,0,0-2.95,1.52h0L61.21,147H58.64c0,.84.07,1.85.07,3v6.49h3v-5.49a2.18,2.18,0,0,1,.11-.74,1.6,1.6,0,0,1,1.51-1.12c1.07,0,1.5.84,1.5,2.07v5.28h3v-5.65C67.76,148.1,66.3,146.82,64.35,146.82Z"/><path class="b" d="M76.77,148.16h0a2.88,2.88,0,0,0-2.62-1.34c-2.33,0-4.32,2-4.32,5,0,2.75,1.67,4.66,4,4.66a3.07,3.07,0,0,0,2.58-1.25h0v.62A2.27,2.27,0,0,1,74,158.38a5.87,5.87,0,0,1-2.77-.72l-.58,2.24a7.36,7.36,0,0,0,3.43.74,5.88,5.88,0,0,0,3.88-1.17c1.07-1,1.44-2.46,1.44-4.29v-5.32c0-1.42,0-2.22.08-2.83H76.86Zm-.37,4.15a2.42,2.42,0,0,1-.1.78,1.61,1.61,0,0,1-1.56,1.21c-1.25,0-1.95-1.11-1.95-2.53,0-1.74.88-2.71,1.95-2.71a1.63,1.63,0,0,1,1.6,1.31,2.23,2.23,0,0,1,.06.54Z"/><path class="b" d="M526.05,149.81c-1.7-.64-2.44-1-2.44-1.85,0-.68.63-1.27,1.91-1.27a6.27,6.27,0,0,1,2.75.62l.67-2.39a8.09,8.09,0,0,0-3.36-.67c-3.1,0-5,1.72-5,4,0,1.91,1.42,3.12,3.61,3.88,1.58.57,2.2,1,2.2,1.85s-.72,1.43-2.09,1.43a7.58,7.58,0,0,1-3.29-.82l-.6,2.45a8.57,8.57,0,0,0,3.72.8c3.61,0,5.3-1.87,5.3-4.07C529.46,151.88,528.37,150.67,526.05,149.81Z"/><path class="b" d="M536.05,147.86a4.76,4.76,0,0,0-5.09,5,4.67,4.67,0,0,0,4.93,4.91,4.78,4.78,0,0,0,5-5.09A4.63,4.63,0,0,0,536.05,147.86ZM536,155.7c-1.26,0-2-1.23-2-2.87,0-1.4.53-2.86,2-2.86s1.89,1.44,1.89,2.86C537.86,154.55,537.12,155.7,536,155.7Z"/><path class="b" d="M547.86,150.14a4.18,4.18,0,0,1,1.66.29l.47-2.2a7,7,0,0,0-2.26-.37c-3.55,0-5.46,2.28-5.46,5.07,0,3,2,4.87,5.05,4.87a7.11,7.11,0,0,0,2.65-.43l-.35-2.18a4.52,4.52,0,0,1-1.7.29,2.67,2.67,0,0,1-.06-5.34Z"/><rect class="b" x="551.61" y="148.08" width="2.96" height="9.53"/><path class="b" d="M553.09,143.92a1.5,1.5,0,1,0,0,3,1.5,1.5,0,1,0,0-3Z"/><path class="b" d="M564.9,152c0-2.24-1-4.11-4.19-4.11a7.82,7.82,0,0,0-3.7.84l.54,1.91a5.36,5.36,0,0,1,2.63-.72c1.46,0,1.74.72,1.74,1.23v.13c-3.37,0-5.6,1.17-5.6,3.65a2.92,2.92,0,0,0,3.08,2.92,3.43,3.43,0,0,0,2.73-1.17h.06l.18,1H565a14.49,14.49,0,0,1-.14-2.32ZM562,154.14a2,2,0,0,1-.06.5,1.62,1.62,0,0,1-1.54,1.1,1.06,1.06,0,0,1-1.17-1.13c0-1.15,1.21-1.52,2.77-1.51Z"/><rect class="b" x="567.24" y="143.77" width="2.96" height="13.84"/><path class="b" d="M587.73,147.86a3.5,3.5,0,0,0-1.82.47,4.26,4.26,0,0,0-1.22,1.15h0a2.7,2.7,0,0,0-2.62-1.62,3.32,3.32,0,0,0-2.88,1.5h-.06l-.14-1.28h-2.49c0,.83.08,1.85.08,3v6.49h2.88v-5.56a2,2,0,0,1,.12-.74,1.5,1.5,0,0,1,1.38-1.07c.94,0,1.37.82,1.37,2v5.34h2.88V152a2.46,2.46,0,0,1,.12-.76,1.46,1.46,0,0,1,1.37-1c1,0,1.4.8,1.4,2.18v5.19h2.88V152C590.94,149.15,589.56,147.86,587.73,147.86Z"/><path class="b" d="M597.57,147.86c-3.31,0-4.81,2.67-4.81,5.09,0,3,1.85,4.85,5.08,4.85a9.38,9.38,0,0,0,3.45-.58l-.39-2a8.41,8.41,0,0,1-2.63.39c-1.38,0-2.59-.58-2.69-1.81h6.14a7,7,0,0,0,.1-1.17C601.82,150.26,600.65,147.86,597.57,147.86Zm-2,3.9a2,2,0,0,1,1.84-1.93,1.72,1.72,0,0,1,1.67,1.93Z"/><path class="b" d="M612.83,143.77h-3v5.16h0a2.9,2.9,0,0,0-2.51-1.07c-2.28,0-4.29,1.85-4.27,5.07,0,3,1.81,4.89,4.07,4.89a3.33,3.33,0,0,0,3-1.62h0l.14,1.41h2.63c0-.65-.08-1.78-.08-2.85Zm-3,9.59a2.44,2.44,0,0,1-.08.68,1.72,1.72,0,0,1-1.71,1.42c-1.23,0-2-1-2-2.63s.7-2.71,2.05-2.71a1.78,1.78,0,0,1,1.73,1.46,4.73,4.73,0,0,1,0,.53Z"/><rect class="b" x="615.21" y="148.08" width="2.96" height="9.53"/><path class="b" d="M616.69,143.92a1.5,1.5,0,1,0,0,3,1.5,1.5,0,1,0,0-3Z"/><path class="b" d="M628.51,152c0-2.24-1-4.11-4.19-4.11a7.87,7.87,0,0,0-3.71.84l.55,1.91a5.33,5.33,0,0,1,2.63-.72c1.46,0,1.73.72,1.73,1.23v.13c-3.37,0-5.59,1.17-5.59,3.65a2.92,2.92,0,0,0,3.08,2.92,3.43,3.43,0,0,0,2.73-1.17h.06l.17,1h2.67a16,16,0,0,1-.13-2.32Zm-2.89,2.17a2,2,0,0,1-.06.5,1.61,1.61,0,0,1-1.54,1.1,1.07,1.07,0,0,1-1.17-1.13c0-1.15,1.21-1.52,2.77-1.51Z"/><path class="b" d="M873.25,150.08c-.45,1.5-.86,3.06-1.19,4.64H872c-.31-1.63-.72-3.14-1.17-4.7l-1.6-5.55H866l4.21,13.14h3.47l4.43-13.14h-3.16Z"/><rect class="b" x="878.86" y="148.08" width="2.96" height="9.53"/><path class="b" d="M880.35,143.92a1.5,1.5,0,1,0,0,3,1.5,1.5,0,1,0,0-3Z"/><path class="b" d="M886.86,149.83h-.08l-.1-1.75h-2.55c0,.81.08,1.73.08,3.13v6.4h3v-4.84a3.45,3.45,0,0,1,.06-.66,1.89,1.89,0,0,1,2-1.5,4,4,0,0,1,.8.08V147.9a2.93,2.93,0,0,0-.62,0A2.79,2.79,0,0,0,886.86,149.83Z"/><path class="b" d="M899.35,152c0-2.24-1-4.11-4.19-4.11a7.86,7.86,0,0,0-3.7.84l.54,1.91a5.39,5.39,0,0,1,2.63-.72c1.47,0,1.74.72,1.74,1.23v.13c-3.37,0-5.6,1.17-5.6,3.65a2.93,2.93,0,0,0,3.08,2.92,3.42,3.42,0,0,0,2.73-1.17h.06l.18,1h2.67a14.49,14.49,0,0,1-.14-2.32Zm-2.88,2.17a2,2,0,0,1-.06.5,1.62,1.62,0,0,1-1.54,1.1,1.07,1.07,0,0,1-1.17-1.13c0-1.15,1.21-1.52,2.77-1.51Z"/><rect class="b" x="901.69" y="143.77" width="2.96" height="13.84"/><path class="b" d="M979.28,149.81c-1.7-.64-2.44-1-2.44-1.85,0-.68.63-1.27,1.91-1.27a6.27,6.27,0,0,1,2.75.62l.67-2.39a8.09,8.09,0,0,0-3.36-.67c-3.1,0-5,1.72-5,4,0,1.91,1.42,3.12,3.61,3.88,1.58.57,2.2,1,2.2,1.85s-.72,1.43-2.08,1.43a7.59,7.59,0,0,1-3.3-.82l-.6,2.45a8.57,8.57,0,0,0,3.72.8c3.61,0,5.3-1.87,5.3-4.07C982.69,151.88,981.6,150.67,979.28,149.81Z"/><path class="b" d="M989,147.86c-3.32,0-4.82,2.67-4.82,5.09,0,3,1.85,4.85,5.09,4.85a9.38,9.38,0,0,0,3.45-.58l-.39-2a8.51,8.51,0,0,1-2.63.39c-1.38,0-2.59-.58-2.69-1.81h6.14a7,7,0,0,0,.1-1.17C993.26,150.26,992.09,147.86,989,147.86Zm-2,3.9a1.94,1.94,0,0,1,1.83-1.93,1.72,1.72,0,0,1,1.68,1.93Z"/><path class="b" d="M997.68,149.83h-.08l-.09-1.75H995c0,.81.08,1.73.08,3.13v6.4h3v-4.84a3.45,3.45,0,0,1,.06-.66,1.91,1.91,0,0,1,2-1.5,4.21,4.21,0,0,1,.8.08V147.9a3,3,0,0,0-.62,0A2.81,2.81,0,0,0,997.68,149.83Z"/><path class="b" d="M1007.41,152.5c-.22.82-.37,1.54-.53,2.32h-.06a21.42,21.42,0,0,0-.54-2.32l-1.29-4.42h-3.21l3.47,9.53h3l3.55-9.53h-3.12Z"/><rect class="b" x="1013.12" y="148.08" width="2.96" height="9.53"/><path class="b" d="M1014.6,143.92a1.5,1.5,0,1,0,0,3,1.5,1.5,0,1,0,0-3Z"/><path class="b" d="M1023.51,150.14a4.18,4.18,0,0,1,1.66.29l.47-2.2a7.06,7.06,0,0,0-2.27-.37c-3.54,0-5.45,2.28-5.45,5.07,0,3,2,4.87,5,4.87a7.13,7.13,0,0,0,2.66-.43l-.35-2.18a4.52,4.52,0,0,1-1.7.29,2.67,2.67,0,0,1-.06-5.34Z"/><path class="b" d="M1031.31,147.86c-3.32,0-4.82,2.67-4.82,5.09,0,3,1.86,4.85,5.09,4.85a9.38,9.38,0,0,0,3.45-.58l-.39-2a8.51,8.51,0,0,1-2.63.39c-1.38,0-2.59-.58-2.69-1.81h6.14a7,7,0,0,0,.1-1.17C1035.56,150.26,1034.39,147.86,1031.31,147.86Zm-2,3.9a2,2,0,0,1,1.83-1.93,1.72,1.72,0,0,1,1.68,1.93Z"/><path class="b" d="M664.71,146.71a6.26,6.26,0,0,1,2.49.49l.61-2.36a7.81,7.81,0,0,0-3.24-.59c-4,0-7.17,2.5-7.17,7,0,3.75,2.34,6.57,6.88,6.57a8.5,8.5,0,0,0,3.37-.56l-.45-2.32a7.5,7.5,0,0,1-2.47.43,3.93,3.93,0,0,1-4.21-4.29C660.52,148.13,662.35,146.71,664.71,146.71Z"/><path class="b" d="M673.67,147.86a4.75,4.75,0,0,0-5.08,5,4.66,4.66,0,0,0,4.93,4.91,4.79,4.79,0,0,0,5-5.09A4.64,4.64,0,0,0,673.67,147.86Zm-.07,7.84c-1.27,0-2-1.23-2-2.87,0-1.4.52-2.86,2-2.86s1.89,1.44,1.89,2.86C675.49,154.55,674.75,155.7,673.6,155.7Z"/><path class="b" d="M686,147.86a3.49,3.49,0,0,0-2.94,1.52H683l-.13-1.3H680.3c0,.83.08,1.85.08,3v6.49h3v-5.5a2,2,0,0,1,.12-.74,1.58,1.58,0,0,1,1.5-1.11c1.07,0,1.5.84,1.5,2.07v5.28h3V152C689.43,149.15,688,147.86,686,147.86Z"/><path class="b" d="M695,145.35l-2.9.66v2.07h-1.27v2.18h1.27v3.9a4,4,0,0,0,.81,2.82,3.09,3.09,0,0,0,2.23.82,5.72,5.72,0,0,0,1.93-.25l0-2.24a4.81,4.81,0,0,1-.88.08c-.9,0-1.17-.53-1.17-1.68v-3.45h2.13v-2.18H695Z"/><path class="b" d="M703,147.86c-3.31,0-4.81,2.67-4.81,5.09,0,3,1.85,4.85,5.09,4.85a9.45,9.45,0,0,0,3.45-.58l-.39-2a8.53,8.53,0,0,1-2.64.39c-1.38,0-2.59-.58-2.69-1.81h6.14a7,7,0,0,0,.1-1.17C707.26,150.26,706.09,147.86,703,147.86Zm-2,3.9a2,2,0,0,1,1.84-1.93,1.72,1.72,0,0,1,1.67,1.93Z"/><path class="b" d="M714.67,147.86a3.49,3.49,0,0,0-2.94,1.52h-.06l-.14-1.3H709c0,.83.08,1.85.08,3v6.49h3v-5.5a2,2,0,0,1,.12-.74,1.57,1.57,0,0,1,1.5-1.11c1.07,0,1.5.84,1.5,2.07v5.28h3V152C718.08,149.15,716.62,147.86,714.67,147.86Z"/><path class="b" d="M723.66,145.35l-2.91.66v2.07h-1.27v2.18h1.27v3.9a3.91,3.91,0,0,0,.82,2.82,3.08,3.08,0,0,0,2.22.82,5.72,5.72,0,0,0,1.93-.25l0-2.24a4.6,4.6,0,0,1-.87.08c-.9,0-1.17-.53-1.17-1.68v-3.45h2.12v-2.18h-2.12Z"/><path class="b" d="M741.14,144.47l-1.4,4.37c-.43,1.46-.88,3.19-1.25,4.71h-.06c-.29-1.54-.7-3.17-1.11-4.69L736,144.47h-3.95l-.84,13.14H734l.23-5c.1-1.64.16-3.67.24-5.44h0c.32,1.71.76,3.59,1.19,5.13l1.41,5.08h2.32l1.6-5.12c.5-1.54,1-3.41,1.46-5.09h.06c0,1.91.05,3.82.11,5.4l.2,5h2.9L745,144.47Z"/><path class="b" d="M755.94,152c0-2.24-1-4.11-4.19-4.11a7.87,7.87,0,0,0-3.71.84l.55,1.91a5.36,5.36,0,0,1,2.63-.72c1.46,0,1.73.72,1.73,1.23v.13c-3.37,0-5.59,1.17-5.59,3.65a2.92,2.92,0,0,0,3.08,2.92,3.43,3.43,0,0,0,2.73-1.17h.06l.17,1h2.67a16,16,0,0,1-.13-2.32Zm-2.89,2.17a2,2,0,0,1-.06.5,1.61,1.61,0,0,1-1.54,1.1,1.07,1.07,0,0,1-1.17-1.13c0-1.15,1.21-1.52,2.77-1.51Z"/><path class="b" d="M760.93,149.83h-.08l-.1-1.75H758.2c0,.81.08,1.73.08,3.13v6.4h3v-4.84a3.45,3.45,0,0,1,.06-.66,1.89,1.89,0,0,1,2-1.5,4,4,0,0,1,.79.08V147.9a2.93,2.93,0,0,0-.62,0A2.79,2.79,0,0,0,760.93,149.83Z"/><path class="b" d="M774.81,148.08h-3.57l-1.93,2.86c-.23.37-.47.76-.68,1.15h0v-8.32h-3v13.84h3v-3l.76-.94,2.3,3.92h3.64l-3.89-5.67Z"/><path class="b" d="M780.19,147.86c-3.32,0-4.82,2.67-4.82,5.09,0,3,1.85,4.85,5.09,4.85a9.38,9.38,0,0,0,3.45-.58l-.39-2a8.51,8.51,0,0,1-2.63.39c-1.39,0-2.59-.58-2.69-1.81h6.14a7,7,0,0,0,.1-1.17C784.44,150.26,783.27,147.86,780.19,147.86Zm-2,3.9a1.94,1.94,0,0,1,1.83-1.93,1.72,1.72,0,0,1,1.68,1.93Z"/><path class="b" d="M789.52,145.35l-2.9.66v2.07h-1.27v2.18h1.27v3.9a3.91,3.91,0,0,0,.82,2.82,3.08,3.08,0,0,0,2.22.82,5.72,5.72,0,0,0,1.93-.25l0-2.24a4.72,4.72,0,0,1-.88.08c-.89,0-1.17-.53-1.17-1.68v-3.45h2.13v-2.18h-2.13Z"/><rect class="b" x="793.36" y="148.08" width="2.96" height="9.53"/><path class="b" d="M794.85,143.92a1.5,1.5,0,1,0,0,3,1.5,1.5,0,1,0,0-3Z"/><path class="b" d="M804.34,147.86a3.49,3.49,0,0,0-2.94,1.52h-.06l-.14-1.3h-2.57c0,.83.08,1.85.08,3v6.49h3v-5.5a2,2,0,0,1,.12-.74,1.57,1.57,0,0,1,1.5-1.11c1.07,0,1.5.84,1.5,2.07v5.28h3V152C807.75,149.15,806.29,147.86,804.34,147.86Z"/><path class="b" d="M816.56,149.21h0a2.86,2.86,0,0,0-2.61-1.35c-2.34,0-4.33,1.95-4.33,5,0,2.75,1.68,4.66,4,4.66a3,3,0,0,0,2.57-1.25h0v.63a2.27,2.27,0,0,1-2.48,2.51,5.83,5.83,0,0,1-2.76-.72l-.59,2.24a7.42,7.42,0,0,0,3.43.74,5.85,5.85,0,0,0,3.88-1.17c1.07-.95,1.44-2.45,1.44-4.29V150.9c0-1.42,0-2.22.08-2.82h-2.57Zm-.37,4.15a2.49,2.49,0,0,1-.1.78,1.61,1.61,0,0,1-1.56,1.21c-1.24,0-1.94-1.11-1.94-2.54,0-1.73.87-2.71,1.94-2.71a1.63,1.63,0,0,1,1.6,1.31,2.23,2.23,0,0,1,.06.54Z"/><line class="d" x1="43.62" y1="1.5" x2="49.62" y2="1.5"/><line class="e" x1="59.55" y1="1.5" x2="994.15" y2="1.5"/><line class="d" x1="999.12" y1="1.5" x2="1005.12" y2="1.5"/></svg>