<svg xmlns="http://www.w3.org/2000/svg" viewBox="0 0 892.07 427.19"><defs><style>.a{fill:none;}.b{fill:#fff;}.c{fill:#d8804f;}</style></defs><circle class="a" cx="633.82" cy="109.13" r="5.15"/><path class="a" d="M570,384.65a49.33,49.33,0,0,1-3.53,13h17.71V384.77Z"/><polygon class="a" points="321.48 298.65 361.78 299.08 361.78 282.67 353.34 282.67 353.34 289.42 321.48 289.42 321.48 298.65"/><rect class="a" x="558.1" y="126.2" width="6.42" height="6.42" transform="translate(72.9 434.81) rotate(-45)"/><circle class="a" cx="782.82" cy="245.48" r="2.94"/><circle class="a" cx="856.04" cy="133.7" r="2.94"/><rect class="a" x="230.25" y="108.62" width="3.33" height="3.33" transform="translate(-10.07 196.25) rotate(-44.99)"/><rect class="a" x="230.25" y="130.31" width="3.33" height="3.33" transform="translate(-25.38 202.69) rotate(-45.01)"/><circle class="a" cx="582.64" cy="318.58" r="2.94"/><rect class="a" x="230.25" y="86.94" width="3.33" height="3.33" transform="translate(5.26 189.9) rotate(-44.99)"/><circle class="a" cx="303.34" cy="191.92" r="2.94"/><circle class="a" cx="422.59" cy="196.15" r="5.15"/><path class="a" d="M370.65,222.39a7.33,7.33,0,0,0-4.56,3.42l-.74,1.26-5.93-3.46a14.26,14.26,0,0,0,22.05,16.91,14.28,14.28,0,0,0,5.14-12.42,14.24,14.24,0,0,0-16.07-12.74l1.61,6.73Z"/><path class="a" d="M599.28,397.69H661.2a16.85,16.85,0,0,1-4.4-4.39H599.28Z"/><path class="b" d="M704.83,219.1,703,216.79c-.73.58-1.5,1.14-2.29,1.68l1.66,2.43C703.22,220.33,704.05,219.72,704.83,219.1Z"/><path class="b" d="M704.18,153.1c-.79-.6-1.63-1.19-2.49-1.74l-1.6,2.46c.8.52,1.58,1.07,2.32,1.63Z"/><path class="b" d="M697.91,149.19l-.61-.31-.15.3H695.2c0,.32,0,.65,0,1l0,1,.85.41,1.65.85,1.41-2.58-.93-.49v-.11Z"/><path class="b" d="M692.16,135.59l2.66-1.26c-.44-.93-.93-1.84-1.44-2.71l-2.54,1.49A28,28,0,0,1,692.16,135.59Z"/><path class="b" d="M689.31,130.75l2.4-1.71c-.6-.83-1.24-1.64-1.9-2.41l-2.23,1.91C688.19,129.25,688.77,130,689.31,130.75Z"/><path class="b" d="M694.31,225.16l-1.08-2.73c-.88.34-1.77.66-2.67.94l.88,2.81C692.4,225.88,693.37,225.53,694.31,225.16Z"/><path class="b" d="M718.65,199.42l-2.79-.92c-.3.88-.63,1.78-1,2.66l2.71,1.12C718,201.33,718.33,200.37,718.65,199.42Z"/><path class="b" d="M709.33,215l-2.14-2c-.65.69-1.33,1.36-2,2l2,2.17C707.9,216.45,708.63,215.73,709.33,215Z"/><path class="b" d="M720.13,193.52l-2.9-.51c-.16.93-.36,1.86-.58,2.77l2.85.72C719.74,195.52,720,194.51,720.13,193.52Z"/><path class="b" d="M708.59,161.26c.61.72,1.2,1.47,1.75,2.22l2.38-1.73c-.6-.82-1.24-1.62-1.9-2.39Z"/><path class="b" d="M716.31,205.05l-2.63-1.32c-.41.83-.87,1.67-1.36,2.49l2.52,1.5Q715.64,206.4,716.31,205.05Z"/><path class="b" d="M713.35,168.28l2.59-1.37c-.47-.89-1-1.78-1.52-2.64l-2.49,1.56C712.43,166.63,712.9,167.45,713.35,168.28Z"/><path class="b" d="M713.18,210.28l-2.41-1.69c-.54.77-1.11,1.53-1.71,2.26l2.28,1.86C712,211.93,712.6,211.11,713.18,210.28Z"/><path class="b" d="M720.73,187.46l-2.94-.08c0,1-.08,1.9-.18,2.83l2.93.29C720.64,189.5,720.71,188.48,720.73,187.46Z"/><path class="b" d="M720.7,184.41c0-1-.13-2-.25-3l-2.92.35c.11.92.19,1.87.24,2.82Z"/><path class="b" d="M716.46,176.17c.24.91.46,1.83.64,2.76l2.88-.56q-.29-1.5-.69-3Z"/><path class="b" d="M699.79,222.52,698.33,220c-.82.47-1.66.91-2.5,1.32l1.27,2.65C698,223.5,698.91,223,699.79,222.52Z"/><path class="b" d="M694.11,140.85l2.83-.77c-.26-1-.58-2-.93-2.93l-2.76,1C693.57,139.05,693.86,140,694.11,140.85Z"/><path class="b" d="M714.57,170.83c.38.87.73,1.76,1,2.64l2.78-1c-.34-1-.71-1.9-1.12-2.83Z"/><path class="b" d="M694.72,143.59c.16.91.28,1.85.36,2.78l2.93-.25c-.09-1-.22-2.05-.4-3Z"/><path class="b" d="M704.61,157.23c.71.62,1.4,1.28,2.06,2l2.09-2.07c-.71-.72-1.45-1.42-2.21-2.09Z"/><path class="b" d="M646.9,71.51c-.9-.45-1.82-.87-2.75-1.26L643,73c.88.37,1.75.76,2.6,1.18Z"/><path class="b" d="M666.17,93.34l2.54-1.48c-.5-.87-1-1.73-1.59-2.57l-2.45,1.63C665.19,91.71,665.69,92.52,666.17,93.34Z"/><path class="b" d="M641.32,69.15c-1-.33-1.91-.64-2.88-.92l-.82,2.83c.92.26,1.83.55,2.72.87Z"/><path class="b" d="M635.5,67.48q-1.47-.33-3-.57l-.47,2.9c.94.16,1.88.34,2.8.54Z"/><path class="b" d="M596.77,77.77l-1.67-2.42c-.83.57-1.65,1.17-2.44,1.79l1.81,2.32C595.22,78.88,596,78.31,596.77,77.77Z"/><path class="b" d="M663,88.59l2.35-1.76c-.6-.81-1.23-1.6-1.88-2.37l-2.25,1.9C661.86,87.09,662.45,87.83,663,88.59Z"/><path class="b" d="M661.46,82.21c-.69-.73-1.41-1.44-2.15-2.13l-2,2.15c.69.65,1.37,1.32,2,2Z"/><path class="b" d="M657,78.08c-.77-.64-1.57-1.26-2.38-1.86l-1.74,2.37c.76.56,1.51,1.15,2.25,1.76Z"/><path class="b" d="M652.17,74.5c-.85-.55-1.71-1.08-2.59-1.58l-1.45,2.56c.83.47,1.64,1,2.44,1.48Z"/><path class="b" d="M592.27,81.28l-1.94-2.2c-.76.66-1.5,1.35-2.21,2.06l2.07,2.09C590.86,82.56,591.56,81.91,592.27,81.28Z"/><path class="b" d="M584.66,89.76l-2.4-1.69c-.58.82-1.14,1.66-1.67,2.53l2.5,1.54C583.59,91.33,584.11,90.54,584.66,89.76Z"/><path class="b" d="M617.85,69.61l-.39-2.91c-1,.13-2,.29-3,.49l.56,2.88C616,69.89,616.9,69.74,617.85,69.61Z"/><path class="b" d="M577.55,100.68h.3l0-2.94h-.32c-.92,0-1.83,0-2.74.1l.21,2.93C575.86,100.71,576.7,100.68,577.55,100.68Z"/><path class="b" d="M588.22,85.3l-2.19-2c-.68.75-1.33,1.52-2,2.32l2.3,1.83C587,86.73,587.58,86,588.22,85.3Z"/><path class="b" d="M623.54,69.19l0-2.94c-1,0-2,.06-3,.13l.21,2.94C621.63,69.25,622.58,69.2,623.54,69.19Z"/><rect class="b" x="667.67" y="225.12" width="2.94" height="2.94"/><path class="b" d="M612.26,70.7l-.74-2.85c-1,.25-1.94.53-2.9.84l.9,2.8C610.42,71.2,611.33,70.94,612.26,70.7Z"/><path class="b" d="M581.65,94.61l-2.58-1.39c-.48.88-.93,1.78-1.36,2.7l2.66,1.24C580.78,96.3,581.2,95.45,581.65,94.61Z"/><path class="b" d="M629.53,66.51c-1-.1-2-.17-3-.22l-.12,2.94c1,0,1.9.11,2.84.21Z"/><path class="b" d="M673.8,119.18c.88.3,1.76.65,2.61,1l1.2-2.69c-.94-.41-1.9-.79-2.87-1.12Z"/><path class="b" d="M672.65,115l2.93-.16c-.05-1-.14-2-.25-3l-2.92.33C672.52,113.09,672.6,114,672.65,115Z"/><path class="b" d="M672,109.32l2.9-.5q-.25-1.5-.6-3l-2.87.68Q671.76,107.91,672,109.32Z"/><rect class="b" x="673.55" y="225.12" width="2.94" height="2.94"/><path class="b" d="M688.5,227l-.67-2.87c-.92.22-1.85.4-2.77.54l.45,2.91C686.5,227.4,687.51,227.21,688.5,227Z"/><path class="b" d="M683,120.5c-.85-.57-1.73-1.11-2.62-1.61l-1.43,2.57c.81.45,1.62,1,2.4,1.48Z"/><path class="b" d="M687.71,124.39c-.73-.72-1.5-1.41-2.28-2l-1.87,2.28c.73.59,1.43,1.22,2.1,1.87Z"/><path class="b" d="M679.44,228.06c1,0,2-.06,3-.14l-.25-2.93c-.94.08-1.89.12-2.82.13Z"/><path class="b" d="M668.74,98.42l2.7-1.17c-.4-.92-.83-1.84-1.28-2.73l-2.63,1.32C668,96.69,668.36,97.55,668.74,98.42Z"/><path class="b" d="M601.64,74.81l-1.38-2.6c-.89.47-1.76,1-2.62,1.49l1.52,2.52C600,75.72,600.8,75.25,601.64,74.81Z"/><path class="b" d="M670.7,103.77l2.81-.84c-.29-1-.6-1.93-1-2.87l-2.76,1Q670.28,102.41,670.7,103.77Z"/><path class="b" d="M606.83,72.44l-1.06-2.74c-.95.36-1.87.76-2.79,1.17l1.22,2.68C605.06,73.15,605.94,72.79,606.83,72.44Z"/><path class="b" d="M660.54,101.64c-.42-.93-.87-1.85-1.35-2.74l-2.58,1.39c.44.83.86,1.68,1.24,2.54Z"/><path class="b" d="M649.81,91.31c.68.66,1.34,1.35,2,2L654,91.41c-.67-.75-1.38-1.5-2.11-2.21Z"/><path class="b" d="M662.57,107.39c-.27-1-.57-2-.91-2.92l-2.77,1c.31.88.59,1.79.84,2.7Z"/><path class="b" d="M661,119.42h2.94v-1.78c0-.4,0-.81,0-1.21l-2.94.09c0,.37,0,.75,0,1.12Z"/><path class="b" d="M682.68,136.62a24,24,0,0,0-1.9-2.51l-2.21,1.94a20.45,20.45,0,0,1,1.65,2.18Z"/><path class="b" d="M657.64,96.27c-.54-.85-1.13-1.69-1.74-2.5l-2.35,1.77c.57.75,1.11,1.53,1.62,2.32Z"/><path class="b" d="M678.56,131.9a22.05,22.05,0,0,0-2.51-1.9l-1.6,2.47a19.2,19.2,0,0,1,2.18,1.65Z"/><path class="b" d="M670.42,127.34l-.94,2.79.48.16a20,20,0,0,1,2.1.84l1.25-2.66a25.25,25.25,0,0,0-2.41-1Z"/><path class="b" d="M663.68,113.39c-.1-1-.25-2-.44-3l-2.89.54c.17.92.31,1.86.41,2.79Z"/><path class="b" d="M633.34,79c-1-.23-2-.42-3-.58l-.45,2.91c.93.14,1.86.32,2.78.54Z"/><path class="b" d="M627.31,78.11c-1-.08-2-.12-3-.12v3c.94,0,1.89,0,2.83.1Z"/><path class="b" d="M638.05,83.62l1.11-2.72c-.94-.38-1.91-.73-2.88-1l-.89,2.8C636.29,83,637.18,83.27,638.05,83.62Z"/><path class="b" d="M647.71,89.42l1.88-2.26c-.78-.65-1.59-1.27-2.42-1.86l-1.7,2.4C646.23,88.24,647,88.82,647.71,89.42Z"/><rect class="b" x="664.3" y="125.85" width="2.94" height="2.94" transform="translate(331.91 717.23) rotate(-71.32)"/><path class="b" d="M693.19,160c-.34-.19-.69-.37-1-.54l-1.64-.8-1.29,2.64,1.64.81.94.47Z"/><rect class="b" x="660.97" y="122.36" width="2.94" height="2.94"/><path class="b" d="M643.1,86.15l1.52-2.52c-.87-.52-1.77-1-2.68-1.47l-1.32,2.63C641.47,85.21,642.3,85.67,643.1,86.15Z"/><path class="b" d="M698.31,163.42a28.37,28.37,0,0,0-2.47-1.85L694.19,164c.78.53,1.53,1.09,2.24,1.68Z"/><path class="b" d="M706,185.09,709,185a28.9,28.9,0,0,0-.29-3.08l-2.91.43C705.89,183.23,706,184.16,706,185.09Z"/><polygon class="b" points="687.86 157.35 685.32 156.11 684.7 157.38 683.2 157.4 683.18 158.34 686.57 159.99 687.86 157.35"/><path class="b" d="M702.62,167.84c-.64-.8-1.32-1.58-2-2.32l-2.11,2a26.08,26.08,0,0,1,1.84,2.1Z"/><path class="b" d="M708.06,178.86c-.26-1-.57-2-.92-3l-2.76,1a26.29,26.29,0,0,1,.83,2.65Z"/><path class="b" d="M685.35,142.28a22.07,22.07,0,0,0-1.14-2.92l-2.66,1.25a19.82,19.82,0,0,1,1,2.55Z"/><path class="b" d="M686.08,145.34l-2.9.48a19.12,19.12,0,0,1,.26,2.73l2.94-.09A21.68,21.68,0,0,0,686.08,145.34Z"/><rect class="b" x="683.34" y="151.44" width="2.94" height="2.94" transform="translate(510.58 832.61) rotate(-88.21)"/><path class="b" d="M701.92,171.94a27.45,27.45,0,0,1,1.36,2.43l2.64-1.3c-.46-.93-1-1.83-1.51-2.7Z"/><path class="b" d="M633.82,101a8.09,8.09,0,1,0,8.09,8.09A8.1,8.1,0,0,0,633.82,101Zm0,13.23a5.15,5.15,0,1,1,5.14-5.14A5.15,5.15,0,0,1,633.82,114.27Z"/><path class="b" d="M393.43,254.88l1.13-.94,0,0c-.4.36-.8.72-1.21,1.06Z"/><path class="b" d="M379.55,258.65a30,30,0,0,1-33.83-42.9l11.11,6.43a17.21,17.21,0,0,0,19.67,24,17.34,17.34,0,0,0,5.62-2.51l-1.82-2.22,1.14-.93,0,0a14.23,14.23,0,0,1-22.05-16.91l-16.18-9.44a32.93,32.93,0,0,0,29.21,48.27,32.38,32.38,0,0,0,7.8-.94,33.18,33.18,0,0,0,11.85-5.58l-1.87-2.29A30.11,30.11,0,0,1,379.55,258.65Z"/><path class="b" d="M365.35,227.07l.74-1.26a7.33,7.33,0,0,1,4.56-3.42l1.5-.3-1.61-6.73c-.51.07-1,.15-1.53.27l-1.35.33.95,4a10.42,10.42,0,0,0-4.23,3.14L334,205.36a45.71,45.71,0,0,1,26.45-19.64l2.89,12.07,1.26-.31c.53-.13,1.07-.23,1.61-.34l-3.25-13.56-.58-1.37-1.44.35a48.53,48.53,0,0,0-30.24,22.58l-.74,1.27,13.31,7.76,16.18,9.44Z"/><path class="c" d="M340.32,204l23.2,13.54-6.25-26.13A41.38,41.38,0,0,0,340.32,204Z"/><path class="b" d="M405.2,226.2l-.15-1.46H405c.08.51.17,1,.22,1.54A.28.28,0,0,1,405.2,226.2Z"/><path class="b" d="M401.23,237.89a29.85,29.85,0,0,1-8.72,13.89l-8.11-9.93a17.18,17.18,0,0,0,4.53-7.54,16.87,16.87,0,0,0,.69-5l-2.86.27-.14-1.46s0,0,0,0a14.28,14.28,0,0,1-5.14,12.42l0,0-1.14.93,1.82,2.22,8.11,9.93,1.87,2.29,0,0,1.14-.93.06-.06c.41-.34.81-.7,1.21-1.06a32.66,32.66,0,0,0,10.76-26.06l-2.9.28A30,30,0,0,1,401.23,237.89Z"/><path class="b" d="M405.22,226.37a.22.22,0,0,1,0-.08c0-.52-.14-1-.22-1.54a32.88,32.88,0,0,0-38.81-27.61c-.54.11-1.08.21-1.61.34l-1.26.31-.17,0L367.58,216l.08,0,1.35-.33c.51-.12,1-.2,1.53-.27a14.24,14.24,0,0,1,16.07,12.74s0,0,0,0l.14,1.46,2.86-.27,12.77-1.21,2.9-.28h.07Zm-15.88,0a17.22,17.22,0,0,0-16.95-14.12,17.81,17.81,0,0,0-2.63.2L366.7,200a30,30,0,0,1,35.41,25.17Z"/><path class="b" d="M670.79,198.24c0,15.34-5.94,26.79-16.38,31.8v3.2c12.29-5.19,19.32-17.87,19.32-35s-7-29.81-19.32-35v3.2C664.85,171.45,670.79,182.9,670.79,198.24Z"/><path class="b" d="M552.94,153.81h16.38v6.72h2.94v-9.66H550v10.64a28.36,28.36,0,0,1,2.94-.61Z"/><path class="b" d="M569.32,241.73,578.68,291H562.35l-9.41-49.4V233a28.36,28.36,0,0,1-2.94-.61v9.36l9.91,52.2h22.32l-10-52.34v-8.24h-2.94Z"/><rect class="b" x="560.94" y="242.71" width="2.94" height="43.91" transform="translate(-39.59 109.9) rotate(-10.78)"/><path class="c" d="M557.35,163.47a26.2,26.2,0,0,0-26.16,26.16v14.62a26.19,26.19,0,0,0,26.16,26.16h28.18V163.47Z"/><path class="b" d="M528.25,189.63v13.15h1.47v2.94h-1.39A29.1,29.1,0,0,0,550,232.37a28.36,28.36,0,0,0,2.94.61,29.15,29.15,0,0,0,4.41.37h29.41l-1.23-.41v-2.53H557.35a26.19,26.19,0,0,1-26.16-26.16V189.63a26.2,26.2,0,0,1,26.16-26.16h28.18V160.9l1.26-.37H557.35a29.15,29.15,0,0,0-4.41.37,28.36,28.36,0,0,0-2.94.61A29.13,29.13,0,0,0,528.25,189.63Z"/><path class="b" d="M585.53,163.47v69.47l1.23.41,67.65,22.49V140.71l-67.62,19.82-1.26.37Zm2.94-.37,63-18.46V251.77l-63-21Z"/><rect class="b" x="594.19" y="224.29" width="2.94" height="1.47" transform="translate(209.1 731.01) rotate(-73.32)"/><rect class="b" x="619.84" y="231.19" width="2.94" height="3.07" transform="translate(219.75 760.87) rotate(-73.29)"/><rect class="b" x="615.44" y="229.87" width="2.94" height="3.07" transform="translate(218.1 755.88) rotate(-73.31)"/><rect class="b" x="624.25" y="232.51" width="2.94" height="3.06" transform="translate(221.56 765.98) rotate(-73.28)"/><rect class="b" x="633.05" y="235.15" width="2.94" height="3.06" transform="translate(225.3 776.29) rotate(-73.28)"/><rect class="b" x="628.65" y="233.83" width="2.94" height="3.06" transform="translate(223.41 771.12) rotate(-73.28)"/><rect class="b" x="637.46" y="236.47" width="2.94" height="3.07" transform="translate(227.24 781.5) rotate(-73.29)"/><rect class="b" x="611.04" y="228.55" width="2.94" height="3.07" transform="translate(216.26 750.74) rotate(-73.32)"/><rect class="b" x="597.83" y="224.59" width="2.94" height="3.07" transform="matrix(0.29, -0.96, 0.96, 0.29, 210.64, 735.26)"/><rect class="b" x="602.23" y="225.91" width="2.94" height="3.06" transform="translate(212.41 740.35) rotate(-73.3)"/><rect class="b" x="606.63" y="227.23" width="2.94" height="3.06" transform="translate(214.3 745.52) rotate(-73.31)"/><rect class="b" x="641.1" y="238.36" width="2.94" height="1.47" transform="translate(228.59 785.62) rotate(-73.27)"/><rect class="b" x="594.92" y="169.98" width="1.47" height="2.94" transform="translate(-24.15 178.21) rotate(-16.68)"/><rect class="b" x="615.38" y="163.61" width="3.07" height="2.94" transform="translate(-21.42 184.07) rotate(-16.68)"/><rect class="b" x="597.76" y="168.89" width="3.07" height="2.94" transform="translate(-23.68 179.23) rotate(-16.68)"/><rect class="b" x="624.19" y="160.96" width="3.06" height="2.94" transform="translate(-20.27 187.1) rotate(-16.74)"/><rect class="b" x="637.4" y="157" width="3.07" height="2.94" transform="translate(-18.6 190.09) rotate(-16.68)"/><rect class="b" x="628.59" y="159.64" width="3.06" height="2.94" transform="translate(-19.7 188.3) rotate(-16.74)"/><rect class="b" x="602.17" y="167.57" width="3.06" height="2.94" transform="translate(-23.12 180.43) rotate(-16.68)"/><rect class="b" x="610.97" y="164.93" width="3.07" height="2.94" transform="translate(-21.99 182.84) rotate(-16.68)"/><rect class="b" x="619.78" y="162.29" width="3.07" height="2.94" transform="translate(-20.86 185.25) rotate(-16.68)"/><rect class="b" x="632.99" y="158.32" width="3.06" height="2.94" transform="translate(-19.14 189.5) rotate(-16.74)"/><rect class="b" x="606.57" y="166.25" width="3.06" height="2.94" transform="translate(-22.55 181.62) rotate(-16.68)"/><rect class="b" x="641.83" y="155.91" width="1.47" height="2.94" transform="translate(-18.13 191.07) rotate(-16.68)"/><path class="b" d="M518.28,149.89h19.6a1.47,1.47,0,1,0,0-2.94h-19.6a1.47,1.47,0,0,0,0,2.94Z"/><path class="b" d="M534.16,154a1.47,1.47,0,0,0-1.47-1.47H518.28a1.47,1.47,0,0,0,0,2.94h14.41A1.47,1.47,0,0,0,534.16,154Z"/><path class="b" d="M642,272.93a1.47,1.47,0,0,0-1.47-1.47h-19.6a1.47,1.47,0,0,0,0,2.94h19.6A1.47,1.47,0,0,0,642,272.93Z"/><path class="b" d="M620.88,277.08a1.47,1.47,0,0,0,0,2.94h14.41a1.47,1.47,0,0,0,0-2.94Z"/><polygon class="c" points="255.9 186.17 255.9 194.68 267.9 194.68 255.9 186.17"/><polygon class="c" points="204.91 186.17 192.91 194.68 204.91 194.68 204.91 186.17"/><path class="b" d="M273.72,195.33s0,0,0-.05l0,0Z"/><path class="b" d="M187.65,194.83l.11,0a.58.58,0,0,1,.17-.06,1.27,1.27,0,0,1,.26,0l.11,0h4.61l12-8.51v-3.61L187.45,195h0l.09,0Z"/><path class="b" d="M273.91,195.71v0Z"/><path class="b" d="M186.91,195.68a0,0,0,0,0,0,0h0S186.9,195.69,186.91,195.68Z"/><polygon class="b" points="186.83 196.13 186.83 196.14 186.83 196.14 186.83 196.13"/><path class="b" d="M274,196.12s0,0,0-.06h0S274,196.1,274,196.12Z"/><path class="b" d="M187.12,195.28l0,.05h0Z"/><path class="b" d="M186.84,196.06h0Z"/><polygon class="b" points="273.98 196.14 273.98 196.13 273.98 196.14 273.98 196.14"/><path class="b" d="M267.9,194.68h4.61l.11,0a1.17,1.17,0,0,1,.26,0,.49.49,0,0,1,.17.06l.11,0a.31.31,0,0,1,.11.08l.1,0h0L255.9,182.56v3.61Z"/><path class="b" d="M273.91,195.68h0l-.06-.11a.84.84,0,0,1,.06.14Z"/><path class="b" d="M274,196.14h0s0,0,0-.06S274,196.11,274,196.14Z"/><path class="b" d="M273.69,195.28s-.06-.06-.08-.09l.11.13Z"/><path class="b" d="M187.21,195.19s-.07.05-.09.09l0,0Z"/><path class="b" d="M187,195.57s0,.07-.05.11h0s0,0,0,0Z"/><path class="b" d="M186.84,196.06h0s0,0,0,.06h0S186.84,196.09,186.84,196.06Z"/><path class="b" d="M273.43,195l-.06-.06-.1,0Z"/><path class="b" d="M187.45,195s0,.05-.06.06a.78.78,0,0,1,.15-.1Z"/><path class="b" d="M271.62,195a1.45,1.45,0,0,1,1-.28l-.11,0H255.9v2.94h12.27Z"/><path class="b" d="M204.91,194.68H188.3l-.11,0a1.45,1.45,0,0,1,1,.28l3.46,2.64h12.26Z"/><path class="b" d="M204.91,194.68V207l2.94,2.24V153.87H253v55.36L255.9,207V152.4a1.47,1.47,0,0,0-1.47-1.47H206.38a1.47,1.47,0,0,0-1.47,1.47v42.28Z"/><polygon class="c" points="240.66 222.32 242.22 223.51 271.04 223.51 271.04 199.13 240.66 222.32"/><polygon class="c" points="189.77 199.13 189.77 223.51 218.6 223.51 220.15 222.32 189.77 199.13"/><path class="b" d="M188.3,223.51h1.47V199.12l30.38,23.2,2.42-1.85-14.72-11.24L204.91,207l-12.26-9.37L189.19,195a1.45,1.45,0,0,0-1-.28,1.27,1.27,0,0,0-.26,0,.58.58,0,0,0-.17.06l-.11,0-.11.08a.78.78,0,0,0-.15.1,1.53,1.53,0,0,0-.18.18l-.12.13h0a1.83,1.83,0,0,0-.13.24l-.06.14h0a2,2,0,0,0-.06.35h0s0,.05,0,.08h0V225A1.47,1.47,0,0,1,188.3,223.51Z"/><path class="b" d="M273.16,194.83l-.11,0a.49.49,0,0,0-.17-.06,1.17,1.17,0,0,0-.26,0,1.45,1.45,0,0,0-1,.28l-3.45,2.64L255.9,207,253,209.23l-14.72,11.24,2.42,1.85L271,199.12v24.39H274V196.15h0s0,0,0-.08h0a1.35,1.35,0,0,0-.06-.35h0a.84.84,0,0,0-.06-.14,1.83,1.83,0,0,0-.13-.24h0l-.11-.13-.18-.18-.16-.1A.31.31,0,0,0,273.16,194.83Z"/><polygon class="c" points="223.44 223.51 237.37 223.51 230.41 218.19 223.44 223.51"/><path class="b" d="M238.24,220.47l-6.94-5.3a1.49,1.49,0,0,0-1.79,0l-6.94,5.3-2.42,1.85-1.55,1.19h4.84l7-5.32,7,5.32h4.85l-1.56-1.19Z"/><rect class="b" x="218.6" y="180.63" width="23.61" height="2.94"/><rect class="b" x="218.6" y="189.76" width="23.61" height="2.94"/><path class="b" d="M423.61,390.11V240.78a7.59,7.59,0,0,1,7.58-7.58h35.37v-2.42h2.94v2.42h43.14a7.59,7.59,0,0,1,7.58,7.58v88.84c.6,0,1.2,0,1.81,0l1.13,0V240.78a10.53,10.53,0,0,0-10.52-10.52H431.19a10.53,10.53,0,0,0-10.52,10.52V390.11a10.5,10.5,0,0,0,3.24,7.58h7.28A7.59,7.59,0,0,1,423.61,390.11Z"/><path class="c" d="M431.19,251.66V376.1h41.7a49,49,0,0,1,39.75-45.67V251.66Zm35.37,2.64h2.94v2.94h-2.94Zm0,5.89h2.94v2.94h-2.94Zm0,5.88h2.94V269h-2.94Zm0,5.88h2.94v2.94h-2.94Zm0,5.88h2.94v2.94h-2.94Zm0,5.88h2.94v2.94h-2.94Zm0,5.88h2.94v2.94h-2.94Zm36,43.34H441.68V295.24h60.85Z"/><rect class="b" x="491.01" y="242.43" width="5.88" height="2.94"/><polygon class="b" points="466.02 245.38 466.56 245.38 466.56 242.54 469.5 242.54 469.5 245.38 482.19 245.38 482.19 242.43 466.02 242.43 466.02 245.38"/><rect class="b" x="457.2" y="242.43" width="5.88" height="2.94"/><rect class="b" x="499.83" y="242.43" width="12.87" height="2.94"/><rect class="b" x="432.2" y="242.43" width="16.17" height="2.94"/><path class="b" d="M431,126.83l21.87,10.25a3.57,3.57,0,0,1,2.05,3l.3,4.4h3l-.31-4.6a6.51,6.51,0,0,0-3.74-5.46l-22-10.33-.38-.12a.58.58,0,0,1-.5-.58,6.63,6.63,0,0,1,.24-1.77c2.24-1.16,14.92-1.27,25.81-.69l1.51.08,0-1.51c.34-15.37,1-44.64,1-45.45l-1-.06h1a2.93,2.93,0,1,1,5.85,0V94.25a5.87,5.87,0,0,1,2.94-5.06V74a5.87,5.87,0,1,0-11.73,0H457c-.15,1.18-.2,3.29-.28,7.05l-.81,36.88c-8.25-.4-24.26-.82-26.72,1.75a2.09,2.09,0,0,0-.6,1.3,9.85,9.85,0,0,0-.31,2.42A3.52,3.52,0,0,0,431,126.83Z"/><path class="b" d="M490.63,115.57l-.05,1.91,0,.12c1.54,11.46,1.21,13.14-6.22,26.88h3.34c6.94-12.95,7.36-15.56,5.81-27.16l.09-3.67A5.89,5.89,0,0,1,490.63,115.57Z"/><path class="b" d="M466.81,111.08a5.89,5.89,0,0,1-1.15-3.46v3.46Z"/><path class="b" d="M465.66,94.25v13.37a5.85,5.85,0,0,0,9.77,4.36,5.83,5.83,0,0,1-1-3.21v-1.15a2.93,2.93,0,0,1-5.86,0V94.25a2.93,2.93,0,0,1,5.86,0V95.4a5.82,5.82,0,0,1,2-4.36,5.88,5.88,0,0,0-10.78,3.21Z"/><path class="b" d="M474.46,107.62v1.15a5.84,5.84,0,0,0,9.76,4.36,5.91,5.91,0,0,1-1-3.21v-1.15a2.93,2.93,0,1,1-5.86,0V95.4a2.93,2.93,0,0,1,5.86,0v1.15a5.84,5.84,0,0,1,2-4.36,5.85,5.85,0,0,0-4.9-2.66,5.94,5.94,0,0,0-5.87,5.87Z"/><path class="b" d="M483.26,108.77v1.15a5.88,5.88,0,0,0,5.87,5.87,5.72,5.72,0,0,0,1.5-.22,5.89,5.89,0,0,0,3-1.92,5.81,5.81,0,0,0,1.38-3.73V96.55a5.87,5.87,0,0,0-11.74,0Zm2.94,0V96.55a2.93,2.93,0,0,1,5.86,0v13.37a2.93,2.93,0,0,1-5.86,0Z"/><polygon class="b" points="458.16 144.48 455.21 144.48 451.91 144.48 451.91 217.37 454.85 217.37 454.85 147.42 455.41 147.42 484.68 147.42 490.04 147.42 490.04 192.37 492.98 192.37 492.98 144.48 487.72 144.48 484.38 144.48 458.16 144.48"/><path class="c" d="M499.59,298.18h-55V330h55ZM464.5,323.72V304.44l16.69,9.64Z"/><path class="b" d="M441.68,332.93h60.85V295.24H441.68Zm2.94-34.75h55V330h-55Z"/><path class="b" d="M464.5,323.72l16.69-9.64-16.69-9.64Zm2.94-14.18,7.87,4.54-7.87,4.55Z"/><path class="b" d="M661.2,397.69H599.28V400H584.22v-2.28H566.51c-.42,1-.89,2-1.38,2.94H670.31A16.67,16.67,0,0,1,661.2,397.69Z"/><path class="b" d="M790.77,397.69v2.36H748.15a20.53,20.53,0,0,1-3.17.49,1.36,1.36,0,0,1-.41.09h57.72v-2.94Z"/><path class="b" d="M874.56,397.69H861.22v2.94h13.34a8.38,8.38,0,0,1,0-2.94Z"/><path class="b" d="M17.51,397.69a8.38,8.38,0,0,1,0,2.94h94.36v-2.94Z"/><path class="b" d="M186.83,399.16v-1.47H171.24v2.94H188.3A1.47,1.47,0,0,1,186.83,399.16Z"/><path class="b" d="M431.19,397.69H407.43a9.8,9.8,0,0,1-7,2.94h77.76c-.5-1-1-1.95-1.39-2.94Z"/><path class="b" d="M17.51,397.69a8.82,8.82,0,1,0,0,2.94,8.38,8.38,0,0,0,0-2.94ZM8.82,405a5.88,5.88,0,1,1,5.88-5.88A5.89,5.89,0,0,1,8.82,405Z"/><path class="b" d="M883.25,390.34a8.82,8.82,0,0,0-8.69,7.35,8.38,8.38,0,0,0,0,2.94,8.82,8.82,0,1,0,8.69-10.29Zm0,14.7a5.88,5.88,0,1,1,5.88-5.88A5.89,5.89,0,0,1,883.25,405Z"/><path class="c" d="M663.53,320.17l4.21-3.22a1.83,1.83,0,0,1,2.2,0l4.21,3.22,11.61-8.87v-4.79H645.65Z"/><path class="b" d="M645.65,306.51h40.11V302.9H640.31l-.14,0a1.82,1.82,0,0,1,1.24.35Z"/><path class="b" d="M638.6,304.13a0,0,0,0,0,0,0l.07-.16A.52.52,0,0,0,638.6,304.13Z"/><polygon class="c" points="642.12 336.53 660.55 322.44 642.12 308.36 642.12 336.53"/><polygon class="c" points="685.76 329.03 685.76 315.85 677.13 322.44 685.76 329.03"/><path class="b" d="M639.21,338.74l2.9-2.21V308.36l18.44,14.08,3-2.27-17.88-13.66-4.24-3.24a1.82,1.82,0,0,0-1.24-.35,1.54,1.54,0,0,0-.31.05l-.22.07-.13,0-.14.1-.18.12a1.25,1.25,0,0,0-.23.23l-.13.15a2,2,0,0,0-.17.32l-.07.16a1.85,1.85,0,0,0-.07.41s0,.08,0,.13h0v35.48h0A1.81,1.81,0,0,1,639.21,338.74Z"/><polygon class="b" points="677.13 322.44 685.76 315.85 685.76 311.3 674.15 320.17 677.13 322.44"/><polygon class="c" points="645.65 338.37 685.76 338.37 685.76 333.58 668.84 320.66 645.65 338.37"/><path class="b" d="M645.65,338.37l23.19-17.71,16.92,12.92V329l-8.63-6.59-3-2.27L669.94,317a1.83,1.83,0,0,0-2.2,0l-4.21,3.22-3,2.27-18.44,14.09-2.9,2.21a1.81,1.81,0,0,0-.71,1.45,1.63,1.63,0,0,0,.1.57l0,.07.1.18a1.74,1.74,0,0,0,.24.36l.16.15a1.78,1.78,0,0,0,.36.25l.18.09a1.92,1.92,0,0,0,.64.13h45.45v-3.62Z"/><path class="b" d="M570,129.41l-8.69-8.7-8.7,8.7,8.7,8.69Zm-8.69-4.54,4.53,4.54L561.31,134l-4.54-4.54Z"/><path class="b" d="M301.39,152.75l4.22,1.75-3,3.2.41.89a19.94,19.94,0,0,0,4,5.78l.63.63,3.82-1.21-.19,3.85.85.43a19.59,19.59,0,0,0,7,2l.9.09,2-3.07,2.17,2.87.91-.18a19.64,19.64,0,0,0,6.79-2.77l.79-.5-.48-3.6,3.61.83.58-.69a19.86,19.86,0,0,0,3.54-6.29l.31-.91-2.93-2.68,2.89-1.48.77-.42,0-.95a19.75,19.75,0,0,0-1.19-6.78l-.33-.93-4.52-.19,1.83-4.35-.59-.69a19.91,19.91,0,0,0-5.12-4.25l-.85-.49-4,3.06-1.51-4.92-.94-.13a20,20,0,0,0-6.47.19l-.94.19-1.13,5.11-4.38-2.83-.81.54a19.85,19.85,0,0,0-4.72,4.47l-.57.74,2.34,4.49-4.86.61-.26,1a19.93,19.93,0,0,0-.69,5.21c0,.5,0,1,.06,1.49Zm3.18-5.88,7.08-.88-3.43-6.57a16.88,16.88,0,0,1,2.68-2.53l6.27,4.06,1.63-7.34a17,17,0,0,1,3.65-.1l2.2,7.14,5.74-4.42a17.17,17.17,0,0,1,2.94,2.44l-2.77,6.55,6.75.29a16,16,0,0,1,.69,4l-5.84,3,4.61,4.22a16.63,16.63,0,0,1-2.13,3.76l-5.95-1.36.78,5.92a16.59,16.59,0,0,1-4.1,1.67l-3.6-4.75-3.23,5.09a16.59,16.59,0,0,1-4.2-1.22l.31-6.14-6.12,1.94a17.1,17.1,0,0,1-2.38-3.41l4.5-4.84-6.44-2.66v-.38A17.09,17.09,0,0,1,304.57,146.87Z"/><path class="b" d="M321.11,156.87a6.56,6.56,0,1,0-6.55-6.55A6.56,6.56,0,0,0,321.11,156.87Zm0-10.16a3.61,3.61,0,1,1-3.61,3.61A3.61,3.61,0,0,1,321.11,146.71Z"/><path class="b" d="M422.59,188.06a8.09,8.09,0,1,0,8.09,8.09A8.1,8.1,0,0,0,422.59,188.06Zm0,13.24a5.15,5.15,0,1,1,5.15-5.15A5.16,5.16,0,0,1,422.59,201.3Z"/><path class="b" d="M576.75,318.58a5.89,5.89,0,1,0,5.89-5.88A5.89,5.89,0,0,0,576.75,318.58Zm8.83,0a2.95,2.95,0,1,1-2.94-2.94A2.94,2.94,0,0,1,585.58,318.58Z"/><path class="b" d="M303.34,197.8a5.88,5.88,0,1,0-5.88-5.88A5.88,5.88,0,0,0,303.34,197.8Zm0-8.82a2.94,2.94,0,1,1-2.94,2.94A2.94,2.94,0,0,1,303.34,189Z"/><path class="b" d="M856,139.59a5.89,5.89,0,1,0-5.89-5.89A5.89,5.89,0,0,0,856,139.59Zm0-8.83a2.95,2.95,0,1,1-2.95,2.94A2.94,2.94,0,0,1,856,130.76Z"/><path class="b" d="M776.94,245.48a5.88,5.88,0,1,0,5.88-5.88A5.89,5.89,0,0,0,776.94,245.48Zm8.82,0a2.94,2.94,0,1,1-2.94-2.94A2.94,2.94,0,0,1,785.76,245.48Z"/><path class="b" d="M523.16,390.11V341.72c-.4,0-.8,0-1.21,0h-.29l-1.44,0v48.4a7.59,7.59,0,0,1-7.58,7.58h-22.2c.63,1,1.3,2,2,2.94h58.38a34.17,34.17,0,0,0,2-2.94h-33A10.5,10.5,0,0,0,523.16,390.11Z"/><path class="c" d="M512.64,342.8A36.79,36.79,0,0,0,485,376.1h27.64Z"/><path class="b" d="M570,384.65l14.18.12v-2.94l-16.82-.14-.14,1.33a45.63,45.63,0,0,1-45.61,41.23h-.38a45.87,45.87,0,0,1,.38-91.73H522a46,46,0,0,1,45.13,40.14l.16,1.28,16.92.13v-2.94L569.88,371a49,49,0,0,0-46.72-41.4l-1.13,0c-.61,0-1.21,0-1.81,0a48.76,48.76,0,0,0-47.33,46.48c0,.63-.06,1.27-.06,1.9a48.51,48.51,0,0,0,4,19.69c.43,1,.89,2,1.39,2.94a48.92,48.92,0,0,0,8.67,12,48.42,48.42,0,0,0,34.39,14.58h.4a48.56,48.56,0,0,0,43.48-26.56c.49-1,1-1.94,1.38-2.94A49.33,49.33,0,0,0,570,384.65Z"/><path class="b" d="M522,338.74h-.31a39.65,39.65,0,0,0-.33,79.3h.34a39.65,39.65,0,0,0,.3-79.3Zm30.91,58.95a34.17,34.17,0,0,1-2,2.94,36.68,36.68,0,0,1-58.38,0c-.73-.95-1.4-1.93-2-2.94a36.46,36.46,0,0,1-5.51-19.61c0-.66,0-1.32.07-2a36.7,36.7,0,0,1,35.22-34.39l1.44,0H522c.41,0,.81,0,1.21,0a36.77,36.77,0,0,1,35.18,37A36.39,36.39,0,0,1,552.88,397.69Z"/><path class="c" d="M685.76,366.42H596.34v-6.67h-9.18V397h9.18v-6.67h58.84a16.66,16.66,0,0,1-1.34-6.54V382a1.47,1.47,0,0,1,1.47-1.47h30.42c0-.25,0-.5,0-.75Zm-43.58,20.75h-1.92V369.61h1.92Zm4.46,0h-1.91V369.61h1.91Zm4.47,0H649.2V369.61h1.91Z"/><path class="b" d="M584.22,381.83V400h15.06V393.3H656.8a17.15,17.15,0,0,1-1.62-2.94H596.34V397h-9.18V359.75h9.18v6.67h89.42v-2.94H599.28v-6.67H584.22v25Z"/><path class="b" d="M135.56,209.24c0-.38,0-.78,0-1.17H87.39a5.45,5.45,0,0,1-5.45-5.44v-9.28H79v9.28A8.4,8.4,0,0,0,87.39,211H98.54l-.71-1.77Z"/><path class="b" d="M81.94,88.51a5.46,5.46,0,0,1,5.45-5.45h62.24a5.46,5.46,0,0,1,5.45,5.45v56.58a11.68,11.68,0,0,1,1.9,2.4l1,2.07v-61a8.4,8.4,0,0,0-8.39-8.39H87.39A8.41,8.41,0,0,0,79,88.51v25.61h2.94Z"/><polygon class="c" points="122.35 115.37 122.72 113.99 121.27 113.99 121.06 115.37 122.35 115.37"/><polygon class="c" points="120.54 118.64 121.48 118.64 121.8 117.43 120.73 117.43 120.54 118.64"/><polygon class="c" points="116.71 117.43 117.01 118.64 118.76 118.64 118.58 117.43 116.71 117.43"/><polygon class="c" points="114.3 117.43 114.6 118.64 116.66 118.64 116.36 117.43 114.3 117.43"/><polygon class="c" points="113.08 113.99 110.71 113.99 111.19 115.37 113.42 115.37 113.08 113.99"/><polygon class="c" points="111.92 117.43 112.34 118.64 114.24 118.64 113.94 117.43 111.92 117.43"/><polygon class="c" points="120.98 113.64 121.17 112.44 118.18 112.44 118.36 113.64 120.98 113.64"/><polygon class="c" points="121 115.71 120.78 117.09 121.89 117.09 122.26 115.71 121 115.71"/><path class="c" d="M118.93,117.43l.18,1.21h1.09v0l.19-1.18Z"/><path class="c" d="M103.89,167.44a10.31,10.31,0,0,1-9.5,6.36H93.06a10.25,10.25,0,0,1,.79,18.12h42.73a25.72,25.72,0,0,1,8.83-13.53L139,165.65a8,8,0,0,1-5.05,1.79Z"/><polygon class="c" points="123.14 112.44 121.52 112.44 121.33 113.64 122.81 113.64 123.14 112.44"/><polygon class="c" points="116.19 115.37 118.27 115.37 118.06 113.99 115.85 113.99 116.19 115.37"/><path class="c" d="M115.47,150.67l-.57-.32a12,12,0,0,1-5.88-5.29,10.27,10.27,0,0,1-2.45,5.61Z"/><polygon class="c" points="118.01 113.64 117.83 112.44 115.46 112.44 115.76 113.64 118.01 113.64"/><polygon class="c" points="113.43 113.99 113.78 115.37 115.84 115.37 115.49 113.99 113.43 113.99"/><path class="c" d="M120.19,122.08a.86.86,0,1,0-.86-.86A.86.86,0,0,0,120.19,122.08Z"/><polygon class="c" points="113.51 115.71 111.32 115.71 111.8 117.09 113.86 117.09 113.51 115.71"/><polygon class="c" points="116.27 117.09 115.92 115.71 113.87 115.71 114.21 117.09 116.27 117.09"/><polygon class="c" points="116.28 115.71 116.62 117.09 118.53 117.09 118.32 115.71 116.28 115.71"/><polygon class="c" points="118.67 115.71 118.88 117.09 120.44 117.09 120.65 115.71 118.67 115.71"/><polygon class="c" points="115.41 113.64 115.11 112.44 113.05 112.44 113.35 113.64 115.41 113.64"/><polygon class="c" points="112.69 112.44 110.17 112.44 110.59 113.64 113 113.64 112.69 112.44"/><path class="c" d="M113.65,120.36a.86.86,0,1,0,.86.86A.87.87,0,0,0,113.65,120.36Z"/><path class="c" d="M122,129.46l27.67,12.46V96.83H87.39v17.29h5.66a10.27,10.27,0,0,1,4.42,19.55h1.32a10.27,10.27,0,0,1,8.72,4.86,12.17,12.17,0,0,1,.91-4c1.26-3.06,3.12-5,5.5-5.85a8.46,8.46,0,0,1,3-.43H117A14.47,14.47,0,0,1,122,129.46Zm-12.6-17.25a.34.34,0,0,1,.21-.44.22.22,0,0,1,.11,0h13.64l.92-3.45h2.93a.35.35,0,1,1,0,.69h-2.4L122,119.33H111.85Zm5.84,9a1.56,1.56,0,1,1,0-.34h3.52a1.55,1.55,0,1,1,0,.34Z"/><polygon class="c" points="120.71 115.37 120.93 113.99 118.41 113.99 118.62 115.37 120.71 115.37"/><path class="b" d="M115.7,160.45c0-.89-.55-1.4-1.5-1.55v0a1.41,1.41,0,0,0,1.13-1.41c0-1.13-.91-1.57-2.22-1.57h-1.92v6.46h2.06C114.7,162.34,115.7,161.72,115.7,160.45ZM112,156.53h1c1,0,1.52.29,1.52,1s-.45,1.11-1.56,1.11H112Zm0,5.16v-2.45h1.12c1.13,0,1.76.37,1.76,1.17s-.65,1.28-1.76,1.28Z"/><path class="b" d="M119.28,162.45c1.31,0,2.31-.7,2.31-2.78v-3.79h-.79v3.81c0,1.55-.67,2-1.52,2s-1.51-.49-1.51-2v-3.81H117v3.79C117,161.75,118,162.45,119.28,162.45Z"/><path class="b" d="M124.67,159.11h0c-.22-.49-.41-.94-.62-1.41l-.84-1.82h-.87l1.94,4v2.5h.82v-2.5l1.53-3.12-.66-.36-.61,1.34C125.12,158.17,124.89,158.62,124.67,159.11Z"/><path class="b" d="M115,244l-12.85-31.83h36.42l-.07-1.53c-.09-2.17,0-4.58,0-7.14,0-1.47,0-3,0-4.55a23.15,23.15,0,0,1,9.54-18.91l1-.72-9.43-18.81-23.49-12.79-.14-.06a9.19,9.19,0,0,1-5.65-9,7.39,7.39,0,0,1-.45-.94,7,7,0,0,1,4.23-9,6.91,6.91,0,0,1,2.65-.42,8.46,8.46,0,0,0-3,.43c-2.38.82-4.24,2.79-5.5,5.85a12.17,12.17,0,0,0-.91,4,10.2,10.2,0,0,1,1.57,5.43c0,.37,0,.74-.06,1.1a12,12,0,0,0,5.88,5.29l.57.32,10.46,5.69.66.36,10.93,5.94,1.5,3,6.39,12.74a25.72,25.72,0,0,0-8.83,13.53,26.74,26.74,0,0,0-1,7c0,1.54,0,3,0,4.51s0,3.12,0,4.6c0,.39,0,.79,0,1.17H97.83l.71,1.77,13.33,33H115Z"/><path class="b" d="M155.08,145.09a12,12,0,0,0-5-3l-.49-.22L122,129.46a14.47,14.47,0,0,0-4.94-1.2,7,7,0,0,1,2.6.65l3.76,1.76a7,7,0,0,1,3.73,4.33L149,144.86l.18.07a9.06,9.06,0,0,1,5.23,4l16.33,32.57,0,.1a9.08,9.08,0,0,1,1,6.95L165.69,244h3l6-54.87a12.08,12.08,0,0,0-1.34-9L158,149.56l-1-2.07A11.68,11.68,0,0,0,155.08,145.09Z"/><path class="b" d="M88.64,193.35a10.13,10.13,0,0,0,5.21-1.43,10.25,10.25,0,0,0-.79-18.12H78.81a10.07,10.07,0,0,1-3.17-.51,10.28,10.28,0,0,0,3.17,20.06h9.83Zm-9.83-2.94a7.34,7.34,0,1,1,0-14.68h9.83a7.34,7.34,0,1,1,0,14.68Z"/><path class="b" d="M93.06,173.8h1.33a10.28,10.28,0,0,0,4.41-19.56h-20a10.36,10.36,0,0,1-3.17-.5,10.27,10.27,0,0,0,0,19.55,10.07,10.07,0,0,0,3.17.51Zm-21.6-10.29a7.35,7.35,0,0,1,7.35-7.34H94.39a7.35,7.35,0,0,1,0,14.69H78.81A7.36,7.36,0,0,1,71.46,163.51Z"/><path class="b" d="M98.79,154.24h0A10.32,10.32,0,0,0,109,145.06c0-.36.06-.73.06-1.1a10.34,10.34,0,0,0-10.29-10.29H97.47a10.1,10.1,0,0,1-4.42,1H78.81a10.36,10.36,0,0,1-3.17-.5,10.28,10.28,0,0,0,3.17,20.06ZM71.46,144a7.36,7.36,0,0,1,7.35-7.35H98.92a5.7,5.7,0,0,1,1.25.15,7.34,7.34,0,0,1-1.38,14.55h-20A7.35,7.35,0,0,1,71.46,144Z"/><path class="b" d="M93.05,134.68a10.1,10.1,0,0,0,4.42-1,10.27,10.27,0,0,0-4.42-19.55H78.81a10.28,10.28,0,1,0,0,20.56ZM71.46,124.4a7.35,7.35,0,0,1,7.35-7.34H93.05a7.34,7.34,0,0,1,0,14.68H78.81A7.35,7.35,0,0,1,71.46,124.4Z"/><path class="b" d="M92.31,130.88a5.49,5.49,0,0,0,5.48-5.48V123a5.48,5.48,0,0,0-11,0v2.44A5.49,5.49,0,0,0,92.31,130.88ZM89.77,123a2.54,2.54,0,1,1,5.07,0v2.44a2.54,2.54,0,1,1-5.07,0Z"/><path class="b" d="M93.45,142.08v2.44a5.48,5.48,0,0,0,11,0v-2.44a5.49,5.49,0,0,0-4.23-5.33,5.7,5.7,0,0,0-1.25-.15h-.17A5.48,5.48,0,0,0,93.45,142.08Zm2.94,0a2.54,2.54,0,1,1,5.07,0v2.44a2.54,2.54,0,0,1-5.07,0Z"/><path class="b" d="M94.64,169.72a5.48,5.48,0,0,0,5.47-5.48V161.8a5.48,5.48,0,1,0-11,0v2.44A5.49,5.49,0,0,0,94.64,169.72ZM92.1,161.8a2.54,2.54,0,1,1,5.07,0v2.44a2.54,2.54,0,1,1-5.07,0Z"/><path class="b" d="M94.48,184.46V182a5.48,5.48,0,1,0-11,0v2.44a5.48,5.48,0,0,0,11,0Zm-8,0V182a2.54,2.54,0,0,1,5.08,0v2.44a2.54,2.54,0,0,1-5.08,0Z"/><path class="b" d="M113.64,141.68l3.76,1.76a7.05,7.05,0,0,0,6-12.77l-3.76-1.76a7,7,0,0,0-2.6-.65h-.14a6.91,6.91,0,0,0-2.65.42,7,7,0,0,0-4.23,9,7.39,7.39,0,0,0,.45.94A7,7,0,0,0,113.64,141.68Zm-.73-8.13a4.1,4.1,0,0,1,2.32-2.12,4.26,4.26,0,0,1,1.4-.25,4.21,4.21,0,0,1,1.74.39l3.76,1.76a4.11,4.11,0,1,1-3.48,7.45L114.89,139a4.12,4.12,0,0,1-2-5.47Z"/><polygon class="b" points="114.81 246.95 168.3 246.95 168.3 257.31 171.24 257.31 171.24 244.01 168.65 244.01 165.69 244.01 115.04 244.01 111.87 244.01 111.87 244.02 111.87 257.31 114.81 257.31 114.81 246.95"/><polygon class="c" points="146.06 365 114.81 365 114.81 397.69 168.3 397.69 168.3 260.25 114.81 260.25 114.81 307.76 146.06 307.76 146.06 365"/><polygon class="b" points="171.24 260.25 171.24 257.31 168.3 257.31 114.81 257.31 111.87 257.31 111.87 260.25 111.87 307.76 114.81 307.76 114.81 260.25 168.3 260.25 168.3 397.69 114.81 397.69 114.81 365 111.87 365 111.87 397.69 111.87 400.63 171.24 400.63 171.24 397.69 171.24 260.25"/><rect class="b" x="157.44" y="249.42" width="6.38" height="5.1"/><path class="b" d="M320.44,234.39l-1.9.57v38.75h2.94V233a1,1,0,0,0,0-.17,1.67,1.67,0,0,1,0,.31A1.47,1.47,0,0,1,320.44,234.39Z"/><polygon class="b" points="318.54 289.42 318.54 298.62 321.48 298.65 321.48 289.42 318.54 289.42"/><path class="b" d="M189.77,397.69V226.45H303.64l-.26-1.16a1.48,1.48,0,0,1,.55-1.48,1.45,1.45,0,0,1,1.08-.28l-.19,0H188.3a1.47,1.47,0,0,0-1.47,1.47V399.16a1.47,1.47,0,0,0,1.47,1.47h77.91a9.84,9.84,0,0,1-7-2.94Z"/><path class="b" d="M303.38,225.29l.26,1.16L306,237.1a1.43,1.43,0,0,0,.69,1,1.41,1.41,0,0,0,.74.21,1.25,1.25,0,0,0,.43-.07L318.54,235l1.9-.57a1.47,1.47,0,0,0,1-1.27,1.67,1.67,0,0,0,0-.31,1.22,1.22,0,0,0,0-.17,2.25,2.25,0,0,0-.08-.24l-.06-.14a2,2,0,0,0-.17-.23l-.08-.1a1.66,1.66,0,0,0-.34-.25l-15.19-8a1.82,1.82,0,0,0-.37-.13l-.13,0a1.45,1.45,0,0,0-1.08.28A1.48,1.48,0,0,0,303.38,225.29Zm12.77,7.32-7.67,2.31-1.55-7.17Z"/><path class="b" d="M203,302.36h9.11V287.08H203ZM206,290h3.23v9.4H206Z"/><path class="b" d="M218.45,302.36h9.12V277.83h-9.12Zm2.94-21.59h3.23v18.65h-3.23Z"/><path class="b" d="M233.88,302.36H243V265.49h-9.11Zm2.94-33.93h3.23v31h-3.23Z"/><path class="b" d="M249.31,259.32v43h7.06v-3.24h2.05v-39.8Zm6.17,40.1h-3.23V262.26h3.23Z"/><polygon class="b" points="264.73 250.06 264.73 299.12 267.67 299.12 267.67 253 270.9 253 270.9 299.12 273.85 299.12 273.85 250.06 264.73 250.06"/><polygon class="b" points="280.16 254.58 280.16 299.12 283.1 299.12 283.1 257.52 286.33 257.52 286.33 299.12 289.27 299.12 289.27 254.58 280.16 254.58"/><polygon class="b" points="304.7 279.72 304.7 245.33 295.59 245.33 295.59 299.12 298.53 299.12 298.53 248.27 301.76 248.27 301.76 299.12 301.92 299.12 301.92 279.72 304.7 279.72"/><rect class="b" x="201.91" y="308.87" width="54.46" height="2.94"/><polygon class="c" points="250.45 318.1 241.54 339.51 245.68 346.67 247.89 346.67 256.37 346.67 256.37 332.33 256.29 332.14 250.45 318.1"/><polygon class="c" points="233.8 326.09 230.31 332.14 236.35 346.67 238.57 346.67 245.68 346.67 241.54 339.51 233.8 326.09"/><polygon class="c" points="224.47 318.1 212.59 346.67 221.92 346.67 236.35 346.67 230.31 332.14 224.47 318.1"/><path class="b" d="M204.41,387.24h27.06a1.47,1.47,0,0,0,1.47-1.47V362.21a1.47,1.47,0,0,0-1.47-1.47H204.41a1.47,1.47,0,0,0-1.47,1.47v23.56A1.47,1.47,0,0,0,204.41,387.24Zm1.47-23.56H230V384.3H205.88Z"/><path class="b" d="M409.15,135.57c9.34,1.37,16.38,7.27,16.38,14.32,0,5.07-3.82,9.86-10,12.51l-1.22.53.41,1.27a26.48,26.48,0,0,0,3.39,6.8,25.36,25.36,0,0,1-14.93-6.28l-.36-.3-.46,0c-8-.73-14.44-4.72-16.85-9.94-.81.61-1.63,1.17-2.46,1.69,3,5.82,10,10.21,18.58,11.13A28,28,0,0,0,419.92,174c.45,0,.89,0,1.34,0l3.24-.14-2.24-2.34a23.67,23.67,0,0,1-4.28-7c6.51-3.23,10.49-8.74,10.49-14.63,0-8.63-8.37-15.81-19.34-17.27.05.52.11,1,.11,1.56S409.19,135.11,409.15,135.57Z"/><path class="b" d="M369,150.42a26.39,26.39,0,0,1-4.87,8l-2.24,2.34,3.24.15,1.49,0a30.49,30.49,0,0,0,16.51-4.79c.83-.52,1.65-1.08,2.46-1.69.45-.34.91-.67,1.35-1a31.9,31.9,0,0,0,8.64-2.12,27.15,27.15,0,0,0,4.59-2.36c5.15-3.3,8.52-8,9-13.35,0-.46.09-.92.09-1.39s-.06-1-.11-1.56c-1.07-10-12.27-17.87-25.91-17.87-14.35,0-26,8.71-26,19.43C357.2,140.73,361.67,146.85,369,150.42Zm14.27-32.73c12.72,0,23.07,7.39,23.07,16.49,0,8.26-8.65,15.29-20.13,16.34l-.47,0-.35.3a28.37,28.37,0,0,1-17.13,7.07,29.35,29.35,0,0,0,4-7.83l.42-1.27-1.23-.53c-6.93-3-11.23-8.4-11.23-14.12C360.14,125.08,370.49,117.69,383.22,117.69Z"/><path class="b" d="M373.64,136.7a3,3,0,1,0-3-3A3,3,0,0,0,373.64,136.7Z"/><path class="b" d="M382.62,136.7a3,3,0,1,0-3-3A3,3,0,0,0,382.62,136.7Z"/><path class="b" d="M391.6,136.7a3,3,0,1,0-3-3A3,3,0,0,0,391.6,136.7Z"/><path class="c" d="M838.72,336.9l-.33-.11-1.28-.41V326.09l1.32-.44.29-.1a21.38,21.38,0,0,0,13.93-20V271.62H810.86v33.94a21.4,21.4,0,0,0,13.93,20l.43.13,1.32.43v10.22l-1.32.42-.43.14a21.4,21.4,0,0,0-13.93,20v33.94h41.79V356.89A21.4,21.4,0,0,0,838.72,336.9Zm-1.59,34.48a2.19,2.19,0,1,1-2.19-2.2A2.19,2.19,0,0,1,837.13,371.38Zm-6.06-9.56a2.2,2.2,0,1,1-2.19,2.19A2.2,2.2,0,0,1,831.07,361.82Zm-2.19-43.24a2.2,2.2,0,1,1,2.19,2.2A2.19,2.19,0,0,1,828.88,318.58Zm6.06-5.17a2.19,2.19,0,1,1,2.19-2.19A2.19,2.19,0,0,1,834.94,313.41Zm7.74,0a2.19,2.19,0,1,1,2.19-2.19A2.2,2.2,0,0,1,842.68,313.41Zm0-19.12a2.2,2.2,0,1,1-2.2,2.2A2.2,2.2,0,0,1,842.68,294.29Zm-3.35,7.37a2.2,2.2,0,1,1-2.2,2.19A2.19,2.19,0,0,1,839.33,301.66Zm-4.39-7.37a2.2,2.2,0,1,1-2.19,2.2A2.2,2.2,0,0,1,834.94,294.29Zm-3.87,7.37a2.2,2.2,0,1,1-2.19,2.19A2.2,2.2,0,0,1,831.07,301.66Zm-3.87-7.37a2.2,2.2,0,1,1-2.19,2.2A2.2,2.2,0,0,1,827.2,294.29Zm-7.74,0a2.2,2.2,0,1,1-2.19,2.2A2.2,2.2,0,0,1,819.46,294.29Zm0,19.12a2.19,2.19,0,1,1,2.2-2.19A2.2,2.2,0,0,1,819.46,313.41Zm3.36-7.36a2.2,2.2,0,1,1,2.19-2.2A2.2,2.2,0,0,1,822.82,306.05Zm2.19,5.17a2.2,2.2,0,1,1,2.19,2.19A2.19,2.19,0,0,1,825,311.22Zm2.19,58a2.2,2.2,0,1,1-2.19,2.2A2.2,2.2,0,0,1,827.2,369.18Zm-7.74,0a2.2,2.2,0,1,1-2.19,2.2A2.2,2.2,0,0,1,819.46,369.18Zm0,19.12a2.2,2.2,0,1,1,2.2-2.2A2.2,2.2,0,0,1,819.46,388.3Zm3.36-7.37a2.19,2.19,0,1,1,2.19-2.19A2.2,2.2,0,0,1,822.82,380.93Zm4.38,7.37a2.2,2.2,0,1,1,2.2-2.2A2.2,2.2,0,0,1,827.2,388.3Zm3.87-7.37a2.19,2.19,0,1,1,2.2-2.19A2.19,2.19,0,0,1,831.07,380.93Zm3.87,7.37a2.2,2.2,0,1,1,2.19-2.2A2.19,2.19,0,0,1,834.94,388.3Zm2.19-9.56a2.2,2.2,0,1,1,2.2,2.19A2.2,2.2,0,0,1,837.13,378.74Zm5.55,9.56a2.2,2.2,0,1,1,2.19-2.2A2.2,2.2,0,0,1,842.68,388.3Zm0-14.73a2.2,2.2,0,1,1,2.19-2.19A2.2,2.2,0,0,1,842.68,373.57Z"/><path class="b" d="M810.86,356.89a21.4,21.4,0,0,1,13.93-20l.43-.14,1.32-.42V326.12l-1.32-.43-.43-.13a21.4,21.4,0,0,1-13.93-20V271.62h-2.94v33.94a24.34,24.34,0,0,0,15.68,22.69v5.95a24.37,24.37,0,0,0-15.68,22.69v33.94h2.94Z"/><path class="b" d="M852.65,305.56a21.38,21.38,0,0,1-13.93,20l-.29.1-1.32.44v10.29l1.28.41.33.11a21.4,21.4,0,0,1,13.93,20v33.94h2.94V356.89a24.33,24.33,0,0,0-15.54-22.63V328.2a24.36,24.36,0,0,0,15.54-22.64V271.62h-2.94Z"/><polygon class="c" points="858.28 268.68 858.28 264.77 805.23 264.77 805.23 268.68 807.92 268.68 855.59 268.68 858.28 268.68"/><path class="b" d="M852.65,271.62h8.57v-9.79H802.29v9.79h50.36Zm-47.42-2.94v-3.91h53v3.91h-53Z"/><polygon class="c" points="807.92 393.77 805.23 393.77 805.23 397.69 858.28 397.69 858.28 393.77 855.59 393.77 807.92 393.77"/><path class="b" d="M861.22,390.83H802.29v9.8h58.93v-9.8Zm-2.94,6.86h-53v-3.92h53Z"/><path class="b" d="M231.91,82.09,225.4,88.6l6.51,6.52,6.51-6.51Zm-2.35,6.51,2.35-2.35,2.36,2.35L231.91,91Z"/><path class="b" d="M231.91,103.77l-6.51,6.52,6.51,6.51,6.51-6.51Zm-2.35,6.52,2.35-2.36,2.36,2.36-2.36,2.35Z"/><path class="b" d="M225.4,132l6.51,6.51,6.51-6.51-6.51-6.51Zm6.51,2.36L229.56,132l2.35-2.35,2.36,2.35Z"/><path class="b" d="M231.91,69.62a20,20,0,1,0-19.95-20A20,20,0,0,0,231.91,69.62Zm0-37a17,17,0,1,1-17,17A17,17,0,0,1,231.91,32.66Z"/><polygon class="b" points="225.9 54.67 227.57 54.67 227.57 51.5 230.63 51.5 230.63 49.84 227.57 49.84 227.57 46.7 225.9 46.7 225.9 49.84 222.81 49.84 222.81 51.5 225.9 51.5 225.9 54.67"/><path class="b" d="M236,53.18a1.52,1.52,0,0,1-1.58-1.42h-2.22c.16,2.1,1.73,3.15,3.74,3.15a3.66,3.66,0,0,0,4-4c0-2.2-1.23-3.64-3.39-3.64a3,3,0,0,0-2,.61c0-.42.23-1.71.29-2.33h4.48l.26-1.86h-6.5c-.11,1.36-.57,4.68-.76,6.23l1.88.29A1.6,1.6,0,0,1,236,49c1.11,0,1.68.63,1.68,2S237.13,53.18,236,53.18Z"/><path class="b" d="M744,173.11v96.41h2.94V174.58h-1.47A1.47,1.47,0,0,1,744,173.11Z"/><path class="b" d="M842.13,147.15v-1.47h-1.47A1.47,1.47,0,0,1,842.13,147.15Z"/><path class="b" d="M840.66,174.58h-1.47v55.36h2.94V173.11A1.47,1.47,0,0,1,840.66,174.58Z"/><path class="b" d="M778.08,148.62v-2.94H763.53a20.45,20.45,0,0,1,.24,2.94Z"/><path class="b" d="M839.19,148.62v23H746.94v-3.15a20.33,20.33,0,0,1-2.94.28v4.34a1.47,1.47,0,0,0,1.47,1.47h95.19a1.47,1.47,0,0,0,1.47-1.47v-26a1.47,1.47,0,0,0-1.47-1.47H804.1v2.94Z"/><path class="b" d="M778.08,132.73v31.73a1.47,1.47,0,0,0,1.47,1.47h17.31a7.25,7.25,0,0,0,7.24-7.24v-26a7.25,7.25,0,0,0-7.24-7.24H785.32A7.25,7.25,0,0,0,778.08,132.73Zm23.08,0v26a4.31,4.31,0,0,1-4.3,4.3H781V132.73a4.31,4.31,0,0,1,4.3-4.3h11.54A4.31,4.31,0,0,1,801.16,132.73Z"/><rect class="b" x="755.78" y="215.39" width="2.94" height="2.95"/><rect class="b" x="755.78" y="219.82" width="2.94" height="2.95"/><rect class="b" x="755.78" y="246.36" width="2.94" height="2.95"/><rect class="b" x="755.78" y="210.97" width="2.94" height="2.95"/><rect class="b" x="755.78" y="206.55" width="2.94" height="2.95"/><rect class="b" x="755.78" y="224.24" width="2.94" height="2.95"/><rect class="b" x="755.78" y="264.05" width="2.94" height="2.95"/><rect class="b" x="755.78" y="255.2" width="2.94" height="2.95"/><rect class="b" x="755.78" y="259.63" width="2.94" height="2.95"/><rect class="b" x="755.78" y="250.78" width="2.94" height="2.95"/><rect class="b" x="755.78" y="188.85" width="2.94" height="2.95"/><rect class="b" x="755.78" y="202.12" width="2.94" height="2.95"/><rect class="b" x="755.78" y="237.51" width="2.94" height="2.95"/><rect class="b" x="755.78" y="241.93" width="2.94" height="2.95"/><rect class="b" x="755.78" y="184.43" width="2.94" height="2.95"/><rect class="b" x="755.78" y="197.7" width="2.94" height="2.95"/><rect class="b" x="755.78" y="193.27" width="2.94" height="2.95"/><rect class="b" x="755.78" y="228.66" width="2.94" height="2.95"/><rect class="b" x="755.78" y="233.09" width="2.94" height="2.95"/><rect class="b" x="828.21" y="215.39" width="2.94" height="2.95"/><rect class="b" x="828.21" y="206.55" width="2.94" height="2.95"/><rect class="b" x="828.21" y="210.97" width="2.94" height="2.95"/><rect class="b" x="828.21" y="219.82" width="2.94" height="2.95"/><rect class="b" x="828.21" y="184.43" width="2.94" height="2.95"/><rect class="b" x="828.21" y="224.24" width="2.94" height="2.95"/><rect class="b" x="828.21" y="193.27" width="2.94" height="2.95"/><rect class="b" x="828.21" y="188.85" width="2.94" height="2.95"/><rect class="b" x="828.21" y="202.12" width="2.94" height="2.95"/><rect class="b" x="828.21" y="197.7" width="2.94" height="2.95"/><rect class="b" x="828.21" y="228.66" width="2.94" height="2.02"/><path class="b" d="M701.24,276.68h-1.47v.2a16,16,0,0,1,1.71-.2Z"/><path class="b" d="M776.7,278.09a1.47,1.47,0,0,1-1.44,1.47h.29c7.23.08,12.28,5.78,12.28,13.86V397.11h-32.9a20.7,20.7,0,0,1-6.78,2.94h42.62V293.43c0-9.09-5.69-15.9-13.73-16.72v-.09h-1.81A1.47,1.47,0,0,1,776.7,278.09Z"/><path class="b" d="M685.76,379.8c0,.25,0,.5,0,.75h2.94c0-.25,0-.5,0-.75V293.43a13.91,13.91,0,0,1,13.7-13.86h64.37c-3.49,2.88-5.51,7.73-5.51,13.87V379.8a17.9,17.9,0,0,1-17.2,17.85c.18,0,.35,0,.53,0a1.47,1.47,0,0,1,1.45,1.47,1.45,1.45,0,0,1-1.06,1.39,20.8,20.8,0,0,0,9.95-3.43,20.8,20.8,0,0,0,9.27-17.31V293.43c0-6.64,2.9-13.77,11-13.86h0a1.47,1.47,0,0,0,0-2.94h-73c-.26,0-.51,0-.77.05a16,16,0,0,0-1.71.2,16.87,16.87,0,0,0-14,16.55V379.8Z"/><path class="b" d="M746,399.15a1.47,1.47,0,0,0-1.45-1.47c-.18,0-.35,0-.53,0-7-.35-11.78-5.95-11.78-13.83V382a1.47,1.47,0,0,0-1.47-1.47h-75.5a1.47,1.47,0,0,0-1.47,1.47v1.8a16.66,16.66,0,0,0,1.34,6.54,17.15,17.15,0,0,0,1.62,2.94,16.85,16.85,0,0,0,4.4,4.39,16.67,16.67,0,0,0,9.11,2.93h74.26a1.36,1.36,0,0,0,.41-.09A1.45,1.45,0,0,0,746,399.15Zm-75.45-1.46h-.11a13.91,13.91,0,0,1-13.7-13.86v-.33h72.56v.33c0,5.94,2.43,10.91,6.37,13.87Z"/><path class="b" d="M710.27,298a21.4,21.4,0,0,1,28.11-1.08L727.1,309.09l13.28-14.34A24.32,24.32,0,0,0,708.11,296l15.14,14Z"/><path class="b" d="M746.76,324.34l.06,0,.57-1.36s0,0,0-.05l0,.05C747.2,323.46,747,323.9,746.76,324.34Z"/><path class="b" d="M724.87,311.5l.88.82,1.7.71,13.09-14.13a21.44,21.44,0,0,1,4.67,21.6l-14-5.9,16.73,7a24.32,24.32,0,0,0-6.41-25.92l-1.08-1,0,0L727.1,309.09Z"/><path class="c" d="M708.28,300.14a21.41,21.41,0,1,0,35.79,23.07l-19.93-8.38Z"/><path class="b" d="M747.9,321.63l-16.73-7L727.45,313l-1.7-.71-.88-.82-1.62-1.5-15.14-14,0,0-1,1.08a24.34,24.34,0,0,0,12.47,40.29,23.87,23.87,0,0,0,5.36.6,24.44,24.44,0,0,0,17.9-7.8,24,24,0,0,0,4-5.78c.22-.44.44-.88.63-1.33l0-.05.55-1.3Zm-7.24,6.49a21.41,21.41,0,0,1-32.38-28l15.86,14.69,19.93,8.38A21.58,21.58,0,0,1,740.66,328.12Z"/><rect class="b" x="724.3" y="351.38" width="2.94" height="2.94"/><rect class="b" x="747.82" y="351.38" width="2.94" height="2.94"/><rect class="b" x="730.18" y="351.38" width="14.7" height="2.94"/><rect class="b" x="724.3" y="359.86" width="2.94" height="2.94"/><rect class="b" x="747.82" y="359.86" width="2.94" height="2.94"/><rect class="b" x="730.18" y="359.86" width="14.7" height="2.94"/><rect class="b" x="724.3" y="368.34" width="2.94" height="2.94"/><rect class="b" x="747.82" y="368.34" width="2.94" height="2.94"/><rect class="b" x="730.18" y="368.34" width="14.7" height="2.94"/><path class="b" d="M715.36,351.2H698.64a1.47,1.47,0,0,0-1.47,1.47v17.39a1.47,1.47,0,0,0,1.47,1.47h16.72a1.47,1.47,0,0,0,1.47-1.47V352.67A1.47,1.47,0,0,0,715.36,351.2Zm-1.47,17.39H700.11V354.14h13.78Z"/><path class="c" d="M760.83,148.65a17.19,17.19,0,1,0-17.19,17.19A17.21,17.21,0,0,0,760.83,148.65ZM753,143.31l-8,13a2.21,2.21,0,0,1-1.51,1,2.31,2.31,0,0,1-.37,0,2.2,2.2,0,0,1-1.4-.5l-6.87-5.63a2.2,2.2,0,1,1,2.79-3.41l4.92,4L749.19,141a2.21,2.21,0,0,1,3.76,2.31Z"/><path class="b" d="M763.77,148.65v0a20.45,20.45,0,0,0-.24-2.94,20.12,20.12,0,1,0-19.89,23.11l.36,0a20.21,20.21,0,0,0,19.77-20.12Zm-20.13,17.19a17.19,17.19,0,1,1,17.19-17.19A17.21,17.21,0,0,1,743.64,165.84Z"/><rect class="c" x="497.38" y="202.78" width="2.94" height="2.94"/><rect class="c" x="491.49" y="202.78" width="2.94" height="2.94"/><rect class="c" x="466.56" y="224.9" width="2.94" height="2.94"/><rect class="c" x="485.61" y="202.78" width="2.94" height="2.94"/><rect class="c" x="503.26" y="202.78" width="2.94" height="2.94"/><rect class="c" x="515.02" y="202.78" width="2.94" height="2.94"/><rect class="c" x="509.14" y="202.78" width="2.94" height="2.94"/><rect class="c" x="520.9" y="202.78" width="2.94" height="2.94"/><rect class="c" x="466.56" y="219.02" width="2.94" height="2.94"/><rect class="c" x="473.85" y="202.78" width="2.94" height="2.94"/><rect class="c" x="479.73" y="202.78" width="2.94" height="2.94"/><rect class="c" x="466.56" y="213.14" width="2.94" height="2.94"/><polygon class="c" points="470.91 202.78 468.03 202.78 466.56 202.84 466.56 204.31 468.03 204.28 468.03 205.72 470.91 205.72 470.91 202.78"/><rect class="c" x="466.56" y="207.25" width="2.94" height="2.94"/><polygon class="c" points="529.72 202.78 528.25 202.78 526.78 202.78 526.78 205.72 528.33 205.72 529.72 205.72 529.72 202.78"/><polygon class="c" points="469.5 233.72 469.5 233.2 469.5 230.78 466.56 230.78 466.56 233.2 466.56 233.72 469.5 233.72"/><rect class="c" x="466.56" y="236.66" width="2.94" height="2.94"/><rect class="c" x="466.56" y="248.42" width="2.94" height="2.94"/><rect class="c" x="466.56" y="283.71" width="2.94" height="2.94"/><rect class="c" x="466.56" y="277.83" width="2.94" height="2.94"/><rect class="c" x="466.56" y="289.59" width="2.94" height="2.94"/><rect class="c" x="466.56" y="254.3" width="2.94" height="2.94"/><rect class="c" x="466.56" y="266.07" width="2.94" height="2.94"/><rect class="c" x="466.56" y="271.95" width="2.94" height="2.94"/><rect class="c" x="466.56" y="260.19" width="2.94" height="2.94"/><polygon class="c" points="466.56 242.54 466.56 245.38 466.56 245.48 469.5 245.48 469.5 245.38 469.5 242.54 466.56 242.54"/><path class="b" d="M410.27,390.79V299.12H364.72v2.93l-62.8-.66v-2.27H256.37v91.67a9.85,9.85,0,0,0,9.84,9.84H400.43a9.87,9.87,0,0,0,9.84-9.84Zm-2.94,0a6.91,6.91,0,0,1-6.9,6.9H266.21a6.91,6.91,0,0,1-6.9-6.9v-40c-.6-.14-1.21-.26-1.81-.41l.69-2.86,1.12.25V302.06h148v45.71l1.12-.25.69,2.86c-.6.15-1.21.27-1.81.41Z"/><path class="b" d="M408.45,347.52l-1.12.25a323.22,323.22,0,0,1-148,0l-1.12-.25-.69,2.86c.6.15,1.21.27,1.81.41a325.71,325.71,0,0,0,148,0c.6-.14,1.21-.26,1.81-.41Z"/><polygon class="c" points="344.89 345.5 320.15 345.5 320.15 344.03 320.15 344.03 320.15 355.39 344.89 355.39 344.89 345.5"/><path class="c" d="M320.15,371.4c0,4,24.74,4,24.74,0V360H320.15ZM331,365.6a1.54,1.54,0,1,1,2.1,1.43l1.36,3.34h-3.83L332,367A1.53,1.53,0,0,1,331,365.6Z"/><polygon class="b" points="344.89 345.5 344.89 345.5 344.89 342.56 320.15 342.56 320.15 344.03 320.15 345.5 344.89 345.5"/><polygon class="b" points="321.62 340.45 321.62 305.08 318.68 305.08 318.68 340.45 320.15 340.45 321.62 340.45"/><polygon class="b" points="346.36 340.45 346.36 305.08 343.42 305.08 343.42 340.45 344.89 340.45 346.36 340.45"/><rect class="c" x="361.67" y="385.64" width="2.94" height="2.94"/><rect class="c" x="391.07" y="385.64" width="2.94" height="2.94"/><rect class="c" x="385.19" y="385.64" width="2.94" height="2.94"/><rect class="c" x="396.96" y="385.64" width="2.94" height="2.94"/><rect class="c" x="338.14" y="385.64" width="2.94" height="2.94"/><rect class="c" x="326.38" y="385.64" width="2.94" height="2.94"/><rect class="c" x="332.26" y="385.64" width="2.94" height="2.94"/><rect class="c" x="379.31" y="385.64" width="2.94" height="2.94"/><rect class="c" x="349.91" y="385.64" width="2.94" height="2.94"/><rect class="c" x="344.02" y="385.64" width="2.94" height="2.94"/><rect class="c" x="355.79" y="385.64" width="2.94" height="2.94"/><rect class="c" x="367.55" y="385.64" width="2.94" height="2.94"/><rect class="c" x="373.43" y="385.64" width="2.94" height="2.94"/><rect class="c" x="308.74" y="385.64" width="2.94" height="2.94"/><rect class="c" x="314.62" y="385.64" width="2.94" height="2.94"/><rect class="c" x="320.5" y="385.64" width="2.94" height="2.94"/><rect class="c" x="279.33" y="385.64" width="2.94" height="2.94"/><rect class="c" x="273.45" y="385.64" width="2.94" height="2.94"/><rect class="c" x="285.21" y="385.64" width="2.94" height="2.94"/><rect class="c" x="296.97" y="385.64" width="2.94" height="2.94"/><rect class="c" x="291.09" y="385.64" width="2.94" height="2.94"/><rect class="c" x="302.86" y="385.64" width="2.94" height="2.94"/><polygon class="b" points="312.95 273.71 312.95 279.72 315.89 279.72 315.89 276.65 350.4 276.65 350.4 279.72 353.34 279.72 353.34 273.71 321.48 273.71 318.54 273.71 312.95 273.71"/><path class="b" d="M350.4,286.48H315.89v-6.76h-14v21.67l62.8.66V279.72H350.4Zm2.94-3.81h8.44v16.41l-40.3-.43-2.94,0-13.68-.14V282.67H313v6.75h40.39Z"/><polygon class="c" points="292.1 332.65 273.96 332.65 273.96 313.05 271.02 313.05 271.02 335.59 295.04 335.59 295.04 313.05 292.1 313.05 292.1 332.65"/><polygon class="c" points="395.61 313.05 392.67 313.05 392.67 332.65 374.54 332.65 374.54 313.05 371.6 313.05 371.6 335.59 395.61 335.59 395.61 313.05"/><polygon class="b" points="146.06 365 146.06 307.76 114.81 307.76 111.87 307.76 71.64 307.76 71.64 310.7 143.12 310.7 143.12 362.06 56.9 362.06 56.9 325.44 53.96 325.44 53.96 365 111.87 365 114.81 365 146.06 365"/><rect class="c" x="56.9" y="310.7" width="11.8" height="11.8"/><path class="b" d="M71.64,325.44V307.76H54v17.68H71.64ZM56.9,310.7H68.7v11.8H56.9Z"/><rect class="b" x="80.39" y="318.46" width="46.36" height="2.94"/><rect class="b" x="80.39" y="326.55" width="46.36" height="2.94"/><rect class="b" x="80.39" y="334.63" width="46.36" height="2.94"/><rect class="b" x="80.39" y="342.72" width="46.36" height="2.94"/><rect class="b" x="80.39" y="350.81" width="46.36" height="2.94"/><path class="c" d="M726.76,7.93v24l.78,2-.78.32V51.64l.36.51c-.12.08-.23.18-.36.27v2.22A26.26,26.26,0,0,1,729,53.05V51l-.06,0-1.13-1.89c.38-.23.79-.44,1.19-.65v-17l-.09-.27.09,0V7.93l-1.1-.4Z"/><path class="c" d="M726.76,99l.59.44-.59.84V121H729V103c-.31-.17-.64-.33-.94-.51l.94-1.61v-2.5c-.76-.49-1.5-1-2.21-1.58Z"/><path class="c" d="M727.87,7.53l1.1.4,4.14,1.5A33.33,33.33,0,0,1,727.87,0a33.61,33.61,0,0,1-5.25,9.43l4.14-1.5Z"/><path class="c" d="M747.53,45.2l-.25,2c-.65-.08-1.3-.14-2-.17v1.77c.74,0,1.47.12,2.21.22Z"/><path class="c" d="M745.32,121h2.21V106.46c-.65.08-1.29.15-1.95.2l-.13-2.21c.69,0,1.39-.11,2.08-.2v-1.83c-.73.11-1.47.19-2.21.23Z"/><path class="c" d="M747.53,31.17c-.33,0-.65-.07-1-.09l.14-2.2.84.07v-21l-1.11-.4-1.1.4V44.78c.74,0,1.48.11,2.21.2Z"/><path class="c" d="M747.53,7.93l4.14,1.5A33.61,33.61,0,0,1,746.42,0a33.33,33.33,0,0,1-5.24,9.43l4.14-1.5,1.1-.4Z"/><path class="c" d="M766.09,50.73V34.49L765,36.42l-1.16-.59V52.24l1.77-1.91Z"/><path class="c" d="M766.09,34.48V7.93L765,7.53l-1.1.4V33.86l.2-.41C764.76,33.78,765.43,34.12,766.09,34.48Z"/><path class="c" d="M763.88,98.49l.35.39c-.11.11-.23.2-.35.3V121h2.21V97.08l-.21.22-1.58-1.53c.49-.51,1-1,1.42-1.58l.37.3V90.74a27.61,27.61,0,0,1-2.21,2.86Z"/><path class="c" d="M766.09,7.93l4.14,1.5A33.61,33.61,0,0,1,765,0a33.33,33.33,0,0,1-5.24,9.43l4.14-1.5,1.1-.4Z"/><path class="b" d="M822.47,109.21A16.18,16.18,0,1,0,806.3,93,16.19,16.19,0,0,0,822.47,109.21Zm0-29.41A13.24,13.24,0,1,1,809.24,93,13.25,13.25,0,0,1,822.47,79.8Z"/><path class="b" d="M822.27,96.74a4.09,4.09,0,0,1-2.52-1L818.87,97a5.31,5.31,0,0,0,2.94,1.29V100h1.37V98.26a3,3,0,0,0,2.64-3.12c0-3.44-4.64-3-4.64-5.07,0-.89.57-1.36,1.49-1.36a2.71,2.71,0,0,1,2,.9l1-1.14a3.93,3.93,0,0,0-2.46-1.33v-1.7h-1.37v1.73a2.91,2.91,0,0,0-2.52,3c0,3.2,4.64,2.88,4.64,5.13C823.93,96.2,823.38,96.74,822.27,96.74Z"/><path class="b" d="M529.1,106a16.17,16.17,0,1,0-16.18-16.17A16.19,16.19,0,0,0,529.1,106Zm0-29.4a13.23,13.23,0,1,1-13.24,13.23A13.25,13.25,0,0,1,529.1,76.62Z"/><path class="b" d="M528.9,93.55a4.07,4.07,0,0,1-2.52-1l-.89,1.33a5.31,5.31,0,0,0,3,1.29v1.7h1.36V95.07A3,3,0,0,0,532.44,92c0-3.44-4.63-3-4.63-5.08a1.3,1.3,0,0,1,1.48-1.36,2.71,2.71,0,0,1,2,.9l1-1.14A4,4,0,0,0,529.8,84v-1.7h-1.36V84a2.89,2.89,0,0,0-2.52,3c0,3.2,4.63,2.87,4.63,5.12C530.55,93,530,93.55,528.9,93.55Z"/><path class="b" d="M412.05,101.61a16.18,16.18,0,1,0-16.18-16.17A16.19,16.19,0,0,0,412.05,101.61Zm0-29.4a13.23,13.23,0,1,1-13.24,13.23A13.25,13.25,0,0,1,412.05,72.21Z"/><path class="b" d="M411.85,89.14a4.07,4.07,0,0,1-2.52-1l-.88,1.33a5.25,5.25,0,0,0,2.94,1.29v1.7h1.36V90.66a3,3,0,0,0,2.64-3.12c0-3.43-4.63-3-4.63-5.07a1.3,1.3,0,0,1,1.48-1.36,2.71,2.71,0,0,1,2,.9l1-1.14a4,4,0,0,0-2.47-1.33v-1.7h-1.36v1.74a2.89,2.89,0,0,0-2.52,3c0,3.2,4.63,2.87,4.63,5.12C413.5,88.6,413,89.14,411.85,89.14Z"/><path class="b" d="M75.11,278.62a16.18,16.18,0,1,0-16.17-16.18A16.19,16.19,0,0,0,75.11,278.62Zm0-29.41a13.24,13.24,0,1,1-13.23,13.23A13.25,13.25,0,0,1,75.11,249.21Z"/><path class="b" d="M74.92,266.15a4.13,4.13,0,0,1-2.53-1.06l-.88,1.33a5.32,5.32,0,0,0,2.95,1.3v1.7h1.36v-1.75a3,3,0,0,0,2.64-3.12c0-3.44-4.63-3-4.63-5.07a1.3,1.3,0,0,1,1.48-1.37,2.72,2.72,0,0,1,2,.91l1-1.14a3.91,3.91,0,0,0-2.47-1.33v-1.7H74.46v1.73a2.89,2.89,0,0,0-2.52,3c0,3.2,4.63,2.88,4.63,5.13C76.57,265.6,76,266.15,74.92,266.15Z"/><path class="b" d="M762.24,50.93l-1.33,1.77c.5.37,1,.77,1.46,1.18l1.5-1.62C763.34,51.8,762.8,51.35,762.24,50.93Z"/><path class="b" d="M738.81,47.34l-.37-2.17c-.75.13-1.5.28-2.24.46l.53,2.14C737.42,47.61,738.11,47.46,738.81,47.34Z"/><path class="b" d="M732.7,49.09c.65-.26,1.32-.51,2-.73l-.69-2.1c-.72.24-1.44.5-2.14.79Z"/><path class="b" d="M712.65,76c0,.77.05,1.53.11,2.28l2.2-.18c-.06-.7-.1-1.41-.1-2.12Z"/><path class="b" d="M717.63,63.39c.3-.64.63-1.27,1-1.89l-1.92-1.09c-.37.66-.73,1.34-1.06,2Z"/><path class="b" d="M723.84,54.84l-1.52-1.6c-.55.52-1.09,1.06-1.6,1.63l1.63,1.48C722.83,55.83,723.32,55.32,723.84,54.84Z"/><path class="b" d="M769.24,88.89l2,1c.19-.38.36-.77.54-1.16l-2-.86C769.56,88.22,769.41,88.56,769.24,88.89Z"/><path class="b" d="M717.9,58.47l1.83,1.23c.39-.59.81-1.17,1.25-1.72l-1.74-1.37C718.77,57.21,718.32,57.83,717.9,58.47Z"/><path class="b" d="M714.07,85c.23.73.49,1.45.77,2.16l2-.82c-.26-.65-.5-1.32-.71-2Z"/><path class="b" d="M733,102.46l-.82,2.05c.7.28,1.42.54,2.16.77l.66-2.1C734.28,103,733.61,102.72,733,102.46Z"/><path class="b" d="M719.88,92l-1.82,1.25c.43.63.89,1.24,1.36,1.83l1.73-1.37C720.7,93.13,720.28,92.56,719.88,92Z"/><path class="b" d="M737,103.74l-.51,2.15c.74.17,1.49.32,2.24.44l.35-2.18C738.39,104,737.69,103.9,737,103.74Z"/><path class="b" d="M724,96.8q-.78-.72-1.5-1.5l-1.62,1.5c.52.55,1.06,1.09,1.62,1.61Z"/><path class="b" d="M741.2,104.41,741,106.6c.76.07,1.52.1,2.29.11l0-2.2C742.61,104.5,741.9,104.47,741.2,104.41Z"/><path class="b" d="M760.6,101.66l-1.21-1.84c-.59.39-1.19.75-1.81,1.09l1.07,1.94C759.32,102.48,760,102.08,760.6,101.66Z"/><path class="b" d="M751.71,103.36c-.67.2-1.36.37-2.06.52l.46,2.16c.75-.16,1.49-.35,2.22-.56Z"/><path class="b" d="M755.68,101.88q-1,.44-1.95.81l.77,2.07c.72-.27,1.42-.56,2.11-.88Z"/><path class="b" d="M715.62,82.32c-.16-.68-.3-1.38-.41-2.08l-2.18.34c.12.76.26,1.51.44,2.25Z"/><path class="b" d="M767,92.51l1.8,1.29c.44-.62.86-1.26,1.26-1.91l-1.88-1.15C767.83,91.35,767.44,91.94,767,92.51Z"/><path class="b" d="M714.73,64.54c-.28.71-.52,1.44-.75,2.17l2.11.64c.21-.68.44-1.35.7-2Z"/><path class="b" d="M759.17,51.48l1.19-1.85c-.64-.41-1.3-.8-2-1.17l-1,1.94Q758.27,50.91,759.17,51.48Z"/><path class="b" d="M749.38,47.51c.69.14,1.38.31,2.06.5l.6-2.12c-.73-.21-1.47-.39-2.23-.54Z"/><path class="b" d="M717.75,88.31l-2,1q.51,1,1.08,2l1.91-1.11C718.39,89.57,718.06,89,717.75,88.31Z"/><path class="b" d="M756.33,47.45c-.69-.32-1.4-.6-2.12-.86l-.75,2.07c.67.24,1.33.51,2,.8Z"/><path class="b" d="M712.65,75.73h2.21c0-.72,0-1.43.07-2.13l-2.2-.16C712.68,74.2,712.65,75,712.65,75.73Z"/><path class="b" d="M713,71.17l2.19.32c.1-.7.23-1.4.38-2.09l-2.15-.48C713.24,69.66,713.09,70.41,713,71.17Z"/><path class="b" d="M740.92,47.07c.7-.07,1.41-.11,2.12-.12l0-2.21c-.77,0-1.52.06-2.28.13Z"/><path class="b" d="M726.76,51.64l-.9-1.3q-.95.66-1.83,1.38l1.4,1.71c.43-.35.88-.68,1.33-1,.13-.09.24-.19.36-.27Z"/><path class="b" d="M728.91,51l.06,0q.88-.52,1.8-1l-1-2c-.28.14-.54.3-.81.45s-.81.42-1.19.65Z"/><path class="b" d="M726.76,99c-.37-.27-.76-.54-1.12-.83l-1.38,1.72c.6.48,1.21.93,1.84,1.36l.66-1,.59-.84Z"/><path class="b" d="M729,103c.36.19.71.39,1.08.57l1-2c-.64-.31-1.26-.65-1.87-1l-.17.29L728,102.5C728.33,102.68,728.66,102.84,729,103Z"/><path class="b" d="M745.58,106.66c.66,0,1.3-.12,1.95-.2.11,0,.22,0,.33,0l-.3-2.19h0c-.69.09-1.39.16-2.08.2Z"/><path class="b" d="M747.53,45.2l0-.22h0c-.73-.09-1.47-.16-2.21-.2h0l-.12,2.2.16,0c.66,0,1.31.09,2,.17Z"/><path class="b" d="M763.88,98.49l-1.12-1.25c-.52.47-1.07.92-1.63,1.35l1.34,1.75c.48-.37.95-.77,1.41-1.16.12-.1.24-.19.35-.3Z"/><path class="b" d="M764.3,95.77l1.58,1.53.21-.22c.45-.48.9-1,1.32-1.47l-1.32-1.12-.37-.3C765.27,94.73,764.79,95.26,764.3,95.77Z"/><path class="b" d="M723.06,58.18l0,0c.24-.28.47-.56.72-.83Z"/><path class="b" d="M723.81,57.37a1.1,1.1,0,0,1,.77-.36,1.17,1.17,0,0,1,.79.3L731.48,63l-5.28-4.89a24.81,24.81,0,0,1,33.47-1.28L743.58,74.17h0l17.58-19a27.09,27.09,0,0,0-11.53-5.8c-.7-.15-1.4-.27-2.1-.38s-1.47-.17-2.21-.22A27.16,27.16,0,0,0,729,53.05a27.42,27.42,0,0,0-5.16,4.32Z"/><path class="b" d="M744.25,74.78l1.27.54,20.24-21.86A31.38,31.38,0,0,1,773,86.86l-5-2.11a1.11,1.11,0,0,1,.58,1.45c-.14.34-.31.66-.47,1l1.64.69,2,.86,2.43,1,.43-1a33.58,33.58,0,0,0-8.15-37.66l-.37-.35-.44-.4-1.77,1.91v0l-1.5,1.62-1.21,1.29-17.58,19Z"/><path class="c" d="M742.89,76.54,724.7,59.69a24.82,24.82,0,1,0,41.37,26.66l-22.86-9.61A1.32,1.32,0,0,1,742.89,76.54Z"/><path class="b" d="M768,84.75h0l-22.44-9.43-1.27-.54-.67-.61h0L731.48,63l-6.11-5.65a1.17,1.17,0,0,0-.79-.3,1.1,1.1,0,0,0-.77.36c-.25.27-.48.55-.72.83a27,27,0,0,0,3.67,38.61c.71.56,1.45,1.09,2.21,1.58a26.91,26.91,0,0,0,8.68,3.69,27.42,27.42,0,0,0,6,.66c.57,0,1.14,0,1.71-.09.74,0,1.48-.12,2.21-.23a27,27,0,0,0,15.94-8.34c.14-.15.27-.32.41-.48a27.61,27.61,0,0,0,2.21-2.86,26.71,26.71,0,0,0,2-3.55c.16-.33.33-.65.47-1A1.11,1.11,0,0,0,768,84.75Zm-6.12,7.84a24.82,24.82,0,0,1-37.15-32.9l18.19,16.85a1.32,1.32,0,0,0,.32.2l22.86,9.61A25,25,0,0,1,761.85,92.59Z"/><path class="b" d="M705,53.12,703.12,52c-.38.65-.75,1.31-1.1,2l2,1C704.31,54.37,704.66,53.74,705,53.12Z"/><path class="b" d="M703,56.94,701,56c-.32.68-.62,1.38-.9,2.08l2,.83C702.43,58.25,702.72,57.59,703,56.94Z"/><path class="b" d="M723.62,35.71l-1-2c-.67.34-1.34.69-2,1.06l1.08,1.92C722.34,36.36,723,36,723.62,35.71Z"/><path class="b" d="M699,73.57l-2.2-.1c0,.75-.06,1.5-.06,2.26h2.21C698.9,75,698.92,74.29,699,73.57Z"/><path class="b" d="M701.4,60.94l-2.08-.73c-.25.71-.48,1.42-.7,2.15l2.12.63C700.94,62.3,701.17,61.61,701.4,60.94Z"/><path class="b" d="M699.36,69.29,697.18,69c-.11.74-.2,1.48-.27,2.24l2.19.21C699.17,70.71,699.26,70,699.36,69.29Z"/><path class="b" d="M710.07,46.15l-1.66-1.46c-.49.57-1,1.14-1.45,1.73l1.72,1.38C709.13,47.24,709.59,46.69,710.07,46.15Z"/><path class="b" d="M719.87,37.82,718.7,36c-.64.4-1.27.81-1.88,1.24L718.08,39C718.67,38.59,719.27,38.2,719.87,37.82Z"/><path class="b" d="M716.34,40.27,715,38.53c-.6.46-1.18.93-1.76,1.42l1.43,1.68C715.22,41.16,715.78,40.71,716.34,40.27Z"/><path class="b" d="M713.07,43.06l-1.51-1.61c-.55.52-1.09,1-1.61,1.58l1.58,1.54C712,44.06,712.54,43.55,713.07,43.06Z"/><path class="b" d="M707.38,49.52l-1.79-1.3c-.44.61-.87,1.23-1.28,1.86l1.84,1.21Q706.75,50.39,707.38,49.52Z"/><path class="b" d="M700.18,65.06,698,64.54c-.18.73-.34,1.46-.49,2.21l2.17.42C699.86,66.46,700,65.76,700.18,65.06Z"/><path class="b" d="M784.88,58.35l2-.86c-.29-.7-.6-1.38-.92-2.06l-2,1C784.31,57,784.6,57.69,784.88,58.35Z"/><path class="b" d="M780.8,50.8l1.83-1.24c-.42-.62-.86-1.23-1.31-1.84L779.55,49C780,49.61,780.4,50.2,780.8,50.8Z"/><path class="b" d="M778.23,47.35l1.7-1.41c-.48-.58-1-1.15-1.47-1.7l-1.64,1.47C777.3,46.25,777.77,46.79,778.23,47.35Z"/><path class="b" d="M783,54.48,785,53.42c-.36-.66-.73-1.31-1.12-2L782,52.61C782.32,53.22,782.68,53.84,783,54.48Z"/><path class="b" d="M776.9,42.6c-.53-.54-1.07-1.06-1.63-1.56l-1.49,1.62c.53.49,1.05,1,1.56,1.49Z"/><path class="b" d="M762,32.51c-.7-.29-1.4-.57-2.11-.83l-.76,2.07c.67.25,1.34.51,2,.79Z"/><path class="b" d="M773.56,39.55c-.58-.48-1.17-.95-1.77-1.4l-1.32,1.77c.57.43,1.13.87,1.69,1.33Z"/><path class="b" d="M786.36,62.38l2.1-.66c-.22-.72-.46-1.43-.72-2.14l-2.07.77C785.91,61,786.14,61.7,786.36,62.38Z"/><path class="b" d="M768.71,38.67,770,36.84c-.62-.42-1.26-.83-1.9-1.22L766.9,37.5C767.51,37.87,768.12,38.26,768.71,38.67Z"/><path class="b" d="M788.38,75.1l2.2,0c0-.75,0-1.5-.08-2.25l-2.21.13C788.34,73.66,788.36,74.38,788.38,75.1Z"/><path class="b" d="M787.44,66.55l2.16-.45c-.16-.74-.33-1.47-.52-2.2l-2.13.55C787.13,65.14,787.29,65.84,787.44,66.55Z"/><path class="b" d="M788.11,70.8l2.2-.24c-.09-.75-.19-1.5-.3-2.24l-2.18.35C787.94,69.37,788,70.08,788.11,70.8Z"/><path class="b" d="M740.1,31.12l-.18-2.2c-.75.06-1.5.14-2.24.23l.27,2.19C738.66,31.25,739.38,31.18,740.1,31.12Z"/><path class="b" d="M757.77,30.94c-.71-.22-1.44-.43-2.17-.62L755,32.45q1.05.27,2.07.6Z"/><path class="b" d="M735.83,31.67l-.39-2.18c-.74.13-1.48.28-2.21.45l.49,2.15C734.41,31.93,735.12,31.79,735.83,31.67Z"/><path class="b" d="M744.4,31l0-2.2h-.8l-1.46,0,.07,2.21c.46,0,.93,0,1.39,0Z"/><path class="b" d="M753.4,29.8q-1.1-.24-2.22-.42l-.35,2.18c.71.12,1.41.25,2.11.4Z"/><path class="b" d="M726.76,31.94v0c-.7.27-1.4.56-2.08.86l.89,2c.4-.18.8-.33,1.2-.5l.78-.32Z"/><path class="b" d="M729,31.42l.6,1.82c.68-.22,1.37-.43,2.06-.62L731,30.49c-.7.19-1.39.41-2.07.63l-.09,0Z"/><path class="b" d="M746.55,31.08c.33,0,.65.06,1,.09s.78,0,1.17.1l.24-2.19c-.47-.06-.94-.09-1.41-.13l-.84-.07Z"/><path class="b" d="M766.09,34.49h0c-.66-.36-1.33-.7-2-1l-.2.41-.76,1.58c.26.12.51.26.76.39l1.16.59Z"/></svg>