<svg xmlns="http://www.w3.org/2000/svg" viewBox="0 0 284.34 63.22"><defs><style>.a{fill:#d9804f;}.b{fill:#d8804f;}</style></defs><path class="a" d="M120.75,41.84,134.21,23.9A13.74,13.74,0,0,0,136,20.7a8.62,8.62,0,0,0,.65-3.1v-.05A4.65,4.65,0,0,0,135.32,14a6.18,6.18,0,0,0-7.67.11,6.36,6.36,0,0,0-1.78,4v0h-5.6v0a14.52,14.52,0,0,1,2-5.67A9.93,9.93,0,0,1,126,8.77a11.4,11.4,0,0,1,5.39-1.23,13.36,13.36,0,0,1,5.89,1.18A8.34,8.34,0,0,1,141,12.16a10.92,10.92,0,0,1,1.28,5.44v0a12.1,12.1,0,0,1-.85,4.27,18.46,18.46,0,0,1-2.37,4.31L127.92,41.39h14.6v5.15H120.75Z"/><path class="a" d="M156.37,45.8a9.42,9.42,0,0,1-3.69-3.32,13.13,13.13,0,0,1-1.9-5.23v0h5.42v0a5,5,0,0,0,1.7,3.31,5.55,5.55,0,0,0,3.66,1.18,4.88,4.88,0,0,0,4-1.74A7.53,7.53,0,0,0,167,35.1V31.86A7.48,7.48,0,0,0,165.58,27a4.88,4.88,0,0,0-4-1.74,5.14,5.14,0,0,0-2.71.8,7.54,7.54,0,0,0-2.28,2.23h-4.94V7.94h19.68v5.15H157.05v8.68a7.66,7.66,0,0,1,4.8-1.72,11.26,11.26,0,0,1,5.73,1.38,8.88,8.88,0,0,1,3.61,4,15.16,15.16,0,0,1,1.23,6.4V35.1a14.67,14.67,0,0,1-1.27,6.4,9,9,0,0,1-3.72,4,11.67,11.67,0,0,1-5.87,1.39A11.39,11.39,0,0,1,156.37,45.8Z"/><path class="a" d="M184.55,44.05q-2.81-2.89-2.8-8.07V18.43c0-3.47.93-6.17,2.81-8.09s4.61-2.88,8.2-2.88,6.35,1,8.22,2.87,2.8,4.61,2.8,8.1V36q0,5.21-2.81,8.08c-1.88,1.92-4.61,2.88-8.21,2.88S186.41,46,184.55,44.05ZM197,40.29A6.19,6.19,0,0,0,198.37,36V18.43A6.2,6.2,0,0,0,197,14.11a6.76,6.76,0,0,0-8.49,0,6.2,6.2,0,0,0-1.36,4.32V36a6.19,6.19,0,0,0,1.37,4.31,6.73,6.73,0,0,0,8.47,0Z"/><path class="a" d="M214.85,44.05Q212,41.16,212.05,36V18.43c0-3.47.93-6.17,2.81-8.09s4.61-2.88,8.2-2.88,6.35,1,8.22,2.87,2.8,4.61,2.8,8.1V36c0,3.47-.93,6.16-2.81,8.08s-4.61,2.88-8.21,2.88S216.71,46,214.85,44.05Zm12.45-3.76A6.19,6.19,0,0,0,228.67,36V18.43a6.2,6.2,0,0,0-1.36-4.32,6.76,6.76,0,0,0-8.49,0,6.2,6.2,0,0,0-1.36,4.32V36a6.19,6.19,0,0,0,1.37,4.31,6.73,6.73,0,0,0,8.47,0Z"/><path class="a" d="M245.86,46.47a12,12,0,0,1-2.7-.93A11.2,11.2,0,0,1,240.81,44l2-2.4a8.84,8.84,0,0,0,2.81,1.66,9.85,9.85,0,0,0,3.35.56,6.71,6.71,0,0,0,3.77-.9A2.9,2.9,0,0,0,254,40.37v0a2.66,2.66,0,0,0-.61-1.85,3.58,3.58,0,0,0-1.57-1,18.14,18.14,0,0,0-2.49-.61h-.1l-.1,0-.23,0a24.86,24.86,0,0,1-3.66-.87,5.31,5.31,0,0,1-2.41-1.77,5.9,5.9,0,0,1-1-3.66v0a6.44,6.44,0,0,1,.94-3.55,5.87,5.87,0,0,1,2.71-2.24,11.8,11.8,0,0,1,6.66-.51,12.48,12.48,0,0,1,2.3.78,14.09,14.09,0,0,1,2.22,1.3l-1.78,2.5a10.32,10.32,0,0,0-2.55-1.41,7.41,7.41,0,0,0-2.55-.47,6,6,0,0,0-3.57.92A3,3,0,0,0,245,30.39v0a2.44,2.44,0,0,0,.66,1.81,4,4,0,0,0,1.63,1,25.45,25.45,0,0,0,2.72.66l.11,0,.12,0,.17,0,.17,0A18.62,18.62,0,0,1,254,35a5.27,5.27,0,0,1,2.28,1.84,5.83,5.83,0,0,1,.92,3.47v0a6.1,6.1,0,0,1-1,3.5A6,6,0,0,1,253.37,46a11.57,11.57,0,0,1-4.44.77A15.14,15.14,0,0,1,245.86,46.47Z"/><path class="a" d="M262.1,24.14h3.14v22.4H262.1Zm1.37,10h7.63a3,3,0,0,0,1.59-.43,2.86,2.86,0,0,0,1.07-1.23,4.57,4.57,0,0,0,0-3.65,2.82,2.82,0,0,0-1.06-1.22,2.93,2.93,0,0,0-1.6-.43h-7.63v-3H271a7.07,7.07,0,0,1,3.41.8,5.6,5.6,0,0,1,2.28,2.27,6.92,6.92,0,0,1,.81,3.4,6.81,6.81,0,0,1-.82,3.39,5.6,5.6,0,0,1-2.28,2.27,6.94,6.94,0,0,1-3.4.8h-7.51Zm6.09,2.29,3.13-.71,5.73,10.87h-3.73Z"/><path class="b" d="M82.57,27.85h-3.3V18.38a2.35,2.35,0,0,1,.67.16,1.23,1.23,0,0,1,.42.28,1.3,1.3,0,0,1,.35.51,1.54,1.54,0,0,1,.12.61v6.4h1.74Z"/><path class="b" d="M85.42,22.44a1.35,1.35,0,0,1,.87-1.38,2.85,2.85,0,0,1,.77-.17v3.5a3.52,3.52,0,0,1-.27,1.37,3.4,3.4,0,0,1-3.24,2.09H81.88V26.34h1.67a1.84,1.84,0,0,0,.68-.14,2.14,2.14,0,0,0,.63-.41,3.39,3.39,0,0,0,.42-.68,1.89,1.89,0,0,0,.14-.72ZM82.78,30a1.05,1.05,0,0,1,.28-.76.91.91,0,0,1,.68-.3,1,1,0,0,1,.74.3,1.06,1.06,0,0,1,.29.76,1,1,0,0,1-.29.7,1,1,0,0,1-.74.29.94.94,0,0,1-.68-.29A1,1,0,0,1,82.78,30Zm2.28,0a1.09,1.09,0,0,1,.27-.76A.87.87,0,0,1,86,29a1,1,0,0,1,.75.3,1,1,0,0,1,.31.76.93.93,0,0,1-.31.7A1.05,1.05,0,0,1,86,31a.89.89,0,0,1-.7-.29A1,1,0,0,1,85.06,30Z"/><path class="b" d="M91.45,22.41a1.38,1.38,0,0,1,.24-.94,3.12,3.12,0,0,1,.56-.39,2.2,2.2,0,0,1,.76-.23v5.49H94v1.51H93v.84a1.73,1.73,0,0,1-.11.6,1.38,1.38,0,0,1-.31.46,1.82,1.82,0,0,1-.48.34,2,2,0,0,1-.66.15Z"/><path class="b" d="M93.41,27.85V26.34h2.77a3.23,3.23,0,0,1-.48-1,3.61,3.61,0,0,1-.13-1,3.26,3.26,0,0,1,.57-1.88,1.79,1.79,0,0,1-1-.39,1.46,1.46,0,0,1-.16-.19.71.71,0,0,1-.12-.23c0-.09-.06-.19-.09-.32a2.68,2.68,0,0,1,0-.45H102a3.29,3.29,0,0,1,1.36.29,3.62,3.62,0,0,1,1.11.75,3.4,3.4,0,0,1,1,2.45,3.35,3.35,0,0,1-.13,1,3.08,3.08,0,0,1-.49.95h1.56v1.51ZM100,26.34v-2a1.47,1.47,0,0,0-.16-.7,2.39,2.39,0,0,0-.45-.62,4.06,4.06,0,0,0-.37-.32,1.27,1.27,0,0,0-.38-.22h-.11a2.35,2.35,0,0,0-.44.2,4.56,4.56,0,0,0-.42.31,2.5,2.5,0,0,0-.39.64,1.91,1.91,0,0,0-.14.71,2,2,0,0,0,.14.74,2.66,2.66,0,0,0,.41.64v0a1.84,1.84,0,0,0,1.32.61Zm1.57,0H102a2,2,0,0,0,.72-.14,2.22,2.22,0,0,0,.64-.42,2.92,2.92,0,0,0,.45-.65,1.63,1.63,0,0,0,.16-.73,1.58,1.58,0,0,0-.14-.71,1.9,1.9,0,0,0-.44-.58,2.54,2.54,0,0,0-.66-.44,1.66,1.66,0,0,0-.73-.16h-1a5.22,5.22,0,0,1,.44.94,3.21,3.21,0,0,1,.14.92Z"/><path class="b" d="M110.94,23.66a1.34,1.34,0,0,1,.12-.56,1.75,1.75,0,0,1,.29-.47,1.21,1.21,0,0,1,.45-.31,2.16,2.16,0,0,1,.7-.14v4.16h1.22v-.22a1.55,1.55,0,0,1,0-.22V22.43a1.47,1.47,0,0,1,.41-1.07,2,2,0,0,1,.45-.32,1.74,1.74,0,0,1,.7-.13v6.62a.07.07,0,0,0,0,0v.27h-9.39V26.34h2V25.22a1.28,1.28,0,0,1,.13-.57,1.42,1.42,0,0,1,.35-.49,1.7,1.7,0,0,1,.51-.31,2.89,2.89,0,0,1,.65-.17v2.66H111ZM109.51,19a1,1,0,0,1,.27-.72,1,1,0,0,1,.71-.26,1,1,0,0,1,.72.26.91.91,0,0,1,.29.72,1,1,0,0,1-.29.73.94.94,0,0,1-.72.29.91.91,0,0,1-.71-.29A1,1,0,0,1,109.51,19Zm1.11-2.2a1,1,0,0,1,.28-.69,1,1,0,0,1,.7-.29,1,1,0,0,1,.74.29.92.92,0,0,1,.3.69,1,1,0,0,1-.3.77,1,1,0,0,1-.74.3.92.92,0,0,1-.7-.3A1.12,1.12,0,0,1,110.62,16.75Zm1.13,2.2a.91.91,0,0,1,.29-.72,1.12,1.12,0,0,1,.77-.26,1,1,0,0,1,.69.26.94.94,0,0,1,.28.72,1,1,0,0,1-.28.73.91.91,0,0,1-.69.29,1,1,0,0,1-.77-.29A1,1,0,0,1,111.75,19Z"/><path class="b" d="M8.63,44.34h1.88v1.51H5.12a3.75,3.75,0,0,1-1.39-.25,3.45,3.45,0,0,1-1.11-.71,3.07,3.07,0,0,1-.77-1.15,3.72,3.72,0,0,1-.25-1.36A3.94,3.94,0,0,1,1.83,41a3.25,3.25,0,0,1,.75-1.12,3.83,3.83,0,0,1,1.12-.72,3.67,3.67,0,0,1,1.42-.26,3.54,3.54,0,0,1,1.36.26,3.45,3.45,0,0,1,1.09.72A3.63,3.63,0,0,1,8.36,41a3.34,3.34,0,0,1,.27,1.36ZM2.9,37a.94.94,0,0,1,.28-.72A1,1,0,0,1,3.86,36a1.12,1.12,0,0,1,.77.26.92.92,0,0,1,.3.72,1,1,0,0,1-.3.73,1,1,0,0,1-.77.29.87.87,0,0,1-.68-.29A1,1,0,0,1,2.9,37ZM7,44.34v-2a1.8,1.8,0,0,0-.55-1.32,1.85,1.85,0,0,0-1.3-.62,1.9,1.9,0,0,0-.75.15,2.3,2.3,0,0,0-.65.43,5,5,0,0,0-.38.63,1.85,1.85,0,0,0,0,1.46,3,3,0,0,0,.4.64v0a1.87,1.87,0,0,0,1.38.61ZM5.17,37a.94.94,0,0,1,.28-.72A1.07,1.07,0,0,1,6.18,36a1,1,0,0,1,.71.26.94.94,0,0,1,.28.72,1,1,0,0,1-.28.73.91.91,0,0,1-.71.29,1,1,0,0,1-.73-.29A1,1,0,0,1,5.17,37Z"/><path class="b" d="M18.5,45.85H10.06V44.34h2a3.42,3.42,0,0,1-.47-1,3.84,3.84,0,0,1-.12-1,3.31,3.31,0,0,1,1-2.48,4.21,4.21,0,0,1,1.11-.72A3.49,3.49,0,0,1,15,38.92a3.52,3.52,0,0,1,1.37.27,3.24,3.24,0,0,1,1.09.74v0a3.31,3.31,0,0,1,1.05,2.47Zm-1.62-1.51v-2a1.65,1.65,0,0,0-.14-.7,2.35,2.35,0,0,0-.38-.62,3.49,3.49,0,0,0-.67-.43,1.48,1.48,0,0,0-.7-.19,1.88,1.88,0,0,0-.74.15,2.71,2.71,0,0,0-.64.44,3.4,3.4,0,0,0-.38.63,1.92,1.92,0,0,0-.14.72,1.76,1.76,0,0,0,.16.74,4.69,4.69,0,0,0,.37.67,2.63,2.63,0,0,0,.65.41,1.86,1.86,0,0,0,.72.15Zm-3-7.37a.94.94,0,0,1,.29-.71,1,1,0,0,1,.74-.28.9.9,0,0,1,.68.28.93.93,0,0,1,.28.71,1,1,0,0,1-.28.73.9.9,0,0,1-.68.28,1,1,0,0,1-1-1Z"/><path class="b" d="M24.13,45.85H20.82V36.38a2.27,2.27,0,0,1,.67.16,1.39,1.39,0,0,1,.43.28,1.27,1.27,0,0,1,.34.51,1.54,1.54,0,0,1,.12.61v6.4h1.75Z"/><path class="b" d="M23.05,44.34h1.72V38.85a2.16,2.16,0,0,1,.62.21,2.18,2.18,0,0,1,.52.36,1.79,1.79,0,0,1,.36.47,1.16,1.16,0,0,1,.11.54v3.91h1.29v-2A2.85,2.85,0,0,1,27.93,41a3.74,3.74,0,0,1,.77-1.11,3.81,3.81,0,0,1,1.13-.76,3.07,3.07,0,0,1,1.33-.26h5.9v4q-.06.27-.18.66a4.72,4.72,0,0,1-.36.76h2v1.51H23.05Zm6.2,0h4.36a1.34,1.34,0,0,0,.62-.11,1.87,1.87,0,0,0,.54-.33,2.63,2.63,0,0,0,.43-.5,1.83,1.83,0,0,0,.26-.57V40.44h-4.3a1.77,1.77,0,0,0-.76.14,1.92,1.92,0,0,0-.61.43,1.94,1.94,0,0,0-.4.62,1.68,1.68,0,0,0-.14.72ZM31.31,37a1,1,0,0,1,.27-.71.9.9,0,0,1,.7-.28,1.08,1.08,0,0,1,.76.28.91.91,0,0,1,.3.71,1,1,0,0,1-.3.73,1.08,1.08,0,0,1-.76.28.9.9,0,0,1-.7-.28A1,1,0,0,1,31.31,37Z"/><path class="b" d="M39.17,44.34v-2a3.53,3.53,0,0,1,1-2.49,4.4,4.4,0,0,1,1.18-.72,3.48,3.48,0,0,1,1.34-.26,3.36,3.36,0,0,1,1.33.26,4.84,4.84,0,0,1,1.17.73A4.37,4.37,0,0,1,45.91,41a3.31,3.31,0,0,1,.27,1.34,3.52,3.52,0,0,1-.14,1,4.14,4.14,0,0,1-.47,1h1.94v1.51H38V44.34Zm1.56,0h1.94a1.78,1.78,0,0,0,.71-.15,2.23,2.23,0,0,0,.59-.41,3.71,3.71,0,0,0,.43-.68,1.6,1.6,0,0,0,.18-.72,1.72,1.72,0,0,0-.15-.72A2.68,2.68,0,0,0,44,41a1.79,1.79,0,0,0-.58-.44,2.06,2.06,0,0,0-1.44,0,1.9,1.9,0,0,0-.58.44,3.14,3.14,0,0,0-.46.64,1.52,1.52,0,0,0-.18.73Z"/><path class="b" d="M47,44.34h2.12v-6.4a1.55,1.55,0,0,1,.44-1.12v0a1.16,1.16,0,0,1,.41-.29,2.18,2.18,0,0,1,.72-.14v9.44H47Z"/><path class="b" d="M54.38,45.85a2.81,2.81,0,0,1-.73-.13,1.13,1.13,0,0,1-.48-.28,1.55,1.55,0,0,1-.31-.46,1.44,1.44,0,0,1-.12-.61v-8a3.36,3.36,0,0,1,.73.12,1.24,1.24,0,0,1,.48.28,1.55,1.55,0,0,1,.43,1.13Z"/><path class="b" d="M67.67,44.34h1.88v1.51H64.16a3.75,3.75,0,0,1-1.39-.25,3.45,3.45,0,0,1-1.11-.71,3.07,3.07,0,0,1-.77-1.15,3.72,3.72,0,0,1-.25-1.36A3.94,3.94,0,0,1,60.87,41a3.25,3.25,0,0,1,.75-1.12,3.83,3.83,0,0,1,1.12-.72,3.67,3.67,0,0,1,1.42-.26,3.54,3.54,0,0,1,1.36.26,3.45,3.45,0,0,1,1.09.72A3.63,3.63,0,0,1,67.4,41a3.34,3.34,0,0,1,.27,1.36ZM61.94,37a.94.94,0,0,1,.28-.72A1,1,0,0,1,62.9,36a1.12,1.12,0,0,1,.77.26A.92.92,0,0,1,64,37a1,1,0,0,1-.3.73,1,1,0,0,1-.77.29.87.87,0,0,1-.68-.29A1,1,0,0,1,61.94,37ZM66,44.34v-2a1.8,1.8,0,0,0-.55-1.32,1.85,1.85,0,0,0-1.3-.62,1.9,1.9,0,0,0-.75.15,2.3,2.3,0,0,0-.65.43,4,4,0,0,0-.37.63,1.66,1.66,0,0,0-.16.73,1.8,1.8,0,0,0,.15.73,3,3,0,0,0,.4.64v0a1.87,1.87,0,0,0,1.38.61ZM64.21,37a.94.94,0,0,1,.28-.72,1.07,1.07,0,0,1,.73-.26,1,1,0,0,1,.71.26.94.94,0,0,1,.28.72,1,1,0,0,1-.28.73.91.91,0,0,1-.71.29,1,1,0,0,1-.73-.29A1,1,0,0,1,64.21,37Z"/><path class="b" d="M70.37,44.34v-2a3.54,3.54,0,0,1,1-2.49,4.51,4.51,0,0,1,1.17-.72,3.52,3.52,0,0,1,1.34-.26,3.41,3.41,0,0,1,1.34.26,5.26,5.26,0,0,1,1.17.73A4.64,4.64,0,0,1,77.12,41a3.31,3.31,0,0,1,.27,1.34,3.19,3.19,0,0,1-.15,1,4.08,4.08,0,0,1-.46,1h1.94v1.51H69.21V44.34Zm1.56,0h1.94a1.74,1.74,0,0,0,.71-.15,2.13,2.13,0,0,0,.6-.41,4.34,4.34,0,0,0,.43-.68,1.61,1.61,0,0,0,0-1.44,2.38,2.38,0,0,0-.45-.65,1.9,1.9,0,0,0-.58-.44,1.77,1.77,0,0,0-.73-.13,1.73,1.73,0,0,0-.71.13,1.9,1.9,0,0,0-.58.44,2.8,2.8,0,0,0-.46.64,1.42,1.42,0,0,0-.19.73Z"/><path class="b" d="M78.35,44.34h2V40.19a1.18,1.18,0,0,1,.13-.56,1.77,1.77,0,0,1,.3-.45,1.91,1.91,0,0,1,.48-.35,1.76,1.76,0,0,1,.7-.16v5.67h2v1.51H78.35ZM79,48a1.06,1.06,0,0,1,.29-.76A1,1,0,0,1,80,47a.92.92,0,0,1,.69.3A1.05,1.05,0,0,1,81,48a1,1,0,0,1-.28.7A.94.94,0,0,1,80,49a1,1,0,0,1-.74-.29A1,1,0,0,1,79,48Zm2.28,0a1.06,1.06,0,0,1,.29-.76.92.92,0,0,1,.69-.3,1,1,0,0,1,.73.3,1,1,0,0,1,.3.76,1,1,0,0,1-.3.7,1,1,0,0,1-.73.29.94.94,0,0,1-.69-.29A1,1,0,0,1,81.23,48Z"/><path class="b" d="M83.65,45.85V44.34h1.6a3.84,3.84,0,0,1-.49-1,3.44,3.44,0,0,1-.13-1A3.49,3.49,0,0,1,84.89,41a4.13,4.13,0,0,1,.73-1.13,4.35,4.35,0,0,1,1.17-.72,3.57,3.57,0,0,1,1.35-.26,3.43,3.43,0,0,1,1.33.26,4.3,4.3,0,0,1,1.16.72A4.06,4.06,0,0,1,91.37,41a3.22,3.22,0,0,1,.28,1.34v2h1v1.51ZM86,37a1,1,0,0,1,.29-.72A1.09,1.09,0,0,1,87,36a1,1,0,0,1,.7.26A1,1,0,0,1,88,37a1,1,0,0,1-.29.73A.94.94,0,0,1,87,38a1,1,0,0,1-.73-.29A1,1,0,0,1,86,37Zm4,7.39v-2a1.71,1.71,0,0,0-.17-.74,2.62,2.62,0,0,0-.45-.63,1.77,1.77,0,0,0-2.6,0,3,3,0,0,0-.46.63,1.61,1.61,0,0,0,0,1.46,2.52,2.52,0,0,0,.47.66v0a2.33,2.33,0,0,0,.61.46,1.58,1.58,0,0,0,.69.15ZM88.29,37a1,1,0,0,1,.29-.72,1,1,0,0,1,.69-.26,1.11,1.11,0,0,1,.74.26.91.91,0,0,1,.29.72,1,1,0,0,1-.29.73,1,1,0,0,1-.74.29.91.91,0,0,1-.69-.29A1,1,0,0,1,88.29,37Z"/><path class="b" d="M92.22,44.34h2.12v-6.4a1.55,1.55,0,0,1,.44-1.12v0a1.16,1.16,0,0,1,.41-.29,2.18,2.18,0,0,1,.72-.14v9.44H92.22Z"/><path class="b" d="M99.61,45.85a2.81,2.81,0,0,1-.73-.13,1.13,1.13,0,0,1-.48-.28,1.77,1.77,0,0,1-.31-.46,1.44,1.44,0,0,1-.12-.61v-8a3.36,3.36,0,0,1,.73.12,1.24,1.24,0,0,1,.48.28,1.51,1.51,0,0,1,.43,1.13Z"/><path class="b" d="M115.11,40.39h-3.85v3.92h-1.2V40.39h-3.91V39.24h3.91v-4h1.2v4h3.85Z"/></svg>