<svg xmlns="http://www.w3.org/2000/svg" viewBox="0 0 109.04 109"><defs><style>.a{fill:#fff;}</style></defs><path class="a" d="M42.23,12.3q20.49,0,41,0c.92,0,1.17-.2,1.27-1.17a12.29,12.29,0,1,1,15,13.08c-.8.19-1,.47-1,1.28q0,16.25,0,32.5a1.79,1.79,0,0,0,.68,1.49C107.64,67.26,110.93,76.84,108,88s-10.46,18-21.72,20.43c-15.39,3.29-30.73-7.53-33.12-23.11,0-.22-.08-.43-.11-.65-.32-2-.31-2-2.35-2q-24.7,0-49.42,0c-1,0-1.27-.21-1.27-1.24Q0,47.46,0,13.52c0-1,.29-1.24,1.27-1.24Q21.75,12.33,42.23,12.3Zm52.63,44a.12.12,0,0,0,0-.07q0-15.58,0-31.19c0-.54-.24-.64-.7-.73a10.71,10.71,0,0,1-4.13-1.7c-.58-.41-.92-.38-1.44.15q-4.62,4.71-9.32,9.32a1.48,1.48,0,0,0-.47,1.7,4.85,4.85,0,0,1-1.81,5.47,5,5,0,0,1-5.66.53c-1.89-1-3.29-3.07-2.74-5.05S68.36,32,67.22,31a10.7,10.7,0,0,1-1-1,1.07,1.07,0,0,0-1.41-.38,3.93,3.93,0,0,1-3,0,1.13,1.13,0,0,0-1.41.38q-3.75,3.8-7.54,7.53A1.21,1.21,0,0,0,52.5,39a5.19,5.19,0,0,1-2.4,6,5.28,5.28,0,0,1-7.16-7.26,5.17,5.17,0,0,1,6-2.35A1.29,1.29,0,0,0,50.42,35c2.44-2.49,4.89-5,7.38-7.38a1.45,1.45,0,0,0,.45-1.7,4.87,4.87,0,0,1,1.82-5.47A5,5,0,0,1,65.74,20C67.62,20.91,69,23,68.47,25s.36,2.74,1.46,3.75a11.91,11.91,0,0,1,1,1,1.09,1.09,0,0,0,1.42.38,3.83,3.83,0,0,1,2.9,0,1.28,1.28,0,0,0,1.6-.44c3.06-3.1,6.13-6.19,9.25-9.23.62-.61.69-1,.16-1.7a6,6,0,0,1-1-1.95c-.24-.84-.7-1-1.5-1q-39.54,0-79.08,0c-1,0-1.18.29-1.18,1.22q0,30.42,0,60.85c0,1,.24,1.26,1.25,1.25q22.85,0,45.69,0c2.24,0,2.24,0,2.58-2.14a3,3,0,0,1,.07-.32c.21-.75.09-1.17-.85-1.07-.76.08-1.54,0-2.3,0-.6,0-.73-.2-.73-.76q0-9.78,0-19.55c0-.62.17-.81.8-.81,3,0,6,0,9,0,.67,0,.77.26.76.84,0,1.94,0,3.88,0,5.82,0,.3-.15.65.09.86C70.25,52,81.88,50,94.86,56.33Zm-14,49.1c.44,0,.88,0,1.32,0s1.17-.1,1.75-.17a24.5,24.5,0,0,0,16.81-9.93c.44-.58.3-.82-.28-1.14-1.57-.85-3.13-1.75-4.65-2.69-.58-.36-.86-.25-1.23.27a15.13,15.13,0,0,1-2.35,2.45,17.45,17.45,0,0,1-25-2.39c-.47-.57-.77-.66-1.41-.26q-2.13,1.34-4.37,2.52c-.77.4-.86.72-.31,1.44A24.56,24.56,0,0,0,80.88,105.43Zm-1.8-45.58h0c0-.88,0-1.76,0-2.63,0-.66-.11-.9-.84-.81a25.51,25.51,0,0,0-3.88.73A24.54,24.54,0,0,0,58.3,90.59c.33.74.58,1,1.38.49,1.38-.9,2.82-1.71,4.27-2.47.71-.38.85-.69.54-1.49a17.58,17.58,0,0,1,11.58-23.2c1-.28,2.46,0,2.91-.83S79.08,61,79.08,59.85Zm3.55-.09c0,.91,0,1.83,0,2.74,0,.63.14.88.81,1A17.49,17.49,0,0,1,97.2,87.24c-.23.62-.21.93.42,1.27,1.42.75,2.78,1.61,4.19,2.39s1.11,1,1.7-.54c3.54-9,2.42-17.32-3.5-24.88a23.61,23.61,0,0,0-16.46-9.06c-.7-.08-1,0-.93.82S82.63,58.92,82.63,59.76Zm12.3,21A14.06,14.06,0,1,0,81,94.91,14.09,14.09,0,0,0,94.93,80.8Zm10.54-68.45a8.78,8.78,0,1,0-8.86,8.74A8.8,8.8,0,0,0,105.47,12.35ZM52.75,65.07c0,2.05,0,4.1,0,6.14,0,.3-.23.82.38.83s.92.18,1.25-.51c1.36-2.87,2.33-5.79,1.89-9a14.42,14.42,0,0,1,0-1.86c0-2.7,0-2.67-2.66-2.66-.79,0-.88.31-.87,1C52.77,61,52.75,63,52.75,65.07ZM63.31,26.36a1.75,1.75,0,1,0-1.76-1.74A1.77,1.77,0,0,0,63.31,26.36Zm12.28,8.75a1.75,1.75,0,1,0-1.71,1.79A1.77,1.77,0,0,0,75.59,35.11ZM49.23,40.42a1.75,1.75,0,1,0-1.75,1.75A1.76,1.76,0,0,0,49.23,40.42Z"/><path class="a" d="M35.18,61.46c0-4.35,0-8.71,0-13.06,0-.78.22-1,1-1q4.34.06,8.67,0c.7,0,.93.16.93.9q0,13.17,0,26.35c0,.73-.22.91-.93.9q-4.28-.06-8.56,0c-.83,0-1.11-.17-1.1-1.06C35.2,70.17,35.18,65.82,35.18,61.46Zm7,.11V53.45c0-2.5,0-2.45-2.5-2.51-.94,0-1,.35-1,1.13,0,5.82,0,11.64,0,17.45,0,2.57,0,2.54,2.55,2.56.75,0,1-.17,1-1C42.18,67.94,42.21,64.76,42.21,61.57Z"/><path class="a" d="M7.06,66.73c0-2.59,0-5.19,0-7.79,0-.65.08-1,.87-1,3,.05,5.93,0,8.89,0,.6,0,.82.14.81.79q0,8,0,16c0,.64-.2.79-.81.79-3,0-5.93,0-8.89,0-.79,0-.87-.31-.87-1C7.07,72,7.06,69.37,7.06,66.73Zm3.51,0v2.74c0,2.7,0,2.67,2.66,2.66.79,0,.88-.31.87-1,0-2.34,0-4.68,0-7,0-2.67,0-2.66-2.72-2.6-.6,0-.83.15-.81.79C10.6,63.75,10.57,65.21,10.57,66.68Z"/><path class="a" d="M31.66,68.6c0,2.05,0,4.1,0,6.14,0,.7-.22.86-.87.85q-4.45,0-8.89,0c-.61,0-.82-.15-.82-.79q0-6.26,0-12.51c0-.64.21-.79.82-.79,3,0,5.92,0,8.88,0,.79,0,.88.3.87,1C31.64,64.5,31.66,66.55,31.66,68.6Zm-7-.16v1c0,2.75,0,2.74,2.78,2.64.56,0,.76-.15.75-.73,0-1.87,0-3.73,0-5.59,0-.6-.21-.72-.76-.73-2.77-.09-2.77-.11-2.77,2.65Z"/><path class="a" d="M26.33,22.85c-3.77,0-7.54,0-11.3,0-.79,0-1-.23-1-1,0-2.55,0-2.55,2.55-2.55,7,0,14,0,21,0,.93,0,1.15.25,1.12,1.15-.05,2.39,0,2.39-2.39,2.39Z"/><path class="a" d="M26.4,26.36c3.73,0,7.46,0,11.2,0,.8,0,1.14.12,1.12,1-.06,2.49,0,2.49-2.52,2.49-7,0-14,0-21,0-.86,0-1.21-.13-1.18-1.11.07-2.42,0-2.43,2.46-2.43Z"/><path class="a" d="M26.35,33.39c3.76,0,7.53,0,11.3,0,.76,0,1.08.11,1.07,1,0,2.54,0,2.54-2.58,2.54-6.95,0-13.9,0-20.85,0-.89,0-1.27-.12-1.23-1.16.08-2.37,0-2.38,2.41-2.38Z"/><path class="a" d="M26.43,40.42c3.77,0,7.53,0,11.3,0,.76,0,1,.18,1,1,0,2.57,0,2.57-2.54,2.57-7,0-14,0-21.07,0-.81,0-1-.19-1-1,0-2.51,0-2.52,2.49-2.52Z"/><path class="a" d="M10.57,21.07c0,1.78,0,1.78-2.09,1.78-1.43,0-1.43,0-1.42-2.12,0-1.4,0-1.4,2.25-1.4C10.57,19.34,10.57,19.34,10.57,21.07Z"/><path class="a" d="M8.9,26.36c1.67,0,1.67,0,1.67,1.66,0,1.86,0,1.86-1.9,1.86a4.85,4.85,0,0,0-.66,0c-.76.12-1.08-.17-1-.95a4.81,4.81,0,0,0,0-.76C7.06,26.36,7.06,26.36,8.9,26.36Z"/><path class="a" d="M7.06,35.06c0-1.67,0-1.67,1.65-1.67,1.86,0,1.86,0,1.86,1.91a3.53,3.53,0,0,0,0,.65c.11.76-.17,1.09-.95,1a4.93,4.93,0,0,0-.77,0C7.06,36.91,7.06,36.91,7.06,35.06Z"/><path class="a" d="M8.88,40.42c1.69,0,1.69,0,1.69,1.75s0,1.77-1.77,1.77-1.74,0-1.74-1.69S7.06,40.42,8.88,40.42Z"/><path class="a" d="M91.41,80.92A10.54,10.54,0,1,1,80.94,70.31,10.57,10.57,0,0,1,91.41,80.92Zm-3.51-.06a7,7,0,1,0-7.07,7A7,7,0,0,0,87.9,80.86Z"/></svg>