<svg xmlns="http://www.w3.org/2000/svg" viewBox="0 0 108.83 100.5"><defs><style>.a{fill:#fff;}</style></defs><path class="a" d="M0,82.54c.18-.74.32-1.5.53-2.24A15.8,15.8,0,0,1,11.78,68.91c.83-.24.91-.67.91-1.36q0-16.63,0-33.27a10.78,10.78,0,0,1,0-1.27,1.42,1.42,0,0,1,1.42-1.33,1.44,1.44,0,0,1,1.64,1.19,5.28,5.28,0,0,1,.09,1.26q0,11.53,0,23.06v1.16c.45,0,.5-.32.65-.52A19.89,19.89,0,0,1,23,52.06a1.52,1.52,0,0,0,.88-1.58q0-18.75,0-37.51c0-1.8.28-2.15,2.11-2.56-2-2.07-3.86-4.1-5.76-6.15-.28-.3-.46-.19-.69,0-1.88,2-3.76,4-5.68,6.06,1.86.53,2.07.81,2.07,2.69q0,6.48,0,13a5,5,0,0,1-.08,1.16,1.45,1.45,0,0,1-1.62,1.22A1.42,1.42,0,0,1,12.71,27c-.05-.64,0-1.28,0-1.91,0-3.44,0-6.88,0-10.31,0-.86-.26-1.16-1.09-1-.38,0-.78,0-1.17,0a1.69,1.69,0,0,1-1.34-3c1.13-1.18,2.23-2.37,3.35-3.56Q15.36,4.05,18.28,1c1.18-1.25,1.94-1.27,3.1,0,3.07,3.25,6.11,6.51,9.19,9.75a1.83,1.83,0,0,1,.62,2.17c-.39.87-1.15.92-2,.92C27,13.74,27,13.75,27,16V49c0,1.19,0,1.18,1.2.88a19.23,19.23,0,0,1,6.32-.55c.71.06,1-.06,1-.86q0-10,0-20.08c0-.77-.23-1-1-.93s-1.21,0-1.81,0a1.45,1.45,0,0,1-1.39-1,1.43,1.43,0,0,1,.25-1.67c3.32-3.54,6.63-7.08,10-10.6a1.5,1.5,0,0,1,2.27,0c3.32,3.49,6.61,7,9.91,10.52a1.47,1.47,0,0,1,.3,1.67,1.49,1.49,0,0,1-1.48,1h-.32c-2.36,0-2.36,0-2.36,2.37v5.64a26.82,26.82,0,0,1,6.37-2.37c2.11-.45,2.11-.47,2.11-2.6,0-4.43,0-8.86,0-13.28,0-.77-.16-1.13-1-1-.49.06-1,0-1.49,0a1.58,1.58,0,0,1-1.71-1,1.64,1.64,0,0,1,.45-1.92q3.77-4,7.51-8c.68-.72,1.34-1.46,2-2.17a1.66,1.66,0,0,1,2.67,0C70.1,6.58,73.29,10,76.5,13.4a1.62,1.62,0,0,1,.4,1.93,1.64,1.64,0,0,1-1.65.93c-.8,0-1.83-.37-2.34.18s-.16,1.56-.16,2.36c0,5.32,0,10.63,0,15.94,0,.51,0,.94.54,1.26A23,23,0,0,1,81,43.61c.34-.08.21-.34.21-.52,0-3.4,0-6.8,0-10.2,0-.69-.18-1-.89-.9-.45.05-.92,0-1.38,0a1.67,1.67,0,0,1-1.9-1,1.72,1.72,0,0,1,.57-2c1.79-1.87,3.55-3.76,5.32-5.65,1.34-1.42,2.66-2.84,4-4.25,1.07-1.12,1.89-1.11,3,0,3.14,3.33,6.25,6.67,9.39,10A1.64,1.64,0,0,1,98.06,32c-2.43,0-2.43,0-2.43,2.51,0,3.08,0,6.17,0,9.25,0,1.31-.92,2.1-2,1.78-.94-.28-1.17-1-1.16-1.91,0-4.11,0-8.22,0-12.32,0-1.94.15-2.13,2-2.67-1.92-2-3.81-4-5.69-6.06-.32-.33-.52-.21-.77.06l-5.69,6c.73.19,1.42.22,1.82.85a3.23,3.23,0,0,1,.26,1.86c0,6.76,0,13.53,0,20.3,0,.87.22,1.13,1.1,1.13a19.82,19.82,0,0,1,6.07.92c.77.23.92,0,.88-.71,0-.88,0-1.77,0-2.65A1.53,1.53,0,0,1,94,48.71a1.56,1.56,0,0,1,1.65,1.68c0,1.35,0,2.69,0,4a1.28,1.28,0,0,0,.77,1.32,23.42,23.42,0,0,1,11.85,15.69,23.81,23.81,0,0,1-20,28.78,75.42,75.42,0,0,1-9,.22c-2.23,0-4.46,0-6.69,0-1.76,0-2.51-.47-2.52-1.57s.79-1.63,2.48-1.63c4.15,0,8.29,0,12.44,0A20.63,20.63,0,1,0,84.35,56l-.85.05c-1.76,0-2.19-.37-2.31-2.13-.66-9-8.35-16.85-17.25-18A20.09,20.09,0,0,0,41.6,52.06c-.28,1.54-1.1,1.9-2.78,1.35A17.43,17.43,0,0,0,16.25,66a19.94,19.94,0,0,0-.44,3.36c-.11,1.78-.36,2-2.06,2.37C8.49,72.82,5,76,3.64,81.16A12.79,12.79,0,0,0,16.17,97.24c10.23,0,20.47,0,30.71,0H64.41a4.48,4.48,0,0,1,1.16.09A1.45,1.45,0,0,1,66.77,99a1.43,1.43,0,0,1-1.41,1.44,11.43,11.43,0,0,1-1.17,0c-15.73,0-31.46-.13-47.18,0-9.65.11-16.08-6.94-16.85-14A1.88,1.88,0,0,0,0,86.16ZM59.45,13c1.79.3,2.14.73,2.14,2.43,0,5.39,0,10.77,0,16.15,0,.76.1,1.11,1,1.13a17.53,17.53,0,0,1,4.6.73l2.37.66V32.77c0-5.77,0-11.54,0-17.32,0-1.77.31-2.15,2.11-2.53-2-2.07-3.87-4.1-5.76-6.14-.36-.38-.53-.13-.75.11ZM38.7,49.58c.14-.14.2-.18.23-.24a1.51,1.51,0,0,0,.13-.29,22.72,22.72,0,0,1,7.18-10.93,1.47,1.47,0,0,0,.49-1.31q0-4.87,0-9.77a3.52,3.52,0,0,1,.24-2c.4-.66,1.09-.74,1.88-.84l-5.71-6.08c-.23-.25-.43-.46-.77-.1-1.89,2-3.81,4.07-5.76,6.14,1.79.34,2.09.7,2.09,2.41v23Z"/><path class="a" d="M84.44,75.59A10.55,10.55,0,1,1,73.92,65.05,10.56,10.56,0,0,1,84.44,75.59Zm-3.2,0a7.35,7.35,0,0,0-14.69,0,7.35,7.35,0,1,0,14.69,0Z"/><path class="a" d="M41,65.05a9.82,9.82,0,0,1,5.65,1.89,1.69,1.69,0,0,1,.66,2.45,1.63,1.63,0,0,1-2.44.2,6.74,6.74,0,0,0-4.59-1.31,3.3,3.3,0,0,0-2,.86,1.89,1.89,0,0,0,.59,3.26c1.49.64,3,1.24,4.51,1.84a10.07,10.07,0,0,1,2.51,1.38,5.44,5.44,0,0,1,0,8.91c-3.89,3.11-9.75,1.24-12.17-1.7a1.44,1.44,0,0,1,.18-2.1,1.53,1.53,0,0,1,2.28.12,7.11,7.11,0,0,0,4.22,2,4.34,4.34,0,0,0,3.74-1.07,2.22,2.22,0,0,0-.11-3.59,6.37,6.37,0,0,0-1.84-1c-1.51-.6-3-1.24-4.53-1.82a4.76,4.76,0,0,1-3.23-4.11,5.14,5.14,0,0,1,2.17-4.91A7,7,0,0,1,41,65.05Z"/><path class="a" d="M51.11,75.55c0-2.76,0-5.52,0-8.29,0-1.65.51-2.15,2.16-2.15,2.2,0,4.39,0,6.59,0,1.21,0,2,.67,1.92,1.65S61,68.29,59.86,68.3c-1.59,0-3.18,0-4.78,0-.6,0-.8.19-.78.79q0,2.07,0,4.14c0,.6.21.81.81.79,1.41,0,2.83,0,4.25,0,1.17,0,1.86.6,1.85,1.57s-.68,1.58-1.85,1.61c-1.38,0-2.76,0-4.14,0-.66,0-1,.15-.93.87.05,1.31.05,2.63,0,3.94,0,.73.29.89.94.87,1.53,0,3.05,0,4.57,0,1.24,0,2,.63,2,1.59s-.74,1.6-2,1.61c-2.23,0-4.47,0-6.7,0-1.46,0-2-.55-2-2C51.09,81.22,51.11,78.38,51.11,75.55Z"/></svg>