<svg xmlns="http://www.w3.org/2000/svg" viewBox="0 0 102.87 102.85"><defs><style>.a{fill:#d9804f;}</style></defs><path class="a" d="M102.87,19.09V30.74a3.86,3.86,0,0,1-4.33,2.44c-.53-.06-1.07,0-1.6,0s-.74.12-.71.67,0,1.33,0,2a3.86,3.86,0,0,1-2.5,3.67,3.8,3.8,0,0,1-4.27-.81,9.44,9.44,0,0,1-1-1.28c-.27.31-.31.38-.3.43a37.8,37.8,0,0,1,1.17,14c-.07.68.23.6.7.44C92.4,51.5,94.7,50.71,97,50a4.44,4.44,0,0,1,5.59,2.79c.09.22.17.43.25.65V69.51c-1.83,3.5-3.37,4.1-7.22,2.82-1.78-.59-3.55-1.17-5.32-1.79-.56-.19-.74-.1-.73.54,0,1.74,0,3.48,0,5.21a3.25,3.25,0,0,1-3.21,3.31c-1,0-2,0-3,0-2.44,0-3.71-1.28-3.74-3.71,0-.6,0-1.21,0-2.08a38.66,38.66,0,0,1-8.37,6.86c-.94.55-1.82,1-1.93,2.3a2.56,2.56,0,0,1-.58,1.15.72.72,0,0,0,0,1,4.82,4.82,0,0,1-2.11,7.36c-.45.22-.56.39-.46.89a4.9,4.9,0,0,1-4.89,6.17c-1.37,0-2.74,0-4.11,0-.36,0-.73-.06-.81.49a3.64,3.64,0,0,1-2.52,2.84H49c-1.06-.47-2.11-1.06-2.35-2.27-.18-1-.68-1-1.45-1q-22.05,0-44.09,0C.21,99.62,0,99.35,0,98.45q0-12.15,0-24.3C0,73.29.19,73,1.1,73c6.7,0,13.39,0,20.09,0a1.81,1.81,0,0,0,1.17-.16c-.64-.85-1.28-1.62-1.82-2.46a1.45,1.45,0,0,0-1.4-.7q-7.69,0-15.37,0A3.37,3.37,0,0,1,0,66q0-6.22,0-12.45c0-2.43,1.28-3.71,3.71-3.72,2.92,0,5.83,0,8.74,0,.63,0,.88-.13.85-.84a33.3,33.3,0,0,1,.73-8.27c.14-.64.06-.88-.7-1A14.84,14.84,0,0,1,.13,26.56C-1,18.67,5.38,10.68,13.33,10.06a14.64,14.64,0,0,1,14.43,7.21c.33.53.52.61,1,.22a35.13,35.13,0,0,1,7.07-4.17c.26-.12.69-.17.65-.53-.09-.82.51-.89,1-1.07s1-.3,1.53-.49a1.63,1.63,0,0,0,1-2.4c-.34-.86-1.28-1.67-1-2.52S40.36,5,41,4.28l.22-.21C42.9,2.4,42.9,2.4,45.06,3.44l.36.18a1.58,1.58,0,0,0,2.27-1,19,19,0,0,0,.7-2.09A.68.68,0,0,1,49.17,0c1.5,0,3,0,4.52,0a.72.72,0,0,1,.84.63,17,17,0,0,0,.71,2.08,1.53,1.53,0,0,0,2.2.91c.67-.28,1.33-.62,2-1a.72.72,0,0,1,1,.17,31,31,0,0,0,2.64,2.61c.83.69.83,1.27.35,2.2-1.43,2.69-1.22,3.07,1.67,4,.59.19,1.41.17,1.29,1.18,0,.22.25.3.42.38a37.1,37.1,0,0,1,6.87,3.93.58.58,0,0,0,.8,0A3.88,3.88,0,0,1,77,16.61c7.19,0,14.39.05,21.59,0C100.61,16.56,102.07,17.16,102.87,19.09ZM78.7,69.78c-.24,0-.33-.08-.43-.09-3.41-.2-5.25-2.13-5.27-5.53V58.64c0-3.52,2-5.56,5.54-5.57,2.21,0,4.41,0,6.62,0,.51,0,.78-.1.85-.69A34.8,34.8,0,0,0,83.2,33.78a.89.89,0,0,0-1-.62c-1.81,0-3.62,0-5.43,0-2.49,0-3.78-1.28-3.79-3.75,0-2.31-.09-4.63,0-6.93a2.74,2.74,0,0,0-1.41-2.78,37.41,37.41,0,0,0-5.19-3c-.12,1.1-.12,1.1-1.12,1.43l-1,.35c-1.71.57-2,1.34-1.26,2.94a12.88,12.88,0,0,0,.67,1.34c.34.53.21.88-.23,1.28-1,.92-1.92,1.87-2.83,2.84-.43.46-.79.61-1.36.25a11.58,11.58,0,0,0-1.8-.89,1.44,1.44,0,0,0-2,.56,2.07,2.07,0,0,0,1,.32,21.53,21.53,0,0,1,6.35,39.29c-.63.39-1.17.65-.33,1.38a1.39,1.39,0,0,1,.43.88c.07,1,.61,1.06,1.41,1a5,5,0,0,1,4.46,7.84c-.12.18-.36.36-.15.61s.43,0,.61-.09A34.91,34.91,0,0,0,78.7,69.78ZM17.48,96.25c4.38,0,8.77,0,13.15,0,.75,0,.95-.19.95-.94q0-9,0-18c0-.85-.23-1-1.06-1q-13,.06-26.11,0c-.81,0-1.08.18-1.07,1q0,8.94,0,17.88c0,.87.28,1,1.08,1C8.77,96.23,13.12,96.25,17.48,96.25Zm30-69.42a1.58,1.58,0,0,0-2.11-.55q-1,.43-1.89.93a.73.73,0,0,1-1-.14c-1-1.06-2.06-2.1-3.12-3.13a.74.74,0,0,1-.17-1,20,20,0,0,0,.89-1.8,1.6,1.6,0,0,0-1-2.45c-.62-.23-1.27-.42-1.9-.64-.32-.1-.65-.19-.6-.65.08-.66-.22-.62-.69-.38a37.52,37.52,0,0,0-6,3.82.91.91,0,0,0-.31,1.05,13,13,0,0,1,.31,3.88A14.85,14.85,0,0,1,18.35,39.39a.91.91,0,0,0-.8.75A34.77,34.77,0,0,0,16.66,49c0,.6.2.81.82.8,1.87,0,3.74,0,5.62,0a3.25,3.25,0,0,1,3.46,3.46c0,4.28,0,8.57,0,12.85a3.27,3.27,0,0,1-1.94,3.23c-.46.22-.5.34-.19.76,1.4,2,3,3.51,5.69,2.9a1.4,1.4,0,0,1,.5,0,2.16,2.16,0,0,0,2.52-1.26,5.58,5.58,0,0,1,1.1-1.29,13.89,13.89,0,0,1,6.3-3.66c-8-5.41-11.93-12.82-10.27-22.35S38.11,29.24,47.5,26.83Zm4,39.51A18.23,18.23,0,1,0,33.2,48.09,18.27,18.27,0,0,0,51.45,66.34Zm-5,13.11-.72.5C44,81.25,44,81.25,43,79.34a5.44,5.44,0,0,0-.27-.54c-.32-.44-.26-.71.25-1a9,9,0,0,0,3.74-4.08A1.14,1.14,0,0,1,48,73q4.22,0,8.43,0a3.27,3.27,0,0,0,3.2-2.27c.23-.69.18-1-.7-1-5.06,0-10.11,0-15.16,0a10,10,0,0,0-8.38,4.55,2.71,2.71,0,0,0-.5,1.68c0,3.15,0,6.29,0,9.44v10c0,.46,0,.85.64.85,3.45,0,6.89,0,10.34,0,.48,0,.63-.16.63-.63C46.46,90.3,46.46,85,46.46,79.45ZM3.37,24.89A11.6,11.6,0,1,0,15,13.28,11.64,11.64,0,0,0,3.37,24.89Zm84.56-5c-3.58,0-7.16,0-10.73,0-.62,0-.88.12-.87.81,0,2.78,0,5.55,0,8.33,0,.74.26.88.93.87,2.4,0,4.81,0,7.22,0A1.88,1.88,0,0,1,86,30.5c1.8,1.84,3.63,3.65,5.45,5.47.29.29.57.59,1,.42s.45-.61.45-1c0-1.54,0-3.08,0-4.62,0-.71.24-.9.92-.89,1.61.05,3.21,0,4.82,0,.67,0,.94-.16.93-.89,0-2.74,0-5.48,0-8.23,0-.7-.21-.9-.91-.89C95.09,19.92,91.51,19.9,87.93,19.9Zm-28-12.76c-.23-.51-.48-.76-1.14-.49A4.83,4.83,0,0,1,52.16,4c-.16-.36-.26-.67-.75-.65s-.51.33-.65.64a4.86,4.86,0,0,1-6.63,2.69c-.3-.11-.57-.29-.89,0s-.18.57-.05.9c1.11,2.92.08,5.37-2.8,6.66-.32.15-.57.25-.57.69s.32.53.61.66a4.86,4.86,0,0,1,2.78,6.59c-.12.3-.32.57,0,.91s.63.2,1,.06a4.87,4.87,0,0,1,6.55,2.69c.14.32.18.68.71.68s.57-.34.71-.67a4.89,4.89,0,0,1,6.46-2.75c.36.14.69.4,1.08,0s.08-.68,0-1a4.88,4.88,0,0,1,2.71-6.47c.31-.13.71-.15.72-.68s-.4-.6-.76-.76a4.89,4.89,0,0,1-2.65-6.49C59.75,7.53,59.83,7.35,59.92,7.14ZM99.55,61.37c0-2.18,0-4.35,0-6.53,0-1.56-.61-2-2.06-1.53-2.38.79-4.75,1.6-7.14,2.36a.92.92,0,0,0-.75,1.06q0,4.67,0,9.33a.92.92,0,0,0,.79,1c2.38.77,4.75,1.59,7.12,2.37,1.39.46,2,0,2-1.47C99.57,65.78,99.55,63.57,99.55,61.37Zm-13.27,0c0-1.41,0-2.81,0-4.22,0-.55-.14-.76-.73-.76-2.47,0-5,0-7.43,0a1.57,1.57,0,0,0-1.76,1.73q0,3.21,0,6.43a1.58,1.58,0,0,0,1.75,1.74c2.47,0,5,0,7.43,0,.57,0,.76-.18.74-.74C86.25,64.2,86.27,62.79,86.28,61.39ZM49.81,87.89v9.43c0,2.21,0,2.16,2.18,2.23,1,0,1.13-.33,1.12-1.19,0-6.55,0-13.1,0-19.65,0-2.45,0-2.42-2.48-2.41-.69,0-.82.24-.82.87C49.83,80.74,49.81,84.32,49.81,87.89ZM5.74,53.12c2,2,3.82,3.84,5.66,5.66,1.28,1.27,2.55,1.25,3.85,0q2.54-2.51,5-5c.15-.15.41-.26.33-.6ZM20.87,66.29l-4-4a.5.5,0,0,0-.7-.09,5.49,5.49,0,0,1-5.8,0,.43.43,0,0,0-.61.08L5.84,66.07l.16.22ZM60.84,83h0c1.17,0,2.35,0,3.52,0s2-.6,2-1.63-.69-1.69-2-1.7c-1.8,0-3.61,0-5.42,0-2.6,0-2.58,0-2.48,2.64,0,.52.17.69.7.68C58.37,83,59.6,83,60.84,83Zm-.05,6.64v0c1.17,0,2.34,0,3.5,0,1.34,0,2-.58,2.06-1.64s-.72-1.69-2-1.69c-1.83,0-3.67,0-5.5,0-2.43,0-2.41,0-2.39,2.5,0,.68.23.84.86.82C58.46,89.58,59.62,89.61,60.79,89.61ZM86.28,72.92v-.7c0-2.67,0-2.65-2.64-2.54-.54,0-.68.19-.67.7,0,1.16,0,2.33,0,3.5,0,2.6,0,2.58,2.62,2.45.53,0,.69-.2.68-.7C86.26,74.73,86.27,73.82,86.28,72.92ZM59.17,96.22h0c.73,0,1.47,0,2.2,0h.2a1.72,1.72,0,0,0,1.5-1.63A1.55,1.55,0,0,0,61.59,93c-1.53-.06-3.07,0-4.61,0-.47,0-.51.25-.54.63-.18,2.64-.19,2.64,2.43,2.64Zm-36-40.75c-1.42,1.42-2.67,2.69-3.94,4-.33.33-.09.52.13.73.68.69,1.35,1.39,2.05,2.05a8.11,8.11,0,0,0,1.76,1.58ZM57.8,76.32c2.27,0,4.54,0,6.81,0A1.66,1.66,0,1,0,64.7,73c-.7,0-1.41,0-2.11,0a.71.71,0,0,0-.67.35A7.61,7.61,0,0,1,57.8,76.32ZM3.42,64l3.87-3.9c.22-.21.32-.38.06-.65-1.27-1.26-2.52-2.52-3.93-4Z"/><path class="a" d="M36.55,48.06a14.91,14.91,0,1,1,14.88,15A14.93,14.93,0,0,1,36.55,48.06ZM51.43,36.53A11.59,11.59,0,1,0,63.08,48.11,11.61,11.61,0,0,0,51.43,36.53Z"/><path class="a" d="M23.17,24.89,10.09,32.74V17Zm-9.79-2v4l3.33-2Z"/><path class="a" d="M83,24.93c0,1.61,0,1.61-1.94,1.61-1.4,0-1.42,0-1.4-1.87,0-1.69-.27-1.4,2-1.42C83,23.23,83,23.25,83,24.93Z"/><path class="a" d="M87.93,26.54c-1.66,0-1.66,0-1.66-1.71a5.45,5.45,0,0,0,0-.7c-.09-.71.22-.9.9-.9,2.44,0,2.39,0,2.47,2.14,0,1-.25,1.34-1.21,1.17A2.78,2.78,0,0,0,87.93,26.54Z"/><path class="a" d="M94.57,26.54c-1.66,0-1.66,0-1.66-1.81,0-1.49,0-1.49,1.9-1.48,1.44,0,1.44,0,1.43,2.11C96.24,26.54,96.24,26.54,94.57,26.54Z"/><path class="a" d="M51.39,19.9a5,5,0,1,1,5-4.9A5,5,0,0,1,51.39,19.9Zm1.69-5a1.63,1.63,0,1,0-1.63,1.67A1.63,1.63,0,0,0,53.08,14.91Z"/></svg>