<svg xmlns="http://www.w3.org/2000/svg" viewBox="0 0 112.6 88.94"><defs><style>.a{fill:#d9804f;}</style></defs><path class="a" d="M0,10.61c.17-.67.32-1.34.52-2A12.2,12.2,0,0,1,18.89,2a2.57,2.57,0,0,1,1.27,2.36c0,5.17,0,10.34,0,15.51,0,.82.18,1.12,1.08,1.12q32,0,64.09,0c1,0,1.14-.31,1.13-1.18,0-4.51,0-9,0-13.53A5.91,5.91,0,0,1,92.65,0H97.6a5.92,5.92,0,0,1,6.19,6.24c0,4.54,0,9.09,0,13.63,0,.83.15,1.16,1.06,1.12,1.87-.08,3.74,0,5.61,0,1.56,0,2.14.58,2.14,2.11q0,31.89,0,63.77c0,1.58-.54,2.07-2.26,2.07H66c-1.61,0-2.37-.52-2.37-1.62s.81-1.68,2.37-1.68h41.45c1.83,0,1.83,0,1.83-1.85q0-29.13,0-58.27c0-1-.26-1.33-1.27-1.25a25.8,25.8,0,0,1-3.29,0c-.78-.05-1,.23-1,1,0,3.41,0,6.81,0,10.22a4.66,4.66,0,0,1,0,1,1.63,1.63,0,0,1-3.24-.07,6.39,6.39,0,0,1,0-1c0-6.34,0-12.68,0-19,0-.8-.17-1.08-1-1.07-2.93.06-5.87,0-8.8,0-.73,0-1,.16-1,1q0,23.7,0,47.39c0,.62.1.92.83.91q4.56-.06,9.12,0c.81,0,.86-.37.86-1,0-6.34,0-12.68,0-19a8.16,8.16,0,0,1,0-1,1.58,1.58,0,0,1,1.58-1.53,1.62,1.62,0,0,1,1.69,1.53,6.47,6.47,0,0,1,0,.88c0,7,0,14,0,21a4.37,4.37,0,0,1-.5,2.1q-3.25,6.36-6.47,12.73c-.38.75-.79,1.42-1.76,1.41s-1.37-.69-1.74-1.43c-2.14-4.22-4.27-8.43-6.43-12.63a4.65,4.65,0,0,1-.51-2.2q0-20,0-39.91c0-1-.22-1.29-1.25-1.29q-31.89,0-63.77,0c-1,0-1.31.25-1.29,1.27.06,3.45,0,6.89,0,10.34a6,6,0,0,1-.07,1.2,1.47,1.47,0,0,1-1.62,1.32A1.48,1.48,0,0,1,16.89,37a9.56,9.56,0,0,1,0-1.2c0-10,0-19.94,0-29.91A1.77,1.77,0,0,0,15.56,4,8.86,8.86,0,0,0,3.31,12.22c0,13.89,0,27.78,0,41.67V68.18c.41.09.55-.24.75-.41a11.9,11.9,0,0,1,11.79-2.51c.91.26,1,.09,1-.76,0-6.42,0-12.83,0-19.24a8.28,8.28,0,0,1,.06-1.32,1.47,1.47,0,0,1,1.53-1.3,1.48,1.48,0,0,1,1.61,1.22A4.91,4.91,0,0,1,20.14,45c0,7.58,0,15.17,0,22.75,0,.83,0,1.65-.84,2.12s-1.59.05-2.33-.43A8.85,8.85,0,0,0,3.72,79.5a8.63,8.63,0,0,0,8.14,6.11c6.49.09,13,0,19.46,0H56.94a5.08,5.08,0,0,1,1.3.1,1.49,1.49,0,0,1,1.17,1.74A1.47,1.47,0,0,1,58,88.92a8.18,8.18,0,0,1-1,0H12.8C6.07,88.94,1.54,85.23.15,78.63A1.34,1.34,0,0,0,0,78.34Zm95.09,1.44c1.53,0,3.07,0,4.6,0,.61,0,.84-.16.82-.8,0-1.72,0-3.44,0-5.16a2.62,2.62,0,0,0-2.74-2.78c-1.75,0-3.51,0-5.27,0a2.59,2.59,0,0,0-2.76,2.74c0,1.72,0,3.44,0,5.15,0,.71.25.87.89.86C92.09,12,93.59,12.05,95.09,12.05Zm0,64.42,4.06-8c.19-.37.22-.62-.32-.62q-3.74,0-7.47,0c-.49,0-.57.18-.35.6C92.35,71.06,93.67,73.67,95.1,76.47Z"/><path class="a" d="M52.35,81.77H26.42c-2.22,0-2.64-.42-2.64-2.62,0-2.93,0-5.86,0-8.79,0-1.75.55-2.29,2.32-2.29,3.37,0,6.74,0,10.11,0,.82,0,1.06-.22,1-1,0-2.6,0-5.2,0-7.8,0-1.64.57-2.2,2.17-2.21H51.82c1.61,0,2.15.56,2.17,2.2,0,2.39,0,2.39,2.41,2.39h8.79c1.75,0,2.26.53,2.27,2.31a26.74,26.74,0,0,1,0,3c-.1,1,.32,1.2,1.24,1.18,3.26,0,6.52,0,9.78,0,2,0,2.44.5,2.45,2.49q0,4.44,0,8.9c0,1.76-.53,2.3-2.29,2.3ZM50.7,69.39c0-2.71,0-5.42,0-8.14,0-.68-.16-1-.92-.94-2.78,0-5.57,0-8.35,0-.75,0-.93.25-.92.95q0,8.13,0,16.26c0,.71.19,1,.93,1,2.78,0,5.57,0,8.35,0,.75,0,.93-.26.92-1C50.68,74.81,50.7,72.1,50.7,69.39Zm13.46,2.34c0-2,0-4,0-5.93,0-.63-.13-.9-.84-.89q-4.23,0-8.46,0c-.64,0-.89.15-.89.85q0,5.92,0,11.85c0,.69.26.87.91.87q4.17,0,8.34,0c.7,0,1-.2.94-.93C64.13,75.61,64.16,73.67,64.16,71.73Zm-32,6.74c1.36,0,2.72,0,4.07,0,.79,0,1-.26,1-1,0-1.72,0-3.44,0-5.17,0-.69-.17-1-.91-1-2.79,0-5.57,0-8.36,0-.74,0-.93.25-.91,1,.05,1.73.07,3.45,0,5.17,0,.88.31,1,1.08,1C29.49,78.43,30.85,78.47,32.2,78.47Zm40.34-7.11c-1.43,0-2.86,0-4.28,0-.54,0-.81.11-.81.72,0,1.91,0,3.81,0,5.72,0,.55.25.67.73.67q4.35,0,8.68,0c.58,0,.76-.23.75-.79,0-1.83,0-3.66,0-5.49,0-.72-.27-.86-.9-.85C75.33,71.39,73.93,71.36,72.54,71.36Z"/><path class="a" d="M47.8,40.52c0,3,0,5.93,0,8.9,0,1.68-.5,2.18-2.15,2.19H27.73c-1.58,0-2.1-.53-2.1-2.13q0-9,0-17.92c0-1.6.51-2.12,2.1-2.13h18c1.52,0,2,.54,2,2.08C47.81,34.51,47.8,37.51,47.8,40.52ZM36.72,32.73c-2.3,0-4.61,0-6.92,0-.66,0-.89.19-.89.87q0,6.91,0,13.84c0,.66.2.9.87.89q6.93,0,13.85,0c.66,0,.89-.19.89-.87q0-6.91,0-13.84c0-.78-.32-.9-1-.89C41.27,32.74,39,32.73,36.72,32.73Z"/><path class="a" d="M96.75,40.08V56.45a5.62,5.62,0,0,1,0,1.09,1.64,1.64,0,0,1-3.24-.12,8.14,8.14,0,0,1,0-1V23.15c0-1.37.62-2.15,1.65-2.15s1.65.8,1.65,2.16Z"/><path class="a" d="M66.25,31H76.57a6.06,6.06,0,0,1,1.21.06A1.46,1.46,0,0,1,79,32.43a1.5,1.5,0,0,1-.93,1.69,2,2,0,0,1-.85.18q-11,0-22,0a1.65,1.65,0,1,1,0-3.28c3.66,0,7.32,0,11,0Z"/><path class="a" d="M66.42,38.88H76.63a5.34,5.34,0,0,1,1.2.07A1.48,1.48,0,0,1,79,40.57a1.44,1.44,0,0,1-1.2,1.5,5.35,5.35,0,0,1-1.2.08H55.88c-.26,0-.51,0-.77,0a1.64,1.64,0,0,1-1.66-1.67,1.63,1.63,0,0,1,1.66-1.57c1.39,0,2.78,0,4.17,0Z"/><path class="a" d="M61.6,50c-2.05,0-4.1,0-6.15,0-1.26,0-2-.67-2-1.67s.76-1.61,2-1.61q6.2,0,12.41,0c1.22,0,1.91.63,1.91,1.64S69.1,50,67.86,50C65.77,50,63.69,50,61.6,50Z"/><path class="a" d="M42.37,37.83a2,2,0,0,1-.62,1.32c-1.68,1.68-3.35,3.37-5,5a1.64,1.64,0,0,1-2.59,0c-.83-.78-1.63-1.59-2.41-2.41a1.61,1.61,0,0,1-.15-2.43,1.67,1.67,0,0,1,2.44.07c1.48,1.32,1.48,1.32,2.9-.1.88-.88,1.75-1.77,2.64-2.64a1.58,1.58,0,0,1,1.92-.33A1.62,1.62,0,0,1,42.37,37.83Z"/></svg>