<svg xmlns="http://www.w3.org/2000/svg" viewBox="0 0 34.38 34.38"><defs><style>.a{fill:#fff;}</style></defs><path class="a" d="M0,17.87V16.5a.58.58,0,0,0,0-.14c0-.4.06-.8.11-1.2a16.47,16.47,0,0,1,.51-2.59A17.2,17.2,0,0,1,16.37,0a.29.29,0,0,0,.16,0H17.9A.24.24,0,0,0,18,0a15.47,15.47,0,0,1,1.67.16,16.6,16.6,0,0,1,2.42.54,17.19,17.19,0,0,1,11.68,12,17.81,17.81,0,0,1,.5,2.7A12.89,12.89,0,0,1,34.38,17a16.62,16.62,0,0,1-.07,2,17.86,17.86,0,0,1-.51,2.72,17.2,17.2,0,0,1-16,12.7,17.29,17.29,0,0,1-6.95-1.22,17,17,0,0,1-6.72-4.83A16.91,16.91,0,0,1,.57,21.5a16.59,16.59,0,0,1-.52-3.29A1.33,1.33,0,0,0,0,17.87Zm19.25,5.2V17.24c0-.23,0-.2.2-.2h2.93c.13,0,.13,0,.14-.12,0-.53.08-1.05.11-1.57.06-.74.11-1.47.17-2.2,0-.24,0-.2-.18-.2H19.3c-.13,0-.14,0-.14-.12,0-.77,0-1.53,0-2.3a1.06,1.06,0,0,1,.77-1.06,1.92,1.92,0,0,1,.63-.09c.52,0,1,0,1.55,0h.58c.07,0,.1,0,.1-.1a.33.33,0,0,1,0-.1V5.4c0-.12,0-.12-.13-.13H19.25A9.31,9.31,0,0,0,18,5.35a5.34,5.34,0,0,0-1.56.44,3.57,3.57,0,0,0-1.93,2.08,5.05,5.05,0,0,0-.25,1.72c0,1.08,0,2.16,0,3.24,0,.14,0,.14-.14.14H11.74c-.13,0-.13,0-.13.13V17c0,.12,0,.12.12.13h2.36c.24,0,.21,0,.21.2V29c0,.13,0,.13.13.13H19c.26,0,.23,0,.23-.22Z"/></svg>