<svg xmlns="http://www.w3.org/2000/svg" viewBox="0 0 34.53 34.52"><defs><style>.a{fill:#fff;}</style></defs><path class="a" d="M17.26,0A17.26,17.26,0,1,1,0,18,17.22,17.22,0,0,1,17.26,0Zm9.88,17.72c0-1.5-.06-3-.12-4.48a6.13,6.13,0,0,0-.45-2.11,5,5,0,0,0-2.41-2.66,6.32,6.32,0,0,0-2.62-.67c-.93-.06-1.87-.08-2.81-.08-1.62,0-3.23,0-4.85,0A12.06,12.06,0,0,0,11.56,8a5.2,5.2,0,0,0-3.43,2.31,6.37,6.37,0,0,0-.9,3.06c-.05.84-.07,1.69-.06,2.54,0,2,0,3.9,0,5.84a7.32,7.32,0,0,0,.26,1.86,5.13,5.13,0,0,0,4.28,3.9,12.45,12.45,0,0,0,2.36.18q3.17,0,6.33,0a13.08,13.08,0,0,0,1.87-.14,5.17,5.17,0,0,0,4.49-3.94,12.08,12.08,0,0,0,.28-2.88C27.11,19.69,27.12,17.72,27.14,17.72Z"/><path class="a" d="M9.77,13.84a4.22,4.22,0,0,1,.32-1.52A3,3,0,0,1,12,10.55a5.85,5.85,0,0,1,1.76-.25q3,0,6,0a10,10,0,0,1,2,.16,3.1,3.1,0,0,1,2.57,2.64,12.63,12.63,0,0,1,.15,1.74c0,2,0,3.92,0,5.87a8.14,8.14,0,0,1-.16,1.78,3.05,3.05,0,0,1-2.47,2.46,7.64,7.64,0,0,1-1.35.15c-2.06,0-4.12,0-6.19,0a8.49,8.49,0,0,1-2.07-.19,3,3,0,0,1-2.38-2.36,6.91,6.91,0,0,1-.19-1.63c0-1.15,0-2.3,0-3.44C9.71,17.49,9.73,15.06,9.77,13.84Zm12,3.87a4.62,4.62,0,1,0-4.55,4.6A4.6,4.6,0,0,0,21.76,17.71ZM23,12.88a1,1,0,0,0-1-1.07,1.06,1.06,0,0,0,0,2.12A1,1,0,0,0,23,12.88Z"/><path class="a" d="M17.13,19.87a2.17,2.17,0,1,1,2.18-2.18A2.15,2.15,0,0,1,17.13,19.87Z"/></svg>