<svg xmlns="http://www.w3.org/2000/svg" viewBox="0 0 34.98 34.99"><defs><style>.a{fill:#d9804f;}</style></defs><path class="a" d="M35,16.47v2a2.08,2.08,0,0,0,0,.23,13.23,13.23,0,0,1-.16,1.53A17.39,17.39,0,0,1,25.54,33a17,17,0,0,1-10.12,1.86,17.21,17.21,0,0,1-8.13-3.18A17.49,17.49,0,0,1,.48,13.42a16.89,16.89,0,0,1,4.34-8A17.15,17.15,0,0,1,17.8,0a16.94,16.94,0,0,1,8.73,2.52,17.33,17.33,0,0,1,6.61,7.15,17.6,17.6,0,0,1,1.73,5.67C34.92,15.71,34.94,16.09,35,16.47Zm-26.69-3v.25c0,2.71,0,5.42,0,8.12a1.39,1.39,0,0,0,.39,1,1.58,1.58,0,0,0,1.21.58q7.6,0,15.21,0a1.41,1.41,0,0,0,1-.38,1.65,1.65,0,0,0,.58-1.24c0-2.58,0-5.17,0-7.75v-.52l-.16.1L23.32,16l-5.18,3.8a1.1,1.1,0,0,1-1.35,0l-.44-.35-6.85-5Zm9.19-1.92H16.41c-2.23,0-4.47,0-6.7.06-.12,0-.3-.06-.34.09s.13.18.23.25l2,1.51,5.68,4.18a.26.26,0,0,0,.38,0c.37-.27.75-.53,1.12-.81,2.09-1.53,4.19-3.06,6.25-4.64a4.51,4.51,0,0,0,.47-.4.12.12,0,0,0,.06-.12c0-.05-.08,0-.12-.05h-.37C22.55,11.55,20,11.56,17.48,11.55Z"/></svg>