<svg xmlns="http://www.w3.org/2000/svg" viewBox="0 0 34.99 34.97"><defs><style>.a{fill:#fff;}</style></defs><path class="a" d="M17.52,0A17.49,17.49,0,1,1,0,17,17.5,17.5,0,0,1,17.52,0Zm-10,24a10.25,10.25,0,0,0,3.52,1.45A11.54,11.54,0,0,0,22.19,22.3a11.53,11.53,0,0,0,3.4-7.69,2.36,2.36,0,0,1,1-2.16,6,6,0,0,0,1-1.19l-2.05.5,0-.14a3.88,3.88,0,0,0,1.5-2c-.62.23-1.17.42-1.69.65A1.26,1.26,0,0,1,24,10a4,4,0,0,0-4.47-.39,4,4,0,0,0-2.25,3.82v.85A12.22,12.22,0,0,1,8.65,10a4.58,4.58,0,0,0,1,5.58l-1.61-.41a4.28,4.28,0,0,0,3.11,4l-.07.13H9.6a4.41,4.41,0,0,0,3.67,3A8.67,8.67,0,0,1,7.53,24Z"/></svg>